<?xml version="1.0" encoding="utf-8" standalone="no"?>
<!DOCTYPE svg PUBLIC "-//W3C//DTD SVG 1.1//EN"
  "http://www.w3.org/Graphics/SVG/1.1/DTD/svg11.dtd">
<svg xmlns:xlink="http://www.w3.org/1999/xlink" width="622.49375pt" height="270.328pt" viewBox="0 0 622.49375 270.328" xmlns="http://www.w3.org/2000/svg" version="1.1">
 <metadata>
  <rdf:RDF xmlns:dc="http://purl.org/dc/elements/1.1/" xmlns:cc="http://creativecommons.org/ns#" xmlns:rdf="http://www.w3.org/1999/02/22-rdf-syntax-ns#">
   <cc:Work>
    <dc:type rdf:resource="http://purl.org/dc/dcmitype/StillImage"/>
    <dc:date>2022-01-12T12:39:36.241424</dc:date>
    <dc:format>image/svg+xml</dc:format>
    <dc:creator>
     <cc:Agent>
      <dc:title>Matplotlib v3.5.1, https://matplotlib.org/</dc:title>
     </cc:Agent>
    </dc:creator>
   </cc:Work>
  </rdf:RDF>
 </metadata>
 <defs>
  <style type="text/css">*{stroke-linejoin: round; stroke-linecap: butt}</style>
 </defs>
 <g id="figure_1">
  <g id="patch_1">
   <path d="M 0 270.328 
L 622.49375 270.328 
L 622.49375 0 
L 0 0 
z
" style="fill: #ffffff"/>
  </g>
  <g id="axes_1">
   <g id="patch_2">
    <path d="M 57.29375 224.64 
L 615.29375 224.64 
L 615.29375 7.2 
L 57.29375 7.2 
z
" style="fill: #ffffff"/>
   </g>
   <g id="matplotlib.axis_1">
    <g id="xtick_1">
     <g id="line2d_1">
      <path d="M 84.818961 224.64 
L 84.818961 7.2 
" clip-path="url(#p7d05418f7d)" style="fill: none; stroke-dasharray: 2.96,1.28; stroke-dashoffset: 0; stroke: #dddddd; stroke-width: 0.8"/>
     </g>
     <g id="line2d_2">
      <defs>
       <path id="m2161a1b600" d="M 0 0 
L 0 3.5 
" style="stroke: #000000; stroke-width: 0.8"/>
      </defs>
      <g>
       <use xlink:href="#m2161a1b600" x="84.818961" y="224.64" style="stroke: #000000; stroke-width: 0.8"/>
      </g>
     </g>
     <g id="text_1">
      <!-- 2002 -->
      <g transform="translate(73.587711 239.14)scale(0.1 -0.1)">
       <defs>
        <path id="Roboto-Regular-32" d="M 3359 0 
L 378 0 
L 378 416 
L 1953 2166 
Q 2303 2563 2436 2811 
Q 2569 3059 2569 3325 
Q 2569 3681 2353 3909 
Q 2138 4138 1778 4138 
Q 1347 4138 1108 3892 
Q 869 3647 869 3209 
L 291 3209 
Q 291 3838 695 4225 
Q 1100 4613 1778 4613 
Q 2413 4613 2781 4280 
Q 3150 3947 3150 3394 
Q 3150 2722 2294 1794 
L 1075 472 
L 3359 472 
L 3359 0 
z
" transform="scale(0.015625)"/>
        <path id="Roboto-Regular-30" d="M 3231 1941 
Q 3231 925 2884 431 
Q 2538 -63 1800 -63 
Q 1072 -63 722 420 
Q 372 903 359 1863 
L 359 2634 
Q 359 3638 706 4125 
Q 1053 4613 1794 4613 
Q 2528 4613 2875 4142 
Q 3222 3672 3231 2691 
L 3231 1941 
z
M 2653 2731 
Q 2653 3466 2447 3802 
Q 2241 4138 1794 4138 
Q 1350 4138 1147 3803 
Q 944 3469 938 2775 
L 938 1850 
Q 938 1113 1152 761 
Q 1366 409 1800 409 
Q 2228 409 2436 740 
Q 2644 1072 2653 1784 
L 2653 2731 
z
" transform="scale(0.015625)"/>
       </defs>
       <use xlink:href="#Roboto-Regular-32"/>
       <use xlink:href="#Roboto-Regular-30" x="56.152344"/>
       <use xlink:href="#Roboto-Regular-30" x="112.304688"/>
       <use xlink:href="#Roboto-Regular-32" x="168.457031"/>
      </g>
     </g>
    </g>
    <g id="xtick_2">
     <g id="line2d_3">
      <path d="M 135.720554 224.64 
L 135.720554 7.2 
" clip-path="url(#p7d05418f7d)" style="fill: none; stroke-dasharray: 2.96,1.28; stroke-dashoffset: 0; stroke: #dddddd; stroke-width: 0.8"/>
     </g>
     <g id="line2d_4">
      <g>
       <use xlink:href="#m2161a1b600" x="135.720554" y="224.64" style="stroke: #000000; stroke-width: 0.8"/>
      </g>
     </g>
     <g id="text_2">
      <!-- 2004 -->
      <g transform="translate(124.489304 239.14)scale(0.1 -0.1)">
       <defs>
        <path id="Roboto-Regular-34" d="M 2819 1528 
L 3450 1528 
L 3450 1056 
L 2819 1056 
L 2819 0 
L 2238 0 
L 2238 1056 
L 166 1056 
L 166 1397 
L 2203 4550 
L 2819 4550 
L 2819 1528 
z
M 822 1528 
L 2238 1528 
L 2238 3759 
L 2169 3634 
L 822 1528 
z
" transform="scale(0.015625)"/>
       </defs>
       <use xlink:href="#Roboto-Regular-32"/>
       <use xlink:href="#Roboto-Regular-30" x="56.152344"/>
       <use xlink:href="#Roboto-Regular-30" x="112.304688"/>
       <use xlink:href="#Roboto-Regular-34" x="168.457031"/>
      </g>
     </g>
    </g>
    <g id="xtick_3">
     <g id="line2d_5">
      <path d="M 186.691876 224.64 
L 186.691876 7.2 
" clip-path="url(#p7d05418f7d)" style="fill: none; stroke-dasharray: 2.96,1.28; stroke-dashoffset: 0; stroke: #dddddd; stroke-width: 0.8"/>
     </g>
     <g id="line2d_6">
      <g>
       <use xlink:href="#m2161a1b600" x="186.691876" y="224.64" style="stroke: #000000; stroke-width: 0.8"/>
      </g>
     </g>
     <g id="text_3">
      <!-- 2006 -->
      <g transform="translate(175.460626 239.14)scale(0.1 -0.1)">
       <defs>
        <path id="Roboto-Regular-36" d="M 2647 4553 
L 2647 4063 
L 2541 4063 
Q 1866 4050 1466 3662 
Q 1066 3275 1003 2572 
Q 1363 2984 1984 2984 
Q 2578 2984 2933 2565 
Q 3288 2147 3288 1484 
Q 3288 781 2905 359 
Q 2522 -63 1878 -63 
Q 1225 -63 819 439 
Q 413 941 413 1731 
L 413 1953 
Q 413 3209 948 3873 
Q 1484 4538 2544 4553 
L 2647 4553 
z
M 1888 2503 
Q 1591 2503 1341 2325 
Q 1091 2147 994 1878 
L 994 1666 
Q 994 1103 1247 759 
Q 1500 416 1878 416 
Q 2269 416 2492 703 
Q 2716 991 2716 1456 
Q 2716 1925 2489 2214 
Q 2263 2503 1888 2503 
z
" transform="scale(0.015625)"/>
       </defs>
       <use xlink:href="#Roboto-Regular-32"/>
       <use xlink:href="#Roboto-Regular-30" x="56.152344"/>
       <use xlink:href="#Roboto-Regular-30" x="112.304688"/>
       <use xlink:href="#Roboto-Regular-36" x="168.457031"/>
      </g>
     </g>
    </g>
    <g id="xtick_4">
     <g id="line2d_7">
      <path d="M 237.593469 224.64 
L 237.593469 7.2 
" clip-path="url(#p7d05418f7d)" style="fill: none; stroke-dasharray: 2.96,1.28; stroke-dashoffset: 0; stroke: #dddddd; stroke-width: 0.8"/>
     </g>
     <g id="line2d_8">
      <g>
       <use xlink:href="#m2161a1b600" x="237.593469" y="224.64" style="stroke: #000000; stroke-width: 0.8"/>
      </g>
     </g>
     <g id="text_4">
      <!-- 2008 -->
      <g transform="translate(226.362219 239.14)scale(0.1 -0.1)">
       <defs>
        <path id="Roboto-Regular-38" d="M 3138 3363 
Q 3138 3022 2958 2756 
Q 2778 2491 2472 2341 
Q 2828 2188 3036 1894 
Q 3244 1600 3244 1228 
Q 3244 638 2845 287 
Q 2447 -63 1797 -63 
Q 1141 -63 745 289 
Q 350 641 350 1228 
Q 350 1597 551 1894 
Q 753 2191 1109 2344 
Q 806 2494 631 2759 
Q 456 3025 456 3363 
Q 456 3938 825 4275 
Q 1194 4613 1797 4613 
Q 2397 4613 2767 4275 
Q 3138 3938 3138 3363 
z
M 2666 1241 
Q 2666 1622 2423 1862 
Q 2181 2103 1790 2103 
Q 1400 2103 1164 1865 
Q 928 1628 928 1240 
Q 928 853 1158 631 
Q 1388 409 1797 409 
Q 2203 409 2434 632 
Q 2666 856 2666 1241 
z
M 1797 4138 
Q 1456 4138 1245 3927 
Q 1034 3716 1034 3353 
Q 1034 3006 1242 2792 
Q 1450 2578 1797 2578 
Q 2144 2578 2351 2792 
Q 2559 3006 2559 3353 
Q 2559 3700 2343 3919 
Q 2128 4138 1797 4138 
z
" transform="scale(0.015625)"/>
       </defs>
       <use xlink:href="#Roboto-Regular-32"/>
       <use xlink:href="#Roboto-Regular-30" x="56.152344"/>
       <use xlink:href="#Roboto-Regular-30" x="112.304688"/>
       <use xlink:href="#Roboto-Regular-38" x="168.457031"/>
      </g>
     </g>
    </g>
    <g id="xtick_5">
     <g id="line2d_9">
      <path d="M 288.56479 224.64 
L 288.56479 7.2 
" clip-path="url(#p7d05418f7d)" style="fill: none; stroke-dasharray: 2.96,1.28; stroke-dashoffset: 0; stroke: #dddddd; stroke-width: 0.8"/>
     </g>
     <g id="line2d_10">
      <g>
       <use xlink:href="#m2161a1b600" x="288.56479" y="224.64" style="stroke: #000000; stroke-width: 0.8"/>
      </g>
     </g>
     <g id="text_5">
      <!-- 2010 -->
      <g transform="translate(277.33354 239.14)scale(0.1 -0.1)">
       <defs>
        <path id="Roboto-Regular-31" d="M 2278 0 
L 1697 0 
L 1697 3853 
L 531 3425 
L 531 3950 
L 2188 4572 
L 2278 4572 
L 2278 0 
z
" transform="scale(0.015625)"/>
       </defs>
       <use xlink:href="#Roboto-Regular-32"/>
       <use xlink:href="#Roboto-Regular-30" x="56.152344"/>
       <use xlink:href="#Roboto-Regular-31" x="112.304688"/>
       <use xlink:href="#Roboto-Regular-30" x="168.457031"/>
      </g>
     </g>
    </g>
    <g id="xtick_6">
     <g id="line2d_11">
      <path d="M 339.466384 224.64 
L 339.466384 7.2 
" clip-path="url(#p7d05418f7d)" style="fill: none; stroke-dasharray: 2.96,1.28; stroke-dashoffset: 0; stroke: #dddddd; stroke-width: 0.8"/>
     </g>
     <g id="line2d_12">
      <g>
       <use xlink:href="#m2161a1b600" x="339.466384" y="224.64" style="stroke: #000000; stroke-width: 0.8"/>
      </g>
     </g>
     <g id="text_6">
      <!-- 2012 -->
      <g transform="translate(328.235134 239.14)scale(0.1 -0.1)">
       <use xlink:href="#Roboto-Regular-32"/>
       <use xlink:href="#Roboto-Regular-30" x="56.152344"/>
       <use xlink:href="#Roboto-Regular-31" x="112.304688"/>
       <use xlink:href="#Roboto-Regular-32" x="168.457031"/>
      </g>
     </g>
    </g>
    <g id="xtick_7">
     <g id="line2d_13">
      <path d="M 390.437705 224.64 
L 390.437705 7.2 
" clip-path="url(#p7d05418f7d)" style="fill: none; stroke-dasharray: 2.96,1.28; stroke-dashoffset: 0; stroke: #dddddd; stroke-width: 0.8"/>
     </g>
     <g id="line2d_14">
      <g>
       <use xlink:href="#m2161a1b600" x="390.437705" y="224.64" style="stroke: #000000; stroke-width: 0.8"/>
      </g>
     </g>
     <g id="text_7">
      <!-- 2014 -->
      <g transform="translate(379.206455 239.14)scale(0.1 -0.1)">
       <use xlink:href="#Roboto-Regular-32"/>
       <use xlink:href="#Roboto-Regular-30" x="56.152344"/>
       <use xlink:href="#Roboto-Regular-31" x="112.304688"/>
       <use xlink:href="#Roboto-Regular-34" x="168.457031"/>
      </g>
     </g>
    </g>
    <g id="xtick_8">
     <g id="line2d_15">
      <path d="M 441.339298 224.64 
L 441.339298 7.2 
" clip-path="url(#p7d05418f7d)" style="fill: none; stroke-dasharray: 2.96,1.28; stroke-dashoffset: 0; stroke: #dddddd; stroke-width: 0.8"/>
     </g>
     <g id="line2d_16">
      <g>
       <use xlink:href="#m2161a1b600" x="441.339298" y="224.64" style="stroke: #000000; stroke-width: 0.8"/>
      </g>
     </g>
     <g id="text_8">
      <!-- 2016 -->
      <g transform="translate(430.108048 239.14)scale(0.1 -0.1)">
       <use xlink:href="#Roboto-Regular-32"/>
       <use xlink:href="#Roboto-Regular-30" x="56.152344"/>
       <use xlink:href="#Roboto-Regular-31" x="112.304688"/>
       <use xlink:href="#Roboto-Regular-36" x="168.457031"/>
      </g>
     </g>
    </g>
    <g id="xtick_9">
     <g id="line2d_17">
      <path d="M 492.31062 224.64 
L 492.31062 7.2 
" clip-path="url(#p7d05418f7d)" style="fill: none; stroke-dasharray: 2.96,1.28; stroke-dashoffset: 0; stroke: #dddddd; stroke-width: 0.8"/>
     </g>
     <g id="line2d_18">
      <g>
       <use xlink:href="#m2161a1b600" x="492.31062" y="224.64" style="stroke: #000000; stroke-width: 0.8"/>
      </g>
     </g>
     <g id="text_9">
      <!-- 2018 -->
      <g transform="translate(481.07937 239.14)scale(0.1 -0.1)">
       <use xlink:href="#Roboto-Regular-32"/>
       <use xlink:href="#Roboto-Regular-30" x="56.152344"/>
       <use xlink:href="#Roboto-Regular-31" x="112.304688"/>
       <use xlink:href="#Roboto-Regular-38" x="168.457031"/>
      </g>
     </g>
    </g>
    <g id="xtick_10">
     <g id="line2d_19">
      <path d="M 543.212213 224.64 
L 543.212213 7.2 
" clip-path="url(#p7d05418f7d)" style="fill: none; stroke-dasharray: 2.96,1.28; stroke-dashoffset: 0; stroke: #dddddd; stroke-width: 0.8"/>
     </g>
     <g id="line2d_20">
      <g>
       <use xlink:href="#m2161a1b600" x="543.212213" y="224.64" style="stroke: #000000; stroke-width: 0.8"/>
      </g>
     </g>
     <g id="text_10">
      <!-- 2020 -->
      <g transform="translate(531.980963 239.14)scale(0.1 -0.1)">
       <use xlink:href="#Roboto-Regular-32"/>
       <use xlink:href="#Roboto-Regular-30" x="56.152344"/>
       <use xlink:href="#Roboto-Regular-32" x="112.304688"/>
       <use xlink:href="#Roboto-Regular-30" x="168.457031"/>
      </g>
     </g>
    </g>
    <g id="xtick_11">
     <g id="line2d_21">
      <path d="M 594.183534 224.64 
L 594.183534 7.2 
" clip-path="url(#p7d05418f7d)" style="fill: none; stroke-dasharray: 2.96,1.28; stroke-dashoffset: 0; stroke: #dddddd; stroke-width: 0.8"/>
     </g>
     <g id="line2d_22">
      <g>
       <use xlink:href="#m2161a1b600" x="594.183534" y="224.64" style="stroke: #000000; stroke-width: 0.8"/>
      </g>
     </g>
     <g id="text_11">
      <!-- 2022 -->
      <g transform="translate(582.952284 239.14)scale(0.1 -0.1)">
       <use xlink:href="#Roboto-Regular-32"/>
       <use xlink:href="#Roboto-Regular-30" x="56.152344"/>
       <use xlink:href="#Roboto-Regular-32" x="112.304688"/>
       <use xlink:href="#Roboto-Regular-32" x="168.457031"/>
      </g>
     </g>
    </g>
   </g>
   <g id="matplotlib.axis_2">
    <g id="ytick_1">
     <g id="line2d_23">
      <path d="M 57.29375 218.279547 
L 615.29375 218.279547 
" clip-path="url(#p7d05418f7d)" style="fill: none; stroke-dasharray: 2.96,1.28; stroke-dashoffset: 0; stroke: #dddddd; stroke-width: 0.8"/>
     </g>
     <g id="line2d_24">
      <defs>
       <path id="m85441bd2d7" d="M 0 0 
L -3.5 0 
" style="stroke: #000000; stroke-width: 0.8"/>
      </defs>
      <g>
       <use xlink:href="#m85441bd2d7" x="57.29375" y="218.279547" style="stroke: #000000; stroke-width: 0.8"/>
      </g>
     </g>
     <g id="text_12">
      <!-- -20.0% -->
      <g transform="translate(20.73125 222.029547)scale(0.1 -0.1)">
       <defs>
        <path id="Roboto-Regular-2d" d="M 1641 1697 
L 116 1697 
L 116 2169 
L 1641 2169 
L 1641 1697 
z
" transform="scale(0.015625)"/>
        <path id="Roboto-Regular-2e" d="M 450 303 
Q 450 453 539 553 
Q 628 653 806 653 
Q 984 653 1076 553 
Q 1169 453 1169 303 
Q 1169 159 1076 62 
Q 984 -34 806 -34 
Q 628 -34 539 62 
Q 450 159 450 303 
z
" transform="scale(0.015625)"/>
        <path id="Roboto-Regular-25" d="M 328 3675 
Q 328 4084 589 4350 
Q 850 4616 1259 4616 
Q 1675 4616 1933 4348 
Q 2191 4081 2191 3656 
L 2191 3434 
Q 2191 3022 1930 2761 
Q 1669 2500 1266 2500 
Q 859 2500 593 2761 
Q 328 3022 328 3456 
L 328 3675 
z
M 759 3434 
Q 759 3191 896 3033 
Q 1034 2875 1266 2875 
Q 1488 2875 1623 3028 
Q 1759 3181 1759 3447 
L 1759 3675 
Q 1759 3919 1625 4078 
Q 1491 4238 1259 4238 
Q 1028 4238 893 4078 
Q 759 3919 759 3663 
L 759 3434 
z
M 2544 1116 
Q 2544 1525 2805 1789 
Q 3066 2053 3475 2053 
Q 3884 2053 4146 1790 
Q 4409 1528 4409 1094 
L 4409 872 
Q 4409 463 4148 198 
Q 3888 -66 3481 -66 
Q 3075 -66 2809 195 
Q 2544 456 2544 891 
L 2544 1116 
z
M 2975 872 
Q 2975 625 3112 467 
Q 3250 309 3481 309 
Q 3706 309 3840 464 
Q 3975 619 3975 884 
L 3975 1116 
Q 3975 1363 3839 1519 
Q 3703 1675 3475 1675 
Q 3253 1675 3114 1520 
Q 2975 1366 2975 1103 
L 2975 872 
z
M 1397 344 
L 1069 550 
L 3291 4106 
L 3619 3900 
L 1397 344 
z
" transform="scale(0.015625)"/>
       </defs>
       <use xlink:href="#Roboto-Regular-2d"/>
       <use xlink:href="#Roboto-Regular-32" x="27.587891"/>
       <use xlink:href="#Roboto-Regular-30" x="83.740234"/>
       <use xlink:href="#Roboto-Regular-2e" x="139.892578"/>
       <use xlink:href="#Roboto-Regular-30" x="166.210938"/>
       <use xlink:href="#Roboto-Regular-25" x="222.363281"/>
      </g>
     </g>
    </g>
    <g id="ytick_2">
     <g id="line2d_25">
      <path d="M 57.29375 193.185959 
L 615.29375 193.185959 
" clip-path="url(#p7d05418f7d)" style="fill: none; stroke-dasharray: 2.96,1.28; stroke-dashoffset: 0; stroke: #dddddd; stroke-width: 0.8"/>
     </g>
     <g id="line2d_26">
      <g>
       <use xlink:href="#m85441bd2d7" x="57.29375" y="193.185959" style="stroke: #000000; stroke-width: 0.8"/>
      </g>
     </g>
     <g id="text_13">
      <!-- -10.0% -->
      <g transform="translate(20.73125 196.935959)scale(0.1 -0.1)">
       <use xlink:href="#Roboto-Regular-2d"/>
       <use xlink:href="#Roboto-Regular-31" x="27.587891"/>
       <use xlink:href="#Roboto-Regular-30" x="83.740234"/>
       <use xlink:href="#Roboto-Regular-2e" x="139.892578"/>
       <use xlink:href="#Roboto-Regular-30" x="166.210938"/>
       <use xlink:href="#Roboto-Regular-25" x="222.363281"/>
      </g>
     </g>
    </g>
    <g id="ytick_3">
     <g id="line2d_27">
      <path d="M 57.29375 168.092371 
L 615.29375 168.092371 
" clip-path="url(#p7d05418f7d)" style="fill: none; stroke-dasharray: 2.96,1.28; stroke-dashoffset: 0; stroke: #dddddd; stroke-width: 0.8"/>
     </g>
     <g id="line2d_28">
      <g>
       <use xlink:href="#m85441bd2d7" x="57.29375" y="168.092371" style="stroke: #000000; stroke-width: 0.8"/>
      </g>
     </g>
     <g id="text_14">
      <!-- 0.0% -->
      <g transform="translate(29.10625 171.842371)scale(0.1 -0.1)">
       <use xlink:href="#Roboto-Regular-30"/>
       <use xlink:href="#Roboto-Regular-2e" x="56.152344"/>
       <use xlink:href="#Roboto-Regular-30" x="82.470703"/>
       <use xlink:href="#Roboto-Regular-25" x="138.623047"/>
      </g>
     </g>
    </g>
    <g id="ytick_4">
     <g id="line2d_29">
      <path d="M 57.29375 142.998783 
L 615.29375 142.998783 
" clip-path="url(#p7d05418f7d)" style="fill: none; stroke-dasharray: 2.96,1.28; stroke-dashoffset: 0; stroke: #dddddd; stroke-width: 0.8"/>
     </g>
     <g id="line2d_30">
      <g>
       <use xlink:href="#m85441bd2d7" x="57.29375" y="142.998783" style="stroke: #000000; stroke-width: 0.8"/>
      </g>
     </g>
     <g id="text_15">
      <!-- 10.0% -->
      <g transform="translate(23.490625 146.748783)scale(0.1 -0.1)">
       <use xlink:href="#Roboto-Regular-31"/>
       <use xlink:href="#Roboto-Regular-30" x="56.152344"/>
       <use xlink:href="#Roboto-Regular-2e" x="112.304688"/>
       <use xlink:href="#Roboto-Regular-30" x="138.623047"/>
       <use xlink:href="#Roboto-Regular-25" x="194.775391"/>
      </g>
     </g>
    </g>
    <g id="ytick_5">
     <g id="line2d_31">
      <path d="M 57.29375 117.905195 
L 615.29375 117.905195 
" clip-path="url(#p7d05418f7d)" style="fill: none; stroke-dasharray: 2.96,1.28; stroke-dashoffset: 0; stroke: #dddddd; stroke-width: 0.8"/>
     </g>
     <g id="line2d_32">
      <g>
       <use xlink:href="#m85441bd2d7" x="57.29375" y="117.905195" style="stroke: #000000; stroke-width: 0.8"/>
      </g>
     </g>
     <g id="text_16">
      <!-- 20.0% -->
      <g transform="translate(23.490625 121.655195)scale(0.1 -0.1)">
       <use xlink:href="#Roboto-Regular-32"/>
       <use xlink:href="#Roboto-Regular-30" x="56.152344"/>
       <use xlink:href="#Roboto-Regular-2e" x="112.304688"/>
       <use xlink:href="#Roboto-Regular-30" x="138.623047"/>
       <use xlink:href="#Roboto-Regular-25" x="194.775391"/>
      </g>
     </g>
    </g>
    <g id="ytick_6">
     <g id="line2d_33">
      <path d="M 57.29375 92.811607 
L 615.29375 92.811607 
" clip-path="url(#p7d05418f7d)" style="fill: none; stroke-dasharray: 2.96,1.28; stroke-dashoffset: 0; stroke: #dddddd; stroke-width: 0.8"/>
     </g>
     <g id="line2d_34">
      <g>
       <use xlink:href="#m85441bd2d7" x="57.29375" y="92.811607" style="stroke: #000000; stroke-width: 0.8"/>
      </g>
     </g>
     <g id="text_17">
      <!-- 30.0% -->
      <g transform="translate(23.490625 96.561607)scale(0.1 -0.1)">
       <defs>
        <path id="Roboto-Regular-33" d="M 1219 2556 
L 1653 2556 
Q 2063 2563 2297 2772 
Q 2531 2981 2531 3338 
Q 2531 4138 1734 4138 
Q 1359 4138 1136 3923 
Q 913 3709 913 3356 
L 334 3356 
Q 334 3897 729 4255 
Q 1125 4613 1734 4613 
Q 2378 4613 2743 4272 
Q 3109 3931 3109 3325 
Q 3109 3028 2917 2750 
Q 2725 2472 2394 2334 
Q 2769 2216 2973 1941 
Q 3178 1666 3178 1269 
Q 3178 656 2778 296 
Q 2378 -63 1737 -63 
Q 1097 -63 695 284 
Q 294 631 294 1200 
L 875 1200 
Q 875 841 1109 625 
Q 1344 409 1738 409 
Q 2156 409 2378 628 
Q 2600 847 2600 1256 
Q 2600 1653 2356 1865 
Q 2113 2078 1653 2084 
L 1219 2084 
L 1219 2556 
z
" transform="scale(0.015625)"/>
       </defs>
       <use xlink:href="#Roboto-Regular-33"/>
       <use xlink:href="#Roboto-Regular-30" x="56.152344"/>
       <use xlink:href="#Roboto-Regular-2e" x="112.304688"/>
       <use xlink:href="#Roboto-Regular-30" x="138.623047"/>
       <use xlink:href="#Roboto-Regular-25" x="194.775391"/>
      </g>
     </g>
    </g>
    <g id="ytick_7">
     <g id="line2d_35">
      <path d="M 57.29375 67.718019 
L 615.29375 67.718019 
" clip-path="url(#p7d05418f7d)" style="fill: none; stroke-dasharray: 2.96,1.28; stroke-dashoffset: 0; stroke: #dddddd; stroke-width: 0.8"/>
     </g>
     <g id="line2d_36">
      <g>
       <use xlink:href="#m85441bd2d7" x="57.29375" y="67.718019" style="stroke: #000000; stroke-width: 0.8"/>
      </g>
     </g>
     <g id="text_18">
      <!-- 40.0% -->
      <g transform="translate(23.490625 71.468019)scale(0.1 -0.1)">
       <use xlink:href="#Roboto-Regular-34"/>
       <use xlink:href="#Roboto-Regular-30" x="56.152344"/>
       <use xlink:href="#Roboto-Regular-2e" x="112.304688"/>
       <use xlink:href="#Roboto-Regular-30" x="138.623047"/>
       <use xlink:href="#Roboto-Regular-25" x="194.775391"/>
      </g>
     </g>
    </g>
    <g id="ytick_8">
     <g id="line2d_37">
      <path d="M 57.29375 42.624431 
L 615.29375 42.624431 
" clip-path="url(#p7d05418f7d)" style="fill: none; stroke-dasharray: 2.96,1.28; stroke-dashoffset: 0; stroke: #dddddd; stroke-width: 0.8"/>
     </g>
     <g id="line2d_38">
      <g>
       <use xlink:href="#m85441bd2d7" x="57.29375" y="42.624431" style="stroke: #000000; stroke-width: 0.8"/>
      </g>
     </g>
     <g id="text_19">
      <!-- 50.0% -->
      <g transform="translate(23.490625 46.374431)scale(0.1 -0.1)">
       <defs>
        <path id="Roboto-Regular-35" d="M 644 2281 
L 875 4550 
L 3206 4550 
L 3206 4016 
L 1366 4016 
L 1228 2775 
Q 1563 2972 1988 2972 
Q 2609 2972 2975 2561 
Q 3341 2150 3341 1450 
Q 3341 747 2961 342 
Q 2581 -63 1900 -63 
Q 1297 -63 915 271 
Q 534 606 481 1197 
L 1028 1197 
Q 1081 806 1306 607 
Q 1531 409 1900 409 
Q 2303 409 2533 684 
Q 2763 959 2763 1444 
Q 2763 1900 2514 2176 
Q 2266 2453 1853 2453 
Q 1475 2453 1259 2288 
L 1106 2163 
L 644 2281 
z
" transform="scale(0.015625)"/>
       </defs>
       <use xlink:href="#Roboto-Regular-35"/>
       <use xlink:href="#Roboto-Regular-30" x="56.152344"/>
       <use xlink:href="#Roboto-Regular-2e" x="112.304688"/>
       <use xlink:href="#Roboto-Regular-30" x="138.623047"/>
       <use xlink:href="#Roboto-Regular-25" x="194.775391"/>
      </g>
     </g>
    </g>
    <g id="ytick_9">
     <g id="line2d_39">
      <path d="M 57.29375 17.530843 
L 615.29375 17.530843 
" clip-path="url(#p7d05418f7d)" style="fill: none; stroke-dasharray: 2.96,1.28; stroke-dashoffset: 0; stroke: #dddddd; stroke-width: 0.8"/>
     </g>
     <g id="line2d_40">
      <g>
       <use xlink:href="#m85441bd2d7" x="57.29375" y="17.530843" style="stroke: #000000; stroke-width: 0.8"/>
      </g>
     </g>
     <g id="text_20">
      <!-- 60.0% -->
      <g transform="translate(23.490625 21.280843)scale(0.1 -0.1)">
       <use xlink:href="#Roboto-Regular-36"/>
       <use xlink:href="#Roboto-Regular-30" x="56.152344"/>
       <use xlink:href="#Roboto-Regular-2e" x="112.304688"/>
       <use xlink:href="#Roboto-Regular-30" x="138.623047"/>
       <use xlink:href="#Roboto-Regular-25" x="194.775391"/>
      </g>
     </g>
    </g>
    <g id="text_21">
     <!-- YoY Growth -->
     <g transform="translate(14.7 142.109062)rotate(-90)scale(0.1 -0.1)">
      <defs>
       <path id="Roboto-Regular-59" d="M 1916 2266 
L 3103 4550 
L 3784 4550 
L 2216 1697 
L 2216 0 
L 1616 0 
L 1616 1697 
L 47 4550 
L 734 4550 
L 1916 2266 
z
" transform="scale(0.015625)"/>
       <path id="Roboto-Regular-6f" d="M 284 1722 
Q 284 2219 479 2616 
Q 675 3013 1023 3228 
Q 1372 3444 1819 3444 
Q 2509 3444 2936 2966 
Q 3363 2488 3363 1694 
L 3363 1653 
Q 3363 1159 3173 767 
Q 2984 375 2632 156 
Q 2281 -63 1825 -63 
Q 1138 -63 711 415 
Q 284 894 284 1681 
L 284 1722 
z
M 866 1653 
Q 866 1091 1127 750 
Q 1388 409 1825 409 
Q 2266 409 2525 754 
Q 2784 1100 2784 1722 
Q 2784 2278 2520 2623 
Q 2256 2969 1819 2969 
Q 1391 2969 1128 2628 
Q 866 2288 866 1653 
z
" transform="scale(0.015625)"/>
       <path id="Roboto-Regular-20" transform="scale(0.015625)"/>
       <path id="Roboto-Regular-47" d="M 3888 597 
Q 3656 266 3242 101 
Q 2828 -63 2278 -63 
Q 1722 -63 1290 198 
Q 859 459 623 940 
Q 388 1422 381 2056 
L 381 2453 
Q 381 3481 861 4047 
Q 1341 4613 2209 4613 
Q 2922 4613 3356 4248 
Q 3791 3884 3888 3216 
L 3288 3216 
Q 3119 4119 2213 4119 
Q 1609 4119 1298 3695 
Q 988 3272 984 2469 
L 984 2097 
Q 984 1331 1334 879 
Q 1684 428 2281 428 
Q 2619 428 2872 503 
Q 3125 578 3291 756 
L 3291 1778 
L 2238 1778 
L 2238 2266 
L 3888 2266 
L 3888 597 
z
" transform="scale(0.015625)"/>
       <path id="Roboto-Regular-72" d="M 2072 2863 
Q 1941 2884 1788 2884 
Q 1219 2884 1016 2400 
L 1016 0 
L 438 0 
L 438 3381 
L 1000 3381 
L 1009 2991 
Q 1294 3444 1816 3444 
Q 1984 3444 2072 3400 
L 2072 2863 
z
" transform="scale(0.015625)"/>
       <path id="Roboto-Regular-77" d="M 3431 797 
L 4081 3381 
L 4659 3381 
L 3675 0 
L 3206 0 
L 2384 2563 
L 1584 0 
L 1116 0 
L 134 3381 
L 709 3381 
L 1375 850 
L 2163 3381 
L 2628 3381 
L 3431 797 
z
" transform="scale(0.015625)"/>
       <path id="Roboto-Regular-74" d="M 1222 4200 
L 1222 3381 
L 1853 3381 
L 1853 2934 
L 1222 2934 
L 1222 838 
Q 1222 634 1306 532 
Q 1391 431 1594 431 
Q 1694 431 1869 469 
L 1869 0 
Q 1641 -63 1425 -63 
Q 1038 -63 841 171 
Q 644 406 644 838 
L 644 2934 
L 28 2934 
L 28 3381 
L 644 3381 
L 644 4200 
L 1222 4200 
z
" transform="scale(0.015625)"/>
       <path id="Roboto-Regular-68" d="M 1016 2972 
Q 1400 3444 2016 3444 
Q 3088 3444 3097 2234 
L 3097 0 
L 2519 0 
L 2519 2238 
Q 2516 2603 2352 2778 
Q 2188 2953 1841 2953 
Q 1559 2953 1346 2803 
Q 1134 2653 1016 2409 
L 1016 0 
L 438 0 
L 438 4800 
L 1016 4800 
L 1016 2972 
z
" transform="scale(0.015625)"/>
      </defs>
      <use xlink:href="#Roboto-Regular-59"/>
      <use xlink:href="#Roboto-Regular-6f" x="60.058594"/>
      <use xlink:href="#Roboto-Regular-59" x="117.089844"/>
      <use xlink:href="#Roboto-Regular-20" x="177.148438"/>
      <use xlink:href="#Roboto-Regular-47" x="201.904297"/>
      <use xlink:href="#Roboto-Regular-72" x="270.019531"/>
      <use xlink:href="#Roboto-Regular-6f" x="303.857422"/>
      <use xlink:href="#Roboto-Regular-77" x="360.888672"/>
      <use xlink:href="#Roboto-Regular-74" x="436.035156"/>
      <use xlink:href="#Roboto-Regular-68" x="468.701172"/>
     </g>
    </g>
   </g>
   <g id="line2d_41">
    <path d="M 82.657386 52.395883 
L 84.818961 80.245315 
L 86.980535 57.642186 
L 88.932925 76.360456 
L 91.0945 84.076892 
L 93.186346 79.911678 
L 97.439767 78.131608 
L 99.601341 75.698782 
L 101.762916 64.683938 
L 103.854762 72.013482 
L 106.016337 138.031674 
L 108.108183 142.366061 
L 110.269757 115.497013 
L 112.431332 134.221153 
L 114.383722 120.939888 
L 116.545296 118.069756 
L 118.637143 117.954637 
L 120.798717 107.154869 
L 122.890563 100.541489 
L 125.052138 97.816083 
L 129.305559 82.616965 
L 131.467133 77.385477 
L 133.55898 74.26194 
L 135.720554 64.646588 
L 137.882129 48.885827 
L 139.904247 42.650038 
L 142.065821 38.232426 
L 144.157668 28.517941 
L 146.319242 28.547131 
L 148.411088 31.803079 
L 150.572663 26.311261 
L 152.734237 25.852443 
L 154.826084 23.421381 
L 156.987658 19.814151 
L 159.079504 19.030361 
L 161.241079 17.083636 
L 163.402653 27.145854 
L 165.355043 24.717731 
L 167.516618 30.576774 
L 169.608464 37.292591 
L 171.770039 40.116591 
L 173.861885 41.84188 
L 176.023459 42.675891 
L 178.185034 44.319402 
L 180.27688 48.585888 
L 182.438455 59.104361 
L 184.530301 66.751194 
L 186.691876 72.483175 
L 188.85345 75.295209 
L 190.80584 82.835269 
L 192.967414 82.114839 
L 195.059261 86.782249 
L 197.220835 95.921065 
L 199.312682 100.569263 
L 201.474256 107.360931 
L 203.635831 112.826228 
L 205.727677 111.278624 
L 207.889251 107.366084 
L 209.981098 108.602175 
L 212.142672 123.788415 
L 214.304247 122.257638 
L 216.256637 119.189741 
L 218.418211 117.500759 
L 220.510057 116.131656 
L 222.671632 114.508941 
L 224.763478 114.799148 
L 226.925053 116.899415 
L 229.086627 119.431881 
L 231.178474 125.680518 
L 233.340048 129.588099 
L 235.431894 123.960432 
L 237.593469 109.308783 
L 239.755043 113.029918 
L 241.777161 119.655315 
L 243.938736 129.133468 
L 246.030582 133.053827 
L 248.192157 135.799206 
L 250.284003 139.639654 
L 254.607152 144.629321 
L 256.698998 151.392843 
L 258.860573 157.871704 
L 260.952419 181.457234 
L 263.113994 183.332888 
L 265.275568 187.539659 
L 267.227958 193.440267 
L 269.389533 195.471909 
L 271.481379 197.894598 
L 273.642953 201.919832 
L 275.7348 205.05003 
L 277.896374 204.687853 
L 280.057949 206.538148 
L 282.149795 203.797198 
L 284.311369 201.520014 
L 286.403216 190.130624 
L 288.56479 188.718142 
L 290.726365 186.881751 
L 292.678755 182.874608 
L 294.840329 179.769554 
L 296.932175 176.091502 
L 299.09375 173.137722 
L 301.185596 168.61566 
L 303.347171 165.055269 
L 305.508745 161.709795 
L 307.600592 160.058402 
L 309.762166 159.956707 
L 311.854012 157.562564 
L 314.015587 158.557248 
L 316.177161 157.048364 
L 320.291126 147.042299 
L 322.382972 140.185156 
L 324.544547 132.390975 
L 326.636393 125.469666 
L 328.797967 121.88562 
L 330.959542 114.42907 
L 333.051388 109.839179 
L 335.212963 94.954708 
L 337.304809 86.749575 
L 339.466384 83.991372 
L 341.627958 79.949257 
L 343.650076 77.508214 
L 345.811651 80.041082 
L 347.903497 86.668294 
L 350.065071 91.669024 
L 352.156918 95.871216 
L 354.318492 98.303061 
L 356.480067 103.406988 
L 358.571913 106.671478 
L 360.733488 115.522555 
L 362.825334 121.761768 
L 364.986908 122.197717 
L 367.148483 124.840433 
L 369.100873 125.621676 
L 371.262447 130.013428 
L 373.354294 128.924132 
L 375.515868 128.384945 
L 379.769289 130.972178 
L 381.930863 133.779955 
L 384.02271 134.928592 
L 386.184284 136.491233 
L 390.437705 144.060692 
L 392.59928 147.286059 
L 394.551669 152.570985 
L 396.713244 152.194777 
L 398.80509 153.598388 
L 400.966665 155.453087 
L 403.058511 156.729931 
L 407.38166 156.034763 
L 409.473506 155.951171 
L 411.635081 156.339606 
L 413.726927 156.07281 
L 415.888502 152.975765 
L 418.050076 152.779478 
L 420.002466 152.380918 
L 422.164041 152.744379 
L 424.255887 153.936157 
L 426.417461 156.451024 
L 430.670882 159.278402 
L 434.924303 164.144166 
L 437.085877 163.899795 
L 439.177724 162.832537 
L 441.339298 163.204028 
L 443.500873 163.11275 
L 445.522991 162.091835 
L 447.684565 161.166994 
L 449.776412 159.994899 
L 451.937986 154.577967 
L 454.029832 151.469225 
L 456.191407 152.361294 
L 458.352981 151.06655 
L 460.444828 150.317069 
L 462.606402 149.34844 
L 464.698249 150.708979 
L 466.859823 151.337435 
L 469.021398 150.181456 
L 470.973787 151.323637 
L 473.135362 150.454652 
L 475.227208 152.216575 
L 477.388783 154.794442 
L 479.480629 156.564042 
L 481.642204 156.698677 
L 483.803778 157.443566 
L 485.895624 157.398048 
L 488.057199 154.966242 
L 490.149045 152.389824 
L 492.31062 152.627288 
L 494.472194 152.446452 
L 496.424584 151.18165 
L 498.586159 152.890645 
L 500.678005 152.069779 
L 502.839579 153.626843 
L 507.093 154.948203 
L 509.254575 153.372085 
L 511.346421 155.995644 
L 513.507996 152.790905 
L 515.599842 155.57342 
L 517.761416 158.744079 
L 519.922991 160.183066 
L 521.875381 163.202262 
L 524.036955 166.922111 
L 526.128802 167.493755 
L 528.290376 167.785209 
L 530.382222 171.191858 
L 532.543797 171.912024 
L 534.705371 174.542467 
L 536.797218 173.086926 
L 538.958792 177.163277 
L 541.050638 178.692886 
L 545.373787 177.052624 
L 547.395906 181.746587 
L 549.55748 189.804366 
L 551.649326 194.2605 
L 553.810901 199.566881 
L 555.902747 201.178689 
L 558.064322 203.18371 
L 560.225896 204.721376 
L 562.317743 207.761877 
L 564.479317 208.551129 
L 566.571163 209.598955 
L 568.732738 210.388719 
L 570.894312 213.112738 
L 572.846702 214.756364 
L 575.008277 208.190331 
L 579.261698 200.124048 
L 581.353544 198.030601 
L 583.515118 197.73833 
L 585.676693 194.452532 
L 587.768539 187.513196 
L 589.930114 182.852616 
L 589.930114 182.852616 
" clip-path="url(#p7d05418f7d)" style="fill: none; stroke: #2b5aa5; stroke-width: 1.5; stroke-linecap: square"/>
   </g>
   <g id="line2d_42">
    <path d="M 82.657386 68.538187 
L 84.818961 79.318078 
L 86.980535 73.39023 
L 88.932925 74.895861 
L 91.0945 82.152838 
L 93.186346 73.329267 
L 95.347921 68.355627 
L 97.439767 66.868275 
L 99.601341 64.972647 
L 101.762916 59.575391 
L 103.854762 64.925445 
L 106.016337 72.836594 
L 108.108183 74.598572 
L 110.269757 64.006122 
L 112.431332 72.236495 
L 114.383722 70.878525 
L 116.545296 68.302837 
L 118.637143 77.74536 
L 120.798717 77.894227 
L 122.890563 80.338757 
L 125.052138 70.904176 
L 127.213713 55.952519 
L 129.305559 57.619017 
L 131.467133 57.002782 
L 133.55898 48.961491 
L 135.720554 46.888326 
L 137.882129 45.228544 
L 139.904247 45.016621 
L 142.065821 46.043522 
L 144.157668 36.208457 
L 146.319242 36.639211 
L 148.411088 36.041728 
L 150.572663 43.802686 
L 152.734237 53.174997 
L 154.826084 43.477386 
L 156.987658 35.67374 
L 159.079504 47.204445 
L 161.241079 42.437032 
L 163.402653 40.16029 
L 165.355043 36.672211 
L 167.516618 37.454268 
L 169.608464 37.343592 
L 171.770039 35.257991 
L 173.861885 33.863282 
L 176.023459 34.578764 
L 178.185034 36.253644 
L 180.27688 28.910675 
L 182.438455 34.850627 
L 184.530301 35.416345 
L 186.691876 36.910597 
L 188.85345 32.886483 
L 190.80584 36.630762 
L 192.967414 32.247966 
L 195.059261 32.806463 
L 197.220835 35.242907 
L 199.312682 37.083411 
L 201.474256 40.266909 
L 203.635831 39.859978 
L 205.727677 51.823844 
L 207.889251 52.273485 
L 209.981098 56.811835 
L 214.304247 70.141517 
L 216.256637 70.348975 
L 218.418211 75.864891 
L 220.510057 79.48607 
L 222.671632 82.303501 
L 224.763478 82.462906 
L 226.925053 85.270516 
L 229.086627 92.558883 
L 231.178474 97.380622 
L 233.340048 101.758938 
L 235.431894 104.239643 
L 237.593469 103.104719 
L 239.755043 106.89257 
L 241.777161 111.722769 
L 243.938736 117.180122 
L 246.030582 121.268399 
L 248.192157 126.321148 
L 250.284003 135.850723 
L 252.445578 141.468408 
L 254.607152 146.6105 
L 256.698998 152.630546 
L 258.860573 159.303978 
L 260.952419 169.564511 
L 263.113994 173.826178 
L 265.275568 184.238323 
L 267.227958 189.452283 
L 269.389533 195.679146 
L 273.642953 204.583723 
L 275.7348 206.896766 
L 277.896374 210.257836 
L 280.057949 213.286864 
L 282.149795 214.107714 
L 284.311369 214.246048 
L 286.403216 213.190764 
L 288.56479 212.573879 
L 290.726365 206.96374 
L 292.678755 206.501855 
L 294.840329 202.168911 
L 296.932175 198.862902 
L 299.09375 193.094025 
L 301.185596 189.110005 
L 303.347171 182.94611 
L 305.508745 177.271934 
L 309.762166 167.161864 
L 311.854012 159.479518 
L 314.015587 155.438705 
L 316.177161 151.004466 
L 318.129551 143.876981 
L 320.291126 137.907587 
L 322.382972 133.350581 
L 324.544547 130.54209 
L 326.636393 125.409236 
L 328.797967 122.349667 
L 330.959542 117.004585 
L 333.051388 114.881256 
L 335.212963 109.62717 
L 337.304809 107.153802 
L 339.466384 106.354777 
L 341.627958 105.085691 
L 343.650076 104.125572 
L 345.811651 104.23915 
L 347.903497 104.509288 
L 350.065071 105.406298 
L 354.318492 105.589314 
L 356.480067 107.645016 
L 358.571913 108.281271 
L 360.733488 109.145247 
L 362.825334 112.15258 
L 364.986908 112.789233 
L 367.148483 114.572249 
L 369.100873 116.655814 
L 371.262447 120.569886 
L 375.515868 123.851826 
L 377.607714 125.228505 
L 379.769289 126.97067 
L 381.930863 129.763921 
L 384.02271 131.926526 
L 386.184284 136.078326 
L 388.276131 139.012105 
L 390.437705 141.091088 
L 392.59928 142.232313 
L 394.551669 144.133551 
L 396.713244 144.517259 
L 398.80509 145.277509 
L 400.966665 146.706046 
L 403.058511 148.747769 
L 405.220086 149.683613 
L 407.38166 151.375918 
L 409.473506 152.659757 
L 411.635081 153.138674 
L 413.726927 153.157312 
L 415.888502 152.395466 
L 418.050076 153.052875 
L 420.002466 153.377336 
L 422.164041 152.710354 
L 424.255887 152.918473 
L 426.417461 149.34114 
L 428.509308 148.38905 
L 430.670882 147.159718 
L 432.832457 144.784164 
L 434.924303 143.261245 
L 437.085877 141.176308 
L 439.177724 138.655657 
L 443.500873 136.663131 
L 445.522991 134.811898 
L 447.684565 134.989824 
L 449.776412 133.671253 
L 451.937986 135.187411 
L 454.029832 134.240059 
L 456.191407 135.269878 
L 458.352981 135.245896 
L 460.444828 135.006846 
L 462.606402 135.105728 
L 464.698249 137.084778 
L 466.859823 138.027571 
L 469.021398 138.004649 
L 470.973787 139.025848 
L 473.135362 139.373563 
L 477.388783 141.869973 
L 481.642204 143.819872 
L 483.803778 145.491145 
L 485.895624 146.887575 
L 490.149045 146.669209 
L 492.31062 146.50625 
L 496.424584 147.043327 
L 498.586159 147.652138 
L 500.678005 147.871827 
L 507.093 151.191149 
L 509.254575 150.007183 
L 511.346421 150.816639 
L 513.507996 151.020099 
L 515.599842 151.008982 
L 517.761416 151.628563 
L 521.875381 152.051542 
L 524.036955 152.540449 
L 526.128802 152.433547 
L 528.290376 152.112371 
L 530.382222 152.77295 
L 532.543797 152.066519 
L 534.705371 153.053251 
L 536.797218 152.737969 
L 538.958792 153.422597 
L 541.050638 155.004365 
L 543.212213 155.83143 
L 545.373787 156.274186 
L 547.395906 159.717678 
L 549.55748 167.027652 
L 551.649326 170.8113 
L 553.810901 180.39038 
L 555.902747 182.986003 
L 558.064322 184.832638 
L 562.317743 187.340432 
L 564.479317 186.993492 
L 566.571163 187.323765 
L 568.732738 188.936421 
L 570.894312 190.973133 
L 572.846702 190.056488 
L 575.008277 184.861077 
L 577.100123 181.313774 
L 579.261698 172.375793 
L 581.353544 169.875665 
L 583.515118 169.113799 
L 585.676693 166.844881 
L 587.768539 166.646234 
L 589.930114 163.745881 
L 589.930114 163.745881 
" clip-path="url(#p7d05418f7d)" style="fill: none; stroke: #808080; stroke-width: 1.5; stroke-linecap: square"/>
   </g>
   <g id="patch_3">
    <path d="M 57.29375 224.64 
L 57.29375 7.2 
" style="fill: none; stroke: #000000; stroke-width: 0.8; stroke-linejoin: miter; stroke-linecap: square"/>
   </g>
   <g id="patch_4">
    <path d="M 57.29375 224.64 
L 615.29375 224.64 
" style="fill: none; stroke: #000000; stroke-width: 0.8; stroke-linejoin: miter; stroke-linecap: square"/>
   </g>
   <g id="legend_1">
    <g id="line2d_43">
     <path d="M 235.865625 253.59675 
L 245.865625 253.59675 
L 255.865625 253.59675 
" style="fill: none; stroke: #2b5aa5; stroke-width: 1.5; stroke-linecap: square"/>
    </g>
    <g id="text_22">
     <!-- Banamex -->
     <g transform="translate(263.865625 257.09675)scale(0.1 -0.1)">
      <defs>
       <path id="Roboto-Regular-42" d="M 528 0 
L 528 4550 
L 2016 4550 
Q 2756 4550 3129 4244 
Q 3503 3938 3503 3338 
Q 3503 3019 3322 2773 
Q 3141 2528 2828 2394 
Q 3197 2291 3411 2002 
Q 3625 1713 3625 1313 
Q 3625 700 3228 350 
Q 2831 0 2106 0 
L 528 0 
z
M 1128 2128 
L 1128 491 
L 2119 491 
Q 2538 491 2780 708 
Q 3022 925 3022 1306 
Q 3022 2128 2128 2128 
L 1128 2128 
z
M 1128 2609 
L 2034 2609 
Q 2428 2609 2664 2806 
Q 2900 3003 2900 3341 
Q 2900 3716 2681 3886 
Q 2463 4056 2016 4056 
L 1128 4056 
L 1128 2609 
z
" transform="scale(0.015625)"/>
       <path id="Roboto-Regular-61" d="M 2525 0 
Q 2475 100 2444 356 
Q 2041 -63 1481 -63 
Q 981 -63 661 220 
Q 341 503 341 938 
Q 341 1466 742 1758 
Q 1144 2050 1872 2050 
L 2434 2050 
L 2434 2316 
Q 2434 2619 2253 2798 
Q 2072 2978 1719 2978 
Q 1409 2978 1200 2822 
Q 991 2666 991 2444 
L 409 2444 
Q 409 2697 589 2933 
Q 769 3169 1076 3306 
Q 1384 3444 1753 3444 
Q 2338 3444 2669 3151 
Q 3000 2859 3013 2347 
L 3013 791 
Q 3013 325 3131 50 
L 3131 0 
L 2525 0 
z
M 1566 441 
Q 1838 441 2081 581 
Q 2325 722 2434 947 
L 2434 1641 
L 1981 1641 
Q 919 1641 919 1019 
Q 919 747 1100 594 
Q 1281 441 1566 441 
z
" transform="scale(0.015625)"/>
       <path id="Roboto-Regular-6e" d="M 984 3381 
L 1003 2956 
Q 1391 3444 2016 3444 
Q 3088 3444 3097 2234 
L 3097 0 
L 2519 0 
L 2519 2238 
Q 2516 2603 2352 2778 
Q 2188 2953 1841 2953 
Q 1559 2953 1346 2803 
Q 1134 2653 1016 2409 
L 1016 0 
L 438 0 
L 438 3381 
L 984 3381 
z
" transform="scale(0.015625)"/>
       <path id="Roboto-Regular-6d" d="M 981 3381 
L 997 3006 
Q 1369 3444 2000 3444 
Q 2709 3444 2966 2900 
Q 3134 3144 3404 3294 
Q 3675 3444 4044 3444 
Q 5156 3444 5175 2266 
L 5175 0 
L 4597 0 
L 4597 2231 
Q 4597 2594 4431 2773 
Q 4266 2953 3875 2953 
Q 3553 2953 3340 2761 
Q 3128 2569 3094 2244 
L 3094 0 
L 2513 0 
L 2513 2216 
Q 2513 2953 1791 2953 
Q 1222 2953 1013 2469 
L 1013 0 
L 434 0 
L 434 3381 
L 981 3381 
z
" transform="scale(0.015625)"/>
       <path id="Roboto-Regular-65" d="M 1841 -63 
Q 1153 -63 722 389 
Q 291 841 291 1597 
L 291 1703 
Q 291 2206 483 2601 
Q 675 2997 1020 3220 
Q 1366 3444 1769 3444 
Q 2428 3444 2793 3009 
Q 3159 2575 3159 1766 
L 3159 1525 
L 869 1525 
Q 881 1025 1161 717 
Q 1441 409 1872 409 
Q 2178 409 2390 534 
Q 2603 659 2763 866 
L 3116 591 
Q 2691 -63 1841 -63 
z
M 1769 2969 
Q 1419 2969 1181 2714 
Q 944 2459 888 2000 
L 2581 2000 
L 2581 2044 
Q 2556 2484 2343 2726 
Q 2131 2969 1769 2969 
z
" transform="scale(0.015625)"/>
       <path id="Roboto-Regular-78" d="M 1572 2147 
L 2322 3381 
L 2997 3381 
L 1891 1709 
L 3031 0 
L 2363 0 
L 1581 1266 
L 800 0 
L 128 0 
L 1269 1709 
L 163 3381 
L 831 3381 
L 1572 2147 
z
" transform="scale(0.015625)"/>
      </defs>
      <use xlink:href="#Roboto-Regular-42"/>
      <use xlink:href="#Roboto-Regular-61" x="62.255859"/>
      <use xlink:href="#Roboto-Regular-6e" x="116.650391"/>
      <use xlink:href="#Roboto-Regular-61" x="171.826172"/>
      <use xlink:href="#Roboto-Regular-6d" x="226.220703"/>
      <use xlink:href="#Roboto-Regular-65" x="313.867188"/>
      <use xlink:href="#Roboto-Regular-78" x="366.845703"/>
     </g>
    </g>
    <g id="line2d_44">
     <path d="M 325.504687 253.59675 
L 335.504687 253.59675 
L 345.504687 253.59675 
" style="fill: none; stroke: #808080; stroke-width: 1.5; stroke-linecap: square"/>
    </g>
    <g id="text_23">
     <!-- Commercial banks -->
     <g transform="translate(353.504687 257.09675)scale(0.1 -0.1)">
      <defs>
       <path id="Roboto-Regular-43" d="M 3875 1444 
Q 3791 722 3342 329 
Q 2894 -63 2150 -63 
Q 1344 -63 858 515 
Q 372 1094 372 2063 
L 372 2500 
Q 372 3134 598 3615 
Q 825 4097 1240 4355 
Q 1656 4613 2203 4613 
Q 2928 4613 3365 4208 
Q 3803 3803 3875 3088 
L 3272 3088 
Q 3194 3631 2933 3875 
Q 2672 4119 2203 4119 
Q 1628 4119 1301 3694 
Q 975 3269 975 2484 
L 975 2044 
Q 975 1303 1284 865 
Q 1594 428 2150 428 
Q 2650 428 2917 654 
Q 3184 881 3272 1444 
L 3875 1444 
z
" transform="scale(0.015625)"/>
       <path id="Roboto-Regular-63" d="M 1794 409 
Q 2103 409 2334 596 
Q 2566 784 2591 1066 
L 3138 1066 
Q 3122 775 2937 512 
Q 2753 250 2445 93 
Q 2138 -63 1794 -63 
Q 1103 -63 695 398 
Q 288 859 288 1659 
L 288 1756 
Q 288 2250 469 2634 
Q 650 3019 989 3231 
Q 1328 3444 1791 3444 
Q 2359 3444 2736 3103 
Q 3113 2763 3138 2219 
L 2591 2219 
Q 2566 2547 2342 2758 
Q 2119 2969 1791 2969 
Q 1350 2969 1108 2651 
Q 866 2334 866 1734 
L 866 1625 
Q 866 1041 1106 725 
Q 1347 409 1794 409 
z
" transform="scale(0.015625)"/>
       <path id="Roboto-Regular-69" d="M 1066 0 
L 488 0 
L 488 3381 
L 1066 3381 
L 1066 0 
z
M 441 4278 
Q 441 4419 527 4516 
Q 613 4613 781 4613 
Q 950 4613 1037 4516 
Q 1125 4419 1125 4278 
Q 1125 4138 1037 4044 
Q 950 3950 781 3950 
Q 613 3950 527 4044 
Q 441 4138 441 4278 
z
" transform="scale(0.015625)"/>
       <path id="Roboto-Regular-6c" d="M 1066 0 
L 488 0 
L 488 4800 
L 1066 4800 
L 1066 0 
z
" transform="scale(0.015625)"/>
       <path id="Roboto-Regular-62" d="M 3300 1653 
Q 3300 878 2944 407 
Q 2588 -63 1988 -63 
Q 1347 -63 997 391 
L 969 0 
L 438 0 
L 438 4800 
L 1016 4800 
L 1016 3009 
Q 1366 3444 1981 3444 
Q 2597 3444 2948 2978 
Q 3300 2513 3300 1703 
L 3300 1653 
z
M 2722 1719 
Q 2722 2309 2494 2631 
Q 2266 2953 1838 2953 
Q 1266 2953 1016 2422 
L 1016 959 
Q 1281 428 1844 428 
Q 2259 428 2490 750 
Q 2722 1072 2722 1719 
z
" transform="scale(0.015625)"/>
       <path id="Roboto-Regular-6b" d="M 1381 1566 
L 1019 1188 
L 1019 0 
L 441 0 
L 441 4800 
L 1019 4800 
L 1019 1897 
L 1328 2269 
L 2381 3381 
L 3084 3381 
L 1769 1969 
L 3238 0 
L 2559 0 
L 1381 1566 
z
" transform="scale(0.015625)"/>
       <path id="Roboto-Regular-73" d="M 2406 897 
Q 2406 1131 2229 1261 
Q 2053 1391 1614 1484 
Q 1175 1578 917 1709 
Q 659 1841 536 2022 
Q 413 2203 413 2453 
Q 413 2869 764 3156 
Q 1116 3444 1663 3444 
Q 2238 3444 2595 3147 
Q 2953 2850 2953 2388 
L 2372 2388 
Q 2372 2625 2170 2797 
Q 1969 2969 1663 2969 
Q 1347 2969 1169 2831 
Q 991 2694 991 2472 
Q 991 2263 1156 2156 
Q 1322 2050 1755 1953 
Q 2188 1856 2456 1722 
Q 2725 1588 2854 1398 
Q 2984 1209 2984 938 
Q 2984 484 2621 210 
Q 2259 -63 1681 -63 
Q 1275 -63 962 81 
Q 650 225 473 483 
Q 297 741 297 1041 
L 875 1041 
Q 891 750 1108 579 
Q 1325 409 1681 409 
Q 2009 409 2207 542 
Q 2406 675 2406 897 
z
" transform="scale(0.015625)"/>
      </defs>
      <use xlink:href="#Roboto-Regular-43"/>
      <use xlink:href="#Roboto-Regular-6f" x="65.087891"/>
      <use xlink:href="#Roboto-Regular-6d" x="122.119141"/>
      <use xlink:href="#Roboto-Regular-6d" x="209.765625"/>
      <use xlink:href="#Roboto-Regular-65" x="297.412109"/>
      <use xlink:href="#Roboto-Regular-72" x="350.390625"/>
      <use xlink:href="#Roboto-Regular-63" x="384.228516"/>
      <use xlink:href="#Roboto-Regular-69" x="436.572266"/>
      <use xlink:href="#Roboto-Regular-61" x="460.839844"/>
      <use xlink:href="#Roboto-Regular-6c" x="515.234375"/>
      <use xlink:href="#Roboto-Regular-20" x="539.501953"/>
      <use xlink:href="#Roboto-Regular-62" x="564.257812"/>
      <use xlink:href="#Roboto-Regular-61" x="620.361328"/>
      <use xlink:href="#Roboto-Regular-6e" x="674.755859"/>
      <use xlink:href="#Roboto-Regular-6b" x="729.931641"/>
      <use xlink:href="#Roboto-Regular-73" x="780.615234"/>
     </g>
    </g>
   </g>
  </g>
 </g>
 <defs>
  <clipPath id="p7d05418f7d">
   <rect x="57.29375" y="7.2" width="558" height="217.44"/>
  </clipPath>
 </defs>
</svg>
