<?xml version="1.0" encoding="utf-8" standalone="no"?>
<!DOCTYPE svg PUBLIC "-//W3C//DTD SVG 1.1//EN"
  "http://www.w3.org/Graphics/SVG/1.1/DTD/svg11.dtd">
<svg xmlns:xlink="http://www.w3.org/1999/xlink" width="508.340625pt" height="248.37125pt" viewBox="0 0 508.340625 248.37125" xmlns="http://www.w3.org/2000/svg" version="1.1">
 <metadata>
  <rdf:RDF xmlns:dc="http://purl.org/dc/elements/1.1/" xmlns:cc="http://creativecommons.org/ns#" xmlns:rdf="http://www.w3.org/1999/02/22-rdf-syntax-ns#">
   <cc:Work>
    <dc:type rdf:resource="http://purl.org/dc/dcmitype/StillImage"/>
    <dc:date>2022-01-12T12:32:39.323187</dc:date>
    <dc:format>image/svg+xml</dc:format>
    <dc:creator>
     <cc:Agent>
      <dc:title>Matplotlib v3.5.1, https://matplotlib.org/</dc:title>
     </cc:Agent>
    </dc:creator>
   </cc:Work>
  </rdf:RDF>
 </metadata>
 <defs>
  <style type="text/css">*{stroke-linejoin: round; stroke-linecap: butt}</style>
 </defs>
 <g id="figure_1">
  <g id="patch_1">
   <path d="M 0 248.37125 
L 508.340625 248.37125 
L 508.340625 0 
L 0 0 
z
" style="fill: #ffffff"/>
  </g>
  <g id="axes_1">
   <g id="patch_2">
    <path d="M 54.740625 224.64 
L 501.140625 224.64 
L 501.140625 7.2 
L 54.740625 7.2 
z
" style="fill: #ffffff"/>
   </g>
   <g id="matplotlib.axis_1">
    <g id="xtick_1">
     <g id="line2d_1">
      <path d="M 75.031534 224.64 
L 75.031534 7.2 
" clip-path="url(#pdb5b2b2590)" style="fill: none; stroke-dasharray: 2.96,1.28; stroke-dashoffset: 0; stroke: #dddddd; stroke-width: 0.8"/>
     </g>
     <g id="line2d_2">
      <defs>
       <path id="m5749771320" d="M 0 0 
L 0 3.5 
" style="stroke: #000000; stroke-width: 0.8"/>
      </defs>
      <g>
       <use xlink:href="#m5749771320" x="75.031534" y="224.64" style="stroke: #000000; stroke-width: 0.8"/>
      </g>
     </g>
     <g id="text_1">
      <!-- 2012 -->
      <g transform="translate(63.800284 239.14)scale(0.1 -0.1)">
       <defs>
        <path id="Roboto-Regular-32" d="M 3359 0 
L 378 0 
L 378 416 
L 1953 2166 
Q 2303 2563 2436 2811 
Q 2569 3059 2569 3325 
Q 2569 3681 2353 3909 
Q 2138 4138 1778 4138 
Q 1347 4138 1108 3892 
Q 869 3647 869 3209 
L 291 3209 
Q 291 3838 695 4225 
Q 1100 4613 1778 4613 
Q 2413 4613 2781 4280 
Q 3150 3947 3150 3394 
Q 3150 2722 2294 1794 
L 1075 472 
L 3359 472 
L 3359 0 
z
" transform="scale(0.015625)"/>
        <path id="Roboto-Regular-30" d="M 3231 1941 
Q 3231 925 2884 431 
Q 2538 -63 1800 -63 
Q 1072 -63 722 420 
Q 372 903 359 1863 
L 359 2634 
Q 359 3638 706 4125 
Q 1053 4613 1794 4613 
Q 2528 4613 2875 4142 
Q 3222 3672 3231 2691 
L 3231 1941 
z
M 2653 2731 
Q 2653 3466 2447 3802 
Q 2241 4138 1794 4138 
Q 1350 4138 1147 3803 
Q 944 3469 938 2775 
L 938 1850 
Q 938 1113 1152 761 
Q 1366 409 1800 409 
Q 2228 409 2436 740 
Q 2644 1072 2653 1784 
L 2653 2731 
z
" transform="scale(0.015625)"/>
        <path id="Roboto-Regular-31" d="M 2278 0 
L 1697 0 
L 1697 3853 
L 531 3425 
L 531 3950 
L 2188 4572 
L 2278 4572 
L 2278 0 
z
" transform="scale(0.015625)"/>
       </defs>
       <use xlink:href="#Roboto-Regular-32"/>
       <use xlink:href="#Roboto-Regular-30" x="56.152344"/>
       <use xlink:href="#Roboto-Regular-31" x="112.304688"/>
       <use xlink:href="#Roboto-Regular-32" x="168.457031"/>
      </g>
     </g>
    </g>
    <g id="xtick_2">
     <g id="line2d_3">
      <path d="M 157.618697 224.64 
L 157.618697 7.2 
" clip-path="url(#pdb5b2b2590)" style="fill: none; stroke-dasharray: 2.96,1.28; stroke-dashoffset: 0; stroke: #dddddd; stroke-width: 0.8"/>
     </g>
     <g id="line2d_4">
      <g>
       <use xlink:href="#m5749771320" x="157.618697" y="224.64" style="stroke: #000000; stroke-width: 0.8"/>
      </g>
     </g>
     <g id="text_2">
      <!-- 2014 -->
      <g transform="translate(146.387447 239.14)scale(0.1 -0.1)">
       <defs>
        <path id="Roboto-Regular-34" d="M 2819 1528 
L 3450 1528 
L 3450 1056 
L 2819 1056 
L 2819 0 
L 2238 0 
L 2238 1056 
L 166 1056 
L 166 1397 
L 2203 4550 
L 2819 4550 
L 2819 1528 
z
M 822 1528 
L 2238 1528 
L 2238 3759 
L 2169 3634 
L 822 1528 
z
" transform="scale(0.015625)"/>
       </defs>
       <use xlink:href="#Roboto-Regular-32"/>
       <use xlink:href="#Roboto-Regular-30" x="56.152344"/>
       <use xlink:href="#Roboto-Regular-31" x="112.304688"/>
       <use xlink:href="#Roboto-Regular-34" x="168.457031"/>
      </g>
     </g>
    </g>
    <g id="xtick_3">
     <g id="line2d_5">
      <path d="M 240.092883 224.64 
L 240.092883 7.2 
" clip-path="url(#pdb5b2b2590)" style="fill: none; stroke-dasharray: 2.96,1.28; stroke-dashoffset: 0; stroke: #dddddd; stroke-width: 0.8"/>
     </g>
     <g id="line2d_6">
      <g>
       <use xlink:href="#m5749771320" x="240.092883" y="224.64" style="stroke: #000000; stroke-width: 0.8"/>
      </g>
     </g>
     <g id="text_3">
      <!-- 2016 -->
      <g transform="translate(228.861633 239.14)scale(0.1 -0.1)">
       <defs>
        <path id="Roboto-Regular-36" d="M 2647 4553 
L 2647 4063 
L 2541 4063 
Q 1866 4050 1466 3662 
Q 1066 3275 1003 2572 
Q 1363 2984 1984 2984 
Q 2578 2984 2933 2565 
Q 3288 2147 3288 1484 
Q 3288 781 2905 359 
Q 2522 -63 1878 -63 
Q 1225 -63 819 439 
Q 413 941 413 1731 
L 413 1953 
Q 413 3209 948 3873 
Q 1484 4538 2544 4553 
L 2647 4553 
z
M 1888 2503 
Q 1591 2503 1341 2325 
Q 1091 2147 994 1878 
L 994 1666 
Q 994 1103 1247 759 
Q 1500 416 1878 416 
Q 2269 416 2492 703 
Q 2716 991 2716 1456 
Q 2716 1925 2489 2214 
Q 2263 2503 1888 2503 
z
" transform="scale(0.015625)"/>
       </defs>
       <use xlink:href="#Roboto-Regular-32"/>
       <use xlink:href="#Roboto-Regular-30" x="56.152344"/>
       <use xlink:href="#Roboto-Regular-31" x="112.304688"/>
       <use xlink:href="#Roboto-Regular-36" x="168.457031"/>
      </g>
     </g>
    </g>
    <g id="xtick_4">
     <g id="line2d_7">
      <path d="M 322.680046 224.64 
L 322.680046 7.2 
" clip-path="url(#pdb5b2b2590)" style="fill: none; stroke-dasharray: 2.96,1.28; stroke-dashoffset: 0; stroke: #dddddd; stroke-width: 0.8"/>
     </g>
     <g id="line2d_8">
      <g>
       <use xlink:href="#m5749771320" x="322.680046" y="224.64" style="stroke: #000000; stroke-width: 0.8"/>
      </g>
     </g>
     <g id="text_4">
      <!-- 2018 -->
      <g transform="translate(311.448796 239.14)scale(0.1 -0.1)">
       <defs>
        <path id="Roboto-Regular-38" d="M 3138 3363 
Q 3138 3022 2958 2756 
Q 2778 2491 2472 2341 
Q 2828 2188 3036 1894 
Q 3244 1600 3244 1228 
Q 3244 638 2845 287 
Q 2447 -63 1797 -63 
Q 1141 -63 745 289 
Q 350 641 350 1228 
Q 350 1597 551 1894 
Q 753 2191 1109 2344 
Q 806 2494 631 2759 
Q 456 3025 456 3363 
Q 456 3938 825 4275 
Q 1194 4613 1797 4613 
Q 2397 4613 2767 4275 
Q 3138 3938 3138 3363 
z
M 2666 1241 
Q 2666 1622 2423 1862 
Q 2181 2103 1790 2103 
Q 1400 2103 1164 1865 
Q 928 1628 928 1240 
Q 928 853 1158 631 
Q 1388 409 1797 409 
Q 2203 409 2434 632 
Q 2666 856 2666 1241 
z
M 1797 4138 
Q 1456 4138 1245 3927 
Q 1034 3716 1034 3353 
Q 1034 3006 1242 2792 
Q 1450 2578 1797 2578 
Q 2144 2578 2351 2792 
Q 2559 3006 2559 3353 
Q 2559 3700 2343 3919 
Q 2128 4138 1797 4138 
z
" transform="scale(0.015625)"/>
       </defs>
       <use xlink:href="#Roboto-Regular-32"/>
       <use xlink:href="#Roboto-Regular-30" x="56.152344"/>
       <use xlink:href="#Roboto-Regular-31" x="112.304688"/>
       <use xlink:href="#Roboto-Regular-38" x="168.457031"/>
      </g>
     </g>
    </g>
    <g id="xtick_5">
     <g id="line2d_9">
      <path d="M 405.154231 224.64 
L 405.154231 7.2 
" clip-path="url(#pdb5b2b2590)" style="fill: none; stroke-dasharray: 2.96,1.28; stroke-dashoffset: 0; stroke: #dddddd; stroke-width: 0.8"/>
     </g>
     <g id="line2d_10">
      <g>
       <use xlink:href="#m5749771320" x="405.154231" y="224.64" style="stroke: #000000; stroke-width: 0.8"/>
      </g>
     </g>
     <g id="text_5">
      <!-- 2020 -->
      <g transform="translate(393.922981 239.14)scale(0.1 -0.1)">
       <use xlink:href="#Roboto-Regular-32"/>
       <use xlink:href="#Roboto-Regular-30" x="56.152344"/>
       <use xlink:href="#Roboto-Regular-32" x="112.304688"/>
       <use xlink:href="#Roboto-Regular-30" x="168.457031"/>
      </g>
     </g>
    </g>
    <g id="xtick_6">
     <g id="line2d_11">
      <path d="M 487.741394 224.64 
L 487.741394 7.2 
" clip-path="url(#pdb5b2b2590)" style="fill: none; stroke-dasharray: 2.96,1.28; stroke-dashoffset: 0; stroke: #dddddd; stroke-width: 0.8"/>
     </g>
     <g id="line2d_12">
      <g>
       <use xlink:href="#m5749771320" x="487.741394" y="224.64" style="stroke: #000000; stroke-width: 0.8"/>
      </g>
     </g>
     <g id="text_6">
      <!-- 2022 -->
      <g transform="translate(476.510144 239.14)scale(0.1 -0.1)">
       <use xlink:href="#Roboto-Regular-32"/>
       <use xlink:href="#Roboto-Regular-30" x="56.152344"/>
       <use xlink:href="#Roboto-Regular-32" x="112.304688"/>
       <use xlink:href="#Roboto-Regular-32" x="168.457031"/>
      </g>
     </g>
    </g>
   </g>
   <g id="matplotlib.axis_2">
    <g id="ytick_1">
     <g id="line2d_13">
      <path d="M 54.740625 200.262487 
L 501.140625 200.262487 
" clip-path="url(#pdb5b2b2590)" style="fill: none; stroke-dasharray: 2.96,1.28; stroke-dashoffset: 0; stroke: #dddddd; stroke-width: 0.8"/>
     </g>
     <g id="line2d_14">
      <defs>
       <path id="mfd1dc40eb8" d="M 0 0 
L -3.5 0 
" style="stroke: #000000; stroke-width: 0.8"/>
      </defs>
      <g>
       <use xlink:href="#mfd1dc40eb8" x="54.740625" y="200.262487" style="stroke: #000000; stroke-width: 0.8"/>
      </g>
     </g>
     <g id="text_7">
      <!-- 20.0% -->
      <g transform="translate(20.9375 204.012487)scale(0.1 -0.1)">
       <defs>
        <path id="Roboto-Regular-2e" d="M 450 303 
Q 450 453 539 553 
Q 628 653 806 653 
Q 984 653 1076 553 
Q 1169 453 1169 303 
Q 1169 159 1076 62 
Q 984 -34 806 -34 
Q 628 -34 539 62 
Q 450 159 450 303 
z
" transform="scale(0.015625)"/>
        <path id="Roboto-Regular-25" d="M 328 3675 
Q 328 4084 589 4350 
Q 850 4616 1259 4616 
Q 1675 4616 1933 4348 
Q 2191 4081 2191 3656 
L 2191 3434 
Q 2191 3022 1930 2761 
Q 1669 2500 1266 2500 
Q 859 2500 593 2761 
Q 328 3022 328 3456 
L 328 3675 
z
M 759 3434 
Q 759 3191 896 3033 
Q 1034 2875 1266 2875 
Q 1488 2875 1623 3028 
Q 1759 3181 1759 3447 
L 1759 3675 
Q 1759 3919 1625 4078 
Q 1491 4238 1259 4238 
Q 1028 4238 893 4078 
Q 759 3919 759 3663 
L 759 3434 
z
M 2544 1116 
Q 2544 1525 2805 1789 
Q 3066 2053 3475 2053 
Q 3884 2053 4146 1790 
Q 4409 1528 4409 1094 
L 4409 872 
Q 4409 463 4148 198 
Q 3888 -66 3481 -66 
Q 3075 -66 2809 195 
Q 2544 456 2544 891 
L 2544 1116 
z
M 2975 872 
Q 2975 625 3112 467 
Q 3250 309 3481 309 
Q 3706 309 3840 464 
Q 3975 619 3975 884 
L 3975 1116 
Q 3975 1363 3839 1519 
Q 3703 1675 3475 1675 
Q 3253 1675 3114 1520 
Q 2975 1366 2975 1103 
L 2975 872 
z
M 1397 344 
L 1069 550 
L 3291 4106 
L 3619 3900 
L 1397 344 
z
" transform="scale(0.015625)"/>
       </defs>
       <use xlink:href="#Roboto-Regular-32"/>
       <use xlink:href="#Roboto-Regular-30" x="56.152344"/>
       <use xlink:href="#Roboto-Regular-2e" x="112.304688"/>
       <use xlink:href="#Roboto-Regular-30" x="138.623047"/>
       <use xlink:href="#Roboto-Regular-25" x="194.775391"/>
      </g>
     </g>
    </g>
    <g id="ytick_2">
     <g id="line2d_15">
      <path d="M 54.740625 171.423368 
L 501.140625 171.423368 
" clip-path="url(#pdb5b2b2590)" style="fill: none; stroke-dasharray: 2.96,1.28; stroke-dashoffset: 0; stroke: #dddddd; stroke-width: 0.8"/>
     </g>
     <g id="line2d_16">
      <g>
       <use xlink:href="#mfd1dc40eb8" x="54.740625" y="171.423368" style="stroke: #000000; stroke-width: 0.8"/>
      </g>
     </g>
     <g id="text_8">
      <!-- 30.0% -->
      <g transform="translate(20.9375 175.173368)scale(0.1 -0.1)">
       <defs>
        <path id="Roboto-Regular-33" d="M 1219 2556 
L 1653 2556 
Q 2063 2563 2297 2772 
Q 2531 2981 2531 3338 
Q 2531 4138 1734 4138 
Q 1359 4138 1136 3923 
Q 913 3709 913 3356 
L 334 3356 
Q 334 3897 729 4255 
Q 1125 4613 1734 4613 
Q 2378 4613 2743 4272 
Q 3109 3931 3109 3325 
Q 3109 3028 2917 2750 
Q 2725 2472 2394 2334 
Q 2769 2216 2973 1941 
Q 3178 1666 3178 1269 
Q 3178 656 2778 296 
Q 2378 -63 1737 -63 
Q 1097 -63 695 284 
Q 294 631 294 1200 
L 875 1200 
Q 875 841 1109 625 
Q 1344 409 1738 409 
Q 2156 409 2378 628 
Q 2600 847 2600 1256 
Q 2600 1653 2356 1865 
Q 2113 2078 1653 2084 
L 1219 2084 
L 1219 2556 
z
" transform="scale(0.015625)"/>
       </defs>
       <use xlink:href="#Roboto-Regular-33"/>
       <use xlink:href="#Roboto-Regular-30" x="56.152344"/>
       <use xlink:href="#Roboto-Regular-2e" x="112.304688"/>
       <use xlink:href="#Roboto-Regular-30" x="138.623047"/>
       <use xlink:href="#Roboto-Regular-25" x="194.775391"/>
      </g>
     </g>
    </g>
    <g id="ytick_3">
     <g id="line2d_17">
      <path d="M 54.740625 142.584249 
L 501.140625 142.584249 
" clip-path="url(#pdb5b2b2590)" style="fill: none; stroke-dasharray: 2.96,1.28; stroke-dashoffset: 0; stroke: #dddddd; stroke-width: 0.8"/>
     </g>
     <g id="line2d_18">
      <g>
       <use xlink:href="#mfd1dc40eb8" x="54.740625" y="142.584249" style="stroke: #000000; stroke-width: 0.8"/>
      </g>
     </g>
     <g id="text_9">
      <!-- 40.0% -->
      <g transform="translate(20.9375 146.334249)scale(0.1 -0.1)">
       <use xlink:href="#Roboto-Regular-34"/>
       <use xlink:href="#Roboto-Regular-30" x="56.152344"/>
       <use xlink:href="#Roboto-Regular-2e" x="112.304688"/>
       <use xlink:href="#Roboto-Regular-30" x="138.623047"/>
       <use xlink:href="#Roboto-Regular-25" x="194.775391"/>
      </g>
     </g>
    </g>
    <g id="ytick_4">
     <g id="line2d_19">
      <path d="M 54.740625 113.74513 
L 501.140625 113.74513 
" clip-path="url(#pdb5b2b2590)" style="fill: none; stroke-dasharray: 2.96,1.28; stroke-dashoffset: 0; stroke: #dddddd; stroke-width: 0.8"/>
     </g>
     <g id="line2d_20">
      <g>
       <use xlink:href="#mfd1dc40eb8" x="54.740625" y="113.74513" style="stroke: #000000; stroke-width: 0.8"/>
      </g>
     </g>
     <g id="text_10">
      <!-- 50.0% -->
      <g transform="translate(20.9375 117.49513)scale(0.1 -0.1)">
       <defs>
        <path id="Roboto-Regular-35" d="M 644 2281 
L 875 4550 
L 3206 4550 
L 3206 4016 
L 1366 4016 
L 1228 2775 
Q 1563 2972 1988 2972 
Q 2609 2972 2975 2561 
Q 3341 2150 3341 1450 
Q 3341 747 2961 342 
Q 2581 -63 1900 -63 
Q 1297 -63 915 271 
Q 534 606 481 1197 
L 1028 1197 
Q 1081 806 1306 607 
Q 1531 409 1900 409 
Q 2303 409 2533 684 
Q 2763 959 2763 1444 
Q 2763 1900 2514 2176 
Q 2266 2453 1853 2453 
Q 1475 2453 1259 2288 
L 1106 2163 
L 644 2281 
z
" transform="scale(0.015625)"/>
       </defs>
       <use xlink:href="#Roboto-Regular-35"/>
       <use xlink:href="#Roboto-Regular-30" x="56.152344"/>
       <use xlink:href="#Roboto-Regular-2e" x="112.304688"/>
       <use xlink:href="#Roboto-Regular-30" x="138.623047"/>
       <use xlink:href="#Roboto-Regular-25" x="194.775391"/>
      </g>
     </g>
    </g>
    <g id="ytick_5">
     <g id="line2d_21">
      <path d="M 54.740625 84.906011 
L 501.140625 84.906011 
" clip-path="url(#pdb5b2b2590)" style="fill: none; stroke-dasharray: 2.96,1.28; stroke-dashoffset: 0; stroke: #dddddd; stroke-width: 0.8"/>
     </g>
     <g id="line2d_22">
      <g>
       <use xlink:href="#mfd1dc40eb8" x="54.740625" y="84.906011" style="stroke: #000000; stroke-width: 0.8"/>
      </g>
     </g>
     <g id="text_11">
      <!-- 60.0% -->
      <g transform="translate(20.9375 88.656011)scale(0.1 -0.1)">
       <use xlink:href="#Roboto-Regular-36"/>
       <use xlink:href="#Roboto-Regular-30" x="56.152344"/>
       <use xlink:href="#Roboto-Regular-2e" x="112.304688"/>
       <use xlink:href="#Roboto-Regular-30" x="138.623047"/>
       <use xlink:href="#Roboto-Regular-25" x="194.775391"/>
      </g>
     </g>
    </g>
    <g id="ytick_6">
     <g id="line2d_23">
      <path d="M 54.740625 56.066892 
L 501.140625 56.066892 
" clip-path="url(#pdb5b2b2590)" style="fill: none; stroke-dasharray: 2.96,1.28; stroke-dashoffset: 0; stroke: #dddddd; stroke-width: 0.8"/>
     </g>
     <g id="line2d_24">
      <g>
       <use xlink:href="#mfd1dc40eb8" x="54.740625" y="56.066892" style="stroke: #000000; stroke-width: 0.8"/>
      </g>
     </g>
     <g id="text_12">
      <!-- 70.0% -->
      <g transform="translate(20.9375 59.816892)scale(0.1 -0.1)">
       <defs>
        <path id="Roboto-Regular-37" d="M 3316 4225 
L 1431 0 
L 825 0 
L 2703 4075 
L 241 4075 
L 241 4550 
L 3316 4550 
L 3316 4225 
z
" transform="scale(0.015625)"/>
       </defs>
       <use xlink:href="#Roboto-Regular-37"/>
       <use xlink:href="#Roboto-Regular-30" x="56.152344"/>
       <use xlink:href="#Roboto-Regular-2e" x="112.304688"/>
       <use xlink:href="#Roboto-Regular-30" x="138.623047"/>
       <use xlink:href="#Roboto-Regular-25" x="194.775391"/>
      </g>
     </g>
    </g>
    <g id="ytick_7">
     <g id="line2d_25">
      <path d="M 54.740625 27.227773 
L 501.140625 27.227773 
" clip-path="url(#pdb5b2b2590)" style="fill: none; stroke-dasharray: 2.96,1.28; stroke-dashoffset: 0; stroke: #dddddd; stroke-width: 0.8"/>
     </g>
     <g id="line2d_26">
      <g>
       <use xlink:href="#mfd1dc40eb8" x="54.740625" y="27.227773" style="stroke: #000000; stroke-width: 0.8"/>
      </g>
     </g>
     <g id="text_13">
      <!-- 80.0% -->
      <g transform="translate(20.9375 30.977773)scale(0.1 -0.1)">
       <use xlink:href="#Roboto-Regular-38"/>
       <use xlink:href="#Roboto-Regular-30" x="56.152344"/>
       <use xlink:href="#Roboto-Regular-2e" x="112.304688"/>
       <use xlink:href="#Roboto-Regular-30" x="138.623047"/>
       <use xlink:href="#Roboto-Regular-25" x="194.775391"/>
      </g>
     </g>
    </g>
    <g id="text_14">
     <!-- Efficiency ratio -->
     <g transform="translate(14.803125 149.016094)rotate(-90)scale(0.1 -0.1)">
      <defs>
       <path id="Roboto-Regular-45" d="M 3100 2103 
L 1128 2103 
L 1128 491 
L 3419 491 
L 3419 0 
L 528 0 
L 528 4550 
L 3388 4550 
L 3388 4056 
L 1128 4056 
L 1128 2594 
L 3100 2594 
L 3100 2103 
z
" transform="scale(0.015625)"/>
       <path id="Roboto-Regular-66" d="M 722 0 
L 722 2934 
L 188 2934 
L 188 3381 
L 722 3381 
L 722 3728 
Q 722 4272 1012 4569 
Q 1303 4866 1834 4866 
Q 2034 4866 2231 4813 
L 2200 4344 
Q 2053 4372 1888 4372 
Q 1606 4372 1453 4208 
Q 1300 4044 1300 3738 
L 1300 3381 
L 2022 3381 
L 2022 2934 
L 1300 2934 
L 1300 0 
L 722 0 
z
" transform="scale(0.015625)"/>
       <path id="Roboto-Regular-69" d="M 1066 0 
L 488 0 
L 488 3381 
L 1066 3381 
L 1066 0 
z
M 441 4278 
Q 441 4419 527 4516 
Q 613 4613 781 4613 
Q 950 4613 1037 4516 
Q 1125 4419 1125 4278 
Q 1125 4138 1037 4044 
Q 950 3950 781 3950 
Q 613 3950 527 4044 
Q 441 4138 441 4278 
z
" transform="scale(0.015625)"/>
       <path id="Roboto-Regular-63" d="M 1794 409 
Q 2103 409 2334 596 
Q 2566 784 2591 1066 
L 3138 1066 
Q 3122 775 2937 512 
Q 2753 250 2445 93 
Q 2138 -63 1794 -63 
Q 1103 -63 695 398 
Q 288 859 288 1659 
L 288 1756 
Q 288 2250 469 2634 
Q 650 3019 989 3231 
Q 1328 3444 1791 3444 
Q 2359 3444 2736 3103 
Q 3113 2763 3138 2219 
L 2591 2219 
Q 2566 2547 2342 2758 
Q 2119 2969 1791 2969 
Q 1350 2969 1108 2651 
Q 866 2334 866 1734 
L 866 1625 
Q 866 1041 1106 725 
Q 1347 409 1794 409 
z
" transform="scale(0.015625)"/>
       <path id="Roboto-Regular-65" d="M 1841 -63 
Q 1153 -63 722 389 
Q 291 841 291 1597 
L 291 1703 
Q 291 2206 483 2601 
Q 675 2997 1020 3220 
Q 1366 3444 1769 3444 
Q 2428 3444 2793 3009 
Q 3159 2575 3159 1766 
L 3159 1525 
L 869 1525 
Q 881 1025 1161 717 
Q 1441 409 1872 409 
Q 2178 409 2390 534 
Q 2603 659 2763 866 
L 3116 591 
Q 2691 -63 1841 -63 
z
M 1769 2969 
Q 1419 2969 1181 2714 
Q 944 2459 888 2000 
L 2581 2000 
L 2581 2044 
Q 2556 2484 2343 2726 
Q 2131 2969 1769 2969 
z
" transform="scale(0.015625)"/>
       <path id="Roboto-Regular-6e" d="M 984 3381 
L 1003 2956 
Q 1391 3444 2016 3444 
Q 3088 3444 3097 2234 
L 3097 0 
L 2519 0 
L 2519 2238 
Q 2516 2603 2352 2778 
Q 2188 2953 1841 2953 
Q 1559 2953 1346 2803 
Q 1134 2653 1016 2409 
L 1016 0 
L 438 0 
L 438 3381 
L 984 3381 
z
" transform="scale(0.015625)"/>
       <path id="Roboto-Regular-79" d="M 1544 847 
L 2331 3381 
L 2950 3381 
L 1591 -522 
Q 1275 -1366 588 -1366 
L 478 -1356 
L 263 -1316 
L 263 -847 
L 419 -859 
Q 713 -859 877 -740 
Q 1041 -622 1147 -306 
L 1275 38 
L 69 3381 
L 700 3381 
L 1544 847 
z
" transform="scale(0.015625)"/>
       <path id="Roboto-Regular-20" transform="scale(0.015625)"/>
       <path id="Roboto-Regular-72" d="M 2072 2863 
Q 1941 2884 1788 2884 
Q 1219 2884 1016 2400 
L 1016 0 
L 438 0 
L 438 3381 
L 1000 3381 
L 1009 2991 
Q 1294 3444 1816 3444 
Q 1984 3444 2072 3400 
L 2072 2863 
z
" transform="scale(0.015625)"/>
       <path id="Roboto-Regular-61" d="M 2525 0 
Q 2475 100 2444 356 
Q 2041 -63 1481 -63 
Q 981 -63 661 220 
Q 341 503 341 938 
Q 341 1466 742 1758 
Q 1144 2050 1872 2050 
L 2434 2050 
L 2434 2316 
Q 2434 2619 2253 2798 
Q 2072 2978 1719 2978 
Q 1409 2978 1200 2822 
Q 991 2666 991 2444 
L 409 2444 
Q 409 2697 589 2933 
Q 769 3169 1076 3306 
Q 1384 3444 1753 3444 
Q 2338 3444 2669 3151 
Q 3000 2859 3013 2347 
L 3013 791 
Q 3013 325 3131 50 
L 3131 0 
L 2525 0 
z
M 1566 441 
Q 1838 441 2081 581 
Q 2325 722 2434 947 
L 2434 1641 
L 1981 1641 
Q 919 1641 919 1019 
Q 919 747 1100 594 
Q 1281 441 1566 441 
z
" transform="scale(0.015625)"/>
       <path id="Roboto-Regular-74" d="M 1222 4200 
L 1222 3381 
L 1853 3381 
L 1853 2934 
L 1222 2934 
L 1222 838 
Q 1222 634 1306 532 
Q 1391 431 1594 431 
Q 1694 431 1869 469 
L 1869 0 
Q 1641 -63 1425 -63 
Q 1038 -63 841 171 
Q 644 406 644 838 
L 644 2934 
L 28 2934 
L 28 3381 
L 644 3381 
L 644 4200 
L 1222 4200 
z
" transform="scale(0.015625)"/>
       <path id="Roboto-Regular-6f" d="M 284 1722 
Q 284 2219 479 2616 
Q 675 3013 1023 3228 
Q 1372 3444 1819 3444 
Q 2509 3444 2936 2966 
Q 3363 2488 3363 1694 
L 3363 1653 
Q 3363 1159 3173 767 
Q 2984 375 2632 156 
Q 2281 -63 1825 -63 
Q 1138 -63 711 415 
Q 284 894 284 1681 
L 284 1722 
z
M 866 1653 
Q 866 1091 1127 750 
Q 1388 409 1825 409 
Q 2266 409 2525 754 
Q 2784 1100 2784 1722 
Q 2784 2278 2520 2623 
Q 2256 2969 1819 2969 
Q 1391 2969 1128 2628 
Q 866 2288 866 1653 
z
" transform="scale(0.015625)"/>
      </defs>
      <use xlink:href="#Roboto-Regular-45"/>
      <use xlink:href="#Roboto-Regular-66" x="56.835938"/>
      <use xlink:href="#Roboto-Regular-66" x="91.552734"/>
      <use xlink:href="#Roboto-Regular-69" x="126.269531"/>
      <use xlink:href="#Roboto-Regular-63" x="150.537109"/>
      <use xlink:href="#Roboto-Regular-69" x="202.880859"/>
      <use xlink:href="#Roboto-Regular-65" x="227.148438"/>
      <use xlink:href="#Roboto-Regular-6e" x="280.126953"/>
      <use xlink:href="#Roboto-Regular-63" x="335.302734"/>
      <use xlink:href="#Roboto-Regular-79" x="387.646484"/>
      <use xlink:href="#Roboto-Regular-20" x="434.960938"/>
      <use xlink:href="#Roboto-Regular-72" x="459.716797"/>
      <use xlink:href="#Roboto-Regular-61" x="493.554688"/>
      <use xlink:href="#Roboto-Regular-74" x="547.949219"/>
      <use xlink:href="#Roboto-Regular-69" x="580.615234"/>
      <use xlink:href="#Roboto-Regular-6f" x="604.882812"/>
     </g>
    </g>
   </g>
   <g id="line2d_27">
    <path d="M 75.031534 136.258076 
L 78.533862 135.166257 
L 81.810234 134.947178 
L 85.312563 136.154577 
L 88.701913 136.381919 
L 92.204241 137.038086 
L 95.593591 136.199378 
L 99.09592 136.258841 
L 102.598248 136.272719 
L 105.987598 139.724108 
L 109.489926 141.642683 
L 112.879277 144.388575 
L 116.381605 145.262797 
L 119.883933 144.725444 
L 123.047327 145.088787 
L 126.549655 146.294657 
L 129.939005 146.777682 
L 133.441334 144.239833 
L 136.830684 146.574017 
L 140.333012 148.462756 
L 143.835341 144.551455 
L 147.224691 144.083997 
L 150.727019 141.177137 
L 154.116369 141.744797 
L 157.618697 142.96705 
L 161.121026 145.232873 
L 164.284419 144.826374 
L 167.786748 144.684707 
L 171.176098 144.662356 
L 174.678426 147.549375 
L 178.067776 146.326281 
L 181.570105 144.21709 
L 185.072433 148.552528 
L 188.461783 148.260686 
L 191.964112 148.175024 
L 195.353462 145.697371 
L 198.85579 144.59927 
L 202.358118 143.725496 
L 205.521512 144.034084 
L 209.02384 142.571586 
L 212.41319 141.78239 
L 215.915519 141.783041 
L 219.304869 141.764613 
L 222.807197 142.07739 
L 226.309526 141.541052 
L 229.698876 140.503503 
L 233.201204 141.635477 
L 236.590554 145.855728 
L 240.092883 146.109912 
L 243.595211 144.618108 
L 246.871583 144.146159 
L 250.373911 144.054784 
L 253.763261 144.317711 
L 257.26559 143.883913 
L 260.65494 143.319823 
L 264.157268 143.16245 
L 267.659596 142.630507 
L 271.048947 143.19855 
L 274.551275 143.023644 
L 277.940625 143.323613 
L 281.442953 143.802745 
L 284.945282 145.705001 
L 288.108675 147.850236 
L 291.611004 149.159961 
L 295.000354 150.92815 
L 298.502682 152.448584 
L 301.892032 154.632011 
L 305.394361 156.002103 
L 308.896689 157.494725 
L 312.286039 158.362396 
L 315.788367 159.301164 
L 319.177718 160.218518 
L 322.680046 162.02019 
L 326.182374 162.092189 
L 329.345768 161.67277 
L 332.848096 161.829848 
L 336.237446 162.693337 
L 339.739775 162.7992 
L 343.129125 163.028789 
L 346.631453 163.673881 
L 350.133782 164.123609 
L 353.523132 164.714596 
L 357.02546 165.705792 
L 360.41481 166.224887 
L 363.917138 166.694496 
L 367.419467 167.178658 
L 370.58286 167.44199 
L 374.085189 167.845597 
L 377.474539 167.909427 
L 380.976867 168.329234 
L 384.366217 167.793796 
L 387.868546 167.114423 
L 391.370874 166.172801 
L 394.760224 165.867397 
L 398.262553 164.982792 
L 401.651903 163.75076 
L 405.154231 162.981537 
L 408.656559 162.419264 
L 411.932931 162.174686 
L 415.43526 161.841726 
L 418.82461 160.462869 
L 422.326938 159.373201 
L 425.716288 158.500408 
L 429.218616 157.400125 
L 432.720945 156.583288 
L 436.110295 154.872208 
L 439.612623 153.580843 
L 443.001973 150.631184 
L 446.504302 148.875435 
L 450.00663 147.733167 
L 453.170024 146.769461 
L 456.672352 145.184179 
L 460.061702 144.518347 
L 463.564031 143.801774 
L 466.953381 143.862226 
L 470.455709 144.405654 
L 473.958037 144.793474 
L 477.347388 145.600027 
L 480.849716 146.084789 
" clip-path="url(#pdb5b2b2590)" style="fill: none; stroke: #808080; stroke-opacity: 0.5; stroke-linecap: square"/>
   </g>
   <g id="line2d_28">
    <path d="M 75.031534 58.024414 
L 78.533862 56.859681 
L 81.810234 60.034457 
L 85.312563 60.675941 
L 88.701913 59.392624 
L 92.204241 57.890968 
L 95.593591 57.706853 
L 99.09592 58.513243 
L 102.598248 55.619285 
L 105.987598 58.876258 
L 109.489926 60.061281 
L 112.879277 65.289451 
L 116.381605 70.656877 
L 119.883933 70.019441 
L 123.047327 70.18644 
L 126.549655 70.23092 
L 129.939005 70.400494 
L 133.441334 71.485651 
L 136.830684 71.479807 
L 140.333012 69.394291 
L 143.835341 72.151598 
L 147.224691 71.975525 
L 150.727019 70.956412 
L 154.116369 68.639046 
L 157.618697 65.419812 
L 161.121026 68.625818 
L 164.284419 69.765627 
L 167.786748 69.214091 
L 171.176098 70.659745 
L 174.678426 71.18748 
L 178.067776 73.377729 
L 181.570105 75.802759 
L 185.072433 77.16273 
L 188.461783 73.262223 
L 191.964112 74.583073 
L 195.353462 78.296441 
L 198.85579 77.318398 
L 202.358118 75.960288 
L 205.521512 74.387075 
L 209.02384 73.395003 
L 212.41319 74.731734 
L 215.915519 74.940963 
L 219.304869 73.022177 
L 222.807197 72.11542 
L 226.309526 70.423853 
L 229.698876 73.3165 
L 233.201204 72.601833 
L 236.590554 77.792606 
L 240.092883 77.535164 
L 243.595211 78.091361 
L 246.871583 80.551184 
L 250.373911 82.534495 
L 253.763261 81.581123 
L 257.26559 81.436376 
L 260.65494 83.724079 
L 264.157268 84.247447 
L 267.659596 87.386515 
L 271.048947 88.347533 
L 274.551275 89.989334 
L 277.940625 84.760713 
L 281.442953 86.85499 
L 284.945282 88.017144 
L 288.108675 89.131771 
L 291.611004 90.160409 
L 295.000354 93.034449 
L 298.502682 96.086609 
L 301.892032 96.428135 
L 305.394361 98.041339 
L 308.896689 98.370206 
L 312.286039 99.869383 
L 315.788367 101.475807 
L 319.177718 106.557377 
L 322.680046 107.474135 
L 326.182374 108.181956 
L 329.345768 109.647102 
L 332.848096 110.022379 
L 336.237446 110.041496 
L 339.739775 111.379832 
L 343.129125 112.633583 
L 346.631453 113.314385 
L 350.133782 111.286715 
L 353.523132 110.960696 
L 357.02546 104.244281 
L 360.41481 92.7289 
L 363.917138 92.318106 
L 367.419467 90.652593 
L 370.58286 90.049481 
L 374.085189 90.696429 
L 377.474539 90.974635 
L 380.976867 90.392647 
L 384.366217 88.844442 
L 387.868546 89.095621 
L 391.370874 92.88617 
L 394.760224 92.509312 
L 398.262553 96.641927 
L 401.651903 101.966521 
L 405.154231 100.844672 
L 408.656559 102.187417 
L 411.932931 103.269203 
L 415.43526 103.803904 
L 418.82461 101.882634 
L 422.326938 101.68905 
L 425.716288 102.308197 
L 429.218616 100.690716 
L 432.720945 98.077096 
L 436.110295 96.338572 
L 439.612623 96.941701 
L 443.001973 98.770237 
L 446.504302 98.364886 
L 450.00663 96.506522 
L 453.170024 94.716705 
L 456.672352 93.564886 
L 460.061702 95.065003 
L 463.564031 92.838028 
L 466.953381 111.127709 
L 470.455709 111.59614 
L 473.958037 113.360264 
L 477.347388 111.849645 
L 480.849716 113.118677 
" clip-path="url(#pdb5b2b2590)" style="fill: none; stroke: #808080; stroke-opacity: 0.5; stroke-linecap: square"/>
   </g>
   <g id="line2d_29">
    <path d="M 75.031534 18.233349 
L 78.533862 17.083636 
L 81.810234 25.232087 
L 85.312563 27.750852 
L 88.701913 28.508226 
L 92.204241 33.434674 
L 95.593591 35.839976 
L 99.09592 38.16099 
L 102.598248 43.710211 
L 105.987598 46.249346 
L 109.489926 49.847799 
L 112.879277 56.14853 
L 116.381605 57.948784 
L 119.883933 60.367865 
L 123.047327 60.882655 
L 126.549655 63.118339 
L 129.939005 64.319306 
L 133.441334 64.808467 
L 136.830684 63.671274 
L 140.333012 62.885945 
L 143.835341 61.694857 
L 147.224691 60.064401 
L 150.727019 57.52925 
L 154.116369 59.801861 
L 157.618697 59.228765 
L 161.121026 57.237392 
L 164.284419 55.853788 
L 167.786748 51.90395 
L 171.176098 50.823448 
L 174.678426 51.873157 
L 178.067776 49.074206 
L 181.570105 48.247016 
L 185.072433 49.629288 
L 188.461783 50.039955 
L 191.964112 55.765866 
L 195.353462 52.658796 
L 198.85579 51.645534 
L 202.358118 51.553076 
L 205.521512 52.669543 
L 209.02384 52.98607 
L 212.41319 53.007851 
L 215.915519 52.703721 
L 219.304869 54.527359 
L 222.807197 52.927705 
L 226.309526 49.05441 
L 229.698876 45.015081 
L 233.201204 38.817983 
L 236.590554 41.47752 
L 240.092883 41.083873 
L 243.595211 41.549322 
L 246.871583 43.05481 
L 250.373911 42.0617 
L 253.763261 44.248769 
L 257.26559 45.890614 
L 260.65494 47.201009 
L 264.157268 51.49239 
L 267.659596 54.635217 
L 271.048947 59.632928 
L 274.551275 63.778245 
L 277.940625 62.443405 
L 281.442953 65.571969 
L 284.945282 66.296452 
L 288.108675 67.662185 
L 291.611004 71.936705 
L 295.000354 74.471005 
L 298.502682 78.033659 
L 301.892032 81.721538 
L 305.394361 84.23225 
L 308.896689 87.682849 
L 312.286039 91.363683 
L 315.788367 92.591529 
L 319.177718 94.556593 
L 322.680046 94.384232 
L 326.182374 98.636518 
L 329.345768 99.782159 
L 332.848096 101.125884 
L 336.237446 102.040066 
L 339.739775 102.645598 
L 343.129125 102.268015 
L 346.631453 105.04735 
L 350.133782 105.105978 
L 353.523132 104.745756 
L 357.02546 106.383635 
L 360.41481 109.414698 
L 363.917138 110.447048 
L 367.419467 110.208959 
L 370.58286 111.111682 
L 374.085189 111.414065 
L 377.474539 110.75511 
L 380.976867 110.778436 
L 384.366217 113.006511 
L 387.868546 111.12171 
L 391.370874 109.953334 
L 394.760224 110.585688 
L 398.262553 109.28836 
L 401.651903 109.065959 
L 405.154231 110.175405 
L 408.656559 109.535957 
L 411.932931 108.741383 
L 415.43526 108.26957 
L 418.82461 108.230167 
L 422.326938 105.856969 
L 425.716288 102.35558 
L 429.218616 99.108779 
L 432.720945 99.141555 
L 436.110295 93.773179 
L 439.612623 91.437822 
L 443.001973 81.435542 
L 446.504302 79.914093 
L 450.00663 76.100869 
L 453.170024 73.974252 
L 456.672352 70.042413 
L 460.061702 68.01476 
L 463.564031 64.105417 
L 466.953381 61.211107 
L 470.455709 62.199539 
L 473.958037 51.358331 
L 477.347388 51.159785 
L 480.849716 48.162403 
" clip-path="url(#pdb5b2b2590)" style="fill: none; stroke: #808080; stroke-opacity: 0.5; stroke-linecap: square"/>
   </g>
   <g id="line2d_30">
    <path d="M 75.031534 166.443054 
L 78.533862 169.357692 
L 81.810234 174.924005 
L 85.312563 167.114846 
L 88.701913 158.70112 
L 92.204241 163.385298 
L 95.593591 161.903042 
L 99.09592 182.394222 
L 102.598248 190.742785 
L 105.987598 180.722097 
L 109.489926 177.412459 
L 112.879277 188.704335 
L 116.381605 191.971751 
L 119.883933 179.073798 
L 123.047327 178.527923 
L 126.549655 176.786912 
L 129.939005 199.711838 
L 133.441334 202.095178 
L 136.830684 206.813375 
L 140.333012 204.9063 
L 143.835341 206.982727 
L 147.224691 209.067186 
L 150.727019 214.756364 
L 154.116369 214.700987 
L 157.618697 204.197277 
L 161.121026 212.155349 
L 164.284419 214.009064 
L 167.786748 214.116938 
L 171.176098 205.616761 
L 174.678426 202.861147 
L 178.067776 200.24105 
L 181.570105 192.694518 
L 185.072433 194.537634 
L 188.461783 190.319794 
L 191.964112 168.735885 
L 195.353462 128.984833 
L 198.85579 137.436759 
L 202.358118 134.63679 
L 205.521512 109.401631 
L 209.02384 147.559584 
L 212.41319 154.347196 
L 215.915519 166.448662 
L 219.304869 147.915247 
L 222.807197 158.163432 
L 226.309526 112.385485 
L 229.698876 159.955665 
L 233.201204 168.224768 
L 236.590554 179.482431 
L 240.092883 185.774894 
L 243.595211 168.04582 
L 246.871583 169.091616 
L 250.373911 166.776051 
L 253.763261 162.426888 
L 257.26559 141.030576 
L 260.65494 150.612023 
L 264.157268 153.687744 
L 267.659596 169.815828 
L 271.048947 162.82126 
L 274.551275 166.900449 
L 277.940625 170.70548 
L 281.442953 182.939663 
L 284.945282 186.108025 
L 288.108675 188.861603 
L 291.611004 185.407084 
L 295.000354 188.310493 
L 298.502682 189.139138 
L 301.892032 191.100682 
L 305.394361 189.767681 
L 308.896689 190.160619 
L 312.286039 187.876031 
L 315.788367 184.733256 
L 319.177718 181.591663 
L 322.680046 177.247721 
L 326.182374 178.714468 
L 329.345768 174.109292 
L 332.848096 176.296822 
L 336.237446 177.299929 
L 339.739775 180.111504 
L 343.129125 180.10498 
L 346.631453 181.37088 
L 350.133782 178.467637 
L 353.523132 180.740548 
L 357.02546 181.79201 
L 360.41481 178.909047 
L 363.917138 175.69655 
L 367.419467 178.333404 
L 370.58286 179.249516 
L 374.085189 176.69456 
L 377.474539 172.62449 
L 380.976867 168.784555 
L 384.366217 165.223756 
L 387.868546 160.209738 
L 391.370874 159.159772 
L 394.760224 154.611645 
L 398.262553 151.915102 
L 401.651903 154.515372 
L 405.154231 154.424754 
L 408.656559 157.531085 
L 411.932931 155.941677 
L 415.43526 156.868432 
L 418.82461 158.483664 
L 422.326938 156.246397 
L 425.716288 156.405885 
L 429.218616 159.891636 
L 432.720945 159.614915 
L 436.110295 156.324445 
L 439.612623 154.217089 
L 443.001973 152.704283 
L 446.504302 153.738303 
L 450.00663 142.980043 
L 453.170024 143.036595 
L 456.672352 138.828115 
L 460.061702 133.710266 
L 463.564031 138.575936 
L 466.953381 139.708215 
L 470.455709 138.28232 
L 473.958037 138.68268 
L 477.347388 141.732517 
L 480.849716 148.158874 
" clip-path="url(#pdb5b2b2590)" style="fill: none; stroke: #808080; stroke-opacity: 0.5; stroke-linecap: square"/>
   </g>
   <g id="line2d_31">
    <path d="M 75.031534 160.486678 
L 78.533862 161.799727 
L 81.810234 161.486846 
L 85.312563 162.693925 
L 88.701913 163.024273 
L 92.204241 163.21054 
L 95.593591 164.30129 
L 99.09592 163.75687 
L 102.598248 164.820359 
L 105.987598 164.718989 
L 109.489926 164.433534 
L 112.879277 164.292905 
L 116.381605 163.046419 
L 119.883933 161.609623 
L 123.047327 160.780666 
L 126.549655 160.013802 
L 129.939005 159.552255 
L 133.441334 160.090408 
L 136.830684 158.097482 
L 140.333012 158.199987 
L 143.835341 170.842358 
L 147.224691 170.771672 
L 150.727019 170.418177 
L 154.116369 171.799594 
L 157.618697 169.832642 
L 161.121026 169.52552 
L 164.284419 168.890738 
L 167.786748 168.13957 
L 171.176098 167.410788 
L 174.678426 166.139054 
L 178.067776 166.188192 
L 181.570105 165.777049 
L 185.072433 152.104538 
L 188.461783 152.30193 
L 191.964112 153.155815 
L 195.353462 152.308115 
L 198.85579 152.381978 
L 202.358118 151.766582 
L 205.521512 151.668243 
L 209.02384 151.798572 
L 212.41319 151.95325 
L 215.915519 151.44217 
L 219.304869 151.310475 
L 222.807197 151.707712 
L 226.309526 151.822858 
L 229.698876 152.378883 
L 233.201204 152.50458 
L 236.590554 153.69844 
L 240.092883 153.84506 
L 243.595211 154.73697 
L 246.871583 154.915456 
L 250.373911 154.780733 
L 253.763261 154.374607 
L 257.26559 154.20361 
L 260.65494 154.412813 
L 264.157268 154.464796 
L 267.659596 154.47209 
L 271.048947 154.74215 
L 274.551275 155.371082 
L 277.940625 154.844024 
L 281.442953 155.605119 
L 284.945282 155.900462 
L 288.108675 156.758581 
L 291.611004 157.064777 
L 295.000354 157.599406 
L 298.502682 158.412837 
L 301.892032 158.30235 
L 305.394361 158.482537 
L 308.896689 158.072566 
L 312.286039 157.487327 
L 315.788367 156.848571 
L 319.177718 156.150569 
L 322.680046 155.626636 
L 326.182374 155.006689 
L 329.345768 154.464286 
L 332.848096 153.735457 
L 336.237446 153.385273 
L 339.739775 153.085225 
L 343.129125 153.278081 
L 346.631453 152.902075 
L 350.133782 153.121693 
L 353.523132 152.778211 
L 357.02546 152.761657 
L 360.41481 153.086224 
L 363.917138 153.331434 
L 367.419467 153.648514 
L 370.58286 153.788912 
L 374.085189 153.829878 
L 377.474539 153.677147 
L 380.976867 153.452416 
L 384.366217 152.785639 
L 387.868546 152.378979 
L 391.370874 152.03077 
L 394.760224 152.2681 
L 398.262553 152.244658 
L 401.651903 151.894987 
L 405.154231 151.870427 
L 408.656559 151.759929 
L 411.932931 151.652639 
L 415.43526 152.048502 
L 418.82461 152.465866 
L 422.326938 153.108618 
L 425.716288 152.407535 
L 429.218616 151.929013 
L 432.720945 151.10535 
L 436.110295 149.666908 
L 439.612623 147.822684 
L 443.001973 145.855989 
L 446.504302 145.146891 
L 450.00663 144.41564 
L 453.170024 143.534324 
L 456.672352 141.990908 
L 460.061702 141.10949 
L 463.564031 139.487948 
L 466.953381 139.191999 
L 470.455709 138.553417 
L 473.958037 137.741865 
L 477.347388 137.8546 
L 480.849716 138.345702 
" clip-path="url(#pdb5b2b2590)" style="fill: none; stroke: #808080; stroke-opacity: 0.5; stroke-linecap: square"/>
   </g>
   <g id="line2d_32">
    <path d="M 75.031534 148.037044 
L 78.533862 148.419314 
L 81.810234 147.848303 
L 85.312563 147.944984 
L 88.701913 146.662041 
L 92.204241 145.961729 
L 95.593591 145.971771 
L 99.09592 146.10943 
L 102.598248 146.583902 
L 105.987598 146.983457 
L 109.489926 146.960971 
L 112.879277 146.449905 
L 116.381605 147.147683 
L 119.883933 147.168189 
L 123.047327 146.91875 
L 126.549655 147.062349 
L 129.939005 147.140708 
L 133.441334 146.9544 
L 136.830684 146.133872 
L 140.333012 146.207491 
L 143.835341 145.70833 
L 147.224691 144.856325 
L 150.727019 144.76605 
L 154.116369 146.507641 
L 157.618697 146.661604 
L 161.121026 146.474783 
L 164.284419 146.724769 
L 167.786748 146.712029 
L 171.176098 146.905072 
L 174.678426 146.872659 
L 178.067776 146.5258 
L 181.570105 146.166454 
L 185.072433 146.531952 
L 188.461783 146.81509 
L 191.964112 146.683823 
L 195.353462 138.316756 
L 198.85579 137.982678 
L 202.358118 138.146546 
L 205.521512 138.002951 
L 209.02384 137.461697 
L 212.41319 137.188181 
L 215.915519 137.010422 
L 219.304869 137.449471 
L 222.807197 137.547849 
L 226.309526 137.267291 
L 229.698876 137.620069 
L 233.201204 137.386322 
L 236.590554 142.393452 
L 240.092883 141.828829 
L 243.595211 143.337762 
L 246.871583 143.868553 
L 250.373911 144.539113 
L 253.763261 144.687013 
L 257.26559 144.701028 
L 260.65494 145.306313 
L 264.157268 146.011368 
L 267.659596 146.382057 
L 271.048947 146.960911 
L 274.551275 148.125726 
L 277.940625 143.303344 
L 281.442953 145.406812 
L 284.945282 145.401992 
L 288.108675 146.242734 
L 291.611004 147.531868 
L 295.000354 149.290569 
L 298.502682 150.542081 
L 301.892032 151.669114 
L 305.394361 152.704201 
L 308.896689 153.613582 
L 312.286039 154.655383 
L 315.788367 154.220378 
L 319.177718 159.770887 
L 322.680046 159.80772 
L 326.182374 159.961584 
L 329.345768 160.508772 
L 332.848096 160.490072 
L 336.237446 160.684861 
L 339.739775 161.765478 
L 343.129125 161.662914 
L 346.631453 161.442294 
L 350.133782 161.893253 
L 353.523132 161.401588 
L 357.02546 162.416998 
L 360.41481 164.339336 
L 363.917138 164.43919 
L 367.419467 163.98987 
L 370.58286 164.105469 
L 374.085189 164.085713 
L 377.474539 164.233323 
L 380.976867 163.737801 
L 384.366217 164.224531 
L 387.868546 164.42592 
L 391.370874 164.4557 
L 394.760224 164.761546 
L 398.262553 164.832525 
L 401.651903 163.456425 
L 405.154231 163.106481 
L 408.656559 163.314369 
L 411.932931 163.13404 
L 415.43526 162.172782 
L 418.82461 160.676556 
L 422.326938 159.401431 
L 425.716288 158.145163 
L 429.218616 157.787032 
L 432.720945 157.312907 
L 436.110295 156.607848 
L 439.612623 156.144298 
L 443.001973 155.501606 
L 446.504302 154.925397 
L 450.00663 153.52772 
L 453.170024 152.086594 
L 456.672352 152.353698 
L 460.061702 152.988894 
L 463.564031 152.613063 
L 466.953381 153.443205 
L 470.455709 158.702586 
L 473.958037 158.10162 
L 477.347388 158.402055 
L 480.849716 159.191929 
" clip-path="url(#pdb5b2b2590)" style="fill: none; stroke: #808080; stroke-opacity: 0.5; stroke-linecap: square"/>
   </g>
   <g id="patch_3">
    <path d="M 54.740625 224.64 
L 54.740625 7.2 
" style="fill: none; stroke: #000000; stroke-width: 0.8; stroke-linejoin: miter; stroke-linecap: square"/>
   </g>
   <g id="patch_4">
    <path d="M 54.740625 224.64 
L 501.140625 224.64 
" style="fill: none; stroke: #000000; stroke-width: 0.8; stroke-linejoin: miter; stroke-linecap: square"/>
   </g>
   <g id="line2d_33">
    <path d="M 75.031534 121.763382 
L 78.533862 122.336418 
L 81.810234 123.268007 
L 85.312563 122.883308 
L 88.701913 123.005207 
L 92.204241 124.032768 
L 95.593591 125.598101 
L 99.09592 126.441661 
L 102.598248 126.783547 
L 105.987598 127.03987 
L 109.489926 129.673817 
L 112.879277 126.274469 
L 116.381605 126.264682 
L 119.883933 127.660659 
L 123.047327 128.554235 
L 126.549655 130.182694 
L 129.939005 130.556085 
L 133.441334 130.826783 
L 136.830684 130.888207 
L 140.333012 132.423103 
L 143.835341 133.783584 
L 147.224691 135.608258 
L 150.727019 136.695539 
L 154.116369 137.999538 
L 157.618697 138.213991 
L 161.121026 137.506949 
L 164.284419 135.146533 
L 167.786748 134.367887 
L 171.176098 136.182736 
L 174.678426 135.74355 
L 178.067776 135.647471 
L 181.570105 135.311978 
L 185.072433 132.040851 
L 188.461783 129.392228 
L 191.964112 128.06025 
L 195.353462 127.247725 
L 198.85579 125.563259 
L 202.358118 125.110137 
L 205.521512 125.572503 
L 209.02384 124.003477 
L 212.41319 121.947654 
L 215.915519 119.735759 
L 219.304869 118.133244 
L 222.807197 117.099214 
L 226.309526 118.639784 
L 229.698876 119.671729 
L 233.201204 120.352269 
L 236.590554 118.740874 
L 240.092883 118.732465 
L 243.595211 117.29864 
L 246.871583 116.033782 
L 250.373911 115.589136 
L 253.763261 113.095141 
L 257.26559 113.877125 
L 260.65494 114.063114 
L 264.157268 112.342244 
L 267.659596 111.449024 
L 271.048947 109.404998 
L 274.551275 105.896227 
L 277.940625 106.082415 
L 281.442953 106.840816 
L 284.945282 106.17184 
L 288.108675 104.492019 
L 291.611004 103.847905 
L 295.000354 104.553549 
L 298.502682 105.071005 
L 301.892032 103.922705 
L 305.394361 104.229678 
L 308.896689 103.640135 
L 312.286039 103.278692 
L 315.788367 104.771198 
L 319.177718 106.19761 
L 322.680046 105.324641 
L 326.182374 105.40496 
L 329.345768 108.068326 
L 332.848096 108.469328 
L 336.237446 108.709666 
L 339.739775 107.689718 
L 343.129125 108.187539 
L 346.631453 107.577578 
L 350.133782 106.611087 
L 353.523132 105.844017 
L 357.02546 104.542296 
L 360.41481 101.958492 
L 363.917138 102.931769 
L 367.419467 102.503829 
L 370.58286 102.475544 
L 374.085189 102.816558 
L 377.474539 102.71643 
L 380.976867 104.574001 
L 384.366217 105.434453 
L 387.868546 106.536754 
L 391.370874 108.727807 
L 394.760224 109.949697 
L 398.262553 111.367158 
L 401.651903 110.56971 
L 405.154231 109.789136 
L 408.656559 109.350306 
L 411.932931 111.807845 
L 415.43526 106.052305 
L 418.82461 107.367631 
L 422.326938 105.406572 
L 425.716288 103.51926 
L 429.218616 101.336229 
L 432.720945 97.654547 
L 436.110295 94.518614 
L 439.612623 90.979299 
L 443.001973 88.064387 
L 446.504302 84.93588 
L 450.00663 83.14926 
L 453.170024 77.056807 
L 456.672352 81.468887 
L 460.061702 77.080643 
L 463.564031 75.612838 
L 466.953381 72.177534 
L 470.455709 70.820989 
L 473.958037 70.207497 
L 477.347388 70.357152 
L 480.849716 70.09471 
" clip-path="url(#pdb5b2b2590)" style="fill: none; stroke: #2b5aa5; stroke-width: 1.5; stroke-linecap: square"/>
   </g>
  </g>
 </g>
 <defs>
  <clipPath id="pdb5b2b2590">
   <rect x="54.740625" y="7.2" width="446.4" height="217.44"/>
  </clipPath>
 </defs>
</svg>
