<?xml version="1.0" encoding="utf-8" standalone="no"?>
<!DOCTYPE svg PUBLIC "-//W3C//DTD SVG 1.1//EN"
  "http://www.w3.org/Graphics/SVG/1.1/DTD/svg11.dtd">
<svg xmlns:xlink="http://www.w3.org/1999/xlink" width="567.957812pt" height="270.328pt" viewBox="0 0 567.957812 270.328" xmlns="http://www.w3.org/2000/svg" version="1.1">
 <metadata>
  <rdf:RDF xmlns:dc="http://purl.org/dc/elements/1.1/" xmlns:cc="http://creativecommons.org/ns#" xmlns:rdf="http://www.w3.org/1999/02/22-rdf-syntax-ns#">
   <cc:Work>
    <dc:type rdf:resource="http://purl.org/dc/dcmitype/StillImage"/>
    <dc:date>2022-01-12T12:31:00.293283</dc:date>
    <dc:format>image/svg+xml</dc:format>
    <dc:creator>
     <cc:Agent>
      <dc:title>Matplotlib v3.5.1, https://matplotlib.org/</dc:title>
     </cc:Agent>
    </dc:creator>
   </cc:Work>
  </rdf:RDF>
 </metadata>
 <defs>
  <style type="text/css">*{stroke-linejoin: round; stroke-linecap: butt}</style>
 </defs>
 <g id="figure_1">
  <g id="patch_1">
   <path d="M 0 270.328 
L 567.957812 270.328 
L 567.957812 0 
L 0 0 
z
" style="fill: #ffffff"/>
  </g>
  <g id="axes_1">
   <g id="patch_2">
    <path d="M 58.557813 224.64 
L 560.757813 224.64 
L 560.757813 7.2 
L 58.557813 7.2 
z
" style="fill: #ffffff"/>
   </g>
   <g id="matplotlib.axis_1">
    <g id="xtick_1">
     <g id="line2d_1">
      <path d="M 102.137151 224.64 
L 102.137151 7.2 
" clip-path="url(#p7f1bd0cda4)" style="fill: none; stroke-dasharray: 2.96,1.28; stroke-dashoffset: 0; stroke: #dddddd; stroke-width: 0.8"/>
     </g>
     <g id="line2d_2">
      <defs>
       <path id="ma3089eb5cf" d="M 0 0 
L 0 3.5 
" style="stroke: #000000; stroke-width: 0.8"/>
      </defs>
      <g>
       <use xlink:href="#ma3089eb5cf" x="102.137151" y="224.64" style="stroke: #000000; stroke-width: 0.8"/>
      </g>
     </g>
     <g id="text_1">
      <!-- Banco Azteca -->
      <g transform="translate(71.480901 239.14)scale(0.1 -0.1)">
       <defs>
        <path id="Roboto-Regular-42" d="M 528 0 
L 528 4550 
L 2016 4550 
Q 2756 4550 3129 4244 
Q 3503 3938 3503 3338 
Q 3503 3019 3322 2773 
Q 3141 2528 2828 2394 
Q 3197 2291 3411 2002 
Q 3625 1713 3625 1313 
Q 3625 700 3228 350 
Q 2831 0 2106 0 
L 528 0 
z
M 1128 2128 
L 1128 491 
L 2119 491 
Q 2538 491 2780 708 
Q 3022 925 3022 1306 
Q 3022 2128 2128 2128 
L 1128 2128 
z
M 1128 2609 
L 2034 2609 
Q 2428 2609 2664 2806 
Q 2900 3003 2900 3341 
Q 2900 3716 2681 3886 
Q 2463 4056 2016 4056 
L 1128 4056 
L 1128 2609 
z
" transform="scale(0.015625)"/>
        <path id="Roboto-Regular-61" d="M 2525 0 
Q 2475 100 2444 356 
Q 2041 -63 1481 -63 
Q 981 -63 661 220 
Q 341 503 341 938 
Q 341 1466 742 1758 
Q 1144 2050 1872 2050 
L 2434 2050 
L 2434 2316 
Q 2434 2619 2253 2798 
Q 2072 2978 1719 2978 
Q 1409 2978 1200 2822 
Q 991 2666 991 2444 
L 409 2444 
Q 409 2697 589 2933 
Q 769 3169 1076 3306 
Q 1384 3444 1753 3444 
Q 2338 3444 2669 3151 
Q 3000 2859 3013 2347 
L 3013 791 
Q 3013 325 3131 50 
L 3131 0 
L 2525 0 
z
M 1566 441 
Q 1838 441 2081 581 
Q 2325 722 2434 947 
L 2434 1641 
L 1981 1641 
Q 919 1641 919 1019 
Q 919 747 1100 594 
Q 1281 441 1566 441 
z
" transform="scale(0.015625)"/>
        <path id="Roboto-Regular-6e" d="M 984 3381 
L 1003 2956 
Q 1391 3444 2016 3444 
Q 3088 3444 3097 2234 
L 3097 0 
L 2519 0 
L 2519 2238 
Q 2516 2603 2352 2778 
Q 2188 2953 1841 2953 
Q 1559 2953 1346 2803 
Q 1134 2653 1016 2409 
L 1016 0 
L 438 0 
L 438 3381 
L 984 3381 
z
" transform="scale(0.015625)"/>
        <path id="Roboto-Regular-63" d="M 1794 409 
Q 2103 409 2334 596 
Q 2566 784 2591 1066 
L 3138 1066 
Q 3122 775 2937 512 
Q 2753 250 2445 93 
Q 2138 -63 1794 -63 
Q 1103 -63 695 398 
Q 288 859 288 1659 
L 288 1756 
Q 288 2250 469 2634 
Q 650 3019 989 3231 
Q 1328 3444 1791 3444 
Q 2359 3444 2736 3103 
Q 3113 2763 3138 2219 
L 2591 2219 
Q 2566 2547 2342 2758 
Q 2119 2969 1791 2969 
Q 1350 2969 1108 2651 
Q 866 2334 866 1734 
L 866 1625 
Q 866 1041 1106 725 
Q 1347 409 1794 409 
z
" transform="scale(0.015625)"/>
        <path id="Roboto-Regular-6f" d="M 284 1722 
Q 284 2219 479 2616 
Q 675 3013 1023 3228 
Q 1372 3444 1819 3444 
Q 2509 3444 2936 2966 
Q 3363 2488 3363 1694 
L 3363 1653 
Q 3363 1159 3173 767 
Q 2984 375 2632 156 
Q 2281 -63 1825 -63 
Q 1138 -63 711 415 
Q 284 894 284 1681 
L 284 1722 
z
M 866 1653 
Q 866 1091 1127 750 
Q 1388 409 1825 409 
Q 2266 409 2525 754 
Q 2784 1100 2784 1722 
Q 2784 2278 2520 2623 
Q 2256 2969 1819 2969 
Q 1391 2969 1128 2628 
Q 866 2288 866 1653 
z
" transform="scale(0.015625)"/>
        <path id="Roboto-Regular-20" transform="scale(0.015625)"/>
        <path id="Roboto-Regular-41" d="M 3041 1188 
L 1134 1188 
L 706 0 
L 88 0 
L 1825 4550 
L 2350 4550 
L 4091 0 
L 3475 0 
L 3041 1188 
z
M 1316 1681 
L 2863 1681 
L 2088 3809 
L 1316 1681 
z
" transform="scale(0.015625)"/>
        <path id="Roboto-Regular-7a" d="M 981 472 
L 2959 472 
L 2959 0 
L 275 0 
L 275 425 
L 2141 2903 
L 303 2903 
L 303 3381 
L 2866 3381 
L 2866 2972 
L 981 472 
z
" transform="scale(0.015625)"/>
        <path id="Roboto-Regular-74" d="M 1222 4200 
L 1222 3381 
L 1853 3381 
L 1853 2934 
L 1222 2934 
L 1222 838 
Q 1222 634 1306 532 
Q 1391 431 1594 431 
Q 1694 431 1869 469 
L 1869 0 
Q 1641 -63 1425 -63 
Q 1038 -63 841 171 
Q 644 406 644 838 
L 644 2934 
L 28 2934 
L 28 3381 
L 644 3381 
L 644 4200 
L 1222 4200 
z
" transform="scale(0.015625)"/>
        <path id="Roboto-Regular-65" d="M 1841 -63 
Q 1153 -63 722 389 
Q 291 841 291 1597 
L 291 1703 
Q 291 2206 483 2601 
Q 675 2997 1020 3220 
Q 1366 3444 1769 3444 
Q 2428 3444 2793 3009 
Q 3159 2575 3159 1766 
L 3159 1525 
L 869 1525 
Q 881 1025 1161 717 
Q 1441 409 1872 409 
Q 2178 409 2390 534 
Q 2603 659 2763 866 
L 3116 591 
Q 2691 -63 1841 -63 
z
M 1769 2969 
Q 1419 2969 1181 2714 
Q 944 2459 888 2000 
L 2581 2000 
L 2581 2044 
Q 2556 2484 2343 2726 
Q 2131 2969 1769 2969 
z
" transform="scale(0.015625)"/>
       </defs>
       <use xlink:href="#Roboto-Regular-42"/>
       <use xlink:href="#Roboto-Regular-61" x="62.255859"/>
       <use xlink:href="#Roboto-Regular-6e" x="116.650391"/>
       <use xlink:href="#Roboto-Regular-63" x="171.826172"/>
       <use xlink:href="#Roboto-Regular-6f" x="224.169922"/>
       <use xlink:href="#Roboto-Regular-20" x="281.201172"/>
       <use xlink:href="#Roboto-Regular-41" x="305.957031"/>
       <use xlink:href="#Roboto-Regular-7a" x="371.191406"/>
       <use xlink:href="#Roboto-Regular-74" x="420.751953"/>
       <use xlink:href="#Roboto-Regular-65" x="453.417969"/>
       <use xlink:href="#Roboto-Regular-63" x="506.396484"/>
       <use xlink:href="#Roboto-Regular-61" x="558.740234"/>
      </g>
     </g>
    </g>
    <g id="xtick_2">
     <g id="line2d_3">
      <path d="M 205.897482 224.64 
L 205.897482 7.2 
" clip-path="url(#p7f1bd0cda4)" style="fill: none; stroke-dasharray: 2.96,1.28; stroke-dashoffset: 0; stroke: #dddddd; stroke-width: 0.8"/>
     </g>
     <g id="line2d_4">
      <g>
       <use xlink:href="#ma3089eb5cf" x="205.897482" y="224.64" style="stroke: #000000; stroke-width: 0.8"/>
      </g>
     </g>
     <g id="text_2">
      <!-- Banamex -->
      <g transform="translate(185.077951 239.14)scale(0.1 -0.1)">
       <defs>
        <path id="Roboto-Regular-6d" d="M 981 3381 
L 997 3006 
Q 1369 3444 2000 3444 
Q 2709 3444 2966 2900 
Q 3134 3144 3404 3294 
Q 3675 3444 4044 3444 
Q 5156 3444 5175 2266 
L 5175 0 
L 4597 0 
L 4597 2231 
Q 4597 2594 4431 2773 
Q 4266 2953 3875 2953 
Q 3553 2953 3340 2761 
Q 3128 2569 3094 2244 
L 3094 0 
L 2513 0 
L 2513 2216 
Q 2513 2953 1791 2953 
Q 1222 2953 1013 2469 
L 1013 0 
L 434 0 
L 434 3381 
L 981 3381 
z
" transform="scale(0.015625)"/>
        <path id="Roboto-Regular-78" d="M 1572 2147 
L 2322 3381 
L 2997 3381 
L 1891 1709 
L 3031 0 
L 2363 0 
L 1581 1266 
L 800 0 
L 128 0 
L 1269 1709 
L 163 3381 
L 831 3381 
L 1572 2147 
z
" transform="scale(0.015625)"/>
       </defs>
       <use xlink:href="#Roboto-Regular-42"/>
       <use xlink:href="#Roboto-Regular-61" x="62.255859"/>
       <use xlink:href="#Roboto-Regular-6e" x="116.650391"/>
       <use xlink:href="#Roboto-Regular-61" x="171.826172"/>
       <use xlink:href="#Roboto-Regular-6d" x="226.220703"/>
       <use xlink:href="#Roboto-Regular-65" x="313.867188"/>
       <use xlink:href="#Roboto-Regular-78" x="366.845703"/>
      </g>
     </g>
    </g>
    <g id="xtick_3">
     <g id="line2d_5">
      <path d="M 309.657813 224.64 
L 309.657813 7.2 
" clip-path="url(#p7f1bd0cda4)" style="fill: none; stroke-dasharray: 2.96,1.28; stroke-dashoffset: 0; stroke: #dddddd; stroke-width: 0.8"/>
     </g>
     <g id="line2d_6">
      <g>
       <use xlink:href="#ma3089eb5cf" x="309.657813" y="224.64" style="stroke: #000000; stroke-width: 0.8"/>
      </g>
     </g>
     <g id="text_3">
      <!-- BBVA Bancomer -->
      <g transform="translate(272.969531 239.14)scale(0.1 -0.1)">
       <defs>
        <path id="Roboto-Regular-56" d="M 2034 797 
L 3334 4550 
L 3991 4550 
L 2303 0 
L 1772 0 
L 88 4550 
L 741 4550 
L 2034 797 
z
" transform="scale(0.015625)"/>
        <path id="Roboto-Regular-72" d="M 2072 2863 
Q 1941 2884 1788 2884 
Q 1219 2884 1016 2400 
L 1016 0 
L 438 0 
L 438 3381 
L 1000 3381 
L 1009 2991 
Q 1294 3444 1816 3444 
Q 1984 3444 2072 3400 
L 2072 2863 
z
" transform="scale(0.015625)"/>
       </defs>
       <use xlink:href="#Roboto-Regular-42"/>
       <use xlink:href="#Roboto-Regular-42" x="62.255859"/>
       <use xlink:href="#Roboto-Regular-56" x="124.511719"/>
       <use xlink:href="#Roboto-Regular-41" x="188.134766"/>
       <use xlink:href="#Roboto-Regular-20" x="253.369141"/>
       <use xlink:href="#Roboto-Regular-42" x="278.125"/>
       <use xlink:href="#Roboto-Regular-61" x="340.380859"/>
       <use xlink:href="#Roboto-Regular-6e" x="394.775391"/>
       <use xlink:href="#Roboto-Regular-63" x="449.951172"/>
       <use xlink:href="#Roboto-Regular-6f" x="502.294922"/>
       <use xlink:href="#Roboto-Regular-6d" x="559.326172"/>
       <use xlink:href="#Roboto-Regular-65" x="646.972656"/>
       <use xlink:href="#Roboto-Regular-72" x="699.951172"/>
      </g>
     </g>
    </g>
    <g id="xtick_4">
     <g id="line2d_7">
      <path d="M 413.418143 224.64 
L 413.418143 7.2 
" clip-path="url(#p7f1bd0cda4)" style="fill: none; stroke-dasharray: 2.96,1.28; stroke-dashoffset: 0; stroke: #dddddd; stroke-width: 0.8"/>
     </g>
     <g id="line2d_8">
      <g>
       <use xlink:href="#ma3089eb5cf" x="413.418143" y="224.64" style="stroke: #000000; stroke-width: 0.8"/>
      </g>
     </g>
     <g id="text_4">
      <!-- Santander México -->
      <g transform="translate(373.288456 239.14)scale(0.1 -0.1)">
       <defs>
        <path id="Roboto-Regular-53" d="M 1869 2028 
Q 1097 2250 745 2573 
Q 394 2897 394 3372 
Q 394 3909 823 4261 
Q 1253 4613 1941 4613 
Q 2409 4613 2776 4431 
Q 3144 4250 3345 3931 
Q 3547 3613 3547 3234 
L 2944 3234 
Q 2944 3647 2681 3883 
Q 2419 4119 1941 4119 
Q 1497 4119 1248 3923 
Q 1000 3728 1000 3381 
Q 1000 3103 1236 2911 
Q 1472 2719 2039 2559 
Q 2606 2400 2926 2208 
Q 3247 2016 3401 1759 
Q 3556 1503 3556 1156 
Q 3556 603 3125 270 
Q 2694 -63 1972 -63 
Q 1503 -63 1097 117 
Q 691 297 470 609 
Q 250 922 250 1319 
L 853 1319 
Q 853 906 1158 667 
Q 1463 428 1972 428 
Q 2447 428 2700 622 
Q 2953 816 2953 1150 
Q 2953 1484 2718 1667 
Q 2484 1850 1869 2028 
z
" transform="scale(0.015625)"/>
        <path id="Roboto-Regular-64" d="M 297 1719 
Q 297 2497 665 2970 
Q 1034 3444 1631 3444 
Q 2225 3444 2572 3038 
L 2572 4800 
L 3150 4800 
L 3150 0 
L 2619 0 
L 2591 363 
Q 2244 -63 1625 -63 
Q 1038 -63 667 418 
Q 297 900 297 1675 
L 297 1719 
z
M 875 1653 
Q 875 1078 1112 753 
Q 1350 428 1769 428 
Q 2319 428 2572 922 
L 2572 2475 
Q 2313 2953 1775 2953 
Q 1350 2953 1112 2625 
Q 875 2297 875 1653 
z
" transform="scale(0.015625)"/>
        <path id="Roboto-Regular-4d" d="M 1303 4550 
L 2791 838 
L 4278 4550 
L 5056 4550 
L 5056 0 
L 4456 0 
L 4456 1772 
L 4513 3684 
L 3019 0 
L 2559 0 
L 1069 3675 
L 1128 1772 
L 1128 0 
L 528 0 
L 528 4550 
L 1303 4550 
z
" transform="scale(0.015625)"/>
        <path id="Roboto-Regular-e9" d="M 1841 -63 
Q 1153 -63 722 389 
Q 291 841 291 1597 
L 291 1703 
Q 291 2206 483 2601 
Q 675 2997 1020 3220 
Q 1366 3444 1769 3444 
Q 2428 3444 2793 3009 
Q 3159 2575 3159 1766 
L 3159 1525 
L 869 1525 
Q 881 1025 1161 717 
Q 1441 409 1872 409 
Q 2178 409 2390 534 
Q 2603 659 2763 866 
L 3116 591 
Q 2691 -63 1841 -63 
z
M 1769 2969 
Q 1419 2969 1181 2714 
Q 944 2459 888 2000 
L 2581 2000 
L 2581 2044 
Q 2556 2484 2343 2726 
Q 2131 2969 1769 2969 
z
M 2052 4800 
L 2752 4800 
L 1914 3881 
L 1448 3881 
L 2052 4800 
z
" transform="scale(0.015625)"/>
        <path id="Roboto-Regular-69" d="M 1066 0 
L 488 0 
L 488 3381 
L 1066 3381 
L 1066 0 
z
M 441 4278 
Q 441 4419 527 4516 
Q 613 4613 781 4613 
Q 950 4613 1037 4516 
Q 1125 4419 1125 4278 
Q 1125 4138 1037 4044 
Q 950 3950 781 3950 
Q 613 3950 527 4044 
Q 441 4138 441 4278 
z
" transform="scale(0.015625)"/>
       </defs>
       <use xlink:href="#Roboto-Regular-53"/>
       <use xlink:href="#Roboto-Regular-61" x="59.326172"/>
       <use xlink:href="#Roboto-Regular-6e" x="113.720703"/>
       <use xlink:href="#Roboto-Regular-74" x="168.896484"/>
       <use xlink:href="#Roboto-Regular-61" x="201.5625"/>
       <use xlink:href="#Roboto-Regular-6e" x="255.957031"/>
       <use xlink:href="#Roboto-Regular-64" x="311.132812"/>
       <use xlink:href="#Roboto-Regular-65" x="367.529297"/>
       <use xlink:href="#Roboto-Regular-72" x="420.507812"/>
       <use xlink:href="#Roboto-Regular-20" x="454.345703"/>
       <use xlink:href="#Roboto-Regular-4d" x="479.101562"/>
       <use xlink:href="#Roboto-Regular-e9" x="566.40625"/>
       <use xlink:href="#Roboto-Regular-78" x="619.384766"/>
       <use xlink:href="#Roboto-Regular-69" x="668.945312"/>
       <use xlink:href="#Roboto-Regular-63" x="693.212891"/>
       <use xlink:href="#Roboto-Regular-6f" x="745.556641"/>
      </g>
     </g>
    </g>
    <g id="xtick_5">
     <g id="line2d_9">
      <path d="M 517.178474 224.64 
L 517.178474 7.2 
" clip-path="url(#p7f1bd0cda4)" style="fill: none; stroke-dasharray: 2.96,1.28; stroke-dashoffset: 0; stroke: #dddddd; stroke-width: 0.8"/>
     </g>
     <g id="line2d_10">
      <g>
       <use xlink:href="#ma3089eb5cf" x="517.178474" y="224.64" style="stroke: #000000; stroke-width: 0.8"/>
      </g>
     </g>
     <g id="text_5">
      <!-- HSBC México -->
      <g transform="translate(486.867536 239.14)scale(0.1 -0.1)">
       <defs>
        <path id="Roboto-Regular-48" d="M 4025 0 
L 3422 0 
L 3422 2103 
L 1128 2103 
L 1128 0 
L 528 0 
L 528 4550 
L 1128 4550 
L 1128 2594 
L 3422 2594 
L 3422 4550 
L 4025 4550 
L 4025 0 
z
" transform="scale(0.015625)"/>
        <path id="Roboto-Regular-43" d="M 3875 1444 
Q 3791 722 3342 329 
Q 2894 -63 2150 -63 
Q 1344 -63 858 515 
Q 372 1094 372 2063 
L 372 2500 
Q 372 3134 598 3615 
Q 825 4097 1240 4355 
Q 1656 4613 2203 4613 
Q 2928 4613 3365 4208 
Q 3803 3803 3875 3088 
L 3272 3088 
Q 3194 3631 2933 3875 
Q 2672 4119 2203 4119 
Q 1628 4119 1301 3694 
Q 975 3269 975 2484 
L 975 2044 
Q 975 1303 1284 865 
Q 1594 428 2150 428 
Q 2650 428 2917 654 
Q 3184 881 3272 1444 
L 3875 1444 
z
" transform="scale(0.015625)"/>
       </defs>
       <use xlink:href="#Roboto-Regular-48"/>
       <use xlink:href="#Roboto-Regular-53" x="71.289062"/>
       <use xlink:href="#Roboto-Regular-42" x="130.615234"/>
       <use xlink:href="#Roboto-Regular-43" x="192.871094"/>
       <use xlink:href="#Roboto-Regular-20" x="257.958984"/>
       <use xlink:href="#Roboto-Regular-4d" x="282.714844"/>
       <use xlink:href="#Roboto-Regular-e9" x="370.019531"/>
       <use xlink:href="#Roboto-Regular-78" x="422.998047"/>
       <use xlink:href="#Roboto-Regular-69" x="472.558594"/>
       <use xlink:href="#Roboto-Regular-63" x="496.826172"/>
       <use xlink:href="#Roboto-Regular-6f" x="549.169922"/>
      </g>
     </g>
    </g>
   </g>
   <g id="matplotlib.axis_2">
    <g id="ytick_1">
     <g id="line2d_11">
      <path d="M 58.557813 224.64 
L 560.757813 224.64 
" clip-path="url(#p7f1bd0cda4)" style="fill: none; stroke-dasharray: 2.96,1.28; stroke-dashoffset: 0; stroke: #dddddd; stroke-width: 0.8"/>
     </g>
     <g id="line2d_12">
      <defs>
       <path id="mb312076993" d="M 0 0 
L -3.5 0 
" style="stroke: #000000; stroke-width: 0.8"/>
      </defs>
      <g>
       <use xlink:href="#mb312076993" x="58.557813" y="224.64" style="stroke: #000000; stroke-width: 0.8"/>
      </g>
     </g>
     <g id="text_6">
      <!-- 0 -->
      <g transform="translate(45.942188 228.39)scale(0.1 -0.1)">
       <defs>
        <path id="Roboto-Regular-30" d="M 3231 1941 
Q 3231 925 2884 431 
Q 2538 -63 1800 -63 
Q 1072 -63 722 420 
Q 372 903 359 1863 
L 359 2634 
Q 359 3638 706 4125 
Q 1053 4613 1794 4613 
Q 2528 4613 2875 4142 
Q 3222 3672 3231 2691 
L 3231 1941 
z
M 2653 2731 
Q 2653 3466 2447 3802 
Q 2241 4138 1794 4138 
Q 1350 4138 1147 3803 
Q 944 3469 938 2775 
L 938 1850 
Q 938 1113 1152 761 
Q 1366 409 1800 409 
Q 2228 409 2436 740 
Q 2644 1072 2653 1784 
L 2653 2731 
z
" transform="scale(0.015625)"/>
       </defs>
       <use xlink:href="#Roboto-Regular-30"/>
      </g>
     </g>
    </g>
    <g id="ytick_2">
     <g id="line2d_13">
      <path d="M 58.557813 182.05567 
L 560.757813 182.05567 
" clip-path="url(#p7f1bd0cda4)" style="fill: none; stroke-dasharray: 2.96,1.28; stroke-dashoffset: 0; stroke: #dddddd; stroke-width: 0.8"/>
     </g>
     <g id="line2d_14">
      <g>
       <use xlink:href="#mb312076993" x="58.557813" y="182.05567" style="stroke: #000000; stroke-width: 0.8"/>
      </g>
     </g>
     <g id="text_7">
      <!-- 5,000 -->
      <g transform="translate(27.132813 185.80567)scale(0.1 -0.1)">
       <defs>
        <path id="Roboto-Regular-35" d="M 644 2281 
L 875 4550 
L 3206 4550 
L 3206 4016 
L 1366 4016 
L 1228 2775 
Q 1563 2972 1988 2972 
Q 2609 2972 2975 2561 
Q 3341 2150 3341 1450 
Q 3341 747 2961 342 
Q 2581 -63 1900 -63 
Q 1297 -63 915 271 
Q 534 606 481 1197 
L 1028 1197 
Q 1081 806 1306 607 
Q 1531 409 1900 409 
Q 2303 409 2533 684 
Q 2763 959 2763 1444 
Q 2763 1900 2514 2176 
Q 2266 2453 1853 2453 
Q 1475 2453 1259 2288 
L 1106 2163 
L 644 2281 
z
" transform="scale(0.015625)"/>
        <path id="Roboto-Regular-2c" d="M 419 -906 
L 91 -681 
Q 384 -272 397 163 
L 397 684 
L 963 684 
L 963 231 
Q 963 -84 808 -400 
Q 653 -716 419 -906 
z
" transform="scale(0.015625)"/>
       </defs>
       <use xlink:href="#Roboto-Regular-35"/>
       <use xlink:href="#Roboto-Regular-2c" x="56.152344"/>
       <use xlink:href="#Roboto-Regular-30" x="75.78125"/>
       <use xlink:href="#Roboto-Regular-30" x="131.933594"/>
       <use xlink:href="#Roboto-Regular-30" x="188.085938"/>
      </g>
     </g>
    </g>
    <g id="ytick_3">
     <g id="line2d_15">
      <path d="M 58.557813 139.47134 
L 560.757813 139.47134 
" clip-path="url(#p7f1bd0cda4)" style="fill: none; stroke-dasharray: 2.96,1.28; stroke-dashoffset: 0; stroke: #dddddd; stroke-width: 0.8"/>
     </g>
     <g id="line2d_16">
      <g>
       <use xlink:href="#mb312076993" x="58.557813" y="139.47134" style="stroke: #000000; stroke-width: 0.8"/>
      </g>
     </g>
     <g id="text_8">
      <!-- 10,000 -->
      <g transform="translate(21.517188 143.22134)scale(0.1 -0.1)">
       <defs>
        <path id="Roboto-Regular-31" d="M 2278 0 
L 1697 0 
L 1697 3853 
L 531 3425 
L 531 3950 
L 2188 4572 
L 2278 4572 
L 2278 0 
z
" transform="scale(0.015625)"/>
       </defs>
       <use xlink:href="#Roboto-Regular-31"/>
       <use xlink:href="#Roboto-Regular-30" x="56.152344"/>
       <use xlink:href="#Roboto-Regular-2c" x="112.304688"/>
       <use xlink:href="#Roboto-Regular-30" x="131.933594"/>
       <use xlink:href="#Roboto-Regular-30" x="188.085938"/>
       <use xlink:href="#Roboto-Regular-30" x="244.238281"/>
      </g>
     </g>
    </g>
    <g id="ytick_4">
     <g id="line2d_17">
      <path d="M 58.557813 96.88701 
L 560.757813 96.88701 
" clip-path="url(#p7f1bd0cda4)" style="fill: none; stroke-dasharray: 2.96,1.28; stroke-dashoffset: 0; stroke: #dddddd; stroke-width: 0.8"/>
     </g>
     <g id="line2d_18">
      <g>
       <use xlink:href="#mb312076993" x="58.557813" y="96.88701" style="stroke: #000000; stroke-width: 0.8"/>
      </g>
     </g>
     <g id="text_9">
      <!-- 15,000 -->
      <g transform="translate(21.517188 100.63701)scale(0.1 -0.1)">
       <use xlink:href="#Roboto-Regular-31"/>
       <use xlink:href="#Roboto-Regular-35" x="56.152344"/>
       <use xlink:href="#Roboto-Regular-2c" x="112.304688"/>
       <use xlink:href="#Roboto-Regular-30" x="131.933594"/>
       <use xlink:href="#Roboto-Regular-30" x="188.085938"/>
       <use xlink:href="#Roboto-Regular-30" x="244.238281"/>
      </g>
     </g>
    </g>
    <g id="ytick_5">
     <g id="line2d_19">
      <path d="M 58.557813 54.30268 
L 560.757813 54.30268 
" clip-path="url(#p7f1bd0cda4)" style="fill: none; stroke-dasharray: 2.96,1.28; stroke-dashoffset: 0; stroke: #dddddd; stroke-width: 0.8"/>
     </g>
     <g id="line2d_20">
      <g>
       <use xlink:href="#mb312076993" x="58.557813" y="54.30268" style="stroke: #000000; stroke-width: 0.8"/>
      </g>
     </g>
     <g id="text_10">
      <!-- 20,000 -->
      <g transform="translate(21.517188 58.05268)scale(0.1 -0.1)">
       <defs>
        <path id="Roboto-Regular-32" d="M 3359 0 
L 378 0 
L 378 416 
L 1953 2166 
Q 2303 2563 2436 2811 
Q 2569 3059 2569 3325 
Q 2569 3681 2353 3909 
Q 2138 4138 1778 4138 
Q 1347 4138 1108 3892 
Q 869 3647 869 3209 
L 291 3209 
Q 291 3838 695 4225 
Q 1100 4613 1778 4613 
Q 2413 4613 2781 4280 
Q 3150 3947 3150 3394 
Q 3150 2722 2294 1794 
L 1075 472 
L 3359 472 
L 3359 0 
z
" transform="scale(0.015625)"/>
       </defs>
       <use xlink:href="#Roboto-Regular-32"/>
       <use xlink:href="#Roboto-Regular-30" x="56.152344"/>
       <use xlink:href="#Roboto-Regular-2c" x="112.304688"/>
       <use xlink:href="#Roboto-Regular-30" x="131.933594"/>
       <use xlink:href="#Roboto-Regular-30" x="188.085938"/>
       <use xlink:href="#Roboto-Regular-30" x="244.238281"/>
      </g>
     </g>
    </g>
    <g id="ytick_6">
     <g id="line2d_21">
      <path d="M 58.557813 11.71835 
L 560.757813 11.71835 
" clip-path="url(#p7f1bd0cda4)" style="fill: none; stroke-dasharray: 2.96,1.28; stroke-dashoffset: 0; stroke: #dddddd; stroke-width: 0.8"/>
     </g>
     <g id="line2d_22">
      <g>
       <use xlink:href="#mb312076993" x="58.557813" y="11.71835" style="stroke: #000000; stroke-width: 0.8"/>
      </g>
     </g>
     <g id="text_11">
      <!-- 25,000 -->
      <g transform="translate(21.517188 15.46835)scale(0.1 -0.1)">
       <use xlink:href="#Roboto-Regular-32"/>
       <use xlink:href="#Roboto-Regular-35" x="56.152344"/>
       <use xlink:href="#Roboto-Regular-2c" x="112.304688"/>
       <use xlink:href="#Roboto-Regular-30" x="131.933594"/>
       <use xlink:href="#Roboto-Regular-30" x="188.085938"/>
       <use xlink:href="#Roboto-Regular-30" x="244.238281"/>
      </g>
     </g>
    </g>
    <g id="text_12">
     <!-- Contracts (in thousands) -->
     <g transform="translate(15.221875 171.002812)rotate(-90)scale(0.1 -0.1)">
      <defs>
       <path id="Roboto-Regular-73" d="M 2406 897 
Q 2406 1131 2229 1261 
Q 2053 1391 1614 1484 
Q 1175 1578 917 1709 
Q 659 1841 536 2022 
Q 413 2203 413 2453 
Q 413 2869 764 3156 
Q 1116 3444 1663 3444 
Q 2238 3444 2595 3147 
Q 2953 2850 2953 2388 
L 2372 2388 
Q 2372 2625 2170 2797 
Q 1969 2969 1663 2969 
Q 1347 2969 1169 2831 
Q 991 2694 991 2472 
Q 991 2263 1156 2156 
Q 1322 2050 1755 1953 
Q 2188 1856 2456 1722 
Q 2725 1588 2854 1398 
Q 2984 1209 2984 938 
Q 2984 484 2621 210 
Q 2259 -63 1681 -63 
Q 1275 -63 962 81 
Q 650 225 473 483 
Q 297 741 297 1041 
L 875 1041 
Q 891 750 1108 579 
Q 1325 409 1681 409 
Q 2009 409 2207 542 
Q 2406 675 2406 897 
z
" transform="scale(0.015625)"/>
       <path id="Roboto-Regular-28" d="M 416 1847 
Q 416 2553 605 3203 
Q 794 3853 1169 4384 
Q 1544 4916 1947 5134 
L 2066 4753 
Q 1609 4403 1317 3684 
Q 1025 2966 997 2075 
L 994 1809 
Q 994 603 1434 -284 
Q 1700 -816 2066 -1116 
L 1947 -1469 
Q 1531 -1238 1153 -694 
Q 416 369 416 1847 
z
" transform="scale(0.015625)"/>
       <path id="Roboto-Regular-68" d="M 1016 2972 
Q 1400 3444 2016 3444 
Q 3088 3444 3097 2234 
L 3097 0 
L 2519 0 
L 2519 2238 
Q 2516 2603 2352 2778 
Q 2188 2953 1841 2953 
Q 1559 2953 1346 2803 
Q 1134 2653 1016 2409 
L 1016 0 
L 438 0 
L 438 4800 
L 1016 4800 
L 1016 2972 
z
" transform="scale(0.015625)"/>
       <path id="Roboto-Regular-75" d="M 2525 334 
Q 2188 -63 1534 -63 
Q 994 -63 711 251 
Q 428 566 425 1181 
L 425 3381 
L 1003 3381 
L 1003 1197 
Q 1003 428 1628 428 
Q 2291 428 2509 922 
L 2509 3381 
L 3088 3381 
L 3088 0 
L 2538 0 
L 2525 334 
z
" transform="scale(0.015625)"/>
       <path id="Roboto-Regular-29" d="M 1772 1816 
Q 1772 1119 1589 480 
Q 1406 -159 1029 -700 
Q 653 -1241 241 -1469 
L 119 -1116 
Q 600 -747 892 29 
Q 1184 806 1191 1753 
L 1191 1853 
Q 1191 2509 1053 3073 
Q 916 3638 670 4084 
Q 425 4531 119 4781 
L 241 5134 
Q 653 4906 1026 4372 
Q 1400 3838 1586 3194 
Q 1772 2550 1772 1816 
z
" transform="scale(0.015625)"/>
      </defs>
      <use xlink:href="#Roboto-Regular-43"/>
      <use xlink:href="#Roboto-Regular-6f" x="65.087891"/>
      <use xlink:href="#Roboto-Regular-6e" x="122.119141"/>
      <use xlink:href="#Roboto-Regular-74" x="177.294922"/>
      <use xlink:href="#Roboto-Regular-72" x="209.960938"/>
      <use xlink:href="#Roboto-Regular-61" x="243.798828"/>
      <use xlink:href="#Roboto-Regular-63" x="298.193359"/>
      <use xlink:href="#Roboto-Regular-74" x="350.537109"/>
      <use xlink:href="#Roboto-Regular-73" x="383.203125"/>
      <use xlink:href="#Roboto-Regular-20" x="434.765625"/>
      <use xlink:href="#Roboto-Regular-28" x="459.521484"/>
      <use xlink:href="#Roboto-Regular-69" x="493.701172"/>
      <use xlink:href="#Roboto-Regular-6e" x="517.96875"/>
      <use xlink:href="#Roboto-Regular-20" x="573.144531"/>
      <use xlink:href="#Roboto-Regular-74" x="597.900391"/>
      <use xlink:href="#Roboto-Regular-68" x="630.566406"/>
      <use xlink:href="#Roboto-Regular-6f" x="685.644531"/>
      <use xlink:href="#Roboto-Regular-75" x="742.675781"/>
      <use xlink:href="#Roboto-Regular-73" x="797.802734"/>
      <use xlink:href="#Roboto-Regular-61" x="849.365234"/>
      <use xlink:href="#Roboto-Regular-6e" x="903.759766"/>
      <use xlink:href="#Roboto-Regular-64" x="958.935547"/>
      <use xlink:href="#Roboto-Regular-73" x="1015.332031"/>
      <use xlink:href="#Roboto-Regular-29" x="1066.894531"/>
     </g>
    </g>
   </g>
   <g id="patch_3">
    <path d="M 58.557813 224.64 
L 58.557813 7.2 
" style="fill: none; stroke: #000000; stroke-width: 0.8; stroke-linejoin: miter; stroke-linecap: square"/>
   </g>
   <g id="patch_4">
    <path d="M 58.557813 224.64 
L 560.757813 224.64 
" style="fill: none; stroke: #000000; stroke-width: 0.8; stroke-linejoin: miter; stroke-linecap: square"/>
   </g>
   <g id="patch_5">
    <path d="M 81.385085 224.64 
L 122.889217 224.64 
L 122.889217 113.017384 
L 81.385085 113.017384 
z
" clip-path="url(#p7f1bd0cda4)" style="fill: #2b5aa5; opacity: 0.5"/>
   </g>
   <g id="patch_6">
    <path d="M 185.145416 224.64 
L 226.649548 224.64 
L 226.649548 68.581819 
L 185.145416 68.581819 
z
" clip-path="url(#p7f1bd0cda4)" style="fill: #2b5aa5; opacity: 0.5"/>
   </g>
   <g id="patch_7">
    <path d="M 288.905746 224.64 
L 330.409879 224.64 
L 330.409879 17.554286 
L 288.905746 17.554286 
z
" clip-path="url(#p7f1bd0cda4)" style="fill: #2b5aa5; opacity: 0.5"/>
   </g>
   <g id="patch_8">
    <path d="M 392.666077 224.64 
L 434.170209 224.64 
L 434.170209 146.283853 
L 392.666077 146.283853 
z
" clip-path="url(#p7f1bd0cda4)" style="fill: #2b5aa5; opacity: 0.5"/>
   </g>
   <g id="patch_9">
    <path d="M 496.426408 224.64 
L 537.93054 224.64 
L 537.93054 167.166681 
L 496.426408 167.166681 
z
" clip-path="url(#p7f1bd0cda4)" style="fill: #2b5aa5; opacity: 0.5"/>
   </g>
   <g id="patch_10">
    <path d="M 91.761118 224.64 
L 112.513184 224.64 
L 112.513184 89.711653 
L 91.761118 89.711653 
z
" clip-path="url(#p7f1bd0cda4)" style="fill: #2b5aa5"/>
   </g>
   <g id="patch_11">
    <path d="M 195.521449 224.64 
L 216.273515 224.64 
L 216.273515 94.812472 
L 195.521449 94.812472 
z
" clip-path="url(#p7f1bd0cda4)" style="fill: #2b5aa5"/>
   </g>
   <g id="patch_12">
    <path d="M 299.281779 224.64 
L 320.033846 224.64 
L 320.033846 66.903281 
L 299.281779 66.903281 
z
" clip-path="url(#p7f1bd0cda4)" style="fill: #2b5aa5"/>
   </g>
   <g id="patch_13">
    <path d="M 403.04211 224.64 
L 423.794176 224.64 
L 423.794176 180.858378 
L 403.04211 180.858378 
z
" clip-path="url(#p7f1bd0cda4)" style="fill: #2b5aa5"/>
   </g>
   <g id="patch_14">
    <path d="M 506.802441 224.64 
L 527.554507 224.64 
L 527.554507 198.875211 
L 506.802441 198.875211 
z
" clip-path="url(#p7f1bd0cda4)" style="fill: #2b5aa5"/>
   </g>
   <g id="legend_1">
    <g id="patch_15">
     <path d="M 163.159375 257.048312 
L 183.159375 257.048312 
L 183.159375 250.048312 
L 163.159375 250.048312 
z
" style="fill: #2b5aa5; opacity: 0.5"/>
    </g>
    <g id="text_13">
     <!-- Transactional accounts -->
     <g transform="translate(191.159375 257.048312)scale(0.1 -0.1)">
      <defs>
       <path id="Roboto-Regular-54" d="M 3672 4056 
L 2209 4056 
L 2209 0 
L 1613 0 
L 1613 4056 
L 153 4056 
L 153 4550 
L 3672 4550 
L 3672 4056 
z
" transform="scale(0.015625)"/>
       <path id="Roboto-Regular-6c" d="M 1066 0 
L 488 0 
L 488 4800 
L 1066 4800 
L 1066 0 
z
" transform="scale(0.015625)"/>
      </defs>
      <use xlink:href="#Roboto-Regular-54"/>
      <use xlink:href="#Roboto-Regular-72" x="59.667969"/>
      <use xlink:href="#Roboto-Regular-61" x="93.505859"/>
      <use xlink:href="#Roboto-Regular-6e" x="147.900391"/>
      <use xlink:href="#Roboto-Regular-73" x="203.076172"/>
      <use xlink:href="#Roboto-Regular-61" x="254.638672"/>
      <use xlink:href="#Roboto-Regular-63" x="309.033203"/>
      <use xlink:href="#Roboto-Regular-74" x="361.376953"/>
      <use xlink:href="#Roboto-Regular-69" x="394.042969"/>
      <use xlink:href="#Roboto-Regular-6f" x="418.310547"/>
      <use xlink:href="#Roboto-Regular-6e" x="475.341797"/>
      <use xlink:href="#Roboto-Regular-61" x="530.517578"/>
      <use xlink:href="#Roboto-Regular-6c" x="584.912109"/>
      <use xlink:href="#Roboto-Regular-20" x="609.179688"/>
      <use xlink:href="#Roboto-Regular-61" x="633.935547"/>
      <use xlink:href="#Roboto-Regular-63" x="688.330078"/>
      <use xlink:href="#Roboto-Regular-63" x="740.673828"/>
      <use xlink:href="#Roboto-Regular-6f" x="793.017578"/>
      <use xlink:href="#Roboto-Regular-75" x="850.048828"/>
      <use xlink:href="#Roboto-Regular-6e" x="905.175781"/>
      <use xlink:href="#Roboto-Regular-74" x="960.351562"/>
      <use xlink:href="#Roboto-Regular-73" x="993.017578"/>
     </g>
    </g>
    <g id="patch_16">
     <path d="M 315.615625 257.048312 
L 335.615625 257.048312 
L 335.615625 250.048312 
L 315.615625 250.048312 
z
" style="fill: #2b5aa5"/>
    </g>
    <g id="text_14">
     <!-- Mobile banking contracts -->
     <g transform="translate(343.615625 257.048312)scale(0.1 -0.1)">
      <defs>
       <path id="Roboto-Regular-62" d="M 3300 1653 
Q 3300 878 2944 407 
Q 2588 -63 1988 -63 
Q 1347 -63 997 391 
L 969 0 
L 438 0 
L 438 4800 
L 1016 4800 
L 1016 3009 
Q 1366 3444 1981 3444 
Q 2597 3444 2948 2978 
Q 3300 2513 3300 1703 
L 3300 1653 
z
M 2722 1719 
Q 2722 2309 2494 2631 
Q 2266 2953 1838 2953 
Q 1266 2953 1016 2422 
L 1016 959 
Q 1281 428 1844 428 
Q 2259 428 2490 750 
Q 2722 1072 2722 1719 
z
" transform="scale(0.015625)"/>
       <path id="Roboto-Regular-6b" d="M 1381 1566 
L 1019 1188 
L 1019 0 
L 441 0 
L 441 4800 
L 1019 4800 
L 1019 1897 
L 1328 2269 
L 2381 3381 
L 3084 3381 
L 1769 1969 
L 3238 0 
L 2559 0 
L 1381 1566 
z
" transform="scale(0.015625)"/>
       <path id="Roboto-Regular-67" d="M 300 1719 
Q 300 2509 665 2976 
Q 1031 3444 1634 3444 
Q 2253 3444 2600 3006 
L 2628 3381 
L 3156 3381 
L 3156 81 
Q 3156 -575 2767 -953 
Q 2378 -1331 1722 -1331 
Q 1356 -1331 1006 -1175 
Q 656 -1019 472 -747 
L 772 -400 
Q 1144 -859 1681 -859 
Q 2103 -859 2339 -621 
Q 2575 -384 2575 47 
L 2575 338 
Q 2228 -63 1628 -63 
Q 1034 -63 667 415 
Q 300 894 300 1719 
z
M 881 1653 
Q 881 1081 1115 754 
Q 1350 428 1772 428 
Q 2319 428 2575 925 
L 2575 2469 
Q 2309 2953 1778 2953 
Q 1356 2953 1118 2625 
Q 881 2297 881 1653 
z
" transform="scale(0.015625)"/>
      </defs>
      <use xlink:href="#Roboto-Regular-4d"/>
      <use xlink:href="#Roboto-Regular-6f" x="87.304688"/>
      <use xlink:href="#Roboto-Regular-62" x="144.335938"/>
      <use xlink:href="#Roboto-Regular-69" x="200.439453"/>
      <use xlink:href="#Roboto-Regular-6c" x="224.707031"/>
      <use xlink:href="#Roboto-Regular-65" x="248.974609"/>
      <use xlink:href="#Roboto-Regular-20" x="301.953125"/>
      <use xlink:href="#Roboto-Regular-62" x="326.708984"/>
      <use xlink:href="#Roboto-Regular-61" x="382.8125"/>
      <use xlink:href="#Roboto-Regular-6e" x="437.207031"/>
      <use xlink:href="#Roboto-Regular-6b" x="492.382812"/>
      <use xlink:href="#Roboto-Regular-69" x="543.066406"/>
      <use xlink:href="#Roboto-Regular-6e" x="567.333984"/>
      <use xlink:href="#Roboto-Regular-67" x="622.509766"/>
      <use xlink:href="#Roboto-Regular-20" x="678.613281"/>
      <use xlink:href="#Roboto-Regular-63" x="703.369141"/>
      <use xlink:href="#Roboto-Regular-6f" x="755.712891"/>
      <use xlink:href="#Roboto-Regular-6e" x="812.744141"/>
      <use xlink:href="#Roboto-Regular-74" x="867.919922"/>
      <use xlink:href="#Roboto-Regular-72" x="900.585938"/>
      <use xlink:href="#Roboto-Regular-61" x="934.423828"/>
      <use xlink:href="#Roboto-Regular-63" x="988.818359"/>
      <use xlink:href="#Roboto-Regular-74" x="1041.162109"/>
      <use xlink:href="#Roboto-Regular-73" x="1073.828125"/>
     </g>
    </g>
   </g>
  </g>
 </g>
 <defs>
  <clipPath id="p7f1bd0cda4">
   <rect x="58.557813" y="7.2" width="502.2" height="217.44"/>
  </clipPath>
 </defs>
</svg>
