<?xml version="1.0" encoding="utf-8" standalone="no"?>
<!DOCTYPE svg PUBLIC "-//W3C//DTD SVG 1.1//EN"
  "http://www.w3.org/Graphics/SVG/1.1/DTD/svg11.dtd">
<svg xmlns:xlink="http://www.w3.org/1999/xlink" width="622.49375pt" height="270.328pt" viewBox="0 0 622.49375 270.328" xmlns="http://www.w3.org/2000/svg" version="1.1">
 <metadata>
  <rdf:RDF xmlns:dc="http://purl.org/dc/elements/1.1/" xmlns:cc="http://creativecommons.org/ns#" xmlns:rdf="http://www.w3.org/1999/02/22-rdf-syntax-ns#">
   <cc:Work>
    <dc:type rdf:resource="http://purl.org/dc/dcmitype/StillImage"/>
    <dc:date>2022-01-12T12:34:06.217998</dc:date>
    <dc:format>image/svg+xml</dc:format>
    <dc:creator>
     <cc:Agent>
      <dc:title>Matplotlib v3.5.1, https://matplotlib.org/</dc:title>
     </cc:Agent>
    </dc:creator>
   </cc:Work>
  </rdf:RDF>
 </metadata>
 <defs>
  <style type="text/css">*{stroke-linejoin: round; stroke-linecap: butt}</style>
 </defs>
 <g id="figure_1">
  <g id="patch_1">
   <path d="M 0 270.328 
L 622.49375 270.328 
L 622.49375 0 
L 0 0 
z
" style="fill: #ffffff"/>
  </g>
  <g id="axes_1">
   <g id="patch_2">
    <path d="M 57.29375 224.64 
L 615.29375 224.64 
L 615.29375 7.2 
L 57.29375 7.2 
z
" style="fill: #ffffff"/>
   </g>
   <g id="matplotlib.axis_1">
    <g id="xtick_1">
     <g id="line2d_1">
      <path d="M 84.818961 224.64 
L 84.818961 7.2 
" clip-path="url(#pffc984b4eb)" style="fill: none; stroke-dasharray: 2.96,1.28; stroke-dashoffset: 0; stroke: #dddddd; stroke-width: 0.8"/>
     </g>
     <g id="line2d_2">
      <defs>
       <path id="m072be5c171" d="M 0 0 
L 0 3.5 
" style="stroke: #000000; stroke-width: 0.8"/>
      </defs>
      <g>
       <use xlink:href="#m072be5c171" x="84.818961" y="224.64" style="stroke: #000000; stroke-width: 0.8"/>
      </g>
     </g>
     <g id="text_1">
      <!-- 2002 -->
      <g transform="translate(73.587711 239.14)scale(0.1 -0.1)">
       <defs>
        <path id="Roboto-Regular-32" d="M 3359 0 
L 378 0 
L 378 416 
L 1953 2166 
Q 2303 2563 2436 2811 
Q 2569 3059 2569 3325 
Q 2569 3681 2353 3909 
Q 2138 4138 1778 4138 
Q 1347 4138 1108 3892 
Q 869 3647 869 3209 
L 291 3209 
Q 291 3838 695 4225 
Q 1100 4613 1778 4613 
Q 2413 4613 2781 4280 
Q 3150 3947 3150 3394 
Q 3150 2722 2294 1794 
L 1075 472 
L 3359 472 
L 3359 0 
z
" transform="scale(0.015625)"/>
        <path id="Roboto-Regular-30" d="M 3231 1941 
Q 3231 925 2884 431 
Q 2538 -63 1800 -63 
Q 1072 -63 722 420 
Q 372 903 359 1863 
L 359 2634 
Q 359 3638 706 4125 
Q 1053 4613 1794 4613 
Q 2528 4613 2875 4142 
Q 3222 3672 3231 2691 
L 3231 1941 
z
M 2653 2731 
Q 2653 3466 2447 3802 
Q 2241 4138 1794 4138 
Q 1350 4138 1147 3803 
Q 944 3469 938 2775 
L 938 1850 
Q 938 1113 1152 761 
Q 1366 409 1800 409 
Q 2228 409 2436 740 
Q 2644 1072 2653 1784 
L 2653 2731 
z
" transform="scale(0.015625)"/>
       </defs>
       <use xlink:href="#Roboto-Regular-32"/>
       <use xlink:href="#Roboto-Regular-30" x="56.152344"/>
       <use xlink:href="#Roboto-Regular-30" x="112.304688"/>
       <use xlink:href="#Roboto-Regular-32" x="168.457031"/>
      </g>
     </g>
    </g>
    <g id="xtick_2">
     <g id="line2d_3">
      <path d="M 135.720554 224.64 
L 135.720554 7.2 
" clip-path="url(#pffc984b4eb)" style="fill: none; stroke-dasharray: 2.96,1.28; stroke-dashoffset: 0; stroke: #dddddd; stroke-width: 0.8"/>
     </g>
     <g id="line2d_4">
      <g>
       <use xlink:href="#m072be5c171" x="135.720554" y="224.64" style="stroke: #000000; stroke-width: 0.8"/>
      </g>
     </g>
     <g id="text_2">
      <!-- 2004 -->
      <g transform="translate(124.489304 239.14)scale(0.1 -0.1)">
       <defs>
        <path id="Roboto-Regular-34" d="M 2819 1528 
L 3450 1528 
L 3450 1056 
L 2819 1056 
L 2819 0 
L 2238 0 
L 2238 1056 
L 166 1056 
L 166 1397 
L 2203 4550 
L 2819 4550 
L 2819 1528 
z
M 822 1528 
L 2238 1528 
L 2238 3759 
L 2169 3634 
L 822 1528 
z
" transform="scale(0.015625)"/>
       </defs>
       <use xlink:href="#Roboto-Regular-32"/>
       <use xlink:href="#Roboto-Regular-30" x="56.152344"/>
       <use xlink:href="#Roboto-Regular-30" x="112.304688"/>
       <use xlink:href="#Roboto-Regular-34" x="168.457031"/>
      </g>
     </g>
    </g>
    <g id="xtick_3">
     <g id="line2d_5">
      <path d="M 186.691876 224.64 
L 186.691876 7.2 
" clip-path="url(#pffc984b4eb)" style="fill: none; stroke-dasharray: 2.96,1.28; stroke-dashoffset: 0; stroke: #dddddd; stroke-width: 0.8"/>
     </g>
     <g id="line2d_6">
      <g>
       <use xlink:href="#m072be5c171" x="186.691876" y="224.64" style="stroke: #000000; stroke-width: 0.8"/>
      </g>
     </g>
     <g id="text_3">
      <!-- 2006 -->
      <g transform="translate(175.460626 239.14)scale(0.1 -0.1)">
       <defs>
        <path id="Roboto-Regular-36" d="M 2647 4553 
L 2647 4063 
L 2541 4063 
Q 1866 4050 1466 3662 
Q 1066 3275 1003 2572 
Q 1363 2984 1984 2984 
Q 2578 2984 2933 2565 
Q 3288 2147 3288 1484 
Q 3288 781 2905 359 
Q 2522 -63 1878 -63 
Q 1225 -63 819 439 
Q 413 941 413 1731 
L 413 1953 
Q 413 3209 948 3873 
Q 1484 4538 2544 4553 
L 2647 4553 
z
M 1888 2503 
Q 1591 2503 1341 2325 
Q 1091 2147 994 1878 
L 994 1666 
Q 994 1103 1247 759 
Q 1500 416 1878 416 
Q 2269 416 2492 703 
Q 2716 991 2716 1456 
Q 2716 1925 2489 2214 
Q 2263 2503 1888 2503 
z
" transform="scale(0.015625)"/>
       </defs>
       <use xlink:href="#Roboto-Regular-32"/>
       <use xlink:href="#Roboto-Regular-30" x="56.152344"/>
       <use xlink:href="#Roboto-Regular-30" x="112.304688"/>
       <use xlink:href="#Roboto-Regular-36" x="168.457031"/>
      </g>
     </g>
    </g>
    <g id="xtick_4">
     <g id="line2d_7">
      <path d="M 237.593469 224.64 
L 237.593469 7.2 
" clip-path="url(#pffc984b4eb)" style="fill: none; stroke-dasharray: 2.96,1.28; stroke-dashoffset: 0; stroke: #dddddd; stroke-width: 0.8"/>
     </g>
     <g id="line2d_8">
      <g>
       <use xlink:href="#m072be5c171" x="237.593469" y="224.64" style="stroke: #000000; stroke-width: 0.8"/>
      </g>
     </g>
     <g id="text_4">
      <!-- 2008 -->
      <g transform="translate(226.362219 239.14)scale(0.1 -0.1)">
       <defs>
        <path id="Roboto-Regular-38" d="M 3138 3363 
Q 3138 3022 2958 2756 
Q 2778 2491 2472 2341 
Q 2828 2188 3036 1894 
Q 3244 1600 3244 1228 
Q 3244 638 2845 287 
Q 2447 -63 1797 -63 
Q 1141 -63 745 289 
Q 350 641 350 1228 
Q 350 1597 551 1894 
Q 753 2191 1109 2344 
Q 806 2494 631 2759 
Q 456 3025 456 3363 
Q 456 3938 825 4275 
Q 1194 4613 1797 4613 
Q 2397 4613 2767 4275 
Q 3138 3938 3138 3363 
z
M 2666 1241 
Q 2666 1622 2423 1862 
Q 2181 2103 1790 2103 
Q 1400 2103 1164 1865 
Q 928 1628 928 1240 
Q 928 853 1158 631 
Q 1388 409 1797 409 
Q 2203 409 2434 632 
Q 2666 856 2666 1241 
z
M 1797 4138 
Q 1456 4138 1245 3927 
Q 1034 3716 1034 3353 
Q 1034 3006 1242 2792 
Q 1450 2578 1797 2578 
Q 2144 2578 2351 2792 
Q 2559 3006 2559 3353 
Q 2559 3700 2343 3919 
Q 2128 4138 1797 4138 
z
" transform="scale(0.015625)"/>
       </defs>
       <use xlink:href="#Roboto-Regular-32"/>
       <use xlink:href="#Roboto-Regular-30" x="56.152344"/>
       <use xlink:href="#Roboto-Regular-30" x="112.304688"/>
       <use xlink:href="#Roboto-Regular-38" x="168.457031"/>
      </g>
     </g>
    </g>
    <g id="xtick_5">
     <g id="line2d_9">
      <path d="M 288.56479 224.64 
L 288.56479 7.2 
" clip-path="url(#pffc984b4eb)" style="fill: none; stroke-dasharray: 2.96,1.28; stroke-dashoffset: 0; stroke: #dddddd; stroke-width: 0.8"/>
     </g>
     <g id="line2d_10">
      <g>
       <use xlink:href="#m072be5c171" x="288.56479" y="224.64" style="stroke: #000000; stroke-width: 0.8"/>
      </g>
     </g>
     <g id="text_5">
      <!-- 2010 -->
      <g transform="translate(277.33354 239.14)scale(0.1 -0.1)">
       <defs>
        <path id="Roboto-Regular-31" d="M 2278 0 
L 1697 0 
L 1697 3853 
L 531 3425 
L 531 3950 
L 2188 4572 
L 2278 4572 
L 2278 0 
z
" transform="scale(0.015625)"/>
       </defs>
       <use xlink:href="#Roboto-Regular-32"/>
       <use xlink:href="#Roboto-Regular-30" x="56.152344"/>
       <use xlink:href="#Roboto-Regular-31" x="112.304688"/>
       <use xlink:href="#Roboto-Regular-30" x="168.457031"/>
      </g>
     </g>
    </g>
    <g id="xtick_6">
     <g id="line2d_11">
      <path d="M 339.466384 224.64 
L 339.466384 7.2 
" clip-path="url(#pffc984b4eb)" style="fill: none; stroke-dasharray: 2.96,1.28; stroke-dashoffset: 0; stroke: #dddddd; stroke-width: 0.8"/>
     </g>
     <g id="line2d_12">
      <g>
       <use xlink:href="#m072be5c171" x="339.466384" y="224.64" style="stroke: #000000; stroke-width: 0.8"/>
      </g>
     </g>
     <g id="text_6">
      <!-- 2012 -->
      <g transform="translate(328.235134 239.14)scale(0.1 -0.1)">
       <use xlink:href="#Roboto-Regular-32"/>
       <use xlink:href="#Roboto-Regular-30" x="56.152344"/>
       <use xlink:href="#Roboto-Regular-31" x="112.304688"/>
       <use xlink:href="#Roboto-Regular-32" x="168.457031"/>
      </g>
     </g>
    </g>
    <g id="xtick_7">
     <g id="line2d_13">
      <path d="M 390.437705 224.64 
L 390.437705 7.2 
" clip-path="url(#pffc984b4eb)" style="fill: none; stroke-dasharray: 2.96,1.28; stroke-dashoffset: 0; stroke: #dddddd; stroke-width: 0.8"/>
     </g>
     <g id="line2d_14">
      <g>
       <use xlink:href="#m072be5c171" x="390.437705" y="224.64" style="stroke: #000000; stroke-width: 0.8"/>
      </g>
     </g>
     <g id="text_7">
      <!-- 2014 -->
      <g transform="translate(379.206455 239.14)scale(0.1 -0.1)">
       <use xlink:href="#Roboto-Regular-32"/>
       <use xlink:href="#Roboto-Regular-30" x="56.152344"/>
       <use xlink:href="#Roboto-Regular-31" x="112.304688"/>
       <use xlink:href="#Roboto-Regular-34" x="168.457031"/>
      </g>
     </g>
    </g>
    <g id="xtick_8">
     <g id="line2d_15">
      <path d="M 441.339298 224.64 
L 441.339298 7.2 
" clip-path="url(#pffc984b4eb)" style="fill: none; stroke-dasharray: 2.96,1.28; stroke-dashoffset: 0; stroke: #dddddd; stroke-width: 0.8"/>
     </g>
     <g id="line2d_16">
      <g>
       <use xlink:href="#m072be5c171" x="441.339298" y="224.64" style="stroke: #000000; stroke-width: 0.8"/>
      </g>
     </g>
     <g id="text_8">
      <!-- 2016 -->
      <g transform="translate(430.108048 239.14)scale(0.1 -0.1)">
       <use xlink:href="#Roboto-Regular-32"/>
       <use xlink:href="#Roboto-Regular-30" x="56.152344"/>
       <use xlink:href="#Roboto-Regular-31" x="112.304688"/>
       <use xlink:href="#Roboto-Regular-36" x="168.457031"/>
      </g>
     </g>
    </g>
    <g id="xtick_9">
     <g id="line2d_17">
      <path d="M 492.31062 224.64 
L 492.31062 7.2 
" clip-path="url(#pffc984b4eb)" style="fill: none; stroke-dasharray: 2.96,1.28; stroke-dashoffset: 0; stroke: #dddddd; stroke-width: 0.8"/>
     </g>
     <g id="line2d_18">
      <g>
       <use xlink:href="#m072be5c171" x="492.31062" y="224.64" style="stroke: #000000; stroke-width: 0.8"/>
      </g>
     </g>
     <g id="text_9">
      <!-- 2018 -->
      <g transform="translate(481.07937 239.14)scale(0.1 -0.1)">
       <use xlink:href="#Roboto-Regular-32"/>
       <use xlink:href="#Roboto-Regular-30" x="56.152344"/>
       <use xlink:href="#Roboto-Regular-31" x="112.304688"/>
       <use xlink:href="#Roboto-Regular-38" x="168.457031"/>
      </g>
     </g>
    </g>
    <g id="xtick_10">
     <g id="line2d_19">
      <path d="M 543.212213 224.64 
L 543.212213 7.2 
" clip-path="url(#pffc984b4eb)" style="fill: none; stroke-dasharray: 2.96,1.28; stroke-dashoffset: 0; stroke: #dddddd; stroke-width: 0.8"/>
     </g>
     <g id="line2d_20">
      <g>
       <use xlink:href="#m072be5c171" x="543.212213" y="224.64" style="stroke: #000000; stroke-width: 0.8"/>
      </g>
     </g>
     <g id="text_10">
      <!-- 2020 -->
      <g transform="translate(531.980963 239.14)scale(0.1 -0.1)">
       <use xlink:href="#Roboto-Regular-32"/>
       <use xlink:href="#Roboto-Regular-30" x="56.152344"/>
       <use xlink:href="#Roboto-Regular-32" x="112.304688"/>
       <use xlink:href="#Roboto-Regular-30" x="168.457031"/>
      </g>
     </g>
    </g>
    <g id="xtick_11">
     <g id="line2d_21">
      <path d="M 594.183534 224.64 
L 594.183534 7.2 
" clip-path="url(#pffc984b4eb)" style="fill: none; stroke-dasharray: 2.96,1.28; stroke-dashoffset: 0; stroke: #dddddd; stroke-width: 0.8"/>
     </g>
     <g id="line2d_22">
      <g>
       <use xlink:href="#m072be5c171" x="594.183534" y="224.64" style="stroke: #000000; stroke-width: 0.8"/>
      </g>
     </g>
     <g id="text_11">
      <!-- 2022 -->
      <g transform="translate(582.952284 239.14)scale(0.1 -0.1)">
       <use xlink:href="#Roboto-Regular-32"/>
       <use xlink:href="#Roboto-Regular-30" x="56.152344"/>
       <use xlink:href="#Roboto-Regular-32" x="112.304688"/>
       <use xlink:href="#Roboto-Regular-32" x="168.457031"/>
      </g>
     </g>
    </g>
   </g>
   <g id="matplotlib.axis_2">
    <g id="ytick_1">
     <g id="line2d_23">
      <path d="M 57.29375 211.134667 
L 615.29375 211.134667 
" clip-path="url(#pffc984b4eb)" style="fill: none; stroke-dasharray: 2.96,1.28; stroke-dashoffset: 0; stroke: #dddddd; stroke-width: 0.8"/>
     </g>
     <g id="line2d_24">
      <defs>
       <path id="mcdfa67ace5" d="M 0 0 
L -3.5 0 
" style="stroke: #000000; stroke-width: 0.8"/>
      </defs>
      <g>
       <use xlink:href="#mcdfa67ace5" x="57.29375" y="211.134667" style="stroke: #000000; stroke-width: 0.8"/>
      </g>
     </g>
     <g id="text_12">
      <!-- -10.0% -->
      <g transform="translate(20.73125 214.884667)scale(0.1 -0.1)">
       <defs>
        <path id="Roboto-Regular-2d" d="M 1641 1697 
L 116 1697 
L 116 2169 
L 1641 2169 
L 1641 1697 
z
" transform="scale(0.015625)"/>
        <path id="Roboto-Regular-2e" d="M 450 303 
Q 450 453 539 553 
Q 628 653 806 653 
Q 984 653 1076 553 
Q 1169 453 1169 303 
Q 1169 159 1076 62 
Q 984 -34 806 -34 
Q 628 -34 539 62 
Q 450 159 450 303 
z
" transform="scale(0.015625)"/>
        <path id="Roboto-Regular-25" d="M 328 3675 
Q 328 4084 589 4350 
Q 850 4616 1259 4616 
Q 1675 4616 1933 4348 
Q 2191 4081 2191 3656 
L 2191 3434 
Q 2191 3022 1930 2761 
Q 1669 2500 1266 2500 
Q 859 2500 593 2761 
Q 328 3022 328 3456 
L 328 3675 
z
M 759 3434 
Q 759 3191 896 3033 
Q 1034 2875 1266 2875 
Q 1488 2875 1623 3028 
Q 1759 3181 1759 3447 
L 1759 3675 
Q 1759 3919 1625 4078 
Q 1491 4238 1259 4238 
Q 1028 4238 893 4078 
Q 759 3919 759 3663 
L 759 3434 
z
M 2544 1116 
Q 2544 1525 2805 1789 
Q 3066 2053 3475 2053 
Q 3884 2053 4146 1790 
Q 4409 1528 4409 1094 
L 4409 872 
Q 4409 463 4148 198 
Q 3888 -66 3481 -66 
Q 3075 -66 2809 195 
Q 2544 456 2544 891 
L 2544 1116 
z
M 2975 872 
Q 2975 625 3112 467 
Q 3250 309 3481 309 
Q 3706 309 3840 464 
Q 3975 619 3975 884 
L 3975 1116 
Q 3975 1363 3839 1519 
Q 3703 1675 3475 1675 
Q 3253 1675 3114 1520 
Q 2975 1366 2975 1103 
L 2975 872 
z
M 1397 344 
L 1069 550 
L 3291 4106 
L 3619 3900 
L 1397 344 
z
" transform="scale(0.015625)"/>
       </defs>
       <use xlink:href="#Roboto-Regular-2d"/>
       <use xlink:href="#Roboto-Regular-31" x="27.587891"/>
       <use xlink:href="#Roboto-Regular-30" x="83.740234"/>
       <use xlink:href="#Roboto-Regular-2e" x="139.892578"/>
       <use xlink:href="#Roboto-Regular-30" x="166.210938"/>
       <use xlink:href="#Roboto-Regular-25" x="222.363281"/>
      </g>
     </g>
    </g>
    <g id="ytick_2">
     <g id="line2d_25">
      <path d="M 57.29375 180.703766 
L 615.29375 180.703766 
" clip-path="url(#pffc984b4eb)" style="fill: none; stroke-dasharray: 2.96,1.28; stroke-dashoffset: 0; stroke: #dddddd; stroke-width: 0.8"/>
     </g>
     <g id="line2d_26">
      <g>
       <use xlink:href="#mcdfa67ace5" x="57.29375" y="180.703766" style="stroke: #000000; stroke-width: 0.8"/>
      </g>
     </g>
     <g id="text_13">
      <!-- 0.0% -->
      <g transform="translate(29.10625 184.453766)scale(0.1 -0.1)">
       <use xlink:href="#Roboto-Regular-30"/>
       <use xlink:href="#Roboto-Regular-2e" x="56.152344"/>
       <use xlink:href="#Roboto-Regular-30" x="82.470703"/>
       <use xlink:href="#Roboto-Regular-25" x="138.623047"/>
      </g>
     </g>
    </g>
    <g id="ytick_3">
     <g id="line2d_27">
      <path d="M 57.29375 150.272864 
L 615.29375 150.272864 
" clip-path="url(#pffc984b4eb)" style="fill: none; stroke-dasharray: 2.96,1.28; stroke-dashoffset: 0; stroke: #dddddd; stroke-width: 0.8"/>
     </g>
     <g id="line2d_28">
      <g>
       <use xlink:href="#mcdfa67ace5" x="57.29375" y="150.272864" style="stroke: #000000; stroke-width: 0.8"/>
      </g>
     </g>
     <g id="text_14">
      <!-- 10.0% -->
      <g transform="translate(23.490625 154.022864)scale(0.1 -0.1)">
       <use xlink:href="#Roboto-Regular-31"/>
       <use xlink:href="#Roboto-Regular-30" x="56.152344"/>
       <use xlink:href="#Roboto-Regular-2e" x="112.304688"/>
       <use xlink:href="#Roboto-Regular-30" x="138.623047"/>
       <use xlink:href="#Roboto-Regular-25" x="194.775391"/>
      </g>
     </g>
    </g>
    <g id="ytick_4">
     <g id="line2d_29">
      <path d="M 57.29375 119.841962 
L 615.29375 119.841962 
" clip-path="url(#pffc984b4eb)" style="fill: none; stroke-dasharray: 2.96,1.28; stroke-dashoffset: 0; stroke: #dddddd; stroke-width: 0.8"/>
     </g>
     <g id="line2d_30">
      <g>
       <use xlink:href="#mcdfa67ace5" x="57.29375" y="119.841962" style="stroke: #000000; stroke-width: 0.8"/>
      </g>
     </g>
     <g id="text_15">
      <!-- 20.0% -->
      <g transform="translate(23.490625 123.591962)scale(0.1 -0.1)">
       <use xlink:href="#Roboto-Regular-32"/>
       <use xlink:href="#Roboto-Regular-30" x="56.152344"/>
       <use xlink:href="#Roboto-Regular-2e" x="112.304688"/>
       <use xlink:href="#Roboto-Regular-30" x="138.623047"/>
       <use xlink:href="#Roboto-Regular-25" x="194.775391"/>
      </g>
     </g>
    </g>
    <g id="ytick_5">
     <g id="line2d_31">
      <path d="M 57.29375 89.411061 
L 615.29375 89.411061 
" clip-path="url(#pffc984b4eb)" style="fill: none; stroke-dasharray: 2.96,1.28; stroke-dashoffset: 0; stroke: #dddddd; stroke-width: 0.8"/>
     </g>
     <g id="line2d_32">
      <g>
       <use xlink:href="#mcdfa67ace5" x="57.29375" y="89.411061" style="stroke: #000000; stroke-width: 0.8"/>
      </g>
     </g>
     <g id="text_16">
      <!-- 30.0% -->
      <g transform="translate(23.490625 93.161061)scale(0.1 -0.1)">
       <defs>
        <path id="Roboto-Regular-33" d="M 1219 2556 
L 1653 2556 
Q 2063 2563 2297 2772 
Q 2531 2981 2531 3338 
Q 2531 4138 1734 4138 
Q 1359 4138 1136 3923 
Q 913 3709 913 3356 
L 334 3356 
Q 334 3897 729 4255 
Q 1125 4613 1734 4613 
Q 2378 4613 2743 4272 
Q 3109 3931 3109 3325 
Q 3109 3028 2917 2750 
Q 2725 2472 2394 2334 
Q 2769 2216 2973 1941 
Q 3178 1666 3178 1269 
Q 3178 656 2778 296 
Q 2378 -63 1737 -63 
Q 1097 -63 695 284 
Q 294 631 294 1200 
L 875 1200 
Q 875 841 1109 625 
Q 1344 409 1738 409 
Q 2156 409 2378 628 
Q 2600 847 2600 1256 
Q 2600 1653 2356 1865 
Q 2113 2078 1653 2084 
L 1219 2084 
L 1219 2556 
z
" transform="scale(0.015625)"/>
       </defs>
       <use xlink:href="#Roboto-Regular-33"/>
       <use xlink:href="#Roboto-Regular-30" x="56.152344"/>
       <use xlink:href="#Roboto-Regular-2e" x="112.304688"/>
       <use xlink:href="#Roboto-Regular-30" x="138.623047"/>
       <use xlink:href="#Roboto-Regular-25" x="194.775391"/>
      </g>
     </g>
    </g>
    <g id="ytick_6">
     <g id="line2d_33">
      <path d="M 57.29375 58.980159 
L 615.29375 58.980159 
" clip-path="url(#pffc984b4eb)" style="fill: none; stroke-dasharray: 2.96,1.28; stroke-dashoffset: 0; stroke: #dddddd; stroke-width: 0.8"/>
     </g>
     <g id="line2d_34">
      <g>
       <use xlink:href="#mcdfa67ace5" x="57.29375" y="58.980159" style="stroke: #000000; stroke-width: 0.8"/>
      </g>
     </g>
     <g id="text_17">
      <!-- 40.0% -->
      <g transform="translate(23.490625 62.730159)scale(0.1 -0.1)">
       <use xlink:href="#Roboto-Regular-34"/>
       <use xlink:href="#Roboto-Regular-30" x="56.152344"/>
       <use xlink:href="#Roboto-Regular-2e" x="112.304688"/>
       <use xlink:href="#Roboto-Regular-30" x="138.623047"/>
       <use xlink:href="#Roboto-Regular-25" x="194.775391"/>
      </g>
     </g>
    </g>
    <g id="ytick_7">
     <g id="line2d_35">
      <path d="M 57.29375 28.549258 
L 615.29375 28.549258 
" clip-path="url(#pffc984b4eb)" style="fill: none; stroke-dasharray: 2.96,1.28; stroke-dashoffset: 0; stroke: #dddddd; stroke-width: 0.8"/>
     </g>
     <g id="line2d_36">
      <g>
       <use xlink:href="#mcdfa67ace5" x="57.29375" y="28.549258" style="stroke: #000000; stroke-width: 0.8"/>
      </g>
     </g>
     <g id="text_18">
      <!-- 50.0% -->
      <g transform="translate(23.490625 32.299258)scale(0.1 -0.1)">
       <defs>
        <path id="Roboto-Regular-35" d="M 644 2281 
L 875 4550 
L 3206 4550 
L 3206 4016 
L 1366 4016 
L 1228 2775 
Q 1563 2972 1988 2972 
Q 2609 2972 2975 2561 
Q 3341 2150 3341 1450 
Q 3341 747 2961 342 
Q 2581 -63 1900 -63 
Q 1297 -63 915 271 
Q 534 606 481 1197 
L 1028 1197 
Q 1081 806 1306 607 
Q 1531 409 1900 409 
Q 2303 409 2533 684 
Q 2763 959 2763 1444 
Q 2763 1900 2514 2176 
Q 2266 2453 1853 2453 
Q 1475 2453 1259 2288 
L 1106 2163 
L 644 2281 
z
" transform="scale(0.015625)"/>
       </defs>
       <use xlink:href="#Roboto-Regular-35"/>
       <use xlink:href="#Roboto-Regular-30" x="56.152344"/>
       <use xlink:href="#Roboto-Regular-2e" x="112.304688"/>
       <use xlink:href="#Roboto-Regular-30" x="138.623047"/>
       <use xlink:href="#Roboto-Regular-25" x="194.775391"/>
      </g>
     </g>
    </g>
    <g id="text_19">
     <!-- YoY Growth -->
     <g transform="translate(14.7 142.109063)rotate(-90)scale(0.1 -0.1)">
      <defs>
       <path id="Roboto-Regular-59" d="M 1916 2266 
L 3103 4550 
L 3784 4550 
L 2216 1697 
L 2216 0 
L 1616 0 
L 1616 1697 
L 47 4550 
L 734 4550 
L 1916 2266 
z
" transform="scale(0.015625)"/>
       <path id="Roboto-Regular-6f" d="M 284 1722 
Q 284 2219 479 2616 
Q 675 3013 1023 3228 
Q 1372 3444 1819 3444 
Q 2509 3444 2936 2966 
Q 3363 2488 3363 1694 
L 3363 1653 
Q 3363 1159 3173 767 
Q 2984 375 2632 156 
Q 2281 -63 1825 -63 
Q 1138 -63 711 415 
Q 284 894 284 1681 
L 284 1722 
z
M 866 1653 
Q 866 1091 1127 750 
Q 1388 409 1825 409 
Q 2266 409 2525 754 
Q 2784 1100 2784 1722 
Q 2784 2278 2520 2623 
Q 2256 2969 1819 2969 
Q 1391 2969 1128 2628 
Q 866 2288 866 1653 
z
" transform="scale(0.015625)"/>
       <path id="Roboto-Regular-20" transform="scale(0.015625)"/>
       <path id="Roboto-Regular-47" d="M 3888 597 
Q 3656 266 3242 101 
Q 2828 -63 2278 -63 
Q 1722 -63 1290 198 
Q 859 459 623 940 
Q 388 1422 381 2056 
L 381 2453 
Q 381 3481 861 4047 
Q 1341 4613 2209 4613 
Q 2922 4613 3356 4248 
Q 3791 3884 3888 3216 
L 3288 3216 
Q 3119 4119 2213 4119 
Q 1609 4119 1298 3695 
Q 988 3272 984 2469 
L 984 2097 
Q 984 1331 1334 879 
Q 1684 428 2281 428 
Q 2619 428 2872 503 
Q 3125 578 3291 756 
L 3291 1778 
L 2238 1778 
L 2238 2266 
L 3888 2266 
L 3888 597 
z
" transform="scale(0.015625)"/>
       <path id="Roboto-Regular-72" d="M 2072 2863 
Q 1941 2884 1788 2884 
Q 1219 2884 1016 2400 
L 1016 0 
L 438 0 
L 438 3381 
L 1000 3381 
L 1009 2991 
Q 1294 3444 1816 3444 
Q 1984 3444 2072 3400 
L 2072 2863 
z
" transform="scale(0.015625)"/>
       <path id="Roboto-Regular-77" d="M 3431 797 
L 4081 3381 
L 4659 3381 
L 3675 0 
L 3206 0 
L 2384 2563 
L 1584 0 
L 1116 0 
L 134 3381 
L 709 3381 
L 1375 850 
L 2163 3381 
L 2628 3381 
L 3431 797 
z
" transform="scale(0.015625)"/>
       <path id="Roboto-Regular-74" d="M 1222 4200 
L 1222 3381 
L 1853 3381 
L 1853 2934 
L 1222 2934 
L 1222 838 
Q 1222 634 1306 532 
Q 1391 431 1594 431 
Q 1694 431 1869 469 
L 1869 0 
Q 1641 -63 1425 -63 
Q 1038 -63 841 171 
Q 644 406 644 838 
L 644 2934 
L 28 2934 
L 28 3381 
L 644 3381 
L 644 4200 
L 1222 4200 
z
" transform="scale(0.015625)"/>
       <path id="Roboto-Regular-68" d="M 1016 2972 
Q 1400 3444 2016 3444 
Q 3088 3444 3097 2234 
L 3097 0 
L 2519 0 
L 2519 2238 
Q 2516 2603 2352 2778 
Q 2188 2953 1841 2953 
Q 1559 2953 1346 2803 
Q 1134 2653 1016 2409 
L 1016 0 
L 438 0 
L 438 4800 
L 1016 4800 
L 1016 2972 
z
" transform="scale(0.015625)"/>
      </defs>
      <use xlink:href="#Roboto-Regular-59"/>
      <use xlink:href="#Roboto-Regular-6f" x="60.058594"/>
      <use xlink:href="#Roboto-Regular-59" x="117.089844"/>
      <use xlink:href="#Roboto-Regular-20" x="177.148438"/>
      <use xlink:href="#Roboto-Regular-47" x="201.904297"/>
      <use xlink:href="#Roboto-Regular-72" x="270.019531"/>
      <use xlink:href="#Roboto-Regular-6f" x="303.857422"/>
      <use xlink:href="#Roboto-Regular-77" x="360.888672"/>
      <use xlink:href="#Roboto-Regular-74" x="436.035156"/>
      <use xlink:href="#Roboto-Regular-68" x="468.701172"/>
     </g>
    </g>
   </g>
   <g id="line2d_37">
    <path d="M 82.657386 203.933936 
L 84.818961 203.669143 
L 86.980535 201.992919 
L 88.932925 201.89807 
L 91.0945 202.532094 
L 93.186346 202.993012 
L 95.347921 201.926378 
L 97.439767 200.124474 
L 99.601341 201.965136 
L 101.762916 204.25671 
L 103.854762 205.318474 
L 106.016337 205.672896 
L 108.108183 205.817073 
L 110.269757 206.081683 
L 112.431332 207.368071 
L 114.383722 207.094754 
L 116.545296 207.523221 
L 118.637143 207.8215 
L 120.798717 209.103748 
L 122.890563 209.668082 
L 125.052138 209.818245 
L 127.213713 209.744481 
L 129.305559 210.171234 
L 131.467133 210.254401 
L 133.55898 210.058948 
L 135.720554 208.716288 
L 137.882129 207.628267 
L 139.904247 205.908334 
L 142.065821 205.776296 
L 144.157668 204.077474 
L 146.319242 201.821459 
L 148.411088 198.926121 
L 150.572663 197.394209 
L 152.734237 197.14861 
L 156.987658 192.131147 
L 159.079504 187.541015 
L 161.241079 184.670744 
L 163.402653 179.483844 
L 165.355043 175.212478 
L 167.516618 163.376537 
L 169.608464 157.168939 
L 171.770039 156.936998 
L 173.861885 155.447914 
L 176.023459 154.353259 
L 178.185034 155.176314 
L 180.27688 156.204993 
L 182.438455 157.590525 
L 184.530301 168.416257 
L 186.691876 169.73937 
L 188.85345 175.238669 
L 192.967414 194.122498 
L 195.059261 200.201076 
L 197.220835 202.861336 
L 199.312682 204.297397 
L 201.474256 204.234592 
L 203.635831 201.981251 
L 205.727677 200.781582 
L 207.889251 200.181941 
L 209.981098 193.71226 
L 212.142672 143.877959 
L 214.304247 141.633632 
L 216.256637 135.14301 
L 218.418211 135.10089 
L 220.510057 131.498326 
L 222.671632 127.284285 
L 224.763478 126.237892 
L 226.925053 125.672143 
L 229.086627 123.860593 
L 231.178474 122.679959 
L 233.340048 122.212843 
L 235.431894 123.058054 
L 237.593469 177.806415 
L 239.755043 179.895568 
L 241.777161 181.644599 
L 243.938736 182.538003 
L 246.030582 186.539723 
L 248.192157 188.86677 
L 250.284003 190.080221 
L 252.445578 184.683575 
L 254.607152 180.722607 
L 258.860573 166.074232 
L 260.952419 153.817493 
L 263.113994 145.627497 
L 265.275568 139.536899 
L 267.227958 129.649536 
L 269.389533 122.045262 
L 271.481379 113.956283 
L 273.642953 99.99134 
L 275.7348 93.831548 
L 277.896374 104.782841 
L 280.057949 98.100408 
L 282.149795 106.753994 
L 284.311369 117.320044 
L 286.403216 97.776401 
L 288.56479 89.871384 
L 290.726365 88.674527 
L 292.678755 91.24226 
L 294.840329 90.728071 
L 296.932175 88.070227 
L 299.09375 92.824715 
L 301.185596 88.506277 
L 303.347171 87.649928 
L 305.508745 102.3498 
L 307.600592 109.338965 
L 309.762166 78.306039 
L 311.854012 120.655298 
L 314.015587 122.080855 
L 316.177161 127.375571 
L 318.129551 126.073725 
L 320.291126 130.247393 
L 322.382972 130.224169 
L 324.544547 132.008711 
L 326.636393 142.595597 
L 328.797967 137.188417 
L 330.959542 130.15283 
L 333.051388 122.8173 
L 335.212963 143.076496 
L 337.304809 130.468503 
L 339.466384 128.713615 
L 341.627958 128.406096 
L 345.811651 131.216307 
L 347.903497 132.55788 
L 350.065071 134.936445 
L 352.156918 126.723957 
L 354.318492 129.697682 
L 356.480067 131.336837 
L 358.571913 134.276911 
L 360.733488 136.913713 
L 362.825334 134.105451 
L 364.986908 135.399862 
L 367.148483 137.828154 
L 369.100873 138.552261 
L 371.262447 137.689835 
L 373.354294 136.253304 
L 375.515868 137.657825 
L 377.607714 137.810441 
L 379.769289 134.701953 
L 381.930863 133.44632 
L 384.02271 145.498017 
L 386.184284 142.327979 
L 388.276131 145.134815 
L 390.437705 146.28741 
L 392.59928 144.569096 
L 394.551669 144.582191 
L 396.713244 146.950137 
L 398.80509 148.330999 
L 400.966665 148.852412 
L 403.058511 166.060505 
L 405.220086 169.410945 
L 407.38166 171.874862 
L 409.473506 162.947727 
L 411.635081 166.980435 
L 413.726927 170.453008 
L 415.888502 171.391313 
L 420.002466 173.862818 
L 424.255887 178.615506 
L 426.417461 180.84445 
L 428.509308 168.729117 
L 430.670882 172.310663 
L 432.832457 172.657935 
L 434.924303 172.674673 
L 437.085877 172.370398 
L 439.177724 173.794437 
L 441.339298 174.158981 
L 443.500873 176.140227 
L 445.522991 178.238746 
L 447.684565 177.030099 
L 449.776412 176.624882 
L 451.937986 177.18137 
L 454.029832 174.627728 
L 456.191407 172.679928 
L 458.352981 172.306431 
L 460.444828 171.790545 
L 462.606402 170.852105 
L 464.698249 170.427582 
L 466.859823 170.461878 
L 469.021398 168.73336 
L 470.973787 166.568931 
L 473.135362 166.213472 
L 475.227208 164.344043 
L 477.388783 162.009996 
L 479.480629 161.865395 
L 481.642204 162.572695 
L 483.803778 164.28477 
L 485.895624 166.787965 
L 488.057199 169.640597 
L 490.149045 172.017265 
L 492.31062 176.059479 
L 494.472194 178.07061 
L 496.424584 180.587111 
L 498.586159 182.389693 
L 500.678005 185.252656 
L 504.931426 188.626465 
L 507.093 189.255343 
L 509.254575 189.144398 
L 511.346421 188.68503 
L 513.507996 187.92263 
L 515.599842 187.384275 
L 519.922991 187.313603 
L 521.875381 186.423689 
L 524.036955 183.196987 
L 526.128802 180.620865 
L 528.290376 177.546685 
L 530.382222 173.139989 
L 532.543797 171.403103 
L 534.705371 170.031814 
L 536.797218 167.340122 
L 538.958792 167.449807 
L 541.050638 166.065264 
L 543.212213 168.69376 
L 545.373787 168.34992 
L 547.395906 169.850726 
L 549.55748 173.011028 
L 551.649326 177.023623 
L 553.810901 183.256653 
L 555.902747 189.799258 
L 558.064322 193.029899 
L 560.225896 197.201256 
L 562.317743 201.551602 
L 566.571163 206.906068 
L 568.732738 208.589248 
L 570.894312 209.857948 
L 572.846702 211.737314 
L 577.100123 214.756364 
L 579.261698 213.778427 
L 581.353544 213.213995 
L 583.515118 213.581114 
L 585.676693 212.348507 
L 587.768539 211.424859 
L 589.930114 210.647356 
L 589.930114 210.647356 
" clip-path="url(#pffc984b4eb)" style="fill: none; stroke: #2b5aa5; stroke-width: 1.5; stroke-linecap: square"/>
   </g>
   <g id="line2d_38">
    <path d="M 82.657386 212.626473 
L 84.818961 214.378855 
L 86.980535 214.543878 
L 88.932925 207.798591 
L 91.0945 207.122143 
L 93.186346 206.336048 
L 95.347921 204.984837 
L 97.439767 201.77091 
L 99.601341 202.986249 
L 101.762916 204.509064 
L 103.854762 204.000873 
L 106.016337 198.985052 
L 108.108183 194.419578 
L 110.269757 193.563953 
L 112.431332 197.016612 
L 114.383722 196.943223 
L 118.637143 196.403778 
L 120.798717 199.542776 
L 122.890563 199.275843 
L 125.052138 197.578012 
L 127.213713 197.346468 
L 129.305559 200.011517 
L 133.55898 201.299064 
L 135.720554 199.633058 
L 137.882129 194.978076 
L 139.904247 193.076965 
L 142.065821 192.93526 
L 144.157668 190.718092 
L 146.319242 182.386314 
L 148.411088 178.608522 
L 150.572663 176.161682 
L 152.734237 172.993774 
L 154.826084 165.617143 
L 156.987658 161.062037 
L 159.079504 157.771855 
L 161.241079 156.461346 
L 163.402653 154.22304 
L 165.355043 150.313482 
L 167.516618 141.404314 
L 169.608464 133.321641 
L 171.770039 131.922257 
L 173.861885 128.322775 
L 176.023459 129.375356 
L 178.185034 117.411511 
L 182.438455 101.545769 
L 184.530301 60.048953 
L 186.691876 47.41066 
L 188.85345 44.381314 
L 190.80584 27.017913 
L 192.967414 21.211066 
L 195.059261 23.592088 
L 197.220835 27.590558 
L 199.312682 21.904308 
L 201.474256 17.083636 
L 203.635831 19.152128 
L 205.727677 27.242185 
L 207.889251 41.353565 
L 209.981098 74.840085 
L 212.142672 103.897253 
L 214.304247 102.601083 
L 216.256637 113.983975 
L 218.418211 119.144539 
L 220.510057 123.000031 
L 222.671632 118.60478 
L 224.763478 119.504065 
L 226.925053 116.989127 
L 229.086627 122.420215 
L 231.178474 128.429109 
L 233.340048 120.465377 
L 235.431894 128.0978 
L 237.593469 106.653459 
L 239.755043 110.819823 
L 241.777161 118.538279 
L 243.938736 122.461827 
L 246.030582 121.771964 
L 248.192157 126.028979 
L 250.284003 131.567718 
L 252.445578 139.687437 
L 254.607152 143.242172 
L 256.698998 136.661749 
L 258.860573 140.288249 
L 260.952419 144.326585 
L 263.113994 146.382319 
L 265.275568 147.030186 
L 267.227958 145.187411 
L 269.389533 147.976038 
L 271.481379 149.641564 
L 273.642953 150.975386 
L 275.7348 152.522056 
L 277.896374 157.075374 
L 280.057949 156.502166 
L 282.149795 159.139799 
L 284.311369 162.618177 
L 286.403216 154.352872 
L 288.56479 154.209535 
L 290.726365 154.456143 
L 292.678755 155.243404 
L 294.840329 154.773371 
L 296.932175 155.257525 
L 299.09375 155.565669 
L 301.185596 154.810585 
L 303.347171 148.362961 
L 305.508745 150.762258 
L 307.600592 151.482335 
L 309.762166 147.332142 
L 314.015587 161.453706 
L 316.177161 162.150998 
L 318.129551 160.603414 
L 320.291126 160.333375 
L 322.382972 141.023015 
L 324.544547 140.404828 
L 326.636393 141.777668 
L 328.797967 140.917136 
L 330.959542 140.957679 
L 333.051388 140.394482 
L 335.212963 141.823081 
L 337.304809 138.747931 
L 339.466384 131.89581 
L 341.627958 131.722659 
L 343.650076 131.120516 
L 345.811651 132.890525 
L 347.903497 152.654401 
L 350.065071 152.534881 
L 352.156918 151.942438 
L 354.318492 151.624383 
L 356.480067 149.818599 
L 358.571913 152.264209 
L 360.733488 153.016165 
L 362.825334 150.691707 
L 367.148483 150.797578 
L 369.100873 150.951367 
L 371.262447 149.944516 
L 373.354294 147.96376 
L 375.515868 151.014844 
L 377.607714 150.249719 
L 379.769289 149.235021 
L 381.930863 149.823955 
L 384.02271 148.475473 
L 386.184284 146.888967 
L 388.276131 140.381845 
L 390.437705 140.917881 
L 392.59928 141.161985 
L 394.551669 139.45632 
L 396.713244 140.356144 
L 398.80509 140.056413 
L 400.966665 138.269442 
L 403.058511 142.212635 
L 405.220086 142.82503 
L 407.38166 142.934986 
L 409.473506 142.149115 
L 411.635081 143.489948 
L 413.726927 151.188377 
L 415.888502 150.676055 
L 418.050076 150.732257 
L 420.002466 152.619515 
L 422.164041 151.956949 
L 424.255887 153.039798 
L 426.417461 152.359152 
L 428.509308 149.020469 
L 430.670882 149.684136 
L 434.924303 148.364264 
L 437.085877 148.463354 
L 439.177724 147.927517 
L 441.339298 147.893932 
L 445.522991 148.827551 
L 447.684565 148.080479 
L 449.776412 147.203417 
L 451.937986 147.318992 
L 454.029832 147.209929 
L 456.191407 147.819486 
L 458.352981 148.221565 
L 460.444828 149.129839 
L 462.606402 149.003815 
L 464.698249 149.260272 
L 466.859823 150.166645 
L 469.021398 149.791934 
L 470.973787 149.304353 
L 473.135362 150.552046 
L 475.227208 152.316511 
L 477.388783 152.491842 
L 479.480629 152.890719 
L 481.642204 152.677315 
L 485.895624 153.932029 
L 488.057199 154.27886 
L 490.149045 154.997801 
L 492.31062 155.977631 
L 494.472194 155.395016 
L 496.424584 155.544884 
L 498.586159 155.323682 
L 500.678005 154.360121 
L 502.839579 154.269645 
L 504.931426 153.780849 
L 507.093 153.551328 
L 509.254575 152.406507 
L 511.346421 151.948669 
L 513.507996 150.945631 
L 515.599842 150.535808 
L 519.922991 150.260971 
L 521.875381 149.320171 
L 524.036955 148.869915 
L 526.128802 148.269148 
L 528.290376 147.450409 
L 530.382222 147.111936 
L 532.543797 146.499431 
L 534.705371 147.088779 
L 536.797218 146.496895 
L 538.958792 147.167964 
L 541.050638 147.139412 
L 545.373787 147.41411 
L 547.395906 148.905728 
L 549.55748 149.401825 
L 551.649326 150.435847 
L 553.810901 151.260136 
L 555.902747 151.252893 
L 558.064322 151.845923 
L 560.225896 151.951211 
L 562.317743 152.361046 
L 564.479317 152.974765 
L 566.571163 152.325825 
L 568.732738 152.840726 
L 570.894312 153.034297 
L 572.846702 152.986124 
L 575.008277 152.389401 
L 577.100123 152.437118 
L 579.261698 151.966558 
L 581.353544 152.057542 
L 583.515118 151.713536 
L 587.768539 150.79921 
L 589.930114 150.806535 
L 589.930114 150.806535 
" clip-path="url(#pffc984b4eb)" style="fill: none; stroke: #808080; stroke-width: 1.5; stroke-linecap: square"/>
   </g>
   <g id="patch_3">
    <path d="M 57.29375 224.64 
L 57.29375 7.2 
" style="fill: none; stroke: #000000; stroke-width: 0.8; stroke-linejoin: miter; stroke-linecap: square"/>
   </g>
   <g id="patch_4">
    <path d="M 57.29375 224.64 
L 615.29375 224.64 
" style="fill: none; stroke: #000000; stroke-width: 0.8; stroke-linejoin: miter; stroke-linecap: square"/>
   </g>
   <g id="legend_1">
    <g id="line2d_39">
     <path d="M 235.865625 253.59675 
L 245.865625 253.59675 
L 255.865625 253.59675 
" style="fill: none; stroke: #2b5aa5; stroke-width: 1.5; stroke-linecap: square"/>
    </g>
    <g id="text_20">
     <!-- Banamex -->
     <g transform="translate(263.865625 257.09675)scale(0.1 -0.1)">
      <defs>
       <path id="Roboto-Regular-42" d="M 528 0 
L 528 4550 
L 2016 4550 
Q 2756 4550 3129 4244 
Q 3503 3938 3503 3338 
Q 3503 3019 3322 2773 
Q 3141 2528 2828 2394 
Q 3197 2291 3411 2002 
Q 3625 1713 3625 1313 
Q 3625 700 3228 350 
Q 2831 0 2106 0 
L 528 0 
z
M 1128 2128 
L 1128 491 
L 2119 491 
Q 2538 491 2780 708 
Q 3022 925 3022 1306 
Q 3022 2128 2128 2128 
L 1128 2128 
z
M 1128 2609 
L 2034 2609 
Q 2428 2609 2664 2806 
Q 2900 3003 2900 3341 
Q 2900 3716 2681 3886 
Q 2463 4056 2016 4056 
L 1128 4056 
L 1128 2609 
z
" transform="scale(0.015625)"/>
       <path id="Roboto-Regular-61" d="M 2525 0 
Q 2475 100 2444 356 
Q 2041 -63 1481 -63 
Q 981 -63 661 220 
Q 341 503 341 938 
Q 341 1466 742 1758 
Q 1144 2050 1872 2050 
L 2434 2050 
L 2434 2316 
Q 2434 2619 2253 2798 
Q 2072 2978 1719 2978 
Q 1409 2978 1200 2822 
Q 991 2666 991 2444 
L 409 2444 
Q 409 2697 589 2933 
Q 769 3169 1076 3306 
Q 1384 3444 1753 3444 
Q 2338 3444 2669 3151 
Q 3000 2859 3013 2347 
L 3013 791 
Q 3013 325 3131 50 
L 3131 0 
L 2525 0 
z
M 1566 441 
Q 1838 441 2081 581 
Q 2325 722 2434 947 
L 2434 1641 
L 1981 1641 
Q 919 1641 919 1019 
Q 919 747 1100 594 
Q 1281 441 1566 441 
z
" transform="scale(0.015625)"/>
       <path id="Roboto-Regular-6e" d="M 984 3381 
L 1003 2956 
Q 1391 3444 2016 3444 
Q 3088 3444 3097 2234 
L 3097 0 
L 2519 0 
L 2519 2238 
Q 2516 2603 2352 2778 
Q 2188 2953 1841 2953 
Q 1559 2953 1346 2803 
Q 1134 2653 1016 2409 
L 1016 0 
L 438 0 
L 438 3381 
L 984 3381 
z
" transform="scale(0.015625)"/>
       <path id="Roboto-Regular-6d" d="M 981 3381 
L 997 3006 
Q 1369 3444 2000 3444 
Q 2709 3444 2966 2900 
Q 3134 3144 3404 3294 
Q 3675 3444 4044 3444 
Q 5156 3444 5175 2266 
L 5175 0 
L 4597 0 
L 4597 2231 
Q 4597 2594 4431 2773 
Q 4266 2953 3875 2953 
Q 3553 2953 3340 2761 
Q 3128 2569 3094 2244 
L 3094 0 
L 2513 0 
L 2513 2216 
Q 2513 2953 1791 2953 
Q 1222 2953 1013 2469 
L 1013 0 
L 434 0 
L 434 3381 
L 981 3381 
z
" transform="scale(0.015625)"/>
       <path id="Roboto-Regular-65" d="M 1841 -63 
Q 1153 -63 722 389 
Q 291 841 291 1597 
L 291 1703 
Q 291 2206 483 2601 
Q 675 2997 1020 3220 
Q 1366 3444 1769 3444 
Q 2428 3444 2793 3009 
Q 3159 2575 3159 1766 
L 3159 1525 
L 869 1525 
Q 881 1025 1161 717 
Q 1441 409 1872 409 
Q 2178 409 2390 534 
Q 2603 659 2763 866 
L 3116 591 
Q 2691 -63 1841 -63 
z
M 1769 2969 
Q 1419 2969 1181 2714 
Q 944 2459 888 2000 
L 2581 2000 
L 2581 2044 
Q 2556 2484 2343 2726 
Q 2131 2969 1769 2969 
z
" transform="scale(0.015625)"/>
       <path id="Roboto-Regular-78" d="M 1572 2147 
L 2322 3381 
L 2997 3381 
L 1891 1709 
L 3031 0 
L 2363 0 
L 1581 1266 
L 800 0 
L 128 0 
L 1269 1709 
L 163 3381 
L 831 3381 
L 1572 2147 
z
" transform="scale(0.015625)"/>
      </defs>
      <use xlink:href="#Roboto-Regular-42"/>
      <use xlink:href="#Roboto-Regular-61" x="62.255859"/>
      <use xlink:href="#Roboto-Regular-6e" x="116.650391"/>
      <use xlink:href="#Roboto-Regular-61" x="171.826172"/>
      <use xlink:href="#Roboto-Regular-6d" x="226.220703"/>
      <use xlink:href="#Roboto-Regular-65" x="313.867188"/>
      <use xlink:href="#Roboto-Regular-78" x="366.845703"/>
     </g>
    </g>
    <g id="line2d_40">
     <path d="M 325.504687 253.59675 
L 335.504687 253.59675 
L 345.504687 253.59675 
" style="fill: none; stroke: #808080; stroke-width: 1.5; stroke-linecap: square"/>
    </g>
    <g id="text_21">
     <!-- Commercial banks -->
     <g transform="translate(353.504687 257.09675)scale(0.1 -0.1)">
      <defs>
       <path id="Roboto-Regular-43" d="M 3875 1444 
Q 3791 722 3342 329 
Q 2894 -63 2150 -63 
Q 1344 -63 858 515 
Q 372 1094 372 2063 
L 372 2500 
Q 372 3134 598 3615 
Q 825 4097 1240 4355 
Q 1656 4613 2203 4613 
Q 2928 4613 3365 4208 
Q 3803 3803 3875 3088 
L 3272 3088 
Q 3194 3631 2933 3875 
Q 2672 4119 2203 4119 
Q 1628 4119 1301 3694 
Q 975 3269 975 2484 
L 975 2044 
Q 975 1303 1284 865 
Q 1594 428 2150 428 
Q 2650 428 2917 654 
Q 3184 881 3272 1444 
L 3875 1444 
z
" transform="scale(0.015625)"/>
       <path id="Roboto-Regular-63" d="M 1794 409 
Q 2103 409 2334 596 
Q 2566 784 2591 1066 
L 3138 1066 
Q 3122 775 2937 512 
Q 2753 250 2445 93 
Q 2138 -63 1794 -63 
Q 1103 -63 695 398 
Q 288 859 288 1659 
L 288 1756 
Q 288 2250 469 2634 
Q 650 3019 989 3231 
Q 1328 3444 1791 3444 
Q 2359 3444 2736 3103 
Q 3113 2763 3138 2219 
L 2591 2219 
Q 2566 2547 2342 2758 
Q 2119 2969 1791 2969 
Q 1350 2969 1108 2651 
Q 866 2334 866 1734 
L 866 1625 
Q 866 1041 1106 725 
Q 1347 409 1794 409 
z
" transform="scale(0.015625)"/>
       <path id="Roboto-Regular-69" d="M 1066 0 
L 488 0 
L 488 3381 
L 1066 3381 
L 1066 0 
z
M 441 4278 
Q 441 4419 527 4516 
Q 613 4613 781 4613 
Q 950 4613 1037 4516 
Q 1125 4419 1125 4278 
Q 1125 4138 1037 4044 
Q 950 3950 781 3950 
Q 613 3950 527 4044 
Q 441 4138 441 4278 
z
" transform="scale(0.015625)"/>
       <path id="Roboto-Regular-6c" d="M 1066 0 
L 488 0 
L 488 4800 
L 1066 4800 
L 1066 0 
z
" transform="scale(0.015625)"/>
       <path id="Roboto-Regular-62" d="M 3300 1653 
Q 3300 878 2944 407 
Q 2588 -63 1988 -63 
Q 1347 -63 997 391 
L 969 0 
L 438 0 
L 438 4800 
L 1016 4800 
L 1016 3009 
Q 1366 3444 1981 3444 
Q 2597 3444 2948 2978 
Q 3300 2513 3300 1703 
L 3300 1653 
z
M 2722 1719 
Q 2722 2309 2494 2631 
Q 2266 2953 1838 2953 
Q 1266 2953 1016 2422 
L 1016 959 
Q 1281 428 1844 428 
Q 2259 428 2490 750 
Q 2722 1072 2722 1719 
z
" transform="scale(0.015625)"/>
       <path id="Roboto-Regular-6b" d="M 1381 1566 
L 1019 1188 
L 1019 0 
L 441 0 
L 441 4800 
L 1019 4800 
L 1019 1897 
L 1328 2269 
L 2381 3381 
L 3084 3381 
L 1769 1969 
L 3238 0 
L 2559 0 
L 1381 1566 
z
" transform="scale(0.015625)"/>
       <path id="Roboto-Regular-73" d="M 2406 897 
Q 2406 1131 2229 1261 
Q 2053 1391 1614 1484 
Q 1175 1578 917 1709 
Q 659 1841 536 2022 
Q 413 2203 413 2453 
Q 413 2869 764 3156 
Q 1116 3444 1663 3444 
Q 2238 3444 2595 3147 
Q 2953 2850 2953 2388 
L 2372 2388 
Q 2372 2625 2170 2797 
Q 1969 2969 1663 2969 
Q 1347 2969 1169 2831 
Q 991 2694 991 2472 
Q 991 2263 1156 2156 
Q 1322 2050 1755 1953 
Q 2188 1856 2456 1722 
Q 2725 1588 2854 1398 
Q 2984 1209 2984 938 
Q 2984 484 2621 210 
Q 2259 -63 1681 -63 
Q 1275 -63 962 81 
Q 650 225 473 483 
Q 297 741 297 1041 
L 875 1041 
Q 891 750 1108 579 
Q 1325 409 1681 409 
Q 2009 409 2207 542 
Q 2406 675 2406 897 
z
" transform="scale(0.015625)"/>
      </defs>
      <use xlink:href="#Roboto-Regular-43"/>
      <use xlink:href="#Roboto-Regular-6f" x="65.087891"/>
      <use xlink:href="#Roboto-Regular-6d" x="122.119141"/>
      <use xlink:href="#Roboto-Regular-6d" x="209.765625"/>
      <use xlink:href="#Roboto-Regular-65" x="297.412109"/>
      <use xlink:href="#Roboto-Regular-72" x="350.390625"/>
      <use xlink:href="#Roboto-Regular-63" x="384.228516"/>
      <use xlink:href="#Roboto-Regular-69" x="436.572266"/>
      <use xlink:href="#Roboto-Regular-61" x="460.839844"/>
      <use xlink:href="#Roboto-Regular-6c" x="515.234375"/>
      <use xlink:href="#Roboto-Regular-20" x="539.501953"/>
      <use xlink:href="#Roboto-Regular-62" x="564.257812"/>
      <use xlink:href="#Roboto-Regular-61" x="620.361328"/>
      <use xlink:href="#Roboto-Regular-6e" x="674.755859"/>
      <use xlink:href="#Roboto-Regular-6b" x="729.931641"/>
      <use xlink:href="#Roboto-Regular-73" x="780.615234"/>
     </g>
    </g>
   </g>
  </g>
 </g>
 <defs>
  <clipPath id="pffc984b4eb">
   <rect x="57.29375" y="7.2" width="558" height="217.44"/>
  </clipPath>
 </defs>
</svg>
