<?xml version="1.0" encoding="utf-8" standalone="no"?>
<!DOCTYPE svg PUBLIC "-//W3C//DTD SVG 1.1//EN"
  "http://www.w3.org/Graphics/SVG/1.1/DTD/svg11.dtd">
<svg xmlns:xlink="http://www.w3.org/1999/xlink" width="502.51875pt" height="248.37125pt" viewBox="0 0 502.51875 248.37125" xmlns="http://www.w3.org/2000/svg" version="1.1">
 <metadata>
  <rdf:RDF xmlns:dc="http://purl.org/dc/elements/1.1/" xmlns:cc="http://creativecommons.org/ns#" xmlns:rdf="http://www.w3.org/1999/02/22-rdf-syntax-ns#">
   <cc:Work>
    <dc:type rdf:resource="http://purl.org/dc/dcmitype/StillImage"/>
    <dc:date>2022-01-12T11:59:00.529656</dc:date>
    <dc:format>image/svg+xml</dc:format>
    <dc:creator>
     <cc:Agent>
      <dc:title>Matplotlib v3.5.1, https://matplotlib.org/</dc:title>
     </cc:Agent>
    </dc:creator>
   </cc:Work>
  </rdf:RDF>
 </metadata>
 <defs>
  <style type="text/css">*{stroke-linejoin: round; stroke-linecap: butt}</style>
 </defs>
 <g id="figure_1">
  <g id="patch_1">
   <path d="M 0 248.37125 
L 502.51875 248.37125 
L 502.51875 0 
L 0 0 
z
" style="fill: #ffffff"/>
  </g>
  <g id="axes_1">
   <g id="patch_2">
    <path d="M 48.91875 224.64 
L 495.31875 224.64 
L 495.31875 7.2 
L 48.91875 7.2 
z
" style="fill: #ffffff"/>
   </g>
   <g id="matplotlib.axis_1">
    <g id="xtick_1">
     <g id="line2d_1">
      <path d="M 70.938919 224.64 
L 70.938919 7.2 
" clip-path="url(#p319f85948e)" style="fill: none; stroke-dasharray: 2.96,1.28; stroke-dashoffset: 0; stroke: #dddddd; stroke-width: 0.8"/>
     </g>
     <g id="line2d_2">
      <defs>
       <path id="mb088f19f0e" d="M 0 0 
L 0 3.5 
" style="stroke: #000000; stroke-width: 0.8"/>
      </defs>
      <g>
       <use xlink:href="#mb088f19f0e" x="70.938919" y="224.64" style="stroke: #000000; stroke-width: 0.8"/>
      </g>
     </g>
     <g id="text_1">
      <!-- 2002 -->
      <g transform="translate(59.707669 239.14)scale(0.1 -0.1)">
       <defs>
        <path id="Roboto-Regular-32" d="M 3359 0 
L 378 0 
L 378 416 
L 1953 2166 
Q 2303 2563 2436 2811 
Q 2569 3059 2569 3325 
Q 2569 3681 2353 3909 
Q 2138 4138 1778 4138 
Q 1347 4138 1108 3892 
Q 869 3647 869 3209 
L 291 3209 
Q 291 3838 695 4225 
Q 1100 4613 1778 4613 
Q 2413 4613 2781 4280 
Q 3150 3947 3150 3394 
Q 3150 2722 2294 1794 
L 1075 472 
L 3359 472 
L 3359 0 
z
" transform="scale(0.015625)"/>
        <path id="Roboto-Regular-30" d="M 3231 1941 
Q 3231 925 2884 431 
Q 2538 -63 1800 -63 
Q 1072 -63 722 420 
Q 372 903 359 1863 
L 359 2634 
Q 359 3638 706 4125 
Q 1053 4613 1794 4613 
Q 2528 4613 2875 4142 
Q 3222 3672 3231 2691 
L 3231 1941 
z
M 2653 2731 
Q 2653 3466 2447 3802 
Q 2241 4138 1794 4138 
Q 1350 4138 1147 3803 
Q 944 3469 938 2775 
L 938 1850 
Q 938 1113 1152 761 
Q 1366 409 1800 409 
Q 2228 409 2436 740 
Q 2644 1072 2653 1784 
L 2653 2731 
z
" transform="scale(0.015625)"/>
       </defs>
       <use xlink:href="#Roboto-Regular-32"/>
       <use xlink:href="#Roboto-Regular-30" x="56.152344"/>
       <use xlink:href="#Roboto-Regular-30" x="112.304688"/>
       <use xlink:href="#Roboto-Regular-32" x="168.457031"/>
      </g>
     </g>
    </g>
    <g id="xtick_2">
     <g id="line2d_3">
      <path d="M 111.660193 224.64 
L 111.660193 7.2 
" clip-path="url(#p319f85948e)" style="fill: none; stroke-dasharray: 2.96,1.28; stroke-dashoffset: 0; stroke: #dddddd; stroke-width: 0.8"/>
     </g>
     <g id="line2d_4">
      <g>
       <use xlink:href="#mb088f19f0e" x="111.660193" y="224.64" style="stroke: #000000; stroke-width: 0.8"/>
      </g>
     </g>
     <g id="text_2">
      <!-- 2004 -->
      <g transform="translate(100.428943 239.14)scale(0.1 -0.1)">
       <defs>
        <path id="Roboto-Regular-34" d="M 2819 1528 
L 3450 1528 
L 3450 1056 
L 2819 1056 
L 2819 0 
L 2238 0 
L 2238 1056 
L 166 1056 
L 166 1397 
L 2203 4550 
L 2819 4550 
L 2819 1528 
z
M 822 1528 
L 2238 1528 
L 2238 3759 
L 2169 3634 
L 822 1528 
z
" transform="scale(0.015625)"/>
       </defs>
       <use xlink:href="#Roboto-Regular-32"/>
       <use xlink:href="#Roboto-Regular-30" x="56.152344"/>
       <use xlink:href="#Roboto-Regular-30" x="112.304688"/>
       <use xlink:href="#Roboto-Regular-34" x="168.457031"/>
      </g>
     </g>
    </g>
    <g id="xtick_3">
     <g id="line2d_5">
      <path d="M 152.43725 224.64 
L 152.43725 7.2 
" clip-path="url(#p319f85948e)" style="fill: none; stroke-dasharray: 2.96,1.28; stroke-dashoffset: 0; stroke: #dddddd; stroke-width: 0.8"/>
     </g>
     <g id="line2d_6">
      <g>
       <use xlink:href="#mb088f19f0e" x="152.43725" y="224.64" style="stroke: #000000; stroke-width: 0.8"/>
      </g>
     </g>
     <g id="text_3">
      <!-- 2006 -->
      <g transform="translate(141.206 239.14)scale(0.1 -0.1)">
       <defs>
        <path id="Roboto-Regular-36" d="M 2647 4553 
L 2647 4063 
L 2541 4063 
Q 1866 4050 1466 3662 
Q 1066 3275 1003 2572 
Q 1363 2984 1984 2984 
Q 2578 2984 2933 2565 
Q 3288 2147 3288 1484 
Q 3288 781 2905 359 
Q 2522 -63 1878 -63 
Q 1225 -63 819 439 
Q 413 941 413 1731 
L 413 1953 
Q 413 3209 948 3873 
Q 1484 4538 2544 4553 
L 2647 4553 
z
M 1888 2503 
Q 1591 2503 1341 2325 
Q 1091 2147 994 1878 
L 994 1666 
Q 994 1103 1247 759 
Q 1500 416 1878 416 
Q 2269 416 2492 703 
Q 2716 991 2716 1456 
Q 2716 1925 2489 2214 
Q 2263 2503 1888 2503 
z
" transform="scale(0.015625)"/>
       </defs>
       <use xlink:href="#Roboto-Regular-32"/>
       <use xlink:href="#Roboto-Regular-30" x="56.152344"/>
       <use xlink:href="#Roboto-Regular-30" x="112.304688"/>
       <use xlink:href="#Roboto-Regular-36" x="168.457031"/>
      </g>
     </g>
    </g>
    <g id="xtick_4">
     <g id="line2d_7">
      <path d="M 193.158525 224.64 
L 193.158525 7.2 
" clip-path="url(#p319f85948e)" style="fill: none; stroke-dasharray: 2.96,1.28; stroke-dashoffset: 0; stroke: #dddddd; stroke-width: 0.8"/>
     </g>
     <g id="line2d_8">
      <g>
       <use xlink:href="#mb088f19f0e" x="193.158525" y="224.64" style="stroke: #000000; stroke-width: 0.8"/>
      </g>
     </g>
     <g id="text_4">
      <!-- 2008 -->
      <g transform="translate(181.927275 239.14)scale(0.1 -0.1)">
       <defs>
        <path id="Roboto-Regular-38" d="M 3138 3363 
Q 3138 3022 2958 2756 
Q 2778 2491 2472 2341 
Q 2828 2188 3036 1894 
Q 3244 1600 3244 1228 
Q 3244 638 2845 287 
Q 2447 -63 1797 -63 
Q 1141 -63 745 289 
Q 350 641 350 1228 
Q 350 1597 551 1894 
Q 753 2191 1109 2344 
Q 806 2494 631 2759 
Q 456 3025 456 3363 
Q 456 3938 825 4275 
Q 1194 4613 1797 4613 
Q 2397 4613 2767 4275 
Q 3138 3938 3138 3363 
z
M 2666 1241 
Q 2666 1622 2423 1862 
Q 2181 2103 1790 2103 
Q 1400 2103 1164 1865 
Q 928 1628 928 1240 
Q 928 853 1158 631 
Q 1388 409 1797 409 
Q 2203 409 2434 632 
Q 2666 856 2666 1241 
z
M 1797 4138 
Q 1456 4138 1245 3927 
Q 1034 3716 1034 3353 
Q 1034 3006 1242 2792 
Q 1450 2578 1797 2578 
Q 2144 2578 2351 2792 
Q 2559 3006 2559 3353 
Q 2559 3700 2343 3919 
Q 2128 4138 1797 4138 
z
" transform="scale(0.015625)"/>
       </defs>
       <use xlink:href="#Roboto-Regular-32"/>
       <use xlink:href="#Roboto-Regular-30" x="56.152344"/>
       <use xlink:href="#Roboto-Regular-30" x="112.304688"/>
       <use xlink:href="#Roboto-Regular-38" x="168.457031"/>
      </g>
     </g>
    </g>
    <g id="xtick_5">
     <g id="line2d_9">
      <path d="M 233.935582 224.64 
L 233.935582 7.2 
" clip-path="url(#p319f85948e)" style="fill: none; stroke-dasharray: 2.96,1.28; stroke-dashoffset: 0; stroke: #dddddd; stroke-width: 0.8"/>
     </g>
     <g id="line2d_10">
      <g>
       <use xlink:href="#mb088f19f0e" x="233.935582" y="224.64" style="stroke: #000000; stroke-width: 0.8"/>
      </g>
     </g>
     <g id="text_5">
      <!-- 2010 -->
      <g transform="translate(222.704332 239.14)scale(0.1 -0.1)">
       <defs>
        <path id="Roboto-Regular-31" d="M 2278 0 
L 1697 0 
L 1697 3853 
L 531 3425 
L 531 3950 
L 2188 4572 
L 2278 4572 
L 2278 0 
z
" transform="scale(0.015625)"/>
       </defs>
       <use xlink:href="#Roboto-Regular-32"/>
       <use xlink:href="#Roboto-Regular-30" x="56.152344"/>
       <use xlink:href="#Roboto-Regular-31" x="112.304688"/>
       <use xlink:href="#Roboto-Regular-30" x="168.457031"/>
      </g>
     </g>
    </g>
    <g id="xtick_6">
     <g id="line2d_11">
      <path d="M 274.656857 224.64 
L 274.656857 7.2 
" clip-path="url(#p319f85948e)" style="fill: none; stroke-dasharray: 2.96,1.28; stroke-dashoffset: 0; stroke: #dddddd; stroke-width: 0.8"/>
     </g>
     <g id="line2d_12">
      <g>
       <use xlink:href="#mb088f19f0e" x="274.656857" y="224.64" style="stroke: #000000; stroke-width: 0.8"/>
      </g>
     </g>
     <g id="text_6">
      <!-- 2012 -->
      <g transform="translate(263.425607 239.14)scale(0.1 -0.1)">
       <use xlink:href="#Roboto-Regular-32"/>
       <use xlink:href="#Roboto-Regular-30" x="56.152344"/>
       <use xlink:href="#Roboto-Regular-31" x="112.304688"/>
       <use xlink:href="#Roboto-Regular-32" x="168.457031"/>
      </g>
     </g>
    </g>
    <g id="xtick_7">
     <g id="line2d_13">
      <path d="M 315.433914 224.64 
L 315.433914 7.2 
" clip-path="url(#p319f85948e)" style="fill: none; stroke-dasharray: 2.96,1.28; stroke-dashoffset: 0; stroke: #dddddd; stroke-width: 0.8"/>
     </g>
     <g id="line2d_14">
      <g>
       <use xlink:href="#mb088f19f0e" x="315.433914" y="224.64" style="stroke: #000000; stroke-width: 0.8"/>
      </g>
     </g>
     <g id="text_7">
      <!-- 2014 -->
      <g transform="translate(304.202664 239.14)scale(0.1 -0.1)">
       <use xlink:href="#Roboto-Regular-32"/>
       <use xlink:href="#Roboto-Regular-30" x="56.152344"/>
       <use xlink:href="#Roboto-Regular-31" x="112.304688"/>
       <use xlink:href="#Roboto-Regular-34" x="168.457031"/>
      </g>
     </g>
    </g>
    <g id="xtick_8">
     <g id="line2d_15">
      <path d="M 356.155189 224.64 
L 356.155189 7.2 
" clip-path="url(#p319f85948e)" style="fill: none; stroke-dasharray: 2.96,1.28; stroke-dashoffset: 0; stroke: #dddddd; stroke-width: 0.8"/>
     </g>
     <g id="line2d_16">
      <g>
       <use xlink:href="#mb088f19f0e" x="356.155189" y="224.64" style="stroke: #000000; stroke-width: 0.8"/>
      </g>
     </g>
     <g id="text_8">
      <!-- 2016 -->
      <g transform="translate(344.923939 239.14)scale(0.1 -0.1)">
       <use xlink:href="#Roboto-Regular-32"/>
       <use xlink:href="#Roboto-Regular-30" x="56.152344"/>
       <use xlink:href="#Roboto-Regular-31" x="112.304688"/>
       <use xlink:href="#Roboto-Regular-36" x="168.457031"/>
      </g>
     </g>
    </g>
    <g id="xtick_9">
     <g id="line2d_17">
      <path d="M 396.932246 224.64 
L 396.932246 7.2 
" clip-path="url(#p319f85948e)" style="fill: none; stroke-dasharray: 2.96,1.28; stroke-dashoffset: 0; stroke: #dddddd; stroke-width: 0.8"/>
     </g>
     <g id="line2d_18">
      <g>
       <use xlink:href="#mb088f19f0e" x="396.932246" y="224.64" style="stroke: #000000; stroke-width: 0.8"/>
      </g>
     </g>
     <g id="text_9">
      <!-- 2018 -->
      <g transform="translate(385.700996 239.14)scale(0.1 -0.1)">
       <use xlink:href="#Roboto-Regular-32"/>
       <use xlink:href="#Roboto-Regular-30" x="56.152344"/>
       <use xlink:href="#Roboto-Regular-31" x="112.304688"/>
       <use xlink:href="#Roboto-Regular-38" x="168.457031"/>
      </g>
     </g>
    </g>
    <g id="xtick_10">
     <g id="line2d_19">
      <path d="M 437.65352 224.64 
L 437.65352 7.2 
" clip-path="url(#p319f85948e)" style="fill: none; stroke-dasharray: 2.96,1.28; stroke-dashoffset: 0; stroke: #dddddd; stroke-width: 0.8"/>
     </g>
     <g id="line2d_20">
      <g>
       <use xlink:href="#mb088f19f0e" x="437.65352" y="224.64" style="stroke: #000000; stroke-width: 0.8"/>
      </g>
     </g>
     <g id="text_10">
      <!-- 2020 -->
      <g transform="translate(426.42227 239.14)scale(0.1 -0.1)">
       <use xlink:href="#Roboto-Regular-32"/>
       <use xlink:href="#Roboto-Regular-30" x="56.152344"/>
       <use xlink:href="#Roboto-Regular-32" x="112.304688"/>
       <use xlink:href="#Roboto-Regular-30" x="168.457031"/>
      </g>
     </g>
    </g>
    <g id="xtick_11">
     <g id="line2d_21">
      <path d="M 478.430578 224.64 
L 478.430578 7.2 
" clip-path="url(#p319f85948e)" style="fill: none; stroke-dasharray: 2.96,1.28; stroke-dashoffset: 0; stroke: #dddddd; stroke-width: 0.8"/>
     </g>
     <g id="line2d_22">
      <g>
       <use xlink:href="#mb088f19f0e" x="478.430578" y="224.64" style="stroke: #000000; stroke-width: 0.8"/>
      </g>
     </g>
     <g id="text_11">
      <!-- 2022 -->
      <g transform="translate(467.199328 239.14)scale(0.1 -0.1)">
       <use xlink:href="#Roboto-Regular-32"/>
       <use xlink:href="#Roboto-Regular-30" x="56.152344"/>
       <use xlink:href="#Roboto-Regular-32" x="112.304688"/>
       <use xlink:href="#Roboto-Regular-32" x="168.457031"/>
      </g>
     </g>
    </g>
   </g>
   <g id="matplotlib.axis_2">
    <g id="ytick_1">
     <g id="line2d_23">
      <path d="M 48.91875 204.430667 
L 495.31875 204.430667 
" clip-path="url(#p319f85948e)" style="fill: none; stroke-dasharray: 2.96,1.28; stroke-dashoffset: 0; stroke: #dddddd; stroke-width: 0.8"/>
     </g>
     <g id="line2d_24">
      <defs>
       <path id="m39e949bb29" d="M 0 0 
L -3.5 0 
" style="stroke: #000000; stroke-width: 0.8"/>
      </defs>
      <g>
       <use xlink:href="#m39e949bb29" x="48.91875" y="204.430667" style="stroke: #000000; stroke-width: 0.8"/>
      </g>
     </g>
     <g id="text_12">
      <!-- 1.0% -->
      <g transform="translate(20.73125 208.180667)scale(0.1 -0.1)">
       <defs>
        <path id="Roboto-Regular-2e" d="M 450 303 
Q 450 453 539 553 
Q 628 653 806 653 
Q 984 653 1076 553 
Q 1169 453 1169 303 
Q 1169 159 1076 62 
Q 984 -34 806 -34 
Q 628 -34 539 62 
Q 450 159 450 303 
z
" transform="scale(0.015625)"/>
        <path id="Roboto-Regular-25" d="M 328 3675 
Q 328 4084 589 4350 
Q 850 4616 1259 4616 
Q 1675 4616 1933 4348 
Q 2191 4081 2191 3656 
L 2191 3434 
Q 2191 3022 1930 2761 
Q 1669 2500 1266 2500 
Q 859 2500 593 2761 
Q 328 3022 328 3456 
L 328 3675 
z
M 759 3434 
Q 759 3191 896 3033 
Q 1034 2875 1266 2875 
Q 1488 2875 1623 3028 
Q 1759 3181 1759 3447 
L 1759 3675 
Q 1759 3919 1625 4078 
Q 1491 4238 1259 4238 
Q 1028 4238 893 4078 
Q 759 3919 759 3663 
L 759 3434 
z
M 2544 1116 
Q 2544 1525 2805 1789 
Q 3066 2053 3475 2053 
Q 3884 2053 4146 1790 
Q 4409 1528 4409 1094 
L 4409 872 
Q 4409 463 4148 198 
Q 3888 -66 3481 -66 
Q 3075 -66 2809 195 
Q 2544 456 2544 891 
L 2544 1116 
z
M 2975 872 
Q 2975 625 3112 467 
Q 3250 309 3481 309 
Q 3706 309 3840 464 
Q 3975 619 3975 884 
L 3975 1116 
Q 3975 1363 3839 1519 
Q 3703 1675 3475 1675 
Q 3253 1675 3114 1520 
Q 2975 1366 2975 1103 
L 2975 872 
z
M 1397 344 
L 1069 550 
L 3291 4106 
L 3619 3900 
L 1397 344 
z
" transform="scale(0.015625)"/>
       </defs>
       <use xlink:href="#Roboto-Regular-31"/>
       <use xlink:href="#Roboto-Regular-2e" x="56.152344"/>
       <use xlink:href="#Roboto-Regular-30" x="82.470703"/>
       <use xlink:href="#Roboto-Regular-25" x="138.623047"/>
      </g>
     </g>
    </g>
    <g id="ytick_2">
     <g id="line2d_25">
      <path d="M 48.91875 178.232327 
L 495.31875 178.232327 
" clip-path="url(#p319f85948e)" style="fill: none; stroke-dasharray: 2.96,1.28; stroke-dashoffset: 0; stroke: #dddddd; stroke-width: 0.8"/>
     </g>
     <g id="line2d_26">
      <g>
       <use xlink:href="#m39e949bb29" x="48.91875" y="178.232327" style="stroke: #000000; stroke-width: 0.8"/>
      </g>
     </g>
     <g id="text_13">
      <!-- 2.0% -->
      <g transform="translate(20.73125 181.982327)scale(0.1 -0.1)">
       <use xlink:href="#Roboto-Regular-32"/>
       <use xlink:href="#Roboto-Regular-2e" x="56.152344"/>
       <use xlink:href="#Roboto-Regular-30" x="82.470703"/>
       <use xlink:href="#Roboto-Regular-25" x="138.623047"/>
      </g>
     </g>
    </g>
    <g id="ytick_3">
     <g id="line2d_27">
      <path d="M 48.91875 152.033988 
L 495.31875 152.033988 
" clip-path="url(#p319f85948e)" style="fill: none; stroke-dasharray: 2.96,1.28; stroke-dashoffset: 0; stroke: #dddddd; stroke-width: 0.8"/>
     </g>
     <g id="line2d_28">
      <g>
       <use xlink:href="#m39e949bb29" x="48.91875" y="152.033988" style="stroke: #000000; stroke-width: 0.8"/>
      </g>
     </g>
     <g id="text_14">
      <!-- 3.0% -->
      <g transform="translate(20.73125 155.783988)scale(0.1 -0.1)">
       <defs>
        <path id="Roboto-Regular-33" d="M 1219 2556 
L 1653 2556 
Q 2063 2563 2297 2772 
Q 2531 2981 2531 3338 
Q 2531 4138 1734 4138 
Q 1359 4138 1136 3923 
Q 913 3709 913 3356 
L 334 3356 
Q 334 3897 729 4255 
Q 1125 4613 1734 4613 
Q 2378 4613 2743 4272 
Q 3109 3931 3109 3325 
Q 3109 3028 2917 2750 
Q 2725 2472 2394 2334 
Q 2769 2216 2973 1941 
Q 3178 1666 3178 1269 
Q 3178 656 2778 296 
Q 2378 -63 1737 -63 
Q 1097 -63 695 284 
Q 294 631 294 1200 
L 875 1200 
Q 875 841 1109 625 
Q 1344 409 1738 409 
Q 2156 409 2378 628 
Q 2600 847 2600 1256 
Q 2600 1653 2356 1865 
Q 2113 2078 1653 2084 
L 1219 2084 
L 1219 2556 
z
" transform="scale(0.015625)"/>
       </defs>
       <use xlink:href="#Roboto-Regular-33"/>
       <use xlink:href="#Roboto-Regular-2e" x="56.152344"/>
       <use xlink:href="#Roboto-Regular-30" x="82.470703"/>
       <use xlink:href="#Roboto-Regular-25" x="138.623047"/>
      </g>
     </g>
    </g>
    <g id="ytick_4">
     <g id="line2d_29">
      <path d="M 48.91875 125.835648 
L 495.31875 125.835648 
" clip-path="url(#p319f85948e)" style="fill: none; stroke-dasharray: 2.96,1.28; stroke-dashoffset: 0; stroke: #dddddd; stroke-width: 0.8"/>
     </g>
     <g id="line2d_30">
      <g>
       <use xlink:href="#m39e949bb29" x="48.91875" y="125.835648" style="stroke: #000000; stroke-width: 0.8"/>
      </g>
     </g>
     <g id="text_15">
      <!-- 4.0% -->
      <g transform="translate(20.73125 129.585648)scale(0.1 -0.1)">
       <use xlink:href="#Roboto-Regular-34"/>
       <use xlink:href="#Roboto-Regular-2e" x="56.152344"/>
       <use xlink:href="#Roboto-Regular-30" x="82.470703"/>
       <use xlink:href="#Roboto-Regular-25" x="138.623047"/>
      </g>
     </g>
    </g>
    <g id="ytick_5">
     <g id="line2d_31">
      <path d="M 48.91875 99.637308 
L 495.31875 99.637308 
" clip-path="url(#p319f85948e)" style="fill: none; stroke-dasharray: 2.96,1.28; stroke-dashoffset: 0; stroke: #dddddd; stroke-width: 0.8"/>
     </g>
     <g id="line2d_32">
      <g>
       <use xlink:href="#m39e949bb29" x="48.91875" y="99.637308" style="stroke: #000000; stroke-width: 0.8"/>
      </g>
     </g>
     <g id="text_16">
      <!-- 5.0% -->
      <g transform="translate(20.73125 103.387308)scale(0.1 -0.1)">
       <defs>
        <path id="Roboto-Regular-35" d="M 644 2281 
L 875 4550 
L 3206 4550 
L 3206 4016 
L 1366 4016 
L 1228 2775 
Q 1563 2972 1988 2972 
Q 2609 2972 2975 2561 
Q 3341 2150 3341 1450 
Q 3341 747 2961 342 
Q 2581 -63 1900 -63 
Q 1297 -63 915 271 
Q 534 606 481 1197 
L 1028 1197 
Q 1081 806 1306 607 
Q 1531 409 1900 409 
Q 2303 409 2533 684 
Q 2763 959 2763 1444 
Q 2763 1900 2514 2176 
Q 2266 2453 1853 2453 
Q 1475 2453 1259 2288 
L 1106 2163 
L 644 2281 
z
" transform="scale(0.015625)"/>
       </defs>
       <use xlink:href="#Roboto-Regular-35"/>
       <use xlink:href="#Roboto-Regular-2e" x="56.152344"/>
       <use xlink:href="#Roboto-Regular-30" x="82.470703"/>
       <use xlink:href="#Roboto-Regular-25" x="138.623047"/>
      </g>
     </g>
    </g>
    <g id="ytick_6">
     <g id="line2d_33">
      <path d="M 48.91875 73.438969 
L 495.31875 73.438969 
" clip-path="url(#p319f85948e)" style="fill: none; stroke-dasharray: 2.96,1.28; stroke-dashoffset: 0; stroke: #dddddd; stroke-width: 0.8"/>
     </g>
     <g id="line2d_34">
      <g>
       <use xlink:href="#m39e949bb29" x="48.91875" y="73.438969" style="stroke: #000000; stroke-width: 0.8"/>
      </g>
     </g>
     <g id="text_17">
      <!-- 6.0% -->
      <g transform="translate(20.73125 77.188969)scale(0.1 -0.1)">
       <use xlink:href="#Roboto-Regular-36"/>
       <use xlink:href="#Roboto-Regular-2e" x="56.152344"/>
       <use xlink:href="#Roboto-Regular-30" x="82.470703"/>
       <use xlink:href="#Roboto-Regular-25" x="138.623047"/>
      </g>
     </g>
    </g>
    <g id="ytick_7">
     <g id="line2d_35">
      <path d="M 48.91875 47.240629 
L 495.31875 47.240629 
" clip-path="url(#p319f85948e)" style="fill: none; stroke-dasharray: 2.96,1.28; stroke-dashoffset: 0; stroke: #dddddd; stroke-width: 0.8"/>
     </g>
     <g id="line2d_36">
      <g>
       <use xlink:href="#m39e949bb29" x="48.91875" y="47.240629" style="stroke: #000000; stroke-width: 0.8"/>
      </g>
     </g>
     <g id="text_18">
      <!-- 7.0% -->
      <g transform="translate(20.73125 50.990629)scale(0.1 -0.1)">
       <defs>
        <path id="Roboto-Regular-37" d="M 3316 4225 
L 1431 0 
L 825 0 
L 2703 4075 
L 241 4075 
L 241 4550 
L 3316 4550 
L 3316 4225 
z
" transform="scale(0.015625)"/>
       </defs>
       <use xlink:href="#Roboto-Regular-37"/>
       <use xlink:href="#Roboto-Regular-2e" x="56.152344"/>
       <use xlink:href="#Roboto-Regular-30" x="82.470703"/>
       <use xlink:href="#Roboto-Regular-25" x="138.623047"/>
      </g>
     </g>
    </g>
    <g id="ytick_8">
     <g id="line2d_37">
      <path d="M 48.91875 21.042289 
L 495.31875 21.042289 
" clip-path="url(#p319f85948e)" style="fill: none; stroke-dasharray: 2.96,1.28; stroke-dashoffset: 0; stroke: #dddddd; stroke-width: 0.8"/>
     </g>
     <g id="line2d_38">
      <g>
       <use xlink:href="#m39e949bb29" x="48.91875" y="21.042289" style="stroke: #000000; stroke-width: 0.8"/>
      </g>
     </g>
     <g id="text_19">
      <!-- 8.0% -->
      <g transform="translate(20.73125 24.792289)scale(0.1 -0.1)">
       <use xlink:href="#Roboto-Regular-38"/>
       <use xlink:href="#Roboto-Regular-2e" x="56.152344"/>
       <use xlink:href="#Roboto-Regular-30" x="82.470703"/>
       <use xlink:href="#Roboto-Regular-25" x="138.623047"/>
      </g>
     </g>
    </g>
    <g id="text_20">
     <!-- Net interest margin -->
     <g transform="translate(14.651563 158.621562)rotate(-90)scale(0.1 -0.1)">
      <defs>
       <path id="Roboto-Regular-4e" d="M 4025 0 
L 3422 0 
L 1131 3506 
L 1131 0 
L 528 0 
L 528 4550 
L 1131 4550 
L 3428 1028 
L 3428 4550 
L 4025 4550 
L 4025 0 
z
" transform="scale(0.015625)"/>
       <path id="Roboto-Regular-65" d="M 1841 -63 
Q 1153 -63 722 389 
Q 291 841 291 1597 
L 291 1703 
Q 291 2206 483 2601 
Q 675 2997 1020 3220 
Q 1366 3444 1769 3444 
Q 2428 3444 2793 3009 
Q 3159 2575 3159 1766 
L 3159 1525 
L 869 1525 
Q 881 1025 1161 717 
Q 1441 409 1872 409 
Q 2178 409 2390 534 
Q 2603 659 2763 866 
L 3116 591 
Q 2691 -63 1841 -63 
z
M 1769 2969 
Q 1419 2969 1181 2714 
Q 944 2459 888 2000 
L 2581 2000 
L 2581 2044 
Q 2556 2484 2343 2726 
Q 2131 2969 1769 2969 
z
" transform="scale(0.015625)"/>
       <path id="Roboto-Regular-74" d="M 1222 4200 
L 1222 3381 
L 1853 3381 
L 1853 2934 
L 1222 2934 
L 1222 838 
Q 1222 634 1306 532 
Q 1391 431 1594 431 
Q 1694 431 1869 469 
L 1869 0 
Q 1641 -63 1425 -63 
Q 1038 -63 841 171 
Q 644 406 644 838 
L 644 2934 
L 28 2934 
L 28 3381 
L 644 3381 
L 644 4200 
L 1222 4200 
z
" transform="scale(0.015625)"/>
       <path id="Roboto-Regular-20" transform="scale(0.015625)"/>
       <path id="Roboto-Regular-69" d="M 1066 0 
L 488 0 
L 488 3381 
L 1066 3381 
L 1066 0 
z
M 441 4278 
Q 441 4419 527 4516 
Q 613 4613 781 4613 
Q 950 4613 1037 4516 
Q 1125 4419 1125 4278 
Q 1125 4138 1037 4044 
Q 950 3950 781 3950 
Q 613 3950 527 4044 
Q 441 4138 441 4278 
z
" transform="scale(0.015625)"/>
       <path id="Roboto-Regular-6e" d="M 984 3381 
L 1003 2956 
Q 1391 3444 2016 3444 
Q 3088 3444 3097 2234 
L 3097 0 
L 2519 0 
L 2519 2238 
Q 2516 2603 2352 2778 
Q 2188 2953 1841 2953 
Q 1559 2953 1346 2803 
Q 1134 2653 1016 2409 
L 1016 0 
L 438 0 
L 438 3381 
L 984 3381 
z
" transform="scale(0.015625)"/>
       <path id="Roboto-Regular-72" d="M 2072 2863 
Q 1941 2884 1788 2884 
Q 1219 2884 1016 2400 
L 1016 0 
L 438 0 
L 438 3381 
L 1000 3381 
L 1009 2991 
Q 1294 3444 1816 3444 
Q 1984 3444 2072 3400 
L 2072 2863 
z
" transform="scale(0.015625)"/>
       <path id="Roboto-Regular-73" d="M 2406 897 
Q 2406 1131 2229 1261 
Q 2053 1391 1614 1484 
Q 1175 1578 917 1709 
Q 659 1841 536 2022 
Q 413 2203 413 2453 
Q 413 2869 764 3156 
Q 1116 3444 1663 3444 
Q 2238 3444 2595 3147 
Q 2953 2850 2953 2388 
L 2372 2388 
Q 2372 2625 2170 2797 
Q 1969 2969 1663 2969 
Q 1347 2969 1169 2831 
Q 991 2694 991 2472 
Q 991 2263 1156 2156 
Q 1322 2050 1755 1953 
Q 2188 1856 2456 1722 
Q 2725 1588 2854 1398 
Q 2984 1209 2984 938 
Q 2984 484 2621 210 
Q 2259 -63 1681 -63 
Q 1275 -63 962 81 
Q 650 225 473 483 
Q 297 741 297 1041 
L 875 1041 
Q 891 750 1108 579 
Q 1325 409 1681 409 
Q 2009 409 2207 542 
Q 2406 675 2406 897 
z
" transform="scale(0.015625)"/>
       <path id="Roboto-Regular-6d" d="M 981 3381 
L 997 3006 
Q 1369 3444 2000 3444 
Q 2709 3444 2966 2900 
Q 3134 3144 3404 3294 
Q 3675 3444 4044 3444 
Q 5156 3444 5175 2266 
L 5175 0 
L 4597 0 
L 4597 2231 
Q 4597 2594 4431 2773 
Q 4266 2953 3875 2953 
Q 3553 2953 3340 2761 
Q 3128 2569 3094 2244 
L 3094 0 
L 2513 0 
L 2513 2216 
Q 2513 2953 1791 2953 
Q 1222 2953 1013 2469 
L 1013 0 
L 434 0 
L 434 3381 
L 981 3381 
z
" transform="scale(0.015625)"/>
       <path id="Roboto-Regular-61" d="M 2525 0 
Q 2475 100 2444 356 
Q 2041 -63 1481 -63 
Q 981 -63 661 220 
Q 341 503 341 938 
Q 341 1466 742 1758 
Q 1144 2050 1872 2050 
L 2434 2050 
L 2434 2316 
Q 2434 2619 2253 2798 
Q 2072 2978 1719 2978 
Q 1409 2978 1200 2822 
Q 991 2666 991 2444 
L 409 2444 
Q 409 2697 589 2933 
Q 769 3169 1076 3306 
Q 1384 3444 1753 3444 
Q 2338 3444 2669 3151 
Q 3000 2859 3013 2347 
L 3013 791 
Q 3013 325 3131 50 
L 3131 0 
L 2525 0 
z
M 1566 441 
Q 1838 441 2081 581 
Q 2325 722 2434 947 
L 2434 1641 
L 1981 1641 
Q 919 1641 919 1019 
Q 919 747 1100 594 
Q 1281 441 1566 441 
z
" transform="scale(0.015625)"/>
       <path id="Roboto-Regular-67" d="M 300 1719 
Q 300 2509 665 2976 
Q 1031 3444 1634 3444 
Q 2253 3444 2600 3006 
L 2628 3381 
L 3156 3381 
L 3156 81 
Q 3156 -575 2767 -953 
Q 2378 -1331 1722 -1331 
Q 1356 -1331 1006 -1175 
Q 656 -1019 472 -747 
L 772 -400 
Q 1144 -859 1681 -859 
Q 2103 -859 2339 -621 
Q 2575 -384 2575 47 
L 2575 338 
Q 2228 -63 1628 -63 
Q 1034 -63 667 415 
Q 300 894 300 1719 
z
M 881 1653 
Q 881 1081 1115 754 
Q 1350 428 1772 428 
Q 2319 428 2575 925 
L 2575 2469 
Q 2309 2953 1778 2953 
Q 1356 2953 1118 2625 
Q 881 2297 881 1653 
z
" transform="scale(0.015625)"/>
      </defs>
      <use xlink:href="#Roboto-Regular-4e"/>
      <use xlink:href="#Roboto-Regular-65" x="71.289062"/>
      <use xlink:href="#Roboto-Regular-74" x="124.267578"/>
      <use xlink:href="#Roboto-Regular-20" x="156.933594"/>
      <use xlink:href="#Roboto-Regular-69" x="181.689453"/>
      <use xlink:href="#Roboto-Regular-6e" x="205.957031"/>
      <use xlink:href="#Roboto-Regular-74" x="261.132812"/>
      <use xlink:href="#Roboto-Regular-65" x="293.798828"/>
      <use xlink:href="#Roboto-Regular-72" x="346.777344"/>
      <use xlink:href="#Roboto-Regular-65" x="380.615234"/>
      <use xlink:href="#Roboto-Regular-73" x="433.59375"/>
      <use xlink:href="#Roboto-Regular-74" x="485.15625"/>
      <use xlink:href="#Roboto-Regular-20" x="517.822266"/>
      <use xlink:href="#Roboto-Regular-6d" x="542.578125"/>
      <use xlink:href="#Roboto-Regular-61" x="630.224609"/>
      <use xlink:href="#Roboto-Regular-72" x="684.619141"/>
      <use xlink:href="#Roboto-Regular-67" x="718.457031"/>
      <use xlink:href="#Roboto-Regular-69" x="774.560547"/>
      <use xlink:href="#Roboto-Regular-6e" x="798.828125"/>
     </g>
    </g>
   </g>
   <g id="line2d_39">
    <path d="M 69.209659 118.392494 
L 70.938919 121.620644 
L 72.668178 124.400076 
L 74.23009 120.283856 
L 75.95935 123.277868 
L 77.632827 127.186597 
L 79.362086 126.30686 
L 82.764823 128.732602 
L 84.494083 132.127911 
L 86.16756 133.630011 
L 87.896819 134.834368 
L 89.570296 135.400996 
L 91.299556 135.435367 
L 93.028816 134.959572 
L 94.590728 136.967983 
L 96.319987 136.644816 
L 97.993464 136.497646 
L 99.722724 138.692793 
L 101.396201 87.320092 
L 103.12546 81.421226 
L 104.85472 141.466927 
L 106.528197 141.661748 
L 108.257457 142.462553 
L 109.930934 141.758806 
L 113.389453 143.452035 
L 115.007147 147.591505 
L 116.736407 149.665262 
L 118.409884 149.762321 
L 120.139144 149.648218 
L 121.812621 196.514262 
L 123.54188 200.586098 
L 125.27114 146.311135 
L 126.944617 145.600508 
L 128.673877 142.142808 
L 133.805873 136.888887 
L 135.367785 134.786059 
L 137.097044 130.457611 
L 138.770521 128.895578 
L 140.499781 127.90115 
L 142.173258 127.160333 
L 143.902518 126.575034 
L 145.631777 126.19517 
L 147.305254 125.471841 
L 149.034514 127.233859 
L 152.43725 128.674624 
L 154.16651 129.918478 
L 155.728422 130.645456 
L 157.457682 132.994638 
L 160.860418 134.337667 
L 162.533895 134.619316 
L 164.263155 128.784008 
L 169.395151 125.88106 
L 171.068628 125.174581 
L 172.797888 123.982051 
L 174.527147 123.605299 
L 176.089059 122.353255 
L 181.221056 120.543384 
L 182.894533 119.598369 
L 184.623792 123.999745 
L 188.026529 123.444218 
L 189.755788 122.811116 
L 191.429265 121.675224 
L 193.158525 120.918491 
L 194.887785 119.721374 
L 199.908216 116.993142 
L 203.310952 115.524139 
L 205.040212 115.162119 
L 206.769472 114.958255 
L 208.442949 113.416893 
L 210.172208 112.534516 
L 215.304205 111.612845 
L 216.866116 110.920493 
L 221.998113 111.36966 
L 223.67159 112.290601 
L 227.130109 113.688334 
L 228.803586 116.021055 
L 230.532846 117.700369 
L 232.206323 119.102149 
L 233.935582 120.303458 
L 235.664842 121.212374 
L 237.226754 121.727376 
L 238.956013 122.418175 
L 240.62949 122.95905 
L 242.35875 123.257079 
L 247.490746 123.265362 
L 256.025479 120.333919 
L 257.587391 120.147055 
L 260.990128 118.579302 
L 262.719387 117.945347 
L 264.392864 116.958475 
L 269.524861 115.011564 
L 272.927597 115.244608 
L 274.656857 114.670567 
L 276.386116 114.413669 
L 278.003811 113.622271 
L 279.733071 112.113812 
L 283.135807 110.248865 
L 284.809284 109.507534 
L 288.267803 107.676819 
L 289.94128 106.410581 
L 291.67054 104.860407 
L 293.344017 102.377512 
L 295.073277 100.970394 
L 296.802536 100.73991 
L 298.364448 100.936067 
L 300.093708 101.744039 
L 301.767185 97.759706 
L 303.496444 97.332133 
L 305.169922 98.139988 
L 306.899181 98.625774 
L 310.301918 98.939473 
L 312.031177 99.152711 
L 313.704654 100.049547 
L 315.433914 101.321821 
L 317.163174 101.418584 
L 320.454345 101.889135 
L 322.127822 105.917696 
L 323.857082 106.64323 
L 325.530559 106.26093 
L 327.259818 106.257743 
L 328.989078 106.599465 
L 330.662555 104.260774 
L 332.391815 104.67177 
L 334.065292 104.066002 
L 335.794551 104.648537 
L 337.523811 105.746572 
L 339.085723 105.891261 
L 340.814982 106.339839 
L 342.488459 106.141087 
L 344.217719 106.277688 
L 345.891196 106.79381 
L 347.620456 106.78965 
L 349.349715 106.478746 
L 351.023192 108.837405 
L 352.752452 108.143695 
L 354.425929 108.178753 
L 356.155189 106.148819 
L 357.884448 104.317885 
L 361.231402 102.135645 
L 362.904879 100.530358 
L 364.634139 99.597957 
L 366.307616 98.334182 
L 368.036876 97.271123 
L 369.766135 95.773867 
L 371.439612 94.968097 
L 374.842349 93.910216 
L 378.300868 92.825131 
L 379.86278 90.162496 
L 381.59204 88.651493 
L 383.265517 87.846102 
L 386.668253 85.35009 
L 388.397513 84.220027 
L 390.126772 83.692352 
L 391.80025 82.485893 
L 393.529509 81.616589 
L 395.202986 79.825169 
L 396.932246 79.814192 
L 398.661505 79.460512 
L 400.223417 79.804098 
L 401.952677 78.895196 
L 403.626154 77.581323 
L 405.355414 75.692145 
L 407.028891 76.101152 
L 408.75815 75.871016 
L 410.48741 74.82741 
L 412.160887 74.273586 
L 413.890146 73.332809 
L 415.563623 72.95978 
L 417.292883 71.671689 
L 419.022143 70.749842 
L 420.584055 70.745831 
L 422.313314 71.033187 
L 423.986791 71.093231 
L 425.716051 71.707949 
L 427.389528 70.069702 
L 429.118787 68.984371 
L 430.848047 68.689352 
L 437.65352 65.833914 
L 439.38278 65.386382 
L 441.000474 65.751524 
L 442.729734 67.480541 
L 444.403211 68.73708 
L 446.132471 70.529425 
L 449.535207 74.461176 
L 454.667204 78.841544 
L 458.06994 83.280977 
L 459.7992 85.146475 
L 461.361112 85.660696 
L 463.090371 84.494651 
L 464.763848 83.892757 
L 468.166585 82.198153 
L 469.895845 80.77254 
L 471.625104 80.009281 
L 473.298581 78.989936 
L 475.027841 79.37159 
L 475.027841 79.37159 
" clip-path="url(#p319f85948e)" style="fill: none; stroke: #808080; stroke-opacity: 0.5; stroke-linecap: square"/>
   </g>
   <g id="line2d_40">
    <path d="M 69.209659 135.333984 
L 72.668178 135.80697 
L 74.23009 134.991275 
L 75.95935 131.910436 
L 77.632827 131.915601 
L 79.362086 132.374937 
L 81.035563 125.826046 
L 82.764823 126.356414 
L 84.494083 125.220164 
L 86.16756 127.635003 
L 91.299556 123.953645 
L 93.028816 122.343713 
L 94.590728 121.188669 
L 96.319987 120.2232 
L 97.993464 121.464342 
L 99.722724 123.08793 
L 101.396201 67.836252 
L 103.12546 60.387333 
L 104.85472 129.230182 
L 106.528197 129.929015 
L 108.257457 128.976257 
L 109.930934 129.158184 
L 111.660193 127.919197 
L 113.389453 126.474585 
L 115.007147 125.397941 
L 116.736407 124.88702 
L 118.409884 124.871524 
L 120.139144 124.466991 
L 121.812621 178.369834 
L 123.54188 184.831815 
L 125.27114 123.368064 
L 126.944617 122.078652 
L 128.673877 121.268753 
L 130.347354 118.580102 
L 132.076613 118.215404 
L 133.805873 119.942593 
L 135.367785 119.242807 
L 137.097044 119.224671 
L 138.770521 118.555648 
L 140.499781 118.329056 
L 142.173258 117.261897 
L 143.902518 116.317694 
L 145.631777 115.997268 
L 147.305254 115.548205 
L 149.034514 115.704875 
L 150.707991 115.590021 
L 152.43725 115.041998 
L 154.16651 114.099543 
L 155.728422 114.572683 
L 157.457682 115.963878 
L 159.131159 116.608109 
L 160.860418 116.239258 
L 162.533895 116.563274 
L 164.263155 117.537411 
L 165.992414 116.394286 
L 169.395151 114.705003 
L 171.068628 114.049843 
L 172.797888 113.966966 
L 176.089059 111.782074 
L 177.818319 109.895955 
L 179.491796 108.546472 
L 181.221056 106.043829 
L 182.894533 102.1227 
L 184.623792 99.406168 
L 186.353052 98.522859 
L 188.026529 97.828647 
L 189.755788 96.744591 
L 191.429265 95.959835 
L 193.158525 94.35794 
L 194.887785 92.592066 
L 196.505479 91.711229 
L 198.234739 90.378307 
L 199.908216 88.602108 
L 201.637475 87.728192 
L 203.310952 88.381563 
L 205.040212 87.384324 
L 206.769472 85.386111 
L 208.442949 80.631461 
L 210.172208 77.216679 
L 211.845685 74.37085 
L 213.574945 70.560819 
L 215.304205 67.598659 
L 218.595376 57.961485 
L 220.268853 52.95557 
L 221.998113 52.205106 
L 223.67159 49.790909 
L 225.400849 48.858274 
L 227.130109 48.16358 
L 228.803586 51.638333 
L 230.532846 53.191484 
L 232.206323 54.37161 
L 233.935582 55.289674 
L 235.664842 55.644792 
L 237.226754 56.337859 
L 238.956013 57.289664 
L 240.62949 57.919401 
L 242.35875 56.528622 
L 244.032227 56.1342 
L 245.761487 54.105935 
L 247.490746 54.45738 
L 249.164223 52.974535 
L 250.893483 52.841086 
L 252.56696 54.075006 
L 254.29622 54.943751 
L 256.025479 55.436986 
L 259.316651 57.716354 
L 260.990128 60.444269 
L 262.719387 61.273293 
L 264.392864 62.7099 
L 266.122124 65.728149 
L 267.851384 66.239266 
L 269.524861 68.451378 
L 271.25412 69.998299 
L 272.927597 72.957276 
L 274.656857 75.6429 
L 276.386116 77.615722 
L 278.003811 78.910016 
L 279.733071 80.57075 
L 281.406548 78.282267 
L 283.135807 79.565233 
L 284.809284 79.720785 
L 286.538544 78.993187 
L 288.267803 79.429945 
L 289.94128 80.181996 
L 291.67054 79.933106 
L 295.073277 80.42738 
L 296.802536 78.593029 
L 298.364448 79.401378 
L 300.093708 79.627177 
L 301.767185 82.028493 
L 303.496444 82.117386 
L 305.169922 83.804329 
L 306.899181 83.4745 
L 308.628441 83.744792 
L 310.301918 83.729757 
L 312.031177 84.780145 
L 313.704654 83.178228 
L 315.433914 82.727016 
L 317.163174 85.284791 
L 318.725086 84.295894 
L 320.454345 85.557772 
L 322.127822 85.452821 
L 323.857082 85.053474 
L 325.530559 85.835797 
L 327.259818 88.735784 
L 328.989078 89.71678 
L 330.662555 88.699084 
L 332.391815 90.35857 
L 334.065292 90.083194 
L 335.794551 92.458972 
L 337.523811 92.171717 
L 339.085723 94.272359 
L 340.814982 93.159367 
L 342.488459 95.23854 
L 344.217719 98.293267 
L 345.891196 99.788957 
L 347.620456 100.05245 
L 349.349715 101.692806 
L 351.023192 104.852767 
L 352.752452 106.182302 
L 354.425929 107.699184 
L 356.155189 107.968896 
L 357.884448 109.355415 
L 359.502143 109.125425 
L 361.231402 110.520579 
L 362.904879 110.064041 
L 364.634139 108.797579 
L 366.307616 107.84498 
L 368.036876 107.118559 
L 369.766135 106.267656 
L 373.168872 104.360254 
L 374.842349 103.924872 
L 376.571608 102.804878 
L 379.86278 102.235223 
L 383.265517 101.969017 
L 386.668253 101.945907 
L 388.397513 102.029315 
L 390.126772 102.65527 
L 391.80025 102.891965 
L 393.529509 102.304261 
L 395.202986 102.459015 
L 398.661505 103.204657 
L 400.223417 103.464743 
L 401.952677 104.054063 
L 403.626154 103.703697 
L 407.028891 103.436387 
L 410.48741 103.337587 
L 412.160887 103.735887 
L 413.890146 105.212195 
L 415.563623 105.92646 
L 417.292883 106.350896 
L 420.584055 108.067425 
L 422.313314 108.353171 
L 425.716051 111.237778 
L 427.389528 112.465284 
L 429.118787 113.913175 
L 430.848047 114.389465 
L 432.521524 115.296149 
L 434.250784 115.670241 
L 435.924261 116.437509 
L 439.38278 117.145086 
L 441.000474 118.398463 
L 442.729734 119.010392 
L 444.403211 120.236195 
L 446.132471 120.685825 
L 447.805948 121.512792 
L 449.535207 121.753958 
L 451.264467 122.919292 
L 452.937944 123.251334 
L 454.667204 123.305886 
L 456.340681 123.228627 
L 458.06994 123.862854 
L 459.7992 124.852695 
L 461.361112 123.763665 
L 463.090371 124.993354 
L 464.763848 124.75493 
L 466.493108 125.840393 
L 468.166585 126.008265 
L 469.895845 126.343116 
L 471.625104 126.18509 
L 473.298581 127.128831 
L 475.027841 127.745659 
L 475.027841 127.745659 
" clip-path="url(#p319f85948e)" style="fill: none; stroke: #808080; stroke-opacity: 0.5; stroke-linecap: square"/>
   </g>
   <g id="line2d_41">
    <path d="M 113.389453 118.065698 
L 115.007147 117.931008 
L 116.736407 115.854108 
L 120.139144 112.202356 
L 121.812621 177.215245 
L 123.54188 184.435129 
L 125.27114 103.418738 
L 126.944617 98.306795 
L 128.673877 94.533247 
L 132.076613 85.149719 
L 133.805873 82.785152 
L 135.367785 80.025783 
L 137.097044 78.808002 
L 138.770521 77.001586 
L 140.499781 76.690084 
L 143.902518 73.966625 
L 145.631777 73.057769 
L 147.305254 72.69381 
L 149.034514 73.264576 
L 150.707991 73.000164 
L 152.43725 73.078825 
L 155.728422 72.009669 
L 157.457682 72.294603 
L 159.131159 73.578106 
L 160.860418 73.740444 
L 162.533895 74.901254 
L 164.263155 74.951218 
L 165.992414 73.957896 
L 167.665892 73.426269 
L 169.395151 72.07521 
L 171.068628 71.58013 
L 172.797888 70.528723 
L 174.527147 70.029811 
L 176.089059 69.94508 
L 177.818319 68.958006 
L 179.491796 67.687872 
L 181.221056 65.25116 
L 182.894533 61.769931 
L 184.623792 58.548232 
L 186.353052 56.919324 
L 188.026529 55.965338 
L 189.755788 54.311596 
L 191.429265 52.310718 
L 193.158525 51.270954 
L 194.887785 50.404623 
L 196.505479 50.18002 
L 198.234739 48.986634 
L 199.908216 47.68233 
L 201.637475 46.749942 
L 203.310952 46.686895 
L 205.040212 46.916834 
L 206.769472 46.472102 
L 208.442949 47.380939 
L 211.845685 52.340871 
L 213.574945 57.619114 
L 215.304205 62.214953 
L 218.595376 69.106044 
L 220.268853 73.080826 
L 223.67159 79.015689 
L 225.400849 81.97855 
L 227.130109 85.311054 
L 228.803586 86.866264 
L 230.532846 87.501533 
L 232.206323 88.663948 
L 235.664842 84.469019 
L 237.226754 83.739843 
L 238.956013 83.09062 
L 240.62949 82.997634 
L 242.35875 81.556933 
L 244.032227 84.567008 
L 247.490746 88.716317 
L 249.164223 91.256265 
L 250.893483 92.744146 
L 252.56696 93.549856 
L 254.29622 95.322421 
L 256.025479 97.531494 
L 257.587391 99.207482 
L 259.316651 101.360453 
L 260.990128 101.969672 
L 262.719387 105.176158 
L 264.392864 104.4934 
L 267.851384 106.008965 
L 269.524861 105.920922 
L 271.25412 106.717459 
L 272.927597 109.082777 
L 274.656857 110.143097 
L 276.386116 110.620844 
L 279.733071 110.726485 
L 281.406548 111.279914 
L 283.135807 111.529163 
L 284.809284 111.23383 
L 286.538544 111.101427 
L 288.267803 110.547582 
L 291.67054 110.293964 
L 293.344017 108.838785 
L 295.073277 108.393164 
L 296.802536 108.291054 
L 300.093708 107.689326 
L 301.767185 106.82013 
L 306.899181 105.120604 
L 308.628441 104.334792 
L 310.301918 103.906047 
L 312.031177 103.726106 
L 313.704654 104.423156 
L 317.163174 104.730796 
L 318.725086 104.912245 
L 320.454345 105.478228 
L 322.127822 107.259045 
L 323.857082 108.827292 
L 325.530559 110.789316 
L 327.259818 112.362828 
L 328.989078 114.580597 
L 330.662555 116.521387 
L 332.391815 118.841497 
L 334.065292 120.572335 
L 335.794551 122.691306 
L 337.523811 124.332737 
L 340.814982 126.066529 
L 342.488459 126.583087 
L 344.217719 126.682476 
L 349.349715 126.041527 
L 351.023192 125.213356 
L 356.155189 120.32378 
L 357.884448 119.525095 
L 359.502143 118.944029 
L 362.904879 117.232161 
L 364.634139 116.07339 
L 366.307616 114.539616 
L 368.036876 113.271796 
L 369.766135 111.530154 
L 371.439612 110.591097 
L 373.168872 110.693701 
L 374.842349 110.991778 
L 376.571608 110.768201 
L 378.300868 110.080835 
L 379.86278 109.302527 
L 381.59204 108.069609 
L 383.265517 107.250988 
L 390.126772 106.83227 
L 391.80025 107.522824 
L 393.529509 106.751317 
L 396.932246 105.861818 
L 398.661505 106.316784 
L 400.223417 107.399953 
L 401.952677 108.391205 
L 405.355414 109.688148 
L 407.028891 110.467948 
L 412.160887 113.896007 
L 413.890146 115.515585 
L 415.563623 116.088716 
L 417.292883 116.940762 
L 419.022143 117.477618 
L 420.584055 117.638827 
L 422.313314 117.536848 
L 423.986791 117.957389 
L 429.118787 118.531538 
L 430.848047 118.559021 
L 434.250784 117.752921 
L 435.924261 116.933232 
L 439.38278 113.99424 
L 441.000474 113.835916 
L 442.729734 114.822123 
L 444.403211 114.64461 
L 446.132471 115.174548 
L 447.805948 115.175076 
L 449.535207 114.762356 
L 451.264467 114.732744 
L 452.937944 114.376027 
L 454.667204 114.150414 
L 456.340681 115.210285 
L 458.06994 115.887174 
L 459.7992 115.943074 
L 461.361112 114.863596 
L 468.166585 109.335797 
L 469.895845 108.074141 
L 471.625104 106.306729 
L 473.298581 104.423854 
L 475.027841 102.221182 
L 475.027841 102.221182 
" clip-path="url(#p319f85948e)" style="fill: none; stroke: #808080; stroke-opacity: 0.5; stroke-linecap: square"/>
   </g>
   <g id="line2d_42">
    <path d="M 69.209659 95.208016 
L 72.668178 108.125787 
L 74.23009 111.419735 
L 75.95935 105.719621 
L 77.632827 108.885638 
L 79.362086 115.092616 
L 81.035563 117.508855 
L 82.764823 117.84523 
L 84.494083 121.631072 
L 86.16756 117.932491 
L 87.896819 117.068975 
L 89.570296 115.908406 
L 91.299556 114.934334 
L 93.028816 113.177751 
L 94.590728 115.296428 
L 96.319987 126.672122 
L 97.993464 133.173737 
L 99.722724 136.724092 
L 101.396201 96.041052 
L 103.12546 96.512759 
L 104.85472 152.593321 
L 106.528197 158.939118 
L 108.257457 164.717953 
L 109.930934 170.918912 
L 111.660193 173.90434 
L 113.389453 177.96494 
L 115.007147 176.353751 
L 116.736407 174.283892 
L 118.409884 173.832586 
L 120.139144 174.414436 
L 121.812621 211.64369 
L 123.54188 214.756364 
L 125.27114 169.155714 
L 126.944617 165.757706 
L 128.673877 170.329077 
L 130.347354 172.257739 
L 132.076613 171.26953 
L 133.805873 168.859611 
L 135.367785 168.394502 
L 137.097044 166.517427 
L 138.770521 165.538702 
L 140.499781 161.996407 
L 142.173258 160.710498 
L 143.902518 158.142039 
L 145.631777 156.270857 
L 147.305254 154.89627 
L 149.034514 146.695635 
L 150.707991 140.983356 
L 152.43725 137.233279 
L 154.16651 137.184351 
L 155.728422 138.40324 
L 159.131159 140.095915 
L 160.860418 145.19965 
L 162.533895 145.114735 
L 164.263155 144.617362 
L 167.665892 145.278634 
L 169.395151 147.407933 
L 171.068628 146.194485 
L 172.797888 146.548838 
L 174.527147 145.061352 
L 176.089059 141.617031 
L 177.818319 139.455425 
L 179.491796 135.548703 
L 181.221056 130.202506 
L 182.894533 127.927612 
L 184.623792 127.757647 
L 186.353052 125.846263 
L 188.026529 124.927734 
L 189.755788 119.926158 
L 191.429265 120.405508 
L 194.887785 121.054391 
L 196.505479 122.509335 
L 198.234739 122.717084 
L 199.908216 125.574925 
L 201.637475 127.500509 
L 203.310952 129.13277 
L 206.769472 128.78279 
L 208.442949 128.333396 
L 210.172208 129.7254 
L 211.845685 129.418248 
L 213.574945 128.972095 
L 215.304205 127.520083 
L 216.866116 126.869908 
L 218.595376 127.245219 
L 220.268853 120.405321 
L 221.998113 119.538163 
L 225.400849 119.290526 
L 227.130109 118.301042 
L 228.803586 119.2697 
L 230.532846 118.626516 
L 232.206323 115.227865 
L 233.935582 115.231797 
L 235.664842 117.14891 
L 237.226754 117.924619 
L 238.956013 117.300527 
L 240.62949 122.611172 
L 242.35875 122.824664 
L 244.032227 122.720278 
L 245.761487 121.771402 
L 247.490746 123.280676 
L 249.164223 123.238848 
L 250.893483 122.100503 
L 252.56696 131.067641 
L 254.29622 130.883193 
L 256.025479 128.963657 
L 257.587391 127.448356 
L 259.316651 126.678449 
L 260.990128 126.828751 
L 262.719387 125.669715 
L 264.392864 124.729023 
L 266.122124 125.314235 
L 267.851384 124.487833 
L 269.524861 124.060266 
L 271.25412 126.484941 
L 272.927597 121.53459 
L 274.656857 122.289845 
L 276.386116 122.155251 
L 278.003811 123.989177 
L 279.733071 125.495686 
L 281.406548 125.92014 
L 283.135807 127.410184 
L 284.809284 126.992392 
L 286.538544 127.862518 
L 288.267803 129.122235 
L 289.94128 129.546816 
L 291.67054 130.347667 
L 293.344017 130.050309 
L 295.073277 129.895374 
L 296.802536 132.200156 
L 300.093708 129.553766 
L 301.767185 128.334517 
L 303.496444 128.977012 
L 305.169922 128.668827 
L 306.899181 128.225681 
L 308.628441 128.746076 
L 310.301918 128.330291 
L 312.031177 128.307945 
L 313.704654 128.710375 
L 315.433914 128.107999 
L 317.163174 126.632478 
L 318.725086 126.85206 
L 322.127822 127.57632 
L 323.857082 123.816871 
L 325.530559 125.543133 
L 327.259818 126.653398 
L 328.989078 125.338393 
L 330.662555 126.919928 
L 332.391815 126.359252 
L 334.065292 126.689617 
L 337.523811 130.249692 
L 340.814982 132.727141 
L 342.488459 134.255886 
L 344.217719 125.933106 
L 345.891196 124.81708 
L 347.620456 123.11774 
L 349.349715 121.922264 
L 351.023192 118.308901 
L 352.752452 116.002229 
L 357.884448 107.103914 
L 359.502143 104.505129 
L 361.231402 102.320727 
L 362.904879 98.351097 
L 364.634139 105.927828 
L 366.307616 104.165388 
L 368.036876 103.062834 
L 369.766135 102.481861 
L 371.439612 102.108266 
L 373.168872 100.495762 
L 374.842349 100.517012 
L 376.571608 99.499337 
L 378.300868 99.106109 
L 379.86278 96.375584 
L 381.59204 95.032294 
L 383.265517 94.353438 
L 384.994776 96.66257 
L 386.668253 95.788946 
L 388.397513 93.141648 
L 390.126772 91.15889 
L 391.80025 89.494129 
L 393.529509 87.217278 
L 395.202986 84.079746 
L 396.932246 83.430772 
L 398.661505 82.092488 
L 400.223417 81.150345 
L 401.952677 79.36183 
L 403.626154 79.093341 
L 405.355414 75.211675 
L 407.028891 73.209289 
L 408.75815 71.334057 
L 410.48741 71.833887 
L 412.160887 71.909073 
L 413.890146 71.094139 
L 415.563623 71.543963 
L 417.292883 70.00776 
L 420.584055 70.010929 
L 422.313314 69.219953 
L 423.986791 67.765664 
L 425.716051 67.76626 
L 427.389528 67.292363 
L 429.118787 67.740944 
L 432.521524 64.841359 
L 434.250784 65.696021 
L 435.924261 64.658566 
L 437.65352 65.492567 
L 439.38278 41.400978 
L 441.000474 40.607818 
L 442.729734 42.888322 
L 444.403211 42.338504 
L 446.132471 44.59078 
L 447.805948 49.697559 
L 449.535207 53.067105 
L 451.264467 57.337722 
L 452.937944 60.394011 
L 454.667204 64.34191 
L 456.340681 68.86942 
L 458.06994 71.058991 
L 459.7992 96.314951 
L 461.361112 101.167594 
L 463.090371 102.12281 
L 464.763848 106.288445 
L 466.493108 106.680124 
L 468.166585 106.272349 
L 469.895845 107.013681 
L 471.625104 106.008192 
L 473.298581 107.151801 
L 475.027841 107.503184 
L 475.027841 107.503184 
" clip-path="url(#p319f85948e)" style="fill: none; stroke: #808080; stroke-opacity: 0.5; stroke-linecap: square"/>
   </g>
   <g id="line2d_43">
    <path d="M 69.209659 160.7594 
L 70.938919 164.138478 
L 72.668178 162.10043 
L 74.23009 163.080162 
L 75.95935 162.936192 
L 77.632827 166.308136 
L 79.362086 167.878776 
L 81.035563 167.68382 
L 82.764823 166.742776 
L 84.494083 166.988744 
L 86.16756 168.925008 
L 87.896819 169.546505 
L 89.570296 171.0679 
L 91.299556 171.315303 
L 93.028816 173.40582 
L 94.590728 173.037913 
L 99.722724 166.941216 
L 101.396201 131.300713 
L 103.12546 125.185174 
L 104.85472 165.742172 
L 106.528197 167.890266 
L 108.257457 168.992103 
L 109.930934 171.56145 
L 111.660193 168.843329 
L 113.389453 170.62912 
L 116.736407 175.326424 
L 118.409884 175.192165 
L 120.139144 177.609275 
L 121.812621 207.65484 
L 123.54188 212.980973 
L 125.27114 179.949608 
L 126.944617 178.818336 
L 128.673877 179.454516 
L 130.347354 175.015478 
L 132.076613 173.719328 
L 133.805873 174.836887 
L 137.097044 171.231787 
L 138.770521 167.258802 
L 140.499781 159.900055 
L 142.173258 159.295075 
L 145.631777 158.836533 
L 147.305254 159.068261 
L 149.034514 157.667333 
L 150.707991 157.808937 
L 152.43725 157.303311 
L 154.16651 154.460924 
L 155.728422 173.518706 
L 157.457682 151.521257 
L 159.131159 151.82475 
L 160.860418 153.305035 
L 162.533895 151.063787 
L 164.263155 148.314589 
L 165.992414 145.237377 
L 167.665892 140.979956 
L 169.395151 138.464337 
L 171.068628 135.25558 
L 172.797888 132.360799 
L 174.527147 129.87588 
L 176.089059 107.867831 
L 177.818319 124.755397 
L 179.491796 122.316332 
L 181.221056 120.627862 
L 184.623792 115.163728 
L 186.353052 113.107102 
L 188.026529 111.598547 
L 189.755788 108.827446 
L 191.429265 105.913811 
L 194.887785 100.509137 
L 196.505479 98.779384 
L 198.234739 96.536509 
L 199.908216 94.99103 
L 201.637475 93.722927 
L 206.769472 91.846929 
L 208.442949 93.397869 
L 213.574945 101.646094 
L 215.304205 104.052193 
L 216.866116 106.921749 
L 218.595376 108.830689 
L 221.998113 110.152878 
L 223.67159 110.60095 
L 225.400849 110.641007 
L 227.130109 111.253816 
L 228.803586 110.288727 
L 230.532846 108.388303 
L 232.206323 107.102454 
L 233.935582 105.364103 
L 235.664842 104.862761 
L 237.226754 103.557392 
L 238.956013 102.85121 
L 240.62949 103.903211 
L 242.35875 103.752599 
L 244.032227 105.396177 
L 247.490746 111.976382 
L 249.164223 114.422961 
L 252.56696 118.497104 
L 254.29622 120.20134 
L 257.587391 122.428312 
L 259.316651 124.165117 
L 260.990128 124.921999 
L 262.719387 126.219375 
L 264.392864 126.335913 
L 266.122124 126.123621 
L 267.851384 125.436787 
L 269.524861 124.904879 
L 271.25412 124.221527 
L 272.927597 123.307821 
L 274.656857 122.544843 
L 276.386116 121.614414 
L 278.003811 121.198813 
L 279.733071 120.204043 
L 283.135807 119.239493 
L 284.809284 118.407337 
L 289.94128 113.848262 
L 291.67054 113.158444 
L 295.073277 110.5542 
L 298.364448 109.662823 
L 300.093708 109.581994 
L 301.767185 108.832276 
L 303.496444 107.611971 
L 305.169922 106.921926 
L 306.899181 106.48273 
L 308.628441 105.826484 
L 310.301918 104.918753 
L 312.031177 103.75402 
L 313.704654 102.992022 
L 315.433914 103.047166 
L 317.163174 102.892913 
L 320.454345 103.166155 
L 323.857082 104.598296 
L 325.530559 105.094778 
L 327.259818 105.764087 
L 328.989078 106.741586 
L 332.391815 110.549916 
L 334.065292 112.03772 
L 335.794551 113.399173 
L 337.523811 114.492757 
L 339.085723 114.713764 
L 340.814982 115.284129 
L 344.217719 115.612361 
L 347.620456 117.194863 
L 349.349715 118.427255 
L 351.023192 118.995693 
L 352.752452 119.146214 
L 354.425929 119.781921 
L 357.884448 120.733877 
L 359.502143 121.059976 
L 361.231402 120.788028 
L 362.904879 120.982223 
L 364.634139 121.362641 
L 366.307616 121.332168 
L 368.036876 120.928538 
L 371.439612 119.08729 
L 373.168872 118.768862 
L 374.842349 119.049321 
L 378.300868 116.831704 
L 379.86278 115.594049 
L 381.59204 115.157034 
L 383.265517 114.335015 
L 384.994776 112.773764 
L 386.668253 110.714965 
L 388.397513 109.229775 
L 390.126772 108.085303 
L 391.80025 108.04068 
L 393.529509 107.312754 
L 396.932246 104.770928 
L 400.223417 103.230784 
L 401.952677 101.999606 
L 403.626154 101.707581 
L 405.355414 102.410788 
L 410.48741 102.494732 
L 413.890146 101.741946 
L 415.563623 100.578888 
L 417.292883 99.874232 
L 422.313314 97.123047 
L 425.716051 94.414767 
L 427.389528 93.92671 
L 429.118787 94.330079 
L 430.848047 94.369817 
L 434.250784 95.644738 
L 435.924261 95.651675 
L 437.65352 96.082843 
L 439.38278 97.633377 
L 441.000474 101.28707 
L 442.729734 105.495131 
L 444.403211 109.171662 
L 446.132471 113.298675 
L 447.805948 116.922803 
L 451.264467 121.880132 
L 452.937944 123.475177 
L 454.667204 125.379547 
L 458.06994 130.478142 
L 459.7992 132.388639 
L 461.361112 132.758701 
L 464.763848 132.102191 
L 466.493108 130.712003 
L 471.625104 128.197389 
L 473.298581 127.973575 
L 475.027841 127.418941 
L 475.027841 127.418941 
" clip-path="url(#p319f85948e)" style="fill: none; stroke: #808080; stroke-opacity: 0.5; stroke-linecap: square"/>
   </g>
   <g id="line2d_44">
    <path d="M 69.209659 121.548569 
L 70.938919 124.04978 
L 72.668178 124.741798 
L 74.23009 127.989046 
L 75.95935 128.954857 
L 77.632827 130.196631 
L 79.362086 131.278322 
L 81.035563 131.342688 
L 82.764823 129.932848 
L 84.494083 130.554242 
L 86.16756 131.55244 
L 87.896819 131.925512 
L 89.570296 131.871041 
L 91.299556 130.934502 
L 93.028816 130.841701 
L 96.319987 127.232826 
L 97.993464 125.929651 
L 99.722724 127.062759 
L 101.396201 66.523866 
L 103.12546 61.380548 
L 104.85472 129.627194 
L 106.528197 129.15192 
L 109.930934 130.060702 
L 111.660193 130.97367 
L 113.389453 131.555991 
L 115.007147 131.798937 
L 116.736407 131.613534 
L 118.409884 130.961671 
L 120.139144 129.460732 
L 121.812621 181.559719 
L 123.54188 185.334796 
L 125.27114 121.573379 
L 128.673877 116.148316 
L 130.347354 114.050399 
L 133.805873 108.272974 
L 135.367785 105.751623 
L 137.097044 104.631346 
L 138.770521 102.391639 
L 140.499781 100.797523 
L 142.173258 98.689539 
L 143.902518 96.943145 
L 145.631777 95.590138 
L 149.034514 92.447593 
L 150.707991 89.577092 
L 152.43725 87.365768 
L 154.16651 83.84584 
L 157.457682 78.10011 
L 159.131159 76.412347 
L 160.860418 73.347209 
L 162.533895 71.756999 
L 164.263155 69.31536 
L 165.992414 66.314486 
L 167.665892 62.697417 
L 169.395151 61.004833 
L 171.068628 59.006622 
L 174.527147 60.070701 
L 176.089059 59.920136 
L 177.818319 60.677752 
L 179.491796 61.829186 
L 182.894533 65.21914 
L 184.623792 68.18551 
L 186.353052 70.059486 
L 188.026529 73.26252 
L 189.755788 75.067813 
L 191.429265 77.590764 
L 193.158525 79.480307 
L 194.887785 80.55906 
L 198.234739 81.853977 
L 199.908216 81.824145 
L 201.637475 79.874632 
L 203.310952 78.402839 
L 205.040212 78.301538 
L 206.769472 79.890844 
L 208.442949 80.242227 
L 210.172208 75.90534 
L 211.845685 73.399358 
L 213.574945 72.909058 
L 215.304205 67.296383 
L 216.866116 78.551034 
L 220.268853 87.137671 
L 221.998113 90.570006 
L 223.67159 92.917934 
L 225.400849 95.725897 
L 227.130109 92.131238 
L 228.803586 95.474594 
L 230.532846 101.437407 
L 232.206323 105.378992 
L 233.935582 104.453386 
L 235.664842 109.10003 
L 237.226754 97.981802 
L 238.956013 93.346989 
L 240.62949 89.768204 
L 242.35875 88.032198 
L 244.032227 86.796908 
L 245.761487 83.447292 
L 247.490746 86.446048 
L 249.164223 82.096566 
L 250.893483 79.168633 
L 252.56696 77.08604 
L 254.29622 76.670975 
L 256.025479 76.530019 
L 257.587391 77.548686 
L 259.316651 78.360112 
L 260.990128 77.561441 
L 264.392864 76.72135 
L 266.122124 76.38766 
L 267.851384 76.170279 
L 271.25412 76.210111 
L 272.927597 75.571322 
L 274.656857 75.733104 
L 278.003811 75.643295 
L 279.733071 74.269292 
L 281.406548 74.45652 
L 283.135807 74.215487 
L 284.809284 74.550699 
L 286.538544 74.425511 
L 288.267803 74.737959 
L 291.67054 74.158285 
L 293.344017 74.074561 
L 295.073277 73.5874 
L 296.802536 73.64433 
L 298.364448 72.560117 
L 300.093708 72.224318 
L 301.767185 71.113266 
L 303.496444 70.256262 
L 306.899181 69.006981 
L 308.628441 67.50871 
L 312.031177 66.687929 
L 315.433914 66.901623 
L 317.163174 66.591527 
L 318.725086 66.961483 
L 320.454345 67.856546 
L 322.127822 68.913702 
L 323.857082 68.808626 
L 325.530559 69.015866 
L 328.989078 70.468222 
L 330.662555 70.628583 
L 332.391815 71.048887 
L 334.065292 70.715085 
L 337.523811 70.690584 
L 339.085723 71.262709 
L 342.488459 71.238833 
L 347.620456 71.353464 
L 349.349715 71.698619 
L 351.023192 71.865659 
L 352.752452 71.509054 
L 354.425929 72.018118 
L 356.155189 72.306619 
L 357.884448 70.786857 
L 359.502143 69.851622 
L 361.231402 69.549945 
L 362.904879 68.750612 
L 364.634139 69.545297 
L 366.307616 69.151216 
L 368.036876 68.575993 
L 369.766135 68.209347 
L 371.439612 68.32042 
L 373.168872 69.288335 
L 374.842349 68.659296 
L 376.571608 68.620854 
L 378.300868 70.585884 
L 379.86278 70.466831 
L 381.59204 70.724157 
L 383.265517 70.628975 
L 384.994776 69.909502 
L 386.668253 69.05783 
L 388.397513 68.330624 
L 390.126772 67.846718 
L 391.80025 67.594446 
L 393.529509 66.218502 
L 396.932246 65.289416 
L 398.661505 64.450833 
L 400.223417 63.883071 
L 401.952677 63.441901 
L 403.626154 63.921963 
L 405.355414 63.880042 
L 407.028891 63.091715 
L 408.75815 62.590445 
L 410.48741 61.487006 
L 412.160887 60.583315 
L 413.890146 60.73242 
L 415.563623 60.258067 
L 417.292883 58.747096 
L 419.022143 58.169175 
L 422.313314 56.663277 
L 423.986791 55.320806 
L 425.716051 54.728352 
L 427.389528 55.060083 
L 429.118787 56.166899 
L 430.848047 56.39316 
L 432.521524 56.299756 
L 434.250784 55.777274 
L 435.924261 55.492898 
L 437.65352 56.331709 
L 439.38278 57.506862 
L 441.000474 60.51085 
L 442.729734 66.426586 
L 444.403211 71.085394 
L 446.132471 75.063547 
L 447.805948 78.556887 
L 449.535207 79.261947 
L 452.937944 82.794592 
L 454.667204 85.03834 
L 458.06994 88.88614 
L 459.7992 90.541607 
L 461.361112 89.531609 
L 463.090371 86.535117 
L 464.763848 84.267814 
L 468.166585 80.907376 
L 475.027841 78.772263 
L 475.027841 78.772263 
" clip-path="url(#p319f85948e)" style="fill: none; stroke: #808080; stroke-opacity: 0.5; stroke-linecap: square"/>
   </g>
   <g id="patch_3">
    <path d="M 48.91875 224.64 
L 48.91875 7.2 
" style="fill: none; stroke: #000000; stroke-width: 0.8; stroke-linejoin: miter; stroke-linecap: square"/>
   </g>
   <g id="patch_4">
    <path d="M 48.91875 224.64 
L 495.31875 224.64 
" style="fill: none; stroke: #000000; stroke-width: 0.8; stroke-linejoin: miter; stroke-linecap: square"/>
   </g>
   <g id="line2d_45">
    <path d="M 69.209659 69.743203 
L 70.938919 75.80457 
L 72.668178 80.674136 
L 74.23009 86.068644 
L 75.95935 89.421868 
L 77.632827 94.632722 
L 79.362086 98.534368 
L 81.035563 99.029343 
L 82.764823 102.377228 
L 84.494083 101.743565 
L 86.16756 103.27326 
L 87.896819 103.266708 
L 91.299556 100.955006 
L 93.028816 105.12583 
L 94.590728 105.560091 
L 96.319987 105.894474 
L 97.993464 105.787457 
L 99.722724 106.632281 
L 101.396201 109.543641 
L 103.12546 111.704622 
L 104.85472 114.433386 
L 106.528197 114.293244 
L 108.257457 114.541189 
L 109.930934 118.683124 
L 111.660193 120.52867 
L 113.389453 117.323814 
L 115.007147 118.327664 
L 116.736407 117.993092 
L 118.409884 118.022427 
L 120.139144 115.829021 
L 121.812621 114.820632 
L 123.54188 111.436179 
L 125.27114 100.131768 
L 126.944617 98.667383 
L 128.673877 96.445766 
L 130.347354 93.82754 
L 132.076613 89.800728 
L 133.805873 86.28967 
L 135.367785 82.220077 
L 138.770521 77.495568 
L 140.499781 76.882315 
L 142.173258 74.048127 
L 143.902518 74.041524 
L 145.631777 80.889173 
L 147.305254 80.20094 
L 149.034514 80.007607 
L 150.707991 78.154495 
L 154.16651 81.614543 
L 155.728422 120.173833 
L 157.457682 81.699855 
L 159.131159 81.514201 
L 160.860418 81.092664 
L 162.533895 80.93179 
L 164.263155 80.221387 
L 167.665892 77.754679 
L 169.395151 77.357588 
L 171.068628 76.826345 
L 172.797888 74.775492 
L 174.527147 73.056001 
L 176.089059 38.256578 
L 177.818319 71.530482 
L 179.491796 71.059324 
L 181.221056 70.128596 
L 184.623792 66.99595 
L 186.353052 65.986866 
L 189.755788 64.555148 
L 191.429265 64.693029 
L 193.158525 65.767983 
L 194.887785 65.800129 
L 196.505479 68.693353 
L 198.234739 75.503118 
L 199.908216 81.143631 
L 201.637475 86.002827 
L 206.769472 107.056732 
L 208.442949 67.509855 
L 210.172208 62.468002 
L 211.845685 58.528427 
L 213.574945 51.380066 
L 215.304205 53.708749 
L 216.866116 53.326598 
L 220.268853 43.854586 
L 221.998113 39.889333 
L 225.400849 29.365914 
L 227.130109 25.18171 
L 228.803586 68.089257 
L 230.532846 74.749025 
L 233.935582 83.767678 
L 235.664842 83.842698 
L 237.226754 83.481621 
L 238.956013 84.540832 
L 240.62949 85.839818 
L 242.35875 86.486495 
L 245.761487 86.068567 
L 247.490746 85.634207 
L 249.164223 84.727242 
L 250.893483 83.654326 
L 252.56696 83.966712 
L 254.29622 84.553791 
L 256.025479 84.953091 
L 257.587391 86.054785 
L 259.316651 85.519796 
L 260.990128 84.776337 
L 262.719387 85.635848 
L 264.392864 86.640088 
L 266.122124 87.254629 
L 267.851384 86.531459 
L 271.25412 88.430691 
L 272.927597 87.627791 
L 274.656857 86.623019 
L 276.386116 84.985967 
L 278.003811 82.716059 
L 279.733071 82.81048 
L 281.406548 82.036926 
L 283.135807 81.059844 
L 284.809284 79.813862 
L 286.538544 78.994983 
L 288.267803 79.190885 
L 289.94128 78.215152 
L 291.67054 77.468341 
L 293.344017 76.945606 
L 295.073277 77.123566 
L 296.802536 77.595996 
L 298.364448 76.717619 
L 300.093708 74.876247 
L 303.496444 73.403475 
L 305.169922 73.3652 
L 306.899181 73.1078 
L 310.301918 72.249864 
L 312.031177 71.480421 
L 313.704654 70.425114 
L 315.433914 68.695879 
L 317.163174 67.263633 
L 318.725086 66.803029 
L 322.127822 66.213531 
L 325.530559 62.731179 
L 327.259818 60.773868 
L 328.989078 59.159563 
L 332.391815 54.754492 
L 334.065292 53.095419 
L 337.523811 51.81411 
L 339.085723 50.429536 
L 340.814982 49.091507 
L 342.488459 48.193408 
L 344.217719 47.974275 
L 345.891196 47.886313 
L 347.620456 48.288145 
L 349.349715 48.313604 
L 351.023192 48.677869 
L 352.752452 49.31807 
L 354.425929 50.82364 
L 356.155189 51.3044 
L 357.884448 50.872538 
L 359.502143 52.189511 
L 361.231402 52.522808 
L 362.904879 51.079927 
L 364.634139 50.280994 
L 366.307616 48.67786 
L 368.036876 47.646066 
L 371.439612 45.949606 
L 373.168872 44.824178 
L 374.842349 43.329009 
L 376.571608 41.966489 
L 378.300868 39.5647 
L 379.86278 35.59432 
L 381.59204 33.68429 
L 383.265517 32.941845 
L 384.994776 32.474019 
L 386.668253 32.372186 
L 388.397513 31.126637 
L 390.126772 30.199886 
L 391.80025 29.870619 
L 393.529509 28.804387 
L 395.202986 26.713596 
L 396.932246 26.014555 
L 398.661505 27.797115 
L 400.223417 31.65445 
L 401.952677 32.784925 
L 403.626154 31.102849 
L 405.355414 31.419145 
L 407.028891 31.30504 
L 408.75815 30.908885 
L 410.48741 31.682914 
L 412.160887 28.467119 
L 413.890146 29.282118 
L 415.563623 32.37712 
L 417.292883 33.088737 
L 419.022143 32.824242 
L 420.584055 30.777743 
L 422.313314 33.725266 
L 423.986791 34.726988 
L 427.389528 39.724311 
L 429.118787 37.173439 
L 430.848047 40.380443 
L 432.521524 46.015695 
L 434.250784 45.090455 
L 435.924261 46.136429 
L 437.65352 44.736224 
L 439.38278 42.491115 
L 441.000474 17.083636 
L 442.729734 21.807439 
L 444.403211 30.20689 
L 446.132471 27.779035 
L 447.805948 29.49152 
L 449.535207 37.198531 
L 451.264467 32.964469 
L 452.937944 34.636019 
L 454.667204 38.723846 
L 456.340681 39.478883 
L 458.06994 42.303029 
L 459.7992 44.243981 
L 461.361112 72.073136 
L 463.090371 70.443994 
L 464.763848 67.487247 
L 466.493108 70.350123 
L 468.166585 71.57409 
L 469.895845 71.131045 
L 471.625104 71.664638 
L 473.298581 72.561809 
L 475.027841 63.238731 
L 475.027841 63.238731 
" clip-path="url(#p319f85948e)" style="fill: none; stroke: #2b5aa5; stroke-width: 1.5; stroke-linecap: square"/>
   </g>
  </g>
 </g>
 <defs>
  <clipPath id="p319f85948e">
   <rect x="48.91875" y="7.2" width="446.4" height="217.44"/>
  </clipPath>
 </defs>
</svg>
