<?xml version="1.0" encoding="utf-8" standalone="no"?>
<!DOCTYPE svg PUBLIC "-//W3C//DTD SVG 1.1//EN"
  "http://www.w3.org/Graphics/SVG/1.1/DTD/svg11.dtd">
<svg xmlns:xlink="http://www.w3.org/1999/xlink" width="508.134375pt" height="248.37125pt" viewBox="0 0 508.134375 248.37125" xmlns="http://www.w3.org/2000/svg" version="1.1">
 <metadata>
  <rdf:RDF xmlns:dc="http://purl.org/dc/elements/1.1/" xmlns:cc="http://creativecommons.org/ns#" xmlns:rdf="http://www.w3.org/1999/02/22-rdf-syntax-ns#">
   <cc:Work>
    <dc:type rdf:resource="http://purl.org/dc/dcmitype/StillImage"/>
    <dc:date>2022-01-12T13:15:44.291967</dc:date>
    <dc:format>image/svg+xml</dc:format>
    <dc:creator>
     <cc:Agent>
      <dc:title>Matplotlib v3.5.1, https://matplotlib.org/</dc:title>
     </cc:Agent>
    </dc:creator>
   </cc:Work>
  </rdf:RDF>
 </metadata>
 <defs>
  <style type="text/css">*{stroke-linejoin: round; stroke-linecap: butt}</style>
 </defs>
 <g id="figure_1">
  <g id="patch_1">
   <path d="M 0 248.37125 
L 508.134375 248.37125 
L 508.134375 0 
L 0 0 
z
" style="fill: #ffffff"/>
  </g>
  <g id="axes_1">
   <g id="patch_2">
    <path d="M 54.534375 224.64 
L 500.934375 224.64 
L 500.934375 7.2 
L 54.534375 7.2 
z
" style="fill: #ffffff"/>
   </g>
   <g id="matplotlib.axis_1">
    <g id="xtick_1">
     <g id="line2d_1">
      <path d="M 57.0309 224.64 
L 57.0309 7.2 
" clip-path="url(#pbd1894be1c)" style="fill: none; stroke-dasharray: 2.96,1.28; stroke-dashoffset: 0; stroke: #dddddd; stroke-width: 0.8"/>
     </g>
     <g id="line2d_2">
      <defs>
       <path id="madfe19a65f" d="M 0 0 
L 0 3.5 
" style="stroke: #000000; stroke-width: 0.8"/>
      </defs>
      <g>
       <use xlink:href="#madfe19a65f" x="57.0309" y="224.64" style="stroke: #000000; stroke-width: 0.8"/>
      </g>
     </g>
     <g id="text_1">
      <!-- 2000 -->
      <g transform="translate(45.79965 239.14)scale(0.1 -0.1)">
       <defs>
        <path id="Roboto-Regular-32" d="M 3359 0 
L 378 0 
L 378 416 
L 1953 2166 
Q 2303 2563 2436 2811 
Q 2569 3059 2569 3325 
Q 2569 3681 2353 3909 
Q 2138 4138 1778 4138 
Q 1347 4138 1108 3892 
Q 869 3647 869 3209 
L 291 3209 
Q 291 3838 695 4225 
Q 1100 4613 1778 4613 
Q 2413 4613 2781 4280 
Q 3150 3947 3150 3394 
Q 3150 2722 2294 1794 
L 1075 472 
L 3359 472 
L 3359 0 
z
" transform="scale(0.015625)"/>
        <path id="Roboto-Regular-30" d="M 3231 1941 
Q 3231 925 2884 431 
Q 2538 -63 1800 -63 
Q 1072 -63 722 420 
Q 372 903 359 1863 
L 359 2634 
Q 359 3638 706 4125 
Q 1053 4613 1794 4613 
Q 2528 4613 2875 4142 
Q 3222 3672 3231 2691 
L 3231 1941 
z
M 2653 2731 
Q 2653 3466 2447 3802 
Q 2241 4138 1794 4138 
Q 1350 4138 1147 3803 
Q 944 3469 938 2775 
L 938 1850 
Q 938 1113 1152 761 
Q 1366 409 1800 409 
Q 2228 409 2436 740 
Q 2644 1072 2653 1784 
L 2653 2731 
z
" transform="scale(0.015625)"/>
       </defs>
       <use xlink:href="#Roboto-Regular-32"/>
       <use xlink:href="#Roboto-Regular-30" x="56.152344"/>
       <use xlink:href="#Roboto-Regular-30" x="112.304688"/>
       <use xlink:href="#Roboto-Regular-30" x="168.457031"/>
      </g>
     </g>
    </g>
    <g id="xtick_2">
     <g id="line2d_3">
      <path d="M 95.859839 224.64 
L 95.859839 7.2 
" clip-path="url(#pbd1894be1c)" style="fill: none; stroke-dasharray: 2.96,1.28; stroke-dashoffset: 0; stroke: #dddddd; stroke-width: 0.8"/>
     </g>
     <g id="line2d_4">
      <g>
       <use xlink:href="#madfe19a65f" x="95.859839" y="224.64" style="stroke: #000000; stroke-width: 0.8"/>
      </g>
     </g>
     <g id="text_2">
      <!-- 2002 -->
      <g transform="translate(84.628589 239.14)scale(0.1 -0.1)">
       <use xlink:href="#Roboto-Regular-32"/>
       <use xlink:href="#Roboto-Regular-30" x="56.152344"/>
       <use xlink:href="#Roboto-Regular-30" x="112.304688"/>
       <use xlink:href="#Roboto-Regular-32" x="168.457031"/>
      </g>
     </g>
    </g>
    <g id="xtick_3">
     <g id="line2d_5">
      <path d="M 134.63566 224.64 
L 134.63566 7.2 
" clip-path="url(#pbd1894be1c)" style="fill: none; stroke-dasharray: 2.96,1.28; stroke-dashoffset: 0; stroke: #dddddd; stroke-width: 0.8"/>
     </g>
     <g id="line2d_6">
      <g>
       <use xlink:href="#madfe19a65f" x="134.63566" y="224.64" style="stroke: #000000; stroke-width: 0.8"/>
      </g>
     </g>
     <g id="text_3">
      <!-- 2004 -->
      <g transform="translate(123.40441 239.14)scale(0.1 -0.1)">
       <defs>
        <path id="Roboto-Regular-34" d="M 2819 1528 
L 3450 1528 
L 3450 1056 
L 2819 1056 
L 2819 0 
L 2238 0 
L 2238 1056 
L 166 1056 
L 166 1397 
L 2203 4550 
L 2819 4550 
L 2819 1528 
z
M 822 1528 
L 2238 1528 
L 2238 3759 
L 2169 3634 
L 822 1528 
z
" transform="scale(0.015625)"/>
       </defs>
       <use xlink:href="#Roboto-Regular-32"/>
       <use xlink:href="#Roboto-Regular-30" x="56.152344"/>
       <use xlink:href="#Roboto-Regular-30" x="112.304688"/>
       <use xlink:href="#Roboto-Regular-34" x="168.457031"/>
      </g>
     </g>
    </g>
    <g id="xtick_4">
     <g id="line2d_7">
      <path d="M 173.464599 224.64 
L 173.464599 7.2 
" clip-path="url(#pbd1894be1c)" style="fill: none; stroke-dasharray: 2.96,1.28; stroke-dashoffset: 0; stroke: #dddddd; stroke-width: 0.8"/>
     </g>
     <g id="line2d_8">
      <g>
       <use xlink:href="#madfe19a65f" x="173.464599" y="224.64" style="stroke: #000000; stroke-width: 0.8"/>
      </g>
     </g>
     <g id="text_4">
      <!-- 2006 -->
      <g transform="translate(162.233349 239.14)scale(0.1 -0.1)">
       <defs>
        <path id="Roboto-Regular-36" d="M 2647 4553 
L 2647 4063 
L 2541 4063 
Q 1866 4050 1466 3662 
Q 1066 3275 1003 2572 
Q 1363 2984 1984 2984 
Q 2578 2984 2933 2565 
Q 3288 2147 3288 1484 
Q 3288 781 2905 359 
Q 2522 -63 1878 -63 
Q 1225 -63 819 439 
Q 413 941 413 1731 
L 413 1953 
Q 413 3209 948 3873 
Q 1484 4538 2544 4553 
L 2647 4553 
z
M 1888 2503 
Q 1591 2503 1341 2325 
Q 1091 2147 994 1878 
L 994 1666 
Q 994 1103 1247 759 
Q 1500 416 1878 416 
Q 2269 416 2492 703 
Q 2716 991 2716 1456 
Q 2716 1925 2489 2214 
Q 2263 2503 1888 2503 
z
" transform="scale(0.015625)"/>
       </defs>
       <use xlink:href="#Roboto-Regular-32"/>
       <use xlink:href="#Roboto-Regular-30" x="56.152344"/>
       <use xlink:href="#Roboto-Regular-30" x="112.304688"/>
       <use xlink:href="#Roboto-Regular-36" x="168.457031"/>
      </g>
     </g>
    </g>
    <g id="xtick_5">
     <g id="line2d_9">
      <path d="M 212.24042 224.64 
L 212.24042 7.2 
" clip-path="url(#pbd1894be1c)" style="fill: none; stroke-dasharray: 2.96,1.28; stroke-dashoffset: 0; stroke: #dddddd; stroke-width: 0.8"/>
     </g>
     <g id="line2d_10">
      <g>
       <use xlink:href="#madfe19a65f" x="212.24042" y="224.64" style="stroke: #000000; stroke-width: 0.8"/>
      </g>
     </g>
     <g id="text_5">
      <!-- 2008 -->
      <g transform="translate(201.00917 239.14)scale(0.1 -0.1)">
       <defs>
        <path id="Roboto-Regular-38" d="M 3138 3363 
Q 3138 3022 2958 2756 
Q 2778 2491 2472 2341 
Q 2828 2188 3036 1894 
Q 3244 1600 3244 1228 
Q 3244 638 2845 287 
Q 2447 -63 1797 -63 
Q 1141 -63 745 289 
Q 350 641 350 1228 
Q 350 1597 551 1894 
Q 753 2191 1109 2344 
Q 806 2494 631 2759 
Q 456 3025 456 3363 
Q 456 3938 825 4275 
Q 1194 4613 1797 4613 
Q 2397 4613 2767 4275 
Q 3138 3938 3138 3363 
z
M 2666 1241 
Q 2666 1622 2423 1862 
Q 2181 2103 1790 2103 
Q 1400 2103 1164 1865 
Q 928 1628 928 1240 
Q 928 853 1158 631 
Q 1388 409 1797 409 
Q 2203 409 2434 632 
Q 2666 856 2666 1241 
z
M 1797 4138 
Q 1456 4138 1245 3927 
Q 1034 3716 1034 3353 
Q 1034 3006 1242 2792 
Q 1450 2578 1797 2578 
Q 2144 2578 2351 2792 
Q 2559 3006 2559 3353 
Q 2559 3700 2343 3919 
Q 2128 4138 1797 4138 
z
" transform="scale(0.015625)"/>
       </defs>
       <use xlink:href="#Roboto-Regular-32"/>
       <use xlink:href="#Roboto-Regular-30" x="56.152344"/>
       <use xlink:href="#Roboto-Regular-30" x="112.304688"/>
       <use xlink:href="#Roboto-Regular-38" x="168.457031"/>
      </g>
     </g>
    </g>
    <g id="xtick_6">
     <g id="line2d_11">
      <path d="M 251.069358 224.64 
L 251.069358 7.2 
" clip-path="url(#pbd1894be1c)" style="fill: none; stroke-dasharray: 2.96,1.28; stroke-dashoffset: 0; stroke: #dddddd; stroke-width: 0.8"/>
     </g>
     <g id="line2d_12">
      <g>
       <use xlink:href="#madfe19a65f" x="251.069358" y="224.64" style="stroke: #000000; stroke-width: 0.8"/>
      </g>
     </g>
     <g id="text_6">
      <!-- 2010 -->
      <g transform="translate(239.838108 239.14)scale(0.1 -0.1)">
       <defs>
        <path id="Roboto-Regular-31" d="M 2278 0 
L 1697 0 
L 1697 3853 
L 531 3425 
L 531 3950 
L 2188 4572 
L 2278 4572 
L 2278 0 
z
" transform="scale(0.015625)"/>
       </defs>
       <use xlink:href="#Roboto-Regular-32"/>
       <use xlink:href="#Roboto-Regular-30" x="56.152344"/>
       <use xlink:href="#Roboto-Regular-31" x="112.304688"/>
       <use xlink:href="#Roboto-Regular-30" x="168.457031"/>
      </g>
     </g>
    </g>
    <g id="xtick_7">
     <g id="line2d_13">
      <path d="M 289.845179 224.64 
L 289.845179 7.2 
" clip-path="url(#pbd1894be1c)" style="fill: none; stroke-dasharray: 2.96,1.28; stroke-dashoffset: 0; stroke: #dddddd; stroke-width: 0.8"/>
     </g>
     <g id="line2d_14">
      <g>
       <use xlink:href="#madfe19a65f" x="289.845179" y="224.64" style="stroke: #000000; stroke-width: 0.8"/>
      </g>
     </g>
     <g id="text_7">
      <!-- 2012 -->
      <g transform="translate(278.613929 239.14)scale(0.1 -0.1)">
       <use xlink:href="#Roboto-Regular-32"/>
       <use xlink:href="#Roboto-Regular-30" x="56.152344"/>
       <use xlink:href="#Roboto-Regular-31" x="112.304688"/>
       <use xlink:href="#Roboto-Regular-32" x="168.457031"/>
      </g>
     </g>
    </g>
    <g id="xtick_8">
     <g id="line2d_15">
      <path d="M 328.674118 224.64 
L 328.674118 7.2 
" clip-path="url(#pbd1894be1c)" style="fill: none; stroke-dasharray: 2.96,1.28; stroke-dashoffset: 0; stroke: #dddddd; stroke-width: 0.8"/>
     </g>
     <g id="line2d_16">
      <g>
       <use xlink:href="#madfe19a65f" x="328.674118" y="224.64" style="stroke: #000000; stroke-width: 0.8"/>
      </g>
     </g>
     <g id="text_8">
      <!-- 2014 -->
      <g transform="translate(317.442868 239.14)scale(0.1 -0.1)">
       <use xlink:href="#Roboto-Regular-32"/>
       <use xlink:href="#Roboto-Regular-30" x="56.152344"/>
       <use xlink:href="#Roboto-Regular-31" x="112.304688"/>
       <use xlink:href="#Roboto-Regular-34" x="168.457031"/>
      </g>
     </g>
    </g>
    <g id="xtick_9">
     <g id="line2d_17">
      <path d="M 367.449939 224.64 
L 367.449939 7.2 
" clip-path="url(#pbd1894be1c)" style="fill: none; stroke-dasharray: 2.96,1.28; stroke-dashoffset: 0; stroke: #dddddd; stroke-width: 0.8"/>
     </g>
     <g id="line2d_18">
      <g>
       <use xlink:href="#madfe19a65f" x="367.449939" y="224.64" style="stroke: #000000; stroke-width: 0.8"/>
      </g>
     </g>
     <g id="text_9">
      <!-- 2016 -->
      <g transform="translate(356.218689 239.14)scale(0.1 -0.1)">
       <use xlink:href="#Roboto-Regular-32"/>
       <use xlink:href="#Roboto-Regular-30" x="56.152344"/>
       <use xlink:href="#Roboto-Regular-31" x="112.304688"/>
       <use xlink:href="#Roboto-Regular-36" x="168.457031"/>
      </g>
     </g>
    </g>
    <g id="xtick_10">
     <g id="line2d_19">
      <path d="M 406.278878 224.64 
L 406.278878 7.2 
" clip-path="url(#pbd1894be1c)" style="fill: none; stroke-dasharray: 2.96,1.28; stroke-dashoffset: 0; stroke: #dddddd; stroke-width: 0.8"/>
     </g>
     <g id="line2d_20">
      <g>
       <use xlink:href="#madfe19a65f" x="406.278878" y="224.64" style="stroke: #000000; stroke-width: 0.8"/>
      </g>
     </g>
     <g id="text_10">
      <!-- 2018 -->
      <g transform="translate(395.047628 239.14)scale(0.1 -0.1)">
       <use xlink:href="#Roboto-Regular-32"/>
       <use xlink:href="#Roboto-Regular-30" x="56.152344"/>
       <use xlink:href="#Roboto-Regular-31" x="112.304688"/>
       <use xlink:href="#Roboto-Regular-38" x="168.457031"/>
      </g>
     </g>
    </g>
    <g id="xtick_11">
     <g id="line2d_21">
      <path d="M 445.054699 224.64 
L 445.054699 7.2 
" clip-path="url(#pbd1894be1c)" style="fill: none; stroke-dasharray: 2.96,1.28; stroke-dashoffset: 0; stroke: #dddddd; stroke-width: 0.8"/>
     </g>
     <g id="line2d_22">
      <g>
       <use xlink:href="#madfe19a65f" x="445.054699" y="224.64" style="stroke: #000000; stroke-width: 0.8"/>
      </g>
     </g>
     <g id="text_11">
      <!-- 2020 -->
      <g transform="translate(433.823449 239.14)scale(0.1 -0.1)">
       <use xlink:href="#Roboto-Regular-32"/>
       <use xlink:href="#Roboto-Regular-30" x="56.152344"/>
       <use xlink:href="#Roboto-Regular-32" x="112.304688"/>
       <use xlink:href="#Roboto-Regular-30" x="168.457031"/>
      </g>
     </g>
    </g>
    <g id="xtick_12">
     <g id="line2d_23">
      <path d="M 483.883637 224.64 
L 483.883637 7.2 
" clip-path="url(#pbd1894be1c)" style="fill: none; stroke-dasharray: 2.96,1.28; stroke-dashoffset: 0; stroke: #dddddd; stroke-width: 0.8"/>
     </g>
     <g id="line2d_24">
      <g>
       <use xlink:href="#madfe19a65f" x="483.883637" y="224.64" style="stroke: #000000; stroke-width: 0.8"/>
      </g>
     </g>
     <g id="text_12">
      <!-- 2022 -->
      <g transform="translate(472.652387 239.14)scale(0.1 -0.1)">
       <use xlink:href="#Roboto-Regular-32"/>
       <use xlink:href="#Roboto-Regular-30" x="56.152344"/>
       <use xlink:href="#Roboto-Regular-32" x="112.304688"/>
       <use xlink:href="#Roboto-Regular-32" x="168.457031"/>
      </g>
     </g>
    </g>
   </g>
   <g id="matplotlib.axis_2">
    <g id="ytick_1">
     <g id="line2d_25">
      <path d="M 54.534375 217.754919 
L 500.934375 217.754919 
" clip-path="url(#pbd1894be1c)" style="fill: none; stroke-dasharray: 2.96,1.28; stroke-dashoffset: 0; stroke: #dddddd; stroke-width: 0.8"/>
     </g>
     <g id="line2d_26">
      <defs>
       <path id="med15b83fc2" d="M 0 0 
L -3.5 0 
" style="stroke: #000000; stroke-width: 0.8"/>
      </defs>
      <g>
       <use xlink:href="#med15b83fc2" x="54.534375" y="217.754919" style="stroke: #000000; stroke-width: 0.8"/>
      </g>
     </g>
     <g id="text_13">
      <!-- 0.0% -->
      <g transform="translate(26.346875 221.504919)scale(0.1 -0.1)">
       <defs>
        <path id="Roboto-Regular-2e" d="M 450 303 
Q 450 453 539 553 
Q 628 653 806 653 
Q 984 653 1076 553 
Q 1169 453 1169 303 
Q 1169 159 1076 62 
Q 984 -34 806 -34 
Q 628 -34 539 62 
Q 450 159 450 303 
z
" transform="scale(0.015625)"/>
        <path id="Roboto-Regular-25" d="M 328 3675 
Q 328 4084 589 4350 
Q 850 4616 1259 4616 
Q 1675 4616 1933 4348 
Q 2191 4081 2191 3656 
L 2191 3434 
Q 2191 3022 1930 2761 
Q 1669 2500 1266 2500 
Q 859 2500 593 2761 
Q 328 3022 328 3456 
L 328 3675 
z
M 759 3434 
Q 759 3191 896 3033 
Q 1034 2875 1266 2875 
Q 1488 2875 1623 3028 
Q 1759 3181 1759 3447 
L 1759 3675 
Q 1759 3919 1625 4078 
Q 1491 4238 1259 4238 
Q 1028 4238 893 4078 
Q 759 3919 759 3663 
L 759 3434 
z
M 2544 1116 
Q 2544 1525 2805 1789 
Q 3066 2053 3475 2053 
Q 3884 2053 4146 1790 
Q 4409 1528 4409 1094 
L 4409 872 
Q 4409 463 4148 198 
Q 3888 -66 3481 -66 
Q 3075 -66 2809 195 
Q 2544 456 2544 891 
L 2544 1116 
z
M 2975 872 
Q 2975 625 3112 467 
Q 3250 309 3481 309 
Q 3706 309 3840 464 
Q 3975 619 3975 884 
L 3975 1116 
Q 3975 1363 3839 1519 
Q 3703 1675 3475 1675 
Q 3253 1675 3114 1520 
Q 2975 1366 2975 1103 
L 2975 872 
z
M 1397 344 
L 1069 550 
L 3291 4106 
L 3619 3900 
L 1397 344 
z
" transform="scale(0.015625)"/>
       </defs>
       <use xlink:href="#Roboto-Regular-30"/>
       <use xlink:href="#Roboto-Regular-2e" x="56.152344"/>
       <use xlink:href="#Roboto-Regular-30" x="82.470703"/>
       <use xlink:href="#Roboto-Regular-25" x="138.623047"/>
      </g>
     </g>
    </g>
    <g id="ytick_2">
     <g id="line2d_27">
      <path d="M 54.534375 188.451129 
L 500.934375 188.451129 
" clip-path="url(#pbd1894be1c)" style="fill: none; stroke-dasharray: 2.96,1.28; stroke-dashoffset: 0; stroke: #dddddd; stroke-width: 0.8"/>
     </g>
     <g id="line2d_28">
      <g>
       <use xlink:href="#med15b83fc2" x="54.534375" y="188.451129" style="stroke: #000000; stroke-width: 0.8"/>
      </g>
     </g>
     <g id="text_14">
      <!-- 2.0% -->
      <g transform="translate(26.346875 192.201129)scale(0.1 -0.1)">
       <use xlink:href="#Roboto-Regular-32"/>
       <use xlink:href="#Roboto-Regular-2e" x="56.152344"/>
       <use xlink:href="#Roboto-Regular-30" x="82.470703"/>
       <use xlink:href="#Roboto-Regular-25" x="138.623047"/>
      </g>
     </g>
    </g>
    <g id="ytick_3">
     <g id="line2d_29">
      <path d="M 54.534375 159.147338 
L 500.934375 159.147338 
" clip-path="url(#pbd1894be1c)" style="fill: none; stroke-dasharray: 2.96,1.28; stroke-dashoffset: 0; stroke: #dddddd; stroke-width: 0.8"/>
     </g>
     <g id="line2d_30">
      <g>
       <use xlink:href="#med15b83fc2" x="54.534375" y="159.147338" style="stroke: #000000; stroke-width: 0.8"/>
      </g>
     </g>
     <g id="text_15">
      <!-- 4.0% -->
      <g transform="translate(26.346875 162.897338)scale(0.1 -0.1)">
       <use xlink:href="#Roboto-Regular-34"/>
       <use xlink:href="#Roboto-Regular-2e" x="56.152344"/>
       <use xlink:href="#Roboto-Regular-30" x="82.470703"/>
       <use xlink:href="#Roboto-Regular-25" x="138.623047"/>
      </g>
     </g>
    </g>
    <g id="ytick_4">
     <g id="line2d_31">
      <path d="M 54.534375 129.843547 
L 500.934375 129.843547 
" clip-path="url(#pbd1894be1c)" style="fill: none; stroke-dasharray: 2.96,1.28; stroke-dashoffset: 0; stroke: #dddddd; stroke-width: 0.8"/>
     </g>
     <g id="line2d_32">
      <g>
       <use xlink:href="#med15b83fc2" x="54.534375" y="129.843547" style="stroke: #000000; stroke-width: 0.8"/>
      </g>
     </g>
     <g id="text_16">
      <!-- 6.0% -->
      <g transform="translate(26.346875 133.593547)scale(0.1 -0.1)">
       <use xlink:href="#Roboto-Regular-36"/>
       <use xlink:href="#Roboto-Regular-2e" x="56.152344"/>
       <use xlink:href="#Roboto-Regular-30" x="82.470703"/>
       <use xlink:href="#Roboto-Regular-25" x="138.623047"/>
      </g>
     </g>
    </g>
    <g id="ytick_5">
     <g id="line2d_33">
      <path d="M 54.534375 100.539756 
L 500.934375 100.539756 
" clip-path="url(#pbd1894be1c)" style="fill: none; stroke-dasharray: 2.96,1.28; stroke-dashoffset: 0; stroke: #dddddd; stroke-width: 0.8"/>
     </g>
     <g id="line2d_34">
      <g>
       <use xlink:href="#med15b83fc2" x="54.534375" y="100.539756" style="stroke: #000000; stroke-width: 0.8"/>
      </g>
     </g>
     <g id="text_17">
      <!-- 8.0% -->
      <g transform="translate(26.346875 104.289756)scale(0.1 -0.1)">
       <use xlink:href="#Roboto-Regular-38"/>
       <use xlink:href="#Roboto-Regular-2e" x="56.152344"/>
       <use xlink:href="#Roboto-Regular-30" x="82.470703"/>
       <use xlink:href="#Roboto-Regular-25" x="138.623047"/>
      </g>
     </g>
    </g>
    <g id="ytick_6">
     <g id="line2d_35">
      <path d="M 54.534375 71.235965 
L 500.934375 71.235965 
" clip-path="url(#pbd1894be1c)" style="fill: none; stroke-dasharray: 2.96,1.28; stroke-dashoffset: 0; stroke: #dddddd; stroke-width: 0.8"/>
     </g>
     <g id="line2d_36">
      <g>
       <use xlink:href="#med15b83fc2" x="54.534375" y="71.235965" style="stroke: #000000; stroke-width: 0.8"/>
      </g>
     </g>
     <g id="text_18">
      <!-- 10.0% -->
      <g transform="translate(20.73125 74.985965)scale(0.1 -0.1)">
       <use xlink:href="#Roboto-Regular-31"/>
       <use xlink:href="#Roboto-Regular-30" x="56.152344"/>
       <use xlink:href="#Roboto-Regular-2e" x="112.304688"/>
       <use xlink:href="#Roboto-Regular-30" x="138.623047"/>
       <use xlink:href="#Roboto-Regular-25" x="194.775391"/>
      </g>
     </g>
    </g>
    <g id="ytick_7">
     <g id="line2d_37">
      <path d="M 54.534375 41.932174 
L 500.934375 41.932174 
" clip-path="url(#pbd1894be1c)" style="fill: none; stroke-dasharray: 2.96,1.28; stroke-dashoffset: 0; stroke: #dddddd; stroke-width: 0.8"/>
     </g>
     <g id="line2d_38">
      <g>
       <use xlink:href="#med15b83fc2" x="54.534375" y="41.932174" style="stroke: #000000; stroke-width: 0.8"/>
      </g>
     </g>
     <g id="text_19">
      <!-- 12.0% -->
      <g transform="translate(20.73125 45.682174)scale(0.1 -0.1)">
       <use xlink:href="#Roboto-Regular-31"/>
       <use xlink:href="#Roboto-Regular-32" x="56.152344"/>
       <use xlink:href="#Roboto-Regular-2e" x="112.304688"/>
       <use xlink:href="#Roboto-Regular-30" x="138.623047"/>
       <use xlink:href="#Roboto-Regular-25" x="194.775391"/>
      </g>
     </g>
    </g>
    <g id="ytick_8">
     <g id="line2d_39">
      <path d="M 54.534375 12.628383 
L 500.934375 12.628383 
" clip-path="url(#pbd1894be1c)" style="fill: none; stroke-dasharray: 2.96,1.28; stroke-dashoffset: 0; stroke: #dddddd; stroke-width: 0.8"/>
     </g>
     <g id="line2d_40">
      <g>
       <use xlink:href="#med15b83fc2" x="54.534375" y="12.628383" style="stroke: #000000; stroke-width: 0.8"/>
      </g>
     </g>
     <g id="text_20">
      <!-- 14.0% -->
      <g transform="translate(20.73125 16.378383)scale(0.1 -0.1)">
       <use xlink:href="#Roboto-Regular-31"/>
       <use xlink:href="#Roboto-Regular-34" x="56.152344"/>
       <use xlink:href="#Roboto-Regular-2e" x="112.304688"/>
       <use xlink:href="#Roboto-Regular-30" x="138.623047"/>
       <use xlink:href="#Roboto-Regular-25" x="194.775391"/>
      </g>
     </g>
    </g>
    <g id="text_21">
     <!-- NPL ratio -->
     <g transform="translate(14.7 136.677812)rotate(-90)scale(0.1 -0.1)">
      <defs>
       <path id="Roboto-Regular-4e" d="M 4025 0 
L 3422 0 
L 1131 3506 
L 1131 0 
L 528 0 
L 528 4550 
L 1131 4550 
L 3428 1028 
L 3428 4550 
L 4025 4550 
L 4025 0 
z
" transform="scale(0.015625)"/>
       <path id="Roboto-Regular-50" d="M 1128 1781 
L 1128 0 
L 528 0 
L 528 4550 
L 2206 4550 
Q 2953 4550 3376 4169 
Q 3800 3788 3800 3159 
Q 3800 2497 3386 2139 
Q 2972 1781 2200 1781 
L 1128 1781 
z
M 1128 2272 
L 2206 2272 
Q 2688 2272 2944 2498 
Q 3200 2725 3200 3153 
Q 3200 3559 2944 3803 
Q 2688 4047 2241 4056 
L 1128 4056 
L 1128 2272 
z
" transform="scale(0.015625)"/>
       <path id="Roboto-Regular-4c" d="M 1131 491 
L 3288 491 
L 3288 0 
L 528 0 
L 528 4550 
L 1131 4550 
L 1131 491 
z
" transform="scale(0.015625)"/>
       <path id="Roboto-Regular-20" transform="scale(0.015625)"/>
       <path id="Roboto-Regular-72" d="M 2072 2863 
Q 1941 2884 1788 2884 
Q 1219 2884 1016 2400 
L 1016 0 
L 438 0 
L 438 3381 
L 1000 3381 
L 1009 2991 
Q 1294 3444 1816 3444 
Q 1984 3444 2072 3400 
L 2072 2863 
z
" transform="scale(0.015625)"/>
       <path id="Roboto-Regular-61" d="M 2525 0 
Q 2475 100 2444 356 
Q 2041 -63 1481 -63 
Q 981 -63 661 220 
Q 341 503 341 938 
Q 341 1466 742 1758 
Q 1144 2050 1872 2050 
L 2434 2050 
L 2434 2316 
Q 2434 2619 2253 2798 
Q 2072 2978 1719 2978 
Q 1409 2978 1200 2822 
Q 991 2666 991 2444 
L 409 2444 
Q 409 2697 589 2933 
Q 769 3169 1076 3306 
Q 1384 3444 1753 3444 
Q 2338 3444 2669 3151 
Q 3000 2859 3013 2347 
L 3013 791 
Q 3013 325 3131 50 
L 3131 0 
L 2525 0 
z
M 1566 441 
Q 1838 441 2081 581 
Q 2325 722 2434 947 
L 2434 1641 
L 1981 1641 
Q 919 1641 919 1019 
Q 919 747 1100 594 
Q 1281 441 1566 441 
z
" transform="scale(0.015625)"/>
       <path id="Roboto-Regular-74" d="M 1222 4200 
L 1222 3381 
L 1853 3381 
L 1853 2934 
L 1222 2934 
L 1222 838 
Q 1222 634 1306 532 
Q 1391 431 1594 431 
Q 1694 431 1869 469 
L 1869 0 
Q 1641 -63 1425 -63 
Q 1038 -63 841 171 
Q 644 406 644 838 
L 644 2934 
L 28 2934 
L 28 3381 
L 644 3381 
L 644 4200 
L 1222 4200 
z
" transform="scale(0.015625)"/>
       <path id="Roboto-Regular-69" d="M 1066 0 
L 488 0 
L 488 3381 
L 1066 3381 
L 1066 0 
z
M 441 4278 
Q 441 4419 527 4516 
Q 613 4613 781 4613 
Q 950 4613 1037 4516 
Q 1125 4419 1125 4278 
Q 1125 4138 1037 4044 
Q 950 3950 781 3950 
Q 613 3950 527 4044 
Q 441 4138 441 4278 
z
" transform="scale(0.015625)"/>
       <path id="Roboto-Regular-6f" d="M 284 1722 
Q 284 2219 479 2616 
Q 675 3013 1023 3228 
Q 1372 3444 1819 3444 
Q 2509 3444 2936 2966 
Q 3363 2488 3363 1694 
L 3363 1653 
Q 3363 1159 3173 767 
Q 2984 375 2632 156 
Q 2281 -63 1825 -63 
Q 1138 -63 711 415 
Q 284 894 284 1681 
L 284 1722 
z
M 866 1653 
Q 866 1091 1127 750 
Q 1388 409 1825 409 
Q 2266 409 2525 754 
Q 2784 1100 2784 1722 
Q 2784 2278 2520 2623 
Q 2256 2969 1819 2969 
Q 1391 2969 1128 2628 
Q 866 2288 866 1653 
z
" transform="scale(0.015625)"/>
      </defs>
      <use xlink:href="#Roboto-Regular-4e"/>
      <use xlink:href="#Roboto-Regular-50" x="71.289062"/>
      <use xlink:href="#Roboto-Regular-4c" x="134.375"/>
      <use xlink:href="#Roboto-Regular-20" x="188.183594"/>
      <use xlink:href="#Roboto-Regular-72" x="212.939453"/>
      <use xlink:href="#Roboto-Regular-61" x="246.777344"/>
      <use xlink:href="#Roboto-Regular-74" x="301.171875"/>
      <use xlink:href="#Roboto-Regular-69" x="333.837891"/>
      <use xlink:href="#Roboto-Regular-6f" x="358.105469"/>
     </g>
    </g>
   </g>
   <g id="line2d_41">
    <path d="M 74.825284 145.644667 
L 76.471929 143.169074 
L 78.118573 142.637862 
L 79.605865 143.439073 
L 81.252509 136.184061 
L 82.846036 141.014662 
L 84.492681 141.5404 
L 86.086207 142.657911 
L 87.732852 142.043302 
L 89.379496 141.759062 
L 90.973023 139.445322 
L 92.619668 140.864189 
L 94.213195 143.186525 
L 95.859839 142.090777 
L 97.506484 142.436207 
L 98.993775 171.684343 
L 100.64042 171.472216 
L 103.880591 171.664896 
L 105.474118 172.3081 
L 107.120762 172.283888 
L 108.767407 172.036781 
L 110.360934 170.387626 
L 112.007578 169.977803 
L 113.601105 175.197222 
L 115.24775 170.918936 
L 116.894394 187.583939 
L 118.381686 186.750084 
L 120.02833 179.357605 
L 121.621857 178.670242 
L 123.268502 182.6905 
L 124.862028 182.97595 
L 126.508673 182.417315 
L 128.155317 187.483263 
L 129.748844 186.983837 
L 131.395489 186.201731 
L 134.63566 185.831516 
L 137.822714 185.238304 
L 139.469358 185.072065 
L 141.062885 193.091604 
L 142.70953 192.875318 
L 144.303057 192.929655 
L 145.949701 192.199314 
L 147.596345 193.927659 
L 149.189872 192.674897 
L 150.836517 191.883315 
L 152.430044 194.06415 
L 155.723333 195.202225 
L 157.210624 195.182137 
L 158.857269 195.927387 
L 160.450796 195.366717 
L 162.09744 194.953524 
L 163.690967 195.010271 
L 165.337612 194.557257 
L 166.984256 194.30787 
L 168.577783 193.099066 
L 170.224427 192.949977 
L 171.817954 195.06057 
L 173.464599 194.908062 
L 176.598535 195.680687 
L 179.838706 195.543964 
L 181.485351 195.808658 
L 183.078878 195.580318 
L 184.725522 194.704552 
L 186.372167 195.118143 
L 187.965693 194.708678 
L 189.612338 195.044347 
L 191.205865 196.739297 
L 194.499154 196.351714 
L 195.986445 196.592492 
L 197.63309 196.016777 
L 199.226617 195.131209 
L 200.873261 195.695659 
L 202.466788 195.172337 
L 204.113433 195.09914 
L 205.760077 194.774563 
L 207.353604 195.510608 
L 209.000248 194.598768 
L 210.593775 196.075314 
L 212.24042 194.932335 
L 213.887064 195.509491 
L 217.074118 194.465798 
L 218.667645 197.213972 
L 220.314289 196.499571 
L 221.907816 195.45915 
L 225.201105 192.685581 
L 226.794632 190.163515 
L 228.441276 187.920484 
L 230.034803 187.435277 
L 231.681448 177.407784 
L 233.328092 177.30111 
L 234.815384 182.856207 
L 236.462028 181.359557 
L 238.055555 179.113418 
L 239.7022 179.695857 
L 241.295727 182.181347 
L 242.942371 182.25828 
L 244.589016 181.502043 
L 246.182543 181.050103 
L 247.829187 182.152284 
L 249.422714 184.876582 
L 251.069358 185.975902 
L 252.716003 186.075219 
L 254.203295 186.460227 
L 255.849939 185.11711 
L 257.443466 187.146517 
L 259.09011 188.060039 
L 260.683637 187.669603 
L 262.330282 188.179337 
L 263.976926 189.151416 
L 265.570453 189.261045 
L 267.217098 189.547768 
L 268.810624 183.992729 
L 270.457269 184.082029 
L 272.103913 184.972696 
L 273.591205 183.460652 
L 276.831376 183.429277 
L 278.478021 183.533151 
L 280.071548 183.793692 
L 281.718192 184.864085 
L 283.364837 183.234832 
L 284.958364 183.325969 
L 286.605008 185.347336 
L 288.198535 189.909396 
L 289.845179 190.634268 
L 291.491824 191.873688 
L 293.032233 192.539198 
L 294.678878 191.133628 
L 296.272405 191.444094 
L 297.919049 192.075102 
L 299.512576 191.549607 
L 301.15922 192.330406 
L 302.805865 192.341312 
L 304.399392 191.853171 
L 306.046036 190.470513 
L 307.639563 190.281534 
L 309.286207 190.325241 
L 310.932852 189.966468 
L 312.420144 190.97174 
L 314.066788 188.38697 
L 315.660315 182.43377 
L 317.306959 186.449882 
L 318.900486 180.734609 
L 320.547131 174.239133 
L 322.193775 169.951166 
L 323.787302 170.008735 
L 325.433947 167.563208 
L 327.027474 171.770585 
L 328.674118 168.93971 
L 330.320762 168.471956 
L 331.808054 173.473685 
L 335.048226 171.453137 
L 336.69487 171.283539 
L 338.288397 170.317368 
L 339.935041 170.709117 
L 341.581686 169.061458 
L 343.175213 171.144173 
L 344.821857 171.73711 
L 346.415384 173.983452 
L 348.062028 174.540316 
L 349.708673 174.732651 
L 351.195965 177.340775 
L 352.842609 177.243977 
L 354.436136 176.358675 
L 356.082781 176.155248 
L 357.676307 178.003357 
L 359.322952 177.772659 
L 360.969596 177.858367 
L 362.563123 177.379876 
L 364.209768 177.15144 
L 365.803295 184.119528 
L 367.449939 183.987736 
L 369.096583 184.493413 
L 370.636993 185.353777 
L 372.283637 184.764305 
L 373.877164 183.364845 
L 375.523809 183.57123 
L 377.117335 184.008774 
L 378.76398 184.177165 
L 380.410624 184.925719 
L 382.004151 188.957003 
L 383.650796 189.417314 
L 385.244323 191.76241 
L 386.890967 191.566579 
L 388.537612 191.581119 
L 390.024903 191.993074 
L 391.671548 191.718615 
L 393.265075 191.908684 
L 394.911719 191.634337 
L 396.505246 191.196599 
L 398.15189 191.164461 
L 399.798535 191.539722 
L 401.392062 187.356097 
L 403.038706 187.210436 
L 404.632233 188.744152 
L 406.278878 189.702671 
L 407.925522 190.13201 
L 409.412814 189.779649 
L 412.652985 188.551568 
L 414.29963 188.964667 
L 415.893157 192.779096 
L 417.539801 191.805428 
L 419.186445 191.283243 
L 420.779972 191.543801 
L 422.426617 192.026687 
L 424.020144 193.304303 
L 428.800724 192.479497 
L 430.447369 192.401563 
L 432.040896 190.943849 
L 435.281067 190.255092 
L 436.927712 191.221795 
L 438.574356 189.797594 
L 440.167883 189.413558 
L 441.814527 189.840511 
L 443.408054 193.742952 
L 445.054699 194.162534 
L 446.701343 193.953634 
L 448.241752 193.535938 
L 449.888397 192.449665 
L 451.481924 191.894261 
L 453.128568 201.223896 
L 454.722095 203.078419 
L 456.36874 204.711186 
L 458.015384 206.094904 
L 459.608911 205.470711 
L 461.255555 202.458795 
L 462.849082 201.86269 
L 464.495727 200.007543 
L 466.142371 197.979468 
L 467.629663 198.789879 
L 469.276307 197.659646 
L 470.869834 197.300069 
L 472.516479 197.523707 
L 474.110006 200.10498 
L 475.75665 201.073476 
L 477.403295 200.812386 
L 478.996821 201.084466 
L 480.643466 201.805973 
L 480.643466 201.805973 
" clip-path="url(#pbd1894be1c)" style="fill: none; stroke: #808080; stroke-opacity: 0.5; stroke-linecap: square"/>
   </g>
   <g id="line2d_42">
    <path d="M 74.825284 24.940373 
L 76.471929 17.100381 
L 78.118573 19.201692 
L 79.605865 23.899725 
L 81.252509 27.623033 
L 82.846036 20.187482 
L 84.492681 17.083636 
L 86.086207 23.981304 
L 87.732852 36.238114 
L 89.379496 50.084482 
L 90.973023 54.667492 
L 92.619668 60.727749 
L 94.213195 77.740009 
L 95.859839 66.13435 
L 97.506484 65.268602 
L 98.993775 72.66054 
L 100.64042 70.327655 
L 102.233947 58.827909 
L 103.880591 74.456796 
L 105.474118 67.631637 
L 107.120762 68.960521 
L 108.767407 116.182517 
L 110.360934 118.277091 
L 112.007578 121.976227 
L 113.601105 134.922416 
L 115.24775 132.525354 
L 116.894394 135.9697 
L 118.381686 136.599407 
L 120.02833 138.289237 
L 121.621857 141.00369 
L 123.268502 134.937086 
L 124.862028 136.892913 
L 126.508673 139.251777 
L 128.155317 146.073504 
L 129.748844 145.737967 
L 131.395489 147.686834 
L 132.989016 148.013985 
L 134.63566 166.657374 
L 136.282305 167.435229 
L 137.822714 168.595662 
L 139.469358 168.568699 
L 141.062885 170.246413 
L 142.70953 168.95637 
L 144.303057 169.593183 
L 145.949701 171.90457 
L 147.596345 179.177808 
L 149.189872 179.759073 
L 150.836517 180.827117 
L 152.430044 181.645574 
L 154.076688 183.915378 
L 155.723333 182.774325 
L 157.210624 182.933016 
L 158.857269 182.722652 
L 160.450796 184.187077 
L 162.09744 183.682565 
L 163.690967 183.592046 
L 165.337612 181.754945 
L 166.984256 191.169855 
L 168.577783 190.412357 
L 170.224427 190.286275 
L 171.817954 190.035681 
L 173.464599 188.306658 
L 175.111243 187.990034 
L 176.598535 190.183031 
L 178.245179 190.482244 
L 179.838706 187.649829 
L 181.485351 188.736863 
L 183.078878 185.134035 
L 184.725522 184.932644 
L 186.372167 185.278401 
L 187.965693 184.237408 
L 189.612338 182.605695 
L 191.205865 185.550014 
L 192.852509 184.406512 
L 194.499154 179.95184 
L 195.986445 182.953013 
L 197.63309 179.961655 
L 199.226617 179.192305 
L 200.873261 181.340765 
L 202.466788 179.723461 
L 204.113433 175.720809 
L 205.760077 176.242962 
L 207.353604 175.179513 
L 209.000248 174.845758 
L 210.593775 173.925525 
L 212.24042 174.395512 
L 213.887064 174.048905 
L 215.427474 172.371702 
L 217.074118 171.929903 
L 218.667645 172.146109 
L 220.314289 176.125302 
L 221.907816 175.852744 
L 223.554461 174.660822 
L 225.201105 171.822003 
L 226.794632 167.68782 
L 228.441276 165.5277 
L 230.034803 164.656635 
L 231.681448 165.190773 
L 234.815384 156.943368 
L 236.462028 153.275728 
L 238.055555 153.316077 
L 239.7022 154.951563 
L 241.295727 158.706074 
L 242.942371 161.058533 
L 244.589016 161.647259 
L 246.182543 161.950092 
L 247.829187 160.442862 
L 249.422714 160.088806 
L 251.069358 159.890491 
L 252.716003 159.212761 
L 254.203295 159.773089 
L 255.849939 160.04307 
L 257.443466 160.072149 
L 259.09011 159.686447 
L 260.683637 160.09422 
L 262.330282 159.898796 
L 265.570453 162.276562 
L 267.217098 161.679024 
L 268.810624 165.405872 
L 270.457269 166.5291 
L 272.103913 170.819668 
L 273.591205 169.729236 
L 275.23785 172.570218 
L 276.831376 173.402844 
L 278.478021 174.940774 
L 280.071548 175.599741 
L 281.718192 176.708203 
L 283.364837 179.798171 
L 286.605008 180.282923 
L 288.198535 177.964083 
L 289.845179 178.578659 
L 291.491824 180.315237 
L 293.032233 180.55282 
L 294.678878 179.916593 
L 297.919049 179.856593 
L 299.512576 180.521544 
L 301.15922 180.568359 
L 302.805865 180.073736 
L 304.399392 181.55684 
L 306.046036 184.545054 
L 307.639563 184.739137 
L 309.286207 184.035709 
L 310.932852 183.090532 
L 312.420144 181.977109 
L 314.066788 181.065184 
L 315.660315 179.729546 
L 317.306959 178.995249 
L 318.900486 175.115672 
L 320.547131 173.82051 
L 322.193775 171.814731 
L 323.787302 170.766371 
L 325.433947 172.249271 
L 327.027474 178.012744 
L 328.674118 175.582677 
L 330.320762 175.861192 
L 331.808054 173.575622 
L 333.454699 173.272379 
L 335.048226 173.148887 
L 336.69487 171.060942 
L 338.288397 170.42591 
L 339.935041 171.416229 
L 341.581686 170.891411 
L 343.175213 173.149675 
L 346.415384 171.918662 
L 348.062028 172.141276 
L 349.708673 173.363003 
L 351.195965 176.141122 
L 352.842609 176.341382 
L 354.436136 177.350197 
L 356.082781 177.549967 
L 359.322952 177.535327 
L 360.969596 179.513401 
L 362.563123 178.910913 
L 364.209768 178.947533 
L 365.803295 178.622692 
L 367.449939 178.802596 
L 369.096583 178.675167 
L 370.636993 178.957743 
L 372.283637 178.476919 
L 373.877164 178.610747 
L 375.523809 178.977812 
L 378.76398 180.576315 
L 380.410624 182.450799 
L 382.004151 181.797848 
L 383.650796 182.247525 
L 385.244323 182.982988 
L 386.890967 184.25274 
L 388.537612 185.073267 
L 390.024903 185.682437 
L 391.671548 185.856378 
L 394.911719 185.080093 
L 396.505246 186.300186 
L 398.15189 185.545713 
L 401.392062 184.893544 
L 403.038706 185.098818 
L 406.278878 184.940178 
L 407.925522 185.404358 
L 409.412814 185.59881 
L 412.652985 186.337712 
L 414.29963 187.623406 
L 415.893157 185.834179 
L 417.539801 185.768881 
L 419.186445 186.318667 
L 420.779972 186.587008 
L 424.020144 185.863908 
L 427.313433 185.541933 
L 428.800724 185.592723 
L 430.447369 184.612461 
L 432.040896 184.412866 
L 433.68754 184.841239 
L 435.281067 184.615823 
L 436.927712 185.861376 
L 438.574356 185.067468 
L 440.167883 183.912872 
L 441.814527 183.090781 
L 446.701343 183.161124 
L 448.241752 183.931715 
L 449.888397 182.310785 
L 451.481924 180.073504 
L 453.128568 180.03913 
L 454.722095 179.344888 
L 456.36874 179.855695 
L 458.015384 179.421624 
L 459.608911 179.188023 
L 461.255555 175.912851 
L 462.849082 173.076124 
L 464.495727 169.074809 
L 466.142371 166.571438 
L 467.629663 165.38067 
L 469.276307 165.203449 
L 470.869834 164.324227 
L 472.516479 162.423856 
L 474.110006 165.2908 
L 475.75665 161.526956 
L 477.403295 159.421563 
L 478.996821 162.173608 
L 480.643466 161.002649 
L 480.643466 161.002649 
" clip-path="url(#pbd1894be1c)" style="fill: none; stroke: #808080; stroke-opacity: 0.5; stroke-linecap: square"/>
   </g>
   <g id="line2d_43">
    <path d="M 74.825284 113.513731 
L 76.471929 113.634406 
L 78.118573 111.547458 
L 79.605865 108.894399 
L 81.252509 109.554174 
L 82.846036 116.484625 
L 84.492681 115.959065 
L 86.086207 115.213178 
L 87.732852 111.004571 
L 89.379496 110.272627 
L 90.973023 113.98115 
L 92.619668 113.985046 
L 94.213195 114.876288 
L 95.859839 113.534955 
L 97.506484 117.185937 
L 98.993775 114.063232 
L 100.64042 112.523123 
L 102.233947 113.999901 
L 103.880591 110.641002 
L 105.474118 109.610954 
L 108.767407 103.87369 
L 110.360934 71.464701 
L 112.007578 66.080209 
L 113.601105 53.443303 
L 115.24775 52.967984 
L 116.894394 55.550147 
L 118.381686 55.030172 
L 120.02833 53.50472 
L 121.621857 106.977479 
L 123.268502 108.379171 
L 124.862028 122.183258 
L 126.508673 122.12685 
L 128.155317 120.177607 
L 129.748844 120.965177 
L 131.395489 129.77434 
L 132.989016 150.892766 
L 134.63566 153.226823 
L 136.282305 154.517696 
L 137.822714 150.792064 
L 139.469358 153.485032 
L 141.062885 152.569814 
L 142.70953 153.029313 
L 144.303057 160.63314 
L 145.949701 158.519694 
L 147.596345 166.990678 
L 149.189872 171.713292 
L 150.836517 171.036227 
L 152.430044 173.857394 
L 154.076688 173.504272 
L 155.723333 175.776723 
L 157.210624 174.972606 
L 158.857269 176.372093 
L 160.450796 175.089467 
L 162.09744 178.092928 
L 163.690967 182.357037 
L 165.337612 179.986342 
L 166.984256 174.682165 
L 168.577783 176.960287 
L 170.224427 178.053234 
L 171.817954 178.522251 
L 173.464599 177.991188 
L 175.111243 179.352537 
L 176.598535 184.641679 
L 178.245179 184.467133 
L 179.838706 181.153064 
L 181.485351 179.311068 
L 183.078878 179.729735 
L 184.725522 178.617239 
L 186.372167 179.833303 
L 187.965693 179.422952 
L 189.612338 178.195151 
L 191.205865 178.598768 
L 192.852509 175.20165 
L 194.499154 173.630385 
L 195.986445 172.51305 
L 197.63309 170.646069 
L 199.226617 171.095416 
L 200.873261 171.280633 
L 202.466788 167.156348 
L 204.113433 167.573466 
L 205.760077 167.642016 
L 207.353604 164.460896 
L 209.000248 163.423778 
L 210.593775 158.988539 
L 212.24042 159.627686 
L 213.887064 158.440388 
L 215.427474 160.637899 
L 217.074118 158.985564 
L 218.667645 152.901836 
L 220.314289 149.767554 
L 221.907816 145.438616 
L 223.554461 146.316967 
L 225.201105 141.789883 
L 226.794632 136.633989 
L 228.441276 136.001853 
L 230.034803 130.955771 
L 231.681448 131.33489 
L 233.328092 135.25528 
L 234.815384 135.197845 
L 236.462028 133.715469 
L 238.055555 127.495111 
L 239.7022 123.510531 
L 241.295727 126.210535 
L 242.942371 128.706438 
L 244.589016 133.56165 
L 246.182543 136.403239 
L 251.069358 149.462496 
L 252.716003 153.096911 
L 254.203295 155.675853 
L 255.849939 157.810427 
L 257.443466 158.398534 
L 259.09011 157.00171 
L 260.683637 160.907378 
L 262.330282 162.050351 
L 263.976926 165.671609 
L 265.570453 170.413963 
L 267.217098 170.588231 
L 268.810624 172.172606 
L 270.457269 176.635611 
L 272.103913 178.24334 
L 273.591205 177.750256 
L 275.23785 182.67242 
L 276.831376 180.746117 
L 278.478021 181.657814 
L 280.071548 180.784937 
L 281.718192 176.716927 
L 283.364837 176.660772 
L 284.958364 164.393523 
L 286.605008 165.15571 
L 288.198535 178.156397 
L 289.845179 178.806904 
L 291.491824 181.115507 
L 293.032233 179.572169 
L 294.678878 181.017541 
L 296.272405 185.691093 
L 297.919049 186.192597 
L 299.512576 186.457969 
L 302.805865 188.84014 
L 304.399392 187.455478 
L 306.046036 187.539264 
L 307.639563 188.20347 
L 309.286207 189.553989 
L 310.932852 188.946221 
L 314.066788 182.480073 
L 315.660315 164.944536 
L 317.306959 154.845839 
L 318.900486 142.538615 
L 320.547131 139.304409 
L 322.193775 140.21564 
L 323.787302 134.474026 
L 325.433947 137.654281 
L 327.027474 130.869974 
L 328.674118 132.256143 
L 330.320762 134.0596 
L 331.808054 127.135535 
L 333.454699 134.35391 
L 335.048226 132.390997 
L 336.69487 125.358911 
L 338.288397 129.735124 
L 339.935041 127.442045 
L 341.581686 126.115981 
L 343.175213 126.927312 
L 344.821857 134.140556 
L 346.415384 140.251192 
L 348.062028 139.354258 
L 349.708673 139.743201 
L 351.195965 136.287776 
L 352.842609 133.297227 
L 354.436136 131.064413 
L 356.082781 133.873369 
L 357.676307 135.8614 
L 360.969596 137.761049 
L 362.563123 139.899438 
L 364.209768 139.696419 
L 365.803295 141.635142 
L 367.449939 141.940914 
L 369.096583 141.536652 
L 370.636993 143.567452 
L 372.283637 152.970734 
L 373.877164 155.280824 
L 375.523809 156.242882 
L 377.117335 161.180739 
L 378.76398 160.488255 
L 382.004151 170.747718 
L 383.650796 170.282314 
L 385.244323 174.503116 
L 386.890967 175.150514 
L 388.537612 172.823145 
L 390.024903 173.180174 
L 391.671548 174.150967 
L 393.265075 172.788537 
L 394.911719 176.359929 
L 396.505246 175.120732 
L 398.15189 176.629028 
L 399.798535 175.811443 
L 401.392062 176.140639 
L 403.038706 175.595565 
L 404.632233 183.252759 
L 406.278878 183.168024 
L 407.925522 182.587432 
L 409.412814 184.218272 
L 411.059458 183.946788 
L 412.652985 182.412443 
L 414.29963 184.656427 
L 415.893157 185.655016 
L 417.539801 186.825863 
L 419.186445 187.414449 
L 420.779972 187.207701 
L 424.020144 189.586962 
L 427.313433 190.612115 
L 430.447369 189.883277 
L 432.040896 188.759972 
L 433.68754 189.193376 
L 435.281067 187.808651 
L 436.927712 188.228145 
L 438.574356 190.718985 
L 440.167883 189.103356 
L 441.814527 190.191335 
L 445.054699 187.826165 
L 446.701343 187.489636 
L 448.241752 189.307998 
L 449.888397 188.330808 
L 451.481924 187.219845 
L 453.128568 185.472201 
L 454.722095 184.287863 
L 456.36874 183.421722 
L 458.015384 179.573026 
L 459.608911 180.34708 
L 461.255555 179.460082 
L 462.849082 176.712905 
L 464.495727 165.214513 
L 466.142371 166.177877 
L 467.629663 173.256557 
L 469.276307 174.041391 
L 470.869834 174.222806 
L 472.516479 179.347687 
L 474.110006 177.515937 
L 475.75665 178.026606 
L 477.403295 174.02342 
L 478.996821 177.765567 
L 480.643466 178.965169 
L 480.643466 178.965169 
" clip-path="url(#pbd1894be1c)" style="fill: none; stroke: #808080; stroke-opacity: 0.5; stroke-linecap: square"/>
   </g>
   <g id="line2d_44">
    <path d="M 74.825284 199.482171 
L 76.471929 192.745361 
L 78.118573 190.210521 
L 79.605865 204.224006 
L 81.252509 188.046312 
L 82.846036 197.374084 
L 84.492681 192.179876 
L 86.086207 166.439464 
L 87.732852 196.321302 
L 89.379496 195.486877 
L 90.973023 196.644147 
L 92.619668 198.983208 
L 94.213195 203.120783 
L 95.859839 198.623001 
L 97.506484 199.598454 
L 98.993775 204.621261 
L 100.64042 181.157213 
L 102.233947 177.379155 
L 103.880591 182.889608 
L 105.474118 177.274506 
L 107.120762 190.560383 
L 108.767407 185.536195 
L 110.360934 191.086161 
L 112.007578 182.324932 
L 113.601105 192.888745 
L 115.24775 190.816298 
L 116.894394 190.502304 
L 118.381686 194.329493 
L 120.02833 194.423329 
L 121.621857 190.807354 
L 123.268502 211.244731 
L 124.862028 209.649634 
L 126.508673 213.807129 
L 128.155317 212.902262 
L 129.748844 211.066085 
L 131.395489 210.184218 
L 132.989016 211.452976 
L 134.63566 198.815312 
L 136.282305 211.436054 
L 137.822714 211.746267 
L 139.469358 212.908673 
L 141.062885 213.539144 
L 142.70953 212.300377 
L 144.303057 211.988455 
L 145.949701 214.756364 
L 149.189872 206.763231 
L 150.836517 207.383208 
L 152.430044 208.784132 
L 154.076688 206.299411 
L 155.723333 189.688522 
L 157.210624 208.269175 
L 158.857269 206.037999 
L 160.450796 207.337009 
L 162.09744 207.653783 
L 163.690967 206.383374 
L 165.337612 206.16779 
L 166.984256 206.262075 
L 168.577783 203.425576 
L 170.224427 205.569101 
L 171.817954 206.275612 
L 173.464599 199.502909 
L 175.111243 193.579006 
L 176.598535 204.690689 
L 178.245179 202.860846 
L 179.838706 200.563154 
L 181.485351 199.114277 
L 183.078878 201.35641 
L 184.725522 200.082413 
L 186.372167 200.253283 
L 187.965693 196.146717 
L 189.612338 200.590107 
L 191.205865 204.241558 
L 192.852509 198.96462 
L 194.499154 196.043272 
L 195.986445 198.826976 
L 197.63309 196.33095 
L 199.226617 198.093178 
L 200.873261 197.013803 
L 202.466788 182.896516 
L 204.113433 195.297047 
L 205.760077 191.730289 
L 207.353604 192.5104 
L 209.000248 195.108777 
L 210.593775 191.656699 
L 212.24042 191.896061 
L 213.887064 191.895186 
L 215.427474 196.552734 
L 217.074118 163.907171 
L 218.667645 164.993778 
L 220.314289 190.820324 
L 223.554461 187.76854 
L 225.201105 188.934284 
L 226.794632 169.220462 
L 228.441276 164.375165 
L 230.034803 181.68693 
L 231.681448 178.876731 
L 233.328092 178.262786 
L 234.815384 179.691423 
L 236.462028 178.641482 
L 238.055555 177.837838 
L 239.7022 178.588674 
L 241.295727 178.305918 
L 242.942371 174.376573 
L 244.589016 174.24136 
L 246.182543 177.152307 
L 247.829187 175.229839 
L 249.422714 178.706506 
L 251.069358 177.878461 
L 252.716003 191.734622 
L 254.203295 198.058654 
L 255.849939 186.992529 
L 257.443466 186.398566 
L 259.09011 196.742605 
L 260.683637 180.606887 
L 262.330282 189.513776 
L 263.976926 194.04372 
L 265.570453 189.691294 
L 267.217098 184.390344 
L 268.810624 189.267683 
L 270.457269 186.588634 
L 272.103913 185.315897 
L 273.591205 186.732277 
L 275.23785 176.940725 
L 276.831376 175.614849 
L 278.478021 165.103158 
L 280.071548 164.730352 
L 281.718192 168.903492 
L 283.364837 174.213151 
L 284.958364 176.88537 
L 286.605008 176.612993 
L 288.198535 175.356003 
L 289.845179 177.694319 
L 293.032233 169.077276 
L 294.678878 168.295895 
L 297.919049 165.08066 
L 299.512576 176.891784 
L 301.15922 162.875785 
L 302.805865 163.395533 
L 304.399392 173.399461 
L 306.046036 172.64214 
L 307.639563 167.091289 
L 309.286207 169.588411 
L 310.932852 170.089938 
L 312.420144 169.567031 
L 314.066788 162.783458 
L 315.660315 157.413499 
L 317.306959 154.602824 
L 318.900486 150.757958 
L 320.547131 154.847009 
L 322.193775 152.871328 
L 323.787302 153.651267 
L 325.433947 157.367993 
L 327.027474 156.427562 
L 328.674118 156.331288 
L 330.320762 154.76147 
L 331.808054 162.481274 
L 333.454699 160.463751 
L 335.048226 167.557756 
L 336.69487 168.310888 
L 338.288397 170.348811 
L 339.935041 168.131924 
L 341.581686 164.948982 
L 343.175213 164.727596 
L 344.821857 168.737505 
L 346.415384 168.315176 
L 348.062028 166.209095 
L 349.708673 165.047652 
L 351.195965 172.824187 
L 352.842609 173.894541 
L 354.436136 172.941074 
L 356.082781 172.196269 
L 357.676307 172.764968 
L 359.322952 165.99699 
L 360.969596 170.621422 
L 362.563123 170.493944 
L 365.803295 173.728838 
L 367.449939 176.337484 
L 369.096583 174.0803 
L 370.636993 172.680606 
L 372.283637 173.91172 
L 373.877164 179.499601 
L 375.523809 179.91611 
L 377.117335 178.786578 
L 378.76398 177.91576 
L 380.410624 180.065203 
L 382.004151 178.578161 
L 383.650796 179.306719 
L 385.244323 177.982683 
L 386.890967 177.117021 
L 390.024903 173.634506 
L 391.671548 178.121947 
L 393.265075 175.653408 
L 394.911719 185.290217 
L 396.505246 185.596574 
L 398.15189 186.220823 
L 399.798535 189.322025 
L 401.392062 187.445063 
L 403.038706 185.701508 
L 404.632233 174.243337 
L 406.278878 170.382566 
L 407.925522 168.650155 
L 409.412814 171.623661 
L 411.059458 168.805228 
L 412.652985 180.186522 
L 414.29963 180.755191 
L 415.893157 180.601084 
L 417.539801 181.134096 
L 419.186445 183.291575 
L 420.779972 184.446336 
L 422.426617 183.819915 
L 424.020144 183.468871 
L 425.666788 184.301828 
L 427.313433 187.152504 
L 428.800724 185.913169 
L 432.040896 185.170691 
L 433.68754 186.701802 
L 435.281067 187.235348 
L 436.927712 188.618082 
L 438.574356 187.686835 
L 440.167883 187.765793 
L 441.814527 187.238026 
L 443.408054 187.060335 
L 445.054699 188.257514 
L 446.701343 189.102396 
L 448.241752 189.333721 
L 449.888397 189.925718 
L 451.481924 185.370506 
L 453.128568 181.465183 
L 454.722095 173.037705 
L 456.36874 170.117084 
L 458.015384 175.027729 
L 459.608911 182.178194 
L 461.255555 186.832462 
L 462.849082 185.389294 
L 464.495727 188.783397 
L 466.142371 190.78786 
L 467.629663 188.790046 
L 469.276307 185.555034 
L 470.869834 184.790094 
L 472.516479 187.486316 
L 474.110006 189.458444 
L 475.75665 186.063946 
L 477.403295 190.717035 
L 478.996821 191.697525 
L 480.643466 196.536453 
L 480.643466 196.536453 
" clip-path="url(#pbd1894be1c)" style="fill: none; stroke: #808080; stroke-opacity: 0.5; stroke-linecap: square"/>
   </g>
   <g id="line2d_45">
    <path d="M 74.825284 204.136983 
L 76.471929 204.379863 
L 78.118573 204.41524 
L 79.605865 205.044593 
L 81.252509 203.975236 
L 82.846036 201.98788 
L 84.492681 202.036723 
L 86.086207 203.070176 
L 87.732852 203.565728 
L 89.379496 206.073515 
L 92.619668 205.8588 
L 94.213195 206.241992 
L 95.859839 208.928569 
L 97.506484 208.484502 
L 98.993775 208.878628 
L 100.64042 208.605432 
L 102.233947 207.843936 
L 103.880591 210.058656 
L 105.474118 209.048443 
L 107.120762 208.871424 
L 108.767407 209.989621 
L 110.360934 209.788148 
L 112.007578 211.009157 
L 113.601105 210.492556 
L 115.24775 208.133791 
L 116.894394 208.523932 
L 118.381686 207.083914 
L 120.02833 207.254961 
L 121.621857 206.311455 
L 123.268502 207.739776 
L 124.862028 207.400175 
L 126.508673 208.407765 
L 128.155317 209.064842 
L 129.748844 209.384548 
L 131.395489 208.838486 
L 132.989016 208.616195 
L 134.63566 209.243373 
L 136.282305 211.609581 
L 139.469358 211.385202 
L 141.062885 212.137582 
L 142.70953 212.352024 
L 144.303057 211.6887 
L 145.949701 211.358085 
L 147.596345 211.479729 
L 149.189872 212.070473 
L 150.836517 211.929361 
L 152.430044 212.051118 
L 154.076688 205.853046 
L 155.723333 206.70562 
L 157.210624 206.360976 
L 158.857269 206.59809 
L 160.450796 205.239095 
L 162.09744 205.491816 
L 163.690967 205.472435 
L 165.337612 205.047608 
L 166.984256 204.978064 
L 168.577783 204.434759 
L 170.224427 203.641545 
L 171.817954 204.258309 
L 173.464599 205.982115 
L 175.111243 207.194039 
L 176.598535 207.510854 
L 178.245179 206.90834 
L 179.838706 205.315991 
L 181.485351 205.451572 
L 183.078878 204.873053 
L 184.725522 204.683141 
L 186.372167 204.113178 
L 187.965693 202.463697 
L 189.612338 201.382327 
L 191.205865 201.286863 
L 192.852509 200.509353 
L 194.499154 200.35138 
L 195.986445 199.449665 
L 197.63309 198.891707 
L 199.226617 196.884299 
L 200.873261 197.009803 
L 202.466788 195.786564 
L 204.113433 196.110779 
L 205.760077 196.282783 
L 207.353604 195.186157 
L 209.000248 193.292418 
L 210.593775 191.230234 
L 212.24042 192.65965 
L 213.887064 190.793831 
L 215.427474 196.800291 
L 217.074118 190.968449 
L 218.667645 187.342817 
L 220.314289 186.74892 
L 221.907816 184.847973 
L 223.554461 182.025478 
L 225.201105 179.490926 
L 226.794632 168.268564 
L 228.441276 163.84507 
L 230.034803 171.775077 
L 231.681448 172.195601 
L 233.328092 172.383241 
L 234.815384 171.95825 
L 236.462028 171.179529 
L 238.055555 171.968287 
L 239.7022 171.219351 
L 241.295727 170.851541 
L 242.942371 178.976473 
L 246.182543 183.766757 
L 249.422714 192.613586 
L 251.069358 190.314022 
L 252.716003 191.303507 
L 255.849939 192.538066 
L 257.443466 192.428935 
L 259.09011 192.54834 
L 260.683637 193.443349 
L 262.330282 195.471877 
L 263.976926 196.788847 
L 265.570453 197.135795 
L 267.217098 196.466873 
L 268.810624 193.172035 
L 270.457269 193.86084 
L 272.103913 196.216175 
L 273.591205 197.92661 
L 275.23785 200.169837 
L 276.831376 183.527141 
L 278.478021 183.607498 
L 280.071548 184.455008 
L 281.718192 184.754891 
L 283.364837 186.052953 
L 284.958364 185.770867 
L 286.605008 184.926942 
L 288.198535 192.925957 
L 289.845179 195.41405 
L 291.491824 196.000658 
L 293.032233 197.613353 
L 294.678878 196.428167 
L 296.272405 196.003969 
L 297.919049 196.344514 
L 299.512576 195.08794 
L 301.15922 194.281935 
L 302.805865 194.1607 
L 304.399392 192.538127 
L 306.046036 191.433068 
L 307.639563 192.296431 
L 309.286207 189.663044 
L 310.932852 189.861126 
L 312.420144 190.960072 
L 314.066788 189.643814 
L 315.660315 184.490607 
L 317.306959 182.123675 
L 318.900486 177.747399 
L 320.547131 176.627501 
L 322.193775 176.130034 
L 323.787302 177.10282 
L 325.433947 176.523886 
L 327.027474 165.655298 
L 328.674118 163.693873 
L 330.320762 165.240631 
L 331.808054 167.891936 
L 333.454699 168.202144 
L 335.048226 169.145823 
L 336.69487 168.97481 
L 338.288397 164.057457 
L 339.935041 164.680887 
L 341.581686 163.444119 
L 343.175213 162.730583 
L 344.821857 161.652057 
L 346.415384 162.818962 
L 348.062028 163.309985 
L 349.708673 164.075797 
L 351.195965 163.872576 
L 352.842609 163.495324 
L 354.436136 162.114195 
L 356.082781 162.473894 
L 357.676307 164.150308 
L 359.322952 164.536083 
L 360.969596 166.637979 
L 362.563123 165.783993 
L 364.209768 166.24735 
L 365.803295 168.942201 
L 367.449939 170.34303 
L 369.096583 171.331327 
L 370.636993 174.192163 
L 373.877164 171.578034 
L 375.523809 174.348588 
L 377.117335 175.032955 
L 378.76398 175.564593 
L 380.410624 176.386272 
L 382.004151 180.444493 
L 383.650796 181.404965 
L 385.244323 181.380034 
L 386.890967 180.880294 
L 388.537612 182.213929 
L 390.024903 182.832899 
L 391.671548 182.644327 
L 393.265075 181.628683 
L 394.911719 184.247053 
L 396.505246 184.380201 
L 398.15189 183.232136 
L 399.798535 184.62332 
L 401.392062 183.453293 
L 403.038706 181.239325 
L 406.278878 179.895232 
L 407.925522 180.413446 
L 409.412814 182.114777 
L 411.059458 182.076373 
L 412.652985 180.458355 
L 414.29963 181.703162 
L 415.893157 182.042573 
L 417.539801 183.206231 
L 419.186445 183.358184 
L 422.426617 182.862074 
L 424.020144 183.237812 
L 425.666788 184.700885 
L 427.313433 185.09107 
L 428.800724 186.220778 
L 430.447369 186.298751 
L 432.040896 185.292141 
L 433.68754 185.053219 
L 435.281067 183.828885 
L 436.927712 183.788614 
L 438.574356 183.546724 
L 440.167883 183.17892 
L 441.814527 184.553105 
L 443.408054 184.330177 
L 445.054699 184.337193 
L 446.701343 184.873195 
L 448.241752 186.088916 
L 449.888397 184.369771 
L 451.481924 181.777267 
L 453.128568 181.000654 
L 454.722095 183.149145 
L 456.36874 185.750331 
L 458.015384 187.085924 
L 459.608911 185.107722 
L 461.255555 176.322019 
L 462.849082 172.637432 
L 464.495727 168.455288 
L 466.142371 171.792472 
L 467.629663 175.151966 
L 469.276307 176.018768 
L 470.869834 176.681845 
L 472.516479 175.673632 
L 474.110006 176.123383 
L 475.75665 177.025822 
L 477.403295 176.044539 
L 478.996821 179.664785 
L 480.643466 180.579402 
L 480.643466 180.579402 
" clip-path="url(#pbd1894be1c)" style="fill: none; stroke: #808080; stroke-opacity: 0.5; stroke-linecap: square"/>
   </g>
   <g id="line2d_46">
    <path d="M 74.825284 103.05295 
L 76.471929 101.154717 
L 78.118573 99.823593 
L 79.605865 116.958118 
L 81.252509 118.752266 
L 82.846036 122.589665 
L 84.492681 135.547546 
L 86.086207 132.155322 
L 87.732852 132.042771 
L 89.379496 132.205041 
L 90.973023 132.53439 
L 92.619668 130.92436 
L 94.213195 143.966903 
L 95.859839 142.907458 
L 97.506484 144.589877 
L 98.993775 146.973376 
L 100.64042 142.769876 
L 102.233947 140.300347 
L 103.880591 148.047875 
L 105.474118 142.992364 
L 107.120762 148.491118 
L 108.767407 148.000739 
L 110.360934 149.13438 
L 112.007578 149.878238 
L 113.601105 152.930393 
L 115.24775 143.625022 
L 116.894394 143.979371 
L 118.381686 145.683404 
L 120.02833 134.701484 
L 121.621857 136.926611 
L 123.268502 152.182155 
L 124.862028 152.620856 
L 126.508673 154.464279 
L 129.748844 170.194737 
L 131.395489 170.932519 
L 132.989016 181.140034 
L 134.63566 179.451264 
L 136.282305 178.432785 
L 137.822714 183.061573 
L 139.469358 184.305968 
L 141.062885 184.92192 
L 142.70953 188.148987 
L 144.303057 187.894777 
L 145.949701 187.761958 
L 147.596345 192.550634 
L 149.189872 193.539174 
L 150.836517 193.717214 
L 152.430044 194.76016 
L 154.076688 195.510461 
L 155.723333 195.895759 
L 157.210624 196.544725 
L 158.857269 196.812347 
L 160.450796 194.52653 
L 162.09744 194.424935 
L 163.690967 194.095486 
L 165.337612 192.691358 
L 166.984256 191.992341 
L 168.577783 195.303086 
L 170.224427 195.914208 
L 171.817954 194.527785 
L 173.464599 193.63085 
L 175.111243 192.393786 
L 176.598535 192.999447 
L 178.245179 192.512974 
L 179.838706 192.682004 
L 181.485351 192.187465 
L 183.078878 191.19933 
L 184.725522 189.059286 
L 186.372167 188.020939 
L 187.965693 185.525 
L 189.612338 184.439356 
L 191.205865 185.587911 
L 192.852509 183.179347 
L 194.499154 181.346197 
L 195.986445 182.548679 
L 197.63309 181.058867 
L 199.226617 180.694675 
L 200.873261 180.87091 
L 202.466788 180.4558 
L 204.113433 180.713524 
L 205.760077 181.198095 
L 207.353604 182.022715 
L 209.000248 183.383509 
L 210.593775 184.385113 
L 212.24042 183.785306 
L 213.887064 186.075215 
L 215.427474 185.674833 
L 218.667645 181.463722 
L 220.314289 181.44714 
L 221.907816 180.362773 
L 223.554461 176.734841 
L 225.201105 175.908272 
L 226.794632 175.783462 
L 228.441276 172.527735 
L 230.034803 171.866173 
L 231.681448 172.135186 
L 233.328092 169.91341 
L 234.815384 167.618242 
L 238.055555 157.163434 
L 239.7022 155.027375 
L 241.295727 153.809869 
L 242.942371 157.677226 
L 244.589016 158.837771 
L 246.182543 157.430875 
L 247.829187 157.374875 
L 249.422714 161.832493 
L 251.069358 160.903629 
L 252.716003 161.253991 
L 254.203295 164.276607 
L 255.849939 165.04604 
L 257.443466 164.445776 
L 260.683637 170.283711 
L 262.330282 171.712762 
L 263.976926 174.322041 
L 267.217098 177.126393 
L 268.810624 181.003127 
L 270.457269 180.72936 
L 272.103913 182.362629 
L 275.23785 178.444721 
L 276.831376 174.352115 
L 280.071548 169.023403 
L 281.718192 168.363362 
L 283.364837 166.285776 
L 284.958364 161.989248 
L 286.605008 162.001235 
L 288.198535 171.768023 
L 289.845179 170.059891 
L 291.491824 170.007002 
L 293.032233 169.307128 
L 296.272405 166.514093 
L 297.919049 167.162561 
L 301.15922 165.707742 
L 302.805865 166.379406 
L 304.399392 168.33325 
L 306.046036 168.232339 
L 307.639563 169.794621 
L 309.286207 166.784495 
L 310.932852 167.404866 
L 312.420144 167.288908 
L 314.066788 166.205623 
L 315.660315 162.558845 
L 317.306959 167.255433 
L 318.900486 164.949784 
L 320.547131 166.218718 
L 322.193775 165.05474 
L 323.787302 164.85726 
L 325.433947 167.972635 
L 327.027474 171.412922 
L 328.674118 171.737655 
L 330.320762 173.114049 
L 331.808054 172.616838 
L 333.454699 172.387797 
L 335.048226 172.737248 
L 336.69487 172.794105 
L 338.288397 173.088701 
L 339.935041 173.688655 
L 341.581686 173.911056 
L 343.175213 173.865988 
L 346.415384 177.866298 
L 348.062028 178.294118 
L 349.708673 177.437681 
L 351.195965 178.155843 
L 352.842609 177.694448 
L 354.436136 177.734457 
L 356.082781 177.620513 
L 357.676307 179.706964 
L 359.322952 179.897184 
L 360.969596 180.723148 
L 362.563123 180.606916 
L 364.209768 182.42399 
L 365.803295 183.01429 
L 367.449939 183.33639 
L 369.096583 183.265108 
L 370.636993 182.718999 
L 372.283637 182.314127 
L 373.877164 181.715859 
L 375.523809 183.330663 
L 377.117335 183.630153 
L 378.76398 183.328205 
L 380.410624 183.435271 
L 382.004151 183.027023 
L 383.650796 183.772085 
L 385.244323 185.116532 
L 386.890967 185.616004 
L 388.537612 185.50966 
L 391.671548 185.613006 
L 393.265075 185.00244 
L 394.911719 185.231014 
L 396.505246 184.80424 
L 398.15189 184.974477 
L 399.798535 186.155477 
L 401.392062 185.989639 
L 403.038706 186.115784 
L 404.632233 186.859272 
L 406.278878 186.846009 
L 411.059458 187.991915 
L 412.652985 187.297178 
L 414.29963 189.916479 
L 415.893157 188.644888 
L 417.539801 189.353523 
L 419.186445 189.671136 
L 420.779972 188.747823 
L 422.426617 188.212749 
L 424.020144 188.444915 
L 425.666788 188.150115 
L 427.313433 187.517703 
L 428.800724 187.974476 
L 430.447369 186.977739 
L 432.040896 186.675398 
L 433.68754 187.649292 
L 435.281067 186.148605 
L 436.927712 187.016283 
L 438.574356 184.948789 
L 440.167883 184.852874 
L 441.814527 186.305363 
L 443.408054 185.396233 
L 445.054699 185.346518 
L 446.701343 185.969217 
L 448.241752 185.946209 
L 449.888397 187.752821 
L 451.481924 188.559826 
L 453.128568 189.644547 
L 454.722095 191.262562 
L 456.36874 190.708849 
L 458.015384 187.999631 
L 459.608911 183.29533 
L 461.255555 176.721638 
L 462.849082 173.708424 
L 464.495727 176.596907 
L 466.142371 178.806043 
L 467.629663 179.405015 
L 469.276307 180.685054 
L 470.869834 181.67164 
L 472.516479 182.866366 
L 474.110006 185.096631 
L 475.75665 187.152052 
L 477.403295 189.571504 
L 478.996821 190.911921 
L 480.643466 191.745516 
L 480.643466 191.745516 
" clip-path="url(#pbd1894be1c)" style="fill: none; stroke: #808080; stroke-opacity: 0.5; stroke-linecap: square"/>
   </g>
   <g id="patch_3">
    <path d="M 54.534375 224.64 
L 54.534375 7.2 
" style="fill: none; stroke: #000000; stroke-width: 0.8; stroke-linejoin: miter; stroke-linecap: square"/>
   </g>
   <g id="patch_4">
    <path d="M 54.534375 224.64 
L 500.934375 224.64 
" style="fill: none; stroke: #000000; stroke-width: 0.8; stroke-linejoin: miter; stroke-linecap: square"/>
   </g>
   <g id="line2d_47">
    <path d="M 74.825284 164.150728 
L 76.471929 163.698613 
L 78.118573 163.122057 
L 79.605865 164.921887 
L 81.252509 165.486736 
L 82.846036 165.785013 
L 84.492681 169.142733 
L 86.086207 168.450082 
L 87.732852 168.28822 
L 89.379496 165.210243 
L 90.973023 152.34689 
L 92.619668 154.941378 
L 94.213195 151.374939 
L 95.859839 145.94679 
L 97.506484 139.477701 
L 98.993775 137.891279 
L 100.64042 137.303902 
L 102.233947 136.200829 
L 103.880591 136.445301 
L 105.474118 134.606246 
L 107.120762 127.645434 
L 110.360934 140.276334 
L 112.007578 140.857182 
L 113.601105 138.980148 
L 115.24775 132.85406 
L 116.894394 133.486974 
L 118.381686 136.018383 
L 120.02833 129.056803 
L 121.621857 135.783949 
L 123.268502 127.559864 
L 124.862028 128.215757 
L 126.508673 123.989537 
L 128.155317 132.867752 
L 129.748844 131.036182 
L 131.395489 129.966183 
L 132.989016 132.308147 
L 134.63566 115.219639 
L 136.282305 114.301993 
L 137.822714 116.610041 
L 139.469358 114.689183 
L 141.062885 117.683537 
L 142.70953 118.091986 
L 144.303057 119.857629 
L 145.949701 124.150808 
L 147.596345 122.21937 
L 149.189872 122.583254 
L 150.836517 127.649836 
L 152.430044 133.007949 
L 154.076688 133.707597 
L 155.723333 135.238903 
L 157.210624 133.673025 
L 158.857269 134.401175 
L 160.450796 109.470594 
L 162.09744 147.821967 
L 163.690967 146.463865 
L 165.337612 175.576911 
L 166.984256 172.824963 
L 168.577783 172.228632 
L 170.224427 170.75361 
L 171.817954 175.911105 
L 173.464599 179.344888 
L 175.111243 178.419495 
L 176.598535 186.031885 
L 178.245179 185.611577 
L 179.838706 185.322961 
L 181.485351 185.175113 
L 183.078878 182.899866 
L 184.725522 183.791821 
L 186.372167 181.458873 
L 187.965693 184.200512 
L 189.612338 182.833623 
L 191.205865 183.505437 
L 194.499154 186.991656 
L 195.986445 186.970261 
L 197.63309 185.440343 
L 199.226617 183.606429 
L 200.873261 182.098096 
L 202.466788 181.347147 
L 204.113433 182.709385 
L 207.353604 179.463785 
L 210.593775 176.018697 
L 212.24042 175.406023 
L 213.887064 176.626201 
L 215.427474 174.533355 
L 217.074118 172.800997 
L 220.314289 165.15751 
L 221.907816 165.106037 
L 223.554461 164.791145 
L 225.201105 159.279933 
L 226.794632 158.196254 
L 228.441276 158.050989 
L 230.034803 175.889443 
L 231.681448 171.5763 
L 233.328092 171.692285 
L 234.815384 171.039749 
L 236.462028 168.250827 
L 238.055555 162.985565 
L 239.7022 165.817383 
L 241.295727 171.204055 
L 242.942371 175.529322 
L 244.589016 184.046521 
L 247.829187 186.348019 
L 249.422714 189.664414 
L 251.069358 191.898961 
L 252.716003 192.820148 
L 254.203295 194.08713 
L 255.849939 192.384232 
L 257.443466 192.404106 
L 259.09011 193.41454 
L 260.683637 193.737931 
L 262.330282 194.333539 
L 263.976926 193.273701 
L 265.570453 193.518472 
L 267.217098 195.243727 
L 268.810624 197.753135 
L 270.457269 198.212092 
L 272.103913 200.530716 
L 275.23785 200.392781 
L 276.831376 195.967566 
L 278.478021 193.326887 
L 280.071548 193.928007 
L 281.718192 193.973584 
L 283.364837 188.736331 
L 284.958364 188.019116 
L 286.605008 188.829589 
L 288.198535 195.215541 
L 289.845179 196.738074 
L 291.491824 196.765333 
L 293.032233 195.583721 
L 294.678878 195.029354 
L 296.272405 194.130677 
L 297.919049 194.318524 
L 299.512576 192.040852 
L 301.15922 191.687404 
L 302.805865 191.990136 
L 304.399392 192.070616 
L 306.046036 191.639712 
L 307.639563 190.139138 
L 309.286207 191.914339 
L 310.932852 192.775569 
L 312.420144 193.239351 
L 314.066788 193.534332 
L 315.660315 192.080068 
L 317.306959 191.661076 
L 318.900486 190.655794 
L 320.547131 191.643529 
L 322.193775 184.206726 
L 323.787302 183.536342 
L 325.433947 183.269323 
L 327.027474 182.33813 
L 328.674118 182.05065 
L 330.320762 182.920135 
L 331.808054 178.809635 
L 333.454699 177.598748 
L 335.048226 177.498204 
L 336.69487 183.019314 
L 338.288397 182.41978 
L 339.935041 183.275041 
L 341.581686 182.560579 
L 343.175213 182.424532 
L 344.821857 182.457744 
L 346.415384 185.60408 
L 348.062028 187.411497 
L 349.708673 186.662106 
L 351.195965 189.113815 
L 352.842609 189.368716 
L 354.436136 190.346517 
L 356.082781 189.657547 
L 357.676307 189.857563 
L 360.969596 190.691944 
L 362.563123 192.431943 
L 364.209768 191.934121 
L 365.803295 194.283883 
L 367.449939 194.398868 
L 369.096583 195.255247 
L 370.636993 196.294206 
L 372.283637 196.133657 
L 373.877164 195.667459 
L 375.523809 196.193547 
L 377.117335 196.095924 
L 378.76398 196.180474 
L 380.410624 195.673064 
L 382.004151 195.322794 
L 383.650796 195.458044 
L 385.244323 196.035965 
L 386.890967 195.164527 
L 388.537612 195.507551 
L 390.024903 195.417108 
L 391.671548 195.630831 
L 393.265075 195.047422 
L 394.911719 194.632373 
L 396.505246 194.106632 
L 398.15189 195.963172 
L 401.392062 194.337029 
L 403.038706 194.901811 
L 404.632233 195.122743 
L 406.278878 195.132467 
L 407.925522 194.270354 
L 409.412814 192.38101 
L 411.059458 190.489046 
L 412.652985 190.209152 
L 414.29963 188.730889 
L 415.893157 188.94413 
L 417.539801 188.328408 
L 419.186445 187.128926 
L 420.779972 187.112788 
L 422.426617 186.345351 
L 424.020144 184.885848 
L 425.666788 185.621323 
L 427.313433 185.233468 
L 428.800724 186.327283 
L 430.447369 186.167784 
L 432.040896 187.087424 
L 433.68754 186.250716 
L 435.281067 186.660449 
L 436.927712 187.650601 
L 438.574356 186.693934 
L 440.167883 185.971693 
L 441.814527 186.225769 
L 443.408054 185.746938 
L 445.054699 184.663067 
L 446.701343 186.257865 
L 448.241752 188.422787 
L 449.888397 188.183512 
L 451.481924 185.37602 
L 453.128568 185.964985 
L 454.722095 186.139255 
L 456.36874 187.708968 
L 458.015384 189.639963 
L 459.608911 188.850312 
L 461.255555 180.447992 
L 462.849082 175.215853 
L 464.495727 172.5892 
L 466.142371 168.671672 
L 467.629663 173.048646 
L 469.276307 174.944611 
L 470.869834 177.010677 
L 472.516479 179.544215 
L 474.110006 180.909776 
L 475.75665 183.453299 
L 477.403295 185.65373 
L 478.996821 186.86346 
L 480.643466 188.801014 
L 480.643466 188.801014 
" clip-path="url(#pbd1894be1c)" style="fill: none; stroke: #2b5aa5; stroke-width: 1.5; stroke-linecap: square"/>
   </g>
  </g>
 </g>
 <defs>
  <clipPath id="pbd1894be1c">
   <rect x="54.534375" y="7.2" width="446.4" height="217.44"/>
  </clipPath>
 </defs>
</svg>
