<?xml version="1.0" encoding="utf-8" standalone="no"?>
<!DOCTYPE svg PUBLIC "-//W3C//DTD SVG 1.1//EN"
  "http://www.w3.org/Graphics/SVG/1.1/DTD/svg11.dtd">
<svg xmlns:xlink="http://www.w3.org/1999/xlink" width="508.2375pt" height="248.37125pt" viewBox="0 0 508.2375 248.37125" xmlns="http://www.w3.org/2000/svg" version="1.1">
 <metadata>
  <rdf:RDF xmlns:dc="http://purl.org/dc/elements/1.1/" xmlns:cc="http://creativecommons.org/ns#" xmlns:rdf="http://www.w3.org/1999/02/22-rdf-syntax-ns#">
   <cc:Work>
    <dc:type rdf:resource="http://purl.org/dc/dcmitype/StillImage"/>
    <dc:date>2022-01-12T13:15:26.658297</dc:date>
    <dc:format>image/svg+xml</dc:format>
    <dc:creator>
     <cc:Agent>
      <dc:title>Matplotlib v3.5.1, https://matplotlib.org/</dc:title>
     </cc:Agent>
    </dc:creator>
   </cc:Work>
  </rdf:RDF>
 </metadata>
 <defs>
  <style type="text/css">*{stroke-linejoin: round; stroke-linecap: butt}</style>
 </defs>
 <g id="figure_1">
  <g id="patch_1">
   <path d="M 0 248.37125 
L 508.2375 248.37125 
L 508.2375 0 
L 0 0 
z
" style="fill: #ffffff"/>
  </g>
  <g id="axes_1">
   <g id="patch_2">
    <path d="M 54.6375 224.64 
L 501.0375 224.64 
L 501.0375 7.2 
L 54.6375 7.2 
z
" style="fill: #ffffff"/>
   </g>
   <g id="matplotlib.axis_1">
    <g id="xtick_1">
     <g id="line2d_1">
      <path d="M 78.317171 224.64 
L 78.317171 7.2 
" clip-path="url(#p9eb253b07d)" style="fill: none; stroke-dasharray: 2.96,1.28; stroke-dashoffset: 0; stroke: #dddddd; stroke-width: 0.8"/>
     </g>
     <g id="line2d_2">
      <defs>
       <path id="mae2f00f94e" d="M 0 0 
L 0 3.5 
" style="stroke: #000000; stroke-width: 0.8"/>
      </defs>
      <g>
       <use xlink:href="#mae2f00f94e" x="78.317171" y="224.64" style="stroke: #000000; stroke-width: 0.8"/>
      </g>
     </g>
     <g id="text_1">
      <!-- 2002 -->
      <g transform="translate(67.085921 239.14)scale(0.1 -0.1)">
       <defs>
        <path id="Roboto-Regular-32" d="M 3359 0 
L 378 0 
L 378 416 
L 1953 2166 
Q 2303 2563 2436 2811 
Q 2569 3059 2569 3325 
Q 2569 3681 2353 3909 
Q 2138 4138 1778 4138 
Q 1347 4138 1108 3892 
Q 869 3647 869 3209 
L 291 3209 
Q 291 3838 695 4225 
Q 1100 4613 1778 4613 
Q 2413 4613 2781 4280 
Q 3150 3947 3150 3394 
Q 3150 2722 2294 1794 
L 1075 472 
L 3359 472 
L 3359 0 
z
" transform="scale(0.015625)"/>
        <path id="Roboto-Regular-30" d="M 3231 1941 
Q 3231 925 2884 431 
Q 2538 -63 1800 -63 
Q 1072 -63 722 420 
Q 372 903 359 1863 
L 359 2634 
Q 359 3638 706 4125 
Q 1053 4613 1794 4613 
Q 2528 4613 2875 4142 
Q 3222 3672 3231 2691 
L 3231 1941 
z
M 2653 2731 
Q 2653 3466 2447 3802 
Q 2241 4138 1794 4138 
Q 1350 4138 1147 3803 
Q 944 3469 938 2775 
L 938 1850 
Q 938 1113 1152 761 
Q 1366 409 1800 409 
Q 2228 409 2436 740 
Q 2644 1072 2653 1784 
L 2653 2731 
z
" transform="scale(0.015625)"/>
       </defs>
       <use xlink:href="#Roboto-Regular-32"/>
       <use xlink:href="#Roboto-Regular-30" x="56.152344"/>
       <use xlink:href="#Roboto-Regular-30" x="112.304688"/>
       <use xlink:href="#Roboto-Regular-32" x="168.457031"/>
      </g>
     </g>
    </g>
    <g id="xtick_2">
     <g id="line2d_3">
      <path d="M 118.871213 224.64 
L 118.871213 7.2 
" clip-path="url(#p9eb253b07d)" style="fill: none; stroke-dasharray: 2.96,1.28; stroke-dashoffset: 0; stroke: #dddddd; stroke-width: 0.8"/>
     </g>
     <g id="line2d_4">
      <g>
       <use xlink:href="#mae2f00f94e" x="118.871213" y="224.64" style="stroke: #000000; stroke-width: 0.8"/>
      </g>
     </g>
     <g id="text_2">
      <!-- 2004 -->
      <g transform="translate(107.639963 239.14)scale(0.1 -0.1)">
       <defs>
        <path id="Roboto-Regular-34" d="M 2819 1528 
L 3450 1528 
L 3450 1056 
L 2819 1056 
L 2819 0 
L 2238 0 
L 2238 1056 
L 166 1056 
L 166 1397 
L 2203 4550 
L 2819 4550 
L 2819 1528 
z
M 822 1528 
L 2238 1528 
L 2238 3759 
L 2169 3634 
L 822 1528 
z
" transform="scale(0.015625)"/>
       </defs>
       <use xlink:href="#Roboto-Regular-32"/>
       <use xlink:href="#Roboto-Regular-30" x="56.152344"/>
       <use xlink:href="#Roboto-Regular-30" x="112.304688"/>
       <use xlink:href="#Roboto-Regular-34" x="168.457031"/>
      </g>
     </g>
    </g>
    <g id="xtick_3">
     <g id="line2d_5">
      <path d="M 159.480808 224.64 
L 159.480808 7.2 
" clip-path="url(#p9eb253b07d)" style="fill: none; stroke-dasharray: 2.96,1.28; stroke-dashoffset: 0; stroke: #dddddd; stroke-width: 0.8"/>
     </g>
     <g id="line2d_6">
      <g>
       <use xlink:href="#mae2f00f94e" x="159.480808" y="224.64" style="stroke: #000000; stroke-width: 0.8"/>
      </g>
     </g>
     <g id="text_3">
      <!-- 2006 -->
      <g transform="translate(148.249558 239.14)scale(0.1 -0.1)">
       <defs>
        <path id="Roboto-Regular-36" d="M 2647 4553 
L 2647 4063 
L 2541 4063 
Q 1866 4050 1466 3662 
Q 1066 3275 1003 2572 
Q 1363 2984 1984 2984 
Q 2578 2984 2933 2565 
Q 3288 2147 3288 1484 
Q 3288 781 2905 359 
Q 2522 -63 1878 -63 
Q 1225 -63 819 439 
Q 413 941 413 1731 
L 413 1953 
Q 413 3209 948 3873 
Q 1484 4538 2544 4553 
L 2647 4553 
z
M 1888 2503 
Q 1591 2503 1341 2325 
Q 1091 2147 994 1878 
L 994 1666 
Q 994 1103 1247 759 
Q 1500 416 1878 416 
Q 2269 416 2492 703 
Q 2716 991 2716 1456 
Q 2716 1925 2489 2214 
Q 2263 2503 1888 2503 
z
" transform="scale(0.015625)"/>
       </defs>
       <use xlink:href="#Roboto-Regular-32"/>
       <use xlink:href="#Roboto-Regular-30" x="56.152344"/>
       <use xlink:href="#Roboto-Regular-30" x="112.304688"/>
       <use xlink:href="#Roboto-Regular-36" x="168.457031"/>
      </g>
     </g>
    </g>
    <g id="xtick_4">
     <g id="line2d_7">
      <path d="M 200.034849 224.64 
L 200.034849 7.2 
" clip-path="url(#p9eb253b07d)" style="fill: none; stroke-dasharray: 2.96,1.28; stroke-dashoffset: 0; stroke: #dddddd; stroke-width: 0.8"/>
     </g>
     <g id="line2d_8">
      <g>
       <use xlink:href="#mae2f00f94e" x="200.034849" y="224.64" style="stroke: #000000; stroke-width: 0.8"/>
      </g>
     </g>
     <g id="text_4">
      <!-- 2008 -->
      <g transform="translate(188.803599 239.14)scale(0.1 -0.1)">
       <defs>
        <path id="Roboto-Regular-38" d="M 3138 3363 
Q 3138 3022 2958 2756 
Q 2778 2491 2472 2341 
Q 2828 2188 3036 1894 
Q 3244 1600 3244 1228 
Q 3244 638 2845 287 
Q 2447 -63 1797 -63 
Q 1141 -63 745 289 
Q 350 641 350 1228 
Q 350 1597 551 1894 
Q 753 2191 1109 2344 
Q 806 2494 631 2759 
Q 456 3025 456 3363 
Q 456 3938 825 4275 
Q 1194 4613 1797 4613 
Q 2397 4613 2767 4275 
Q 3138 3938 3138 3363 
z
M 2666 1241 
Q 2666 1622 2423 1862 
Q 2181 2103 1790 2103 
Q 1400 2103 1164 1865 
Q 928 1628 928 1240 
Q 928 853 1158 631 
Q 1388 409 1797 409 
Q 2203 409 2434 632 
Q 2666 856 2666 1241 
z
M 1797 4138 
Q 1456 4138 1245 3927 
Q 1034 3716 1034 3353 
Q 1034 3006 1242 2792 
Q 1450 2578 1797 2578 
Q 2144 2578 2351 2792 
Q 2559 3006 2559 3353 
Q 2559 3700 2343 3919 
Q 2128 4138 1797 4138 
z
" transform="scale(0.015625)"/>
       </defs>
       <use xlink:href="#Roboto-Regular-32"/>
       <use xlink:href="#Roboto-Regular-30" x="56.152344"/>
       <use xlink:href="#Roboto-Regular-30" x="112.304688"/>
       <use xlink:href="#Roboto-Regular-38" x="168.457031"/>
      </g>
     </g>
    </g>
    <g id="xtick_5">
     <g id="line2d_9">
      <path d="M 240.644444 224.64 
L 240.644444 7.2 
" clip-path="url(#p9eb253b07d)" style="fill: none; stroke-dasharray: 2.96,1.28; stroke-dashoffset: 0; stroke: #dddddd; stroke-width: 0.8"/>
     </g>
     <g id="line2d_10">
      <g>
       <use xlink:href="#mae2f00f94e" x="240.644444" y="224.64" style="stroke: #000000; stroke-width: 0.8"/>
      </g>
     </g>
     <g id="text_5">
      <!-- 2010 -->
      <g transform="translate(229.413194 239.14)scale(0.1 -0.1)">
       <defs>
        <path id="Roboto-Regular-31" d="M 2278 0 
L 1697 0 
L 1697 3853 
L 531 3425 
L 531 3950 
L 2188 4572 
L 2278 4572 
L 2278 0 
z
" transform="scale(0.015625)"/>
       </defs>
       <use xlink:href="#Roboto-Regular-32"/>
       <use xlink:href="#Roboto-Regular-30" x="56.152344"/>
       <use xlink:href="#Roboto-Regular-31" x="112.304688"/>
       <use xlink:href="#Roboto-Regular-30" x="168.457031"/>
      </g>
     </g>
    </g>
    <g id="xtick_6">
     <g id="line2d_11">
      <path d="M 281.198486 224.64 
L 281.198486 7.2 
" clip-path="url(#p9eb253b07d)" style="fill: none; stroke-dasharray: 2.96,1.28; stroke-dashoffset: 0; stroke: #dddddd; stroke-width: 0.8"/>
     </g>
     <g id="line2d_12">
      <g>
       <use xlink:href="#mae2f00f94e" x="281.198486" y="224.64" style="stroke: #000000; stroke-width: 0.8"/>
      </g>
     </g>
     <g id="text_6">
      <!-- 2012 -->
      <g transform="translate(269.967236 239.14)scale(0.1 -0.1)">
       <use xlink:href="#Roboto-Regular-32"/>
       <use xlink:href="#Roboto-Regular-30" x="56.152344"/>
       <use xlink:href="#Roboto-Regular-31" x="112.304688"/>
       <use xlink:href="#Roboto-Regular-32" x="168.457031"/>
      </g>
     </g>
    </g>
    <g id="xtick_7">
     <g id="line2d_13">
      <path d="M 321.808081 224.64 
L 321.808081 7.2 
" clip-path="url(#p9eb253b07d)" style="fill: none; stroke-dasharray: 2.96,1.28; stroke-dashoffset: 0; stroke: #dddddd; stroke-width: 0.8"/>
     </g>
     <g id="line2d_14">
      <g>
       <use xlink:href="#mae2f00f94e" x="321.808081" y="224.64" style="stroke: #000000; stroke-width: 0.8"/>
      </g>
     </g>
     <g id="text_7">
      <!-- 2014 -->
      <g transform="translate(310.576831 239.14)scale(0.1 -0.1)">
       <use xlink:href="#Roboto-Regular-32"/>
       <use xlink:href="#Roboto-Regular-30" x="56.152344"/>
       <use xlink:href="#Roboto-Regular-31" x="112.304688"/>
       <use xlink:href="#Roboto-Regular-34" x="168.457031"/>
      </g>
     </g>
    </g>
    <g id="xtick_8">
     <g id="line2d_15">
      <path d="M 362.362122 224.64 
L 362.362122 7.2 
" clip-path="url(#p9eb253b07d)" style="fill: none; stroke-dasharray: 2.96,1.28; stroke-dashoffset: 0; stroke: #dddddd; stroke-width: 0.8"/>
     </g>
     <g id="line2d_16">
      <g>
       <use xlink:href="#mae2f00f94e" x="362.362122" y="224.64" style="stroke: #000000; stroke-width: 0.8"/>
      </g>
     </g>
     <g id="text_8">
      <!-- 2016 -->
      <g transform="translate(351.130872 239.14)scale(0.1 -0.1)">
       <use xlink:href="#Roboto-Regular-32"/>
       <use xlink:href="#Roboto-Regular-30" x="56.152344"/>
       <use xlink:href="#Roboto-Regular-31" x="112.304688"/>
       <use xlink:href="#Roboto-Regular-36" x="168.457031"/>
      </g>
     </g>
    </g>
    <g id="xtick_9">
     <g id="line2d_17">
      <path d="M 402.971717 224.64 
L 402.971717 7.2 
" clip-path="url(#p9eb253b07d)" style="fill: none; stroke-dasharray: 2.96,1.28; stroke-dashoffset: 0; stroke: #dddddd; stroke-width: 0.8"/>
     </g>
     <g id="line2d_18">
      <g>
       <use xlink:href="#mae2f00f94e" x="402.971717" y="224.64" style="stroke: #000000; stroke-width: 0.8"/>
      </g>
     </g>
     <g id="text_9">
      <!-- 2018 -->
      <g transform="translate(391.740467 239.14)scale(0.1 -0.1)">
       <use xlink:href="#Roboto-Regular-32"/>
       <use xlink:href="#Roboto-Regular-30" x="56.152344"/>
       <use xlink:href="#Roboto-Regular-31" x="112.304688"/>
       <use xlink:href="#Roboto-Regular-38" x="168.457031"/>
      </g>
     </g>
    </g>
    <g id="xtick_10">
     <g id="line2d_19">
      <path d="M 443.525758 224.64 
L 443.525758 7.2 
" clip-path="url(#p9eb253b07d)" style="fill: none; stroke-dasharray: 2.96,1.28; stroke-dashoffset: 0; stroke: #dddddd; stroke-width: 0.8"/>
     </g>
     <g id="line2d_20">
      <g>
       <use xlink:href="#mae2f00f94e" x="443.525758" y="224.64" style="stroke: #000000; stroke-width: 0.8"/>
      </g>
     </g>
     <g id="text_10">
      <!-- 2020 -->
      <g transform="translate(432.294508 239.14)scale(0.1 -0.1)">
       <use xlink:href="#Roboto-Regular-32"/>
       <use xlink:href="#Roboto-Regular-30" x="56.152344"/>
       <use xlink:href="#Roboto-Regular-32" x="112.304688"/>
       <use xlink:href="#Roboto-Regular-30" x="168.457031"/>
      </g>
     </g>
    </g>
    <g id="xtick_11">
     <g id="line2d_21">
      <path d="M 484.135353 224.64 
L 484.135353 7.2 
" clip-path="url(#p9eb253b07d)" style="fill: none; stroke-dasharray: 2.96,1.28; stroke-dashoffset: 0; stroke: #dddddd; stroke-width: 0.8"/>
     </g>
     <g id="line2d_22">
      <g>
       <use xlink:href="#mae2f00f94e" x="484.135353" y="224.64" style="stroke: #000000; stroke-width: 0.8"/>
      </g>
     </g>
     <g id="text_11">
      <!-- 2022 -->
      <g transform="translate(472.904103 239.14)scale(0.1 -0.1)">
       <use xlink:href="#Roboto-Regular-32"/>
       <use xlink:href="#Roboto-Regular-30" x="56.152344"/>
       <use xlink:href="#Roboto-Regular-32" x="112.304688"/>
       <use xlink:href="#Roboto-Regular-32" x="168.457031"/>
      </g>
     </g>
    </g>
   </g>
   <g id="matplotlib.axis_2">
    <g id="ytick_1">
     <g id="line2d_23">
      <path d="M 54.6375 217.484521 
L 501.0375 217.484521 
" clip-path="url(#p9eb253b07d)" style="fill: none; stroke-dasharray: 2.96,1.28; stroke-dashoffset: 0; stroke: #dddddd; stroke-width: 0.8"/>
     </g>
     <g id="line2d_24">
      <defs>
       <path id="mdbde655f07" d="M 0 0 
L -3.5 0 
" style="stroke: #000000; stroke-width: 0.8"/>
      </defs>
      <g>
       <use xlink:href="#mdbde655f07" x="54.6375" y="217.484521" style="stroke: #000000; stroke-width: 0.8"/>
      </g>
     </g>
     <g id="text_12">
      <!-- 0.0% -->
      <g transform="translate(26.45 221.234521)scale(0.1 -0.1)">
       <defs>
        <path id="Roboto-Regular-2e" d="M 450 303 
Q 450 453 539 553 
Q 628 653 806 653 
Q 984 653 1076 553 
Q 1169 453 1169 303 
Q 1169 159 1076 62 
Q 984 -34 806 -34 
Q 628 -34 539 62 
Q 450 159 450 303 
z
" transform="scale(0.015625)"/>
        <path id="Roboto-Regular-25" d="M 328 3675 
Q 328 4084 589 4350 
Q 850 4616 1259 4616 
Q 1675 4616 1933 4348 
Q 2191 4081 2191 3656 
L 2191 3434 
Q 2191 3022 1930 2761 
Q 1669 2500 1266 2500 
Q 859 2500 593 2761 
Q 328 3022 328 3456 
L 328 3675 
z
M 759 3434 
Q 759 3191 896 3033 
Q 1034 2875 1266 2875 
Q 1488 2875 1623 3028 
Q 1759 3181 1759 3447 
L 1759 3675 
Q 1759 3919 1625 4078 
Q 1491 4238 1259 4238 
Q 1028 4238 893 4078 
Q 759 3919 759 3663 
L 759 3434 
z
M 2544 1116 
Q 2544 1525 2805 1789 
Q 3066 2053 3475 2053 
Q 3884 2053 4146 1790 
Q 4409 1528 4409 1094 
L 4409 872 
Q 4409 463 4148 198 
Q 3888 -66 3481 -66 
Q 3075 -66 2809 195 
Q 2544 456 2544 891 
L 2544 1116 
z
M 2975 872 
Q 2975 625 3112 467 
Q 3250 309 3481 309 
Q 3706 309 3840 464 
Q 3975 619 3975 884 
L 3975 1116 
Q 3975 1363 3839 1519 
Q 3703 1675 3475 1675 
Q 3253 1675 3114 1520 
Q 2975 1366 2975 1103 
L 2975 872 
z
M 1397 344 
L 1069 550 
L 3291 4106 
L 3619 3900 
L 1397 344 
z
" transform="scale(0.015625)"/>
       </defs>
       <use xlink:href="#Roboto-Regular-30"/>
       <use xlink:href="#Roboto-Regular-2e" x="56.152344"/>
       <use xlink:href="#Roboto-Regular-30" x="82.470703"/>
       <use xlink:href="#Roboto-Regular-25" x="138.623047"/>
      </g>
     </g>
    </g>
    <g id="ytick_2">
     <g id="line2d_25">
      <path d="M 54.6375 190.823233 
L 501.0375 190.823233 
" clip-path="url(#p9eb253b07d)" style="fill: none; stroke-dasharray: 2.96,1.28; stroke-dashoffset: 0; stroke: #dddddd; stroke-width: 0.8"/>
     </g>
     <g id="line2d_26">
      <g>
       <use xlink:href="#mdbde655f07" x="54.6375" y="190.823233" style="stroke: #000000; stroke-width: 0.8"/>
      </g>
     </g>
     <g id="text_13">
      <!-- 2.0% -->
      <g transform="translate(26.45 194.573233)scale(0.1 -0.1)">
       <use xlink:href="#Roboto-Regular-32"/>
       <use xlink:href="#Roboto-Regular-2e" x="56.152344"/>
       <use xlink:href="#Roboto-Regular-30" x="82.470703"/>
       <use xlink:href="#Roboto-Regular-25" x="138.623047"/>
      </g>
     </g>
    </g>
    <g id="ytick_3">
     <g id="line2d_27">
      <path d="M 54.6375 164.161944 
L 501.0375 164.161944 
" clip-path="url(#p9eb253b07d)" style="fill: none; stroke-dasharray: 2.96,1.28; stroke-dashoffset: 0; stroke: #dddddd; stroke-width: 0.8"/>
     </g>
     <g id="line2d_28">
      <g>
       <use xlink:href="#mdbde655f07" x="54.6375" y="164.161944" style="stroke: #000000; stroke-width: 0.8"/>
      </g>
     </g>
     <g id="text_14">
      <!-- 4.0% -->
      <g transform="translate(26.45 167.911944)scale(0.1 -0.1)">
       <use xlink:href="#Roboto-Regular-34"/>
       <use xlink:href="#Roboto-Regular-2e" x="56.152344"/>
       <use xlink:href="#Roboto-Regular-30" x="82.470703"/>
       <use xlink:href="#Roboto-Regular-25" x="138.623047"/>
      </g>
     </g>
    </g>
    <g id="ytick_4">
     <g id="line2d_29">
      <path d="M 54.6375 137.500655 
L 501.0375 137.500655 
" clip-path="url(#p9eb253b07d)" style="fill: none; stroke-dasharray: 2.96,1.28; stroke-dashoffset: 0; stroke: #dddddd; stroke-width: 0.8"/>
     </g>
     <g id="line2d_30">
      <g>
       <use xlink:href="#mdbde655f07" x="54.6375" y="137.500655" style="stroke: #000000; stroke-width: 0.8"/>
      </g>
     </g>
     <g id="text_15">
      <!-- 6.0% -->
      <g transform="translate(26.45 141.250655)scale(0.1 -0.1)">
       <use xlink:href="#Roboto-Regular-36"/>
       <use xlink:href="#Roboto-Regular-2e" x="56.152344"/>
       <use xlink:href="#Roboto-Regular-30" x="82.470703"/>
       <use xlink:href="#Roboto-Regular-25" x="138.623047"/>
      </g>
     </g>
    </g>
    <g id="ytick_5">
     <g id="line2d_31">
      <path d="M 54.6375 110.839366 
L 501.0375 110.839366 
" clip-path="url(#p9eb253b07d)" style="fill: none; stroke-dasharray: 2.96,1.28; stroke-dashoffset: 0; stroke: #dddddd; stroke-width: 0.8"/>
     </g>
     <g id="line2d_32">
      <g>
       <use xlink:href="#mdbde655f07" x="54.6375" y="110.839366" style="stroke: #000000; stroke-width: 0.8"/>
      </g>
     </g>
     <g id="text_16">
      <!-- 8.0% -->
      <g transform="translate(26.45 114.589366)scale(0.1 -0.1)">
       <use xlink:href="#Roboto-Regular-38"/>
       <use xlink:href="#Roboto-Regular-2e" x="56.152344"/>
       <use xlink:href="#Roboto-Regular-30" x="82.470703"/>
       <use xlink:href="#Roboto-Regular-25" x="138.623047"/>
      </g>
     </g>
    </g>
    <g id="ytick_6">
     <g id="line2d_33">
      <path d="M 54.6375 84.178077 
L 501.0375 84.178077 
" clip-path="url(#p9eb253b07d)" style="fill: none; stroke-dasharray: 2.96,1.28; stroke-dashoffset: 0; stroke: #dddddd; stroke-width: 0.8"/>
     </g>
     <g id="line2d_34">
      <g>
       <use xlink:href="#mdbde655f07" x="54.6375" y="84.178077" style="stroke: #000000; stroke-width: 0.8"/>
      </g>
     </g>
     <g id="text_17">
      <!-- 10.0% -->
      <g transform="translate(20.834375 87.928077)scale(0.1 -0.1)">
       <use xlink:href="#Roboto-Regular-31"/>
       <use xlink:href="#Roboto-Regular-30" x="56.152344"/>
       <use xlink:href="#Roboto-Regular-2e" x="112.304688"/>
       <use xlink:href="#Roboto-Regular-30" x="138.623047"/>
       <use xlink:href="#Roboto-Regular-25" x="194.775391"/>
      </g>
     </g>
    </g>
    <g id="ytick_7">
     <g id="line2d_35">
      <path d="M 54.6375 57.516788 
L 501.0375 57.516788 
" clip-path="url(#p9eb253b07d)" style="fill: none; stroke-dasharray: 2.96,1.28; stroke-dashoffset: 0; stroke: #dddddd; stroke-width: 0.8"/>
     </g>
     <g id="line2d_36">
      <g>
       <use xlink:href="#mdbde655f07" x="54.6375" y="57.516788" style="stroke: #000000; stroke-width: 0.8"/>
      </g>
     </g>
     <g id="text_18">
      <!-- 12.0% -->
      <g transform="translate(20.834375 61.266788)scale(0.1 -0.1)">
       <use xlink:href="#Roboto-Regular-31"/>
       <use xlink:href="#Roboto-Regular-32" x="56.152344"/>
       <use xlink:href="#Roboto-Regular-2e" x="112.304688"/>
       <use xlink:href="#Roboto-Regular-30" x="138.623047"/>
       <use xlink:href="#Roboto-Regular-25" x="194.775391"/>
      </g>
     </g>
    </g>
    <g id="ytick_8">
     <g id="line2d_37">
      <path d="M 54.6375 30.8555 
L 501.0375 30.8555 
" clip-path="url(#p9eb253b07d)" style="fill: none; stroke-dasharray: 2.96,1.28; stroke-dashoffset: 0; stroke: #dddddd; stroke-width: 0.8"/>
     </g>
     <g id="line2d_38">
      <g>
       <use xlink:href="#mdbde655f07" x="54.6375" y="30.8555" style="stroke: #000000; stroke-width: 0.8"/>
      </g>
     </g>
     <g id="text_19">
      <!-- 14.0% -->
      <g transform="translate(20.834375 34.6055)scale(0.1 -0.1)">
       <use xlink:href="#Roboto-Regular-31"/>
       <use xlink:href="#Roboto-Regular-34" x="56.152344"/>
       <use xlink:href="#Roboto-Regular-2e" x="112.304688"/>
       <use xlink:href="#Roboto-Regular-30" x="138.623047"/>
       <use xlink:href="#Roboto-Regular-25" x="194.775391"/>
      </g>
     </g>
    </g>
    <g id="text_20">
     <!-- NPL adj. ratio -->
     <g transform="translate(14.7 145.96375)rotate(-90)scale(0.1 -0.1)">
      <defs>
       <path id="Roboto-Regular-4e" d="M 4025 0 
L 3422 0 
L 1131 3506 
L 1131 0 
L 528 0 
L 528 4550 
L 1131 4550 
L 3428 1028 
L 3428 4550 
L 4025 4550 
L 4025 0 
z
" transform="scale(0.015625)"/>
       <path id="Roboto-Regular-50" d="M 1128 1781 
L 1128 0 
L 528 0 
L 528 4550 
L 2206 4550 
Q 2953 4550 3376 4169 
Q 3800 3788 3800 3159 
Q 3800 2497 3386 2139 
Q 2972 1781 2200 1781 
L 1128 1781 
z
M 1128 2272 
L 2206 2272 
Q 2688 2272 2944 2498 
Q 3200 2725 3200 3153 
Q 3200 3559 2944 3803 
Q 2688 4047 2241 4056 
L 1128 4056 
L 1128 2272 
z
" transform="scale(0.015625)"/>
       <path id="Roboto-Regular-4c" d="M 1131 491 
L 3288 491 
L 3288 0 
L 528 0 
L 528 4550 
L 1131 4550 
L 1131 491 
z
" transform="scale(0.015625)"/>
       <path id="Roboto-Regular-20" transform="scale(0.015625)"/>
       <path id="Roboto-Regular-61" d="M 2525 0 
Q 2475 100 2444 356 
Q 2041 -63 1481 -63 
Q 981 -63 661 220 
Q 341 503 341 938 
Q 341 1466 742 1758 
Q 1144 2050 1872 2050 
L 2434 2050 
L 2434 2316 
Q 2434 2619 2253 2798 
Q 2072 2978 1719 2978 
Q 1409 2978 1200 2822 
Q 991 2666 991 2444 
L 409 2444 
Q 409 2697 589 2933 
Q 769 3169 1076 3306 
Q 1384 3444 1753 3444 
Q 2338 3444 2669 3151 
Q 3000 2859 3013 2347 
L 3013 791 
Q 3013 325 3131 50 
L 3131 0 
L 2525 0 
z
M 1566 441 
Q 1838 441 2081 581 
Q 2325 722 2434 947 
L 2434 1641 
L 1981 1641 
Q 919 1641 919 1019 
Q 919 747 1100 594 
Q 1281 441 1566 441 
z
" transform="scale(0.015625)"/>
       <path id="Roboto-Regular-64" d="M 297 1719 
Q 297 2497 665 2970 
Q 1034 3444 1631 3444 
Q 2225 3444 2572 3038 
L 2572 4800 
L 3150 4800 
L 3150 0 
L 2619 0 
L 2591 363 
Q 2244 -63 1625 -63 
Q 1038 -63 667 418 
Q 297 900 297 1675 
L 297 1719 
z
M 875 1653 
Q 875 1078 1112 753 
Q 1350 428 1769 428 
Q 2319 428 2572 922 
L 2572 2475 
Q 2313 2953 1775 2953 
Q 1350 2953 1112 2625 
Q 875 2297 875 1653 
z
" transform="scale(0.015625)"/>
       <path id="Roboto-Regular-6a" d="M 1034 3381 
L 1034 -391 
Q 1034 -1366 150 -1366 
Q -41 -1366 -203 -1309 
L -203 -847 
Q -103 -872 59 -872 
Q 253 -872 354 -767 
Q 456 -663 456 -403 
L 456 3381 
L 1034 3381 
z
M 397 4278 
Q 397 4416 483 4514 
Q 569 4613 734 4613 
Q 903 4613 990 4516 
Q 1078 4419 1078 4278 
Q 1078 4138 990 4044 
Q 903 3950 734 3950 
Q 566 3950 481 4044 
Q 397 4138 397 4278 
z
" transform="scale(0.015625)"/>
       <path id="Roboto-Regular-72" d="M 2072 2863 
Q 1941 2884 1788 2884 
Q 1219 2884 1016 2400 
L 1016 0 
L 438 0 
L 438 3381 
L 1000 3381 
L 1009 2991 
Q 1294 3444 1816 3444 
Q 1984 3444 2072 3400 
L 2072 2863 
z
" transform="scale(0.015625)"/>
       <path id="Roboto-Regular-74" d="M 1222 4200 
L 1222 3381 
L 1853 3381 
L 1853 2934 
L 1222 2934 
L 1222 838 
Q 1222 634 1306 532 
Q 1391 431 1594 431 
Q 1694 431 1869 469 
L 1869 0 
Q 1641 -63 1425 -63 
Q 1038 -63 841 171 
Q 644 406 644 838 
L 644 2934 
L 28 2934 
L 28 3381 
L 644 3381 
L 644 4200 
L 1222 4200 
z
" transform="scale(0.015625)"/>
       <path id="Roboto-Regular-69" d="M 1066 0 
L 488 0 
L 488 3381 
L 1066 3381 
L 1066 0 
z
M 441 4278 
Q 441 4419 527 4516 
Q 613 4613 781 4613 
Q 950 4613 1037 4516 
Q 1125 4419 1125 4278 
Q 1125 4138 1037 4044 
Q 950 3950 781 3950 
Q 613 3950 527 4044 
Q 441 4138 441 4278 
z
" transform="scale(0.015625)"/>
       <path id="Roboto-Regular-6f" d="M 284 1722 
Q 284 2219 479 2616 
Q 675 3013 1023 3228 
Q 1372 3444 1819 3444 
Q 2509 3444 2936 2966 
Q 3363 2488 3363 1694 
L 3363 1653 
Q 3363 1159 3173 767 
Q 2984 375 2632 156 
Q 2281 -63 1825 -63 
Q 1138 -63 711 415 
Q 284 894 284 1681 
L 284 1722 
z
M 866 1653 
Q 866 1091 1127 750 
Q 1388 409 1825 409 
Q 2266 409 2525 754 
Q 2784 1100 2784 1722 
Q 2784 2278 2520 2623 
Q 2256 2969 1819 2969 
Q 1391 2969 1128 2628 
Q 866 2288 866 1653 
z
" transform="scale(0.015625)"/>
      </defs>
      <use xlink:href="#Roboto-Regular-4e"/>
      <use xlink:href="#Roboto-Regular-50" x="71.289062"/>
      <use xlink:href="#Roboto-Regular-4c" x="134.375"/>
      <use xlink:href="#Roboto-Regular-20" x="188.183594"/>
      <use xlink:href="#Roboto-Regular-61" x="212.939453"/>
      <use xlink:href="#Roboto-Regular-64" x="267.333984"/>
      <use xlink:href="#Roboto-Regular-6a" x="323.730469"/>
      <use xlink:href="#Roboto-Regular-2e" x="347.607422"/>
      <use xlink:href="#Roboto-Regular-20" x="373.925781"/>
      <use xlink:href="#Roboto-Regular-72" x="398.681641"/>
      <use xlink:href="#Roboto-Regular-61" x="432.519531"/>
      <use xlink:href="#Roboto-Regular-74" x="486.914062"/>
      <use xlink:href="#Roboto-Regular-69" x="519.580078"/>
      <use xlink:href="#Roboto-Regular-6f" x="543.847656"/>
     </g>
    </g>
   </g>
   <g id="line2d_39">
    <path d="M 74.928409 147.527498 
L 76.595014 149.640416 
L 78.317171 148.643478 
L 80.039329 148.957758 
L 81.594827 175.568411 
L 83.316985 175.375413 
L 86.705747 175.550717 
L 88.372352 176.135919 
L 90.09451 176.113891 
L 91.816667 175.889067 
L 93.483272 174.388626 
L 95.20543 174.01576 
L 96.872034 178.764511 
L 98.594192 174.872025 
L 100.31635 190.034243 
L 101.871848 189.275581 
L 103.594006 182.549727 
L 105.26061 181.924348 
L 106.982768 185.582075 
L 108.649372 185.841784 
L 110.37153 185.333524 
L 112.093688 189.942645 
L 113.760293 189.488256 
L 115.482451 188.504321 
L 123.92658 186.190086 
L 125.593184 185.02301 
L 127.315342 184.285892 
L 128.981947 184.039208 
L 132.426262 181.278686 
L 134.092867 179.501631 
L 135.815025 177.962809 
L 137.481629 160.955306 
L 139.203787 160.595077 
L 142.481443 160.325064 
L 144.2036 160.886945 
L 145.870205 171.09985 
L 147.592363 169.594519 
L 149.258967 169.520791 
L 150.981125 168.915789 
L 152.703283 172.175779 
L 154.369888 171.080084 
L 156.092045 171.016644 
L 157.75865 183.158929 
L 159.480808 182.797499 
L 161.202966 183.203932 
L 162.758463 183.781309 
L 164.480621 184.00671 
L 166.147226 184.043167 
L 167.869384 184.373899 
L 169.535988 184.158954 
L 171.258146 183.754069 
L 172.980304 183.910084 
L 174.646908 182.720314 
L 176.369066 182.480864 
L 178.035671 182.854572 
L 179.757829 182.487154 
L 181.479986 182.281137 
L 183.035484 183.048352 
L 184.757642 182.349688 
L 186.424246 181.324586 
L 188.146404 181.562027 
L 189.813009 180.405449 
L 191.535167 180.309207 
L 193.257325 179.588953 
L 194.923929 180.64692 
L 196.646087 179.617322 
L 198.312691 182.119478 
L 200.034849 180.566716 
L 201.757007 180.85568 
L 205.090216 179.042709 
L 206.756821 179.68906 
L 208.478978 178.764883 
L 210.145583 178.019062 
L 211.867741 175.71855 
L 213.589899 174.250486 
L 215.256503 172.119032 
L 216.978661 169.029953 
L 218.645266 167.158126 
L 220.367423 157.36355 
L 222.089581 154.933342 
L 223.645079 151.113091 
L 225.367237 148.240669 
L 227.033841 145.90603 
L 228.755999 145.235813 
L 230.422604 149.32422 
L 232.144762 147.505711 
L 233.866919 143.787322 
L 235.533524 142.632055 
L 237.255682 142.734019 
L 238.922286 144.724814 
L 240.644444 144.110049 
L 242.366602 144.934002 
L 243.9221 152.085821 
L 245.644258 151.531853 
L 247.310862 153.255403 
L 249.03302 153.806254 
L 250.699624 151.927649 
L 252.421782 153.999654 
L 254.14394 157.5908 
L 255.810545 159.028732 
L 257.532703 160.872779 
L 259.199307 156.777945 
L 260.921465 158.461488 
L 262.643623 160.731431 
L 264.19912 160.566381 
L 265.921278 161.344481 
L 267.587883 163.676998 
L 269.310041 165.42964 
L 270.976645 166.352154 
L 272.698803 167.823195 
L 274.420961 167.182713 
L 276.087565 167.932989 
L 277.809723 169.653991 
L 279.476328 174.895518 
L 281.198486 175.868484 
L 282.920644 177.067437 
L 284.531695 177.969938 
L 286.253852 176.782102 
L 287.920457 177.34955 
L 289.642615 178.259121 
L 291.309219 177.864536 
L 294.753535 178.469845 
L 296.42014 177.911917 
L 298.142297 177.639588 
L 299.808902 177.666622 
L 301.53106 177.582094 
L 303.253218 176.932748 
L 304.808715 176.100777 
L 306.530873 173.565421 
L 308.197478 164.536183 
L 309.919636 164.734874 
L 313.308398 153.762763 
L 315.030556 149.654215 
L 316.69716 149.623096 
L 318.419318 147.368501 
L 320.085923 150.816605 
L 321.808081 147.715325 
L 323.530238 147.109624 
L 325.085736 152.313106 
L 326.807894 151.10984 
L 328.474498 154.203938 
L 330.196656 156.510591 
L 331.863261 155.575783 
L 333.585419 155.319075 
L 335.307577 153.214637 
L 336.974181 152.859976 
L 338.696339 153.336818 
L 340.362943 155.324222 
L 342.085101 154.252831 
L 343.807259 152.984187 
L 345.362757 152.006977 
L 347.084915 150.443543 
L 348.751519 148.256003 
L 350.473677 147.080469 
L 352.140281 148.10667 
L 353.862439 147.78475 
L 355.584597 147.980153 
L 357.251202 148.902456 
L 358.97336 148.660232 
L 360.639964 155.406777 
L 364.08428 158.704562 
L 365.695331 161.904962 
L 367.417489 161.936025 
L 369.084093 161.771388 
L 370.806251 162.753127 
L 372.472856 163.857444 
L 374.195014 163.297648 
L 375.917171 163.604312 
L 377.583776 166.811062 
L 379.305934 167.346922 
L 380.972538 169.834006 
L 382.694696 168.812549 
L 384.416854 168.485028 
L 385.972352 168.746674 
L 387.69451 168.880363 
L 389.361114 169.282714 
L 391.083272 169.320064 
L 392.749876 168.814735 
L 394.472034 168.569603 
L 396.194192 168.693395 
L 397.860797 164.654518 
L 399.582955 164.387871 
L 401.249559 165.847271 
L 402.971717 166.249988 
L 404.693875 166.507299 
L 407.97153 164.789827 
L 409.638135 164.116734 
L 411.360293 164.298778 
L 413.026897 171.436684 
L 414.749055 170.140601 
L 416.471213 169.657189 
L 419.859975 169.725212 
L 421.52658 170.87663 
L 423.248738 170.392275 
L 424.970896 170.212316 
L 426.526393 169.695854 
L 428.248551 169.632523 
L 429.915155 168.243603 
L 431.637313 167.786638 
L 433.303918 166.528183 
L 435.026076 166.225379 
L 436.748234 163.612752 
L 438.414838 163.348057 
L 440.136996 163.721139 
L 441.8036 166.745793 
L 443.525758 166.576681 
L 445.247916 166.179367 
L 446.858967 166.314592 
L 450.24773 164.610157 
L 451.969888 165.353764 
L 453.636492 167.126715 
L 455.35865 169.242987 
L 457.080808 170.66338 
L 458.747412 170.325261 
L 460.46957 167.69743 
L 462.136175 167.653498 
L 463.858333 167.371446 
L 465.58049 165.707486 
L 467.135988 165.159887 
L 468.858146 163.079272 
L 470.52475 162.449985 
L 472.246908 170.290475 
L 473.913513 173.142214 
L 475.635671 174.253162 
L 477.357829 174.430659 
L 479.024433 174.963833 
L 480.746591 175.787965 
L 480.746591 175.787965 
" clip-path="url(#p9eb253b07d)" style="fill: none; stroke: #808080; stroke-opacity: 0.5; stroke-linecap: square"/>
   </g>
   <g id="line2d_40">
    <path d="M 74.928409 74.617452 
L 76.595014 90.095612 
L 78.317171 79.536506 
L 80.039329 78.748828 
L 81.594827 85.474189 
L 83.316985 83.351675 
L 84.983589 72.888932 
L 86.705747 87.108466 
L 88.372352 80.898774 
L 90.09451 82.107824 
L 91.816667 125.071524 
L 93.483272 126.977217 
L 95.20543 130.342779 
L 96.872034 142.121532 
L 98.594192 139.940627 
L 100.31635 143.074376 
L 101.871848 143.647298 
L 103.594006 145.184745 
L 105.26061 147.65442 
L 106.982768 142.134878 
L 108.649372 143.914337 
L 110.37153 146.060487 
L 112.093688 151.490662 
L 113.760293 150.645955 
L 115.482451 151.734141 
L 117.149055 152.028837 
L 118.871213 168.333401 
L 120.593371 168.498793 
L 122.204422 168.849805 
L 123.92658 168.243073 
L 125.593184 169.201594 
L 127.315342 167.247965 
L 128.981947 167.185587 
L 130.704104 168.673289 
L 132.426262 170.767405 
L 134.092867 171.447074 
L 135.815025 171.870324 
L 137.481629 172.033783 
L 139.203787 173.874781 
L 140.925945 172.58628 
L 142.481443 172.571864 
L 144.2036 172.428927 
L 145.870205 174.235773 
L 147.592363 173.443401 
L 149.258967 173.211982 
L 150.981125 171.469789 
L 152.703283 175.446661 
L 156.092045 175.378576 
L 157.75865 176.103323 
L 159.480808 174.312325 
L 161.202966 174.044677 
L 162.758463 175.779009 
L 164.480621 176.312636 
L 166.147226 173.502481 
L 167.869384 172.330301 
L 169.535988 168.830894 
L 171.258146 168.303064 
L 172.980304 174.619187 
L 176.369066 171.853496 
L 178.035671 172.057634 
L 179.757829 170.940498 
L 181.479986 167.303472 
L 183.035484 168.966428 
L 184.757642 166.237563 
L 186.424246 165.451038 
L 188.146404 167.408123 
L 189.813009 165.463561 
L 191.535167 160.063858 
L 193.257325 160.070679 
L 194.923929 158.449833 
L 196.646087 157.985885 
L 198.312691 158.220188 
L 200.034849 157.390931 
L 201.757007 154.405062 
L 203.368058 151.326169 
L 205.090216 149.924886 
L 206.756821 149.770522 
L 208.478978 152.367145 
L 210.145583 152.065862 
L 211.867741 150.921501 
L 213.589899 148.809617 
L 215.256503 143.557845 
L 216.978661 141.304506 
L 218.645266 139.772818 
L 220.367423 139.485656 
L 222.089581 136.032102 
L 225.367237 127.580172 
L 227.033841 126.951701 
L 228.755999 127.069531 
L 230.422604 129.058145 
L 232.144762 130.187698 
L 233.866919 129.787006 
L 235.533524 129.983753 
L 237.255682 128.390659 
L 238.922286 128.882211 
L 240.644444 128.462383 
L 242.366602 127.366659 
L 243.9221 128.65493 
L 245.644258 129.268992 
L 247.310862 129.640687 
L 249.03302 131.084638 
L 250.699624 132.80346 
L 252.421782 133.36519 
L 254.14394 135.086019 
L 255.810545 136.22858 
L 257.532703 136.804644 
L 259.199307 138.408052 
L 260.921465 140.764665 
L 262.643623 145.447026 
L 264.19912 143.92261 
L 265.921278 146.78837 
L 267.587883 148.504474 
L 269.310041 149.749831 
L 270.976645 151.457634 
L 272.698803 152.99665 
L 274.420961 153.822978 
L 276.087565 154.877754 
L 277.809723 155.355053 
L 279.476328 155.27876 
L 281.198486 156.365025 
L 284.531695 159.434221 
L 286.253852 159.410856 
L 287.920457 160.316898 
L 289.642615 161.03075 
L 293.031377 163.319416 
L 294.753535 166.362615 
L 296.42014 167.936031 
L 298.142297 171.090179 
L 299.808902 171.811451 
L 301.53106 171.692538 
L 303.253218 171.941046 
L 306.530873 170.863317 
L 308.197478 169.997924 
L 309.919636 169.753395 
L 311.58624 166.11346 
L 313.308398 165.127765 
L 315.030556 162.793317 
L 316.69716 161.907514 
L 318.419318 163.417979 
L 320.085923 168.154599 
L 321.808081 165.664564 
L 323.530238 165.910607 
L 325.085736 163.864119 
L 326.807894 162.636237 
L 328.474498 161.759307 
L 330.196656 159.10215 
L 331.863261 157.94135 
L 333.585419 158.271278 
L 335.307577 157.161846 
L 336.974181 158.6395 
L 338.696339 158.663708 
L 340.362943 159.0765 
L 342.085101 159.155479 
L 343.807259 159.531576 
L 345.362757 161.470715 
L 347.084915 162.165966 
L 350.473677 164.408392 
L 353.862439 165.891675 
L 355.584597 169.290202 
L 358.97336 170.180156 
L 360.639964 170.426598 
L 362.362122 170.8623 
L 364.08428 171.510661 
L 365.695331 172.402796 
L 367.417489 172.535844 
L 369.084093 173.383457 
L 370.806251 173.841106 
L 372.472856 174.789354 
L 374.195014 175.901938 
L 375.917171 177.680736 
L 377.583776 177.093661 
L 379.305934 177.639952 
L 380.972538 178.370047 
L 382.694696 179.703966 
L 384.416854 180.449572 
L 385.972352 180.882124 
L 387.69451 181.082018 
L 391.083272 180.345407 
L 392.749876 181.444814 
L 394.472034 180.730683 
L 396.194192 180.540222 
L 397.860797 180.01392 
L 399.582955 180.122282 
L 401.249559 180.095136 
L 402.971717 179.953066 
L 409.638135 180.889497 
L 411.360293 181.563183 
L 413.026897 179.759857 
L 414.749055 179.209694 
L 416.471213 179.202348 
L 418.137817 179.023156 
L 419.859975 178.673401 
L 424.970896 176.97603 
L 426.526393 176.824642 
L 428.248551 175.518954 
L 429.915155 175.098272 
L 431.637313 175.235304 
L 433.303918 174.748506 
L 435.026076 175.98083 
L 436.748234 175.149465 
L 438.414838 173.997341 
L 440.136996 173.125868 
L 441.8036 172.954678 
L 443.525758 172.161952 
L 445.247916 172.407954 
L 446.858967 173.656219 
L 448.581125 172.185249 
L 450.24773 169.869583 
L 451.969888 169.745002 
L 453.636492 168.666973 
L 455.35865 168.668502 
L 457.080808 167.912635 
L 458.747412 167.329531 
L 460.46957 164.34293 
L 462.136175 161.881324 
L 465.58049 157.36877 
L 468.858146 155.876029 
L 470.52475 153.929053 
L 472.246908 151.545394 
L 473.913513 154.120363 
L 475.635671 150.763042 
L 477.357829 149.346908 
L 479.024433 152.44132 
L 480.746591 151.616381 
L 480.746591 151.616381 
" clip-path="url(#p9eb253b07d)" style="fill: none; stroke: #808080; stroke-opacity: 0.5; stroke-linecap: square"/>
   </g>
   <g id="line2d_41">
    <path d="M 74.928409 123.072212 
L 76.595014 123.883085 
L 78.317171 122.662709 
L 80.039329 125.984459 
L 81.594827 123.143348 
L 83.316985 121.74212 
L 84.983589 123.085728 
L 86.705747 120.029721 
L 88.372352 119.092558 
L 91.816667 113.872659 
L 93.483272 84.386187 
L 95.20543 79.487247 
L 96.872034 67.989888 
L 98.594192 65.475192 
L 100.31635 65.960279 
L 101.871848 63.390493 
L 105.26061 56.14356 
L 106.982768 48.217045 
L 108.649372 45.29546 
L 110.37153 43.428128 
L 112.093688 38.47357 
L 113.760293 34.791238 
L 115.482451 34.888027 
L 117.149055 42.449913 
L 118.871213 42.078909 
L 120.593371 44.410558 
L 122.204422 40.168327 
L 123.92658 42.7958 
L 125.593184 88.960327 
L 127.315342 96.606729 
L 128.981947 112.134792 
L 130.704104 112.414952 
L 132.426262 112.896652 
L 134.092867 119.290796 
L 135.815025 116.427872 
L 137.481629 135.126912 
L 139.203787 137.837027 
L 140.925945 140.828007 
L 142.481443 140.707834 
L 144.2036 144.4445 
L 145.870205 144.568238 
L 147.592363 147.902566 
L 149.258967 154.507137 
L 150.981125 151.203275 
L 152.703283 151.110811 
L 156.092045 159.226629 
L 157.75865 159.445749 
L 159.480808 158.753607 
L 161.202966 160.209188 
L 162.758463 159.43847 
L 164.480621 159.856094 
L 166.147226 157.507365 
L 167.869384 155.337326 
L 169.535988 156.276912 
L 171.258146 155.281583 
L 172.980304 157.291303 
L 174.646908 156.902187 
L 176.369066 155.936336 
L 178.035671 155.688694 
L 179.757829 151.866651 
L 181.479986 149.688525 
L 183.035484 151.732636 
L 184.757642 149.868706 
L 186.424246 146.849771 
L 188.146404 146.32745 
L 189.813009 142.680034 
L 191.535167 143.09634 
L 193.257325 142.061381 
L 194.923929 138.653549 
L 196.646087 134.753798 
L 198.312691 129.354959 
L 200.034849 126.359319 
L 201.757007 119.989435 
L 203.368058 119.898314 
L 206.756821 107.868397 
L 208.478978 99.969585 
L 210.145583 90.77395 
L 211.867741 88.835119 
L 213.589899 79.816053 
L 215.256503 68.25962 
L 216.978661 65.337827 
L 218.645266 51.710519 
L 220.367423 51.469482 
L 222.089581 50.501873 
L 225.367237 37.487464 
L 227.033841 28.293184 
L 228.755999 20.27605 
L 230.422604 19.383964 
L 232.144762 17.083636 
L 233.866919 18.305281 
L 235.533524 19.043211 
L 237.255682 24.189842 
L 238.922286 29.734469 
L 240.644444 34.323047 
L 242.366602 42.607806 
L 243.9221 43.669388 
L 245.644258 48.377087 
L 247.310862 56.403024 
L 249.03302 56.095784 
L 250.699624 67.845528 
L 252.421782 74.270576 
L 254.14394 85.503712 
L 255.810545 98.451037 
L 257.532703 104.195618 
L 259.199307 102.51495 
L 260.921465 112.090672 
L 262.643623 117.192042 
L 264.19912 119.5282 
L 265.921278 128.285316 
L 267.587883 128.595066 
L 269.310041 131.657223 
L 270.976645 132.648654 
L 272.698803 131.069477 
L 274.420961 132.644726 
L 276.087565 122.884538 
L 277.809723 124.635819 
L 279.476328 143.786004 
L 281.198486 144.618181 
L 282.920644 147.642434 
L 284.531695 147.540482 
L 286.253852 148.915465 
L 287.920457 147.868803 
L 289.642615 149.072419 
L 291.309219 148.988006 
L 294.753535 150.346296 
L 296.42014 149.944626 
L 298.142297 150.217977 
L 299.808902 152.046151 
L 301.53106 152.905068 
L 303.253218 152.254586 
L 306.530873 146.446641 
L 308.197478 135.342047 
L 309.919636 126.222014 
L 311.58624 115.147465 
L 313.308398 112.023962 
L 315.030556 112.436488 
L 316.69716 106.390001 
L 318.419318 109.772157 
L 320.085923 102.561036 
L 321.808081 103.115493 
L 323.530238 104.076729 
L 325.085736 96.522235 
L 326.807894 101.895036 
L 328.474498 99.862831 
L 330.196656 91.68859 
L 331.863261 97.12246 
L 333.585419 93.820652 
L 335.307577 92.592428 
L 336.974181 93.593114 
L 338.696339 102.570854 
L 340.362943 107.187557 
L 342.085101 106.594532 
L 343.807259 107.490321 
L 345.362757 103.393318 
L 347.084915 102.026501 
L 348.751519 100.996562 
L 350.473677 104.696483 
L 352.140281 106.843609 
L 355.584597 110.076799 
L 357.251202 113.566915 
L 358.97336 113.727182 
L 360.639964 118.409536 
L 362.362122 119.387566 
L 364.08428 119.12936 
L 365.695331 121.411713 
L 367.417489 117.125398 
L 369.084093 119.832644 
L 370.806251 120.517714 
L 372.472856 123.871959 
L 374.195014 121.972674 
L 375.917171 124.802655 
L 377.583776 125.547788 
L 379.305934 125.163772 
L 380.972538 125.717711 
L 382.694696 126.086619 
L 384.416854 121.706934 
L 385.972352 120.567023 
L 387.69451 132.35286 
L 389.361114 129.460719 
L 391.083272 135.216455 
L 392.749876 131.899669 
L 396.194192 133.292284 
L 397.860797 137.140643 
L 399.582955 136.108376 
L 401.249559 146.83353 
L 402.971717 146.544648 
L 404.693875 145.301413 
L 406.249372 146.249276 
L 407.97153 146.683715 
L 409.638135 146.037794 
L 411.360293 149.421113 
L 413.026897 151.437553 
L 414.749055 154.297107 
L 418.137817 157.28062 
L 419.859975 158.367762 
L 424.970896 162.70506 
L 426.526393 163.381629 
L 428.248551 163.97575 
L 429.915155 163.326381 
L 431.637313 164.355513 
L 433.303918 163.11797 
L 435.026076 163.972297 
L 436.748234 162.89321 
L 438.414838 160.363492 
L 440.136996 163.288791 
L 441.8036 160.367178 
L 443.525758 158.147258 
L 445.247916 157.831498 
L 446.858967 161.330517 
L 448.581125 160.648544 
L 451.969888 156.226794 
L 453.636492 153.319797 
L 455.35865 151.169395 
L 457.080808 149.824203 
L 458.747412 149.117624 
L 460.46957 145.563333 
L 462.136175 142.456568 
L 463.858333 133.424921 
L 465.58049 134.000083 
L 467.135988 140.093596 
L 470.52475 140.90571 
L 472.246908 145.567383 
L 473.913513 145.199508 
L 475.635671 146.663547 
L 477.357829 143.785715 
L 480.746591 151.73242 
L 480.746591 151.73242 
" clip-path="url(#p9eb253b07d)" style="fill: none; stroke: #808080; stroke-opacity: 0.5; stroke-linecap: square"/>
   </g>
   <g id="line2d_42">
    <path d="M 74.928409 200.40557 
L 76.595014 204.170035 
L 78.317171 200.077845 
L 80.039329 200.965336 
L 81.594827 205.535206 
L 83.316985 184.187054 
L 84.983589 180.749687 
L 86.705747 185.763229 
L 88.372352 180.654475 
L 90.09451 192.742282 
L 91.816667 188.171156 
L 93.483272 193.220648 
L 95.20543 185.249473 
L 96.872034 194.860682 
L 98.594192 192.97512 
L 100.31635 192.689441 
L 101.871848 196.171509 
L 103.594006 196.256883 
L 105.26061 192.966983 
L 106.982768 211.561396 
L 108.649372 210.110139 
L 110.37153 213.892728 
L 112.093688 213.069458 
L 113.760293 211.39886 
L 115.482451 210.596517 
L 117.149055 211.750863 
L 118.871213 200.252814 
L 120.593371 211.735467 
L 122.204422 212.017706 
L 123.92658 213.075291 
L 125.593184 213.648908 
L 127.315342 212.521848 
L 128.981947 212.238054 
L 130.704104 214.756364 
L 134.092867 207.484021 
L 135.815025 208.0413 
L 137.481629 209.316512 
L 139.203787 207.055731 
L 140.925945 191.942494 
L 142.481443 208.848257 
L 144.2036 206.818578 
L 145.870205 208.000288 
L 147.592363 208.288195 
L 149.258967 207.132727 
L 150.981125 206.936598 
L 152.703283 207.021913 
L 154.369888 204.441197 
L 156.092045 206.397572 
L 157.75865 207.035754 
L 159.480808 200.86952 
L 161.202966 195.238535 
L 162.758463 205.293672 
L 164.480621 203.54157 
L 166.147226 201.339168 
L 167.869384 199.931711 
L 169.535988 201.887242 
L 171.258146 200.562685 
L 172.980304 200.531962 
L 174.646908 196.646626 
L 176.369066 200.430869 
L 178.035671 203.574847 
L 179.757829 198.602276 
L 181.479986 196.019203 
L 183.035484 198.511132 
L 184.757642 196.043904 
L 186.424246 197.510424 
L 188.146404 196.345015 
L 189.813009 183.308765 
L 191.535167 194.34351 
L 193.257325 190.934342 
L 194.923929 191.444838 
L 196.646087 193.547499 
L 198.312691 189.95701 
L 200.034849 189.703659 
L 201.757007 189.570044 
L 203.368058 190.454149 
L 205.090216 160.387816 
L 206.756821 161.258173 
L 208.478978 184.501202 
L 210.145583 182.517118 
L 211.867741 180.873662 
L 213.589899 182.200517 
L 215.256503 164.925104 
L 216.978661 160.373573 
L 218.645266 175.247284 
L 220.367423 172.830107 
L 222.089581 171.82237 
L 223.645079 174.754173 
L 225.367237 173.67118 
L 227.033841 172.939817 
L 228.755999 173.864887 
L 230.422604 173.540189 
L 232.144762 169.599243 
L 233.866919 169.495255 
L 235.533524 172.094358 
L 237.255682 170.326644 
L 238.922286 174.076482 
L 240.644444 174.008097 
L 242.366602 186.871823 
L 243.9221 193.190395 
L 245.644258 183.691654 
L 247.310862 182.920969 
L 249.03302 193.158361 
L 250.699624 178.832675 
L 252.421782 187.477841 
L 254.14394 191.940772 
L 255.810545 188.351211 
L 257.532703 184.204666 
L 259.199307 187.114129 
L 260.921465 184.595742 
L 262.643623 183.772105 
L 264.19912 184.893091 
L 265.921278 175.929452 
L 267.587883 174.641012 
L 269.310041 164.272615 
L 270.976645 163.687415 
L 272.698803 167.456492 
L 274.420961 172.261333 
L 276.087565 174.695385 
L 277.809723 174.513754 
L 279.476328 175.667255 
L 281.198486 177.67227 
L 284.531695 164.997624 
L 286.253852 164.151278 
L 287.920457 163.030489 
L 289.642615 156.277504 
L 291.309219 167.426652 
L 293.031377 155.019415 
L 294.753535 155.481181 
L 296.42014 164.289352 
L 298.142297 163.736416 
L 299.808902 159.178278 
L 301.53106 161.370585 
L 303.253218 164.261689 
L 304.808715 165.934453 
L 306.530873 159.872675 
L 308.197478 154.855003 
L 309.919636 157.504715 
L 311.58624 153.56923 
L 313.308398 154.564815 
L 315.030556 152.705978 
L 316.69716 153.349522 
L 318.419318 156.792059 
L 320.085923 155.832756 
L 321.808081 155.627734 
L 323.530238 154.189659 
L 325.085736 158.738449 
L 326.807894 156.641893 
L 328.474498 159.638099 
L 330.196656 160.521711 
L 331.863261 162.606733 
L 333.585419 163.299996 
L 335.307577 160.255113 
L 336.974181 160.001434 
L 338.696339 163.961703 
L 340.362943 163.289136 
L 342.085101 161.566345 
L 343.807259 160.261851 
L 345.362757 169.758887 
L 347.084915 170.856091 
L 348.751519 172.749857 
L 350.473677 172.080252 
L 352.140281 172.579327 
L 353.862439 166.399041 
L 355.584597 170.043402 
L 357.251202 169.527735 
L 358.97336 170.598784 
L 360.639964 171.26317 
L 362.362122 173.25504 
L 364.08428 169.800646 
L 365.695331 167.137463 
L 367.417489 167.440835 
L 369.084093 171.079313 
L 370.806251 169.732451 
L 372.472856 168.682604 
L 374.195014 168.040737 
L 375.917171 171.024071 
L 377.583776 169.788489 
L 379.305934 171.786257 
L 380.972538 170.856685 
L 382.694696 170.718618 
L 384.416854 170.043738 
L 385.972352 167.10792 
L 387.69451 167.05829 
L 389.361114 162.550593 
L 391.083272 162.705638 
L 392.749876 159.715135 
L 394.472034 157.344792 
L 396.194192 157.033271 
L 397.860797 153.220269 
L 399.582955 148.643605 
L 401.249559 136.364518 
L 402.971717 128.577669 
L 404.693875 122.802119 
L 406.249372 123.197846 
L 407.97153 121.731417 
L 409.638135 131.109456 
L 411.360293 137.439687 
L 413.026897 135.890339 
L 414.749055 136.607381 
L 416.471213 139.024573 
L 418.137817 141.729151 
L 419.859975 140.425595 
L 421.52658 138.252901 
L 423.248738 138.528078 
L 426.526393 142.978365 
L 428.248551 143.622025 
L 433.303918 143.193783 
L 435.026076 146.250171 
L 436.748234 145.188139 
L 438.414838 145.136669 
L 440.136996 144.810955 
L 441.8036 143.554422 
L 443.525758 145.474118 
L 445.247916 148.467402 
L 446.858967 150.78548 
L 448.581125 153.026473 
L 450.24773 146.247107 
L 451.969888 135.028418 
L 453.636492 127.901032 
L 455.35865 125.161106 
L 457.080808 127.465369 
L 458.747412 134.037815 
L 460.46957 138.809832 
L 462.136175 138.560454 
L 463.858333 145.96533 
L 465.58049 148.665725 
L 467.135988 146.840845 
L 468.858146 143.501883 
L 470.52475 143.719039 
L 472.246908 154.263695 
L 473.913513 156.752132 
L 475.635671 155.392372 
L 477.357829 163.201926 
L 479.024433 165.760934 
L 480.746591 171.525805 
L 480.746591 171.525805 
" clip-path="url(#p9eb253b07d)" style="fill: none; stroke: #808080; stroke-opacity: 0.5; stroke-linecap: square"/>
   </g>
   <g id="line2d_43">
    <path d="M 74.928409 206.661148 
L 76.595014 207.009785 
L 78.317171 209.454097 
L 80.039329 209.050074 
L 81.594827 209.408659 
L 83.316985 209.160099 
L 84.983589 208.467272 
L 86.705747 210.482277 
L 88.372352 209.563162 
L 90.09451 209.402105 
L 91.816667 210.419468 
L 93.483272 210.236162 
L 95.20543 211.347066 
L 96.872034 210.87705 
L 98.594192 208.730989 
L 100.31635 209.085948 
L 101.871848 207.775786 
L 103.594006 207.931408 
L 105.26061 207.072984 
L 106.982768 208.372504 
L 108.649372 208.063528 
L 110.37153 208.980257 
L 112.093688 209.578081 
L 113.760293 209.868957 
L 115.482451 209.372138 
L 117.149055 206.910331 
L 118.871213 207.251029 
L 120.593371 209.040645 
L 123.92658 208.077152 
L 125.593184 207.827783 
L 127.315342 207.236772 
L 128.981947 206.456408 
L 130.704104 205.983008 
L 132.426262 205.756246 
L 134.092867 205.869613 
L 135.815025 205.825569 
L 137.481629 207.571769 
L 139.203787 203.649232 
L 140.925945 203.424376 
L 142.481443 202.749935 
L 144.2036 202.586201 
L 145.870205 201.089192 
L 147.592363 200.691689 
L 149.258967 199.927963 
L 150.981125 198.777795 
L 152.703283 197.927114 
L 154.369888 196.509612 
L 156.092045 194.608945 
L 157.75865 194.899636 
L 161.202966 196.314105 
L 162.758463 196.172701 
L 164.480621 195.151238 
L 166.147226 193.624737 
L 167.869384 193.569178 
L 171.258146 191.830589 
L 172.980304 191.22372 
L 174.646908 188.551781 
L 176.369066 187.116649 
L 178.035671 186.918007 
L 179.757829 184.561395 
L 181.479986 184.020378 
L 183.035484 179.644464 
L 184.757642 178.112796 
L 186.424246 174.2777 
L 188.146404 173.646832 
L 189.813009 170.623056 
L 191.535167 168.582513 
L 193.257325 168.395881 
L 194.923929 165.944186 
L 196.646087 162.567998 
L 198.312691 158.356457 
L 200.034849 157.273849 
L 201.757007 154.466894 
L 203.368058 155.62722 
L 206.756821 146.907292 
L 208.478978 146.576761 
L 210.145583 141.303415 
L 211.867741 138.253591 
L 213.589899 133.381632 
L 215.256503 121.221147 
L 216.978661 114.029064 
L 218.645266 112.041187 
L 222.089581 102.259205 
L 223.645079 100.63408 
L 225.367237 92.106464 
L 227.033841 87.093426 
L 228.755999 85.580042 
L 230.422604 83.294845 
L 232.144762 79.281339 
L 233.866919 80.128993 
L 235.533524 78.408013 
L 237.255682 78.427784 
L 238.922286 80.567252 
L 240.644444 87.715632 
L 242.366602 90.23682 
L 243.9221 90.382357 
L 245.644258 95.673241 
L 247.310862 102.801385 
L 250.699624 108.824834 
L 252.421782 123.124806 
L 254.14394 131.691738 
L 255.810545 136.683719 
L 257.532703 142.971986 
L 259.199307 145.256303 
L 260.921465 143.474684 
L 262.643623 150.474174 
L 264.19912 155.555298 
L 265.921278 163.487476 
L 267.587883 150.092335 
L 269.310041 151.354273 
L 270.976645 154.706827 
L 272.698803 156.05155 
L 274.420961 156.347859 
L 276.087565 157.121611 
L 277.809723 157.26124 
L 279.476328 165.737949 
L 281.198486 167.86277 
L 282.920644 168.92025 
L 284.531695 170.74805 
L 286.253852 169.409746 
L 289.642615 170.899303 
L 291.309219 168.195675 
L 293.031377 167.576066 
L 294.753535 169.113479 
L 296.42014 166.025862 
L 298.142297 164.462927 
L 299.808902 163.649742 
L 301.53106 161.220748 
L 304.808715 160.111045 
L 306.530873 158.337699 
L 308.197478 153.529313 
L 309.919636 150.073431 
L 311.58624 145.475207 
L 313.308398 143.837401 
L 315.030556 142.491788 
L 316.69716 142.737502 
L 318.419318 139.769779 
L 320.085923 130.824623 
L 321.808081 128.500682 
L 323.530238 127.948141 
L 325.085736 130.82022 
L 326.807894 131.181918 
L 328.474498 133.088247 
L 330.196656 132.843976 
L 331.863261 127.970236 
L 333.585419 128.6897 
L 335.307577 127.297938 
L 336.974181 127.411196 
L 338.696339 128.754161 
L 340.362943 131.155317 
L 342.085101 132.112805 
L 345.362757 133.43508 
L 347.084915 134.522436 
L 348.751519 133.892989 
L 350.473677 134.123358 
L 352.140281 135.422516 
L 353.862439 135.383422 
L 355.584597 139.039245 
L 357.251202 137.322795 
L 358.97336 137.604901 
L 360.639964 139.998297 
L 362.362122 140.486772 
L 364.08428 140.77849 
L 365.695331 139.528314 
L 367.417489 137.704237 
L 369.084093 136.407268 
L 370.806251 139.90804 
L 372.472856 141.246698 
L 375.917171 142.52374 
L 377.583776 142.244237 
L 379.305934 142.623872 
L 380.972538 142.305606 
L 382.694696 141.467908 
L 384.416854 141.730342 
L 385.972352 143.992212 
L 387.69451 143.412399 
L 389.361114 141.564142 
L 391.083272 143.833423 
L 392.749876 143.789118 
L 394.472034 142.904835 
L 396.194192 143.702913 
L 397.860797 145.663185 
L 401.249559 140.851066 
L 402.971717 141.471494 
L 404.693875 141.839826 
L 406.249372 143.084074 
L 407.97153 143.221115 
L 409.638135 142.695393 
L 411.360293 144.511411 
L 416.471213 147.985472 
L 418.137817 148.210827 
L 419.859975 149.343988 
L 421.52658 149.776397 
L 424.970896 150.303917 
L 426.526393 151.564003 
L 428.248551 151.84317 
L 429.915155 151.157266 
L 431.637313 151.025218 
L 433.303918 149.694104 
L 435.026076 150.091574 
L 438.414838 148.014516 
L 440.136996 149.737238 
L 441.8036 149.774679 
L 443.525758 150.967775 
L 445.247916 151.821911 
L 446.858967 154.923485 
L 448.581125 153.018377 
L 450.24773 149.675292 
L 451.969888 147.997077 
L 453.636492 148.73901 
L 455.35865 150.742585 
L 457.080808 152.150432 
L 458.747412 150.385841 
L 460.46957 143.207978 
L 462.136175 137.713467 
L 463.858333 135.750306 
L 467.135988 135.665815 
L 468.858146 135.39499 
L 470.52475 134.723335 
L 472.246908 133.723497 
L 473.913513 135.159717 
L 475.635671 135.807867 
L 477.357829 134.425991 
L 479.024433 136.248783 
L 480.746591 136.280186 
L 480.746591 136.280186 
" clip-path="url(#p9eb253b07d)" style="fill: none; stroke: #808080; stroke-opacity: 0.5; stroke-linecap: square"/>
   </g>
   <g id="line2d_44">
    <path d="M 74.928409 138.484005 
L 76.595014 150.350422 
L 78.317171 149.386513 
L 80.039329 150.917219 
L 81.594827 153.085782 
L 83.316985 149.261338 
L 84.983589 147.014502 
L 86.705747 154.063388 
L 88.372352 149.463763 
L 90.09451 154.466661 
L 91.816667 154.020502 
L 93.483272 155.051916 
L 95.20543 155.728695 
L 96.872034 158.505619 
L 98.594192 148.529802 
L 100.31635 147.05092 
L 101.871848 146.24017 
L 103.594006 135.165827 
L 105.26061 136.20695 
L 106.982768 146.045757 
L 108.649372 145.324287 
L 110.37153 146.302099 
L 112.093688 144.881573 
L 113.760293 149.768601 
L 115.482451 149.556887 
L 117.149055 155.340218 
L 118.871213 154.175762 
L 120.593371 153.782037 
L 122.204422 155.575593 
L 123.92658 156.517267 
L 125.593184 156.271181 
L 127.315342 160.613953 
L 128.981947 159.884518 
L 130.704104 159.768273 
L 132.426262 167.360731 
L 134.092867 169.043329 
L 135.815025 169.593426 
L 137.481629 172.57044 
L 139.203787 173.586859 
L 140.925945 174.443693 
L 142.481443 178.102071 
L 144.2036 178.779334 
L 145.870205 177.613858 
L 147.592363 179.140356 
L 149.258967 178.88926 
L 150.981125 177.786414 
L 152.703283 180.248219 
L 154.369888 181.613939 
L 156.092045 182.58716 
L 157.75865 182.773736 
L 159.480808 181.65489 
L 161.202966 180.237047 
L 162.758463 181.491716 
L 164.480621 181.217038 
L 166.147226 181.345781 
L 167.869384 180.22682 
L 169.535988 179.391237 
L 171.258146 176.239611 
L 172.980304 174.343751 
L 174.646908 173.574947 
L 176.369066 172.24835 
L 178.035671 172.872967 
L 179.757829 170.052927 
L 181.479986 167.709018 
L 183.035484 164.753105 
L 184.757642 162.196132 
L 186.424246 160.145983 
L 188.146404 159.569838 
L 189.813009 158.774628 
L 191.535167 158.403896 
L 193.257325 157.642136 
L 194.923929 156.067841 
L 196.646087 156.16811 
L 198.312691 154.249158 
L 200.034849 152.69424 
L 201.757007 151.979874 
L 203.368058 153.973298 
L 205.090216 152.448194 
L 206.756821 151.331405 
L 208.478978 147.923743 
L 210.145583 146.827801 
L 211.867741 143.577938 
L 213.589899 139.852941 
L 215.256503 139.961102 
L 216.978661 137.392566 
L 218.645266 134.393172 
L 220.367423 132.570404 
L 222.089581 130.367489 
L 223.645079 126.18663 
L 227.033841 112.225659 
L 228.755999 108.796763 
L 230.422604 105.110764 
L 232.144762 100.068583 
L 233.866919 100.18887 
L 235.533524 98.903694 
L 237.255682 97.74241 
L 238.922286 102.696236 
L 240.644444 102.927744 
L 243.9221 101.578568 
L 245.644258 102.475112 
L 247.310862 104.235772 
L 249.03302 107.178535 
L 250.699624 111.824724 
L 252.421782 119.445636 
L 254.14394 125.105987 
L 255.810545 128.743406 
L 257.532703 132.157237 
L 259.199307 136.865417 
L 260.921465 131.431432 
L 262.643623 136.448522 
L 264.19912 138.602457 
L 265.921278 138.123973 
L 267.587883 135.540205 
L 270.976645 132.228395 
L 272.698803 132.518813 
L 274.420961 130.469674 
L 276.087565 126.380688 
L 277.809723 127.144568 
L 279.476328 134.881492 
L 281.198486 139.022206 
L 282.920644 138.040821 
L 284.531695 137.676191 
L 286.253852 136.63377 
L 287.920457 136.021877 
L 289.642615 136.127121 
L 291.309219 135.509836 
L 293.031377 134.628269 
L 294.753535 135.835593 
L 296.42014 134.944021 
L 298.142297 134.679409 
L 299.808902 137.72139 
L 301.53106 134.367464 
L 303.253218 134.081557 
L 304.808715 132.209478 
L 306.530873 129.724824 
L 308.197478 125.832279 
L 309.919636 127.942952 
L 311.58624 125.41258 
L 313.308398 126.803898 
L 315.030556 123.663504 
L 316.69716 125.454726 
L 318.419318 127.472966 
L 320.085923 130.385209 
L 321.808081 129.889327 
L 323.530238 130.554325 
L 328.474498 131.500007 
L 330.196656 132.082202 
L 331.863261 133.123559 
L 333.585419 133.945273 
L 336.974181 133.729193 
L 338.696339 136.233596 
L 340.362943 139.291421 
L 342.085101 140.110285 
L 343.807259 138.964383 
L 345.362757 139.806408 
L 347.084915 139.6474 
L 348.751519 140.045505 
L 350.473677 140.074594 
L 352.140281 142.236351 
L 353.862439 143.317327 
L 355.584597 144.99738 
L 357.251202 145.340911 
L 358.97336 146.576483 
L 362.362122 148.608205 
L 364.08428 149.029666 
L 367.417489 148.562557 
L 369.084093 148.651032 
L 372.472856 150.221971 
L 374.195014 149.392025 
L 375.917171 149.262629 
L 377.583776 148.089439 
L 379.305934 149.958031 
L 380.972538 150.57569 
L 382.694696 150.631882 
L 384.416854 149.822994 
L 385.972352 148.912177 
L 387.69451 149.270142 
L 389.361114 147.773274 
L 391.083272 149.033217 
L 392.749876 148.071128 
L 394.472034 148.135986 
L 396.194192 149.409184 
L 397.860797 148.980247 
L 399.582955 148.848092 
L 401.249559 149.705476 
L 402.971717 149.164521 
L 404.693875 149.347842 
L 406.249372 149.647635 
L 407.97153 150.405716 
L 409.638135 150.933461 
L 411.360293 153.585116 
L 413.026897 152.187636 
L 414.749055 153.187507 
L 416.471213 154.32142 
L 418.137817 153.68607 
L 419.859975 153.715116 
L 421.52658 154.043237 
L 423.248738 154.186413 
L 424.970896 154.162566 
L 426.526393 155.501577 
L 428.248551 154.771455 
L 429.915155 154.763061 
L 431.637313 156.108506 
L 433.303918 154.58033 
L 435.026076 156.190337 
L 436.748234 153.296301 
L 438.414838 153.568399 
L 440.136996 154.50546 
L 441.8036 153.741193 
L 443.525758 153.424245 
L 445.247916 153.808162 
L 446.858967 155.04321 
L 448.581125 155.914223 
L 450.24773 155.644094 
L 451.969888 155.796762 
L 453.636492 156.964851 
L 455.35865 155.983674 
L 457.080808 154.321073 
L 458.747412 150.852147 
L 460.46957 146.050776 
L 462.136175 140.687473 
L 463.858333 141.574994 
L 465.58049 141.824542 
L 467.135988 141.393651 
L 468.858146 142.393031 
L 470.52475 143.519792 
L 472.246908 144.871419 
L 473.913513 146.868705 
L 475.635671 147.279174 
L 477.357829 147.872262 
L 479.024433 149.531668 
L 480.746591 150.642246 
L 480.746591 150.642246 
" clip-path="url(#p9eb253b07d)" style="fill: none; stroke: #808080; stroke-opacity: 0.5; stroke-linecap: square"/>
   </g>
   <g id="patch_3">
    <path d="M 54.6375 224.64 
L 54.6375 7.2 
" style="fill: none; stroke: #000000; stroke-width: 0.8; stroke-linejoin: miter; stroke-linecap: square"/>
   </g>
   <g id="patch_4">
    <path d="M 54.6375 224.64 
L 501.0375 224.64 
" style="fill: none; stroke: #000000; stroke-width: 0.8; stroke-linejoin: miter; stroke-linecap: square"/>
   </g>
   <g id="line2d_45">
    <path d="M 74.928409 160.335261 
L 76.595014 157.09043 
L 78.317171 152.15177 
L 80.039329 146.266038 
L 81.594827 144.822674 
L 83.316985 144.288264 
L 84.983589 143.284662 
L 86.705747 143.507089 
L 88.372352 141.833872 
L 90.09451 135.500759 
L 93.483272 146.992654 
L 95.20543 147.521123 
L 96.872034 145.813353 
L 98.594192 138.724084 
L 100.31635 138.327826 
L 101.871848 139.620944 
L 103.594006 131.423126 
L 105.26061 135.601179 
L 106.982768 125.573828 
L 108.649372 124.203059 
L 110.37153 118.06263 
L 112.093688 123.69088 
L 113.760293 120.498524 
L 115.482451 118.249607 
L 117.149055 113.852578 
L 118.871213 99.054466 
L 120.593371 98.156911 
L 122.204422 99.470939 
L 123.92658 98.007371 
L 125.593184 101.540945 
L 127.315342 100.279765 
L 128.981947 102.502846 
L 130.704104 107.062494 
L 132.426262 105.81106 
L 134.092867 108.065492 
L 135.815025 113.236503 
L 137.481629 121.584391 
L 139.203787 121.58468 
L 140.925945 123.255765 
L 142.481443 122.111316 
L 144.2036 124.035867 
L 145.870205 96.862918 
L 147.592363 121.203263 
L 149.258967 118.923858 
L 150.981125 114.043977 
L 152.703283 108.355869 
L 154.369888 108.104771 
L 156.092045 105.750518 
L 157.75865 102.113513 
L 159.480808 102.858462 
L 161.202966 99.994504 
L 162.758463 98.300408 
L 164.480621 98.652988 
L 166.147226 96.056048 
L 167.869384 106.538083 
L 169.535988 101.216842 
L 171.258146 130.962955 
L 172.980304 128.215796 
L 174.646908 130.486842 
L 176.369066 130.333222 
L 178.035671 133.405922 
L 179.757829 136.897392 
L 181.479986 138.321618 
L 183.035484 141.959903 
L 184.757642 140.636721 
L 186.424246 139.713131 
L 189.813009 138.238691 
L 191.535167 139.870475 
L 193.257325 137.623429 
L 194.923929 137.004957 
L 196.646087 134.707487 
L 198.312691 128.894506 
L 200.034849 127.481353 
L 201.757007 127.281707 
L 203.368058 126.021344 
L 205.090216 126.064912 
L 206.756821 122.139173 
L 208.478978 119.043581 
L 211.867741 122.235695 
L 216.978661 110.412588 
L 218.645266 107.638408 
L 220.367423 105.787002 
L 222.089581 103.584007 
L 223.645079 95.568002 
L 225.367237 88.025113 
L 227.033841 77.112486 
L 228.755999 71.927244 
L 230.422604 71.757945 
L 232.144762 70.89905 
L 233.866919 84.775562 
L 235.533524 86.034786 
L 237.255682 89.479123 
L 238.922286 107.683234 
L 240.644444 105.122945 
L 242.366602 105.314102 
L 243.9221 107.552895 
L 245.644258 107.37453 
L 247.310862 109.908469 
L 249.03302 114.857016 
L 250.699624 117.607981 
L 252.421782 120.969852 
L 254.14394 120.646748 
L 255.810545 121.687466 
L 257.532703 125.903455 
L 260.921465 128.040036 
L 264.19912 136.039844 
L 267.587883 138.929467 
L 269.310041 141.440294 
L 270.976645 144.323364 
L 272.698803 145.319999 
L 274.420961 143.788006 
L 276.087565 144.478264 
L 277.809723 147.255736 
L 279.476328 156.07393 
L 281.198486 157.441558 
L 282.920644 157.336693 
L 284.531695 157.747226 
L 286.253852 158.44816 
L 287.920457 154.949114 
L 291.309219 150.2432 
L 293.031377 149.64332 
L 294.753535 149.580251 
L 296.42014 149.711542 
L 298.142297 149.479099 
L 299.808902 147.504129 
L 301.53106 148.822264 
L 303.253218 148.947689 
L 304.808715 147.694142 
L 306.530873 146.0737 
L 308.197478 144.294724 
L 309.919636 143.373298 
L 311.58624 141.252019 
L 313.308398 142.818856 
L 315.030556 136.233955 
L 318.419318 134.71003 
L 320.085923 131.709522 
L 321.808081 130.690047 
L 323.530238 130.448475 
L 325.085736 120.513304 
L 326.807894 117.408258 
L 328.474498 116.729008 
L 330.196656 115.531131 
L 331.863261 113.732307 
L 333.585419 113.818851 
L 335.307577 113.084012 
L 336.974181 112.631696 
L 338.696339 112.894734 
L 340.362943 110.870151 
L 342.085101 112.931921 
L 343.807259 111.461682 
L 345.362757 119.439525 
L 347.084915 120.0053 
L 348.751519 124.586911 
L 350.473677 126.537496 
L 352.140281 126.714111 
L 353.862439 128.454234 
L 355.584597 129.426864 
L 357.251202 130.900956 
L 358.97336 133.389884 
L 360.639964 140.087654 
L 362.362122 140.831692 
L 364.08428 139.896079 
L 365.695331 141.382721 
L 367.417489 141.689569 
L 369.084093 142.151003 
L 370.806251 144.166715 
L 372.472856 144.929656 
L 374.195014 144.510334 
L 377.583776 145.060097 
L 379.305934 146.344024 
L 380.972538 147.185056 
L 382.694696 145.774365 
L 384.416854 146.725858 
L 385.972352 146.991927 
L 387.69451 147.450646 
L 391.083272 144.757793 
L 392.749876 144.101634 
L 394.472034 146.779262 
L 396.194192 145.166936 
L 397.860797 144.555719 
L 401.249559 147.316458 
L 402.971717 146.120209 
L 404.693875 146.166399 
L 406.249372 146.011042 
L 407.97153 146.363055 
L 409.638135 147.626583 
L 411.360293 146.614192 
L 413.026897 145.822885 
L 414.749055 146.563033 
L 416.471213 145.495886 
L 419.859975 145.288718 
L 421.52658 144.167244 
L 423.248738 143.933481 
L 424.970896 142.889447 
L 428.248551 139.875795 
L 429.915155 140.033926 
L 431.637313 138.805669 
L 433.303918 139.242226 
L 435.026076 140.410298 
L 436.748234 137.603226 
L 438.414838 136.014915 
L 440.136996 136.902411 
L 441.8036 135.902659 
L 443.525758 135.372009 
L 445.247916 138.287372 
L 446.858967 144.474883 
L 448.581125 145.648935 
L 450.24773 142.929608 
L 451.969888 141.736644 
L 453.636492 141.436178 
L 455.35865 141.44144 
L 457.080808 141.317558 
L 458.747412 139.228828 
L 460.46957 130.591129 
L 462.136175 123.972956 
L 463.858333 123.421372 
L 465.58049 119.690769 
L 467.135988 119.569175 
L 468.858146 121.434192 
L 470.52475 121.684203 
L 472.246908 124.866365 
L 473.913513 125.942939 
L 475.635671 128.227354 
L 477.357829 131.706465 
L 479.024433 134.006086 
L 480.746591 138.563101 
L 480.746591 138.563101 
" clip-path="url(#p9eb253b07d)" style="fill: none; stroke: #2b5aa5; stroke-width: 1.5; stroke-linecap: square"/>
   </g>
  </g>
 </g>
 <defs>
  <clipPath id="p9eb253b07d">
   <rect x="54.6375" y="7.2" width="446.4" height="217.44"/>
  </clipPath>
 </defs>
</svg>
