<?xml version="1.0" encoding="utf-8" standalone="no"?>
<!DOCTYPE svg PUBLIC "-//W3C//DTD SVG 1.1//EN"
  "http://www.w3.org/Graphics/SVG/1.1/DTD/svg11.dtd">
<svg xmlns:xlink="http://www.w3.org/1999/xlink" width="511.679688pt" height="252.12125pt" viewBox="0 0 511.679688 252.12125" xmlns="http://www.w3.org/2000/svg" version="1.1">
 <metadata>
  <rdf:RDF xmlns:dc="http://purl.org/dc/elements/1.1/" xmlns:cc="http://creativecommons.org/ns#" xmlns:rdf="http://www.w3.org/1999/02/22-rdf-syntax-ns#">
   <cc:Work>
    <dc:type rdf:resource="http://purl.org/dc/dcmitype/StillImage"/>
    <dc:date>2022-01-12T13:38:38.045171</dc:date>
    <dc:format>image/svg+xml</dc:format>
    <dc:creator>
     <cc:Agent>
      <dc:title>Matplotlib v3.5.1, https://matplotlib.org/</dc:title>
     </cc:Agent>
    </dc:creator>
   </cc:Work>
  </rdf:RDF>
 </metadata>
 <defs>
  <style type="text/css">*{stroke-linejoin: round; stroke-linecap: butt}</style>
 </defs>
 <g id="figure_1">
  <g id="patch_1">
   <path d="M 0 252.12125 
L 511.679688 252.12125 
L 511.679688 0 
L 0 0 
z
" style="fill: #ffffff"/>
  </g>
  <g id="axes_1">
   <g id="patch_2">
    <path d="M 58.079688 228.39 
L 504.479687 228.39 
L 504.479687 10.95 
L 58.079688 10.95 
z
" style="fill: #ffffff"/>
   </g>
   <g id="matplotlib.axis_1">
    <g id="xtick_1">
     <g id="line2d_1">
      <path d="M 69.825531 228.39 
L 69.825531 10.95 
" clip-path="url(#p033aa2fab2)" style="fill: none; stroke-dasharray: 2.96,1.28; stroke-dashoffset: 0; stroke: #dddddd; stroke-width: 0.8"/>
     </g>
     <g id="line2d_2">
      <defs>
       <path id="m65a8c407dd" d="M 0 0 
L 0 3.5 
" style="stroke: #000000; stroke-width: 0.8"/>
      </defs>
      <g>
       <use xlink:href="#m65a8c407dd" x="69.825531" y="228.39" style="stroke: #000000; stroke-width: 0.8"/>
      </g>
     </g>
     <g id="text_1">
      <!-- 2014 -->
      <g transform="translate(58.594281 242.89)scale(0.1 -0.1)">
       <defs>
        <path id="Roboto-Regular-32" d="M 3359 0 
L 378 0 
L 378 416 
L 1953 2166 
Q 2303 2563 2436 2811 
Q 2569 3059 2569 3325 
Q 2569 3681 2353 3909 
Q 2138 4138 1778 4138 
Q 1347 4138 1108 3892 
Q 869 3647 869 3209 
L 291 3209 
Q 291 3838 695 4225 
Q 1100 4613 1778 4613 
Q 2413 4613 2781 4280 
Q 3150 3947 3150 3394 
Q 3150 2722 2294 1794 
L 1075 472 
L 3359 472 
L 3359 0 
z
" transform="scale(0.015625)"/>
        <path id="Roboto-Regular-30" d="M 3231 1941 
Q 3231 925 2884 431 
Q 2538 -63 1800 -63 
Q 1072 -63 722 420 
Q 372 903 359 1863 
L 359 2634 
Q 359 3638 706 4125 
Q 1053 4613 1794 4613 
Q 2528 4613 2875 4142 
Q 3222 3672 3231 2691 
L 3231 1941 
z
M 2653 2731 
Q 2653 3466 2447 3802 
Q 2241 4138 1794 4138 
Q 1350 4138 1147 3803 
Q 944 3469 938 2775 
L 938 1850 
Q 938 1113 1152 761 
Q 1366 409 1800 409 
Q 2228 409 2436 740 
Q 2644 1072 2653 1784 
L 2653 2731 
z
" transform="scale(0.015625)"/>
        <path id="Roboto-Regular-31" d="M 2278 0 
L 1697 0 
L 1697 3853 
L 531 3425 
L 531 3950 
L 2188 4572 
L 2278 4572 
L 2278 0 
z
" transform="scale(0.015625)"/>
        <path id="Roboto-Regular-34" d="M 2819 1528 
L 3450 1528 
L 3450 1056 
L 2819 1056 
L 2819 0 
L 2238 0 
L 2238 1056 
L 166 1056 
L 166 1397 
L 2203 4550 
L 2819 4550 
L 2819 1528 
z
M 822 1528 
L 2238 1528 
L 2238 3759 
L 2169 3634 
L 822 1528 
z
" transform="scale(0.015625)"/>
       </defs>
       <use xlink:href="#Roboto-Regular-32"/>
       <use xlink:href="#Roboto-Regular-30" x="56.152344"/>
       <use xlink:href="#Roboto-Regular-31" x="112.304688"/>
       <use xlink:href="#Roboto-Regular-34" x="168.457031"/>
      </g>
     </g>
    </g>
    <g id="xtick_2">
     <g id="line2d_3">
      <path d="M 122.68907 228.39 
L 122.68907 10.95 
" clip-path="url(#p033aa2fab2)" style="fill: none; stroke-dasharray: 2.96,1.28; stroke-dashoffset: 0; stroke: #dddddd; stroke-width: 0.8"/>
     </g>
     <g id="line2d_4">
      <g>
       <use xlink:href="#m65a8c407dd" x="122.68907" y="228.39" style="stroke: #000000; stroke-width: 0.8"/>
      </g>
     </g>
     <g id="text_2">
      <!-- 2015 -->
      <g transform="translate(111.45782 242.89)scale(0.1 -0.1)">
       <defs>
        <path id="Roboto-Regular-35" d="M 644 2281 
L 875 4550 
L 3206 4550 
L 3206 4016 
L 1366 4016 
L 1228 2775 
Q 1563 2972 1988 2972 
Q 2609 2972 2975 2561 
Q 3341 2150 3341 1450 
Q 3341 747 2961 342 
Q 2581 -63 1900 -63 
Q 1297 -63 915 271 
Q 534 606 481 1197 
L 1028 1197 
Q 1081 806 1306 607 
Q 1531 409 1900 409 
Q 2303 409 2533 684 
Q 2763 959 2763 1444 
Q 2763 1900 2514 2176 
Q 2266 2453 1853 2453 
Q 1475 2453 1259 2288 
L 1106 2163 
L 644 2281 
z
" transform="scale(0.015625)"/>
       </defs>
       <use xlink:href="#Roboto-Regular-32"/>
       <use xlink:href="#Roboto-Regular-30" x="56.152344"/>
       <use xlink:href="#Roboto-Regular-31" x="112.304688"/>
       <use xlink:href="#Roboto-Regular-35" x="168.457031"/>
      </g>
     </g>
    </g>
    <g id="xtick_3">
     <g id="line2d_5">
      <path d="M 175.552609 228.39 
L 175.552609 10.95 
" clip-path="url(#p033aa2fab2)" style="fill: none; stroke-dasharray: 2.96,1.28; stroke-dashoffset: 0; stroke: #dddddd; stroke-width: 0.8"/>
     </g>
     <g id="line2d_6">
      <g>
       <use xlink:href="#m65a8c407dd" x="175.552609" y="228.39" style="stroke: #000000; stroke-width: 0.8"/>
      </g>
     </g>
     <g id="text_3">
      <!-- 2016 -->
      <g transform="translate(164.321359 242.89)scale(0.1 -0.1)">
       <defs>
        <path id="Roboto-Regular-36" d="M 2647 4553 
L 2647 4063 
L 2541 4063 
Q 1866 4050 1466 3662 
Q 1066 3275 1003 2572 
Q 1363 2984 1984 2984 
Q 2578 2984 2933 2565 
Q 3288 2147 3288 1484 
Q 3288 781 2905 359 
Q 2522 -63 1878 -63 
Q 1225 -63 819 439 
Q 413 941 413 1731 
L 413 1953 
Q 413 3209 948 3873 
Q 1484 4538 2544 4553 
L 2647 4553 
z
M 1888 2503 
Q 1591 2503 1341 2325 
Q 1091 2147 994 1878 
L 994 1666 
Q 994 1103 1247 759 
Q 1500 416 1878 416 
Q 2269 416 2492 703 
Q 2716 991 2716 1456 
Q 2716 1925 2489 2214 
Q 2263 2503 1888 2503 
z
" transform="scale(0.015625)"/>
       </defs>
       <use xlink:href="#Roboto-Regular-32"/>
       <use xlink:href="#Roboto-Regular-30" x="56.152344"/>
       <use xlink:href="#Roboto-Regular-31" x="112.304688"/>
       <use xlink:href="#Roboto-Regular-36" x="168.457031"/>
      </g>
     </g>
    </g>
    <g id="xtick_4">
     <g id="line2d_7">
      <path d="M 228.56098 228.39 
L 228.56098 10.95 
" clip-path="url(#p033aa2fab2)" style="fill: none; stroke-dasharray: 2.96,1.28; stroke-dashoffset: 0; stroke: #dddddd; stroke-width: 0.8"/>
     </g>
     <g id="line2d_8">
      <g>
       <use xlink:href="#m65a8c407dd" x="228.56098" y="228.39" style="stroke: #000000; stroke-width: 0.8"/>
      </g>
     </g>
     <g id="text_4">
      <!-- 2017 -->
      <g transform="translate(217.32973 242.89)scale(0.1 -0.1)">
       <defs>
        <path id="Roboto-Regular-37" d="M 3316 4225 
L 1431 0 
L 825 0 
L 2703 4075 
L 241 4075 
L 241 4550 
L 3316 4550 
L 3316 4225 
z
" transform="scale(0.015625)"/>
       </defs>
       <use xlink:href="#Roboto-Regular-32"/>
       <use xlink:href="#Roboto-Regular-30" x="56.152344"/>
       <use xlink:href="#Roboto-Regular-31" x="112.304688"/>
       <use xlink:href="#Roboto-Regular-37" x="168.457031"/>
      </g>
     </g>
    </g>
    <g id="xtick_5">
     <g id="line2d_9">
      <path d="M 281.424519 228.39 
L 281.424519 10.95 
" clip-path="url(#p033aa2fab2)" style="fill: none; stroke-dasharray: 2.96,1.28; stroke-dashoffset: 0; stroke: #dddddd; stroke-width: 0.8"/>
     </g>
     <g id="line2d_10">
      <g>
       <use xlink:href="#m65a8c407dd" x="281.424519" y="228.39" style="stroke: #000000; stroke-width: 0.8"/>
      </g>
     </g>
     <g id="text_5">
      <!-- 2018 -->
      <g transform="translate(270.193269 242.89)scale(0.1 -0.1)">
       <defs>
        <path id="Roboto-Regular-38" d="M 3138 3363 
Q 3138 3022 2958 2756 
Q 2778 2491 2472 2341 
Q 2828 2188 3036 1894 
Q 3244 1600 3244 1228 
Q 3244 638 2845 287 
Q 2447 -63 1797 -63 
Q 1141 -63 745 289 
Q 350 641 350 1228 
Q 350 1597 551 1894 
Q 753 2191 1109 2344 
Q 806 2494 631 2759 
Q 456 3025 456 3363 
Q 456 3938 825 4275 
Q 1194 4613 1797 4613 
Q 2397 4613 2767 4275 
Q 3138 3938 3138 3363 
z
M 2666 1241 
Q 2666 1622 2423 1862 
Q 2181 2103 1790 2103 
Q 1400 2103 1164 1865 
Q 928 1628 928 1240 
Q 928 853 1158 631 
Q 1388 409 1797 409 
Q 2203 409 2434 632 
Q 2666 856 2666 1241 
z
M 1797 4138 
Q 1456 4138 1245 3927 
Q 1034 3716 1034 3353 
Q 1034 3006 1242 2792 
Q 1450 2578 1797 2578 
Q 2144 2578 2351 2792 
Q 2559 3006 2559 3353 
Q 2559 3700 2343 3919 
Q 2128 4138 1797 4138 
z
" transform="scale(0.015625)"/>
       </defs>
       <use xlink:href="#Roboto-Regular-32"/>
       <use xlink:href="#Roboto-Regular-30" x="56.152344"/>
       <use xlink:href="#Roboto-Regular-31" x="112.304688"/>
       <use xlink:href="#Roboto-Regular-38" x="168.457031"/>
      </g>
     </g>
    </g>
    <g id="xtick_6">
     <g id="line2d_11">
      <path d="M 334.288058 228.39 
L 334.288058 10.95 
" clip-path="url(#p033aa2fab2)" style="fill: none; stroke-dasharray: 2.96,1.28; stroke-dashoffset: 0; stroke: #dddddd; stroke-width: 0.8"/>
     </g>
     <g id="line2d_12">
      <g>
       <use xlink:href="#m65a8c407dd" x="334.288058" y="228.39" style="stroke: #000000; stroke-width: 0.8"/>
      </g>
     </g>
     <g id="text_6">
      <!-- 2019 -->
      <g transform="translate(323.056808 242.89)scale(0.1 -0.1)">
       <defs>
        <path id="Roboto-Regular-39" d="M 2594 2000 
Q 2413 1784 2161 1653 
Q 1909 1522 1609 1522 
Q 1216 1522 923 1715 
Q 631 1909 472 2261 
Q 313 2613 313 3038 
Q 313 3494 486 3859 
Q 659 4225 978 4419 
Q 1297 4613 1722 4613 
Q 2397 4613 2786 4108 
Q 3175 3603 3175 2731 
L 3175 2563 
Q 3175 1234 2650 623 
Q 2125 13 1066 -3 
L 953 -3 
L 953 484 
L 1075 484 
Q 1791 497 2175 858 
Q 2559 1219 2594 2000 
z
M 1703 2000 
Q 1994 2000 2239 2178 
Q 2484 2356 2597 2619 
L 2597 2850 
Q 2597 3419 2350 3775 
Q 2103 4131 1725 4131 
Q 1344 4131 1112 3839 
Q 881 3547 881 3069 
Q 881 2603 1104 2301 
Q 1328 2000 1703 2000 
z
" transform="scale(0.015625)"/>
       </defs>
       <use xlink:href="#Roboto-Regular-32"/>
       <use xlink:href="#Roboto-Regular-30" x="56.152344"/>
       <use xlink:href="#Roboto-Regular-31" x="112.304688"/>
       <use xlink:href="#Roboto-Regular-39" x="168.457031"/>
      </g>
     </g>
    </g>
    <g id="xtick_7">
     <g id="line2d_13">
      <path d="M 387.151597 228.39 
L 387.151597 10.95 
" clip-path="url(#p033aa2fab2)" style="fill: none; stroke-dasharray: 2.96,1.28; stroke-dashoffset: 0; stroke: #dddddd; stroke-width: 0.8"/>
     </g>
     <g id="line2d_14">
      <g>
       <use xlink:href="#m65a8c407dd" x="387.151597" y="228.39" style="stroke: #000000; stroke-width: 0.8"/>
      </g>
     </g>
     <g id="text_7">
      <!-- 2020 -->
      <g transform="translate(375.920347 242.89)scale(0.1 -0.1)">
       <use xlink:href="#Roboto-Regular-32"/>
       <use xlink:href="#Roboto-Regular-30" x="56.152344"/>
       <use xlink:href="#Roboto-Regular-32" x="112.304688"/>
       <use xlink:href="#Roboto-Regular-30" x="168.457031"/>
      </g>
     </g>
    </g>
    <g id="xtick_8">
     <g id="line2d_15">
      <path d="M 440.159968 228.39 
L 440.159968 10.95 
" clip-path="url(#p033aa2fab2)" style="fill: none; stroke-dasharray: 2.96,1.28; stroke-dashoffset: 0; stroke: #dddddd; stroke-width: 0.8"/>
     </g>
     <g id="line2d_16">
      <g>
       <use xlink:href="#m65a8c407dd" x="440.159968" y="228.39" style="stroke: #000000; stroke-width: 0.8"/>
      </g>
     </g>
     <g id="text_8">
      <!-- 2021 -->
      <g transform="translate(428.928718 242.89)scale(0.1 -0.1)">
       <use xlink:href="#Roboto-Regular-32"/>
       <use xlink:href="#Roboto-Regular-30" x="56.152344"/>
       <use xlink:href="#Roboto-Regular-32" x="112.304688"/>
       <use xlink:href="#Roboto-Regular-31" x="168.457031"/>
      </g>
     </g>
    </g>
    <g id="xtick_9">
     <g id="line2d_17">
      <path d="M 493.023507 228.39 
L 493.023507 10.95 
" clip-path="url(#p033aa2fab2)" style="fill: none; stroke-dasharray: 2.96,1.28; stroke-dashoffset: 0; stroke: #dddddd; stroke-width: 0.8"/>
     </g>
     <g id="line2d_18">
      <g>
       <use xlink:href="#m65a8c407dd" x="493.023507" y="228.39" style="stroke: #000000; stroke-width: 0.8"/>
      </g>
     </g>
     <g id="text_9">
      <!-- 2022 -->
      <g transform="translate(481.792257 242.89)scale(0.1 -0.1)">
       <use xlink:href="#Roboto-Regular-32"/>
       <use xlink:href="#Roboto-Regular-30" x="56.152344"/>
       <use xlink:href="#Roboto-Regular-32" x="112.304688"/>
       <use xlink:href="#Roboto-Regular-32" x="168.457031"/>
      </g>
     </g>
    </g>
   </g>
   <g id="matplotlib.axis_2">
    <g id="ytick_1">
     <g id="line2d_19">
      <path d="M 58.079688 228.39 
L 504.479687 228.39 
" clip-path="url(#p033aa2fab2)" style="fill: none; stroke-dasharray: 2.96,1.28; stroke-dashoffset: 0; stroke: #dddddd; stroke-width: 0.8"/>
     </g>
     <g id="line2d_20">
      <defs>
       <path id="m4f8962882b" d="M 0 0 
L -3.5 0 
" style="stroke: #000000; stroke-width: 0.8"/>
      </defs>
      <g>
       <use xlink:href="#m4f8962882b" x="58.079688" y="228.39" style="stroke: #000000; stroke-width: 0.8"/>
      </g>
     </g>
     <g id="text_10">
      <!-- -20.0% -->
      <g transform="translate(21.517188 232.14)scale(0.1 -0.1)">
       <defs>
        <path id="Roboto-Regular-2d" d="M 1641 1697 
L 116 1697 
L 116 2169 
L 1641 2169 
L 1641 1697 
z
" transform="scale(0.015625)"/>
        <path id="Roboto-Regular-2e" d="M 450 303 
Q 450 453 539 553 
Q 628 653 806 653 
Q 984 653 1076 553 
Q 1169 453 1169 303 
Q 1169 159 1076 62 
Q 984 -34 806 -34 
Q 628 -34 539 62 
Q 450 159 450 303 
z
" transform="scale(0.015625)"/>
        <path id="Roboto-Regular-25" d="M 328 3675 
Q 328 4084 589 4350 
Q 850 4616 1259 4616 
Q 1675 4616 1933 4348 
Q 2191 4081 2191 3656 
L 2191 3434 
Q 2191 3022 1930 2761 
Q 1669 2500 1266 2500 
Q 859 2500 593 2761 
Q 328 3022 328 3456 
L 328 3675 
z
M 759 3434 
Q 759 3191 896 3033 
Q 1034 2875 1266 2875 
Q 1488 2875 1623 3028 
Q 1759 3181 1759 3447 
L 1759 3675 
Q 1759 3919 1625 4078 
Q 1491 4238 1259 4238 
Q 1028 4238 893 4078 
Q 759 3919 759 3663 
L 759 3434 
z
M 2544 1116 
Q 2544 1525 2805 1789 
Q 3066 2053 3475 2053 
Q 3884 2053 4146 1790 
Q 4409 1528 4409 1094 
L 4409 872 
Q 4409 463 4148 198 
Q 3888 -66 3481 -66 
Q 3075 -66 2809 195 
Q 2544 456 2544 891 
L 2544 1116 
z
M 2975 872 
Q 2975 625 3112 467 
Q 3250 309 3481 309 
Q 3706 309 3840 464 
Q 3975 619 3975 884 
L 3975 1116 
Q 3975 1363 3839 1519 
Q 3703 1675 3475 1675 
Q 3253 1675 3114 1520 
Q 2975 1366 2975 1103 
L 2975 872 
z
M 1397 344 
L 1069 550 
L 3291 4106 
L 3619 3900 
L 1397 344 
z
" transform="scale(0.015625)"/>
       </defs>
       <use xlink:href="#Roboto-Regular-2d"/>
       <use xlink:href="#Roboto-Regular-32" x="27.587891"/>
       <use xlink:href="#Roboto-Regular-30" x="83.740234"/>
       <use xlink:href="#Roboto-Regular-2e" x="139.892578"/>
       <use xlink:href="#Roboto-Regular-30" x="166.210938"/>
       <use xlink:href="#Roboto-Regular-25" x="222.363281"/>
      </g>
     </g>
    </g>
    <g id="ytick_2">
     <g id="line2d_21">
      <path d="M 58.079688 201.21 
L 504.479687 201.21 
" clip-path="url(#p033aa2fab2)" style="fill: none; stroke-dasharray: 2.96,1.28; stroke-dashoffset: 0; stroke: #dddddd; stroke-width: 0.8"/>
     </g>
     <g id="line2d_22">
      <g>
       <use xlink:href="#m4f8962882b" x="58.079688" y="201.21" style="stroke: #000000; stroke-width: 0.8"/>
      </g>
     </g>
     <g id="text_11">
      <!-- -10.0% -->
      <g transform="translate(21.517188 204.96)scale(0.1 -0.1)">
       <use xlink:href="#Roboto-Regular-2d"/>
       <use xlink:href="#Roboto-Regular-31" x="27.587891"/>
       <use xlink:href="#Roboto-Regular-30" x="83.740234"/>
       <use xlink:href="#Roboto-Regular-2e" x="139.892578"/>
       <use xlink:href="#Roboto-Regular-30" x="166.210938"/>
       <use xlink:href="#Roboto-Regular-25" x="222.363281"/>
      </g>
     </g>
    </g>
    <g id="ytick_3">
     <g id="line2d_23">
      <path d="M 58.079688 174.03 
L 504.479687 174.03 
" clip-path="url(#p033aa2fab2)" style="fill: none; stroke-dasharray: 2.96,1.28; stroke-dashoffset: 0; stroke: #dddddd; stroke-width: 0.8"/>
     </g>
     <g id="line2d_24">
      <g>
       <use xlink:href="#m4f8962882b" x="58.079688" y="174.03" style="stroke: #000000; stroke-width: 0.8"/>
      </g>
     </g>
     <g id="text_12">
      <!-- 0.0% -->
      <g transform="translate(29.892188 177.78)scale(0.1 -0.1)">
       <use xlink:href="#Roboto-Regular-30"/>
       <use xlink:href="#Roboto-Regular-2e" x="56.152344"/>
       <use xlink:href="#Roboto-Regular-30" x="82.470703"/>
       <use xlink:href="#Roboto-Regular-25" x="138.623047"/>
      </g>
     </g>
    </g>
    <g id="ytick_4">
     <g id="line2d_25">
      <path d="M 58.079688 146.85 
L 504.479687 146.85 
" clip-path="url(#p033aa2fab2)" style="fill: none; stroke-dasharray: 2.96,1.28; stroke-dashoffset: 0; stroke: #dddddd; stroke-width: 0.8"/>
     </g>
     <g id="line2d_26">
      <g>
       <use xlink:href="#m4f8962882b" x="58.079688" y="146.85" style="stroke: #000000; stroke-width: 0.8"/>
      </g>
     </g>
     <g id="text_13">
      <!-- 10.0% -->
      <g transform="translate(24.276563 150.6)scale(0.1 -0.1)">
       <use xlink:href="#Roboto-Regular-31"/>
       <use xlink:href="#Roboto-Regular-30" x="56.152344"/>
       <use xlink:href="#Roboto-Regular-2e" x="112.304688"/>
       <use xlink:href="#Roboto-Regular-30" x="138.623047"/>
       <use xlink:href="#Roboto-Regular-25" x="194.775391"/>
      </g>
     </g>
    </g>
    <g id="ytick_5">
     <g id="line2d_27">
      <path d="M 58.079688 119.67 
L 504.479687 119.67 
" clip-path="url(#p033aa2fab2)" style="fill: none; stroke-dasharray: 2.96,1.28; stroke-dashoffset: 0; stroke: #dddddd; stroke-width: 0.8"/>
     </g>
     <g id="line2d_28">
      <g>
       <use xlink:href="#m4f8962882b" x="58.079688" y="119.67" style="stroke: #000000; stroke-width: 0.8"/>
      </g>
     </g>
     <g id="text_14">
      <!-- 20.0% -->
      <g transform="translate(24.276563 123.42)scale(0.1 -0.1)">
       <use xlink:href="#Roboto-Regular-32"/>
       <use xlink:href="#Roboto-Regular-30" x="56.152344"/>
       <use xlink:href="#Roboto-Regular-2e" x="112.304688"/>
       <use xlink:href="#Roboto-Regular-30" x="138.623047"/>
       <use xlink:href="#Roboto-Regular-25" x="194.775391"/>
      </g>
     </g>
    </g>
    <g id="ytick_6">
     <g id="line2d_29">
      <path d="M 58.079688 92.49 
L 504.479687 92.49 
" clip-path="url(#p033aa2fab2)" style="fill: none; stroke-dasharray: 2.96,1.28; stroke-dashoffset: 0; stroke: #dddddd; stroke-width: 0.8"/>
     </g>
     <g id="line2d_30">
      <g>
       <use xlink:href="#m4f8962882b" x="58.079688" y="92.49" style="stroke: #000000; stroke-width: 0.8"/>
      </g>
     </g>
     <g id="text_15">
      <!-- 30.0% -->
      <g transform="translate(24.276563 96.24)scale(0.1 -0.1)">
       <defs>
        <path id="Roboto-Regular-33" d="M 1219 2556 
L 1653 2556 
Q 2063 2563 2297 2772 
Q 2531 2981 2531 3338 
Q 2531 4138 1734 4138 
Q 1359 4138 1136 3923 
Q 913 3709 913 3356 
L 334 3356 
Q 334 3897 729 4255 
Q 1125 4613 1734 4613 
Q 2378 4613 2743 4272 
Q 3109 3931 3109 3325 
Q 3109 3028 2917 2750 
Q 2725 2472 2394 2334 
Q 2769 2216 2973 1941 
Q 3178 1666 3178 1269 
Q 3178 656 2778 296 
Q 2378 -63 1737 -63 
Q 1097 -63 695 284 
Q 294 631 294 1200 
L 875 1200 
Q 875 841 1109 625 
Q 1344 409 1738 409 
Q 2156 409 2378 628 
Q 2600 847 2600 1256 
Q 2600 1653 2356 1865 
Q 2113 2078 1653 2084 
L 1219 2084 
L 1219 2556 
z
" transform="scale(0.015625)"/>
       </defs>
       <use xlink:href="#Roboto-Regular-33"/>
       <use xlink:href="#Roboto-Regular-30" x="56.152344"/>
       <use xlink:href="#Roboto-Regular-2e" x="112.304688"/>
       <use xlink:href="#Roboto-Regular-30" x="138.623047"/>
       <use xlink:href="#Roboto-Regular-25" x="194.775391"/>
      </g>
     </g>
    </g>
    <g id="ytick_7">
     <g id="line2d_31">
      <path d="M 58.079688 65.31 
L 504.479687 65.31 
" clip-path="url(#p033aa2fab2)" style="fill: none; stroke-dasharray: 2.96,1.28; stroke-dashoffset: 0; stroke: #dddddd; stroke-width: 0.8"/>
     </g>
     <g id="line2d_32">
      <g>
       <use xlink:href="#m4f8962882b" x="58.079688" y="65.31" style="stroke: #000000; stroke-width: 0.8"/>
      </g>
     </g>
     <g id="text_16">
      <!-- 40.0% -->
      <g transform="translate(24.276563 69.06)scale(0.1 -0.1)">
       <use xlink:href="#Roboto-Regular-34"/>
       <use xlink:href="#Roboto-Regular-30" x="56.152344"/>
       <use xlink:href="#Roboto-Regular-2e" x="112.304688"/>
       <use xlink:href="#Roboto-Regular-30" x="138.623047"/>
       <use xlink:href="#Roboto-Regular-25" x="194.775391"/>
      </g>
     </g>
    </g>
    <g id="ytick_8">
     <g id="line2d_33">
      <path d="M 58.079688 38.13 
L 504.479687 38.13 
" clip-path="url(#p033aa2fab2)" style="fill: none; stroke-dasharray: 2.96,1.28; stroke-dashoffset: 0; stroke: #dddddd; stroke-width: 0.8"/>
     </g>
     <g id="line2d_34">
      <g>
       <use xlink:href="#m4f8962882b" x="58.079688" y="38.13" style="stroke: #000000; stroke-width: 0.8"/>
      </g>
     </g>
     <g id="text_17">
      <!-- 50.0% -->
      <g transform="translate(24.276563 41.88)scale(0.1 -0.1)">
       <use xlink:href="#Roboto-Regular-35"/>
       <use xlink:href="#Roboto-Regular-30" x="56.152344"/>
       <use xlink:href="#Roboto-Regular-2e" x="112.304688"/>
       <use xlink:href="#Roboto-Regular-30" x="138.623047"/>
       <use xlink:href="#Roboto-Regular-25" x="194.775391"/>
      </g>
     </g>
    </g>
    <g id="ytick_9">
     <g id="line2d_35">
      <path d="M 58.079688 10.95 
L 504.479687 10.95 
" clip-path="url(#p033aa2fab2)" style="fill: none; stroke-dasharray: 2.96,1.28; stroke-dashoffset: 0; stroke: #dddddd; stroke-width: 0.8"/>
     </g>
     <g id="line2d_36">
      <g>
       <use xlink:href="#m4f8962882b" x="58.079688" y="10.95" style="stroke: #000000; stroke-width: 0.8"/>
      </g>
     </g>
     <g id="text_18">
      <!-- 60.0% -->
      <g transform="translate(24.276563 14.7)scale(0.1 -0.1)">
       <use xlink:href="#Roboto-Regular-36"/>
       <use xlink:href="#Roboto-Regular-30" x="56.152344"/>
       <use xlink:href="#Roboto-Regular-2e" x="112.304688"/>
       <use xlink:href="#Roboto-Regular-30" x="138.623047"/>
       <use xlink:href="#Roboto-Regular-25" x="194.775391"/>
      </g>
     </g>
    </g>
    <g id="text_19">
     <!-- Return over equity (ROE) -->
     <g transform="translate(15.221875 173.8325)rotate(-90)scale(0.1 -0.1)">
      <defs>
       <path id="Roboto-Regular-52" d="M 2197 1841 
L 1128 1841 
L 1128 0 
L 525 0 
L 525 4550 
L 2031 4550 
Q 2800 4550 3214 4200 
Q 3628 3850 3628 3181 
Q 3628 2756 3398 2440 
Q 3169 2125 2759 1969 
L 3828 38 
L 3828 0 
L 3184 0 
L 2197 1841 
z
M 1128 2331 
L 2050 2331 
Q 2497 2331 2761 2562 
Q 3025 2794 3025 3181 
Q 3025 3603 2773 3828 
Q 2522 4053 2047 4056 
L 1128 4056 
L 1128 2331 
z
" transform="scale(0.015625)"/>
       <path id="Roboto-Regular-65" d="M 1841 -63 
Q 1153 -63 722 389 
Q 291 841 291 1597 
L 291 1703 
Q 291 2206 483 2601 
Q 675 2997 1020 3220 
Q 1366 3444 1769 3444 
Q 2428 3444 2793 3009 
Q 3159 2575 3159 1766 
L 3159 1525 
L 869 1525 
Q 881 1025 1161 717 
Q 1441 409 1872 409 
Q 2178 409 2390 534 
Q 2603 659 2763 866 
L 3116 591 
Q 2691 -63 1841 -63 
z
M 1769 2969 
Q 1419 2969 1181 2714 
Q 944 2459 888 2000 
L 2581 2000 
L 2581 2044 
Q 2556 2484 2343 2726 
Q 2131 2969 1769 2969 
z
" transform="scale(0.015625)"/>
       <path id="Roboto-Regular-74" d="M 1222 4200 
L 1222 3381 
L 1853 3381 
L 1853 2934 
L 1222 2934 
L 1222 838 
Q 1222 634 1306 532 
Q 1391 431 1594 431 
Q 1694 431 1869 469 
L 1869 0 
Q 1641 -63 1425 -63 
Q 1038 -63 841 171 
Q 644 406 644 838 
L 644 2934 
L 28 2934 
L 28 3381 
L 644 3381 
L 644 4200 
L 1222 4200 
z
" transform="scale(0.015625)"/>
       <path id="Roboto-Regular-75" d="M 2525 334 
Q 2188 -63 1534 -63 
Q 994 -63 711 251 
Q 428 566 425 1181 
L 425 3381 
L 1003 3381 
L 1003 1197 
Q 1003 428 1628 428 
Q 2291 428 2509 922 
L 2509 3381 
L 3088 3381 
L 3088 0 
L 2538 0 
L 2525 334 
z
" transform="scale(0.015625)"/>
       <path id="Roboto-Regular-72" d="M 2072 2863 
Q 1941 2884 1788 2884 
Q 1219 2884 1016 2400 
L 1016 0 
L 438 0 
L 438 3381 
L 1000 3381 
L 1009 2991 
Q 1294 3444 1816 3444 
Q 1984 3444 2072 3400 
L 2072 2863 
z
" transform="scale(0.015625)"/>
       <path id="Roboto-Regular-6e" d="M 984 3381 
L 1003 2956 
Q 1391 3444 2016 3444 
Q 3088 3444 3097 2234 
L 3097 0 
L 2519 0 
L 2519 2238 
Q 2516 2603 2352 2778 
Q 2188 2953 1841 2953 
Q 1559 2953 1346 2803 
Q 1134 2653 1016 2409 
L 1016 0 
L 438 0 
L 438 3381 
L 984 3381 
z
" transform="scale(0.015625)"/>
       <path id="Roboto-Regular-20" transform="scale(0.015625)"/>
       <path id="Roboto-Regular-6f" d="M 284 1722 
Q 284 2219 479 2616 
Q 675 3013 1023 3228 
Q 1372 3444 1819 3444 
Q 2509 3444 2936 2966 
Q 3363 2488 3363 1694 
L 3363 1653 
Q 3363 1159 3173 767 
Q 2984 375 2632 156 
Q 2281 -63 1825 -63 
Q 1138 -63 711 415 
Q 284 894 284 1681 
L 284 1722 
z
M 866 1653 
Q 866 1091 1127 750 
Q 1388 409 1825 409 
Q 2266 409 2525 754 
Q 2784 1100 2784 1722 
Q 2784 2278 2520 2623 
Q 2256 2969 1819 2969 
Q 1391 2969 1128 2628 
Q 866 2288 866 1653 
z
" transform="scale(0.015625)"/>
       <path id="Roboto-Regular-76" d="M 1553 784 
L 2391 3381 
L 2981 3381 
L 1769 0 
L 1328 0 
L 103 3381 
L 694 3381 
L 1553 784 
z
" transform="scale(0.015625)"/>
       <path id="Roboto-Regular-71" d="M 297 1719 
Q 297 2516 662 2980 
Q 1028 3444 1644 3444 
Q 2244 3444 2591 3041 
L 2616 3381 
L 3147 3381 
L 3147 -1300 
L 2569 -1300 
L 2569 313 
Q 2219 -63 1638 -63 
Q 1025 -63 661 414 
Q 297 891 297 1678 
L 297 1719 
z
M 875 1653 
Q 875 1072 1120 740 
Q 1366 409 1781 409 
Q 2297 409 2569 866 
L 2569 2522 
Q 2294 2969 1788 2969 
Q 1369 2969 1122 2636 
Q 875 2303 875 1653 
z
" transform="scale(0.015625)"/>
       <path id="Roboto-Regular-69" d="M 1066 0 
L 488 0 
L 488 3381 
L 1066 3381 
L 1066 0 
z
M 441 4278 
Q 441 4419 527 4516 
Q 613 4613 781 4613 
Q 950 4613 1037 4516 
Q 1125 4419 1125 4278 
Q 1125 4138 1037 4044 
Q 950 3950 781 3950 
Q 613 3950 527 4044 
Q 441 4138 441 4278 
z
" transform="scale(0.015625)"/>
       <path id="Roboto-Regular-79" d="M 1544 847 
L 2331 3381 
L 2950 3381 
L 1591 -522 
Q 1275 -1366 588 -1366 
L 478 -1356 
L 263 -1316 
L 263 -847 
L 419 -859 
Q 713 -859 877 -740 
Q 1041 -622 1147 -306 
L 1275 38 
L 69 3381 
L 700 3381 
L 1544 847 
z
" transform="scale(0.015625)"/>
       <path id="Roboto-Regular-28" d="M 416 1847 
Q 416 2553 605 3203 
Q 794 3853 1169 4384 
Q 1544 4916 1947 5134 
L 2066 4753 
Q 1609 4403 1317 3684 
Q 1025 2966 997 2075 
L 994 1809 
Q 994 603 1434 -284 
Q 1700 -816 2066 -1116 
L 1947 -1469 
Q 1531 -1238 1153 -694 
Q 416 369 416 1847 
z
" transform="scale(0.015625)"/>
       <path id="Roboto-Regular-4f" d="M 4028 2128 
Q 4028 1459 3803 961 
Q 3578 463 3165 200 
Q 2753 -63 2203 -63 
Q 1666 -63 1250 201 
Q 834 466 604 955 
Q 375 1444 369 2088 
L 369 2416 
Q 369 3072 597 3575 
Q 825 4078 1242 4345 
Q 1659 4613 2197 4613 
Q 2744 4613 3161 4348 
Q 3578 4084 3803 3582 
Q 4028 3081 4028 2416 
L 4028 2128 
z
M 3431 2422 
Q 3431 3231 3106 3664 
Q 2781 4097 2197 4097 
Q 1628 4097 1301 3664 
Q 975 3231 966 2463 
L 966 2128 
Q 966 1344 1295 895 
Q 1625 447 2203 447 
Q 2784 447 3103 870 
Q 3422 1294 3431 2084 
L 3431 2422 
z
" transform="scale(0.015625)"/>
       <path id="Roboto-Regular-45" d="M 3100 2103 
L 1128 2103 
L 1128 491 
L 3419 491 
L 3419 0 
L 528 0 
L 528 4550 
L 3388 4550 
L 3388 4056 
L 1128 4056 
L 1128 2594 
L 3100 2594 
L 3100 2103 
z
" transform="scale(0.015625)"/>
       <path id="Roboto-Regular-29" d="M 1772 1816 
Q 1772 1119 1589 480 
Q 1406 -159 1029 -700 
Q 653 -1241 241 -1469 
L 119 -1116 
Q 600 -747 892 29 
Q 1184 806 1191 1753 
L 1191 1853 
Q 1191 2509 1053 3073 
Q 916 3638 670 4084 
Q 425 4531 119 4781 
L 241 5134 
Q 653 4906 1026 4372 
Q 1400 3838 1586 3194 
Q 1772 2550 1772 1816 
z
" transform="scale(0.015625)"/>
      </defs>
      <use xlink:href="#Roboto-Regular-52"/>
      <use xlink:href="#Roboto-Regular-65" x="61.572266"/>
      <use xlink:href="#Roboto-Regular-74" x="114.550781"/>
      <use xlink:href="#Roboto-Regular-75" x="147.216797"/>
      <use xlink:href="#Roboto-Regular-72" x="202.34375"/>
      <use xlink:href="#Roboto-Regular-6e" x="236.181641"/>
      <use xlink:href="#Roboto-Regular-20" x="291.357422"/>
      <use xlink:href="#Roboto-Regular-6f" x="316.113281"/>
      <use xlink:href="#Roboto-Regular-76" x="373.144531"/>
      <use xlink:href="#Roboto-Regular-65" x="421.582031"/>
      <use xlink:href="#Roboto-Regular-72" x="474.560547"/>
      <use xlink:href="#Roboto-Regular-20" x="508.398438"/>
      <use xlink:href="#Roboto-Regular-65" x="533.154297"/>
      <use xlink:href="#Roboto-Regular-71" x="586.132812"/>
      <use xlink:href="#Roboto-Regular-75" x="642.96875"/>
      <use xlink:href="#Roboto-Regular-69" x="698.095703"/>
      <use xlink:href="#Roboto-Regular-74" x="722.363281"/>
      <use xlink:href="#Roboto-Regular-79" x="755.029297"/>
      <use xlink:href="#Roboto-Regular-20" x="802.34375"/>
      <use xlink:href="#Roboto-Regular-28" x="827.099609"/>
      <use xlink:href="#Roboto-Regular-52" x="861.279297"/>
      <use xlink:href="#Roboto-Regular-4f" x="922.851562"/>
      <use xlink:href="#Roboto-Regular-45" x="991.601562"/>
      <use xlink:href="#Roboto-Regular-29" x="1048.4375"/>
     </g>
    </g>
   </g>
   <g id="line2d_37">
    <path d="M 78.370597 104.141474 
L 82.860377 109.125572 
L 87.205325 111.891483 
L 91.695105 115.060635 
L 96.040053 118.401876 
L 100.529833 119.557367 
L 105.019614 121.948049 
L 109.364562 123.281774 
L 113.854342 121.357861 
L 118.19929 124.094918 
L 122.68907 122.700407 
L 127.17885 121.278419 
L 131.234136 116.67544 
L 135.723916 110.622198 
L 140.068864 108.172249 
L 144.558644 108.532719 
L 148.903593 105.156514 
L 153.393373 104.22679 
L 157.883153 100.940661 
L 162.228101 96.806745 
L 166.717881 96.161374 
L 171.062829 95.076183 
L 175.552609 97.143917 
L 180.042389 96.39102 
L 184.242506 94.170198 
L 188.732286 99.297655 
L 193.077235 100.261438 
L 197.567015 96.959898 
L 201.911963 96.638187 
L 206.401743 94.662799 
L 210.891523 93.915965 
L 215.236472 96.296392 
L 219.726252 93.851644 
L 224.0712 87.919655 
L 228.56098 85.306663 
L 233.05076 85.801988 
L 237.106045 87.972845 
L 241.595825 85.422999 
L 245.940774 86.09712 
L 250.430554 87.807081 
L 254.775502 88.514141 
L 259.265282 88.517934 
L 263.755062 89.014676 
L 268.100011 88.34587 
L 272.589791 89.684879 
L 276.934739 91.233783 
L 281.424519 91.805696 
L 285.914299 92.325518 
L 289.969584 92.560834 
L 294.459364 94.257123 
L 298.804313 94.543736 
L 303.294093 94.534713 
L 307.639041 95.344789 
L 312.128821 95.187535 
L 316.618601 97.281665 
L 320.96355 99.87349 
L 325.45333 100.920012 
L 329.798278 102.01484 
L 334.288058 102.624265 
L 338.777838 101.742003 
L 342.833123 100.901348 
L 347.322903 100.914366 
L 351.667852 99.650713 
L 356.157632 99.849417 
L 360.50258 100.831883 
L 364.99236 101.861162 
L 369.48214 101.616078 
L 373.827089 100.729823 
L 378.316869 99.034006 
L 382.661817 101.611513 
L 387.151597 101.1161 
L 391.641377 102.433432 
L 395.841494 103.654121 
L 400.331274 103.326891 
L 404.676222 105.485793 
L 409.166002 104.857605 
L 413.510951 104.02093 
L 418.000731 104.398991 
L 422.490511 105.089744 
L 426.835459 107.3775 
L 431.325239 108.648594 
L 435.670188 105.729649 
L 440.159968 105.623356 
L 444.649748 109.525158 
L 448.705033 108.401229 
L 453.194813 109.880828 
L 457.539761 109.674891 
L 462.029542 110.844868 
L 466.37449 109.703651 
L 470.86427 108.401555 
L 475.35405 107.832677 
L 479.698998 104.010103 
L 484.188778 103.148376 
" clip-path="url(#p033aa2fab2)" style="fill: none; stroke: #808080; stroke-opacity: 0.5; stroke-linecap: square"/>
   </g>
   <g id="line2d_38">
    <path d="M 78.370597 149.839015 
L 82.860377 153.022705 
L 87.205325 146.844762 
L 91.695105 143.219843 
L 96.040053 144.139623 
L 100.529833 143.288298 
L 105.019614 146.348162 
L 109.364562 146.544689 
L 113.854342 144.980213 
L 118.19929 143.872807 
L 122.68907 141.634663 
L 127.17885 143.271218 
L 131.234136 143.509672 
L 135.723916 140.953256 
L 140.068864 141.28289 
L 144.558644 141.375061 
L 148.903593 139.678234 
L 153.393373 139.432962 
L 157.883153 138.012527 
L 162.228101 135.650743 
L 166.717881 136.18693 
L 171.062829 135.766754 
L 175.552609 137.819474 
L 180.042389 135.972078 
L 184.242506 133.452904 
L 188.732286 134.753861 
L 193.077235 135.826397 
L 197.567015 134.018428 
L 201.911963 134.250359 
L 206.401743 133.722817 
L 210.891523 131.964423 
L 215.236472 135.6918 
L 219.726252 137.356212 
L 224.0712 135.2725 
L 228.56098 134.441746 
L 233.05076 135.102735 
L 237.106045 135.671362 
L 241.595825 136.017594 
L 245.940774 141.603053 
L 250.430554 143.965523 
L 254.775502 145.123043 
L 259.265282 145.767401 
L 263.755062 146.680181 
L 268.100011 146.283273 
L 272.589791 143.83628 
L 276.934739 141.809743 
L 281.424519 141.004173 
L 285.914299 144.886516 
L 289.969584 148.377481 
L 294.459364 151.68584 
L 298.804313 145.792193 
L 303.294093 145.766031 
L 307.639041 146.035843 
L 312.128821 145.25128 
L 316.618601 146.659781 
L 320.96355 148.991687 
L 325.45333 149.108185 
L 329.798278 151.35102 
L 334.288058 150.738724 
L 338.777838 148.403404 
L 342.833123 145.802947 
L 347.322903 143.449023 
L 351.667852 143.546854 
L 356.157632 142.802063 
L 360.50258 143.397744 
L 364.99236 143.520946 
L 369.48214 142.858416 
L 373.827089 140.884087 
L 378.316869 141.050178 
L 382.661817 141.426135 
L 387.151597 141.783716 
L 391.641377 143.867747 
L 395.841494 148.324758 
L 400.331274 146.442673 
L 404.676222 145.539318 
L 409.166002 143.99072 
L 413.510951 141.809086 
L 418.000731 141.270012 
L 422.490511 142.144258 
L 426.835459 143.977434 
L 431.325239 143.050129 
L 435.670188 141.556185 
L 440.159968 142.490278 
L 444.649748 142.266557 
L 448.705033 140.496873 
L 453.194813 143.668639 
L 457.539761 145.383946 
L 462.029542 147.546634 
L 466.37449 149.094237 
L 470.86427 149.583615 
L 475.35405 150.284013 
L 479.698998 148.070411 
L 484.188778 148.494909 
" clip-path="url(#p033aa2fab2)" style="fill: none; stroke: #808080; stroke-opacity: 0.5; stroke-linecap: square"/>
   </g>
   <g id="line2d_39">
    <path d="M 78.370597 149.315632 
L 82.860377 150.336038 
L 87.205325 147.758735 
L 91.695105 146.175241 
L 96.040053 147.020571 
L 100.529833 146.255249 
L 105.019614 148.050529 
L 109.364562 147.890926 
L 113.854342 147.180497 
L 118.19929 146.674693 
L 122.68907 145.150782 
L 127.17885 145.631292 
L 131.234136 146.12957 
L 135.723916 145.421838 
L 140.068864 145.621604 
L 144.558644 145.763533 
L 148.903593 144.708043 
L 153.393373 145.329602 
L 157.883153 144.759795 
L 162.228101 143.496363 
L 166.717881 143.59698 
L 171.062829 145.232038 
L 175.552609 146.266161 
L 180.042389 145.779056 
L 184.242506 144.541647 
L 188.732286 144.780956 
L 193.077235 145.86331 
L 197.567015 145.411783 
L 201.911963 145.063688 
L 206.401743 144.263774 
L 210.891523 143.737364 
L 215.236472 145.136571 
L 219.726252 146.225891 
L 224.0712 144.042873 
L 228.56098 143.13343 
L 233.05076 143.11712 
L 237.106045 143.13368 
L 241.595825 143.334095 
L 245.940774 142.948347 
L 250.430554 143.115718 
L 254.775502 144.185767 
L 259.265282 144.564791 
L 263.755062 144.343547 
L 268.100011 144.273143 
L 272.589791 143.442515 
L 276.934739 143.874884 
L 281.424519 143.83933 
L 285.914299 144.109162 
L 289.969584 144.493013 
L 294.459364 144.007109 
L 298.804313 143.916608 
L 303.294093 143.336155 
L 307.639041 142.641757 
L 312.128821 142.251965 
L 316.618601 142.482003 
L 320.96355 144.020096 
L 325.45333 144.435176 
L 329.798278 144.857991 
L 334.288058 144.954914 
L 338.777838 144.146654 
L 342.833123 143.342604 
L 347.322903 143.301507 
L 351.667852 142.791913 
L 356.157632 142.033193 
L 360.50258 142.997774 
L 364.99236 141.690262 
L 369.48214 140.53171 
L 373.827089 139.462137 
L 378.316869 137.670827 
L 382.661817 137.772154 
L 387.151597 137.20012 
L 391.641377 137.769794 
L 395.841494 139.876372 
L 400.331274 138.052084 
L 404.676222 136.488938 
L 409.166002 135.530591 
L 413.510951 133.433525 
L 418.000731 133.93256 
L 422.490511 134.654807 
L 426.835459 134.194863 
L 431.325239 133.895485 
L 435.670188 131.729323 
L 440.159968 131.622974 
L 444.649748 131.531479 
L 448.705033 130.149876 
L 453.194813 131.423467 
L 457.539761 132.20827 
L 462.029542 133.792583 
L 466.37449 134.643346 
L 470.86427 134.125481 
L 475.35405 133.721404 
L 479.698998 132.515158 
L 484.188778 132.349348 
" clip-path="url(#p033aa2fab2)" style="fill: none; stroke: #808080; stroke-opacity: 0.5; stroke-linecap: square"/>
   </g>
   <g id="line2d_40">
    <path clip-path="url(#p033aa2fab2)" style="fill: none; stroke: #808080; stroke-opacity: 0.5; stroke-linecap: square"/>
   </g>
   <g id="line2d_41">
    <path d="M 78.370597 133.446831 
L 82.860377 136.760376 
L 87.205325 130.920203 
L 91.695105 126.347946 
L 96.040053 126.720161 
L 100.529833 126.103263 
L 105.019614 129.271467 
L 109.364562 128.444853 
L 113.854342 127.114096 
L 118.19929 127.692398 
L 122.68907 125.044855 
L 127.17885 126.592444 
L 131.234136 128.66992 
L 135.723916 126.461437 
L 140.068864 127.794358 
L 144.558644 129.161579 
L 148.903593 127.969334 
L 153.393373 128.736481 
L 157.883153 128.156618 
L 162.228101 126.184378 
L 166.717881 126.849687 
L 171.062829 129.809835 
L 175.552609 132.171883 
L 180.042389 131.019568 
L 184.242506 128.408039 
L 188.732286 129.143916 
L 193.077235 130.151228 
L 197.567015 128.659271 
L 201.911963 127.997121 
L 206.401743 125.89909 
L 210.891523 124.308418 
L 215.236472 127.711998 
L 219.726252 130.263636 
L 224.0712 129.79548 
L 228.56098 127.999752 
L 233.05076 127.158068 
L 237.106045 126.919673 
L 241.595825 126.951246 
L 245.940774 127.88107 
L 250.430554 127.608798 
L 254.775502 129.105916 
L 259.265282 130.034638 
L 263.755062 129.90202 
L 268.100011 129.266304 
L 272.589791 126.800864 
L 276.934739 125.336145 
L 281.424519 125.021179 
L 285.914299 126.866441 
L 289.969584 127.894147 
L 294.459364 126.863886 
L 298.804313 125.434436 
L 303.294093 125.019956 
L 307.639041 124.782635 
L 312.128821 126.067315 
L 316.618601 126.295364 
L 320.96355 129.157281 
L 325.45333 130.230944 
L 329.798278 130.028741 
L 334.288058 129.975799 
L 338.777838 128.040128 
L 342.833123 127.155315 
L 347.322903 127.515817 
L 351.667852 126.97367 
L 356.157632 126.469233 
L 360.50258 126.804946 
L 364.99236 124.268834 
L 369.48214 123.402723 
L 373.827089 120.012652 
L 378.316869 117.730227 
L 382.661817 119.353391 
L 387.151597 118.62856 
L 391.641377 120.625895 
L 395.841494 125.095267 
L 400.331274 122.591382 
L 404.676222 120.390759 
L 409.166002 118.902316 
L 413.510951 116.762427 
L 418.000731 115.912489 
L 422.490511 117.029077 
L 426.835459 118.450357 
L 431.325239 120.429871 
L 435.670188 115.926299 
L 440.159968 116.243659 
L 444.649748 116.422441 
L 448.705033 113.885105 
L 453.194813 116.60251 
L 457.539761 118.528261 
L 462.029542 121.307022 
L 466.37449 122.580333 
L 470.86427 123.452102 
L 475.35405 124.154681 
L 479.698998 122.161052 
L 484.188778 120.606872 
" clip-path="url(#p033aa2fab2)" style="fill: none; stroke: #808080; stroke-opacity: 0.5; stroke-linecap: square"/>
   </g>
   <g id="line2d_42">
    <path d="M 78.370597 110.805812 
L 82.860377 112.44883 
L 87.205325 103.756518 
L 91.695105 98.500938 
L 96.040053 101.499279 
L 100.529833 100.513821 
L 105.019614 106.602433 
L 109.364562 108.85755 
L 113.854342 109.160806 
L 118.19929 142.140078 
L 122.68907 142.17588 
L 127.17885 145.221511 
L 131.234136 148.838673 
L 135.723916 148.221085 
L 140.068864 150.633325 
L 144.558644 151.966862 
L 148.903593 151.614768 
L 153.393373 152.975078 
L 157.883153 150.55284 
L 162.228101 147.503569 
L 166.717881 148.93818 
L 171.062829 138.789919 
L 175.552609 140.245316 
L 180.042389 139.141199 
L 184.242506 135.29788 
L 188.732286 136.440364 
L 193.077235 138.736398 
L 197.567015 136.122071 
L 201.911963 134.798736 
L 206.401743 132.592786 
L 210.891523 132.873253 
L 215.236472 133.999548 
L 219.726252 143.596523 
L 224.0712 159.569102 
L 228.56098 157.310817 
L 233.05076 154.571292 
L 237.106045 160.176733 
L 241.595825 157.782251 
L 245.940774 155.533399 
L 250.430554 155.073103 
L 254.775502 157.900424 
L 259.265282 161.431252 
L 263.755062 172.832542 
L 268.100011 173.38093 
L 272.589791 156.117582 
L 276.934739 132.924371 
L 281.424519 135.390242 
L 285.914299 149.832209 
L 289.969584 153.663463 
L 294.459364 144.845013 
" clip-path="url(#p033aa2fab2)" style="fill: none; stroke: #808080; stroke-opacity: 0.5; stroke-linecap: square"/>
   </g>
   <g id="line2d_43">
    <path d="M 78.370597 118.356362 
L 82.860377 123.199136 
L 87.205325 95.359174 
L 91.695105 82.348184 
L 96.040053 87.255764 
L 100.529833 87.007425 
L 105.019614 102.937578 
L 109.364562 101.373818 
L 113.854342 101.5888 
L 118.19929 104.062091 
L 122.68907 96.821088 
L 127.17885 106.04539 
L 131.234136 120.585378 
L 135.723916 115.89842 
L 140.068864 136.864049 
L 144.558644 140.210279 
L 148.903593 131.894159 
L 153.393373 140.269162 
L 157.883153 139.478854 
L 162.228101 137.641043 
L 166.717881 136.195739 
L 171.062829 121.951388 
L 175.552609 134.421426 
L 180.042389 124.365674 
L 184.242506 106.293117 
L 188.732286 107.757531 
L 193.077235 104.709625 
L 197.567015 93.752385 
L 201.911963 86.252828 
L 206.401743 68.959349 
L 210.891523 56.813368 
L 215.236472 65.915091 
L 219.726252 70.617724 
L 224.0712 79.884185 
L 228.56098 68.461596 
L 233.05076 68.428381 
L 237.106045 67.381985 
L 241.595825 69.793185 
L 245.940774 66.003835 
L 250.430554 63.126136 
L 254.775502 72.961989 
L 259.265282 77.097213 
L 263.755062 82.342217 
L 268.100011 79.543906 
L 272.589791 74.246173 
L 276.934739 74.970616 
L 281.424519 74.393576 
L 285.914299 78.551633 
L 289.969584 82.231643 
L 294.459364 81.425167 
L 298.804313 83.220108 
L 303.294093 86.427387 
L 307.639041 86.52487 
L 312.128821 85.427813 
L 316.618601 87.397503 
L 320.96355 99.765262 
L 325.45333 104.084632 
L 329.798278 100.784797 
L 334.288058 103.607674 
L 338.777838 102.498253 
L 342.833123 106.666535 
L 347.322903 108.833103 
L 351.667852 108.085134 
L 356.157632 113.879499 
L 360.50258 115.551041 
L 364.99236 114.172603 
L 369.48214 110.823793 
L 373.827089 98.906549 
L 378.316869 90.216138 
L 382.661817 89.900936 
L 387.151597 86.706753 
L 391.641377 90.573783 
L 395.841494 99.318754 
L 400.331274 89.359794 
L 404.676222 85.54841 
L 409.166002 80.873041 
L 413.510951 76.131843 
L 418.000731 79.72052 
L 422.490511 85.790691 
L 426.835459 89.460416 
L 431.325239 91.503772 
L 435.670188 94.536298 
L 440.159968 98.279154 
L 444.649748 100.707672 
L 448.705033 96.164574 
L 453.194813 110.602997 
L 457.539761 116.563916 
L 462.029542 126.096064 
L 466.37449 129.158059 
L 470.86427 130.761104 
L 475.35405 130.587788 
L 479.698998 121.83095 
L 484.188778 124.388893 
" clip-path="url(#p033aa2fab2)" style="fill: none; stroke: #808080; stroke-opacity: 0.5; stroke-linecap: square"/>
   </g>
   <g id="line2d_44">
    <path d="M 78.370597 106.347757 
L 82.860377 110.539779 
L 87.205325 100.28148 
L 91.695105 90.769302 
L 96.040053 90.2815 
L 100.529833 87.747623 
L 105.019614 92.93217 
L 109.364562 90.931265 
L 113.854342 86.527939 
L 118.19929 81.184963 
L 122.68907 78.263282 
L 127.17885 81.287118 
L 131.234136 83.650929 
L 135.723916 82.365022 
L 140.068864 85.081494 
L 144.558644 88.695279 
L 148.903593 88.013251 
L 153.393373 90.936544 
L 157.883153 91.733577 
L 162.228101 90.333359 
L 166.717881 92.428243 
L 171.062829 93.567803 
L 175.552609 95.927412 
L 180.042389 92.961124 
L 184.242506 89.382075 
L 188.732286 89.803428 
L 193.077235 90.043663 
L 197.567015 88.380448 
L 201.911963 86.593492 
L 206.401743 83.644205 
L 210.891523 80.556197 
L 215.236472 83.659156 
L 219.726252 86.784119 
L 224.0712 81.444176 
L 228.56098 80.065355 
L 233.05076 78.583586 
L 237.106045 79.75379 
L 241.595825 80.427578 
L 245.940774 80.49307 
L 250.430554 78.086241 
L 254.775502 79.7725 
L 259.265282 79.677956 
L 263.755062 79.097817 
L 268.100011 78.722106 
L 272.589791 76.388388 
L 276.934739 76.882356 
L 281.424519 77.225313 
L 285.914299 82.933659 
L 289.969584 84.11289 
L 294.459364 81.998208 
L 298.804313 81.871876 
L 303.294093 82.724355 
L 307.639041 86.705397 
L 312.128821 90.03707 
L 316.618601 92.536681 
L 320.96355 99.396866 
L 325.45333 103.863737 
L 329.798278 103.561133 
L 334.288058 105.159086 
L 338.777838 104.325554 
L 342.833123 105.288702 
L 347.322903 107.495468 
L 351.667852 109.68823 
L 356.157632 109.880732 
L 360.50258 109.389257 
L 364.99236 109.096176 
L 369.48214 110.535972 
L 373.827089 106.617225 
L 378.316869 104.619588 
L 382.661817 103.901401 
L 387.151597 103.428206 
L 391.641377 105.178267 
L 395.841494 109.031018 
L 400.331274 106.454359 
L 404.676222 103.793761 
L 409.166002 101.794571 
L 413.510951 101.728443 
L 418.000731 99.660793 
L 422.490511 99.06568 
L 426.835459 101.224971 
L 431.325239 99.374112 
L 435.670188 99.991704 
L 440.159968 98.838311 
L 444.649748 99.076809 
L 448.705033 97.121831 
L 453.194813 99.390879 
L 457.539761 100.031588 
L 462.029542 102.108656 
L 466.37449 102.497514 
L 470.86427 102.178394 
L 475.35405 102.310331 
L 479.698998 98.05297 
L 484.188778 98.118943 
" clip-path="url(#p033aa2fab2)" style="fill: none; stroke: #808080; stroke-opacity: 0.5; stroke-linecap: square"/>
   </g>
   <g id="line2d_45">
    <path d="M 78.370597 43.32291 
L 82.860377 45.8356 
L 87.205325 30.692656 
L 91.695105 17.472909 
L 96.040053 15.543122 
L 100.529833 22.499624 
L 105.019614 29.936244 
L 109.364562 23.731949 
L 113.854342 22.535094 
L 118.19929 23.818656 
L 122.68907 23.955262 
L 127.17885 31.04376 
L 131.234136 36.719201 
L 135.723916 35.255799 
L 140.068864 45.260304 
L 144.558644 49.312859 
L 148.903593 49.53266 
L 153.393373 54.697435 
L 157.883153 55.920213 
L 162.228101 57.206801 
L 166.717881 60.81201 
L 171.062829 64.399865 
L 175.552609 68.990152 
L 180.042389 68.822787 
L 184.242506 66.279595 
L 188.732286 70.083902 
L 193.077235 72.310659 
L 197.567015 72.511409 
L 201.911963 73.725137 
L 206.401743 75.374816 
L 210.891523 74.222355 
L 215.236472 80.503719 
L 219.726252 85.33632 
L 224.0712 87.273603 
L 228.56098 85.864366 
L 233.05076 88.337507 
L 237.106045 86.267951 
L 241.595825 87.887282 
L 245.940774 85.966809 
L 250.430554 84.359722 
L 254.775502 86.422112 
L 259.265282 85.105783 
L 263.755062 84.252691 
L 268.100011 81.567774 
L 272.589791 78.766939 
L 276.934739 81.780847 
L 281.424519 81.534825 
L 285.914299 83.942821 
L 289.969584 85.413573 
L 294.459364 84.899284 
L 298.804313 87.054977 
L 303.294093 88.010956 
L 307.639041 87.736281 
L 312.128821 87.242346 
L 316.618601 89.740816 
L 320.96355 94.654448 
L 325.45333 95.369979 
L 329.798278 93.18744 
L 334.288058 95.042646 
L 338.777838 91.316135 
L 342.833123 94.608717 
L 347.322903 95.047336 
L 351.667852 96.757952 
L 356.157632 99.036081 
L 360.50258 101.684701 
L 364.99236 102.780126 
L 369.48214 104.201143 
L 373.827089 101.528056 
L 378.316869 102.472461 
L 382.661817 101.801787 
L 387.151597 100.030055 
L 391.641377 105.501306 
L 395.841494 108.624263 
L 400.331274 106.928471 
L 404.676222 106.283601 
L 409.166002 102.917827 
L 413.510951 97.420034 
L 418.000731 96.115797 
L 422.490511 93.792625 
L 426.835459 90.814952 
L 431.325239 84.938165 
L 435.670188 79.450982 
L 440.159968 79.39183 
L 444.649748 74.566791 
L 448.705033 64.580747 
L 453.194813 65.790039 
L 457.539761 67.487118 
L 462.029542 70.817408 
L 466.37449 73.954111 
L 470.86427 74.50476 
L 475.35405 75.645041 
L 479.698998 77.308909 
L 484.188778 82.07257 
" clip-path="url(#p033aa2fab2)" style="fill: none; stroke: #808080; stroke-opacity: 0.5; stroke-linecap: square"/>
   </g>
   <g id="line2d_46">
    <path d="M 78.370597 122.110267 
L 82.860377 130.881702 
L 87.205325 119.58182 
L 91.695105 110.396239 
L 96.040053 109.451941 
L 100.529833 113.625745 
L 105.019614 118.416283 
L 109.364562 117.880965 
L 113.854342 118.750745 
L 118.19929 121.776957 
L 122.68907 119.699968 
L 127.17885 123.69989 
L 131.234136 126.75346 
L 135.723916 125.850568 
L 140.068864 127.360641 
L 144.558644 132.960767 
L 148.903593 136.006762 
L 153.393373 135.97062 
L 157.883153 135.277786 
L 162.228101 135.151195 
L 166.717881 136.277156 
L 171.062829 156.452502 
L 175.552609 159.252752 
L 180.042389 158.128975 
L 184.242506 157.025418 
L 188.732286 159.008488 
L 193.077235 160.557031 
L 197.567015 157.17873 
L 201.911963 156.780957 
L 206.401743 154.815582 
L 210.891523 153.635426 
L 215.236472 157.239456 
L 219.726252 162.421727 
L 224.0712 168.509809 
L 228.56098 169.362103 
L 233.05076 167.72494 
L 237.106045 166.251518 
L 241.595825 167.858957 
L 245.940774 166.557588 
L 250.430554 167.83856 
L 254.775502 168.802005 
L 259.265282 170.37224 
L 263.755062 170.616109 
L 268.100011 170.549007 
L 272.589791 166.913292 
L 276.934739 165.385995 
L 281.424519 164.503513 
L 285.914299 164.35125 
L 289.969584 165.285208 
L 294.459364 162.742159 
L 298.804313 161.803539 
L 303.294093 158.697212 
L 307.639041 158.860435 
L 312.128821 173.58205 
L 316.618601 171.486237 
L 320.96355 169.923353 
L 325.45333 171.0636 
L 329.798278 160.784065 
L 334.288058 159.973772 
L 338.777838 159.661316 
L 342.833123 159.074362 
L 347.322903 159.926261 
L 351.667852 159.555762 
L 356.157632 159.739075 
L 360.50258 158.598922 
L 364.99236 144.231182 
L 369.48214 142.172737 
L 373.827089 142.499806 
L 378.316869 136.571343 
L 382.661817 151.246319 
L 387.151597 149.447945 
L 391.641377 150.006197 
L 395.841494 150.506491 
L 400.331274 147.252147 
L 404.676222 146.223935 
L 409.166002 144.92181 
L 413.510951 144.75907 
L 418.000731 141.568372 
L 422.490511 144.751079 
L 426.835459 148.096351 
L 431.325239 173.898933 
L 435.670188 154.580687 
L 440.159968 155.579011 
L 444.649748 156.904569 
L 448.705033 158.305261 
L 453.194813 162.76258 
L 457.539761 164.708242 
L 462.029542 168.254562 
L 466.37449 168.91041 
L 470.86427 171.69879 
L 475.35405 173.656728 
L 479.698998 170.351203 
L 484.188778 149.30926 
" clip-path="url(#p033aa2fab2)" style="fill: none; stroke: #808080; stroke-opacity: 0.5; stroke-linecap: square"/>
   </g>
   <g id="line2d_47">
    <path d="M 78.370597 147.614644 
L 82.860377 149.66266 
L 87.205325 143.971014 
L 91.695105 138.357144 
L 96.040053 138.220352 
L 100.529833 137.459923 
L 105.019614 138.867732 
L 109.364562 136.488542 
L 113.854342 132.44305 
L 118.19929 130.86115 
L 122.68907 125.924616 
L 127.17885 126.937075 
L 131.234136 128.534417 
L 135.723916 126.20128 
L 140.068864 127.118955 
L 144.558644 128.306766 
L 148.903593 125.561785 
L 153.393373 125.288093 
L 157.883153 125.522528 
L 162.228101 121.870015 
L 166.717881 122.309 
L 171.062829 123.118832 
L 175.552609 126.431047 
L 180.042389 124.289194 
L 184.242506 119.409243 
L 188.732286 118.746919 
L 193.077235 119.156956 
L 197.567015 117.559398 
L 201.911963 115.815088 
L 206.401743 113.267067 
L 210.891523 111.372347 
L 215.236472 114.847964 
L 219.726252 117.220005 
L 224.0712 116.718322 
L 228.56098 113.672958 
L 233.05076 112.498573 
L 237.106045 111.88817 
L 241.595825 110.875694 
L 245.940774 119.763745 
L 250.430554 117.981953 
L 254.775502 119.625246 
L 259.265282 119.111523 
L 263.755062 117.477285 
L 268.100011 118.909671 
L 272.589791 116.088687 
L 276.934739 109.726859 
L 281.424519 108.75835 
L 285.914299 110.871508 
L 289.969584 112.61523 
L 294.459364 111.447654 
L 298.804313 102.416365 
L 303.294093 103.329659 
L 307.639041 103.107841 
L 312.128821 102.970735 
L 316.618601 103.375134 
L 320.96355 105.356193 
L 325.45333 106.378763 
L 329.798278 111.691482 
L 334.288058 111.281215 
L 338.777838 108.653338 
L 342.833123 107.663475 
L 347.322903 107.723157 
L 351.667852 107.027702 
L 356.157632 105.913879 
L 360.50258 106.47875 
L 364.99236 106.153033 
L 369.48214 107.131122 
L 373.827089 102.504842 
L 378.316869 101.772665 
L 382.661817 100.008611 
L 387.151597 100.912914 
L 391.641377 104.86586 
L 395.841494 113.581053 
L 400.331274 110.814565 
L 404.676222 106.728522 
L 409.166002 104.612909 
L 413.510951 101.817905 
L 418.000731 100.898442 
L 422.490511 100.455909 
L 426.835459 101.576631 
L 431.325239 98.779618 
L 435.670188 97.115576 
L 440.159968 97.126944 
L 444.649748 96.058432 
L 448.705033 90.88247 
L 453.194813 92.877628 
L 457.539761 95.868212 
L 462.029542 100.170579 
L 466.37449 101.906647 
L 470.86427 102.796852 
L 475.35405 104.403999 
L 479.698998 101.821248 
L 484.188778 104.328835 
" clip-path="url(#p033aa2fab2)" style="fill: none; stroke: #808080; stroke-opacity: 0.5; stroke-linecap: square"/>
   </g>
   <g id="line2d_48">
    <path d="M 78.370597 206.330965 
L 82.860377 210.553804 
L 87.205325 193.215767 
L 91.695105 175.890903 
L 96.040053 165.777102 
L 100.529833 153.914767 
L 105.019614 157.620724 
L 109.364562 150.686209 
L 113.854342 143.812703 
L 118.19929 139.335748 
L 122.68907 127.354389 
L 127.17885 123.161548 
L 131.234136 122.930758 
L 135.723916 112.644129 
L 140.068864 112.223514 
L 144.558644 115.950728 
L 148.903593 109.45925 
L 153.393373 114.95704 
L 157.883153 113.00414 
L 162.228101 109.29164 
L 166.717881 114.296446 
L 171.062829 118.078699 
L 175.552609 121.704023 
L 180.042389 122.320343 
L 184.242506 118.842483 
L 188.732286 121.914156 
L 193.077235 128.82747 
L 197.567015 125.323041 
L 201.911963 127.213497 
L 206.401743 124.293755 
L 210.891523 123.445105 
L 215.236472 132.622621 
L 219.726252 137.095924 
L 224.0712 134.492019 
L 228.56098 134.801311 
L 233.05076 135.966802 
L 237.106045 138.820399 
L 241.595825 140.997933 
L 245.940774 137.551214 
L 250.430554 140.857531 
L 254.775502 148.392905 
L 259.265282 149.689623 
L 263.755062 149.82752 
L 268.100011 151.658323 
L 272.589791 151.365399 
L 276.934739 153.671847 
L 281.424519 158.710906 
L 285.914299 165.029837 
L 289.969584 167.84208 
L 294.459364 167.986123 
L 298.804313 173.160967 
L 303.294093 171.959327 
L 307.639041 171.79626 
L 312.128821 173.556987 
L 316.618601 176.288579 
L 320.96355 189.923666 
L 325.45333 198.039121 
L 329.798278 199.515081 
L 334.288058 201.65565 
L 338.777838 198.240635 
L 342.833123 194.814197 
L 347.322903 193.718735 
L 351.667852 193.256076 
L 356.157632 192.021256 
L 360.50258 190.965742 
L 364.99236 185.777158 
L 369.48214 178.40152 
L 373.827089 159.76448 
L 378.316869 150.235879 
L 382.661817 151.853871 
L 387.151597 139.958043 
L 391.641377 145.441638 
L 395.841494 154.617861 
L 400.331274 143.708856 
L 404.676222 132.339371 
L 409.166002 122.261163 
L 413.510951 115.396181 
L 418.000731 107.672666 
L 422.490511 110.812857 
L 426.835459 111.230736 
L 431.325239 98.082648 
L 435.670188 77.226677 
L 440.159968 72.972471 
L 444.649748 65.820039 
L 448.705033 58.134574 
L 453.194813 63.139555 
L 457.539761 63.347918 
L 462.029542 69.665909 
L 466.37449 69.366708 
L 470.86427 70.991936 
L 475.35405 71.227529 
L 479.698998 65.01354 
L 484.188778 68.781319 
" clip-path="url(#p033aa2fab2)" style="fill: none; stroke: #808080; stroke-opacity: 0.5; stroke-linecap: square"/>
   </g>
   <g id="LineCollection_1">
    <path d="M 78.370597 174.03 
L 484.188778 174.03 
" clip-path="url(#p033aa2fab2)" style="fill: none; stroke: #000000; stroke-width: 1.5"/>
   </g>
   <g id="patch_3">
    <path d="M 58.079688 228.39 
L 58.079688 10.95 
" style="fill: none; stroke: #000000; stroke-width: 0.8; stroke-linejoin: miter; stroke-linecap: square"/>
   </g>
   <g id="patch_4">
    <path d="M 58.079688 228.39 
L 504.479688 228.39 
" style="fill: none; stroke: #000000; stroke-width: 0.8; stroke-linejoin: miter; stroke-linecap: square"/>
   </g>
   <g id="line2d_49">
    <path d="M 78.370597 86.811243 
L 82.860377 88.415125 
L 87.205325 78.561197 
L 91.695105 70.422679 
L 96.040053 69.682549 
L 100.529833 66.31247 
L 105.019614 73.048679 
L 109.364562 72.541435 
L 113.854342 72.785237 
L 118.19929 73.7969 
L 122.68907 69.743077 
L 127.17885 72.798553 
L 131.234136 75.758018 
L 135.723916 75.037642 
L 140.068864 77.349364 
L 144.558644 77.948924 
L 148.903593 75.094237 
L 153.393373 74.666111 
L 157.883153 72.890478 
L 162.228101 67.06811 
L 166.717881 68.037436 
L 171.062829 73.503237 
L 175.552609 78.209908 
L 180.042389 79.443029 
L 184.242506 77.156674 
L 188.732286 77.66446 
L 193.077235 78.904934 
L 197.567015 80.953213 
L 201.911963 83.268865 
L 206.401743 79.38605 
L 210.891523 77.39192 
L 215.236472 89.921047 
L 219.726252 95.008681 
L 224.0712 92.221795 
L 228.56098 88.310267 
L 233.05076 85.090252 
L 237.106045 83.904019 
L 241.595825 83.995348 
L 245.940774 85.872522 
L 250.430554 85.620485 
L 254.775502 88.099423 
L 259.265282 94.344892 
L 263.755062 93.628316 
L 268.100011 89.314883 
L 272.589791 85.669289 
L 276.934739 83.602875 
L 281.424519 82.92121 
L 285.914299 86.5548 
L 289.969584 87.016882 
L 294.459364 84.723875 
L 298.804313 83.0321 
L 303.294093 81.494032 
L 307.639041 79.982014 
L 312.128821 76.752127 
L 316.618601 77.688259 
L 320.96355 85.694736 
L 325.45333 87.321345 
L 329.798278 89.755797 
L 334.288058 87.311723 
L 338.777838 81.887643 
L 342.833123 79.534526 
L 347.322903 79.88267 
L 351.667852 77.462697 
L 356.157632 75.291364 
L 360.50258 74.458597 
L 364.99236 71.891097 
L 369.48214 67.919309 
L 373.827089 54.09233 
L 378.316869 49.849394 
L 382.661817 50.454106 
L 387.151597 50.492633 
L 391.641377 55.221776 
L 395.841494 69.426147 
L 400.331274 67.244544 
L 404.676222 62.3159 
L 409.166002 62.70036 
L 413.510951 59.127856 
L 418.000731 57.667237 
L 422.490511 62.801156 
L 426.835459 69.651275 
L 431.325239 66.6489 
L 435.670188 65.071478 
L 440.159968 68.257888 
L 444.649748 71.528674 
L 448.705033 67.336136 
L 453.194813 72.30217 
L 457.539761 79.057329 
L 462.029542 83.759397 
L 466.37449 88.147257 
L 470.86427 93.16883 
L 475.35405 96.54419 
L 479.698998 98.036993 
L 484.188778 103.291354 
" clip-path="url(#p033aa2fab2)" style="fill: none; stroke: #2b5aa5; stroke-width: 1.5; stroke-linecap: square"/>
   </g>
  </g>
 </g>
 <defs>
  <clipPath id="p033aa2fab2">
   <rect x="58.079688" y="10.95" width="446.4" height="217.44"/>
  </clipPath>
 </defs>
</svg>
