<?xml version="1.0" encoding="utf-8" standalone="no"?>
<!DOCTYPE svg PUBLIC "-//W3C//DTD SVG 1.1//EN"
  "http://www.w3.org/Graphics/SVG/1.1/DTD/svg11.dtd">
<svg xmlns:xlink="http://www.w3.org/1999/xlink" width="508.920313pt" height="248.37125pt" viewBox="0 0 508.920313 248.37125" xmlns="http://www.w3.org/2000/svg" version="1.1">
 <metadata>
  <rdf:RDF xmlns:dc="http://purl.org/dc/elements/1.1/" xmlns:cc="http://creativecommons.org/ns#" xmlns:rdf="http://www.w3.org/1999/02/22-rdf-syntax-ns#">
   <cc:Work>
    <dc:type rdf:resource="http://purl.org/dc/dcmitype/StillImage"/>
    <dc:date>2022-01-12T11:59:05.672294</dc:date>
    <dc:format>image/svg+xml</dc:format>
    <dc:creator>
     <cc:Agent>
      <dc:title>Matplotlib v3.5.1, https://matplotlib.org/</dc:title>
     </cc:Agent>
    </dc:creator>
   </cc:Work>
  </rdf:RDF>
 </metadata>
 <defs>
  <style type="text/css">*{stroke-linejoin: round; stroke-linecap: butt}</style>
 </defs>
 <g id="figure_1">
  <g id="patch_1">
   <path d="M 0 248.37125 
L 508.920313 248.37125 
L 508.920313 0 
L 0 0 
z
" style="fill: #ffffff"/>
  </g>
  <g id="axes_1">
   <g id="patch_2">
    <path d="M 55.320313 224.64 
L 501.720312 224.64 
L 501.720312 7.2 
L 55.320313 7.2 
z
" style="fill: #ffffff"/>
   </g>
   <g id="matplotlib.axis_1">
    <g id="xtick_1">
     <g id="line2d_1">
      <path d="M 77.340481 224.64 
L 77.340481 7.2 
" clip-path="url(#p8fe7949b2e)" style="fill: none; stroke-dasharray: 2.96,1.28; stroke-dashoffset: 0; stroke: #dddddd; stroke-width: 0.8"/>
     </g>
     <g id="line2d_2">
      <defs>
       <path id="m2c84e214eb" d="M 0 0 
L 0 3.5 
" style="stroke: #000000; stroke-width: 0.8"/>
      </defs>
      <g>
       <use xlink:href="#m2c84e214eb" x="77.340481" y="224.64" style="stroke: #000000; stroke-width: 0.8"/>
      </g>
     </g>
     <g id="text_1">
      <!-- 2002 -->
      <g transform="translate(66.109231 239.14)scale(0.1 -0.1)">
       <defs>
        <path id="Roboto-Regular-32" d="M 3359 0 
L 378 0 
L 378 416 
L 1953 2166 
Q 2303 2563 2436 2811 
Q 2569 3059 2569 3325 
Q 2569 3681 2353 3909 
Q 2138 4138 1778 4138 
Q 1347 4138 1108 3892 
Q 869 3647 869 3209 
L 291 3209 
Q 291 3838 695 4225 
Q 1100 4613 1778 4613 
Q 2413 4613 2781 4280 
Q 3150 3947 3150 3394 
Q 3150 2722 2294 1794 
L 1075 472 
L 3359 472 
L 3359 0 
z
" transform="scale(0.015625)"/>
        <path id="Roboto-Regular-30" d="M 3231 1941 
Q 3231 925 2884 431 
Q 2538 -63 1800 -63 
Q 1072 -63 722 420 
Q 372 903 359 1863 
L 359 2634 
Q 359 3638 706 4125 
Q 1053 4613 1794 4613 
Q 2528 4613 2875 4142 
Q 3222 3672 3231 2691 
L 3231 1941 
z
M 2653 2731 
Q 2653 3466 2447 3802 
Q 2241 4138 1794 4138 
Q 1350 4138 1147 3803 
Q 944 3469 938 2775 
L 938 1850 
Q 938 1113 1152 761 
Q 1366 409 1800 409 
Q 2228 409 2436 740 
Q 2644 1072 2653 1784 
L 2653 2731 
z
" transform="scale(0.015625)"/>
       </defs>
       <use xlink:href="#Roboto-Regular-32"/>
       <use xlink:href="#Roboto-Regular-30" x="56.152344"/>
       <use xlink:href="#Roboto-Regular-30" x="112.304688"/>
       <use xlink:href="#Roboto-Regular-32" x="168.457031"/>
      </g>
     </g>
    </g>
    <g id="xtick_2">
     <g id="line2d_3">
      <path d="M 118.061756 224.64 
L 118.061756 7.2 
" clip-path="url(#p8fe7949b2e)" style="fill: none; stroke-dasharray: 2.96,1.28; stroke-dashoffset: 0; stroke: #dddddd; stroke-width: 0.8"/>
     </g>
     <g id="line2d_4">
      <g>
       <use xlink:href="#m2c84e214eb" x="118.061756" y="224.64" style="stroke: #000000; stroke-width: 0.8"/>
      </g>
     </g>
     <g id="text_2">
      <!-- 2004 -->
      <g transform="translate(106.830506 239.14)scale(0.1 -0.1)">
       <defs>
        <path id="Roboto-Regular-34" d="M 2819 1528 
L 3450 1528 
L 3450 1056 
L 2819 1056 
L 2819 0 
L 2238 0 
L 2238 1056 
L 166 1056 
L 166 1397 
L 2203 4550 
L 2819 4550 
L 2819 1528 
z
M 822 1528 
L 2238 1528 
L 2238 3759 
L 2169 3634 
L 822 1528 
z
" transform="scale(0.015625)"/>
       </defs>
       <use xlink:href="#Roboto-Regular-32"/>
       <use xlink:href="#Roboto-Regular-30" x="56.152344"/>
       <use xlink:href="#Roboto-Regular-30" x="112.304688"/>
       <use xlink:href="#Roboto-Regular-34" x="168.457031"/>
      </g>
     </g>
    </g>
    <g id="xtick_3">
     <g id="line2d_5">
      <path d="M 158.838813 224.64 
L 158.838813 7.2 
" clip-path="url(#p8fe7949b2e)" style="fill: none; stroke-dasharray: 2.96,1.28; stroke-dashoffset: 0; stroke: #dddddd; stroke-width: 0.8"/>
     </g>
     <g id="line2d_6">
      <g>
       <use xlink:href="#m2c84e214eb" x="158.838813" y="224.64" style="stroke: #000000; stroke-width: 0.8"/>
      </g>
     </g>
     <g id="text_3">
      <!-- 2006 -->
      <g transform="translate(147.607563 239.14)scale(0.1 -0.1)">
       <defs>
        <path id="Roboto-Regular-36" d="M 2647 4553 
L 2647 4063 
L 2541 4063 
Q 1866 4050 1466 3662 
Q 1066 3275 1003 2572 
Q 1363 2984 1984 2984 
Q 2578 2984 2933 2565 
Q 3288 2147 3288 1484 
Q 3288 781 2905 359 
Q 2522 -63 1878 -63 
Q 1225 -63 819 439 
Q 413 941 413 1731 
L 413 1953 
Q 413 3209 948 3873 
Q 1484 4538 2544 4553 
L 2647 4553 
z
M 1888 2503 
Q 1591 2503 1341 2325 
Q 1091 2147 994 1878 
L 994 1666 
Q 994 1103 1247 759 
Q 1500 416 1878 416 
Q 2269 416 2492 703 
Q 2716 991 2716 1456 
Q 2716 1925 2489 2214 
Q 2263 2503 1888 2503 
z
" transform="scale(0.015625)"/>
       </defs>
       <use xlink:href="#Roboto-Regular-32"/>
       <use xlink:href="#Roboto-Regular-30" x="56.152344"/>
       <use xlink:href="#Roboto-Regular-30" x="112.304688"/>
       <use xlink:href="#Roboto-Regular-36" x="168.457031"/>
      </g>
     </g>
    </g>
    <g id="xtick_4">
     <g id="line2d_7">
      <path d="M 199.560088 224.64 
L 199.560088 7.2 
" clip-path="url(#p8fe7949b2e)" style="fill: none; stroke-dasharray: 2.96,1.28; stroke-dashoffset: 0; stroke: #dddddd; stroke-width: 0.8"/>
     </g>
     <g id="line2d_8">
      <g>
       <use xlink:href="#m2c84e214eb" x="199.560088" y="224.64" style="stroke: #000000; stroke-width: 0.8"/>
      </g>
     </g>
     <g id="text_4">
      <!-- 2008 -->
      <g transform="translate(188.328838 239.14)scale(0.1 -0.1)">
       <defs>
        <path id="Roboto-Regular-38" d="M 3138 3363 
Q 3138 3022 2958 2756 
Q 2778 2491 2472 2341 
Q 2828 2188 3036 1894 
Q 3244 1600 3244 1228 
Q 3244 638 2845 287 
Q 2447 -63 1797 -63 
Q 1141 -63 745 289 
Q 350 641 350 1228 
Q 350 1597 551 1894 
Q 753 2191 1109 2344 
Q 806 2494 631 2759 
Q 456 3025 456 3363 
Q 456 3938 825 4275 
Q 1194 4613 1797 4613 
Q 2397 4613 2767 4275 
Q 3138 3938 3138 3363 
z
M 2666 1241 
Q 2666 1622 2423 1862 
Q 2181 2103 1790 2103 
Q 1400 2103 1164 1865 
Q 928 1628 928 1240 
Q 928 853 1158 631 
Q 1388 409 1797 409 
Q 2203 409 2434 632 
Q 2666 856 2666 1241 
z
M 1797 4138 
Q 1456 4138 1245 3927 
Q 1034 3716 1034 3353 
Q 1034 3006 1242 2792 
Q 1450 2578 1797 2578 
Q 2144 2578 2351 2792 
Q 2559 3006 2559 3353 
Q 2559 3700 2343 3919 
Q 2128 4138 1797 4138 
z
" transform="scale(0.015625)"/>
       </defs>
       <use xlink:href="#Roboto-Regular-32"/>
       <use xlink:href="#Roboto-Regular-30" x="56.152344"/>
       <use xlink:href="#Roboto-Regular-30" x="112.304688"/>
       <use xlink:href="#Roboto-Regular-38" x="168.457031"/>
      </g>
     </g>
    </g>
    <g id="xtick_5">
     <g id="line2d_9">
      <path d="M 240.337145 224.64 
L 240.337145 7.2 
" clip-path="url(#p8fe7949b2e)" style="fill: none; stroke-dasharray: 2.96,1.28; stroke-dashoffset: 0; stroke: #dddddd; stroke-width: 0.8"/>
     </g>
     <g id="line2d_10">
      <g>
       <use xlink:href="#m2c84e214eb" x="240.337145" y="224.64" style="stroke: #000000; stroke-width: 0.8"/>
      </g>
     </g>
     <g id="text_5">
      <!-- 2010 -->
      <g transform="translate(229.105895 239.14)scale(0.1 -0.1)">
       <defs>
        <path id="Roboto-Regular-31" d="M 2278 0 
L 1697 0 
L 1697 3853 
L 531 3425 
L 531 3950 
L 2188 4572 
L 2278 4572 
L 2278 0 
z
" transform="scale(0.015625)"/>
       </defs>
       <use xlink:href="#Roboto-Regular-32"/>
       <use xlink:href="#Roboto-Regular-30" x="56.152344"/>
       <use xlink:href="#Roboto-Regular-31" x="112.304688"/>
       <use xlink:href="#Roboto-Regular-30" x="168.457031"/>
      </g>
     </g>
    </g>
    <g id="xtick_6">
     <g id="line2d_11">
      <path d="M 281.058419 224.64 
L 281.058419 7.2 
" clip-path="url(#p8fe7949b2e)" style="fill: none; stroke-dasharray: 2.96,1.28; stroke-dashoffset: 0; stroke: #dddddd; stroke-width: 0.8"/>
     </g>
     <g id="line2d_12">
      <g>
       <use xlink:href="#m2c84e214eb" x="281.058419" y="224.64" style="stroke: #000000; stroke-width: 0.8"/>
      </g>
     </g>
     <g id="text_6">
      <!-- 2012 -->
      <g transform="translate(269.827169 239.14)scale(0.1 -0.1)">
       <use xlink:href="#Roboto-Regular-32"/>
       <use xlink:href="#Roboto-Regular-30" x="56.152344"/>
       <use xlink:href="#Roboto-Regular-31" x="112.304688"/>
       <use xlink:href="#Roboto-Regular-32" x="168.457031"/>
      </g>
     </g>
    </g>
    <g id="xtick_7">
     <g id="line2d_13">
      <path d="M 321.835477 224.64 
L 321.835477 7.2 
" clip-path="url(#p8fe7949b2e)" style="fill: none; stroke-dasharray: 2.96,1.28; stroke-dashoffset: 0; stroke: #dddddd; stroke-width: 0.8"/>
     </g>
     <g id="line2d_14">
      <g>
       <use xlink:href="#m2c84e214eb" x="321.835477" y="224.64" style="stroke: #000000; stroke-width: 0.8"/>
      </g>
     </g>
     <g id="text_7">
      <!-- 2014 -->
      <g transform="translate(310.604227 239.14)scale(0.1 -0.1)">
       <use xlink:href="#Roboto-Regular-32"/>
       <use xlink:href="#Roboto-Regular-30" x="56.152344"/>
       <use xlink:href="#Roboto-Regular-31" x="112.304688"/>
       <use xlink:href="#Roboto-Regular-34" x="168.457031"/>
      </g>
     </g>
    </g>
    <g id="xtick_8">
     <g id="line2d_15">
      <path d="M 362.556751 224.64 
L 362.556751 7.2 
" clip-path="url(#p8fe7949b2e)" style="fill: none; stroke-dasharray: 2.96,1.28; stroke-dashoffset: 0; stroke: #dddddd; stroke-width: 0.8"/>
     </g>
     <g id="line2d_16">
      <g>
       <use xlink:href="#m2c84e214eb" x="362.556751" y="224.64" style="stroke: #000000; stroke-width: 0.8"/>
      </g>
     </g>
     <g id="text_8">
      <!-- 2016 -->
      <g transform="translate(351.325501 239.14)scale(0.1 -0.1)">
       <use xlink:href="#Roboto-Regular-32"/>
       <use xlink:href="#Roboto-Regular-30" x="56.152344"/>
       <use xlink:href="#Roboto-Regular-31" x="112.304688"/>
       <use xlink:href="#Roboto-Regular-36" x="168.457031"/>
      </g>
     </g>
    </g>
    <g id="xtick_9">
     <g id="line2d_17">
      <path d="M 403.333808 224.64 
L 403.333808 7.2 
" clip-path="url(#p8fe7949b2e)" style="fill: none; stroke-dasharray: 2.96,1.28; stroke-dashoffset: 0; stroke: #dddddd; stroke-width: 0.8"/>
     </g>
     <g id="line2d_18">
      <g>
       <use xlink:href="#m2c84e214eb" x="403.333808" y="224.64" style="stroke: #000000; stroke-width: 0.8"/>
      </g>
     </g>
     <g id="text_9">
      <!-- 2018 -->
      <g transform="translate(392.102558 239.14)scale(0.1 -0.1)">
       <use xlink:href="#Roboto-Regular-32"/>
       <use xlink:href="#Roboto-Regular-30" x="56.152344"/>
       <use xlink:href="#Roboto-Regular-31" x="112.304688"/>
       <use xlink:href="#Roboto-Regular-38" x="168.457031"/>
      </g>
     </g>
    </g>
    <g id="xtick_10">
     <g id="line2d_19">
      <path d="M 444.055083 224.64 
L 444.055083 7.2 
" clip-path="url(#p8fe7949b2e)" style="fill: none; stroke-dasharray: 2.96,1.28; stroke-dashoffset: 0; stroke: #dddddd; stroke-width: 0.8"/>
     </g>
     <g id="line2d_20">
      <g>
       <use xlink:href="#m2c84e214eb" x="444.055083" y="224.64" style="stroke: #000000; stroke-width: 0.8"/>
      </g>
     </g>
     <g id="text_10">
      <!-- 2020 -->
      <g transform="translate(432.823833 239.14)scale(0.1 -0.1)">
       <use xlink:href="#Roboto-Regular-32"/>
       <use xlink:href="#Roboto-Regular-30" x="56.152344"/>
       <use xlink:href="#Roboto-Regular-32" x="112.304688"/>
       <use xlink:href="#Roboto-Regular-30" x="168.457031"/>
      </g>
     </g>
    </g>
    <g id="xtick_11">
     <g id="line2d_21">
      <path d="M 484.83214 224.64 
L 484.83214 7.2 
" clip-path="url(#p8fe7949b2e)" style="fill: none; stroke-dasharray: 2.96,1.28; stroke-dashoffset: 0; stroke: #dddddd; stroke-width: 0.8"/>
     </g>
     <g id="line2d_22">
      <g>
       <use xlink:href="#m2c84e214eb" x="484.83214" y="224.64" style="stroke: #000000; stroke-width: 0.8"/>
      </g>
     </g>
     <g id="text_11">
      <!-- 2022 -->
      <g transform="translate(473.60089 239.14)scale(0.1 -0.1)">
       <use xlink:href="#Roboto-Regular-32"/>
       <use xlink:href="#Roboto-Regular-30" x="56.152344"/>
       <use xlink:href="#Roboto-Regular-32" x="112.304688"/>
       <use xlink:href="#Roboto-Regular-32" x="168.457031"/>
      </g>
     </g>
    </g>
   </g>
   <g id="matplotlib.axis_2">
    <g id="ytick_1">
     <g id="line2d_23">
      <path d="M 55.320313 190.391833 
L 501.720312 190.391833 
" clip-path="url(#p8fe7949b2e)" style="fill: none; stroke-dasharray: 2.96,1.28; stroke-dashoffset: 0; stroke: #dddddd; stroke-width: 0.8"/>
     </g>
     <g id="line2d_24">
      <defs>
       <path id="m34ea564b1f" d="M 0 0 
L -3.5 0 
" style="stroke: #000000; stroke-width: 0.8"/>
      </defs>
      <g>
       <use xlink:href="#m34ea564b1f" x="55.320313" y="190.391833" style="stroke: #000000; stroke-width: 0.8"/>
      </g>
     </g>
     <g id="text_12">
      <!-- 0.0% -->
      <g transform="translate(27.132813 194.141833)scale(0.1 -0.1)">
       <defs>
        <path id="Roboto-Regular-2e" d="M 450 303 
Q 450 453 539 553 
Q 628 653 806 653 
Q 984 653 1076 553 
Q 1169 453 1169 303 
Q 1169 159 1076 62 
Q 984 -34 806 -34 
Q 628 -34 539 62 
Q 450 159 450 303 
z
" transform="scale(0.015625)"/>
        <path id="Roboto-Regular-25" d="M 328 3675 
Q 328 4084 589 4350 
Q 850 4616 1259 4616 
Q 1675 4616 1933 4348 
Q 2191 4081 2191 3656 
L 2191 3434 
Q 2191 3022 1930 2761 
Q 1669 2500 1266 2500 
Q 859 2500 593 2761 
Q 328 3022 328 3456 
L 328 3675 
z
M 759 3434 
Q 759 3191 896 3033 
Q 1034 2875 1266 2875 
Q 1488 2875 1623 3028 
Q 1759 3181 1759 3447 
L 1759 3675 
Q 1759 3919 1625 4078 
Q 1491 4238 1259 4238 
Q 1028 4238 893 4078 
Q 759 3919 759 3663 
L 759 3434 
z
M 2544 1116 
Q 2544 1525 2805 1789 
Q 3066 2053 3475 2053 
Q 3884 2053 4146 1790 
Q 4409 1528 4409 1094 
L 4409 872 
Q 4409 463 4148 198 
Q 3888 -66 3481 -66 
Q 3075 -66 2809 195 
Q 2544 456 2544 891 
L 2544 1116 
z
M 2975 872 
Q 2975 625 3112 467 
Q 3250 309 3481 309 
Q 3706 309 3840 464 
Q 3975 619 3975 884 
L 3975 1116 
Q 3975 1363 3839 1519 
Q 3703 1675 3475 1675 
Q 3253 1675 3114 1520 
Q 2975 1366 2975 1103 
L 2975 872 
z
M 1397 344 
L 1069 550 
L 3291 4106 
L 3619 3900 
L 1397 344 
z
" transform="scale(0.015625)"/>
       </defs>
       <use xlink:href="#Roboto-Regular-30"/>
       <use xlink:href="#Roboto-Regular-2e" x="56.152344"/>
       <use xlink:href="#Roboto-Regular-30" x="82.470703"/>
       <use xlink:href="#Roboto-Regular-25" x="138.623047"/>
      </g>
     </g>
    </g>
    <g id="ytick_2">
     <g id="line2d_25">
      <path d="M 55.320313 143.59467 
L 501.720312 143.59467 
" clip-path="url(#p8fe7949b2e)" style="fill: none; stroke-dasharray: 2.96,1.28; stroke-dashoffset: 0; stroke: #dddddd; stroke-width: 0.8"/>
     </g>
     <g id="line2d_26">
      <g>
       <use xlink:href="#m34ea564b1f" x="55.320313" y="143.59467" style="stroke: #000000; stroke-width: 0.8"/>
      </g>
     </g>
     <g id="text_13">
      <!-- 10.0% -->
      <g transform="translate(21.517188 147.34467)scale(0.1 -0.1)">
       <use xlink:href="#Roboto-Regular-31"/>
       <use xlink:href="#Roboto-Regular-30" x="56.152344"/>
       <use xlink:href="#Roboto-Regular-2e" x="112.304688"/>
       <use xlink:href="#Roboto-Regular-30" x="138.623047"/>
       <use xlink:href="#Roboto-Regular-25" x="194.775391"/>
      </g>
     </g>
    </g>
    <g id="ytick_3">
     <g id="line2d_27">
      <path d="M 55.320313 96.797507 
L 501.720312 96.797507 
" clip-path="url(#p8fe7949b2e)" style="fill: none; stroke-dasharray: 2.96,1.28; stroke-dashoffset: 0; stroke: #dddddd; stroke-width: 0.8"/>
     </g>
     <g id="line2d_28">
      <g>
       <use xlink:href="#m34ea564b1f" x="55.320313" y="96.797507" style="stroke: #000000; stroke-width: 0.8"/>
      </g>
     </g>
     <g id="text_14">
      <!-- 20.0% -->
      <g transform="translate(21.517188 100.547507)scale(0.1 -0.1)">
       <use xlink:href="#Roboto-Regular-32"/>
       <use xlink:href="#Roboto-Regular-30" x="56.152344"/>
       <use xlink:href="#Roboto-Regular-2e" x="112.304688"/>
       <use xlink:href="#Roboto-Regular-30" x="138.623047"/>
       <use xlink:href="#Roboto-Regular-25" x="194.775391"/>
      </g>
     </g>
    </g>
    <g id="ytick_4">
     <g id="line2d_29">
      <path d="M 55.320313 50.000344 
L 501.720312 50.000344 
" clip-path="url(#p8fe7949b2e)" style="fill: none; stroke-dasharray: 2.96,1.28; stroke-dashoffset: 0; stroke: #dddddd; stroke-width: 0.8"/>
     </g>
     <g id="line2d_30">
      <g>
       <use xlink:href="#m34ea564b1f" x="55.320313" y="50.000344" style="stroke: #000000; stroke-width: 0.8"/>
      </g>
     </g>
     <g id="text_15">
      <!-- 30.0% -->
      <g transform="translate(21.517188 53.750344)scale(0.1 -0.1)">
       <defs>
        <path id="Roboto-Regular-33" d="M 1219 2556 
L 1653 2556 
Q 2063 2563 2297 2772 
Q 2531 2981 2531 3338 
Q 2531 4138 1734 4138 
Q 1359 4138 1136 3923 
Q 913 3709 913 3356 
L 334 3356 
Q 334 3897 729 4255 
Q 1125 4613 1734 4613 
Q 2378 4613 2743 4272 
Q 3109 3931 3109 3325 
Q 3109 3028 2917 2750 
Q 2725 2472 2394 2334 
Q 2769 2216 2973 1941 
Q 3178 1666 3178 1269 
Q 3178 656 2778 296 
Q 2378 -63 1737 -63 
Q 1097 -63 695 284 
Q 294 631 294 1200 
L 875 1200 
Q 875 841 1109 625 
Q 1344 409 1738 409 
Q 2156 409 2378 628 
Q 2600 847 2600 1256 
Q 2600 1653 2356 1865 
Q 2113 2078 1653 2084 
L 1219 2084 
L 1219 2556 
z
" transform="scale(0.015625)"/>
       </defs>
       <use xlink:href="#Roboto-Regular-33"/>
       <use xlink:href="#Roboto-Regular-30" x="56.152344"/>
       <use xlink:href="#Roboto-Regular-2e" x="112.304688"/>
       <use xlink:href="#Roboto-Regular-30" x="138.623047"/>
       <use xlink:href="#Roboto-Regular-25" x="194.775391"/>
      </g>
     </g>
    </g>
    <g id="text_16">
     <!-- Return on Equity (LTM) -->
     <g transform="translate(15.221875 166.952031)rotate(-90)scale(0.1 -0.1)">
      <defs>
       <path id="Roboto-Regular-52" d="M 2197 1841 
L 1128 1841 
L 1128 0 
L 525 0 
L 525 4550 
L 2031 4550 
Q 2800 4550 3214 4200 
Q 3628 3850 3628 3181 
Q 3628 2756 3398 2440 
Q 3169 2125 2759 1969 
L 3828 38 
L 3828 0 
L 3184 0 
L 2197 1841 
z
M 1128 2331 
L 2050 2331 
Q 2497 2331 2761 2562 
Q 3025 2794 3025 3181 
Q 3025 3603 2773 3828 
Q 2522 4053 2047 4056 
L 1128 4056 
L 1128 2331 
z
" transform="scale(0.015625)"/>
       <path id="Roboto-Regular-65" d="M 1841 -63 
Q 1153 -63 722 389 
Q 291 841 291 1597 
L 291 1703 
Q 291 2206 483 2601 
Q 675 2997 1020 3220 
Q 1366 3444 1769 3444 
Q 2428 3444 2793 3009 
Q 3159 2575 3159 1766 
L 3159 1525 
L 869 1525 
Q 881 1025 1161 717 
Q 1441 409 1872 409 
Q 2178 409 2390 534 
Q 2603 659 2763 866 
L 3116 591 
Q 2691 -63 1841 -63 
z
M 1769 2969 
Q 1419 2969 1181 2714 
Q 944 2459 888 2000 
L 2581 2000 
L 2581 2044 
Q 2556 2484 2343 2726 
Q 2131 2969 1769 2969 
z
" transform="scale(0.015625)"/>
       <path id="Roboto-Regular-74" d="M 1222 4200 
L 1222 3381 
L 1853 3381 
L 1853 2934 
L 1222 2934 
L 1222 838 
Q 1222 634 1306 532 
Q 1391 431 1594 431 
Q 1694 431 1869 469 
L 1869 0 
Q 1641 -63 1425 -63 
Q 1038 -63 841 171 
Q 644 406 644 838 
L 644 2934 
L 28 2934 
L 28 3381 
L 644 3381 
L 644 4200 
L 1222 4200 
z
" transform="scale(0.015625)"/>
       <path id="Roboto-Regular-75" d="M 2525 334 
Q 2188 -63 1534 -63 
Q 994 -63 711 251 
Q 428 566 425 1181 
L 425 3381 
L 1003 3381 
L 1003 1197 
Q 1003 428 1628 428 
Q 2291 428 2509 922 
L 2509 3381 
L 3088 3381 
L 3088 0 
L 2538 0 
L 2525 334 
z
" transform="scale(0.015625)"/>
       <path id="Roboto-Regular-72" d="M 2072 2863 
Q 1941 2884 1788 2884 
Q 1219 2884 1016 2400 
L 1016 0 
L 438 0 
L 438 3381 
L 1000 3381 
L 1009 2991 
Q 1294 3444 1816 3444 
Q 1984 3444 2072 3400 
L 2072 2863 
z
" transform="scale(0.015625)"/>
       <path id="Roboto-Regular-6e" d="M 984 3381 
L 1003 2956 
Q 1391 3444 2016 3444 
Q 3088 3444 3097 2234 
L 3097 0 
L 2519 0 
L 2519 2238 
Q 2516 2603 2352 2778 
Q 2188 2953 1841 2953 
Q 1559 2953 1346 2803 
Q 1134 2653 1016 2409 
L 1016 0 
L 438 0 
L 438 3381 
L 984 3381 
z
" transform="scale(0.015625)"/>
       <path id="Roboto-Regular-20" transform="scale(0.015625)"/>
       <path id="Roboto-Regular-6f" d="M 284 1722 
Q 284 2219 479 2616 
Q 675 3013 1023 3228 
Q 1372 3444 1819 3444 
Q 2509 3444 2936 2966 
Q 3363 2488 3363 1694 
L 3363 1653 
Q 3363 1159 3173 767 
Q 2984 375 2632 156 
Q 2281 -63 1825 -63 
Q 1138 -63 711 415 
Q 284 894 284 1681 
L 284 1722 
z
M 866 1653 
Q 866 1091 1127 750 
Q 1388 409 1825 409 
Q 2266 409 2525 754 
Q 2784 1100 2784 1722 
Q 2784 2278 2520 2623 
Q 2256 2969 1819 2969 
Q 1391 2969 1128 2628 
Q 866 2288 866 1653 
z
" transform="scale(0.015625)"/>
       <path id="Roboto-Regular-45" d="M 3100 2103 
L 1128 2103 
L 1128 491 
L 3419 491 
L 3419 0 
L 528 0 
L 528 4550 
L 3388 4550 
L 3388 4056 
L 1128 4056 
L 1128 2594 
L 3100 2594 
L 3100 2103 
z
" transform="scale(0.015625)"/>
       <path id="Roboto-Regular-71" d="M 297 1719 
Q 297 2516 662 2980 
Q 1028 3444 1644 3444 
Q 2244 3444 2591 3041 
L 2616 3381 
L 3147 3381 
L 3147 -1300 
L 2569 -1300 
L 2569 313 
Q 2219 -63 1638 -63 
Q 1025 -63 661 414 
Q 297 891 297 1678 
L 297 1719 
z
M 875 1653 
Q 875 1072 1120 740 
Q 1366 409 1781 409 
Q 2297 409 2569 866 
L 2569 2522 
Q 2294 2969 1788 2969 
Q 1369 2969 1122 2636 
Q 875 2303 875 1653 
z
" transform="scale(0.015625)"/>
       <path id="Roboto-Regular-69" d="M 1066 0 
L 488 0 
L 488 3381 
L 1066 3381 
L 1066 0 
z
M 441 4278 
Q 441 4419 527 4516 
Q 613 4613 781 4613 
Q 950 4613 1037 4516 
Q 1125 4419 1125 4278 
Q 1125 4138 1037 4044 
Q 950 3950 781 3950 
Q 613 3950 527 4044 
Q 441 4138 441 4278 
z
" transform="scale(0.015625)"/>
       <path id="Roboto-Regular-79" d="M 1544 847 
L 2331 3381 
L 2950 3381 
L 1591 -522 
Q 1275 -1366 588 -1366 
L 478 -1356 
L 263 -1316 
L 263 -847 
L 419 -859 
Q 713 -859 877 -740 
Q 1041 -622 1147 -306 
L 1275 38 
L 69 3381 
L 700 3381 
L 1544 847 
z
" transform="scale(0.015625)"/>
       <path id="Roboto-Regular-28" d="M 416 1847 
Q 416 2553 605 3203 
Q 794 3853 1169 4384 
Q 1544 4916 1947 5134 
L 2066 4753 
Q 1609 4403 1317 3684 
Q 1025 2966 997 2075 
L 994 1809 
Q 994 603 1434 -284 
Q 1700 -816 2066 -1116 
L 1947 -1469 
Q 1531 -1238 1153 -694 
Q 416 369 416 1847 
z
" transform="scale(0.015625)"/>
       <path id="Roboto-Regular-4c" d="M 1131 491 
L 3288 491 
L 3288 0 
L 528 0 
L 528 4550 
L 1131 4550 
L 1131 491 
z
" transform="scale(0.015625)"/>
       <path id="Roboto-Regular-54" d="M 3672 4056 
L 2209 4056 
L 2209 0 
L 1613 0 
L 1613 4056 
L 153 4056 
L 153 4550 
L 3672 4550 
L 3672 4056 
z
" transform="scale(0.015625)"/>
       <path id="Roboto-Regular-4d" d="M 1303 4550 
L 2791 838 
L 4278 4550 
L 5056 4550 
L 5056 0 
L 4456 0 
L 4456 1772 
L 4513 3684 
L 3019 0 
L 2559 0 
L 1069 3675 
L 1128 1772 
L 1128 0 
L 528 0 
L 528 4550 
L 1303 4550 
z
" transform="scale(0.015625)"/>
       <path id="Roboto-Regular-29" d="M 1772 1816 
Q 1772 1119 1589 480 
Q 1406 -159 1029 -700 
Q 653 -1241 241 -1469 
L 119 -1116 
Q 600 -747 892 29 
Q 1184 806 1191 1753 
L 1191 1853 
Q 1191 2509 1053 3073 
Q 916 3638 670 4084 
Q 425 4531 119 4781 
L 241 5134 
Q 653 4906 1026 4372 
Q 1400 3838 1586 3194 
Q 1772 2550 1772 1816 
z
" transform="scale(0.015625)"/>
      </defs>
      <use xlink:href="#Roboto-Regular-52"/>
      <use xlink:href="#Roboto-Regular-65" x="61.572266"/>
      <use xlink:href="#Roboto-Regular-74" x="114.550781"/>
      <use xlink:href="#Roboto-Regular-75" x="147.216797"/>
      <use xlink:href="#Roboto-Regular-72" x="202.34375"/>
      <use xlink:href="#Roboto-Regular-6e" x="236.181641"/>
      <use xlink:href="#Roboto-Regular-20" x="291.357422"/>
      <use xlink:href="#Roboto-Regular-6f" x="316.113281"/>
      <use xlink:href="#Roboto-Regular-6e" x="373.144531"/>
      <use xlink:href="#Roboto-Regular-20" x="428.320312"/>
      <use xlink:href="#Roboto-Regular-45" x="453.076172"/>
      <use xlink:href="#Roboto-Regular-71" x="509.912109"/>
      <use xlink:href="#Roboto-Regular-75" x="566.748047"/>
      <use xlink:href="#Roboto-Regular-69" x="621.875"/>
      <use xlink:href="#Roboto-Regular-74" x="646.142578"/>
      <use xlink:href="#Roboto-Regular-79" x="678.808594"/>
      <use xlink:href="#Roboto-Regular-20" x="726.123047"/>
      <use xlink:href="#Roboto-Regular-28" x="750.878906"/>
      <use xlink:href="#Roboto-Regular-4c" x="785.058594"/>
      <use xlink:href="#Roboto-Regular-54" x="838.867188"/>
      <use xlink:href="#Roboto-Regular-4d" x="898.535156"/>
      <use xlink:href="#Roboto-Regular-29" x="985.839844"/>
     </g>
    </g>
   </g>
   <g id="line2d_31">
    <path d="M 75.611222 160.783041 
L 77.340481 151.892603 
L 79.069741 156.966637 
L 80.631653 170.192672 
L 82.360912 173.911856 
L 84.034389 172.39783 
L 85.763649 124.715135 
L 87.437126 128.669831 
L 89.166386 127.156309 
L 90.895645 115.311671 
L 92.569122 115.952212 
L 94.298382 113.960088 
L 95.971859 103.161033 
L 97.701118 105.111839 
L 99.430378 99.626888 
L 100.99229 99.43596 
L 102.72155 99.506808 
L 104.395027 101.567128 
L 106.124286 132.56273 
L 107.797763 131.463714 
L 109.527023 128.57143 
L 111.256283 136.641177 
L 112.92976 134.285505 
L 114.659019 136.564215 
L 116.332496 142.356793 
L 118.061756 139.239097 
L 119.791015 145.271071 
L 121.40871 141.017987 
L 123.137969 128.64845 
L 124.811447 128.306331 
L 126.540706 125.615621 
L 128.214183 126.00302 
L 129.943443 126.541468 
L 131.672702 126.276567 
L 133.346179 120.953786 
L 135.075439 109.386746 
L 136.748916 103.735427 
L 138.478176 100.287018 
L 140.207435 91.977345 
L 141.769347 88.530935 
L 143.498607 53.582398 
L 145.172084 44.706799 
L 146.901343 37.391956 
L 148.57482 32.300214 
L 150.30408 26.362269 
L 153.706817 18.573429 
L 155.436076 18.565009 
L 157.109553 17.083636 
L 158.838813 22.83549 
L 162.129984 31.382538 
L 163.859244 61.494858 
L 165.532721 67.195095 
L 167.261981 72.587985 
L 168.935458 73.705358 
L 170.664717 48.166191 
L 172.393977 45.050586 
L 174.067454 49.527155 
L 175.796714 53.646144 
L 177.470191 53.487438 
L 179.19945 53.466932 
L 180.92871 55.264692 
L 182.490622 51.184356 
L 184.219881 57.826358 
L 185.893358 56.40974 
L 187.622618 53.341677 
L 189.296095 55.296606 
L 191.025355 75.076191 
L 192.754614 74.941802 
L 194.428091 77.773091 
L 196.157351 78.652808 
L 199.560088 78.478351 
L 201.289347 77.71425 
L 202.907042 79.463213 
L 204.636301 77.030335 
L 208.039038 84.383915 
L 209.712515 85.165675 
L 211.441775 85.387117 
L 213.171034 87.500614 
L 214.844511 95.069257 
L 216.573771 93.877414 
L 218.247248 98.774221 
L 219.976507 99.002808 
L 221.705767 103.19955 
L 223.267679 107.464249 
L 224.996939 110.16393 
L 226.670416 111.951212 
L 230.073152 116.564023 
L 231.802412 118.959595 
L 233.531671 123.297683 
L 235.205148 119.580709 
L 236.934408 124.502372 
L 238.607885 125.27812 
L 240.337145 128.187834 
L 242.066404 127.283293 
L 243.628316 126.873061 
L 245.357576 126.296456 
L 252.163049 122.884367 
L 253.892309 123.294259 
L 255.565786 123.402549 
L 257.295045 123.706411 
L 258.968522 122.459921 
L 263.988954 122.336905 
L 265.718213 121.863738 
L 267.39169 122.031826 
L 269.12095 122.397158 
L 270.794427 122.112333 
L 272.523686 123.814796 
L 274.252946 122.943052 
L 275.926423 122.263369 
L 277.655683 120.513807 
L 279.32916 120.787951 
L 281.058419 120.021794 
L 282.787679 119.659825 
L 284.405373 117.905125 
L 286.134633 117.622661 
L 287.80811 115.832274 
L 289.53737 115.884753 
L 291.210847 115.560709 
L 292.940106 113.342788 
L 294.669366 112.855727 
L 298.072103 111.052055 
L 301.474839 110.177196 
L 303.204099 110.494261 
L 304.766011 111.756886 
L 308.168747 113.564406 
L 309.898007 111.128434 
L 311.571484 110.678755 
L 313.300744 111.006739 
L 315.030003 112.829359 
L 316.70348 112.172685 
L 318.43274 113.346822 
L 320.106217 113.072434 
L 323.564736 115.394579 
L 326.855908 116.10995 
L 328.529385 117.386056 
L 331.932121 121.008314 
L 333.661381 123.07698 
L 335.390641 121.900363 
L 337.064118 122.859885 
L 338.793377 123.662698 
L 340.466854 126.791457 
L 342.196114 128.067635 
L 343.925373 128.476368 
L 345.487285 128.10698 
L 347.216545 128.30524 
L 348.890022 128.787777 
L 350.619282 129.694019 
L 352.292759 129.2187 
L 354.022018 128.999382 
L 355.751278 129.109869 
L 357.424755 129.335674 
L 359.154014 129.116854 
L 360.827492 126.441721 
L 362.556751 126.335914 
L 364.286011 126.953346 
L 365.903705 127.032151 
L 367.632965 126.452583 
L 369.306442 126.2346 
L 371.035701 126.160568 
L 372.709178 126.326415 
L 374.438438 125.32868 
L 376.167698 125.276108 
L 377.841175 124.594894 
L 379.570434 124.273747 
L 381.243911 123.168075 
L 382.973171 121.263376 
L 384.702431 118.656914 
L 386.264342 116.566132 
L 387.993602 115.850991 
L 389.667079 112.704853 
L 391.396339 110.680624 
L 394.799075 104.383521 
L 396.528335 101.605566 
L 398.201812 99.787973 
L 399.931072 97.264528 
L 401.604549 96.061464 
L 403.333808 93.277326 
L 405.063068 92.757176 
L 406.62498 93.109007 
L 410.027716 89.688828 
L 411.756976 87.605525 
L 413.430453 87.683881 
L 415.159713 86.907372 
L 416.888972 85.419983 
L 418.562449 83.467559 
L 420.291709 74.417188 
L 421.965186 70.558859 
L 423.694446 64.39933 
L 425.423705 64.037479 
L 426.985617 65.226354 
L 428.714877 65.616443 
L 430.388354 66.186269 
L 432.117613 66.320484 
L 433.79109 65.851328 
L 435.52035 67.570382 
L 437.24961 67.05276 
L 438.923087 68.379627 
L 440.652346 76.036657 
L 442.325823 78.181923 
L 444.055083 84.059117 
L 445.784342 84.752026 
L 447.402037 83.662298 
L 449.131297 81.864241 
L 450.804774 83.088438 
L 452.534033 96.74433 
L 454.20751 97.862435 
L 455.93677 97.720835 
L 457.666029 99.681701 
L 459.339507 101.120658 
L 461.068766 101.831464 
L 462.742243 113.842806 
L 464.471503 115.805922 
L 466.200762 117.045201 
L 467.762674 117.560023 
L 469.491934 120.517306 
L 471.165411 121.457309 
L 472.894671 110.435478 
L 474.568148 111.117967 
L 476.297407 111.251488 
L 478.026667 111.728488 
L 479.700144 111.180852 
L 481.429403 111.498444 
L 481.429403 111.498444 
" clip-path="url(#p8fe7949b2e)" style="fill: none; stroke: #808080; stroke-opacity: 0.5; stroke-linecap: square"/>
   </g>
   <g id="line2d_32">
    <path d="M 75.611222 82.658032 
L 77.340481 87.660317 
L 79.069741 88.174583 
L 80.631653 88.934388 
L 82.360912 84.866341 
L 84.034389 82.033055 
L 85.763649 74.171372 
L 87.437126 67.132801 
L 89.166386 68.833273 
L 90.895645 58.589102 
L 92.569122 69.518898 
L 94.298382 65.218572 
L 97.701118 56.239599 
L 99.430378 53.707489 
L 100.99229 54.663046 
L 104.395027 46.384032 
L 106.124286 46.56899 
L 107.797763 54.430473 
L 109.527023 53.882373 
L 111.256283 57.583198 
L 112.92976 55.508033 
L 114.659019 56.750472 
L 116.332496 62.710742 
L 118.061756 61.652119 
L 119.791015 62.719999 
L 121.40871 64.790331 
L 123.137969 70.268703 
L 124.811447 71.243388 
L 126.540706 72.855118 
L 128.214183 69.802812 
L 129.943443 67.545328 
L 131.672702 71.257075 
L 133.346179 71.081925 
L 135.075439 69.429287 
L 136.748916 60.718999 
L 138.478176 55.488375 
L 140.207435 50.995434 
L 141.769347 58.492272 
L 143.498607 53.579323 
L 145.172084 52.79703 
L 146.901343 55.358979 
L 148.57482 49.520487 
L 150.30408 52.646575 
L 152.03334 61.221417 
L 153.706817 57.542628 
L 155.436076 54.131752 
L 157.109553 52.266438 
L 158.838813 54.245068 
L 160.568073 57.627434 
L 162.129984 58.124724 
L 165.532721 63.60715 
L 167.261981 50.146394 
L 168.935458 59.315808 
L 170.664717 59.773739 
L 172.393977 53.209619 
L 174.067454 59.720775 
L 175.796714 64.329523 
L 177.470191 76.263531 
L 179.19945 80.013801 
L 180.92871 80.476028 
L 182.490622 81.653795 
L 184.219881 83.616346 
L 185.893358 89.05107 
L 187.622618 100.677043 
L 189.296095 99.855769 
L 191.025355 97.19955 
L 192.754614 97.214337 
L 194.428091 95.635928 
L 196.157351 99.536506 
L 197.830828 94.569999 
L 199.560088 96.818596 
L 201.289347 103.702631 
L 202.907042 97.283478 
L 204.636301 101.655268 
L 206.309778 103.858452 
L 208.039038 102.860547 
L 209.712515 106.463665 
L 211.441775 112.551593 
L 213.171034 117.116201 
L 214.844511 121.874158 
L 216.573771 127.245661 
L 219.976507 132.538154 
L 221.705767 132.465768 
L 223.267679 141.105268 
L 224.996939 145.207474 
L 226.670416 146.856488 
L 228.399675 148.833809 
L 230.073152 151.35852 
L 231.802412 152.315168 
L 233.531671 152.606545 
L 235.205148 153.098798 
L 236.934408 149.475876 
L 238.607885 151.574875 
L 240.337145 151.59604 
L 242.066404 152.191113 
L 243.628316 145.794758 
L 245.357576 141.349129 
L 247.031053 140.34569 
L 248.760313 143.390531 
L 250.43379 143.359913 
L 252.163049 143.472024 
L 253.892309 145.22512 
L 257.295045 146.087356 
L 258.968522 143.862026 
L 260.697782 140.387121 
L 262.427042 139.934739 
L 263.988954 143.649184 
L 265.718213 142.717662 
L 267.39169 143.153427 
L 269.12095 143.43112 
L 270.794427 142.647615 
L 272.523686 143.407184 
L 274.252946 141.084693 
L 275.926423 141.861648 
L 277.655683 139.580891 
L 279.32916 142.12362 
L 281.058419 141.539436 
L 282.787679 138.904711 
L 284.405373 138.522639 
L 286.134633 138.619473 
L 287.80811 134.292878 
L 289.53737 129.238617 
L 291.210847 124.771954 
L 292.940106 122.533706 
L 294.669366 123.131891 
L 296.342843 120.779286 
L 298.072103 124.104038 
L 299.74558 127.649381 
L 301.474839 125.646241 
L 303.204099 128.494754 
L 304.766011 129.628893 
L 308.168747 133.720808 
L 309.898007 145.885891 
L 311.571484 149.761075 
L 313.300744 150.402609 
L 315.030003 147.010312 
L 316.70348 146.003444 
L 318.43274 146.686612 
L 320.106217 145.621393 
L 321.835477 147.491603 
L 323.564736 146.800617 
L 325.126648 146.75927 
L 326.855908 145.962398 
L 328.529385 147.030537 
L 330.258644 133.563038 
L 331.932121 131.344803 
L 333.661381 134.359793 
L 335.390641 141.993935 
L 337.064118 146.078525 
L 338.793377 144.968028 
L 340.466854 134.340611 
L 342.196114 136.912432 
L 343.925373 138.514082 
L 345.487285 142.779101 
L 348.890022 138.502645 
L 350.619282 142.190382 
L 352.292759 143.433742 
L 354.022018 143.363701 
L 355.751278 139.563249 
L 357.424755 135.138452 
L 359.154014 135.044418 
L 360.827492 122.850826 
L 362.556751 122.90716 
L 364.286011 119.202272 
L 365.903705 111.754933 
L 367.632965 113.534063 
L 369.306442 118.173438 
L 371.035701 118.80984 
L 372.709178 125.615384 
L 374.438438 121.808777 
L 376.167698 120.294302 
L 379.570434 124.023885 
L 381.243911 136.747486 
L 382.973171 136.048187 
L 384.702431 138.33708 
L 386.264342 139.35142 
L 387.993602 141.699832 
L 389.667079 140.136089 
L 391.396339 136.033506 
L 393.069816 129.71 
L 394.799075 129.35544 
L 396.528335 134.145004 
L 398.201812 133.460648 
L 399.931072 131.762989 
L 401.604549 121.172745 
L 403.333808 119.373733 
L 405.063068 119.075742 
L 406.62498 117.503361 
L 408.354239 113.189209 
L 410.027716 113.364114 
L 411.756976 110.597417 
L 413.430453 112.480752 
L 415.159713 111.956088 
L 416.888972 109.205925 
L 418.562449 107.041749 
L 420.291709 115.984324 
L 421.965186 122.691342 
L 423.694446 127.851553 
L 425.423705 129.404319 
L 426.985617 132.126516 
L 428.714877 132.686842 
L 430.388354 130.503798 
L 432.117613 137.101893 
L 433.79109 139.050974 
L 435.52035 140.590983 
L 437.24961 140.566782 
L 438.923087 143.759912 
L 440.652346 136.540022 
L 442.325823 145.53222 
L 444.055083 142.523435 
L 445.784342 140.704516 
L 447.402037 143.267612 
L 450.804774 154.395669 
L 452.534033 157.436446 
L 454.20751 158.163657 
L 455.93677 161.674685 
L 457.666029 165.646052 
L 459.339507 165.992934 
L 461.068766 166.174231 
L 462.742243 164.484165 
L 464.471503 166.379384 
L 466.200762 166.955154 
L 467.762674 162.823339 
L 469.491934 155.657505 
L 472.894671 148.202146 
L 474.568148 126.140352 
L 476.297407 124.201525 
L 478.026667 125.138123 
L 479.700144 126.289586 
L 481.429403 122.645896 
L 481.429403 122.645896 
" clip-path="url(#p8fe7949b2e)" style="fill: none; stroke: #808080; stroke-opacity: 0.5; stroke-linecap: square"/>
   </g>
   <g id="line2d_33">
    <path d="M 119.791015 111.137929 
L 121.40871 106.365656 
L 123.137969 105.491514 
L 124.811447 102.728842 
L 126.540706 92.907445 
L 128.214183 86.689407 
L 129.943443 84.554475 
L 133.346179 73.277014 
L 135.075439 67.903328 
L 136.748916 63.64983 
L 138.478176 62.138465 
L 140.207435 57.465362 
L 141.769347 53.612043 
L 143.498607 51.514179 
L 145.172084 49.866641 
L 146.901343 58.142637 
L 148.57482 58.22076 
L 150.30408 56.169841 
L 152.03334 56.640841 
L 153.706817 56.188512 
L 155.436076 56.572984 
L 157.109553 52.403746 
L 158.838813 52.467543 
L 160.568073 54.039468 
L 162.129984 57.005365 
L 163.859244 58.708308 
L 165.532721 60.80225 
L 167.261981 67.661387 
L 168.935458 69.92683 
L 170.664717 69.338922 
L 172.393977 69.131485 
L 174.067454 68.323898 
L 175.796714 73.829654 
L 177.470191 76.414951 
L 179.19945 79.474083 
L 180.92871 83.725518 
L 182.490622 81.589881 
L 184.219881 87.626835 
L 185.893358 90.253114 
L 187.622618 91.220561 
L 189.296095 90.311554 
L 191.025355 90.662528 
L 192.754614 97.42149 
L 194.428091 100.473636 
L 196.157351 79.015855 
L 197.830828 92.101004 
L 199.560088 94.550757 
L 201.289347 97.885293 
L 202.907042 90.490658 
L 204.636301 91.762332 
L 206.309778 99.371353 
L 208.039038 100.866588 
L 209.712515 109.730445 
L 211.441775 117.691105 
L 213.171034 119.509055 
L 214.844511 157.109211 
L 216.573771 160.779858 
L 218.247248 151.229844 
L 219.976507 147.915004 
L 221.705767 149.036197 
L 223.267679 171.534542 
L 224.996939 175.530322 
L 226.670416 187.327751 
L 228.399675 185.060624 
L 230.073152 188.992604 
L 231.802412 188.449828 
L 233.531671 184.506648 
L 235.205148 158.000158 
L 236.934408 184.444822 
L 238.607885 188.297331 
L 240.337145 195.529964 
L 242.066404 198.586707 
L 243.628316 190.475448 
L 245.357576 189.738171 
L 247.031053 178.062124 
L 248.760313 185.747146 
L 250.43379 183.501931 
L 252.163049 180.378262 
L 253.892309 186.907649 
L 255.565786 184.508208 
L 257.295045 180.313431 
L 258.968522 185.533719 
L 260.697782 186.360959 
L 262.427042 180.386888 
L 263.988954 187.531069 
L 265.718213 185.105521 
L 267.39169 186.251351 
L 269.12095 181.947185 
L 270.794427 183.783895 
L 272.523686 182.72508 
L 274.252946 175.58864 
L 275.926423 170.74694 
L 277.655683 171.419134 
L 279.32916 181.485284 
L 281.058419 175.347673 
L 282.787679 179.15397 
L 284.405373 174.783363 
L 286.134633 180.116223 
L 287.80811 177.424393 
L 289.53737 171.55294 
L 291.210847 163.644008 
L 292.940106 164.924133 
L 294.669366 163.092949 
L 296.342843 154.960958 
L 298.072103 151.37734 
L 299.74558 144.909014 
L 301.474839 146.631039 
L 303.204099 143.628155 
L 304.766011 145.734881 
L 306.49527 141.636438 
L 308.168747 141.775039 
L 309.898007 152.19189 
L 311.571484 157.008467 
L 313.300744 158.685029 
L 315.030003 163.422514 
L 316.70348 171.709779 
L 318.43274 175.099183 
L 320.106217 169.311355 
L 321.835477 169.056306 
L 323.564736 171.300138 
L 325.126648 167.045332 
L 326.855908 167.884574 
L 328.529385 171.277996 
L 330.258644 163.85935 
L 331.932121 165.674978 
L 333.661381 166.146547 
L 335.390641 169.699055 
L 337.064118 175.945854 
L 338.793377 175.294687 
L 340.466854 182.186372 
L 342.196114 177.661611 
L 343.925373 179.851997 
L 345.487285 182.265984 
L 347.216545 182.188164 
L 348.890022 181.939131 
L 350.619282 184.11053 
L 352.292759 181.026547 
L 354.022018 183.388825 
L 355.751278 192.53639 
L 357.424755 191.372086 
L 359.154014 193.227786 
L 360.827492 197.128874 
L 362.556751 205.054073 
L 364.286011 204.625399 
L 365.903705 202.9753 
L 367.632965 204.362159 
L 369.306442 202.343819 
L 371.035701 201.301476 
L 372.709178 200.916195 
L 374.438438 197.726721 
L 376.167698 184.605836 
L 377.841175 178.909866 
L 379.570434 175.490662 
L 381.243911 175.856435 
L 382.973171 173.580473 
L 384.702431 172.477488 
L 386.264342 172.105531 
L 387.993602 171.187445 
L 389.667079 169.272296 
L 391.396339 171.947064 
L 393.069816 172.476506 
L 394.799075 172.477877 
L 396.528335 172.669588 
L 398.201812 174.039407 
L 399.931072 173.038134 
L 401.604549 164.963558 
L 403.333808 166.857729 
L 405.063068 162.156666 
L 406.62498 162.9812 
L 408.354239 161.0093 
L 410.027716 159.984213 
L 411.756976 156.598883 
L 413.430453 154.281339 
L 415.159713 152.950035 
L 416.888972 151.913583 
L 418.562449 151.844386 
L 420.291709 149.46486 
L 421.965186 143.31961 
L 423.694446 135.090387 
L 425.423705 137.161715 
L 426.985617 137.15502 
L 428.714877 136.184168 
L 432.117613 134.892686 
L 433.79109 133.47197 
L 435.52035 132.153953 
L 437.24961 134.677526 
L 438.923087 132.493041 
L 440.652346 136.581127 
L 442.325823 136.954579 
L 444.055083 140.402508 
L 445.784342 139.141914 
L 449.131297 140.704464 
L 450.804774 141.310402 
L 452.534033 145.195217 
L 454.20751 147.914932 
L 455.93677 149.386198 
L 457.666029 158.263934 
L 459.339507 162.551903 
L 461.068766 177.761792 
L 462.742243 195.258534 
L 464.471503 197.675488 
L 466.200762 196.382684 
L 467.762674 190.327737 
L 469.491934 189.852746 
L 471.165411 183.118071 
L 472.894671 184.480095 
L 474.568148 189.567465 
L 476.297407 190.736064 
L 478.026667 192.403887 
L 479.700144 189.32831 
L 481.429403 181.94057 
L 481.429403 181.94057 
" clip-path="url(#p8fe7949b2e)" style="fill: none; stroke: #808080; stroke-opacity: 0.5; stroke-linecap: square"/>
   </g>
   <g id="line2d_34">
    <path d="M 75.611222 149.277628 
L 77.340481 151.833317 
L 79.069741 150.282291 
L 80.631653 111.866202 
L 82.360912 109.284726 
L 84.034389 120.450814 
L 85.763649 121.804523 
L 87.437126 125.395378 
L 89.166386 126.245446 
L 90.895645 110.64386 
L 92.569122 108.300649 
L 94.298382 109.336534 
L 95.971859 131.407057 
L 97.701118 129.496869 
L 99.430378 134.565899 
L 100.99229 161.930151 
L 102.72155 167.584386 
L 104.395027 168.078422 
L 106.124286 178.71095 
L 107.797763 163.023622 
L 109.527023 162.641321 
L 111.256283 182.932986 
L 112.92976 173.572668 
L 114.659019 180.849387 
L 116.332496 171.951799 
L 118.061756 184.969371 
L 119.791015 174.718939 
L 121.40871 183.199898 
L 123.137969 173.123431 
L 124.811447 167.16053 
L 126.540706 154.013129 
L 128.214183 163.428965 
L 129.943443 160.436951 
L 131.672702 142.666978 
L 133.346179 148.335135 
L 135.075439 139.692727 
L 136.748916 143.126353 
L 138.478176 143.083103 
L 140.207435 136.005763 
L 141.769347 126.541464 
L 143.498607 131.342639 
L 145.172084 139.457888 
L 146.901343 140.045179 
L 148.57482 136.364332 
L 150.30408 147.667809 
L 152.03334 151.172736 
L 153.706817 149.069275 
L 155.436076 155.429156 
L 157.109553 158.623414 
L 158.838813 160.801767 
L 160.568073 177.59194 
L 162.129984 163.664684 
L 163.859244 165.984086 
L 165.532721 151.716384 
L 167.261981 159.458029 
L 168.935458 170.490662 
L 170.664717 161.645597 
L 172.393977 158.025921 
L 174.067454 173.108399 
L 175.796714 176.748713 
L 177.470191 173.308237 
L 179.19945 156.048401 
L 180.92871 147.389992 
L 182.490622 175.816646 
L 184.219881 171.073928 
L 185.893358 200.165336 
L 187.622618 182.571061 
L 189.296095 174.291958 
L 191.025355 173.632128 
L 192.754614 170.169023 
L 194.428091 159.970943 
L 196.157351 146.668222 
L 197.830828 136.910771 
L 199.560088 158.172289 
L 201.289347 163.935731 
L 202.907042 153.599692 
L 204.636301 143.458537 
L 206.309778 124.790149 
L 208.039038 126.953336 
L 209.712515 140.16809 
L 211.441775 141.560585 
L 213.171034 153.794124 
L 214.844511 164.420047 
L 216.573771 191.396534 
L 218.247248 163.429133 
L 219.976507 156.852419 
L 221.705767 141.350098 
L 223.267679 150.245822 
L 224.996939 155.808586 
L 226.670416 151.102263 
L 228.399675 158.920361 
L 230.073152 150.853885 
L 231.802412 147.125862 
L 233.531671 137.330191 
L 235.205148 125.614387 
L 236.934408 107.626866 
L 238.607885 133.54694 
L 240.337145 130.6965 
L 242.066404 137.18812 
L 243.628316 130.60337 
L 247.031053 139.183172 
L 248.760313 144.443542 
L 250.43379 134.461451 
L 252.163049 141.235685 
L 253.892309 140.854222 
L 255.565786 138.129557 
L 257.295045 147.65389 
L 262.427042 139.956554 
L 263.988954 145.682705 
L 265.718213 144.587148 
L 267.39169 146.158844 
L 269.12095 139.902941 
L 270.794427 150.704003 
L 272.523686 151.973829 
L 274.252946 157.502351 
L 275.926423 162.437094 
L 277.655683 157.575549 
L 279.32916 153.725206 
L 281.058419 153.502186 
L 282.787679 160.486049 
L 284.405373 154.325175 
L 286.134633 163.019959 
L 287.80811 167.883561 
L 289.53737 161.918511 
L 291.210847 163.990922 
L 292.940106 151.950145 
L 294.669366 153.376214 
L 296.342843 157.842932 
L 298.072103 158.059108 
L 299.74558 153.491154 
L 301.474839 153.2248 
L 303.204099 157.609336 
L 304.766011 163.768423 
L 306.49527 163.196785 
L 308.168747 136.501917 
L 309.898007 137.602176 
L 311.571484 127.271855 
L 313.300744 127.747636 
L 315.030003 125.41193 
L 316.70348 122.920038 
L 318.43274 95.71939 
L 320.106217 90.530343 
L 321.835477 110.869686 
L 323.564736 90.669816 
L 325.126648 76.1373 
L 326.855908 74.383901 
L 328.529385 95.511225 
L 330.258644 73.196592 
L 331.932121 65.283968 
L 333.661381 67.335295 
L 335.390641 56.16571 
L 337.064118 60.813558 
L 338.793377 78.273645 
L 340.466854 77.323141 
L 342.196114 65.289546 
L 343.925373 70.761868 
L 345.487285 73.554898 
L 347.216545 66.092153 
L 348.890022 60.000726 
L 350.619282 78.340457 
L 352.292759 98.982079 
L 354.022018 112.35225 
L 355.751278 116.441071 
L 357.424755 104.525811 
L 359.154014 116.683135 
L 360.827492 130.244843 
L 362.556751 135.116725 
L 364.286011 145.096279 
L 365.903705 149.959534 
L 367.632965 149.164692 
L 369.306442 153.714354 
L 371.035701 161.972464 
L 372.709178 156.074924 
L 374.438438 148.334851 
L 376.167698 153.352718 
L 377.841175 157.373305 
L 379.570434 152.492779 
L 381.243911 146.952332 
L 382.973171 131.183923 
L 384.702431 130.345007 
L 386.264342 127.187098 
L 387.993602 134.293074 
L 389.667079 135.468886 
L 391.396339 130.973921 
L 393.069816 130.312583 
L 394.799075 132.296134 
L 396.528335 129.412437 
L 398.201812 134.319743 
L 399.931072 117.88121 
L 401.604549 125.74195 
L 403.333808 131.17754 
L 405.063068 129.323813 
L 406.62498 136.168326 
L 408.354239 134.184225 
L 410.027716 126.037935 
L 411.756976 129.115046 
L 415.159713 126.22675 
L 416.888972 128.40772 
L 418.562449 125.905805 
L 420.291709 143.549886 
L 421.965186 138.721035 
L 423.694446 143.977883 
L 425.423705 141.913004 
L 426.985617 140.831079 
L 428.714877 142.574834 
L 430.388354 150.132273 
L 432.117613 148.918921 
L 433.79109 151.67996 
L 435.52035 153.435607 
L 438.923087 158.729225 
L 440.652346 156.837611 
L 442.325823 157.790356 
L 444.055083 155.443378 
L 445.784342 153.587421 
L 447.402037 155.00689 
L 449.131297 154.102791 
L 450.804774 154.002908 
L 452.534033 157.815315 
L 454.20751 159.68148 
L 455.93677 157.144682 
L 457.666029 155.987842 
L 459.339507 155.967809 
L 461.068766 159.660613 
L 462.742243 157.772077 
L 464.471503 157.54989 
L 466.200762 159.626702 
L 467.762674 154.253703 
L 469.491934 154.867171 
L 471.165411 155.159586 
L 472.894671 148.550611 
L 474.568148 144.860537 
L 476.297407 147.617203 
L 478.026667 144.330995 
L 479.700144 140.638756 
L 481.429403 135.083243 
L 481.429403 135.083243 
" clip-path="url(#p8fe7949b2e)" style="fill: none; stroke: #808080; stroke-opacity: 0.5; stroke-linecap: square"/>
   </g>
   <g id="line2d_35">
    <path d="M 75.611222 67.417737 
L 79.069741 53.077427 
L 80.631653 56.534994 
L 82.360912 52.059585 
L 84.034389 58.066933 
L 85.763649 55.730873 
L 87.437126 52.571424 
L 89.166386 51.905821 
L 90.895645 54.618817 
L 92.569122 59.389048 
L 94.298382 54.976097 
L 95.971859 34.061241 
L 97.701118 40.375944 
L 99.430378 48.140149 
L 100.99229 41.376633 
L 102.72155 47.187975 
L 104.395027 46.411357 
L 106.124286 55.228307 
L 107.797763 63.051156 
L 109.527023 55.040504 
L 111.256283 56.578032 
L 112.92976 49.126558 
L 114.659019 49.503644 
L 116.332496 39.455462 
L 118.061756 35.692925 
L 119.791015 33.391764 
L 121.40871 36.524433 
L 123.137969 50.72234 
L 124.811447 52.964857 
L 126.540706 56.784452 
L 128.214183 65.092861 
L 129.943443 75.443613 
L 131.672702 75.384167 
L 135.075439 86.07274 
L 136.748916 109.770057 
L 138.478176 106.147965 
L 140.207435 109.148348 
L 141.769347 106.391466 
L 143.498607 99.080718 
L 145.172084 96.046772 
L 146.901343 93.357166 
L 148.57482 90.108425 
L 150.30408 89.701033 
L 152.03334 92.781705 
L 153.706817 96.784852 
L 155.436076 95.700413 
L 157.109553 91.667074 
L 158.838813 92.376723 
L 160.568073 91.110516 
L 163.859244 94.813502 
L 165.532721 98.371861 
L 167.261981 97.450357 
L 168.935458 84.524553 
L 170.664717 82.196892 
L 172.393977 84.649902 
L 174.067454 80.754478 
L 175.796714 81.278387 
L 177.470191 82.824388 
L 179.19945 96.920405 
L 180.92871 101.399863 
L 182.490622 94.416227 
L 184.219881 98.238798 
L 185.893358 96.38643 
L 187.622618 95.763944 
L 189.296095 106.685716 
L 191.025355 108.229726 
L 192.754614 76.582671 
L 194.428091 78.4728 
L 196.157351 82.168787 
L 197.830828 83.069397 
L 199.560088 72.380527 
L 201.289347 70.59027 
L 202.907042 66.398592 
L 204.636301 72.604284 
L 206.309778 80.672951 
L 208.039038 100.054934 
L 209.712515 102.683453 
L 211.441775 94.632171 
L 213.171034 123.745223 
L 214.844511 136.743266 
L 216.573771 144.093432 
L 218.247248 137.448304 
L 219.976507 139.633917 
L 221.705767 147.489756 
L 223.267679 155.531168 
L 224.996939 141.260088 
L 226.670416 132.966882 
L 228.399675 120.491349 
L 230.073152 121.522652 
L 231.802412 133.243175 
L 233.531671 128.269016 
L 235.205148 119.920503 
L 236.934408 113.965641 
L 238.607885 118.071042 
L 240.337145 113.876353 
L 242.066404 109.048812 
L 243.628316 111.741219 
L 245.357576 119.636408 
L 247.031053 124.139913 
L 248.760313 119.172518 
L 250.43379 116.848375 
L 252.163049 113.559438 
L 253.892309 110.788065 
L 255.565786 110.677882 
L 257.295045 112.59011 
L 258.968522 114.001219 
L 260.697782 118.361451 
L 262.427042 117.999627 
L 263.988954 114.715498 
L 265.718213 114.309142 
L 267.39169 114.19606 
L 269.12095 116.96623 
L 270.794427 116.614717 
L 272.523686 117.343251 
L 274.252946 118.625521 
L 275.926423 118.89158 
L 277.655683 115.154708 
L 279.32916 115.488039 
L 281.058419 110.286289 
L 282.787679 107.682921 
L 284.405373 109.15602 
L 286.134633 108.015037 
L 287.80811 101.412044 
L 289.53737 100.976527 
L 291.210847 100.282711 
L 292.940106 100.43292 
L 294.669366 101.918599 
L 296.342843 101.361015 
L 298.072103 102.909108 
L 299.74558 103.406714 
L 301.474839 105.749255 
L 303.204099 106.744327 
L 304.766011 106.742525 
L 306.49527 109.102911 
L 308.168747 114.894459 
L 309.898007 113.039101 
L 311.571484 114.376415 
L 313.300744 115.519305 
L 315.030003 106.209756 
L 316.70348 106.512159 
L 318.43274 105.900509 
L 320.106217 102.67618 
L 321.835477 105.368341 
L 323.564736 106.894195 
L 325.126648 107.71053 
L 326.855908 106.660556 
L 328.529385 107.285636 
L 330.258644 109.885328 
L 331.932121 110.950693 
L 333.661381 111.40719 
L 335.390641 122.154969 
L 337.064118 121.90096 
L 338.793377 122.156334 
L 340.466854 124.519606 
L 342.196114 124.681026 
L 343.925373 125.432988 
L 347.216545 128.057977 
L 348.890022 128.306047 
L 350.619282 129.599692 
L 352.292759 130.176669 
L 354.022018 130.065765 
L 355.751278 129.569983 
L 357.424755 128.645288 
L 359.154014 129.230452 
L 360.827492 128.968998 
L 362.556751 129.488181 
L 364.286011 128.782174 
L 365.903705 129.053945 
L 367.632965 128.17214 
L 371.035701 127.959332 
L 372.709178 127.12957 
L 374.438438 127.437997 
L 376.167698 127.371303 
L 377.841175 126.769922 
L 379.570434 125.291877 
L 381.243911 126.497038 
L 382.973171 124.552304 
L 386.264342 121.980299 
L 387.993602 120.388259 
L 391.396339 118.032256 
L 393.069816 117.573433 
L 394.799075 116.07429 
L 396.528335 116.991162 
L 398.201812 119.015024 
L 399.931072 119.607529 
L 401.604549 117.815785 
L 403.333808 118.263206 
L 405.063068 118.452319 
L 406.62498 118.198276 
L 408.354239 118.303483 
L 410.027716 118.090074 
L 413.430453 116.626563 
L 415.159713 116.12752 
L 416.888972 114.921679 
L 418.562449 113.995014 
L 420.291709 114.840166 
L 421.965186 115.928392 
L 423.694446 115.908844 
L 425.423705 116.1028 
L 426.985617 115.399659 
L 428.714877 115.532178 
L 430.388354 115.884444 
L 432.117613 115.426139 
L 433.79109 115.310334 
L 435.52035 115.900652 
L 437.24961 115.659988 
L 438.923087 115.926921 
L 440.652346 115.950794 
L 445.784342 116.76438 
L 447.402037 117.255551 
L 449.131297 117.494493 
L 450.804774 118.372809 
L 452.534033 123.648228 
L 454.20751 125.589132 
L 455.93677 125.701941 
L 457.666029 126.632928 
L 459.339507 126.392077 
L 462.742243 126.633468 
L 464.471503 127.663403 
L 466.200762 131.031011 
L 467.762674 135.187081 
L 469.491934 137.727468 
L 471.165411 138.071591 
L 472.894671 135.138272 
L 474.568148 135.026737 
L 476.297407 135.504645 
L 478.026667 136.905339 
L 479.700144 137.940043 
L 481.429403 137.694544 
L 481.429403 137.694544 
" clip-path="url(#p8fe7949b2e)" style="fill: none; stroke: #808080; stroke-opacity: 0.5; stroke-linecap: square"/>
   </g>
   <g id="line2d_36">
    <path d="M 75.611222 141.215385 
L 77.340481 140.92541 
L 79.069741 143.918444 
L 80.631653 144.777976 
L 82.360912 143.706345 
L 84.034389 143.775104 
L 85.763649 145.621346 
L 87.437126 148.931028 
L 89.166386 145.352038 
L 90.895645 144.215642 
L 92.569122 142.89364 
L 94.298382 140.831641 
L 95.971859 140.653042 
L 97.701118 140.987236 
L 99.430378 141.489861 
L 100.99229 141.142403 
L 102.72155 140.220407 
L 104.395027 135.479309 
L 106.124286 137.132647 
L 107.797763 135.508616 
L 109.527023 140.32486 
L 111.256283 137.231182 
L 112.92976 137.868635 
L 114.659019 138.037389 
L 116.332496 134.770208 
L 118.061756 134.397339 
L 119.791015 136.428491 
L 121.40871 133.784413 
L 123.137969 137.203565 
L 124.811447 139.081193 
L 126.540706 133.889072 
L 128.214183 150.658228 
L 129.943443 145.849663 
L 131.672702 144.731637 
L 135.075439 138.638872 
L 136.748916 142.649566 
L 138.478176 140.898804 
L 140.207435 135.816572 
L 141.769347 137.510702 
L 143.498607 130.680547 
L 145.172084 127.175034 
L 146.901343 134.112737 
L 148.57482 111.552505 
L 150.30408 109.574552 
L 152.03334 139.74536 
L 153.706817 139.170285 
L 155.436076 135.76664 
L 157.109553 119.449554 
L 158.838813 116.737852 
L 160.568073 107.909777 
L 162.129984 104.068746 
L 163.859244 101.153567 
L 165.532721 101.380797 
L 168.935458 69.13075 
L 170.664717 61.298722 
L 172.393977 28.107293 
L 174.067454 20.369239 
L 175.796714 19.74944 
L 177.470191 46.44776 
L 179.19945 47.79879 
L 180.92871 54.323052 
L 182.490622 53.117126 
L 184.219881 59.165195 
L 185.893358 57.063152 
L 187.622618 60.0342 
L 189.296095 70.70545 
L 191.025355 76.909839 
L 192.754614 75.698409 
L 194.428091 77.740965 
L 196.157351 74.978574 
L 197.830828 56.749528 
L 199.560088 50.728239 
L 201.289347 46.489637 
L 202.907042 42.090902 
L 204.636301 38.090292 
L 206.309778 41.291553 
L 208.039038 46.294678 
L 209.712515 46.168384 
L 211.441775 41.620566 
L 213.171034 46.663757 
L 214.844511 52.343936 
L 216.573771 60.62394 
L 218.247248 80.763527 
L 223.267679 96.743153 
L 224.996939 99.6756 
L 226.670416 101.553648 
L 228.399675 98.146928 
L 230.073152 103.533983 
L 231.802412 110.087149 
L 233.531671 106.580766 
L 235.205148 105.926756 
L 236.934408 105.388974 
L 238.607885 95.604709 
L 240.337145 93.821597 
L 242.066404 95.46614 
L 243.628316 96.037631 
L 245.357576 95.0499 
L 247.031053 93.732937 
L 248.760313 94.559398 
L 250.43379 92.661346 
L 252.163049 90.369003 
L 253.892309 91.321139 
L 255.565786 91.234953 
L 258.968522 89.772263 
L 260.697782 90.02559 
L 262.427042 88.875937 
L 263.988954 91.409711 
L 265.718213 92.925158 
L 269.12095 90.950011 
L 270.794427 93.737295 
L 272.523686 97.032051 
L 274.252946 100.726523 
L 275.926423 101.44206 
L 277.655683 101.955779 
L 279.32916 92.407333 
L 281.058419 94.722109 
L 282.787679 93.384478 
L 284.405373 93.174816 
L 286.134633 92.377731 
L 287.80811 94.801126 
L 289.53737 95.477089 
L 291.210847 94.758252 
L 292.940106 94.76175 
L 296.342843 93.018379 
L 298.072103 95.010358 
L 299.74558 97.90162 
L 301.474839 67.469712 
L 303.204099 69.929487 
L 304.766011 69.479388 
L 306.49527 70.502862 
L 308.168747 70.925187 
L 309.898007 72.593315 
L 311.571484 75.739165 
L 313.300744 74.88786 
L 315.030003 74.304778 
L 316.70348 75.742502 
L 318.43274 74.160504 
L 320.106217 75.684863 
L 321.835477 102.566229 
L 323.564736 101.237177 
L 325.126648 100.330125 
L 326.855908 99.963971 
L 328.529385 98.396044 
L 330.258644 98.033701 
L 331.932121 95.462467 
L 333.661381 95.450216 
L 335.390641 96.067572 
L 337.064118 95.661203 
L 338.793377 96.683375 
L 340.466854 103.436156 
L 342.196114 104.008094 
L 343.925373 105.203572 
L 347.216545 104.424797 
L 348.890022 104.509806 
L 350.619282 103.609834 
L 352.292759 102.481404 
L 354.022018 102.179405 
L 355.751278 101.452613 
L 357.424755 99.426075 
L 359.154014 100.271782 
L 360.827492 95.563817 
L 362.556751 96.891036 
L 364.286011 91.713159 
L 365.903705 91.445195 
L 367.632965 89.940994 
L 369.306442 85.102844 
L 371.035701 87.038142 
L 372.709178 86.305275 
L 374.438438 85.808066 
L 376.167698 86.621191 
L 377.841175 86.830293 
L 379.570434 86.095374 
L 381.243911 89.14774 
L 382.973171 85.351131 
L 384.702431 87.824532 
L 386.264342 88.290138 
L 387.993602 88.108707 
L 389.667079 90.486813 
L 391.396339 88.716499 
L 393.069816 90.014249 
L 396.528335 87.490215 
L 398.201812 88.076871 
L 399.931072 87.053662 
L 401.604549 82.724741 
L 403.333808 84.757284 
L 405.063068 84.894969 
L 406.62498 82.372704 
L 410.027716 82.751266 
L 411.756976 79.758752 
L 413.430453 78.683925 
L 415.159713 78.365563 
L 416.888972 77.10268 
L 418.562449 77.126542 
L 420.291709 75.927027 
L 421.965186 75.003406 
L 423.694446 73.184855 
L 425.423705 73.99011 
L 428.714877 76.637446 
L 430.388354 77.150452 
L 432.117613 79.026234 
L 433.79109 77.177402 
L 435.52035 78.676634 
L 437.24961 79.778752 
L 438.923087 78.748623 
L 440.652346 79.399818 
L 442.325823 79.586305 
L 444.055083 81.623946 
L 445.784342 82.453636 
L 447.402037 94.864057 
L 449.131297 97.28879 
L 450.804774 98.449341 
L 452.534033 100.578681 
L 454.20751 102.301458 
L 455.93677 101.183757 
L 457.666029 101.982303 
L 459.339507 105.9089 
L 461.068766 110.434214 
L 462.742243 115.375316 
L 464.471503 116.902939 
L 466.200762 120.431305 
L 467.762674 111.2372 
L 469.491934 109.316982 
L 471.165411 106.513415 
L 472.894671 106.665723 
L 474.568148 104.939909 
L 476.297407 100.015328 
L 478.026667 96.662743 
L 479.700144 92.635745 
L 481.429403 87.280519 
L 481.429403 87.280519 
" clip-path="url(#p8fe7949b2e)" style="fill: none; stroke: #808080; stroke-opacity: 0.5; stroke-linecap: square"/>
   </g>
   <g id="patch_3">
    <path d="M 55.320313 224.64 
L 55.320313 7.2 
" style="fill: none; stroke: #000000; stroke-width: 0.8; stroke-linejoin: miter; stroke-linecap: square"/>
   </g>
   <g id="patch_4">
    <path d="M 55.320312 224.64 
L 501.720313 224.64 
" style="fill: none; stroke: #000000; stroke-width: 0.8; stroke-linejoin: miter; stroke-linecap: square"/>
   </g>
   <g id="line2d_37">
    <path d="M 75.611222 192.715221 
L 77.340481 186.689091 
L 79.069741 183.500676 
L 80.631653 201.886533 
L 82.360912 200.534579 
L 84.034389 204.745245 
L 85.763649 214.756364 
L 87.437126 187.823992 
L 89.166386 192.338179 
L 90.895645 188.179657 
L 92.569122 180.770825 
L 94.298382 196.388753 
L 95.971859 188.448016 
L 97.701118 188.120097 
L 100.99229 174.218546 
L 102.72155 160.730629 
L 104.395027 152.61366 
L 106.124286 150.680856 
L 107.797763 153.868916 
L 109.527023 153.904892 
L 111.256283 144.609873 
L 116.332496 108.966662 
L 118.061756 104.233212 
L 119.791015 113.235344 
L 121.40871 106.943273 
L 123.137969 123.19619 
L 124.811447 133.432745 
L 126.540706 141.405901 
L 128.214183 136.077078 
L 129.943443 143.681694 
L 131.672702 149.395984 
L 133.346179 153.010579 
L 135.075439 156.101633 
L 136.748916 155.483852 
L 138.478176 154.272606 
L 140.207435 148.933927 
L 141.769347 157.768363 
L 145.172084 137.223472 
L 146.901343 115.870745 
L 148.57482 118.53101 
L 150.30408 93.057055 
L 152.03334 93.45508 
L 153.706817 87.077709 
L 155.436076 72.961117 
L 157.109553 82.577822 
L 158.838813 81.284701 
L 162.129984 82.573717 
L 163.859244 83.788854 
L 165.532721 94.188499 
L 167.261981 90.191398 
L 168.935458 80.969396 
L 170.664717 93.128066 
L 172.393977 88.960387 
L 174.067454 89.927438 
L 175.796714 76.734033 
L 177.470191 53.806588 
L 179.19945 66.824968 
L 180.92871 66.974211 
L 182.490622 60.029669 
L 184.219881 63.929651 
L 185.893358 58.818191 
L 187.622618 64.877167 
L 189.296095 71.759371 
L 191.025355 78.377884 
L 192.754614 80.396094 
L 194.428091 83.445139 
L 196.157351 98.778009 
L 197.830828 94.323456 
L 199.560088 83.318997 
L 201.289347 82.905522 
L 202.907042 96.258342 
L 204.636301 104.879822 
L 206.309778 112.481957 
L 208.039038 118.242112 
L 209.712515 120.857391 
L 211.441775 120.692546 
L 213.171034 127.290358 
L 214.844511 144.072777 
L 216.573771 150.383647 
L 218.247248 148.809065 
L 219.976507 149.741564 
L 221.705767 163.557391 
L 223.267679 143.972856 
L 224.996939 133.077119 
L 226.670416 129.084588 
L 228.399675 133.627029 
L 230.073152 131.16204 
L 231.802412 131.111395 
L 233.531671 125.439574 
L 235.205148 112.147282 
L 236.934408 111.181265 
L 238.607885 134.604447 
L 240.337145 136.46984 
L 242.066404 125.959777 
L 243.628316 134.479938 
L 245.357576 138.319868 
L 247.031053 134.173406 
L 248.760313 131.002269 
L 250.43379 134.693829 
L 252.163049 136.784645 
L 253.892309 138.463791 
L 255.565786 141.012633 
L 257.295045 138.770209 
L 258.968522 132.627073 
L 260.697782 137.167751 
L 262.427042 141.342075 
L 263.988954 145.975681 
L 265.718213 146.649718 
L 267.39169 149.692947 
L 269.12095 147.754032 
L 270.794427 148.395572 
L 272.523686 150.492028 
L 274.252946 149.316252 
L 275.926423 151.84993 
L 277.655683 157.585363 
L 279.32916 152.947784 
L 281.058419 149.697551 
L 282.787679 148.4321 
L 284.405373 147.091715 
L 286.134633 144.972908 
L 287.80811 146.298935 
L 289.53737 146.973813 
L 291.210847 145.772367 
L 292.940106 146.133664 
L 294.669366 145.895478 
L 296.342843 144.41343 
L 298.072103 139.669724 
L 299.74558 145.827122 
L 301.474839 147.384326 
L 303.204099 146.557153 
L 304.766011 143.972021 
L 306.49527 143.659984 
L 308.168747 141.117952 
L 309.898007 142.995715 
L 311.571484 142.638484 
L 313.300744 140.987906 
L 315.030003 142.752704 
L 316.70348 139.836827 
L 318.43274 136.358524 
L 320.106217 144.856854 
L 321.835477 144.496992 
L 323.564736 145.750577 
L 325.126648 155.523898 
L 326.855908 158.328647 
L 328.529385 161.299448 
L 330.258644 156.855578 
L 333.661381 153.383965 
L 335.390641 161.215668 
L 337.064118 164.571279 
L 338.793377 169.243221 
L 340.466854 163.139068 
L 342.196114 166.496004 
L 343.925373 165.703625 
L 345.487285 155.378031 
L 347.216545 155.567206 
L 348.890022 155.017768 
L 350.619282 151.019956 
L 352.292759 153.671681 
L 354.022018 154.651921 
L 355.751278 147.699192 
L 357.424755 146.76554 
L 359.154014 147.029194 
L 360.827492 152.257889 
L 362.556751 150.024624 
L 364.286011 146.944153 
L 365.903705 149.942165 
L 367.632965 148.679409 
L 369.306442 150.280152 
L 371.035701 156.703607 
L 372.709178 155.900142 
L 374.438438 156.951193 
L 376.167698 163.232414 
L 377.841175 163.225104 
L 379.570434 164.095485 
L 381.243911 157.598284 
L 382.973171 155.996157 
L 384.702431 161.416229 
L 386.264342 160.909077 
L 387.993602 159.410382 
L 391.396339 155.194541 
L 393.069816 155.434845 
L 394.799075 154.245098 
L 396.528335 147.482268 
L 398.201812 147.649157 
L 399.931072 144.92221 
L 401.604549 141.280775 
L 403.333808 141.665055 
L 405.063068 139.483442 
L 406.62498 137.917961 
L 408.354239 139.654151 
L 410.027716 139.243534 
L 411.756976 140.722112 
L 413.430453 138.979971 
L 415.159713 139.205693 
L 416.888972 139.091194 
L 418.562449 138.370819 
L 420.291709 138.022247 
L 421.965186 139.744983 
L 423.694446 137.814602 
L 425.423705 139.097118 
L 426.985617 139.248373 
L 428.714877 139.553775 
L 430.388354 139.546802 
L 432.117613 137.636876 
L 433.79109 136.921052 
L 437.24961 132.640777 
L 438.923087 134.180018 
L 440.652346 130.322151 
L 442.325823 131.23547 
L 444.055083 132.587374 
L 445.784342 131.780095 
L 447.402037 139.670049 
L 449.131297 140.857834 
L 450.804774 144.719093 
L 452.534033 147.003646 
L 454.20751 150.132646 
L 455.93677 151.630448 
L 457.666029 156.955957 
L 459.339507 156.912176 
L 461.068766 162.86528 
L 462.742243 169.858445 
L 464.471503 172.259595 
L 466.200762 172.869893 
L 467.762674 166.108713 
L 469.491934 161.571406 
L 471.165411 156.185216 
L 472.894671 156.302899 
L 474.568148 152.072794 
L 476.297407 151.242346 
L 481.429403 144.623572 
L 481.429403 144.623572 
" clip-path="url(#p8fe7949b2e)" style="fill: none; stroke: #2b5aa5; stroke-width: 1.5; stroke-linecap: square"/>
   </g>
  </g>
 </g>
 <defs>
  <clipPath id="p8fe7949b2e">
   <rect x="55.320313" y="7.2" width="446.4" height="217.44"/>
  </clipPath>
 </defs>
</svg>
