<?xml version="1.0" encoding="utf-8" standalone="no"?>
<!DOCTYPE svg PUBLIC "-//W3C//DTD SVG 1.1//EN"
  "http://www.w3.org/Graphics/SVG/1.1/DTD/svg11.dtd">
<svg xmlns:xlink="http://www.w3.org/1999/xlink" width="582.99375pt" height="248.37125pt" viewBox="0 0 582.99375 248.37125" xmlns="http://www.w3.org/2000/svg" version="1.1">
 <metadata>
  <rdf:RDF xmlns:dc="http://purl.org/dc/elements/1.1/" xmlns:cc="http://creativecommons.org/ns#" xmlns:rdf="http://www.w3.org/1999/02/22-rdf-syntax-ns#">
   <cc:Work>
    <dc:type rdf:resource="http://purl.org/dc/dcmitype/StillImage"/>
    <dc:date>2022-01-12T13:04:34.419340</dc:date>
    <dc:format>image/svg+xml</dc:format>
    <dc:creator>
     <cc:Agent>
      <dc:title>Matplotlib v3.5.1, https://matplotlib.org/</dc:title>
     </cc:Agent>
    </dc:creator>
   </cc:Work>
  </rdf:RDF>
 </metadata>
 <defs>
  <style type="text/css">*{stroke-linejoin: round; stroke-linecap: butt}</style>
 </defs>
 <g id="figure_1">
  <g id="patch_1">
   <path d="M 0 248.37125 
L 582.99375 248.37125 
L 582.99375 0 
L 0 0 
z
" style="fill: #ffffff"/>
  </g>
  <g id="axes_1">
   <g id="patch_2">
    <path d="M 17.79375 224.64 
L 575.79375 224.64 
L 575.79375 7.2 
L 17.79375 7.2 
z
" style="fill: #ffffff"/>
   </g>
   <g id="matplotlib.axis_1">
    <g id="xtick_1">
     <g id="line2d_1">
      <path d="M 17.79375 224.64 
L 17.79375 7.2 
" clip-path="url(#p6eb37b9c4f)" style="fill: none; stroke-dasharray: 2.96,1.28; stroke-dashoffset: 0; stroke: #dddddd; stroke-width: 0.8"/>
     </g>
     <g id="line2d_2">
      <defs>
       <path id="m14558e491f" d="M 0 0 
L 0 3.5 
" style="stroke: #000000; stroke-width: 0.8"/>
      </defs>
      <g>
       <use xlink:href="#m14558e491f" x="17.79375" y="224.64" style="stroke: #000000; stroke-width: 0.8"/>
      </g>
     </g>
     <g id="text_1">
      <!-- 0.0% -->
      <g transform="translate(7.2 239.14)scale(0.1 -0.1)">
       <defs>
        <path id="Roboto-Regular-30" d="M 3231 1941 
Q 3231 925 2884 431 
Q 2538 -63 1800 -63 
Q 1072 -63 722 420 
Q 372 903 359 1863 
L 359 2634 
Q 359 3638 706 4125 
Q 1053 4613 1794 4613 
Q 2528 4613 2875 4142 
Q 3222 3672 3231 2691 
L 3231 1941 
z
M 2653 2731 
Q 2653 3466 2447 3802 
Q 2241 4138 1794 4138 
Q 1350 4138 1147 3803 
Q 944 3469 938 2775 
L 938 1850 
Q 938 1113 1152 761 
Q 1366 409 1800 409 
Q 2228 409 2436 740 
Q 2644 1072 2653 1784 
L 2653 2731 
z
" transform="scale(0.015625)"/>
        <path id="Roboto-Regular-2e" d="M 450 303 
Q 450 453 539 553 
Q 628 653 806 653 
Q 984 653 1076 553 
Q 1169 453 1169 303 
Q 1169 159 1076 62 
Q 984 -34 806 -34 
Q 628 -34 539 62 
Q 450 159 450 303 
z
" transform="scale(0.015625)"/>
        <path id="Roboto-Regular-25" d="M 328 3675 
Q 328 4084 589 4350 
Q 850 4616 1259 4616 
Q 1675 4616 1933 4348 
Q 2191 4081 2191 3656 
L 2191 3434 
Q 2191 3022 1930 2761 
Q 1669 2500 1266 2500 
Q 859 2500 593 2761 
Q 328 3022 328 3456 
L 328 3675 
z
M 759 3434 
Q 759 3191 896 3033 
Q 1034 2875 1266 2875 
Q 1488 2875 1623 3028 
Q 1759 3181 1759 3447 
L 1759 3675 
Q 1759 3919 1625 4078 
Q 1491 4238 1259 4238 
Q 1028 4238 893 4078 
Q 759 3919 759 3663 
L 759 3434 
z
M 2544 1116 
Q 2544 1525 2805 1789 
Q 3066 2053 3475 2053 
Q 3884 2053 4146 1790 
Q 4409 1528 4409 1094 
L 4409 872 
Q 4409 463 4148 198 
Q 3888 -66 3481 -66 
Q 3075 -66 2809 195 
Q 2544 456 2544 891 
L 2544 1116 
z
M 2975 872 
Q 2975 625 3112 467 
Q 3250 309 3481 309 
Q 3706 309 3840 464 
Q 3975 619 3975 884 
L 3975 1116 
Q 3975 1363 3839 1519 
Q 3703 1675 3475 1675 
Q 3253 1675 3114 1520 
Q 2975 1366 2975 1103 
L 2975 872 
z
M 1397 344 
L 1069 550 
L 3291 4106 
L 3619 3900 
L 1397 344 
z
" transform="scale(0.015625)"/>
       </defs>
       <use xlink:href="#Roboto-Regular-30"/>
       <use xlink:href="#Roboto-Regular-2e" x="56.152344"/>
       <use xlink:href="#Roboto-Regular-30" x="82.470703"/>
       <use xlink:href="#Roboto-Regular-25" x="138.623047"/>
      </g>
     </g>
    </g>
    <g id="xtick_2">
     <g id="line2d_3">
      <path d="M 124.079464 224.64 
L 124.079464 7.2 
" clip-path="url(#p6eb37b9c4f)" style="fill: none; stroke-dasharray: 2.96,1.28; stroke-dashoffset: 0; stroke: #dddddd; stroke-width: 0.8"/>
     </g>
     <g id="line2d_4">
      <g>
       <use xlink:href="#m14558e491f" x="124.079464" y="224.64" style="stroke: #000000; stroke-width: 0.8"/>
      </g>
     </g>
     <g id="text_2">
      <!-- 20.0% -->
      <g transform="translate(110.677902 239.14)scale(0.1 -0.1)">
       <defs>
        <path id="Roboto-Regular-32" d="M 3359 0 
L 378 0 
L 378 416 
L 1953 2166 
Q 2303 2563 2436 2811 
Q 2569 3059 2569 3325 
Q 2569 3681 2353 3909 
Q 2138 4138 1778 4138 
Q 1347 4138 1108 3892 
Q 869 3647 869 3209 
L 291 3209 
Q 291 3838 695 4225 
Q 1100 4613 1778 4613 
Q 2413 4613 2781 4280 
Q 3150 3947 3150 3394 
Q 3150 2722 2294 1794 
L 1075 472 
L 3359 472 
L 3359 0 
z
" transform="scale(0.015625)"/>
       </defs>
       <use xlink:href="#Roboto-Regular-32"/>
       <use xlink:href="#Roboto-Regular-30" x="56.152344"/>
       <use xlink:href="#Roboto-Regular-2e" x="112.304688"/>
       <use xlink:href="#Roboto-Regular-30" x="138.623047"/>
       <use xlink:href="#Roboto-Regular-25" x="194.775391"/>
      </g>
     </g>
    </g>
    <g id="xtick_3">
     <g id="line2d_5">
      <path d="M 230.365179 224.64 
L 230.365179 7.2 
" clip-path="url(#p6eb37b9c4f)" style="fill: none; stroke-dasharray: 2.96,1.28; stroke-dashoffset: 0; stroke: #dddddd; stroke-width: 0.8"/>
     </g>
     <g id="line2d_6">
      <g>
       <use xlink:href="#m14558e491f" x="230.365179" y="224.64" style="stroke: #000000; stroke-width: 0.8"/>
      </g>
     </g>
     <g id="text_3">
      <!-- 40.0% -->
      <g transform="translate(216.963616 239.14)scale(0.1 -0.1)">
       <defs>
        <path id="Roboto-Regular-34" d="M 2819 1528 
L 3450 1528 
L 3450 1056 
L 2819 1056 
L 2819 0 
L 2238 0 
L 2238 1056 
L 166 1056 
L 166 1397 
L 2203 4550 
L 2819 4550 
L 2819 1528 
z
M 822 1528 
L 2238 1528 
L 2238 3759 
L 2169 3634 
L 822 1528 
z
" transform="scale(0.015625)"/>
       </defs>
       <use xlink:href="#Roboto-Regular-34"/>
       <use xlink:href="#Roboto-Regular-30" x="56.152344"/>
       <use xlink:href="#Roboto-Regular-2e" x="112.304688"/>
       <use xlink:href="#Roboto-Regular-30" x="138.623047"/>
       <use xlink:href="#Roboto-Regular-25" x="194.775391"/>
      </g>
     </g>
    </g>
    <g id="xtick_4">
     <g id="line2d_7">
      <path d="M 336.650893 224.64 
L 336.650893 7.2 
" clip-path="url(#p6eb37b9c4f)" style="fill: none; stroke-dasharray: 2.96,1.28; stroke-dashoffset: 0; stroke: #dddddd; stroke-width: 0.8"/>
     </g>
     <g id="line2d_8">
      <g>
       <use xlink:href="#m14558e491f" x="336.650893" y="224.64" style="stroke: #000000; stroke-width: 0.8"/>
      </g>
     </g>
     <g id="text_4">
      <!-- 60.0% -->
      <g transform="translate(323.24933 239.14)scale(0.1 -0.1)">
       <defs>
        <path id="Roboto-Regular-36" d="M 2647 4553 
L 2647 4063 
L 2541 4063 
Q 1866 4050 1466 3662 
Q 1066 3275 1003 2572 
Q 1363 2984 1984 2984 
Q 2578 2984 2933 2565 
Q 3288 2147 3288 1484 
Q 3288 781 2905 359 
Q 2522 -63 1878 -63 
Q 1225 -63 819 439 
Q 413 941 413 1731 
L 413 1953 
Q 413 3209 948 3873 
Q 1484 4538 2544 4553 
L 2647 4553 
z
M 1888 2503 
Q 1591 2503 1341 2325 
Q 1091 2147 994 1878 
L 994 1666 
Q 994 1103 1247 759 
Q 1500 416 1878 416 
Q 2269 416 2492 703 
Q 2716 991 2716 1456 
Q 2716 1925 2489 2214 
Q 2263 2503 1888 2503 
z
" transform="scale(0.015625)"/>
       </defs>
       <use xlink:href="#Roboto-Regular-36"/>
       <use xlink:href="#Roboto-Regular-30" x="56.152344"/>
       <use xlink:href="#Roboto-Regular-2e" x="112.304688"/>
       <use xlink:href="#Roboto-Regular-30" x="138.623047"/>
       <use xlink:href="#Roboto-Regular-25" x="194.775391"/>
      </g>
     </g>
    </g>
    <g id="xtick_5">
     <g id="line2d_9">
      <path d="M 442.936607 224.64 
L 442.936607 7.2 
" clip-path="url(#p6eb37b9c4f)" style="fill: none; stroke-dasharray: 2.96,1.28; stroke-dashoffset: 0; stroke: #dddddd; stroke-width: 0.8"/>
     </g>
     <g id="line2d_10">
      <g>
       <use xlink:href="#m14558e491f" x="442.936607" y="224.64" style="stroke: #000000; stroke-width: 0.8"/>
      </g>
     </g>
     <g id="text_5">
      <!-- 80.0% -->
      <g transform="translate(429.535045 239.14)scale(0.1 -0.1)">
       <defs>
        <path id="Roboto-Regular-38" d="M 3138 3363 
Q 3138 3022 2958 2756 
Q 2778 2491 2472 2341 
Q 2828 2188 3036 1894 
Q 3244 1600 3244 1228 
Q 3244 638 2845 287 
Q 2447 -63 1797 -63 
Q 1141 -63 745 289 
Q 350 641 350 1228 
Q 350 1597 551 1894 
Q 753 2191 1109 2344 
Q 806 2494 631 2759 
Q 456 3025 456 3363 
Q 456 3938 825 4275 
Q 1194 4613 1797 4613 
Q 2397 4613 2767 4275 
Q 3138 3938 3138 3363 
z
M 2666 1241 
Q 2666 1622 2423 1862 
Q 2181 2103 1790 2103 
Q 1400 2103 1164 1865 
Q 928 1628 928 1240 
Q 928 853 1158 631 
Q 1388 409 1797 409 
Q 2203 409 2434 632 
Q 2666 856 2666 1241 
z
M 1797 4138 
Q 1456 4138 1245 3927 
Q 1034 3716 1034 3353 
Q 1034 3006 1242 2792 
Q 1450 2578 1797 2578 
Q 2144 2578 2351 2792 
Q 2559 3006 2559 3353 
Q 2559 3700 2343 3919 
Q 2128 4138 1797 4138 
z
" transform="scale(0.015625)"/>
       </defs>
       <use xlink:href="#Roboto-Regular-38"/>
       <use xlink:href="#Roboto-Regular-30" x="56.152344"/>
       <use xlink:href="#Roboto-Regular-2e" x="112.304688"/>
       <use xlink:href="#Roboto-Regular-30" x="138.623047"/>
       <use xlink:href="#Roboto-Regular-25" x="194.775391"/>
      </g>
     </g>
    </g>
    <g id="xtick_6">
     <g id="line2d_11">
      <path d="M 549.222321 224.64 
L 549.222321 7.2 
" clip-path="url(#p6eb37b9c4f)" style="fill: none; stroke-dasharray: 2.96,1.28; stroke-dashoffset: 0; stroke: #dddddd; stroke-width: 0.8"/>
     </g>
     <g id="line2d_12">
      <g>
       <use xlink:href="#m14558e491f" x="549.222321" y="224.64" style="stroke: #000000; stroke-width: 0.8"/>
      </g>
     </g>
     <g id="text_6">
      <!-- 100.0% -->
      <g transform="translate(533.012946 239.14)scale(0.1 -0.1)">
       <defs>
        <path id="Roboto-Regular-31" d="M 2278 0 
L 1697 0 
L 1697 3853 
L 531 3425 
L 531 3950 
L 2188 4572 
L 2278 4572 
L 2278 0 
z
" transform="scale(0.015625)"/>
       </defs>
       <use xlink:href="#Roboto-Regular-31"/>
       <use xlink:href="#Roboto-Regular-30" x="56.152344"/>
       <use xlink:href="#Roboto-Regular-30" x="112.304688"/>
       <use xlink:href="#Roboto-Regular-2e" x="168.457031"/>
       <use xlink:href="#Roboto-Regular-30" x="194.775391"/>
       <use xlink:href="#Roboto-Regular-25" x="250.927734"/>
      </g>
     </g>
    </g>
   </g>
   <g id="patch_3">
    <path d="M 17.79375 224.64 
L 575.79375 224.64 
" style="fill: none; stroke: #000000; stroke-width: 0.8; stroke-linejoin: miter; stroke-linecap: square"/>
   </g>
   <g id="patch_4">
    <path d="M 101.732826 178.966756 
Q 101.732826 148.441952 101.732826 119.035182 
" style="fill: none; stroke: #000000; stroke-linecap: round"/>
    <path d="M 100.232826 122.035182 
L 101.732826 119.035182 
L 103.232826 122.035182 
" style="fill: none; stroke: #000000; stroke-linecap: round"/>
   </g>
   <g id="text_7">
    <!-- BBVA Bancomer 31.59 % -->
    <g transform="translate(59.48556 188.586797)scale(0.075 -0.075)">
     <defs>
      <path id="Roboto-Bold-42" d="M 406 0 
L 406 4550 
L 2000 4550 
Q 2828 4550 3256 4233 
Q 3684 3916 3684 3303 
Q 3684 2969 3512 2714 
Q 3341 2459 3034 2341 
Q 3384 2253 3586 1987 
Q 3788 1722 3788 1338 
Q 3788 681 3369 343 
Q 2950 6 2175 0 
L 406 0 
z
M 1344 1981 
L 1344 753 
L 2147 753 
Q 2478 753 2664 911 
Q 2850 1069 2850 1347 
Q 2850 1972 2203 1981 
L 1344 1981 
z
M 1344 2644 
L 2038 2644 
Q 2747 2656 2747 3209 
Q 2747 3519 2567 3655 
Q 2388 3791 2000 3791 
L 1344 3791 
L 1344 2644 
z
" transform="scale(0.015625)"/>
      <path id="Roboto-Bold-56" d="M 2088 1128 
L 3119 4550 
L 4163 4550 
L 2578 0 
L 1600 0 
L 22 4550 
L 1063 4550 
L 2088 1128 
z
" transform="scale(0.015625)"/>
      <path id="Roboto-Bold-41" d="M 2975 938 
L 1331 938 
L 1019 0 
L 22 0 
L 1716 4550 
L 2584 4550 
L 4288 0 
L 3291 0 
L 2975 938 
z
M 1584 1697 
L 2722 1697 
L 2150 3400 
L 1584 1697 
z
" transform="scale(0.015625)"/>
      <path id="Roboto-Bold-20" transform="scale(0.015625)"/>
      <path id="Roboto-Bold-61" d="M 2306 0 
Q 2244 122 2216 303 
Q 1888 -63 1363 -63 
Q 866 -63 539 225 
Q 213 513 213 950 
Q 213 1488 611 1775 
Q 1009 2063 1763 2066 
L 2178 2066 
L 2178 2259 
Q 2178 2494 2058 2634 
Q 1938 2775 1678 2775 
Q 1450 2775 1320 2665 
Q 1191 2556 1191 2366 
L 288 2366 
Q 288 2659 469 2909 
Q 650 3159 981 3301 
Q 1313 3444 1725 3444 
Q 2350 3444 2717 3130 
Q 3084 2816 3084 2247 
L 3084 781 
Q 3088 300 3219 53 
L 3219 0 
L 2306 0 
z
M 1559 628 
Q 1759 628 1928 717 
Q 2097 806 2178 956 
L 2178 1538 
L 1841 1538 
Q 1163 1538 1119 1069 
L 1116 1016 
Q 1116 847 1234 737 
Q 1353 628 1559 628 
z
" transform="scale(0.015625)"/>
      <path id="Roboto-Bold-6e" d="M 1178 3381 
L 1206 2991 
Q 1569 3444 2178 3444 
Q 2716 3444 2978 3128 
Q 3241 2813 3247 2184 
L 3247 0 
L 2344 0 
L 2344 2163 
Q 2344 2450 2219 2579 
Q 2094 2709 1803 2709 
Q 1422 2709 1231 2384 
L 1231 0 
L 328 0 
L 328 3381 
L 1178 3381 
z
" transform="scale(0.015625)"/>
      <path id="Roboto-Bold-63" d="M 1753 666 
Q 2003 666 2159 803 
Q 2316 941 2322 1169 
L 3169 1169 
Q 3166 825 2981 539 
Q 2797 253 2476 95 
Q 2156 -63 1769 -63 
Q 1044 -63 625 398 
Q 206 859 206 1672 
L 206 1731 
Q 206 2513 622 2978 
Q 1038 3444 1763 3444 
Q 2397 3444 2780 3083 
Q 3163 2722 3169 2122 
L 2322 2122 
Q 2316 2384 2159 2548 
Q 2003 2713 1747 2713 
Q 1431 2713 1270 2483 
Q 1109 2253 1109 1738 
L 1109 1644 
Q 1109 1122 1268 894 
Q 1428 666 1753 666 
z
" transform="scale(0.015625)"/>
      <path id="Roboto-Bold-6f" d="M 206 1722 
Q 206 2225 400 2619 
Q 594 3013 958 3228 
Q 1322 3444 1803 3444 
Q 2488 3444 2920 3025 
Q 3353 2606 3403 1888 
L 3409 1656 
Q 3409 878 2975 407 
Q 2541 -63 1809 -63 
Q 1078 -63 642 406 
Q 206 875 206 1681 
L 206 1722 
z
M 1109 1656 
Q 1109 1175 1290 920 
Q 1472 666 1809 666 
Q 2138 666 2322 917 
Q 2506 1169 2506 1722 
Q 2506 2194 2322 2453 
Q 2138 2713 1803 2713 
Q 1472 2713 1290 2455 
Q 1109 2197 1109 1656 
z
" transform="scale(0.015625)"/>
      <path id="Roboto-Bold-6d" d="M 1194 3381 
L 1222 3003 
Q 1581 3444 2194 3444 
Q 2847 3444 3091 2928 
Q 3447 3444 4106 3444 
Q 4656 3444 4925 3123 
Q 5194 2803 5194 2159 
L 5194 0 
L 4288 0 
L 4288 2156 
Q 4288 2444 4175 2576 
Q 4063 2709 3778 2709 
Q 3372 2709 3216 2322 
L 3219 0 
L 2316 0 
L 2316 2153 
Q 2316 2447 2200 2578 
Q 2084 2709 1806 2709 
Q 1422 2709 1250 2391 
L 1250 0 
L 347 0 
L 347 3381 
L 1194 3381 
z
" transform="scale(0.015625)"/>
      <path id="Roboto-Bold-65" d="M 1903 -63 
Q 1159 -63 692 393 
Q 225 850 225 1609 
L 225 1697 
Q 225 2206 422 2607 
Q 619 3009 980 3226 
Q 1341 3444 1803 3444 
Q 2497 3444 2895 3006 
Q 3294 2569 3294 1766 
L 3294 1397 
L 1141 1397 
Q 1184 1066 1404 866 
Q 1625 666 1963 666 
Q 2484 666 2778 1044 
L 3222 547 
Q 3019 259 2672 98 
Q 2325 -63 1903 -63 
z
M 1800 2713 
Q 1531 2713 1364 2531 
Q 1197 2350 1150 2013 
L 2406 2013 
L 2406 2084 
Q 2400 2384 2244 2548 
Q 2088 2713 1800 2713 
z
" transform="scale(0.015625)"/>
      <path id="Roboto-Bold-72" d="M 2247 2534 
Q 2063 2559 1922 2559 
Q 1409 2559 1250 2213 
L 1250 0 
L 347 0 
L 347 3381 
L 1200 3381 
L 1225 2978 
Q 1497 3444 1978 3444 
Q 2128 3444 2259 3403 
L 2247 2534 
z
" transform="scale(0.015625)"/>
      <path id="Roboto-Bold-33" d="M 1228 2675 
L 1709 2675 
Q 2053 2675 2218 2847 
Q 2384 3019 2384 3303 
Q 2384 3578 2220 3731 
Q 2056 3884 1769 3884 
Q 1509 3884 1334 3742 
Q 1159 3600 1159 3372 
L 256 3372 
Q 256 3728 448 4011 
Q 641 4294 986 4453 
Q 1331 4613 1747 4613 
Q 2469 4613 2878 4267 
Q 3288 3922 3288 3316 
Q 3288 3003 3097 2740 
Q 2906 2478 2597 2338 
Q 2981 2200 3170 1925 
Q 3359 1650 3359 1275 
Q 3359 669 2917 303 
Q 2475 -63 1747 -63 
Q 1066 -63 633 296 
Q 200 656 200 1247 
L 1103 1247 
Q 1103 991 1295 828 
Q 1488 666 1769 666 
Q 2091 666 2273 836 
Q 2456 1006 2456 1288 
Q 2456 1969 1706 1969 
L 1228 1969 
L 1228 2675 
z
" transform="scale(0.015625)"/>
      <path id="Roboto-Bold-31" d="M 2503 0 
L 1600 0 
L 1600 3481 
L 522 3147 
L 522 3881 
L 2406 4556 
L 2503 4556 
L 2503 0 
z
" transform="scale(0.015625)"/>
      <path id="Roboto-Bold-2e" d="M 394 444 
Q 394 659 539 793 
Q 684 928 903 928 
Q 1125 928 1270 793 
Q 1416 659 1416 444 
Q 1416 231 1272 98 
Q 1128 -34 903 -34 
Q 681 -34 537 98 
Q 394 231 394 444 
z
" transform="scale(0.015625)"/>
      <path id="Roboto-Bold-35" d="M 444 2238 
L 706 4550 
L 3256 4550 
L 3256 3797 
L 1447 3797 
L 1334 2819 
Q 1656 2991 2019 2991 
Q 2669 2991 3037 2587 
Q 3406 2184 3406 1459 
Q 3406 1019 3220 670 
Q 3034 322 2687 129 
Q 2341 -63 1869 -63 
Q 1456 -63 1103 104 
Q 750 272 545 575 
Q 341 878 328 1266 
L 1222 1266 
Q 1250 981 1420 823 
Q 1591 666 1866 666 
Q 2172 666 2337 886 
Q 2503 1106 2503 1509 
Q 2503 1897 2312 2103 
Q 2122 2309 1772 2309 
Q 1450 2309 1250 2141 
L 1163 2059 
L 444 2238 
z
" transform="scale(0.015625)"/>
      <path id="Roboto-Bold-39" d="M 2422 1819 
Q 2069 1472 1597 1472 
Q 994 1472 631 1886 
Q 269 2300 269 3003 
Q 269 3450 464 3823 
Q 659 4197 1009 4405 
Q 1359 4613 1797 4613 
Q 2247 4613 2597 4388 
Q 2947 4163 3140 3741 
Q 3334 3319 3338 2775 
L 3338 2441 
Q 3338 1303 2772 653 
Q 2206 3 1169 -41 
L 947 -44 
L 947 709 
L 1147 713 
Q 2325 766 2422 1819 
z
M 1819 2163 
Q 2038 2163 2195 2275 
Q 2353 2388 2434 2547 
L 2434 2919 
Q 2434 3378 2259 3631 
Q 2084 3884 1791 3884 
Q 1519 3884 1344 3636 
Q 1169 3388 1169 3013 
Q 1169 2641 1339 2402 
Q 1509 2163 1819 2163 
z
" transform="scale(0.015625)"/>
      <path id="Roboto-Bold-25" d="M 297 3675 
Q 297 4094 569 4355 
Q 841 4616 1281 4616 
Q 1728 4616 2000 4358 
Q 2272 4100 2272 3659 
L 2272 3434 
Q 2272 3013 2000 2756 
Q 1728 2500 1288 2500 
Q 844 2500 570 2758 
Q 297 3016 297 3453 
L 297 3675 
z
M 897 3434 
Q 897 3247 1005 3133 
Q 1113 3019 1288 3019 
Q 1463 3019 1566 3134 
Q 1669 3250 1669 3444 
L 1669 3675 
Q 1669 3863 1566 3978 
Q 1463 4094 1281 4094 
Q 1109 4094 1003 3980 
Q 897 3866 897 3663 
L 897 3434 
z
M 2472 1116 
Q 2472 1538 2747 1795 
Q 3022 2053 3459 2053 
Q 3903 2053 4176 1798 
Q 4450 1544 4450 1097 
L 4450 872 
Q 4450 453 4181 195 
Q 3913 -63 3466 -63 
Q 3016 -63 2744 196 
Q 2472 456 2472 884 
L 2472 1116 
z
M 3072 872 
Q 3072 700 3184 578 
Q 3297 456 3466 456 
Q 3847 456 3847 878 
L 3847 1116 
Q 3847 1303 3740 1417 
Q 3634 1531 3459 1531 
Q 3284 1531 3178 1417 
Q 3072 1303 3072 1106 
L 3072 872 
z
M 1466 341 
L 1025 578 
L 3247 4134 
L 3688 3897 
L 1466 341 
z
" transform="scale(0.015625)"/>
     </defs>
     <use xlink:href="#Roboto-Bold-42"/>
     <use xlink:href="#Roboto-Bold-42" x="63.818359"/>
     <use xlink:href="#Roboto-Bold-56" x="127.636719"/>
     <use xlink:href="#Roboto-Bold-41" x="193.017578"/>
     <use xlink:href="#Roboto-Bold-20" x="260.302734"/>
     <use xlink:href="#Roboto-Bold-42" x="285.205078"/>
     <use xlink:href="#Roboto-Bold-61" x="349.023438"/>
     <use xlink:href="#Roboto-Bold-6e" x="402.636719"/>
     <use xlink:href="#Roboto-Bold-63" x="458.642578"/>
     <use xlink:href="#Roboto-Bold-6f" x="510.791016"/>
     <use xlink:href="#Roboto-Bold-6d" x="567.333984"/>
     <use xlink:href="#Roboto-Bold-65" x="653.90625"/>
     <use xlink:href="#Roboto-Bold-72" x="707.958984"/>
     <use xlink:href="#Roboto-Bold-20" x="744.433594"/>
     <use xlink:href="#Roboto-Bold-33" x="769.335938"/>
     <use xlink:href="#Roboto-Bold-31" x="826.708984"/>
     <use xlink:href="#Roboto-Bold-2e" x="884.082031"/>
     <use xlink:href="#Roboto-Bold-35" x="913.134766"/>
     <use xlink:href="#Roboto-Bold-39" x="970.507812"/>
     <use xlink:href="#Roboto-Bold-20" x="1027.880859"/>
     <use xlink:href="#Roboto-Bold-25" x="1052.783203"/>
    </g>
    <!-- (MXN 125 Bn.) -->
    <g transform="translate(76.874428 197.211797)scale(0.075 -0.075)">
     <defs>
      <path id="Roboto-Bold-28" d="M 388 1850 
Q 388 2566 578 3212 
Q 769 3859 1141 4357 
Q 1513 4856 1947 5050 
L 2122 4563 
Q 1666 4225 1409 3519 
Q 1153 2813 1153 1869 
L 1153 1772 
Q 1153 825 1406 115 
Q 1659 -594 2122 -944 
L 1947 -1422 
Q 1522 -1231 1155 -748 
Q 788 -266 594 365 
Q 400 997 388 1684 
L 388 1850 
z
" transform="scale(0.015625)"/>
      <path id="Roboto-Bold-4d" d="M 1631 4550 
L 2800 1250 
L 3963 4550 
L 5194 4550 
L 5194 0 
L 4253 0 
L 4253 1244 
L 4347 3391 
L 3119 0 
L 2475 0 
L 1250 3388 
L 1344 1244 
L 1344 0 
L 406 0 
L 406 4550 
L 1631 4550 
z
" transform="scale(0.015625)"/>
      <path id="Roboto-Bold-58" d="M 2034 2981 
L 2888 4550 
L 3966 4550 
L 2641 2294 
L 4000 0 
L 2909 0 
L 2034 1594 
L 1159 0 
L 69 0 
L 1428 2294 
L 103 4550 
L 1181 4550 
L 2034 2981 
z
" transform="scale(0.015625)"/>
      <path id="Roboto-Bold-4e" d="M 4106 0 
L 3169 0 
L 1344 2994 
L 1344 0 
L 406 0 
L 406 4550 
L 1344 4550 
L 3172 1550 
L 3172 4550 
L 4106 4550 
L 4106 0 
z
" transform="scale(0.015625)"/>
      <path id="Roboto-Bold-32" d="M 3428 0 
L 309 0 
L 309 619 
L 1781 2188 
Q 2084 2519 2229 2766 
Q 2375 3013 2375 3234 
Q 2375 3538 2222 3711 
Q 2069 3884 1784 3884 
Q 1478 3884 1301 3673 
Q 1125 3463 1125 3119 
L 219 3119 
Q 219 3534 417 3878 
Q 616 4222 978 4417 
Q 1341 4613 1800 4613 
Q 2503 4613 2892 4275 
Q 3281 3938 3281 3322 
Q 3281 2984 3106 2634 
Q 2931 2284 2506 1819 
L 1472 728 
L 3428 728 
L 3428 0 
z
" transform="scale(0.015625)"/>
      <path id="Roboto-Bold-29" d="M 1903 1778 
Q 1903 1072 1700 419 
Q 1497 -234 1115 -734 
Q 734 -1234 300 -1422 
L 125 -944 
Q 569 -609 825 87 
Q 1081 784 1091 1691 
L 1091 1856 
Q 1091 2791 836 3503 
Q 581 4216 125 4572 
L 300 5050 
Q 725 4866 1101 4381 
Q 1478 3897 1686 3253 
Q 1894 2609 1903 1919 
L 1903 1778 
z
" transform="scale(0.015625)"/>
     </defs>
     <use xlink:href="#Roboto-Bold-28"/>
     <use xlink:href="#Roboto-Bold-4d" x="35.107422"/>
     <use xlink:href="#Roboto-Bold-58" x="122.705078"/>
     <use xlink:href="#Roboto-Bold-4e" x="186.230469"/>
     <use xlink:href="#Roboto-Bold-20" x="256.835938"/>
     <use xlink:href="#Roboto-Bold-31" x="281.738281"/>
     <use xlink:href="#Roboto-Bold-32" x="339.111328"/>
     <use xlink:href="#Roboto-Bold-35" x="396.484375"/>
     <use xlink:href="#Roboto-Bold-20" x="453.857422"/>
     <use xlink:href="#Roboto-Bold-42" x="478.759766"/>
     <use xlink:href="#Roboto-Bold-6e" x="542.578125"/>
     <use xlink:href="#Roboto-Bold-2e" x="598.583984"/>
     <use xlink:href="#Roboto-Bold-29" x="627.636719"/>
    </g>
   </g>
   <g id="patch_5">
    <path d="M 17.79375 144.912 
L 185.671902 144.912 
L 185.671902 86.928 
L 17.79375 86.928 
z
" clip-path="url(#p6eb37b9c4f)" style="fill: #08306b; stroke: #000000; stroke-linejoin: miter"/>
   </g>
   <g id="patch_6">
    <path d="M 251.992541 52.873244 
Q 251.992541 83.398048 251.992541 112.804818 
" style="fill: none; stroke: #000000; stroke-linecap: round"/>
    <path d="M 253.492541 109.804818 
L 251.992541 112.804818 
L 250.492541 109.804818 
" style="fill: none; stroke: #000000; stroke-linecap: round"/>
   </g>
   <g id="text_8">
    <!-- Banamex 24.96 % -->
    <g transform="translate(221.965588 38.586797)scale(0.075 -0.075)">
     <defs>
      <path id="Roboto-Bold-78" d="M 1634 2372 
L 2203 3381 
L 3169 3381 
L 2206 1725 
L 3209 0 
L 2241 0 
L 1638 1063 
L 1038 0 
L 66 0 
L 1069 1725 
L 109 3381 
L 1078 3381 
L 1634 2372 
z
" transform="scale(0.015625)"/>
      <path id="Roboto-Bold-34" d="M 2981 1713 
L 3497 1713 
L 3497 984 
L 2981 984 
L 2981 0 
L 2078 0 
L 2078 984 
L 213 984 
L 172 1553 
L 2069 4550 
L 2981 4550 
L 2981 1713 
z
M 1072 1713 
L 2078 1713 
L 2078 3319 
L 2019 3216 
L 1072 1713 
z
" transform="scale(0.015625)"/>
      <path id="Roboto-Bold-36" d="M 2759 4597 
L 2759 3853 
L 2672 3853 
Q 2059 3844 1686 3534 
Q 1313 3225 1238 2675 
Q 1600 3044 2153 3044 
Q 2747 3044 3097 2619 
Q 3447 2194 3447 1500 
Q 3447 1056 3255 697 
Q 3063 338 2711 137 
Q 2359 -63 1916 -63 
Q 1197 -63 755 437 
Q 313 938 313 1772 
L 313 2097 
Q 313 2838 592 3405 
Q 872 3972 1395 4283 
Q 1919 4594 2609 4597 
L 2759 4597 
z
M 1878 2319 
Q 1659 2319 1481 2205 
Q 1303 2091 1219 1903 
L 1219 1628 
Q 1219 1175 1397 920 
Q 1575 666 1897 666 
Q 2188 666 2367 895 
Q 2547 1125 2547 1491 
Q 2547 1863 2365 2091 
Q 2184 2319 1878 2319 
z
" transform="scale(0.015625)"/>
     </defs>
     <use xlink:href="#Roboto-Bold-42"/>
     <use xlink:href="#Roboto-Bold-61" x="63.818359"/>
     <use xlink:href="#Roboto-Bold-6e" x="117.431641"/>
     <use xlink:href="#Roboto-Bold-61" x="173.4375"/>
     <use xlink:href="#Roboto-Bold-6d" x="227.050781"/>
     <use xlink:href="#Roboto-Bold-65" x="313.623047"/>
     <use xlink:href="#Roboto-Bold-78" x="367.675781"/>
     <use xlink:href="#Roboto-Bold-20" x="418.554688"/>
     <use xlink:href="#Roboto-Bold-32" x="443.457031"/>
     <use xlink:href="#Roboto-Bold-34" x="500.830078"/>
     <use xlink:href="#Roboto-Bold-2e" x="558.203125"/>
     <use xlink:href="#Roboto-Bold-39" x="587.255859"/>
     <use xlink:href="#Roboto-Bold-36" x="644.628906"/>
     <use xlink:href="#Roboto-Bold-20" x="702.001953"/>
     <use xlink:href="#Roboto-Bold-25" x="726.904297"/>
    </g>
    <!-- (MXN 99 Bn.) -->
    <g transform="translate(229.285705 47.211797)scale(0.075 -0.075)">
     <use xlink:href="#Roboto-Bold-28"/>
     <use xlink:href="#Roboto-Bold-4d" x="35.107422"/>
     <use xlink:href="#Roboto-Bold-58" x="122.705078"/>
     <use xlink:href="#Roboto-Bold-4e" x="186.230469"/>
     <use xlink:href="#Roboto-Bold-20" x="256.835938"/>
     <use xlink:href="#Roboto-Bold-39" x="281.738281"/>
     <use xlink:href="#Roboto-Bold-39" x="339.111328"/>
     <use xlink:href="#Roboto-Bold-20" x="396.484375"/>
     <use xlink:href="#Roboto-Bold-42" x="421.386719"/>
     <use xlink:href="#Roboto-Bold-6e" x="485.205078"/>
     <use xlink:href="#Roboto-Bold-2e" x="541.210938"/>
     <use xlink:href="#Roboto-Bold-29" x="570.263672"/>
    </g>
   </g>
   <g id="patch_7">
    <path d="M 185.671902 144.912 
L 318.31318 144.912 
L 318.31318 86.928 
L 185.671902 86.928 
z
" clip-path="url(#p6eb37b9c4f)" style="fill: #105ca4; stroke: #000000; stroke-linejoin: miter"/>
   </g>
   <g id="patch_8">
    <path d="M 354.919106 178.966756 
Q 354.919106 148.441952 354.919106 119.035182 
" style="fill: none; stroke: #000000; stroke-linecap: round"/>
    <path d="M 353.419106 122.035182 
L 354.919106 119.035182 
L 356.419106 122.035182 
" style="fill: none; stroke: #000000; stroke-linecap: round"/>
   </g>
   <g id="text_9">
    <!-- Santander México 13.78 % -->
    <g transform="translate(310.062661 188.586797)scale(0.075 -0.075)">
     <defs>
      <path id="Roboto-Bold-53" d="M 2766 1194 
Q 2766 1459 2578 1601 
Q 2391 1744 1903 1901 
Q 1416 2059 1131 2213 
Q 356 2631 356 3341 
Q 356 3709 564 3998 
Q 772 4288 1161 4450 
Q 1550 4613 2034 4613 
Q 2522 4613 2903 4436 
Q 3284 4259 3495 3937 
Q 3706 3616 3706 3206 
L 2769 3206 
Q 2769 3519 2572 3692 
Q 2375 3866 2019 3866 
Q 1675 3866 1484 3720 
Q 1294 3575 1294 3338 
Q 1294 3116 1517 2966 
Q 1741 2816 2175 2684 
Q 2975 2444 3340 2087 
Q 3706 1731 3706 1200 
Q 3706 609 3259 273 
Q 2813 -63 2056 -63 
Q 1531 -63 1100 129 
Q 669 322 442 656 
Q 216 991 216 1431 
L 1156 1431 
Q 1156 678 2056 678 
Q 2391 678 2578 814 
Q 2766 950 2766 1194 
z
" transform="scale(0.015625)"/>
      <path id="Roboto-Bold-74" d="M 1428 4213 
L 1428 3381 
L 2006 3381 
L 2006 2719 
L 1428 2719 
L 1428 1031 
Q 1428 844 1500 762 
Q 1572 681 1775 681 
Q 1925 681 2041 703 
L 2041 19 
Q 1775 -63 1494 -63 
Q 544 -63 525 897 
L 525 2719 
L 31 2719 
L 31 3381 
L 525 3381 
L 525 4213 
L 1428 4213 
z
" transform="scale(0.015625)"/>
      <path id="Roboto-Bold-64" d="M 206 1716 
Q 206 2506 561 2975 
Q 916 3444 1531 3444 
Q 2025 3444 2347 3075 
L 2347 4800 
L 3253 4800 
L 3253 0 
L 2438 0 
L 2394 359 
Q 2056 -63 1525 -63 
Q 928 -63 567 407 
Q 206 878 206 1716 
z
M 1109 1650 
Q 1109 1175 1275 922 
Q 1441 669 1756 669 
Q 2175 669 2347 1022 
L 2347 2356 
Q 2178 2709 1763 2709 
Q 1109 2709 1109 1650 
z
" transform="scale(0.015625)"/>
      <path id="Roboto-Bold-e9" d="M 1903 -63 
Q 1159 -63 692 393 
Q 225 850 225 1609 
L 225 1697 
Q 225 2206 422 2607 
Q 619 3009 980 3226 
Q 1341 3444 1803 3444 
Q 2497 3444 2895 3006 
Q 3294 2569 3294 1766 
L 3294 1397 
L 1141 1397 
Q 1184 1066 1404 866 
Q 1625 666 1963 666 
Q 2484 666 2778 1044 
L 3222 547 
Q 3019 259 2672 98 
Q 2325 -63 1903 -63 
z
M 1800 2713 
Q 1531 2713 1364 2531 
Q 1197 2350 1150 2013 
L 2406 2013 
L 2406 2084 
Q 2400 2384 2244 2548 
Q 2088 2713 1800 2713 
z
M 1883 4800 
L 2868 4800 
L 2002 3831 
L 1268 3831 
L 1883 4800 
z
" transform="scale(0.015625)"/>
      <path id="Roboto-Bold-69" d="M 1300 0 
L 394 0 
L 394 3381 
L 1300 3381 
L 1300 0 
z
M 341 4256 
Q 341 4459 477 4590 
Q 613 4722 847 4722 
Q 1078 4722 1215 4590 
Q 1353 4459 1353 4256 
Q 1353 4050 1214 3919 
Q 1075 3788 847 3788 
Q 619 3788 480 3919 
Q 341 4050 341 4256 
z
" transform="scale(0.015625)"/>
      <path id="Roboto-Bold-37" d="M 3403 4044 
L 1644 0 
L 691 0 
L 2453 3819 
L 191 3819 
L 191 4550 
L 3403 4550 
L 3403 4044 
z
" transform="scale(0.015625)"/>
      <path id="Roboto-Bold-38" d="M 3275 3341 
Q 3275 3009 3109 2753 
Q 2944 2497 2653 2344 
Q 2984 2184 3178 1904 
Q 3372 1625 3372 1247 
Q 3372 641 2959 289 
Q 2547 -63 1837 -63 
Q 1128 -63 712 290 
Q 297 644 297 1247 
Q 297 1625 490 1906 
Q 684 2188 1013 2344 
Q 722 2497 558 2753 
Q 394 3009 394 3341 
Q 394 3922 781 4267 
Q 1169 4613 1834 4613 
Q 2497 4613 2886 4270 
Q 3275 3928 3275 3341 
z
M 2466 1313 
Q 2466 1609 2294 1787 
Q 2122 1966 1831 1966 
Q 1544 1966 1372 1789 
Q 1200 1613 1200 1313 
Q 1200 1022 1369 844 
Q 1538 666 1838 666 
Q 2131 666 2298 837 
Q 2466 1009 2466 1313 
z
M 2372 3297 
Q 2372 3563 2231 3723 
Q 2091 3884 1834 3884 
Q 1581 3884 1440 3728 
Q 1300 3572 1300 3297 
Q 1300 3025 1440 2859 
Q 1581 2694 1837 2694 
Q 2094 2694 2233 2859 
Q 2372 3025 2372 3297 
z
" transform="scale(0.015625)"/>
     </defs>
     <use xlink:href="#Roboto-Bold-53"/>
     <use xlink:href="#Roboto-Bold-61" x="61.474609"/>
     <use xlink:href="#Roboto-Bold-6e" x="115.087891"/>
     <use xlink:href="#Roboto-Bold-74" x="171.09375"/>
     <use xlink:href="#Roboto-Bold-61" x="204.882812"/>
     <use xlink:href="#Roboto-Bold-6e" x="258.496094"/>
     <use xlink:href="#Roboto-Bold-64" x="314.501953"/>
     <use xlink:href="#Roboto-Bold-65" x="370.849609"/>
     <use xlink:href="#Roboto-Bold-72" x="424.902344"/>
     <use xlink:href="#Roboto-Bold-20" x="461.376953"/>
     <use xlink:href="#Roboto-Bold-4d" x="486.279297"/>
     <use xlink:href="#Roboto-Bold-e9" x="573.876953"/>
     <use xlink:href="#Roboto-Bold-78" x="627.929688"/>
     <use xlink:href="#Roboto-Bold-69" x="678.808594"/>
     <use xlink:href="#Roboto-Bold-63" x="705.322266"/>
     <use xlink:href="#Roboto-Bold-6f" x="757.470703"/>
     <use xlink:href="#Roboto-Bold-20" x="814.013672"/>
     <use xlink:href="#Roboto-Bold-31" x="838.916016"/>
     <use xlink:href="#Roboto-Bold-33" x="896.289062"/>
     <use xlink:href="#Roboto-Bold-2e" x="953.662109"/>
     <use xlink:href="#Roboto-Bold-37" x="982.714844"/>
     <use xlink:href="#Roboto-Bold-38" x="1040.087891"/>
     <use xlink:href="#Roboto-Bold-20" x="1097.460938"/>
     <use xlink:href="#Roboto-Bold-25" x="1122.363281"/>
    </g>
    <!-- (MXN 55 Bn.) -->
    <g transform="translate(332.212271 197.211797)scale(0.075 -0.075)">
     <use xlink:href="#Roboto-Bold-28"/>
     <use xlink:href="#Roboto-Bold-4d" x="35.107422"/>
     <use xlink:href="#Roboto-Bold-58" x="122.705078"/>
     <use xlink:href="#Roboto-Bold-4e" x="186.230469"/>
     <use xlink:href="#Roboto-Bold-20" x="256.835938"/>
     <use xlink:href="#Roboto-Bold-35" x="281.738281"/>
     <use xlink:href="#Roboto-Bold-35" x="339.111328"/>
     <use xlink:href="#Roboto-Bold-20" x="396.484375"/>
     <use xlink:href="#Roboto-Bold-42" x="421.386719"/>
     <use xlink:href="#Roboto-Bold-6e" x="485.205078"/>
     <use xlink:href="#Roboto-Bold-2e" x="541.210938"/>
     <use xlink:href="#Roboto-Bold-29" x="570.263672"/>
    </g>
   </g>
   <g id="patch_9">
    <path d="M 318.31318 144.912 
L 391.525033 144.912 
L 391.525033 86.928 
L 318.31318 86.928 
z
" clip-path="url(#p6eb37b9c4f)" style="fill: #3787c0; stroke: #000000; stroke-linejoin: miter"/>
   </g>
   <g id="patch_10">
    <path d="M 419.21939 52.873244 
Q 419.21939 83.398048 419.21939 112.804818 
" style="fill: none; stroke: #000000; stroke-linecap: round"/>
    <path d="M 420.71939 109.804818 
L 419.21939 112.804818 
L 417.71939 109.804818 
" style="fill: none; stroke: #000000; stroke-linecap: round"/>
   </g>
   <g id="text_10">
    <!-- Banorte 10.42 % -->
    <g transform="translate(391.601812 38.586797)scale(0.075 -0.075)">
     <defs>
      <path id="Roboto-Bold-30" d="M 3372 1881 
Q 3372 938 2981 437 
Q 2591 -63 1838 -63 
Q 1094 -63 700 428 
Q 306 919 297 1834 
L 297 2672 
Q 297 3625 692 4119 
Q 1088 4613 1831 4613 
Q 2575 4613 2969 4123 
Q 3363 3634 3372 2719 
L 3372 1881 
z
M 2469 2800 
Q 2469 3366 2314 3623 
Q 2159 3881 1831 3881 
Q 1513 3881 1361 3636 
Q 1209 3391 1200 2869 
L 1200 1763 
Q 1200 1206 1351 936 
Q 1503 666 1838 666 
Q 2169 666 2316 925 
Q 2463 1184 2469 1719 
L 2469 2800 
z
" transform="scale(0.015625)"/>
     </defs>
     <use xlink:href="#Roboto-Bold-42"/>
     <use xlink:href="#Roboto-Bold-61" x="63.818359"/>
     <use xlink:href="#Roboto-Bold-6e" x="117.431641"/>
     <use xlink:href="#Roboto-Bold-6f" x="173.4375"/>
     <use xlink:href="#Roboto-Bold-72" x="229.980469"/>
     <use xlink:href="#Roboto-Bold-74" x="266.455078"/>
     <use xlink:href="#Roboto-Bold-65" x="300.244141"/>
     <use xlink:href="#Roboto-Bold-20" x="354.296875"/>
     <use xlink:href="#Roboto-Bold-31" x="379.199219"/>
     <use xlink:href="#Roboto-Bold-30" x="436.572266"/>
     <use xlink:href="#Roboto-Bold-2e" x="493.945312"/>
     <use xlink:href="#Roboto-Bold-34" x="522.998047"/>
     <use xlink:href="#Roboto-Bold-32" x="580.371094"/>
     <use xlink:href="#Roboto-Bold-20" x="637.744141"/>
     <use xlink:href="#Roboto-Bold-25" x="662.646484"/>
    </g>
    <!-- (MXN 41 Bn.) -->
    <g transform="translate(396.512554 47.211797)scale(0.075 -0.075)">
     <use xlink:href="#Roboto-Bold-28"/>
     <use xlink:href="#Roboto-Bold-4d" x="35.107422"/>
     <use xlink:href="#Roboto-Bold-58" x="122.705078"/>
     <use xlink:href="#Roboto-Bold-4e" x="186.230469"/>
     <use xlink:href="#Roboto-Bold-20" x="256.835938"/>
     <use xlink:href="#Roboto-Bold-34" x="281.738281"/>
     <use xlink:href="#Roboto-Bold-31" x="339.111328"/>
     <use xlink:href="#Roboto-Bold-20" x="396.484375"/>
     <use xlink:href="#Roboto-Bold-42" x="421.386719"/>
     <use xlink:href="#Roboto-Bold-6e" x="485.205078"/>
     <use xlink:href="#Roboto-Bold-2e" x="541.210938"/>
     <use xlink:href="#Roboto-Bold-29" x="570.263672"/>
    </g>
   </g>
   <g id="patch_11">
    <path d="M 391.525033 144.912 
L 446.913746 144.912 
L 446.913746 86.928 
L 391.525033 86.928 
z
" clip-path="url(#p6eb37b9c4f)" style="fill: #6baed6; stroke: #000000; stroke-linejoin: miter"/>
   </g>
   <g id="patch_12">
    <path d="M 463.109743 178.966756 
Q 463.109743 148.441952 463.109743 119.035182 
" style="fill: none; stroke: #000000; stroke-linecap: round"/>
    <path d="M 461.609743 122.035182 
L 463.109743 119.035182 
L 464.609743 122.035182 
" style="fill: none; stroke: #000000; stroke-linecap: round"/>
   </g>
   <g id="text_11">
    <!-- HSBC México 6.1 % -->
    <g transform="translate(430.055251 188.586797)scale(0.075 -0.075)">
     <defs>
      <path id="Roboto-Bold-48" d="M 4109 0 
L 3172 0 
L 3172 1950 
L 1344 1950 
L 1344 0 
L 406 0 
L 406 4550 
L 1344 4550 
L 1344 2706 
L 3172 2706 
L 3172 4550 
L 4109 4550 
L 4109 0 
z
" transform="scale(0.015625)"/>
      <path id="Roboto-Bold-43" d="M 3978 1516 
Q 3925 781 3436 359 
Q 2947 -63 2147 -63 
Q 1272 -63 770 526 
Q 269 1116 269 2144 
L 269 2422 
Q 269 3078 500 3578 
Q 731 4078 1161 4345 
Q 1591 4613 2159 4613 
Q 2947 4613 3428 4191 
Q 3909 3769 3984 3006 
L 3047 3006 
Q 3013 3447 2802 3645 
Q 2591 3844 2159 3844 
Q 1691 3844 1458 3508 
Q 1225 3172 1219 2466 
L 1219 2122 
Q 1219 1384 1442 1043 
Q 1666 703 2147 703 
Q 2581 703 2795 901 
Q 3009 1100 3041 1516 
L 3978 1516 
z
" transform="scale(0.015625)"/>
     </defs>
     <use xlink:href="#Roboto-Bold-48"/>
     <use xlink:href="#Roboto-Bold-53" x="70.654297"/>
     <use xlink:href="#Roboto-Bold-42" x="132.128906"/>
     <use xlink:href="#Roboto-Bold-43" x="195.947266"/>
     <use xlink:href="#Roboto-Bold-20" x="261.376953"/>
     <use xlink:href="#Roboto-Bold-4d" x="286.279297"/>
     <use xlink:href="#Roboto-Bold-e9" x="373.876953"/>
     <use xlink:href="#Roboto-Bold-78" x="427.929688"/>
     <use xlink:href="#Roboto-Bold-69" x="478.808594"/>
     <use xlink:href="#Roboto-Bold-63" x="505.322266"/>
     <use xlink:href="#Roboto-Bold-6f" x="557.470703"/>
     <use xlink:href="#Roboto-Bold-20" x="614.013672"/>
     <use xlink:href="#Roboto-Bold-36" x="638.916016"/>
     <use xlink:href="#Roboto-Bold-2e" x="696.289062"/>
     <use xlink:href="#Roboto-Bold-31" x="725.341797"/>
     <use xlink:href="#Roboto-Bold-20" x="782.714844"/>
     <use xlink:href="#Roboto-Bold-25" x="807.617188"/>
    </g>
    <!-- (MXN 24 Bn.) -->
    <g transform="translate(440.402907 197.211797)scale(0.075 -0.075)">
     <use xlink:href="#Roboto-Bold-28"/>
     <use xlink:href="#Roboto-Bold-4d" x="35.107422"/>
     <use xlink:href="#Roboto-Bold-58" x="122.705078"/>
     <use xlink:href="#Roboto-Bold-4e" x="186.230469"/>
     <use xlink:href="#Roboto-Bold-20" x="256.835938"/>
     <use xlink:href="#Roboto-Bold-32" x="281.738281"/>
     <use xlink:href="#Roboto-Bold-34" x="339.111328"/>
     <use xlink:href="#Roboto-Bold-20" x="396.484375"/>
     <use xlink:href="#Roboto-Bold-42" x="421.386719"/>
     <use xlink:href="#Roboto-Bold-6e" x="485.205078"/>
     <use xlink:href="#Roboto-Bold-2e" x="541.210938"/>
     <use xlink:href="#Roboto-Bold-29" x="570.263672"/>
    </g>
   </g>
   <g id="patch_13">
    <path d="M 446.913746 144.912 
L 479.30574 144.912 
L 479.30574 86.928 
L 446.913746 86.928 
z
" clip-path="url(#p6eb37b9c4f)" style="fill: #abd0e6; stroke: #000000; stroke-linejoin: miter"/>
   </g>
   <g id="patch_14">
    <path d="M 488.050524 52.873244 
Q 488.050524 83.398048 488.050524 112.804818 
" style="fill: none; stroke: #000000; stroke-linecap: round"/>
    <path d="M 489.550524 109.804818 
L 488.050524 112.804818 
L 486.550524 109.804818 
" style="fill: none; stroke: #000000; stroke-linecap: round"/>
   </g>
   <g id="text_12">
    <!-- Banco Inbursa 3.29 % -->
    <g transform="translate(451.647399 38.586797)scale(0.075 -0.075)">
     <defs>
      <path id="Roboto-Bold-49" d="M 1403 0 
L 466 0 
L 466 4550 
L 1403 4550 
L 1403 0 
z
" transform="scale(0.015625)"/>
      <path id="Roboto-Bold-62" d="M 3394 1659 
Q 3394 847 3047 392 
Q 2700 -63 2078 -63 
Q 1528 -63 1200 359 
L 1159 0 
L 347 0 
L 347 4800 
L 1250 4800 
L 1250 3078 
Q 1563 3444 2072 3444 
Q 2691 3444 3042 2989 
Q 3394 2534 3394 1709 
L 3394 1659 
z
M 2491 1725 
Q 2491 2238 2328 2473 
Q 2166 2709 1844 2709 
Q 1413 2709 1250 2356 
L 1250 1022 
Q 1416 666 1850 666 
Q 2288 666 2425 1097 
Q 2491 1303 2491 1725 
z
" transform="scale(0.015625)"/>
      <path id="Roboto-Bold-75" d="M 2372 344 
Q 2038 -63 1447 -63 
Q 903 -63 617 250 
Q 331 563 325 1166 
L 325 3381 
L 1228 3381 
L 1228 1197 
Q 1228 669 1709 669 
Q 2169 669 2341 988 
L 2341 3381 
L 3247 3381 
L 3247 0 
L 2397 0 
L 2372 344 
z
" transform="scale(0.015625)"/>
      <path id="Roboto-Bold-73" d="M 2178 934 
Q 2178 1100 2014 1195 
Q 1850 1291 1488 1366 
Q 281 1619 281 2391 
Q 281 2841 654 3142 
Q 1028 3444 1631 3444 
Q 2275 3444 2661 3141 
Q 3047 2838 3047 2353 
L 2144 2353 
Q 2144 2547 2019 2673 
Q 1894 2800 1628 2800 
Q 1400 2800 1275 2697 
Q 1150 2594 1150 2434 
Q 1150 2284 1292 2192 
Q 1434 2100 1771 2033 
Q 2109 1966 2341 1881 
Q 3056 1619 3056 972 
Q 3056 509 2659 223 
Q 2263 -63 1634 -63 
Q 1209 -63 879 89 
Q 550 241 362 505 
Q 175 769 175 1075 
L 1031 1075 
Q 1044 834 1209 706 
Q 1375 578 1653 578 
Q 1913 578 2045 676 
Q 2178 775 2178 934 
z
" transform="scale(0.015625)"/>
     </defs>
     <use xlink:href="#Roboto-Bold-42"/>
     <use xlink:href="#Roboto-Bold-61" x="63.818359"/>
     <use xlink:href="#Roboto-Bold-6e" x="117.431641"/>
     <use xlink:href="#Roboto-Bold-63" x="173.4375"/>
     <use xlink:href="#Roboto-Bold-6f" x="225.585938"/>
     <use xlink:href="#Roboto-Bold-20" x="282.128906"/>
     <use xlink:href="#Roboto-Bold-49" x="307.03125"/>
     <use xlink:href="#Roboto-Bold-6e" x="336.181641"/>
     <use xlink:href="#Roboto-Bold-62" x="392.1875"/>
     <use xlink:href="#Roboto-Bold-75" x="448.486328"/>
     <use xlink:href="#Roboto-Bold-72" x="504.443359"/>
     <use xlink:href="#Roboto-Bold-73" x="540.917969"/>
     <use xlink:href="#Roboto-Bold-61" x="592.333984"/>
     <use xlink:href="#Roboto-Bold-20" x="645.947266"/>
     <use xlink:href="#Roboto-Bold-33" x="670.849609"/>
     <use xlink:href="#Roboto-Bold-2e" x="728.222656"/>
     <use xlink:href="#Roboto-Bold-32" x="757.275391"/>
     <use xlink:href="#Roboto-Bold-39" x="814.648438"/>
     <use xlink:href="#Roboto-Bold-20" x="872.021484"/>
     <use xlink:href="#Roboto-Bold-25" x="896.923828"/>
    </g>
    <!-- (MXN 13 Bn.) -->
    <g transform="translate(465.343688 47.211797)scale(0.075 -0.075)">
     <use xlink:href="#Roboto-Bold-28"/>
     <use xlink:href="#Roboto-Bold-4d" x="35.107422"/>
     <use xlink:href="#Roboto-Bold-58" x="122.705078"/>
     <use xlink:href="#Roboto-Bold-4e" x="186.230469"/>
     <use xlink:href="#Roboto-Bold-20" x="256.835938"/>
     <use xlink:href="#Roboto-Bold-31" x="281.738281"/>
     <use xlink:href="#Roboto-Bold-33" x="339.111328"/>
     <use xlink:href="#Roboto-Bold-20" x="396.484375"/>
     <use xlink:href="#Roboto-Bold-42" x="421.386719"/>
     <use xlink:href="#Roboto-Bold-6e" x="485.205078"/>
     <use xlink:href="#Roboto-Bold-2e" x="541.210938"/>
     <use xlink:href="#Roboto-Bold-29" x="570.263672"/>
    </g>
   </g>
   <g id="patch_15">
    <path d="M 479.30574 144.912 
L 496.795308 144.912 
L 496.795308 86.928 
L 479.30574 86.928 
z
" clip-path="url(#p6eb37b9c4f)" style="fill: #d6e6f4; stroke: #000000; stroke-linejoin: miter"/>
   </g>
   <g id="patch_16">
    <path d="M 523.008815 183.353101 
Q 523.008815 150.63463 523.008815 119.034192 
" style="fill: none; stroke: #000000; stroke-linecap: round"/>
    <path d="M 521.508815 122.034192 
L 523.008815 119.034192 
L 524.508815 122.034192 
" style="fill: none; stroke: #000000; stroke-linecap: round"/>
   </g>
   <g id="text_13">
    <!-- Others 9.87 % -->
    <g transform="translate(499.550807 192.970781)scale(0.075 -0.075)">
     <defs>
      <path id="Roboto-Bold-4f" d="M 4144 2172 
Q 4144 1500 3906 994 
Q 3669 488 3226 212 
Q 2784 -63 2213 -63 
Q 1647 -63 1203 209 
Q 759 481 515 986 
Q 272 1491 269 2147 
L 269 2372 
Q 269 3044 511 3555 
Q 753 4066 1195 4339 
Q 1638 4613 2206 4613 
Q 2775 4613 3217 4339 
Q 3659 4066 3901 3555 
Q 4144 3044 4144 2375 
L 4144 2172 
z
M 3194 2378 
Q 3194 3094 2937 3466 
Q 2681 3838 2206 3838 
Q 1734 3838 1478 3470 
Q 1222 3103 1219 2394 
L 1219 2172 
Q 1219 1475 1475 1090 
Q 1731 706 2213 706 
Q 2684 706 2937 1076 
Q 3191 1447 3194 2156 
L 3194 2378 
z
" transform="scale(0.015625)"/>
      <path id="Roboto-Bold-68" d="M 1228 3013 
Q 1588 3444 2131 3444 
Q 3231 3444 3247 2166 
L 3247 0 
L 2344 0 
L 2344 2141 
Q 2344 2431 2219 2570 
Q 2094 2709 1803 2709 
Q 1406 2709 1228 2403 
L 1228 0 
L 325 0 
L 325 4800 
L 1228 4800 
L 1228 3013 
z
" transform="scale(0.015625)"/>
     </defs>
     <use xlink:href="#Roboto-Bold-4f"/>
     <use xlink:href="#Roboto-Bold-74" x="69.042969"/>
     <use xlink:href="#Roboto-Bold-68" x="102.832031"/>
     <use xlink:href="#Roboto-Bold-65" x="158.789062"/>
     <use xlink:href="#Roboto-Bold-72" x="212.841797"/>
     <use xlink:href="#Roboto-Bold-73" x="249.316406"/>
     <use xlink:href="#Roboto-Bold-20" x="300.732422"/>
     <use xlink:href="#Roboto-Bold-39" x="325.634766"/>
     <use xlink:href="#Roboto-Bold-2e" x="383.007812"/>
     <use xlink:href="#Roboto-Bold-38" x="412.060547"/>
     <use xlink:href="#Roboto-Bold-37" x="469.433594"/>
     <use xlink:href="#Roboto-Bold-20" x="526.806641"/>
     <use xlink:href="#Roboto-Bold-25" x="551.708984"/>
    </g>
   </g>
   <g id="patch_17">
    <path d="M 496.795308 144.912 
L 549.222321 144.912 
L 549.222321 86.928 
L 496.795308 86.928 
z
" clip-path="url(#p6eb37b9c4f)" style="fill: #f7fbff; stroke: #000000; stroke-linejoin: miter"/>
   </g>
  </g>
 </g>
 <defs>
  <clipPath id="p6eb37b9c4f">
   <rect x="17.79375" y="7.2" width="558" height="217.44"/>
  </clipPath>
 </defs>
</svg>
