<?xml version="1.0" encoding="utf-8" standalone="no"?>
<!DOCTYPE svg PUBLIC "-//W3C//DTD SVG 1.1//EN"
  "http://www.w3.org/Graphics/SVG/1.1/DTD/svg11.dtd">
<svg xmlns:xlink="http://www.w3.org/1999/xlink" width="622.49375pt" height="270.328pt" viewBox="0 0 622.49375 270.328" xmlns="http://www.w3.org/2000/svg" version="1.1">
 <metadata>
  <rdf:RDF xmlns:dc="http://purl.org/dc/elements/1.1/" xmlns:cc="http://creativecommons.org/ns#" xmlns:rdf="http://www.w3.org/1999/02/22-rdf-syntax-ns#">
   <cc:Work>
    <dc:type rdf:resource="http://purl.org/dc/dcmitype/StillImage"/>
    <dc:date>2022-01-12T12:42:46.344027</dc:date>
    <dc:format>image/svg+xml</dc:format>
    <dc:creator>
     <cc:Agent>
      <dc:title>Matplotlib v3.5.1, https://matplotlib.org/</dc:title>
     </cc:Agent>
    </dc:creator>
   </cc:Work>
  </rdf:RDF>
 </metadata>
 <defs>
  <style type="text/css">*{stroke-linejoin: round; stroke-linecap: butt}</style>
 </defs>
 <g id="figure_1">
  <g id="patch_1">
   <path d="M 0 270.328 
L 622.49375 270.328 
L 622.49375 0 
L 0 0 
z
" style="fill: #ffffff"/>
  </g>
  <g id="axes_1">
   <g id="patch_2">
    <path d="M 57.29375 224.64 
L 615.29375 224.64 
L 615.29375 7.2 
L 57.29375 7.2 
z
" style="fill: #ffffff"/>
   </g>
   <g id="matplotlib.axis_1">
    <g id="xtick_1">
     <g id="line2d_1">
      <path d="M 84.818961 224.64 
L 84.818961 7.2 
" clip-path="url(#p21bd955631)" style="fill: none; stroke-dasharray: 2.96,1.28; stroke-dashoffset: 0; stroke: #dddddd; stroke-width: 0.8"/>
     </g>
     <g id="line2d_2">
      <defs>
       <path id="m5e4037aef9" d="M 0 0 
L 0 3.5 
" style="stroke: #000000; stroke-width: 0.8"/>
      </defs>
      <g>
       <use xlink:href="#m5e4037aef9" x="84.818961" y="224.64" style="stroke: #000000; stroke-width: 0.8"/>
      </g>
     </g>
     <g id="text_1">
      <!-- 2002 -->
      <g transform="translate(73.587711 239.14)scale(0.1 -0.1)">
       <defs>
        <path id="Roboto-Regular-32" d="M 3359 0 
L 378 0 
L 378 416 
L 1953 2166 
Q 2303 2563 2436 2811 
Q 2569 3059 2569 3325 
Q 2569 3681 2353 3909 
Q 2138 4138 1778 4138 
Q 1347 4138 1108 3892 
Q 869 3647 869 3209 
L 291 3209 
Q 291 3838 695 4225 
Q 1100 4613 1778 4613 
Q 2413 4613 2781 4280 
Q 3150 3947 3150 3394 
Q 3150 2722 2294 1794 
L 1075 472 
L 3359 472 
L 3359 0 
z
" transform="scale(0.015625)"/>
        <path id="Roboto-Regular-30" d="M 3231 1941 
Q 3231 925 2884 431 
Q 2538 -63 1800 -63 
Q 1072 -63 722 420 
Q 372 903 359 1863 
L 359 2634 
Q 359 3638 706 4125 
Q 1053 4613 1794 4613 
Q 2528 4613 2875 4142 
Q 3222 3672 3231 2691 
L 3231 1941 
z
M 2653 2731 
Q 2653 3466 2447 3802 
Q 2241 4138 1794 4138 
Q 1350 4138 1147 3803 
Q 944 3469 938 2775 
L 938 1850 
Q 938 1113 1152 761 
Q 1366 409 1800 409 
Q 2228 409 2436 740 
Q 2644 1072 2653 1784 
L 2653 2731 
z
" transform="scale(0.015625)"/>
       </defs>
       <use xlink:href="#Roboto-Regular-32"/>
       <use xlink:href="#Roboto-Regular-30" x="56.152344"/>
       <use xlink:href="#Roboto-Regular-30" x="112.304688"/>
       <use xlink:href="#Roboto-Regular-32" x="168.457031"/>
      </g>
     </g>
    </g>
    <g id="xtick_2">
     <g id="line2d_3">
      <path d="M 135.720554 224.64 
L 135.720554 7.2 
" clip-path="url(#p21bd955631)" style="fill: none; stroke-dasharray: 2.96,1.28; stroke-dashoffset: 0; stroke: #dddddd; stroke-width: 0.8"/>
     </g>
     <g id="line2d_4">
      <g>
       <use xlink:href="#m5e4037aef9" x="135.720554" y="224.64" style="stroke: #000000; stroke-width: 0.8"/>
      </g>
     </g>
     <g id="text_2">
      <!-- 2004 -->
      <g transform="translate(124.489304 239.14)scale(0.1 -0.1)">
       <defs>
        <path id="Roboto-Regular-34" d="M 2819 1528 
L 3450 1528 
L 3450 1056 
L 2819 1056 
L 2819 0 
L 2238 0 
L 2238 1056 
L 166 1056 
L 166 1397 
L 2203 4550 
L 2819 4550 
L 2819 1528 
z
M 822 1528 
L 2238 1528 
L 2238 3759 
L 2169 3634 
L 822 1528 
z
" transform="scale(0.015625)"/>
       </defs>
       <use xlink:href="#Roboto-Regular-32"/>
       <use xlink:href="#Roboto-Regular-30" x="56.152344"/>
       <use xlink:href="#Roboto-Regular-30" x="112.304688"/>
       <use xlink:href="#Roboto-Regular-34" x="168.457031"/>
      </g>
     </g>
    </g>
    <g id="xtick_3">
     <g id="line2d_5">
      <path d="M 186.691876 224.64 
L 186.691876 7.2 
" clip-path="url(#p21bd955631)" style="fill: none; stroke-dasharray: 2.96,1.28; stroke-dashoffset: 0; stroke: #dddddd; stroke-width: 0.8"/>
     </g>
     <g id="line2d_6">
      <g>
       <use xlink:href="#m5e4037aef9" x="186.691876" y="224.64" style="stroke: #000000; stroke-width: 0.8"/>
      </g>
     </g>
     <g id="text_3">
      <!-- 2006 -->
      <g transform="translate(175.460626 239.14)scale(0.1 -0.1)">
       <defs>
        <path id="Roboto-Regular-36" d="M 2647 4553 
L 2647 4063 
L 2541 4063 
Q 1866 4050 1466 3662 
Q 1066 3275 1003 2572 
Q 1363 2984 1984 2984 
Q 2578 2984 2933 2565 
Q 3288 2147 3288 1484 
Q 3288 781 2905 359 
Q 2522 -63 1878 -63 
Q 1225 -63 819 439 
Q 413 941 413 1731 
L 413 1953 
Q 413 3209 948 3873 
Q 1484 4538 2544 4553 
L 2647 4553 
z
M 1888 2503 
Q 1591 2503 1341 2325 
Q 1091 2147 994 1878 
L 994 1666 
Q 994 1103 1247 759 
Q 1500 416 1878 416 
Q 2269 416 2492 703 
Q 2716 991 2716 1456 
Q 2716 1925 2489 2214 
Q 2263 2503 1888 2503 
z
" transform="scale(0.015625)"/>
       </defs>
       <use xlink:href="#Roboto-Regular-32"/>
       <use xlink:href="#Roboto-Regular-30" x="56.152344"/>
       <use xlink:href="#Roboto-Regular-30" x="112.304688"/>
       <use xlink:href="#Roboto-Regular-36" x="168.457031"/>
      </g>
     </g>
    </g>
    <g id="xtick_4">
     <g id="line2d_7">
      <path d="M 237.593469 224.64 
L 237.593469 7.2 
" clip-path="url(#p21bd955631)" style="fill: none; stroke-dasharray: 2.96,1.28; stroke-dashoffset: 0; stroke: #dddddd; stroke-width: 0.8"/>
     </g>
     <g id="line2d_8">
      <g>
       <use xlink:href="#m5e4037aef9" x="237.593469" y="224.64" style="stroke: #000000; stroke-width: 0.8"/>
      </g>
     </g>
     <g id="text_4">
      <!-- 2008 -->
      <g transform="translate(226.362219 239.14)scale(0.1 -0.1)">
       <defs>
        <path id="Roboto-Regular-38" d="M 3138 3363 
Q 3138 3022 2958 2756 
Q 2778 2491 2472 2341 
Q 2828 2188 3036 1894 
Q 3244 1600 3244 1228 
Q 3244 638 2845 287 
Q 2447 -63 1797 -63 
Q 1141 -63 745 289 
Q 350 641 350 1228 
Q 350 1597 551 1894 
Q 753 2191 1109 2344 
Q 806 2494 631 2759 
Q 456 3025 456 3363 
Q 456 3938 825 4275 
Q 1194 4613 1797 4613 
Q 2397 4613 2767 4275 
Q 3138 3938 3138 3363 
z
M 2666 1241 
Q 2666 1622 2423 1862 
Q 2181 2103 1790 2103 
Q 1400 2103 1164 1865 
Q 928 1628 928 1240 
Q 928 853 1158 631 
Q 1388 409 1797 409 
Q 2203 409 2434 632 
Q 2666 856 2666 1241 
z
M 1797 4138 
Q 1456 4138 1245 3927 
Q 1034 3716 1034 3353 
Q 1034 3006 1242 2792 
Q 1450 2578 1797 2578 
Q 2144 2578 2351 2792 
Q 2559 3006 2559 3353 
Q 2559 3700 2343 3919 
Q 2128 4138 1797 4138 
z
" transform="scale(0.015625)"/>
       </defs>
       <use xlink:href="#Roboto-Regular-32"/>
       <use xlink:href="#Roboto-Regular-30" x="56.152344"/>
       <use xlink:href="#Roboto-Regular-30" x="112.304688"/>
       <use xlink:href="#Roboto-Regular-38" x="168.457031"/>
      </g>
     </g>
    </g>
    <g id="xtick_5">
     <g id="line2d_9">
      <path d="M 288.56479 224.64 
L 288.56479 7.2 
" clip-path="url(#p21bd955631)" style="fill: none; stroke-dasharray: 2.96,1.28; stroke-dashoffset: 0; stroke: #dddddd; stroke-width: 0.8"/>
     </g>
     <g id="line2d_10">
      <g>
       <use xlink:href="#m5e4037aef9" x="288.56479" y="224.64" style="stroke: #000000; stroke-width: 0.8"/>
      </g>
     </g>
     <g id="text_5">
      <!-- 2010 -->
      <g transform="translate(277.33354 239.14)scale(0.1 -0.1)">
       <defs>
        <path id="Roboto-Regular-31" d="M 2278 0 
L 1697 0 
L 1697 3853 
L 531 3425 
L 531 3950 
L 2188 4572 
L 2278 4572 
L 2278 0 
z
" transform="scale(0.015625)"/>
       </defs>
       <use xlink:href="#Roboto-Regular-32"/>
       <use xlink:href="#Roboto-Regular-30" x="56.152344"/>
       <use xlink:href="#Roboto-Regular-31" x="112.304688"/>
       <use xlink:href="#Roboto-Regular-30" x="168.457031"/>
      </g>
     </g>
    </g>
    <g id="xtick_6">
     <g id="line2d_11">
      <path d="M 339.466384 224.64 
L 339.466384 7.2 
" clip-path="url(#p21bd955631)" style="fill: none; stroke-dasharray: 2.96,1.28; stroke-dashoffset: 0; stroke: #dddddd; stroke-width: 0.8"/>
     </g>
     <g id="line2d_12">
      <g>
       <use xlink:href="#m5e4037aef9" x="339.466384" y="224.64" style="stroke: #000000; stroke-width: 0.8"/>
      </g>
     </g>
     <g id="text_6">
      <!-- 2012 -->
      <g transform="translate(328.235134 239.14)scale(0.1 -0.1)">
       <use xlink:href="#Roboto-Regular-32"/>
       <use xlink:href="#Roboto-Regular-30" x="56.152344"/>
       <use xlink:href="#Roboto-Regular-31" x="112.304688"/>
       <use xlink:href="#Roboto-Regular-32" x="168.457031"/>
      </g>
     </g>
    </g>
    <g id="xtick_7">
     <g id="line2d_13">
      <path d="M 390.437705 224.64 
L 390.437705 7.2 
" clip-path="url(#p21bd955631)" style="fill: none; stroke-dasharray: 2.96,1.28; stroke-dashoffset: 0; stroke: #dddddd; stroke-width: 0.8"/>
     </g>
     <g id="line2d_14">
      <g>
       <use xlink:href="#m5e4037aef9" x="390.437705" y="224.64" style="stroke: #000000; stroke-width: 0.8"/>
      </g>
     </g>
     <g id="text_7">
      <!-- 2014 -->
      <g transform="translate(379.206455 239.14)scale(0.1 -0.1)">
       <use xlink:href="#Roboto-Regular-32"/>
       <use xlink:href="#Roboto-Regular-30" x="56.152344"/>
       <use xlink:href="#Roboto-Regular-31" x="112.304688"/>
       <use xlink:href="#Roboto-Regular-34" x="168.457031"/>
      </g>
     </g>
    </g>
    <g id="xtick_8">
     <g id="line2d_15">
      <path d="M 441.339298 224.64 
L 441.339298 7.2 
" clip-path="url(#p21bd955631)" style="fill: none; stroke-dasharray: 2.96,1.28; stroke-dashoffset: 0; stroke: #dddddd; stroke-width: 0.8"/>
     </g>
     <g id="line2d_16">
      <g>
       <use xlink:href="#m5e4037aef9" x="441.339298" y="224.64" style="stroke: #000000; stroke-width: 0.8"/>
      </g>
     </g>
     <g id="text_8">
      <!-- 2016 -->
      <g transform="translate(430.108048 239.14)scale(0.1 -0.1)">
       <use xlink:href="#Roboto-Regular-32"/>
       <use xlink:href="#Roboto-Regular-30" x="56.152344"/>
       <use xlink:href="#Roboto-Regular-31" x="112.304688"/>
       <use xlink:href="#Roboto-Regular-36" x="168.457031"/>
      </g>
     </g>
    </g>
    <g id="xtick_9">
     <g id="line2d_17">
      <path d="M 492.31062 224.64 
L 492.31062 7.2 
" clip-path="url(#p21bd955631)" style="fill: none; stroke-dasharray: 2.96,1.28; stroke-dashoffset: 0; stroke: #dddddd; stroke-width: 0.8"/>
     </g>
     <g id="line2d_18">
      <g>
       <use xlink:href="#m5e4037aef9" x="492.31062" y="224.64" style="stroke: #000000; stroke-width: 0.8"/>
      </g>
     </g>
     <g id="text_9">
      <!-- 2018 -->
      <g transform="translate(481.07937 239.14)scale(0.1 -0.1)">
       <use xlink:href="#Roboto-Regular-32"/>
       <use xlink:href="#Roboto-Regular-30" x="56.152344"/>
       <use xlink:href="#Roboto-Regular-31" x="112.304688"/>
       <use xlink:href="#Roboto-Regular-38" x="168.457031"/>
      </g>
     </g>
    </g>
    <g id="xtick_10">
     <g id="line2d_19">
      <path d="M 543.212213 224.64 
L 543.212213 7.2 
" clip-path="url(#p21bd955631)" style="fill: none; stroke-dasharray: 2.96,1.28; stroke-dashoffset: 0; stroke: #dddddd; stroke-width: 0.8"/>
     </g>
     <g id="line2d_20">
      <g>
       <use xlink:href="#m5e4037aef9" x="543.212213" y="224.64" style="stroke: #000000; stroke-width: 0.8"/>
      </g>
     </g>
     <g id="text_10">
      <!-- 2020 -->
      <g transform="translate(531.980963 239.14)scale(0.1 -0.1)">
       <use xlink:href="#Roboto-Regular-32"/>
       <use xlink:href="#Roboto-Regular-30" x="56.152344"/>
       <use xlink:href="#Roboto-Regular-32" x="112.304688"/>
       <use xlink:href="#Roboto-Regular-30" x="168.457031"/>
      </g>
     </g>
    </g>
    <g id="xtick_11">
     <g id="line2d_21">
      <path d="M 594.183534 224.64 
L 594.183534 7.2 
" clip-path="url(#p21bd955631)" style="fill: none; stroke-dasharray: 2.96,1.28; stroke-dashoffset: 0; stroke: #dddddd; stroke-width: 0.8"/>
     </g>
     <g id="line2d_22">
      <g>
       <use xlink:href="#m5e4037aef9" x="594.183534" y="224.64" style="stroke: #000000; stroke-width: 0.8"/>
      </g>
     </g>
     <g id="text_11">
      <!-- 2022 -->
      <g transform="translate(582.952284 239.14)scale(0.1 -0.1)">
       <use xlink:href="#Roboto-Regular-32"/>
       <use xlink:href="#Roboto-Regular-30" x="56.152344"/>
       <use xlink:href="#Roboto-Regular-32" x="112.304688"/>
       <use xlink:href="#Roboto-Regular-32" x="168.457031"/>
      </g>
     </g>
    </g>
   </g>
   <g id="matplotlib.axis_2">
    <g id="ytick_1">
     <g id="line2d_23">
      <path d="M 57.29375 205.046221 
L 615.29375 205.046221 
" clip-path="url(#p21bd955631)" style="fill: none; stroke-dasharray: 2.96,1.28; stroke-dashoffset: 0; stroke: #dddddd; stroke-width: 0.8"/>
     </g>
     <g id="line2d_24">
      <defs>
       <path id="m2253699fbe" d="M 0 0 
L -3.5 0 
" style="stroke: #000000; stroke-width: 0.8"/>
      </defs>
      <g>
       <use xlink:href="#m2253699fbe" x="57.29375" y="205.046221" style="stroke: #000000; stroke-width: 0.8"/>
      </g>
     </g>
     <g id="text_12">
      <!-- -20.0% -->
      <g transform="translate(20.73125 208.796221)scale(0.1 -0.1)">
       <defs>
        <path id="Roboto-Regular-2d" d="M 1641 1697 
L 116 1697 
L 116 2169 
L 1641 2169 
L 1641 1697 
z
" transform="scale(0.015625)"/>
        <path id="Roboto-Regular-2e" d="M 450 303 
Q 450 453 539 553 
Q 628 653 806 653 
Q 984 653 1076 553 
Q 1169 453 1169 303 
Q 1169 159 1076 62 
Q 984 -34 806 -34 
Q 628 -34 539 62 
Q 450 159 450 303 
z
" transform="scale(0.015625)"/>
        <path id="Roboto-Regular-25" d="M 328 3675 
Q 328 4084 589 4350 
Q 850 4616 1259 4616 
Q 1675 4616 1933 4348 
Q 2191 4081 2191 3656 
L 2191 3434 
Q 2191 3022 1930 2761 
Q 1669 2500 1266 2500 
Q 859 2500 593 2761 
Q 328 3022 328 3456 
L 328 3675 
z
M 759 3434 
Q 759 3191 896 3033 
Q 1034 2875 1266 2875 
Q 1488 2875 1623 3028 
Q 1759 3181 1759 3447 
L 1759 3675 
Q 1759 3919 1625 4078 
Q 1491 4238 1259 4238 
Q 1028 4238 893 4078 
Q 759 3919 759 3663 
L 759 3434 
z
M 2544 1116 
Q 2544 1525 2805 1789 
Q 3066 2053 3475 2053 
Q 3884 2053 4146 1790 
Q 4409 1528 4409 1094 
L 4409 872 
Q 4409 463 4148 198 
Q 3888 -66 3481 -66 
Q 3075 -66 2809 195 
Q 2544 456 2544 891 
L 2544 1116 
z
M 2975 872 
Q 2975 625 3112 467 
Q 3250 309 3481 309 
Q 3706 309 3840 464 
Q 3975 619 3975 884 
L 3975 1116 
Q 3975 1363 3839 1519 
Q 3703 1675 3475 1675 
Q 3253 1675 3114 1520 
Q 2975 1366 2975 1103 
L 2975 872 
z
M 1397 344 
L 1069 550 
L 3291 4106 
L 3619 3900 
L 1397 344 
z
" transform="scale(0.015625)"/>
       </defs>
       <use xlink:href="#Roboto-Regular-2d"/>
       <use xlink:href="#Roboto-Regular-32" x="27.587891"/>
       <use xlink:href="#Roboto-Regular-30" x="83.740234"/>
       <use xlink:href="#Roboto-Regular-2e" x="139.892578"/>
       <use xlink:href="#Roboto-Regular-30" x="166.210938"/>
       <use xlink:href="#Roboto-Regular-25" x="222.363281"/>
      </g>
     </g>
    </g>
    <g id="ytick_2">
     <g id="line2d_25">
      <path d="M 57.29375 161.693637 
L 615.29375 161.693637 
" clip-path="url(#p21bd955631)" style="fill: none; stroke-dasharray: 2.96,1.28; stroke-dashoffset: 0; stroke: #dddddd; stroke-width: 0.8"/>
     </g>
     <g id="line2d_26">
      <g>
       <use xlink:href="#m2253699fbe" x="57.29375" y="161.693637" style="stroke: #000000; stroke-width: 0.8"/>
      </g>
     </g>
     <g id="text_13">
      <!-- 0.0% -->
      <g transform="translate(29.10625 165.443637)scale(0.1 -0.1)">
       <use xlink:href="#Roboto-Regular-30"/>
       <use xlink:href="#Roboto-Regular-2e" x="56.152344"/>
       <use xlink:href="#Roboto-Regular-30" x="82.470703"/>
       <use xlink:href="#Roboto-Regular-25" x="138.623047"/>
      </g>
     </g>
    </g>
    <g id="ytick_3">
     <g id="line2d_27">
      <path d="M 57.29375 118.341053 
L 615.29375 118.341053 
" clip-path="url(#p21bd955631)" style="fill: none; stroke-dasharray: 2.96,1.28; stroke-dashoffset: 0; stroke: #dddddd; stroke-width: 0.8"/>
     </g>
     <g id="line2d_28">
      <g>
       <use xlink:href="#m2253699fbe" x="57.29375" y="118.341053" style="stroke: #000000; stroke-width: 0.8"/>
      </g>
     </g>
     <g id="text_14">
      <!-- 20.0% -->
      <g transform="translate(23.490625 122.091053)scale(0.1 -0.1)">
       <use xlink:href="#Roboto-Regular-32"/>
       <use xlink:href="#Roboto-Regular-30" x="56.152344"/>
       <use xlink:href="#Roboto-Regular-2e" x="112.304688"/>
       <use xlink:href="#Roboto-Regular-30" x="138.623047"/>
       <use xlink:href="#Roboto-Regular-25" x="194.775391"/>
      </g>
     </g>
    </g>
    <g id="ytick_4">
     <g id="line2d_29">
      <path d="M 57.29375 74.988469 
L 615.29375 74.988469 
" clip-path="url(#p21bd955631)" style="fill: none; stroke-dasharray: 2.96,1.28; stroke-dashoffset: 0; stroke: #dddddd; stroke-width: 0.8"/>
     </g>
     <g id="line2d_30">
      <g>
       <use xlink:href="#m2253699fbe" x="57.29375" y="74.988469" style="stroke: #000000; stroke-width: 0.8"/>
      </g>
     </g>
     <g id="text_15">
      <!-- 40.0% -->
      <g transform="translate(23.490625 78.738469)scale(0.1 -0.1)">
       <use xlink:href="#Roboto-Regular-34"/>
       <use xlink:href="#Roboto-Regular-30" x="56.152344"/>
       <use xlink:href="#Roboto-Regular-2e" x="112.304688"/>
       <use xlink:href="#Roboto-Regular-30" x="138.623047"/>
       <use xlink:href="#Roboto-Regular-25" x="194.775391"/>
      </g>
     </g>
    </g>
    <g id="ytick_5">
     <g id="line2d_31">
      <path d="M 57.29375 31.635885 
L 615.29375 31.635885 
" clip-path="url(#p21bd955631)" style="fill: none; stroke-dasharray: 2.96,1.28; stroke-dashoffset: 0; stroke: #dddddd; stroke-width: 0.8"/>
     </g>
     <g id="line2d_32">
      <g>
       <use xlink:href="#m2253699fbe" x="57.29375" y="31.635885" style="stroke: #000000; stroke-width: 0.8"/>
      </g>
     </g>
     <g id="text_16">
      <!-- 60.0% -->
      <g transform="translate(23.490625 35.385885)scale(0.1 -0.1)">
       <use xlink:href="#Roboto-Regular-36"/>
       <use xlink:href="#Roboto-Regular-30" x="56.152344"/>
       <use xlink:href="#Roboto-Regular-2e" x="112.304688"/>
       <use xlink:href="#Roboto-Regular-30" x="138.623047"/>
       <use xlink:href="#Roboto-Regular-25" x="194.775391"/>
      </g>
     </g>
    </g>
    <g id="text_17">
     <!-- YoY Growth -->
     <g transform="translate(14.7 142.109062)rotate(-90)scale(0.1 -0.1)">
      <defs>
       <path id="Roboto-Regular-59" d="M 1916 2266 
L 3103 4550 
L 3784 4550 
L 2216 1697 
L 2216 0 
L 1616 0 
L 1616 1697 
L 47 4550 
L 734 4550 
L 1916 2266 
z
" transform="scale(0.015625)"/>
       <path id="Roboto-Regular-6f" d="M 284 1722 
Q 284 2219 479 2616 
Q 675 3013 1023 3228 
Q 1372 3444 1819 3444 
Q 2509 3444 2936 2966 
Q 3363 2488 3363 1694 
L 3363 1653 
Q 3363 1159 3173 767 
Q 2984 375 2632 156 
Q 2281 -63 1825 -63 
Q 1138 -63 711 415 
Q 284 894 284 1681 
L 284 1722 
z
M 866 1653 
Q 866 1091 1127 750 
Q 1388 409 1825 409 
Q 2266 409 2525 754 
Q 2784 1100 2784 1722 
Q 2784 2278 2520 2623 
Q 2256 2969 1819 2969 
Q 1391 2969 1128 2628 
Q 866 2288 866 1653 
z
" transform="scale(0.015625)"/>
       <path id="Roboto-Regular-20" transform="scale(0.015625)"/>
       <path id="Roboto-Regular-47" d="M 3888 597 
Q 3656 266 3242 101 
Q 2828 -63 2278 -63 
Q 1722 -63 1290 198 
Q 859 459 623 940 
Q 388 1422 381 2056 
L 381 2453 
Q 381 3481 861 4047 
Q 1341 4613 2209 4613 
Q 2922 4613 3356 4248 
Q 3791 3884 3888 3216 
L 3288 3216 
Q 3119 4119 2213 4119 
Q 1609 4119 1298 3695 
Q 988 3272 984 2469 
L 984 2097 
Q 984 1331 1334 879 
Q 1684 428 2281 428 
Q 2619 428 2872 503 
Q 3125 578 3291 756 
L 3291 1778 
L 2238 1778 
L 2238 2266 
L 3888 2266 
L 3888 597 
z
" transform="scale(0.015625)"/>
       <path id="Roboto-Regular-72" d="M 2072 2863 
Q 1941 2884 1788 2884 
Q 1219 2884 1016 2400 
L 1016 0 
L 438 0 
L 438 3381 
L 1000 3381 
L 1009 2991 
Q 1294 3444 1816 3444 
Q 1984 3444 2072 3400 
L 2072 2863 
z
" transform="scale(0.015625)"/>
       <path id="Roboto-Regular-77" d="M 3431 797 
L 4081 3381 
L 4659 3381 
L 3675 0 
L 3206 0 
L 2384 2563 
L 1584 0 
L 1116 0 
L 134 3381 
L 709 3381 
L 1375 850 
L 2163 3381 
L 2628 3381 
L 3431 797 
z
" transform="scale(0.015625)"/>
       <path id="Roboto-Regular-74" d="M 1222 4200 
L 1222 3381 
L 1853 3381 
L 1853 2934 
L 1222 2934 
L 1222 838 
Q 1222 634 1306 532 
Q 1391 431 1594 431 
Q 1694 431 1869 469 
L 1869 0 
Q 1641 -63 1425 -63 
Q 1038 -63 841 171 
Q 644 406 644 838 
L 644 2934 
L 28 2934 
L 28 3381 
L 644 3381 
L 644 4200 
L 1222 4200 
z
" transform="scale(0.015625)"/>
       <path id="Roboto-Regular-68" d="M 1016 2972 
Q 1400 3444 2016 3444 
Q 3088 3444 3097 2234 
L 3097 0 
L 2519 0 
L 2519 2238 
Q 2516 2603 2352 2778 
Q 2188 2953 1841 2953 
Q 1559 2953 1346 2803 
Q 1134 2653 1016 2409 
L 1016 0 
L 438 0 
L 438 4800 
L 1016 4800 
L 1016 2972 
z
" transform="scale(0.015625)"/>
      </defs>
      <use xlink:href="#Roboto-Regular-59"/>
      <use xlink:href="#Roboto-Regular-6f" x="60.058594"/>
      <use xlink:href="#Roboto-Regular-59" x="117.089844"/>
      <use xlink:href="#Roboto-Regular-20" x="177.148438"/>
      <use xlink:href="#Roboto-Regular-47" x="201.904297"/>
      <use xlink:href="#Roboto-Regular-72" x="270.019531"/>
      <use xlink:href="#Roboto-Regular-6f" x="303.857422"/>
      <use xlink:href="#Roboto-Regular-77" x="360.888672"/>
      <use xlink:href="#Roboto-Regular-74" x="436.035156"/>
      <use xlink:href="#Roboto-Regular-68" x="468.701172"/>
     </g>
    </g>
   </g>
   <g id="line2d_33">
    <path d="M 82.657386 28.435114 
L 84.818961 24.151985 
L 86.980535 17.083636 
L 88.932925 31.201827 
L 91.0945 42.44129 
L 93.186346 41.619881 
L 95.347921 42.840797 
L 99.601341 51.654142 
L 101.762916 27.672546 
L 103.854762 37.969036 
L 106.016337 109.249943 
L 108.108183 115.414459 
L 110.269757 116.908975 
L 112.431332 126.281109 
L 114.383722 118.861213 
L 116.545296 117.730763 
L 118.637143 115.945828 
L 120.798717 110.657264 
L 122.890563 107.471205 
L 125.052138 102.828837 
L 127.213713 105.870684 
L 129.305559 107.010642 
L 131.467133 100.147018 
L 133.55898 100.658663 
L 135.720554 92.275925 
L 137.882129 86.497538 
L 139.904247 84.126581 
L 142.065821 82.661967 
L 144.157668 81.05525 
L 146.319242 74.348101 
L 148.411088 68.512242 
L 150.572663 70.72735 
L 152.734237 73.276161 
L 154.826084 64.27178 
L 156.987658 59.012545 
L 159.079504 59.019159 
L 161.241079 51.783752 
L 167.516618 41.532529 
L 169.608464 44.406314 
L 171.770039 44.841492 
L 173.861885 46.598488 
L 176.023459 39.424915 
L 178.185034 37.811 
L 180.27688 42.010717 
L 182.438455 47.655274 
L 186.691876 50.707387 
L 188.85345 51.005169 
L 190.80584 53.370652 
L 192.967414 58.062212 
L 195.059261 58.160077 
L 197.220835 68.143432 
L 199.312682 77.037964 
L 201.474256 89.664349 
L 203.635831 93.080291 
L 205.727677 94.696712 
L 207.889251 96.876358 
L 209.981098 100.692966 
L 212.142672 114.874522 
L 214.304247 117.988271 
L 216.256637 118.867991 
L 218.418211 117.6935 
L 220.510057 116.794967 
L 222.671632 114.94335 
L 224.763478 105.729246 
L 226.925053 105.98455 
L 229.086627 108.016212 
L 231.178474 107.037808 
L 233.340048 115.821611 
L 235.431894 110.40062 
L 237.593469 99.624803 
L 239.755043 103.341467 
L 241.777161 114.393786 
L 243.938736 122.749311 
L 246.030582 125.839986 
L 248.192157 129.285857 
L 250.284003 140.834036 
L 252.445578 143.762468 
L 254.607152 147.690645 
L 256.698998 157.466548 
L 258.860573 158.14304 
L 260.952419 181.98491 
L 263.113994 185.193593 
L 265.275568 189.009435 
L 267.227958 189.603731 
L 269.389533 178.483559 
L 271.481379 182.902073 
L 273.642953 188.392662 
L 275.7348 191.882258 
L 277.896374 192.637752 
L 280.057949 195.552472 
L 282.149795 194.374482 
L 284.311369 194.584907 
L 286.403216 183.604791 
L 288.56479 184.530395 
L 290.726365 185.079362 
L 292.678755 183.978133 
L 294.840329 196.427545 
L 296.932175 194.420346 
L 299.09375 192.648649 
L 301.185596 189.843357 
L 303.347171 187.582467 
L 307.600592 181.080684 
L 309.762166 179.180387 
L 311.854012 176.243463 
L 314.015587 175.2782 
L 316.177161 173.781584 
L 318.129551 169.096688 
L 320.291126 165.069198 
L 322.382972 161.735617 
L 324.544547 155.801851 
L 326.636393 149.288401 
L 328.797967 147.16701 
L 330.959542 140.946378 
L 333.051388 137.09045 
L 335.212963 128.603549 
L 337.304809 125.109487 
L 339.466384 125.177797 
L 343.650076 119.489114 
L 345.811651 119.617759 
L 347.903497 121.905085 
L 350.065071 123.397399 
L 352.156918 127.330627 
L 354.318492 128.249848 
L 356.480067 131.148691 
L 358.571913 134.1814 
L 360.733488 133.150216 
L 362.825334 128.289583 
L 364.986908 125.820171 
L 367.148483 125.115774 
L 369.100873 121.937656 
L 371.262447 125.527769 
L 373.354294 122.457518 
L 375.515868 119.916144 
L 377.607714 120.8241 
L 379.769289 119.355051 
L 381.930863 122.198649 
L 384.02271 121.959293 
L 386.184284 122.62397 
L 388.276131 132.680022 
L 390.437705 135.5414 
L 392.59928 138.69485 
L 394.551669 144.459741 
L 396.713244 144.026023 
L 398.80509 145.941439 
L 400.966665 150.399387 
L 403.058511 151.899987 
L 405.220086 151.046533 
L 407.38166 152.458994 
L 409.473506 152.473998 
L 411.635081 155.005624 
L 413.726927 158.0552 
L 415.888502 158.042109 
L 418.050076 161.48451 
L 420.002466 164.131836 
L 422.164041 165.685118 
L 424.255887 165.21773 
L 426.417461 169.045251 
L 428.509308 169.822435 
L 430.670882 173.23725 
L 432.832457 175.367956 
L 434.924303 177.748246 
L 437.085877 176.085502 
L 439.177724 172.277027 
L 447.684565 164.073291 
L 449.776412 166.214533 
L 451.937986 160.653013 
L 454.029832 155.925821 
L 456.191407 155.791197 
L 458.352981 151.378876 
L 460.444828 149.594662 
L 462.606402 146.923777 
L 464.698249 148.817219 
L 466.859823 151.698709 
L 469.021398 148.708019 
L 470.973787 148.531029 
L 473.135362 145.653283 
L 475.227208 145.381212 
L 477.388783 144.692648 
L 479.480629 147.767206 
L 481.642204 146.86173 
L 483.803778 148.498425 
L 485.895624 148.796348 
L 488.057199 147.491355 
L 490.149045 144.312642 
L 494.472194 143.643064 
L 496.424584 141.897572 
L 498.586159 145.888722 
L 500.678005 143.499173 
L 502.839579 144.777587 
L 504.931426 145.211493 
L 507.093 146.057786 
L 509.254575 143.355317 
L 511.346421 146.333017 
L 513.507996 146.940787 
L 515.599842 150.190763 
L 517.761416 151.308749 
L 524.036955 156.839705 
L 526.128802 156.345915 
L 528.290376 154.614393 
L 530.382222 156.819993 
L 532.543797 156.544953 
L 534.705371 159.619833 
L 538.958792 155.663046 
L 541.050638 158.58054 
L 543.212213 157.582145 
L 545.373787 156.937741 
L 547.395906 165.466707 
L 549.55748 176.173249 
L 551.649326 180.702017 
L 553.810901 187.155081 
L 555.902747 189.276613 
L 558.064322 190.799197 
L 560.225896 191.926356 
L 562.317743 193.357088 
L 564.479317 193.5404 
L 566.571163 194.498674 
L 568.732738 194.788503 
L 570.894312 197.281453 
L 572.846702 199.028218 
L 575.008277 190.590589 
L 577.100123 185.984128 
L 579.261698 182.660109 
L 581.353544 180.209718 
L 583.515118 180.918902 
L 585.676693 176.761391 
L 587.768539 169.483235 
L 589.930114 166.336666 
L 589.930114 166.336666 
" clip-path="url(#p21bd955631)" style="fill: none; stroke: #2b5aa5; stroke-width: 1.5; stroke-linecap: square"/>
   </g>
   <g id="line2d_34">
    <path d="M 82.657386 87.713579 
L 84.818961 88.846696 
L 86.980535 92.671778 
L 88.932925 89.311398 
L 91.0945 94.954025 
L 93.186346 97.955593 
L 95.347921 95.33103 
L 97.439767 95.746165 
L 99.601341 95.147535 
L 101.762916 83.586704 
L 103.854762 88.316212 
L 106.016337 89.813255 
L 108.108183 95.561396 
L 110.269757 97.989572 
L 112.431332 102.897427 
L 114.383722 105.484949 
L 116.545296 102.873586 
L 118.637143 107.818146 
L 120.798717 106.211215 
L 122.890563 108.827013 
L 125.052138 107.032594 
L 127.213713 106.400115 
L 129.305559 108.484278 
L 131.467133 104.789891 
L 133.55898 103.139594 
L 135.720554 96.363825 
L 137.882129 93.135841 
L 139.904247 87.406494 
L 142.065821 85.369531 
L 144.157668 74.875381 
L 146.319242 70.836116 
L 148.411088 65.985724 
L 150.572663 63.725431 
L 152.734237 64.197693 
L 154.826084 54.107172 
L 156.987658 45.204743 
L 159.079504 52.500465 
L 161.241079 46.709267 
L 163.402653 42.758712 
L 165.355043 41.963199 
L 167.516618 42.53364 
L 169.608464 42.438911 
L 171.770039 39.444855 
L 173.861885 36.907563 
L 176.023459 33.197579 
L 178.185034 30.870826 
L 180.27688 27.348381 
L 182.438455 30.746632 
L 184.530301 22.53969 
L 186.691876 20.148119 
L 188.85345 19.009606 
L 190.80584 20.669538 
L 192.967414 20.57611 
L 195.059261 19.237757 
L 197.220835 25.036981 
L 199.312682 25.980417 
L 201.474256 32.959456 
L 203.635831 35.531299 
L 205.727677 41.702669 
L 207.889251 45.953749 
L 209.981098 50.386077 
L 212.142672 56.921329 
L 214.304247 59.819574 
L 216.256637 62.654414 
L 218.418211 63.736374 
L 220.510057 69.126698 
L 222.671632 72.163018 
L 224.763478 70.521215 
L 226.925053 73.223337 
L 229.086627 78.012133 
L 231.178474 81.388384 
L 233.340048 87.547538 
L 235.431894 89.851042 
L 237.593469 89.962875 
L 239.755043 94.340278 
L 241.777161 98.877248 
L 243.938736 106.380386 
L 248.192157 114.08442 
L 250.284003 125.815905 
L 252.445578 131.325407 
L 254.607152 136.209901 
L 256.698998 146.26558 
L 258.860573 152.248295 
L 260.952419 164.286645 
L 263.113994 169.725823 
L 265.275568 182.686182 
L 267.227958 187.741474 
L 269.389533 188.142141 
L 271.481379 195.635191 
L 273.642953 200.721972 
L 275.7348 205.299913 
L 277.896374 210.418937 
L 280.057949 213.577166 
L 282.149795 213.858732 
L 284.311369 214.756364 
L 286.403216 214.318136 
L 288.56479 214.408965 
L 290.726365 208.6876 
L 292.678755 209.28246 
L 294.840329 211.244291 
L 296.932175 206.383434 
L 299.09375 204.607074 
L 301.185596 201.2688 
L 303.347171 195.286609 
L 307.600592 186.628898 
L 309.762166 181.930183 
L 311.854012 174.906564 
L 314.015587 172.238136 
L 316.177161 169.319507 
L 318.129551 164.543281 
L 320.291126 160.145611 
L 322.382972 156.756325 
L 326.636393 147.116829 
L 328.797967 145.048138 
L 330.959542 142.493045 
L 333.051388 139.62682 
L 335.212963 134.889809 
L 337.304809 134.192844 
L 339.466384 132.864448 
L 341.627958 131.157106 
L 343.650076 129.04192 
L 345.811651 126.460323 
L 347.903497 127.581143 
L 350.065071 127.433069 
L 352.156918 127.024401 
L 354.318492 127.004284 
L 356.480067 126.416193 
L 358.571913 126.684842 
L 360.733488 125.723656 
L 362.825334 124.18771 
L 364.986908 123.88651 
L 367.148483 124.070239 
L 369.100873 124.36928 
L 371.262447 128.284387 
L 373.354294 128.411928 
L 375.515868 128.969453 
L 377.607714 130.215075 
L 379.769289 130.671163 
L 384.02271 134.932969 
L 386.184284 136.668796 
L 388.276131 141.25972 
L 390.437705 143.139467 
L 392.59928 144.622386 
L 394.551669 146.111479 
L 396.713244 146.647704 
L 398.80509 147.765107 
L 400.966665 149.868446 
L 403.058511 152.178424 
L 405.220086 151.91448 
L 407.38166 153.113151 
L 409.473506 153.658235 
L 411.635081 154.627609 
L 413.726927 156.289535 
L 415.888502 156.210276 
L 418.050076 156.749099 
L 420.002466 158.538811 
L 422.164041 159.19382 
L 424.255887 158.662056 
L 426.417461 156.13957 
L 428.509308 155.525414 
L 430.670882 155.835 
L 434.924303 156.055071 
L 437.085877 153.695744 
L 439.177724 151.089395 
L 441.339298 150.046142 
L 443.500873 148.532209 
L 445.522991 146.053249 
L 447.684565 146.702602 
L 449.776412 146.206161 
L 451.937986 147.509312 
L 454.029832 145.535406 
L 456.191407 145.27799 
L 460.444828 141.364476 
L 462.606402 140.395332 
L 464.698249 142.209833 
L 466.859823 142.79957 
L 469.021398 142.477414 
L 470.973787 143.523117 
L 473.135362 141.635432 
L 475.227208 141.401946 
L 477.388783 139.969324 
L 479.480629 140.694551 
L 481.642204 142.085839 
L 483.803778 143.748997 
L 485.895624 144.725961 
L 490.149045 143.546498 
L 492.31062 143.126759 
L 494.472194 143.584531 
L 496.424584 143.011121 
L 498.586159 144.522692 
L 500.678005 145.188406 
L 502.839579 146.973473 
L 504.931426 148.200319 
L 507.093 149.331902 
L 509.254575 147.82029 
L 511.346421 149.239458 
L 515.599842 149.94728 
L 517.761416 151.365443 
L 519.922991 151.599208 
L 521.875381 151.524529 
L 524.036955 151.775645 
L 526.128802 151.068523 
L 528.290376 149.815851 
L 530.382222 150.37806 
L 532.543797 149.270068 
L 534.705371 149.706995 
L 536.797218 149.548164 
L 538.958792 148.826495 
L 541.050638 150.891154 
L 543.212213 151.268494 
L 545.373787 151.355238 
L 547.395906 157.606983 
L 549.55748 169.066167 
L 551.649326 172.879173 
L 553.810901 177.109687 
L 555.902747 179.406724 
L 558.064322 180.833837 
L 560.225896 181.79038 
L 562.317743 181.878253 
L 564.479317 181.031214 
L 568.732738 183.868695 
L 570.894312 186.336964 
L 572.846702 184.982807 
L 575.008277 175.967404 
L 577.100123 170.562035 
L 579.261698 168.09037 
L 581.353544 166.53568 
L 583.515118 165.946745 
L 585.676693 163.479679 
L 587.768539 167.454137 
L 589.930114 164.112915 
L 589.930114 164.112915 
" clip-path="url(#p21bd955631)" style="fill: none; stroke: #808080; stroke-width: 1.5; stroke-linecap: square"/>
   </g>
   <g id="patch_3">
    <path d="M 57.29375 224.64 
L 57.29375 7.2 
" style="fill: none; stroke: #000000; stroke-width: 0.8; stroke-linejoin: miter; stroke-linecap: square"/>
   </g>
   <g id="patch_4">
    <path d="M 57.29375 224.64 
L 615.29375 224.64 
" style="fill: none; stroke: #000000; stroke-width: 0.8; stroke-linejoin: miter; stroke-linecap: square"/>
   </g>
   <g id="legend_1">
    <g id="line2d_35">
     <path d="M 235.865625 253.59675 
L 245.865625 253.59675 
L 255.865625 253.59675 
" style="fill: none; stroke: #2b5aa5; stroke-width: 1.5; stroke-linecap: square"/>
    </g>
    <g id="text_18">
     <!-- Banamex -->
     <g transform="translate(263.865625 257.09675)scale(0.1 -0.1)">
      <defs>
       <path id="Roboto-Regular-42" d="M 528 0 
L 528 4550 
L 2016 4550 
Q 2756 4550 3129 4244 
Q 3503 3938 3503 3338 
Q 3503 3019 3322 2773 
Q 3141 2528 2828 2394 
Q 3197 2291 3411 2002 
Q 3625 1713 3625 1313 
Q 3625 700 3228 350 
Q 2831 0 2106 0 
L 528 0 
z
M 1128 2128 
L 1128 491 
L 2119 491 
Q 2538 491 2780 708 
Q 3022 925 3022 1306 
Q 3022 2128 2128 2128 
L 1128 2128 
z
M 1128 2609 
L 2034 2609 
Q 2428 2609 2664 2806 
Q 2900 3003 2900 3341 
Q 2900 3716 2681 3886 
Q 2463 4056 2016 4056 
L 1128 4056 
L 1128 2609 
z
" transform="scale(0.015625)"/>
       <path id="Roboto-Regular-61" d="M 2525 0 
Q 2475 100 2444 356 
Q 2041 -63 1481 -63 
Q 981 -63 661 220 
Q 341 503 341 938 
Q 341 1466 742 1758 
Q 1144 2050 1872 2050 
L 2434 2050 
L 2434 2316 
Q 2434 2619 2253 2798 
Q 2072 2978 1719 2978 
Q 1409 2978 1200 2822 
Q 991 2666 991 2444 
L 409 2444 
Q 409 2697 589 2933 
Q 769 3169 1076 3306 
Q 1384 3444 1753 3444 
Q 2338 3444 2669 3151 
Q 3000 2859 3013 2347 
L 3013 791 
Q 3013 325 3131 50 
L 3131 0 
L 2525 0 
z
M 1566 441 
Q 1838 441 2081 581 
Q 2325 722 2434 947 
L 2434 1641 
L 1981 1641 
Q 919 1641 919 1019 
Q 919 747 1100 594 
Q 1281 441 1566 441 
z
" transform="scale(0.015625)"/>
       <path id="Roboto-Regular-6e" d="M 984 3381 
L 1003 2956 
Q 1391 3444 2016 3444 
Q 3088 3444 3097 2234 
L 3097 0 
L 2519 0 
L 2519 2238 
Q 2516 2603 2352 2778 
Q 2188 2953 1841 2953 
Q 1559 2953 1346 2803 
Q 1134 2653 1016 2409 
L 1016 0 
L 438 0 
L 438 3381 
L 984 3381 
z
" transform="scale(0.015625)"/>
       <path id="Roboto-Regular-6d" d="M 981 3381 
L 997 3006 
Q 1369 3444 2000 3444 
Q 2709 3444 2966 2900 
Q 3134 3144 3404 3294 
Q 3675 3444 4044 3444 
Q 5156 3444 5175 2266 
L 5175 0 
L 4597 0 
L 4597 2231 
Q 4597 2594 4431 2773 
Q 4266 2953 3875 2953 
Q 3553 2953 3340 2761 
Q 3128 2569 3094 2244 
L 3094 0 
L 2513 0 
L 2513 2216 
Q 2513 2953 1791 2953 
Q 1222 2953 1013 2469 
L 1013 0 
L 434 0 
L 434 3381 
L 981 3381 
z
" transform="scale(0.015625)"/>
       <path id="Roboto-Regular-65" d="M 1841 -63 
Q 1153 -63 722 389 
Q 291 841 291 1597 
L 291 1703 
Q 291 2206 483 2601 
Q 675 2997 1020 3220 
Q 1366 3444 1769 3444 
Q 2428 3444 2793 3009 
Q 3159 2575 3159 1766 
L 3159 1525 
L 869 1525 
Q 881 1025 1161 717 
Q 1441 409 1872 409 
Q 2178 409 2390 534 
Q 2603 659 2763 866 
L 3116 591 
Q 2691 -63 1841 -63 
z
M 1769 2969 
Q 1419 2969 1181 2714 
Q 944 2459 888 2000 
L 2581 2000 
L 2581 2044 
Q 2556 2484 2343 2726 
Q 2131 2969 1769 2969 
z
" transform="scale(0.015625)"/>
       <path id="Roboto-Regular-78" d="M 1572 2147 
L 2322 3381 
L 2997 3381 
L 1891 1709 
L 3031 0 
L 2363 0 
L 1581 1266 
L 800 0 
L 128 0 
L 1269 1709 
L 163 3381 
L 831 3381 
L 1572 2147 
z
" transform="scale(0.015625)"/>
      </defs>
      <use xlink:href="#Roboto-Regular-42"/>
      <use xlink:href="#Roboto-Regular-61" x="62.255859"/>
      <use xlink:href="#Roboto-Regular-6e" x="116.650391"/>
      <use xlink:href="#Roboto-Regular-61" x="171.826172"/>
      <use xlink:href="#Roboto-Regular-6d" x="226.220703"/>
      <use xlink:href="#Roboto-Regular-65" x="313.867188"/>
      <use xlink:href="#Roboto-Regular-78" x="366.845703"/>
     </g>
    </g>
    <g id="line2d_36">
     <path d="M 325.504687 253.59675 
L 335.504687 253.59675 
L 345.504687 253.59675 
" style="fill: none; stroke: #808080; stroke-width: 1.5; stroke-linecap: square"/>
    </g>
    <g id="text_19">
     <!-- Commercial banks -->
     <g transform="translate(353.504687 257.09675)scale(0.1 -0.1)">
      <defs>
       <path id="Roboto-Regular-43" d="M 3875 1444 
Q 3791 722 3342 329 
Q 2894 -63 2150 -63 
Q 1344 -63 858 515 
Q 372 1094 372 2063 
L 372 2500 
Q 372 3134 598 3615 
Q 825 4097 1240 4355 
Q 1656 4613 2203 4613 
Q 2928 4613 3365 4208 
Q 3803 3803 3875 3088 
L 3272 3088 
Q 3194 3631 2933 3875 
Q 2672 4119 2203 4119 
Q 1628 4119 1301 3694 
Q 975 3269 975 2484 
L 975 2044 
Q 975 1303 1284 865 
Q 1594 428 2150 428 
Q 2650 428 2917 654 
Q 3184 881 3272 1444 
L 3875 1444 
z
" transform="scale(0.015625)"/>
       <path id="Roboto-Regular-63" d="M 1794 409 
Q 2103 409 2334 596 
Q 2566 784 2591 1066 
L 3138 1066 
Q 3122 775 2937 512 
Q 2753 250 2445 93 
Q 2138 -63 1794 -63 
Q 1103 -63 695 398 
Q 288 859 288 1659 
L 288 1756 
Q 288 2250 469 2634 
Q 650 3019 989 3231 
Q 1328 3444 1791 3444 
Q 2359 3444 2736 3103 
Q 3113 2763 3138 2219 
L 2591 2219 
Q 2566 2547 2342 2758 
Q 2119 2969 1791 2969 
Q 1350 2969 1108 2651 
Q 866 2334 866 1734 
L 866 1625 
Q 866 1041 1106 725 
Q 1347 409 1794 409 
z
" transform="scale(0.015625)"/>
       <path id="Roboto-Regular-69" d="M 1066 0 
L 488 0 
L 488 3381 
L 1066 3381 
L 1066 0 
z
M 441 4278 
Q 441 4419 527 4516 
Q 613 4613 781 4613 
Q 950 4613 1037 4516 
Q 1125 4419 1125 4278 
Q 1125 4138 1037 4044 
Q 950 3950 781 3950 
Q 613 3950 527 4044 
Q 441 4138 441 4278 
z
" transform="scale(0.015625)"/>
       <path id="Roboto-Regular-6c" d="M 1066 0 
L 488 0 
L 488 4800 
L 1066 4800 
L 1066 0 
z
" transform="scale(0.015625)"/>
       <path id="Roboto-Regular-62" d="M 3300 1653 
Q 3300 878 2944 407 
Q 2588 -63 1988 -63 
Q 1347 -63 997 391 
L 969 0 
L 438 0 
L 438 4800 
L 1016 4800 
L 1016 3009 
Q 1366 3444 1981 3444 
Q 2597 3444 2948 2978 
Q 3300 2513 3300 1703 
L 3300 1653 
z
M 2722 1719 
Q 2722 2309 2494 2631 
Q 2266 2953 1838 2953 
Q 1266 2953 1016 2422 
L 1016 959 
Q 1281 428 1844 428 
Q 2259 428 2490 750 
Q 2722 1072 2722 1719 
z
" transform="scale(0.015625)"/>
       <path id="Roboto-Regular-6b" d="M 1381 1566 
L 1019 1188 
L 1019 0 
L 441 0 
L 441 4800 
L 1019 4800 
L 1019 1897 
L 1328 2269 
L 2381 3381 
L 3084 3381 
L 1769 1969 
L 3238 0 
L 2559 0 
L 1381 1566 
z
" transform="scale(0.015625)"/>
       <path id="Roboto-Regular-73" d="M 2406 897 
Q 2406 1131 2229 1261 
Q 2053 1391 1614 1484 
Q 1175 1578 917 1709 
Q 659 1841 536 2022 
Q 413 2203 413 2453 
Q 413 2869 764 3156 
Q 1116 3444 1663 3444 
Q 2238 3444 2595 3147 
Q 2953 2850 2953 2388 
L 2372 2388 
Q 2372 2625 2170 2797 
Q 1969 2969 1663 2969 
Q 1347 2969 1169 2831 
Q 991 2694 991 2472 
Q 991 2263 1156 2156 
Q 1322 2050 1755 1953 
Q 2188 1856 2456 1722 
Q 2725 1588 2854 1398 
Q 2984 1209 2984 938 
Q 2984 484 2621 210 
Q 2259 -63 1681 -63 
Q 1275 -63 962 81 
Q 650 225 473 483 
Q 297 741 297 1041 
L 875 1041 
Q 891 750 1108 579 
Q 1325 409 1681 409 
Q 2009 409 2207 542 
Q 2406 675 2406 897 
z
" transform="scale(0.015625)"/>
      </defs>
      <use xlink:href="#Roboto-Regular-43"/>
      <use xlink:href="#Roboto-Regular-6f" x="65.087891"/>
      <use xlink:href="#Roboto-Regular-6d" x="122.119141"/>
      <use xlink:href="#Roboto-Regular-6d" x="209.765625"/>
      <use xlink:href="#Roboto-Regular-65" x="297.412109"/>
      <use xlink:href="#Roboto-Regular-72" x="350.390625"/>
      <use xlink:href="#Roboto-Regular-63" x="384.228516"/>
      <use xlink:href="#Roboto-Regular-69" x="436.572266"/>
      <use xlink:href="#Roboto-Regular-61" x="460.839844"/>
      <use xlink:href="#Roboto-Regular-6c" x="515.234375"/>
      <use xlink:href="#Roboto-Regular-20" x="539.501953"/>
      <use xlink:href="#Roboto-Regular-62" x="564.257812"/>
      <use xlink:href="#Roboto-Regular-61" x="620.361328"/>
      <use xlink:href="#Roboto-Regular-6e" x="674.755859"/>
      <use xlink:href="#Roboto-Regular-6b" x="729.931641"/>
      <use xlink:href="#Roboto-Regular-73" x="780.615234"/>
     </g>
    </g>
   </g>
  </g>
 </g>
 <defs>
  <clipPath id="p21bd955631">
   <rect x="57.29375" y="7.2" width="558" height="217.44"/>
  </clipPath>
 </defs>
</svg>
