<?xml version="1.0" encoding="utf-8" standalone="no"?>
<!DOCTYPE svg PUBLIC "-//W3C//DTD SVG 1.1//EN"
  "http://www.w3.org/Graphics/SVG/1.1/DTD/svg11.dtd">
<svg xmlns:xlink="http://www.w3.org/1999/xlink" width="622.49375pt" height="270.328pt" viewBox="0 0 622.49375 270.328" xmlns="http://www.w3.org/2000/svg" version="1.1">
 <metadata>
  <rdf:RDF xmlns:dc="http://purl.org/dc/elements/1.1/" xmlns:cc="http://creativecommons.org/ns#" xmlns:rdf="http://www.w3.org/1999/02/22-rdf-syntax-ns#">
   <cc:Work>
    <dc:type rdf:resource="http://purl.org/dc/dcmitype/StillImage"/>
    <dc:date>2022-01-12T12:36:55.731099</dc:date>
    <dc:format>image/svg+xml</dc:format>
    <dc:creator>
     <cc:Agent>
      <dc:title>Matplotlib v3.5.1, https://matplotlib.org/</dc:title>
     </cc:Agent>
    </dc:creator>
   </cc:Work>
  </rdf:RDF>
 </metadata>
 <defs>
  <style type="text/css">*{stroke-linejoin: round; stroke-linecap: butt}</style>
 </defs>
 <g id="figure_1">
  <g id="patch_1">
   <path d="M 0 270.328 
L 622.49375 270.328 
L 622.49375 0 
L 0 0 
z
" style="fill: #ffffff"/>
  </g>
  <g id="axes_1">
   <g id="patch_2">
    <path d="M 57.29375 224.64 
L 615.29375 224.64 
L 615.29375 7.2 
L 57.29375 7.2 
z
" style="fill: #ffffff"/>
   </g>
   <g id="matplotlib.axis_1">
    <g id="xtick_1">
     <g id="line2d_1">
      <path d="M 84.818961 224.64 
L 84.818961 7.2 
" clip-path="url(#p5d9110982f)" style="fill: none; stroke-dasharray: 2.96,1.28; stroke-dashoffset: 0; stroke: #dddddd; stroke-width: 0.8"/>
     </g>
     <g id="line2d_2">
      <defs>
       <path id="mc388e59b22" d="M 0 0 
L 0 3.5 
" style="stroke: #000000; stroke-width: 0.8"/>
      </defs>
      <g>
       <use xlink:href="#mc388e59b22" x="84.818961" y="224.64" style="stroke: #000000; stroke-width: 0.8"/>
      </g>
     </g>
     <g id="text_1">
      <!-- 2002 -->
      <g transform="translate(73.587711 239.14)scale(0.1 -0.1)">
       <defs>
        <path id="Roboto-Regular-32" d="M 3359 0 
L 378 0 
L 378 416 
L 1953 2166 
Q 2303 2563 2436 2811 
Q 2569 3059 2569 3325 
Q 2569 3681 2353 3909 
Q 2138 4138 1778 4138 
Q 1347 4138 1108 3892 
Q 869 3647 869 3209 
L 291 3209 
Q 291 3838 695 4225 
Q 1100 4613 1778 4613 
Q 2413 4613 2781 4280 
Q 3150 3947 3150 3394 
Q 3150 2722 2294 1794 
L 1075 472 
L 3359 472 
L 3359 0 
z
" transform="scale(0.015625)"/>
        <path id="Roboto-Regular-30" d="M 3231 1941 
Q 3231 925 2884 431 
Q 2538 -63 1800 -63 
Q 1072 -63 722 420 
Q 372 903 359 1863 
L 359 2634 
Q 359 3638 706 4125 
Q 1053 4613 1794 4613 
Q 2528 4613 2875 4142 
Q 3222 3672 3231 2691 
L 3231 1941 
z
M 2653 2731 
Q 2653 3466 2447 3802 
Q 2241 4138 1794 4138 
Q 1350 4138 1147 3803 
Q 944 3469 938 2775 
L 938 1850 
Q 938 1113 1152 761 
Q 1366 409 1800 409 
Q 2228 409 2436 740 
Q 2644 1072 2653 1784 
L 2653 2731 
z
" transform="scale(0.015625)"/>
       </defs>
       <use xlink:href="#Roboto-Regular-32"/>
       <use xlink:href="#Roboto-Regular-30" x="56.152344"/>
       <use xlink:href="#Roboto-Regular-30" x="112.304688"/>
       <use xlink:href="#Roboto-Regular-32" x="168.457031"/>
      </g>
     </g>
    </g>
    <g id="xtick_2">
     <g id="line2d_3">
      <path d="M 135.720554 224.64 
L 135.720554 7.2 
" clip-path="url(#p5d9110982f)" style="fill: none; stroke-dasharray: 2.96,1.28; stroke-dashoffset: 0; stroke: #dddddd; stroke-width: 0.8"/>
     </g>
     <g id="line2d_4">
      <g>
       <use xlink:href="#mc388e59b22" x="135.720554" y="224.64" style="stroke: #000000; stroke-width: 0.8"/>
      </g>
     </g>
     <g id="text_2">
      <!-- 2004 -->
      <g transform="translate(124.489304 239.14)scale(0.1 -0.1)">
       <defs>
        <path id="Roboto-Regular-34" d="M 2819 1528 
L 3450 1528 
L 3450 1056 
L 2819 1056 
L 2819 0 
L 2238 0 
L 2238 1056 
L 166 1056 
L 166 1397 
L 2203 4550 
L 2819 4550 
L 2819 1528 
z
M 822 1528 
L 2238 1528 
L 2238 3759 
L 2169 3634 
L 822 1528 
z
" transform="scale(0.015625)"/>
       </defs>
       <use xlink:href="#Roboto-Regular-32"/>
       <use xlink:href="#Roboto-Regular-30" x="56.152344"/>
       <use xlink:href="#Roboto-Regular-30" x="112.304688"/>
       <use xlink:href="#Roboto-Regular-34" x="168.457031"/>
      </g>
     </g>
    </g>
    <g id="xtick_3">
     <g id="line2d_5">
      <path d="M 186.691876 224.64 
L 186.691876 7.2 
" clip-path="url(#p5d9110982f)" style="fill: none; stroke-dasharray: 2.96,1.28; stroke-dashoffset: 0; stroke: #dddddd; stroke-width: 0.8"/>
     </g>
     <g id="line2d_6">
      <g>
       <use xlink:href="#mc388e59b22" x="186.691876" y="224.64" style="stroke: #000000; stroke-width: 0.8"/>
      </g>
     </g>
     <g id="text_3">
      <!-- 2006 -->
      <g transform="translate(175.460626 239.14)scale(0.1 -0.1)">
       <defs>
        <path id="Roboto-Regular-36" d="M 2647 4553 
L 2647 4063 
L 2541 4063 
Q 1866 4050 1466 3662 
Q 1066 3275 1003 2572 
Q 1363 2984 1984 2984 
Q 2578 2984 2933 2565 
Q 3288 2147 3288 1484 
Q 3288 781 2905 359 
Q 2522 -63 1878 -63 
Q 1225 -63 819 439 
Q 413 941 413 1731 
L 413 1953 
Q 413 3209 948 3873 
Q 1484 4538 2544 4553 
L 2647 4553 
z
M 1888 2503 
Q 1591 2503 1341 2325 
Q 1091 2147 994 1878 
L 994 1666 
Q 994 1103 1247 759 
Q 1500 416 1878 416 
Q 2269 416 2492 703 
Q 2716 991 2716 1456 
Q 2716 1925 2489 2214 
Q 2263 2503 1888 2503 
z
" transform="scale(0.015625)"/>
       </defs>
       <use xlink:href="#Roboto-Regular-32"/>
       <use xlink:href="#Roboto-Regular-30" x="56.152344"/>
       <use xlink:href="#Roboto-Regular-30" x="112.304688"/>
       <use xlink:href="#Roboto-Regular-36" x="168.457031"/>
      </g>
     </g>
    </g>
    <g id="xtick_4">
     <g id="line2d_7">
      <path d="M 237.593469 224.64 
L 237.593469 7.2 
" clip-path="url(#p5d9110982f)" style="fill: none; stroke-dasharray: 2.96,1.28; stroke-dashoffset: 0; stroke: #dddddd; stroke-width: 0.8"/>
     </g>
     <g id="line2d_8">
      <g>
       <use xlink:href="#mc388e59b22" x="237.593469" y="224.64" style="stroke: #000000; stroke-width: 0.8"/>
      </g>
     </g>
     <g id="text_4">
      <!-- 2008 -->
      <g transform="translate(226.362219 239.14)scale(0.1 -0.1)">
       <defs>
        <path id="Roboto-Regular-38" d="M 3138 3363 
Q 3138 3022 2958 2756 
Q 2778 2491 2472 2341 
Q 2828 2188 3036 1894 
Q 3244 1600 3244 1228 
Q 3244 638 2845 287 
Q 2447 -63 1797 -63 
Q 1141 -63 745 289 
Q 350 641 350 1228 
Q 350 1597 551 1894 
Q 753 2191 1109 2344 
Q 806 2494 631 2759 
Q 456 3025 456 3363 
Q 456 3938 825 4275 
Q 1194 4613 1797 4613 
Q 2397 4613 2767 4275 
Q 3138 3938 3138 3363 
z
M 2666 1241 
Q 2666 1622 2423 1862 
Q 2181 2103 1790 2103 
Q 1400 2103 1164 1865 
Q 928 1628 928 1240 
Q 928 853 1158 631 
Q 1388 409 1797 409 
Q 2203 409 2434 632 
Q 2666 856 2666 1241 
z
M 1797 4138 
Q 1456 4138 1245 3927 
Q 1034 3716 1034 3353 
Q 1034 3006 1242 2792 
Q 1450 2578 1797 2578 
Q 2144 2578 2351 2792 
Q 2559 3006 2559 3353 
Q 2559 3700 2343 3919 
Q 2128 4138 1797 4138 
z
" transform="scale(0.015625)"/>
       </defs>
       <use xlink:href="#Roboto-Regular-32"/>
       <use xlink:href="#Roboto-Regular-30" x="56.152344"/>
       <use xlink:href="#Roboto-Regular-30" x="112.304688"/>
       <use xlink:href="#Roboto-Regular-38" x="168.457031"/>
      </g>
     </g>
    </g>
    <g id="xtick_5">
     <g id="line2d_9">
      <path d="M 288.56479 224.64 
L 288.56479 7.2 
" clip-path="url(#p5d9110982f)" style="fill: none; stroke-dasharray: 2.96,1.28; stroke-dashoffset: 0; stroke: #dddddd; stroke-width: 0.8"/>
     </g>
     <g id="line2d_10">
      <g>
       <use xlink:href="#mc388e59b22" x="288.56479" y="224.64" style="stroke: #000000; stroke-width: 0.8"/>
      </g>
     </g>
     <g id="text_5">
      <!-- 2010 -->
      <g transform="translate(277.33354 239.14)scale(0.1 -0.1)">
       <defs>
        <path id="Roboto-Regular-31" d="M 2278 0 
L 1697 0 
L 1697 3853 
L 531 3425 
L 531 3950 
L 2188 4572 
L 2278 4572 
L 2278 0 
z
" transform="scale(0.015625)"/>
       </defs>
       <use xlink:href="#Roboto-Regular-32"/>
       <use xlink:href="#Roboto-Regular-30" x="56.152344"/>
       <use xlink:href="#Roboto-Regular-31" x="112.304688"/>
       <use xlink:href="#Roboto-Regular-30" x="168.457031"/>
      </g>
     </g>
    </g>
    <g id="xtick_6">
     <g id="line2d_11">
      <path d="M 339.466384 224.64 
L 339.466384 7.2 
" clip-path="url(#p5d9110982f)" style="fill: none; stroke-dasharray: 2.96,1.28; stroke-dashoffset: 0; stroke: #dddddd; stroke-width: 0.8"/>
     </g>
     <g id="line2d_12">
      <g>
       <use xlink:href="#mc388e59b22" x="339.466384" y="224.64" style="stroke: #000000; stroke-width: 0.8"/>
      </g>
     </g>
     <g id="text_6">
      <!-- 2012 -->
      <g transform="translate(328.235134 239.14)scale(0.1 -0.1)">
       <use xlink:href="#Roboto-Regular-32"/>
       <use xlink:href="#Roboto-Regular-30" x="56.152344"/>
       <use xlink:href="#Roboto-Regular-31" x="112.304688"/>
       <use xlink:href="#Roboto-Regular-32" x="168.457031"/>
      </g>
     </g>
    </g>
    <g id="xtick_7">
     <g id="line2d_13">
      <path d="M 390.437705 224.64 
L 390.437705 7.2 
" clip-path="url(#p5d9110982f)" style="fill: none; stroke-dasharray: 2.96,1.28; stroke-dashoffset: 0; stroke: #dddddd; stroke-width: 0.8"/>
     </g>
     <g id="line2d_14">
      <g>
       <use xlink:href="#mc388e59b22" x="390.437705" y="224.64" style="stroke: #000000; stroke-width: 0.8"/>
      </g>
     </g>
     <g id="text_7">
      <!-- 2014 -->
      <g transform="translate(379.206455 239.14)scale(0.1 -0.1)">
       <use xlink:href="#Roboto-Regular-32"/>
       <use xlink:href="#Roboto-Regular-30" x="56.152344"/>
       <use xlink:href="#Roboto-Regular-31" x="112.304688"/>
       <use xlink:href="#Roboto-Regular-34" x="168.457031"/>
      </g>
     </g>
    </g>
    <g id="xtick_8">
     <g id="line2d_15">
      <path d="M 441.339298 224.64 
L 441.339298 7.2 
" clip-path="url(#p5d9110982f)" style="fill: none; stroke-dasharray: 2.96,1.28; stroke-dashoffset: 0; stroke: #dddddd; stroke-width: 0.8"/>
     </g>
     <g id="line2d_16">
      <g>
       <use xlink:href="#mc388e59b22" x="441.339298" y="224.64" style="stroke: #000000; stroke-width: 0.8"/>
      </g>
     </g>
     <g id="text_8">
      <!-- 2016 -->
      <g transform="translate(430.108048 239.14)scale(0.1 -0.1)">
       <use xlink:href="#Roboto-Regular-32"/>
       <use xlink:href="#Roboto-Regular-30" x="56.152344"/>
       <use xlink:href="#Roboto-Regular-31" x="112.304688"/>
       <use xlink:href="#Roboto-Regular-36" x="168.457031"/>
      </g>
     </g>
    </g>
    <g id="xtick_9">
     <g id="line2d_17">
      <path d="M 492.31062 224.64 
L 492.31062 7.2 
" clip-path="url(#p5d9110982f)" style="fill: none; stroke-dasharray: 2.96,1.28; stroke-dashoffset: 0; stroke: #dddddd; stroke-width: 0.8"/>
     </g>
     <g id="line2d_18">
      <g>
       <use xlink:href="#mc388e59b22" x="492.31062" y="224.64" style="stroke: #000000; stroke-width: 0.8"/>
      </g>
     </g>
     <g id="text_9">
      <!-- 2018 -->
      <g transform="translate(481.07937 239.14)scale(0.1 -0.1)">
       <use xlink:href="#Roboto-Regular-32"/>
       <use xlink:href="#Roboto-Regular-30" x="56.152344"/>
       <use xlink:href="#Roboto-Regular-31" x="112.304688"/>
       <use xlink:href="#Roboto-Regular-38" x="168.457031"/>
      </g>
     </g>
    </g>
    <g id="xtick_10">
     <g id="line2d_19">
      <path d="M 543.212213 224.64 
L 543.212213 7.2 
" clip-path="url(#p5d9110982f)" style="fill: none; stroke-dasharray: 2.96,1.28; stroke-dashoffset: 0; stroke: #dddddd; stroke-width: 0.8"/>
     </g>
     <g id="line2d_20">
      <g>
       <use xlink:href="#mc388e59b22" x="543.212213" y="224.64" style="stroke: #000000; stroke-width: 0.8"/>
      </g>
     </g>
     <g id="text_10">
      <!-- 2020 -->
      <g transform="translate(531.980963 239.14)scale(0.1 -0.1)">
       <use xlink:href="#Roboto-Regular-32"/>
       <use xlink:href="#Roboto-Regular-30" x="56.152344"/>
       <use xlink:href="#Roboto-Regular-32" x="112.304688"/>
       <use xlink:href="#Roboto-Regular-30" x="168.457031"/>
      </g>
     </g>
    </g>
    <g id="xtick_11">
     <g id="line2d_21">
      <path d="M 594.183534 224.64 
L 594.183534 7.2 
" clip-path="url(#p5d9110982f)" style="fill: none; stroke-dasharray: 2.96,1.28; stroke-dashoffset: 0; stroke: #dddddd; stroke-width: 0.8"/>
     </g>
     <g id="line2d_22">
      <g>
       <use xlink:href="#mc388e59b22" x="594.183534" y="224.64" style="stroke: #000000; stroke-width: 0.8"/>
      </g>
     </g>
     <g id="text_11">
      <!-- 2022 -->
      <g transform="translate(582.952284 239.14)scale(0.1 -0.1)">
       <use xlink:href="#Roboto-Regular-32"/>
       <use xlink:href="#Roboto-Regular-30" x="56.152344"/>
       <use xlink:href="#Roboto-Regular-32" x="112.304688"/>
       <use xlink:href="#Roboto-Regular-32" x="168.457031"/>
      </g>
     </g>
    </g>
   </g>
   <g id="matplotlib.axis_2">
    <g id="ytick_1">
     <g id="line2d_23">
      <path d="M 57.29375 181.616964 
L 615.29375 181.616964 
" clip-path="url(#p5d9110982f)" style="fill: none; stroke-dasharray: 2.96,1.28; stroke-dashoffset: 0; stroke: #dddddd; stroke-width: 0.8"/>
     </g>
     <g id="line2d_24">
      <defs>
       <path id="md4865c4568" d="M 0 0 
L -3.5 0 
" style="stroke: #000000; stroke-width: 0.8"/>
      </defs>
      <g>
       <use xlink:href="#md4865c4568" x="57.29375" y="181.616964" style="stroke: #000000; stroke-width: 0.8"/>
      </g>
     </g>
     <g id="text_12">
      <!-- -20.0% -->
      <g transform="translate(20.73125 185.366964)scale(0.1 -0.1)">
       <defs>
        <path id="Roboto-Regular-2d" d="M 1641 1697 
L 116 1697 
L 116 2169 
L 1641 2169 
L 1641 1697 
z
" transform="scale(0.015625)"/>
        <path id="Roboto-Regular-2e" d="M 450 303 
Q 450 453 539 553 
Q 628 653 806 653 
Q 984 653 1076 553 
Q 1169 453 1169 303 
Q 1169 159 1076 62 
Q 984 -34 806 -34 
Q 628 -34 539 62 
Q 450 159 450 303 
z
" transform="scale(0.015625)"/>
        <path id="Roboto-Regular-25" d="M 328 3675 
Q 328 4084 589 4350 
Q 850 4616 1259 4616 
Q 1675 4616 1933 4348 
Q 2191 4081 2191 3656 
L 2191 3434 
Q 2191 3022 1930 2761 
Q 1669 2500 1266 2500 
Q 859 2500 593 2761 
Q 328 3022 328 3456 
L 328 3675 
z
M 759 3434 
Q 759 3191 896 3033 
Q 1034 2875 1266 2875 
Q 1488 2875 1623 3028 
Q 1759 3181 1759 3447 
L 1759 3675 
Q 1759 3919 1625 4078 
Q 1491 4238 1259 4238 
Q 1028 4238 893 4078 
Q 759 3919 759 3663 
L 759 3434 
z
M 2544 1116 
Q 2544 1525 2805 1789 
Q 3066 2053 3475 2053 
Q 3884 2053 4146 1790 
Q 4409 1528 4409 1094 
L 4409 872 
Q 4409 463 4148 198 
Q 3888 -66 3481 -66 
Q 3075 -66 2809 195 
Q 2544 456 2544 891 
L 2544 1116 
z
M 2975 872 
Q 2975 625 3112 467 
Q 3250 309 3481 309 
Q 3706 309 3840 464 
Q 3975 619 3975 884 
L 3975 1116 
Q 3975 1363 3839 1519 
Q 3703 1675 3475 1675 
Q 3253 1675 3114 1520 
Q 2975 1366 2975 1103 
L 2975 872 
z
M 1397 344 
L 1069 550 
L 3291 4106 
L 3619 3900 
L 1397 344 
z
" transform="scale(0.015625)"/>
       </defs>
       <use xlink:href="#Roboto-Regular-2d"/>
       <use xlink:href="#Roboto-Regular-32" x="27.587891"/>
       <use xlink:href="#Roboto-Regular-30" x="83.740234"/>
       <use xlink:href="#Roboto-Regular-2e" x="139.892578"/>
       <use xlink:href="#Roboto-Regular-30" x="166.210938"/>
       <use xlink:href="#Roboto-Regular-25" x="222.363281"/>
      </g>
     </g>
    </g>
    <g id="ytick_2">
     <g id="line2d_25">
      <path d="M 57.29375 135.040011 
L 615.29375 135.040011 
" clip-path="url(#p5d9110982f)" style="fill: none; stroke-dasharray: 2.96,1.28; stroke-dashoffset: 0; stroke: #dddddd; stroke-width: 0.8"/>
     </g>
     <g id="line2d_26">
      <g>
       <use xlink:href="#md4865c4568" x="57.29375" y="135.040011" style="stroke: #000000; stroke-width: 0.8"/>
      </g>
     </g>
     <g id="text_13">
      <!-- 0.0% -->
      <g transform="translate(29.10625 138.790011)scale(0.1 -0.1)">
       <use xlink:href="#Roboto-Regular-30"/>
       <use xlink:href="#Roboto-Regular-2e" x="56.152344"/>
       <use xlink:href="#Roboto-Regular-30" x="82.470703"/>
       <use xlink:href="#Roboto-Regular-25" x="138.623047"/>
      </g>
     </g>
    </g>
    <g id="ytick_3">
     <g id="line2d_27">
      <path d="M 57.29375 88.463058 
L 615.29375 88.463058 
" clip-path="url(#p5d9110982f)" style="fill: none; stroke-dasharray: 2.96,1.28; stroke-dashoffset: 0; stroke: #dddddd; stroke-width: 0.8"/>
     </g>
     <g id="line2d_28">
      <g>
       <use xlink:href="#md4865c4568" x="57.29375" y="88.463058" style="stroke: #000000; stroke-width: 0.8"/>
      </g>
     </g>
     <g id="text_14">
      <!-- 20.0% -->
      <g transform="translate(23.490625 92.213058)scale(0.1 -0.1)">
       <use xlink:href="#Roboto-Regular-32"/>
       <use xlink:href="#Roboto-Regular-30" x="56.152344"/>
       <use xlink:href="#Roboto-Regular-2e" x="112.304688"/>
       <use xlink:href="#Roboto-Regular-30" x="138.623047"/>
       <use xlink:href="#Roboto-Regular-25" x="194.775391"/>
      </g>
     </g>
    </g>
    <g id="ytick_4">
     <g id="line2d_29">
      <path d="M 57.29375 41.886105 
L 615.29375 41.886105 
" clip-path="url(#p5d9110982f)" style="fill: none; stroke-dasharray: 2.96,1.28; stroke-dashoffset: 0; stroke: #dddddd; stroke-width: 0.8"/>
     </g>
     <g id="line2d_30">
      <g>
       <use xlink:href="#md4865c4568" x="57.29375" y="41.886105" style="stroke: #000000; stroke-width: 0.8"/>
      </g>
     </g>
     <g id="text_15">
      <!-- 40.0% -->
      <g transform="translate(23.490625 45.636105)scale(0.1 -0.1)">
       <use xlink:href="#Roboto-Regular-34"/>
       <use xlink:href="#Roboto-Regular-30" x="56.152344"/>
       <use xlink:href="#Roboto-Regular-2e" x="112.304688"/>
       <use xlink:href="#Roboto-Regular-30" x="138.623047"/>
       <use xlink:href="#Roboto-Regular-25" x="194.775391"/>
      </g>
     </g>
    </g>
    <g id="text_16">
     <!-- YoY Growth -->
     <g transform="translate(14.7 142.109062)rotate(-90)scale(0.1 -0.1)">
      <defs>
       <path id="Roboto-Regular-59" d="M 1916 2266 
L 3103 4550 
L 3784 4550 
L 2216 1697 
L 2216 0 
L 1616 0 
L 1616 1697 
L 47 4550 
L 734 4550 
L 1916 2266 
z
" transform="scale(0.015625)"/>
       <path id="Roboto-Regular-6f" d="M 284 1722 
Q 284 2219 479 2616 
Q 675 3013 1023 3228 
Q 1372 3444 1819 3444 
Q 2509 3444 2936 2966 
Q 3363 2488 3363 1694 
L 3363 1653 
Q 3363 1159 3173 767 
Q 2984 375 2632 156 
Q 2281 -63 1825 -63 
Q 1138 -63 711 415 
Q 284 894 284 1681 
L 284 1722 
z
M 866 1653 
Q 866 1091 1127 750 
Q 1388 409 1825 409 
Q 2266 409 2525 754 
Q 2784 1100 2784 1722 
Q 2784 2278 2520 2623 
Q 2256 2969 1819 2969 
Q 1391 2969 1128 2628 
Q 866 2288 866 1653 
z
" transform="scale(0.015625)"/>
       <path id="Roboto-Regular-20" transform="scale(0.015625)"/>
       <path id="Roboto-Regular-47" d="M 3888 597 
Q 3656 266 3242 101 
Q 2828 -63 2278 -63 
Q 1722 -63 1290 198 
Q 859 459 623 940 
Q 388 1422 381 2056 
L 381 2453 
Q 381 3481 861 4047 
Q 1341 4613 2209 4613 
Q 2922 4613 3356 4248 
Q 3791 3884 3888 3216 
L 3288 3216 
Q 3119 4119 2213 4119 
Q 1609 4119 1298 3695 
Q 988 3272 984 2469 
L 984 2097 
Q 984 1331 1334 879 
Q 1684 428 2281 428 
Q 2619 428 2872 503 
Q 3125 578 3291 756 
L 3291 1778 
L 2238 1778 
L 2238 2266 
L 3888 2266 
L 3888 597 
z
" transform="scale(0.015625)"/>
       <path id="Roboto-Regular-72" d="M 2072 2863 
Q 1941 2884 1788 2884 
Q 1219 2884 1016 2400 
L 1016 0 
L 438 0 
L 438 3381 
L 1000 3381 
L 1009 2991 
Q 1294 3444 1816 3444 
Q 1984 3444 2072 3400 
L 2072 2863 
z
" transform="scale(0.015625)"/>
       <path id="Roboto-Regular-77" d="M 3431 797 
L 4081 3381 
L 4659 3381 
L 3675 0 
L 3206 0 
L 2384 2563 
L 1584 0 
L 1116 0 
L 134 3381 
L 709 3381 
L 1375 850 
L 2163 3381 
L 2628 3381 
L 3431 797 
z
" transform="scale(0.015625)"/>
       <path id="Roboto-Regular-74" d="M 1222 4200 
L 1222 3381 
L 1853 3381 
L 1853 2934 
L 1222 2934 
L 1222 838 
Q 1222 634 1306 532 
Q 1391 431 1594 431 
Q 1694 431 1869 469 
L 1869 0 
Q 1641 -63 1425 -63 
Q 1038 -63 841 171 
Q 644 406 644 838 
L 644 2934 
L 28 2934 
L 28 3381 
L 644 3381 
L 644 4200 
L 1222 4200 
z
" transform="scale(0.015625)"/>
       <path id="Roboto-Regular-68" d="M 1016 2972 
Q 1400 3444 2016 3444 
Q 3088 3444 3097 2234 
L 3097 0 
L 2519 0 
L 2519 2238 
Q 2516 2603 2352 2778 
Q 2188 2953 1841 2953 
Q 1559 2953 1346 2803 
Q 1134 2653 1016 2409 
L 1016 0 
L 438 0 
L 438 4800 
L 1016 4800 
L 1016 2972 
z
" transform="scale(0.015625)"/>
      </defs>
      <use xlink:href="#Roboto-Regular-59"/>
      <use xlink:href="#Roboto-Regular-6f" x="60.058594"/>
      <use xlink:href="#Roboto-Regular-59" x="117.089844"/>
      <use xlink:href="#Roboto-Regular-20" x="177.148438"/>
      <use xlink:href="#Roboto-Regular-47" x="201.904297"/>
      <use xlink:href="#Roboto-Regular-72" x="270.019531"/>
      <use xlink:href="#Roboto-Regular-6f" x="303.857422"/>
      <use xlink:href="#Roboto-Regular-77" x="360.888672"/>
      <use xlink:href="#Roboto-Regular-74" x="436.035156"/>
      <use xlink:href="#Roboto-Regular-68" x="468.701172"/>
     </g>
    </g>
   </g>
   <g id="line2d_31">
    <path d="M 82.657386 147.20388 
L 84.818961 145.654182 
L 86.980535 167.236 
L 88.932925 180.154562 
L 91.0945 175.756102 
L 93.186346 177.381829 
L 95.347921 176.334592 
L 97.439767 172.895056 
L 99.601341 173.990667 
L 101.762916 174.443752 
L 103.854762 157.026399 
L 106.016337 177.822671 
L 108.108183 166.067157 
L 110.269757 161.192954 
L 112.431332 149.414547 
L 114.383722 146.061344 
L 116.545296 162.539272 
L 118.637143 152.279614 
L 120.798717 162.49914 
L 122.890563 150.856713 
L 125.052138 158.785976 
L 127.213713 161.075763 
L 129.305559 169.572157 
L 131.467133 166.419305 
L 133.55898 168.976295 
L 135.720554 169.165543 
L 137.882129 163.990871 
L 139.904247 162.693132 
L 142.065821 156.895779 
L 144.157668 161.189698 
L 146.319242 149.212771 
L 148.411088 164.980889 
L 150.572663 136.431456 
L 152.734237 138.500426 
L 154.826084 95.215314 
L 156.987658 96.086166 
L 159.079504 77.707428 
L 161.241079 77.549047 
L 163.402653 73.405306 
L 165.355043 80.407072 
L 167.516618 69.080356 
L 169.608464 78.729854 
L 171.770039 91.657468 
L 173.861885 87.994929 
L 176.023459 138.223657 
L 178.185034 135.498351 
L 180.27688 161.829723 
L 182.438455 164.961109 
L 184.530301 160.746276 
L 186.691876 154.886833 
L 188.85345 153.596866 
L 190.80584 158.968682 
L 192.967414 154.10679 
L 195.059261 160.730742 
L 197.220835 123.843281 
L 199.312682 120.879894 
L 201.474256 86.886232 
L 203.635831 79.946381 
L 205.727677 60.770502 
L 207.889251 47.619114 
L 209.981098 75.943813 
L 212.142672 59.881016 
L 214.304247 47.062189 
L 216.256637 30.522188 
L 218.418211 54.664782 
L 220.510057 27.354762 
L 222.671632 48.822703 
L 224.763478 36.696573 
L 226.925053 22.080664 
L 229.086627 17.083636 
L 231.178474 33.421797 
L 233.340048 48.130603 
L 235.431894 38.840378 
L 237.593469 47.667371 
L 239.755043 53.69382 
L 241.777161 62.471295 
L 243.938736 54.102351 
L 246.030582 86.456854 
L 248.192157 100.137631 
L 250.284003 105.286842 
L 252.445578 122.044868 
L 254.607152 137.296419 
L 256.698998 129.362413 
L 258.860573 124.646526 
L 260.952419 130.024132 
L 263.113994 130.210358 
L 265.275568 137.694824 
L 267.227958 139.894535 
L 269.389533 137.266394 
L 271.481379 125.514909 
L 273.642953 126.791887 
L 275.7348 122.154077 
L 277.896374 120.742024 
L 280.057949 60.666051 
L 282.149795 82.685758 
L 284.311369 85.856354 
L 286.403216 70.116596 
L 288.56479 84.270835 
L 290.726365 90.170605 
L 292.678755 79.749916 
L 294.840329 87.77529 
L 296.932175 82.503397 
L 299.09375 67.015068 
L 301.185596 87.910049 
L 303.347171 96.994386 
L 305.508745 143.210401 
L 307.600592 144.062366 
L 309.762166 146.780531 
L 311.854012 153.445588 
L 314.015587 153.547866 
L 316.177161 150.818013 
L 318.129551 140.180448 
L 322.382972 131.430088 
L 324.544547 136.051808 
L 326.636393 114.85237 
L 328.797967 106.990035 
L 330.959542 105.826602 
L 333.051388 103.352744 
L 335.212963 97.186755 
L 337.304809 96.789207 
L 339.466384 100.493052 
L 341.627958 101.956585 
L 343.650076 113.165492 
L 345.811651 110.376989 
L 347.903497 106.594526 
L 350.065071 106.447889 
L 352.156918 118.388989 
L 354.318492 122.501981 
L 356.480067 122.328823 
L 358.571913 117.322054 
L 360.733488 119.405281 
L 362.825334 112.552746 
L 364.986908 109.327188 
L 367.148483 102.238285 
L 369.100873 99.525026 
L 371.262447 106.836885 
L 373.354294 112.923473 
L 375.515868 118.713096 
L 377.607714 115.720715 
L 379.769289 105.537033 
L 381.930863 105.272544 
L 384.02271 110.171077 
L 386.184284 117.533393 
L 388.276131 121.781642 
L 390.437705 124.588066 
L 392.59928 130.079262 
L 394.551669 133.345217 
L 396.713244 133.103674 
L 398.80509 130.776584 
L 400.966665 133.986713 
L 403.058511 129.124459 
L 405.220086 136.266523 
L 407.38166 135.866511 
L 409.473506 134.831901 
L 411.635081 143.428815 
L 413.726927 151.233171 
L 415.888502 142.628222 
L 418.050076 145.158824 
L 420.002466 130.400606 
L 422.164041 131.492859 
L 424.255887 124.936147 
L 426.417461 120.210249 
L 428.509308 119.268256 
L 430.670882 113.688381 
L 432.832457 104.243145 
L 434.924303 108.547423 
L 437.085877 87.834993 
L 439.177724 76.004717 
L 441.339298 75.107822 
L 443.500873 75.563577 
L 445.522991 109.937953 
L 447.684565 107.846924 
L 449.776412 108.307975 
L 451.937986 95.464939 
L 454.029832 89.09846 
L 456.191407 98.832752 
L 458.352981 104.022351 
L 460.444828 100.302812 
L 462.606402 92.702908 
L 464.698249 102.781465 
L 466.859823 118.575048 
L 469.021398 102.718331 
L 470.973787 76.764095 
L 473.135362 67.025751 
L 475.227208 80.804739 
L 477.388783 98.188773 
L 479.480629 103.202985 
L 481.642204 79.062277 
L 483.803778 99.121787 
L 485.895624 94.953829 
L 488.057199 98.819765 
L 490.149045 78.989042 
L 492.31062 76.337089 
L 494.472194 78.029466 
L 496.424584 89.312251 
L 498.586159 89.272496 
L 500.678005 73.873638 
L 502.839579 71.54496 
L 504.931426 86.436482 
L 507.093 104.963492 
L 509.254575 94.556499 
L 511.346421 98.707917 
L 513.507996 110.465785 
L 515.599842 130.334867 
L 517.761416 124.014055 
L 519.922991 126.995545 
L 521.875381 127.078444 
L 524.036955 133.26308 
L 526.128802 142.302444 
L 528.290376 138.86653 
L 530.382222 132.862638 
L 532.543797 129.340204 
L 534.705371 134.769401 
L 536.797218 144.072581 
L 538.958792 143.537901 
L 541.050638 142.135418 
L 543.212213 144.100864 
L 545.373787 143.517629 
L 547.395906 95.581527 
L 549.55748 87.053256 
L 551.649326 100.12208 
L 553.810901 104.606457 
L 555.902747 115.209567 
L 558.064322 129.670477 
L 560.225896 135.23406 
L 562.317743 139.943812 
L 566.571163 167.873739 
L 568.732738 168.148013 
L 570.894312 175.782427 
L 572.846702 214.445641 
L 575.008277 212.659154 
L 577.100123 214.756364 
L 579.261698 214.397701 
L 581.353544 212.132808 
L 585.676693 203.335149 
L 587.768539 193.726764 
L 589.930114 175.979034 
L 589.930114 175.979034 
" clip-path="url(#p5d9110982f)" style="fill: none; stroke: #2b5aa5; stroke-width: 1.5; stroke-linecap: square"/>
   </g>
   <g id="line2d_32">
    <path d="M 82.657386 164.779789 
L 84.818961 166.965738 
L 86.980535 167.006083 
L 88.932925 165.53835 
L 91.0945 163.70182 
L 93.186346 161.452372 
L 95.347921 157.008693 
L 97.439767 154.404554 
L 99.601341 154.12227 
L 101.762916 152.983086 
L 103.854762 145.654747 
L 106.016337 138.714074 
L 108.108183 120.018464 
L 110.269757 114.496744 
L 112.431332 111.184816 
L 114.383722 110.231208 
L 116.545296 119.067536 
L 118.637143 116.80141 
L 120.798717 124.287903 
L 122.890563 126.960759 
L 125.052138 124.805274 
L 127.213713 136.065913 
L 129.305559 138.338265 
L 131.467133 137.188529 
L 133.55898 137.444254 
L 135.720554 138.368826 
L 137.882129 138.531813 
L 139.904247 135.052873 
L 142.065821 129.130187 
L 144.157668 129.706379 
L 146.319242 121.148418 
L 148.411088 116.479153 
L 150.572663 123.283772 
L 154.826084 100.291094 
L 156.987658 101.317624 
L 159.079504 86.781238 
L 161.241079 82.976874 
L 163.402653 77.914449 
L 165.355043 82.207019 
L 167.516618 76.610418 
L 169.608464 76.886128 
L 171.770039 85.476788 
L 173.861885 81.798709 
L 176.023459 83.467119 
L 178.185034 92.848177 
L 180.27688 105.61423 
L 182.438455 105.64505 
L 184.530301 114.124178 
L 186.691876 115.882572 
L 188.85345 115.775231 
L 190.80584 109.893084 
L 192.967414 111.081535 
L 195.059261 110.51714 
L 197.220835 99.85509 
L 199.312682 101.530349 
L 201.474256 97.749872 
L 203.635831 87.525846 
L 205.727677 79.487195 
L 207.889251 76.613242 
L 209.981098 72.894345 
L 212.142672 66.511843 
L 214.304247 63.864517 
L 216.256637 64.234376 
L 218.418211 69.097223 
L 220.510057 65.264741 
L 222.671632 63.369144 
L 224.763478 60.084213 
L 226.925053 50.13834 
L 229.086627 47.079153 
L 231.178474 44.689464 
L 233.340048 49.797775 
L 235.431894 61.263599 
L 237.593469 59.536018 
L 239.755043 60.454686 
L 241.777161 60.863868 
L 243.938736 57.748557 
L 246.030582 62.589128 
L 248.192157 67.227815 
L 250.284003 67.217316 
L 252.445578 71.281389 
L 254.607152 78.257436 
L 256.698998 71.92737 
L 258.860573 70.802614 
L 260.952419 74.69945 
L 263.113994 73.490413 
L 265.275568 73.824809 
L 267.227958 84.801692 
L 269.389533 92.315144 
L 271.481379 98.599428 
L 275.7348 106.597644 
L 277.896374 115.8114 
L 280.057949 114.697753 
L 282.149795 131.03261 
L 284.311369 133.803959 
L 286.403216 126.326415 
L 288.56479 132.520239 
L 290.726365 137.61967 
L 292.678755 131.931299 
L 294.840329 130.967139 
L 296.932175 122.897287 
L 299.09375 122.160234 
L 301.185596 123.052492 
L 303.347171 116.98905 
L 305.508745 117.56806 
L 307.600592 110.786308 
L 309.762166 110.531243 
L 311.854012 116.602736 
L 314.015587 113.510085 
L 316.177161 107.555135 
L 318.129551 104.989826 
L 320.291126 105.434176 
L 322.382972 108.925742 
L 324.544547 110.629343 
L 326.636393 103.671676 
L 328.797967 103.827337 
L 330.959542 99.397785 
L 333.051388 107.346833 
L 335.212963 103.302289 
L 337.304809 95.993744 
L 339.466384 104.425224 
L 341.627958 108.970551 
L 343.650076 107.932393 
L 345.811651 106.367505 
L 347.903497 98.220687 
L 350.065071 99.194955 
L 352.156918 106.251932 
L 354.318492 109.007559 
L 356.480067 115.412277 
L 358.571913 113.001201 
L 362.825334 118.858766 
L 364.986908 115.664248 
L 367.148483 114.74964 
L 369.100873 119.429302 
L 371.262447 117.11298 
L 373.354294 121.34108 
L 375.515868 117.209072 
L 377.607714 114.424504 
L 379.769289 111.30234 
L 381.930863 114.047303 
L 384.02271 111.061191 
L 386.184284 110.930572 
L 388.276131 113.813627 
L 390.437705 114.00674 
L 392.59928 116.444906 
L 394.551669 116.183606 
L 396.713244 117.041431 
L 398.80509 116.016723 
L 400.966665 118.657715 
L 403.058511 120.042149 
L 405.220086 121.959866 
L 407.38166 120.114643 
L 409.473506 120.33296 
L 411.635081 118.922714 
L 413.726927 115.998847 
L 415.888502 109.948625 
L 418.050076 110.435238 
L 420.002466 104.765855 
L 422.164041 101.761701 
L 424.255887 103.816661 
L 426.417461 102.974291 
L 428.509308 101.300668 
L 430.670882 98.747462 
L 432.832457 92.090439 
L 434.924303 95.44777 
L 437.085877 98.03088 
L 439.177724 94.458954 
L 441.339298 91.246301 
L 443.500873 89.382181 
L 445.522991 99.552018 
L 447.684565 103.800388 
L 449.776412 101.635731 
L 451.937986 96.778937 
L 454.029832 93.537277 
L 456.191407 96.597594 
L 460.444828 97.354818 
L 462.606402 89.232798 
L 464.698249 96.480453 
L 466.859823 104.427217 
L 469.021398 103.997344 
L 470.973787 96.279675 
L 473.135362 91.498228 
L 475.227208 96.597528 
L 477.388783 99.009253 
L 479.480629 102.774633 
L 481.642204 99.432939 
L 483.803778 104.77757 
L 485.895624 99.006346 
L 488.057199 106.687613 
L 490.149045 100.558949 
L 492.31062 101.718527 
L 494.472194 99.29677 
L 496.424584 101.437584 
L 498.586159 101.727535 
L 500.678005 94.990549 
L 502.839579 93.378624 
L 504.931426 98.850098 
L 507.093 99.500605 
L 509.254575 100.302606 
L 511.346421 99.801319 
L 513.507996 100.102587 
L 515.599842 105.825694 
L 517.761416 104.744228 
L 519.922991 104.444902 
L 521.875381 101.140565 
L 524.036955 104.846427 
L 526.128802 109.022939 
L 528.290376 111.979341 
L 530.382222 110.965609 
L 532.543797 109.746199 
L 534.705371 114.702861 
L 536.797218 123.419719 
L 538.958792 123.278561 
L 541.050638 128.227831 
L 543.212213 127.051624 
L 545.373787 126.816848 
L 547.395906 104.423574 
L 549.55748 98.172178 
L 551.649326 108.904138 
L 553.810901 114.751307 
L 555.902747 118.133847 
L 558.064322 126.940572 
L 560.225896 127.895709 
L 562.317743 130.663332 
L 564.479317 138.730334 
L 566.571163 140.274388 
L 568.732738 139.896493 
L 570.894312 142.154803 
L 572.846702 166.489442 
L 575.008277 172.439548 
L 579.261698 165.027312 
L 581.353544 159.407781 
L 583.515118 156.53929 
L 585.676693 151.80616 
L 587.768539 144.307962 
L 589.930114 135.190698 
L 589.930114 135.190698 
" clip-path="url(#p5d9110982f)" style="fill: none; stroke: #808080; stroke-width: 1.5; stroke-linecap: square"/>
   </g>
   <g id="patch_3">
    <path d="M 57.29375 224.64 
L 57.29375 7.2 
" style="fill: none; stroke: #000000; stroke-width: 0.8; stroke-linejoin: miter; stroke-linecap: square"/>
   </g>
   <g id="patch_4">
    <path d="M 57.29375 224.64 
L 615.29375 224.64 
" style="fill: none; stroke: #000000; stroke-width: 0.8; stroke-linejoin: miter; stroke-linecap: square"/>
   </g>
   <g id="legend_1">
    <g id="line2d_33">
     <path d="M 235.865625 253.59675 
L 245.865625 253.59675 
L 255.865625 253.59675 
" style="fill: none; stroke: #2b5aa5; stroke-width: 1.5; stroke-linecap: square"/>
    </g>
    <g id="text_17">
     <!-- Banamex -->
     <g transform="translate(263.865625 257.09675)scale(0.1 -0.1)">
      <defs>
       <path id="Roboto-Regular-42" d="M 528 0 
L 528 4550 
L 2016 4550 
Q 2756 4550 3129 4244 
Q 3503 3938 3503 3338 
Q 3503 3019 3322 2773 
Q 3141 2528 2828 2394 
Q 3197 2291 3411 2002 
Q 3625 1713 3625 1313 
Q 3625 700 3228 350 
Q 2831 0 2106 0 
L 528 0 
z
M 1128 2128 
L 1128 491 
L 2119 491 
Q 2538 491 2780 708 
Q 3022 925 3022 1306 
Q 3022 2128 2128 2128 
L 1128 2128 
z
M 1128 2609 
L 2034 2609 
Q 2428 2609 2664 2806 
Q 2900 3003 2900 3341 
Q 2900 3716 2681 3886 
Q 2463 4056 2016 4056 
L 1128 4056 
L 1128 2609 
z
" transform="scale(0.015625)"/>
       <path id="Roboto-Regular-61" d="M 2525 0 
Q 2475 100 2444 356 
Q 2041 -63 1481 -63 
Q 981 -63 661 220 
Q 341 503 341 938 
Q 341 1466 742 1758 
Q 1144 2050 1872 2050 
L 2434 2050 
L 2434 2316 
Q 2434 2619 2253 2798 
Q 2072 2978 1719 2978 
Q 1409 2978 1200 2822 
Q 991 2666 991 2444 
L 409 2444 
Q 409 2697 589 2933 
Q 769 3169 1076 3306 
Q 1384 3444 1753 3444 
Q 2338 3444 2669 3151 
Q 3000 2859 3013 2347 
L 3013 791 
Q 3013 325 3131 50 
L 3131 0 
L 2525 0 
z
M 1566 441 
Q 1838 441 2081 581 
Q 2325 722 2434 947 
L 2434 1641 
L 1981 1641 
Q 919 1641 919 1019 
Q 919 747 1100 594 
Q 1281 441 1566 441 
z
" transform="scale(0.015625)"/>
       <path id="Roboto-Regular-6e" d="M 984 3381 
L 1003 2956 
Q 1391 3444 2016 3444 
Q 3088 3444 3097 2234 
L 3097 0 
L 2519 0 
L 2519 2238 
Q 2516 2603 2352 2778 
Q 2188 2953 1841 2953 
Q 1559 2953 1346 2803 
Q 1134 2653 1016 2409 
L 1016 0 
L 438 0 
L 438 3381 
L 984 3381 
z
" transform="scale(0.015625)"/>
       <path id="Roboto-Regular-6d" d="M 981 3381 
L 997 3006 
Q 1369 3444 2000 3444 
Q 2709 3444 2966 2900 
Q 3134 3144 3404 3294 
Q 3675 3444 4044 3444 
Q 5156 3444 5175 2266 
L 5175 0 
L 4597 0 
L 4597 2231 
Q 4597 2594 4431 2773 
Q 4266 2953 3875 2953 
Q 3553 2953 3340 2761 
Q 3128 2569 3094 2244 
L 3094 0 
L 2513 0 
L 2513 2216 
Q 2513 2953 1791 2953 
Q 1222 2953 1013 2469 
L 1013 0 
L 434 0 
L 434 3381 
L 981 3381 
z
" transform="scale(0.015625)"/>
       <path id="Roboto-Regular-65" d="M 1841 -63 
Q 1153 -63 722 389 
Q 291 841 291 1597 
L 291 1703 
Q 291 2206 483 2601 
Q 675 2997 1020 3220 
Q 1366 3444 1769 3444 
Q 2428 3444 2793 3009 
Q 3159 2575 3159 1766 
L 3159 1525 
L 869 1525 
Q 881 1025 1161 717 
Q 1441 409 1872 409 
Q 2178 409 2390 534 
Q 2603 659 2763 866 
L 3116 591 
Q 2691 -63 1841 -63 
z
M 1769 2969 
Q 1419 2969 1181 2714 
Q 944 2459 888 2000 
L 2581 2000 
L 2581 2044 
Q 2556 2484 2343 2726 
Q 2131 2969 1769 2969 
z
" transform="scale(0.015625)"/>
       <path id="Roboto-Regular-78" d="M 1572 2147 
L 2322 3381 
L 2997 3381 
L 1891 1709 
L 3031 0 
L 2363 0 
L 1581 1266 
L 800 0 
L 128 0 
L 1269 1709 
L 163 3381 
L 831 3381 
L 1572 2147 
z
" transform="scale(0.015625)"/>
      </defs>
      <use xlink:href="#Roboto-Regular-42"/>
      <use xlink:href="#Roboto-Regular-61" x="62.255859"/>
      <use xlink:href="#Roboto-Regular-6e" x="116.650391"/>
      <use xlink:href="#Roboto-Regular-61" x="171.826172"/>
      <use xlink:href="#Roboto-Regular-6d" x="226.220703"/>
      <use xlink:href="#Roboto-Regular-65" x="313.867188"/>
      <use xlink:href="#Roboto-Regular-78" x="366.845703"/>
     </g>
    </g>
    <g id="line2d_34">
     <path d="M 325.504687 253.59675 
L 335.504687 253.59675 
L 345.504687 253.59675 
" style="fill: none; stroke: #808080; stroke-width: 1.5; stroke-linecap: square"/>
    </g>
    <g id="text_18">
     <!-- Commercial banks -->
     <g transform="translate(353.504687 257.09675)scale(0.1 -0.1)">
      <defs>
       <path id="Roboto-Regular-43" d="M 3875 1444 
Q 3791 722 3342 329 
Q 2894 -63 2150 -63 
Q 1344 -63 858 515 
Q 372 1094 372 2063 
L 372 2500 
Q 372 3134 598 3615 
Q 825 4097 1240 4355 
Q 1656 4613 2203 4613 
Q 2928 4613 3365 4208 
Q 3803 3803 3875 3088 
L 3272 3088 
Q 3194 3631 2933 3875 
Q 2672 4119 2203 4119 
Q 1628 4119 1301 3694 
Q 975 3269 975 2484 
L 975 2044 
Q 975 1303 1284 865 
Q 1594 428 2150 428 
Q 2650 428 2917 654 
Q 3184 881 3272 1444 
L 3875 1444 
z
" transform="scale(0.015625)"/>
       <path id="Roboto-Regular-63" d="M 1794 409 
Q 2103 409 2334 596 
Q 2566 784 2591 1066 
L 3138 1066 
Q 3122 775 2937 512 
Q 2753 250 2445 93 
Q 2138 -63 1794 -63 
Q 1103 -63 695 398 
Q 288 859 288 1659 
L 288 1756 
Q 288 2250 469 2634 
Q 650 3019 989 3231 
Q 1328 3444 1791 3444 
Q 2359 3444 2736 3103 
Q 3113 2763 3138 2219 
L 2591 2219 
Q 2566 2547 2342 2758 
Q 2119 2969 1791 2969 
Q 1350 2969 1108 2651 
Q 866 2334 866 1734 
L 866 1625 
Q 866 1041 1106 725 
Q 1347 409 1794 409 
z
" transform="scale(0.015625)"/>
       <path id="Roboto-Regular-69" d="M 1066 0 
L 488 0 
L 488 3381 
L 1066 3381 
L 1066 0 
z
M 441 4278 
Q 441 4419 527 4516 
Q 613 4613 781 4613 
Q 950 4613 1037 4516 
Q 1125 4419 1125 4278 
Q 1125 4138 1037 4044 
Q 950 3950 781 3950 
Q 613 3950 527 4044 
Q 441 4138 441 4278 
z
" transform="scale(0.015625)"/>
       <path id="Roboto-Regular-6c" d="M 1066 0 
L 488 0 
L 488 4800 
L 1066 4800 
L 1066 0 
z
" transform="scale(0.015625)"/>
       <path id="Roboto-Regular-62" d="M 3300 1653 
Q 3300 878 2944 407 
Q 2588 -63 1988 -63 
Q 1347 -63 997 391 
L 969 0 
L 438 0 
L 438 4800 
L 1016 4800 
L 1016 3009 
Q 1366 3444 1981 3444 
Q 2597 3444 2948 2978 
Q 3300 2513 3300 1703 
L 3300 1653 
z
M 2722 1719 
Q 2722 2309 2494 2631 
Q 2266 2953 1838 2953 
Q 1266 2953 1016 2422 
L 1016 959 
Q 1281 428 1844 428 
Q 2259 428 2490 750 
Q 2722 1072 2722 1719 
z
" transform="scale(0.015625)"/>
       <path id="Roboto-Regular-6b" d="M 1381 1566 
L 1019 1188 
L 1019 0 
L 441 0 
L 441 4800 
L 1019 4800 
L 1019 1897 
L 1328 2269 
L 2381 3381 
L 3084 3381 
L 1769 1969 
L 3238 0 
L 2559 0 
L 1381 1566 
z
" transform="scale(0.015625)"/>
       <path id="Roboto-Regular-73" d="M 2406 897 
Q 2406 1131 2229 1261 
Q 2053 1391 1614 1484 
Q 1175 1578 917 1709 
Q 659 1841 536 2022 
Q 413 2203 413 2453 
Q 413 2869 764 3156 
Q 1116 3444 1663 3444 
Q 2238 3444 2595 3147 
Q 2953 2850 2953 2388 
L 2372 2388 
Q 2372 2625 2170 2797 
Q 1969 2969 1663 2969 
Q 1347 2969 1169 2831 
Q 991 2694 991 2472 
Q 991 2263 1156 2156 
Q 1322 2050 1755 1953 
Q 2188 1856 2456 1722 
Q 2725 1588 2854 1398 
Q 2984 1209 2984 938 
Q 2984 484 2621 210 
Q 2259 -63 1681 -63 
Q 1275 -63 962 81 
Q 650 225 473 483 
Q 297 741 297 1041 
L 875 1041 
Q 891 750 1108 579 
Q 1325 409 1681 409 
Q 2009 409 2207 542 
Q 2406 675 2406 897 
z
" transform="scale(0.015625)"/>
      </defs>
      <use xlink:href="#Roboto-Regular-43"/>
      <use xlink:href="#Roboto-Regular-6f" x="65.087891"/>
      <use xlink:href="#Roboto-Regular-6d" x="122.119141"/>
      <use xlink:href="#Roboto-Regular-6d" x="209.765625"/>
      <use xlink:href="#Roboto-Regular-65" x="297.412109"/>
      <use xlink:href="#Roboto-Regular-72" x="350.390625"/>
      <use xlink:href="#Roboto-Regular-63" x="384.228516"/>
      <use xlink:href="#Roboto-Regular-69" x="436.572266"/>
      <use xlink:href="#Roboto-Regular-61" x="460.839844"/>
      <use xlink:href="#Roboto-Regular-6c" x="515.234375"/>
      <use xlink:href="#Roboto-Regular-20" x="539.501953"/>
      <use xlink:href="#Roboto-Regular-62" x="564.257812"/>
      <use xlink:href="#Roboto-Regular-61" x="620.361328"/>
      <use xlink:href="#Roboto-Regular-6e" x="674.755859"/>
      <use xlink:href="#Roboto-Regular-6b" x="729.931641"/>
      <use xlink:href="#Roboto-Regular-73" x="780.615234"/>
     </g>
    </g>
   </g>
  </g>
 </g>
 <defs>
  <clipPath id="p5d9110982f">
   <rect x="57.29375" y="7.2" width="558" height="217.44"/>
  </clipPath>
 </defs>
</svg>
